<?xml version="1.0" standalone="no"?>
<!DOCTYPE svg PUBLIC "-//W3C//DTD SVG 20010904//EN"
 "http://www.w3.org/TR/2001/REC-SVG-20010904/DTD/svg10.dtd">
<svg version="1.0" xmlns="http://www.w3.org/2000/svg"
 width="110592.000000pt" height="110592.000000pt" viewBox="0 0 110592.000000 110592.000000"
 preserveAspectRatio="xMidYMid meet">
<metadata>
Created by potrace 1.11, written by Peter Selinger 2001-2013
</metadata>
<g transform="translate(0.000000,110592.000000) scale(3.590649,-3.590649)"
fill="#000000" stroke="none">
<path d="M20940 28648 c-76 -29 -308 -255 -388 -378 -69 -105 -210 -389 -244
-490 -74 -217 -73 -212 -73 -400 0 -164 2 -180 28 -260 65 -201 133 -355 250
-571 31 -59 70 -143 87 -188 16 -45 31 -85 34 -90 3 -5 19 -62 36 -127 32
-124 72 -229 145 -374 57 -114 105 -268 112 -360 5 -68 2 -85 -30 -180 -20
-58 -41 -125 -47 -150 -7 -25 -29 -90 -50 -145 -41 -108 -86 -261 -96 -322 -7
-48 -47 -139 -143 -328 -42 -83 -86 -175 -99 -205 -32 -79 -142 -259 -293
-482 -42 -62 -91 -140 -109 -173 -18 -33 -52 -89 -75 -125 -68 -107 -108 -178
-177 -315 -90 -180 -242 -410 -281 -424 -23 -9 -77 -104 -77 -135 0 -16 -25
-76 -64 -154 -21 -43 -73 -96 -141 -142 -72 -50 -87 -63 -113 -102 -42 -63
-118 -189 -141 -233 -35 -67 -173 -237 -223 -272 -62 -45 -106 -48 -163 -12
-34 21 -47 39 -63 81 -26 70 -40 147 -48 267 -4 53 -12 105 -19 116 -14 23
-32 141 -40 266 -3 47 -15 123 -25 168 -11 45 -22 96 -25 114 -3 17 -12 66
-20 107 -7 41 -19 122 -25 180 -7 58 -23 135 -36 171 -13 37 -24 72 -24 79 0
6 -24 78 -54 158 -30 81 -71 192 -91 247 -21 55 -43 112 -51 126 -70 136 -149
562 -174 934 -8 113 -18 193 -32 240 -73 246 -72 871 1 1120 12 38 21 79 21
91 0 12 8 32 18 45 10 13 27 47 37 74 67 182 304 608 394 708 26 29 62 72 80
97 17 25 51 70 74 101 23 31 64 87 91 125 27 38 55 74 61 79 7 6 15 19 18 30
4 11 43 79 87 150 107 174 117 194 157 305 47 129 65 241 59 365 -12 244 -106
333 -430 405 -128 28 -142 29 -227 20 -113 -13 -246 -42 -364 -80 -203 -65
-259 -103 -468 -320 -126 -131 -257 -302 -309 -403 -11 -22 -40 -69 -66 -106
-167 -241 -249 -346 -360 -455 -67 -66 -72 -69 -108 -63 -20 3 -47 15 -59 27
-12 11 -28 20 -36 20 -8 0 -48 27 -89 61 -41 33 -97 78 -125 99 -27 21 -60 48
-72 58 -12 11 -32 23 -45 27 -33 10 -186 93 -228 124 -19 14 -67 53 -105 86
-39 33 -88 73 -111 89 -22 16 -56 51 -75 77 -19 27 -46 57 -61 68 -98 74 -213
149 -268 175 -57 27 -78 31 -165 34 l-101 4 -78 -41 c-107 -55 -137 -80 -170
-142 -25 -45 -31 -69 -37 -163 -31 -413 -19 -621 56 -996 13 -68 139 -470 156
-500 43 -77 80 -134 163 -250 53 -74 114 -162 136 -195 124 -187 241 -320 400
-455 62 -52 169 -147 239 -211 69 -63 151 -135 181 -160 30 -24 91 -82 135
-128 44 -46 104 -102 134 -124 78 -57 80 -59 215 -192 117 -115 255 -291 280
-357 6 -15 14 -28 18 -28 9 0 115 -139 148 -195 31 -52 87 -133 167 -241 66
-88 141 -246 213 -446 21 -60 50 -129 63 -155 57 -110 77 -165 107 -293 65
-284 84 -357 107 -425 14 -38 26 -77 28 -85 2 -8 13 -51 25 -95 28 -105 57
-522 37 -541 -10 -10 -85 45 -93 68 -17 53 -237 191 -369 231 -220 67 -302 90
-380 106 -49 11 -108 26 -130 34 -22 8 -79 29 -128 46 -48 18 -107 45 -130 61
-24 16 -100 57 -169 90 -69 34 -144 77 -166 96 -22 19 -46 34 -52 34 -17 0
-156 136 -192 188 -16 23 -43 79 -59 125 -16 45 -43 111 -59 147 -16 36 -45
111 -64 167 -62 180 -137 305 -238 399 -96 88 -125 98 -303 102 -207 5 -269
-6 -423 -79 -152 -72 -217 -119 -267 -195 -49 -74 -98 -200 -113 -290 -16
-100 -3 -168 63 -310 30 -65 55 -125 55 -132 0 -8 8 -26 19 -40 10 -15 33 -55
50 -89 l31 -62 -48 -52 c-26 -29 -82 -90 -124 -135 -74 -78 -78 -85 -78 -129
0 -165 287 -400 590 -483 98 -27 148 -40 413 -108 56 -14 183 -50 282 -81
l180 -55 205 -8 c283 -12 649 -12 750 0 47 5 135 17 195 26 99 14 116 14 168
1 58 -15 152 -77 162 -107 3 -8 20 -24 38 -35 17 -11 41 -38 52 -60 12 -22 35
-62 53 -90 18 -27 38 -68 44 -90 6 -22 21 -74 33 -115 13 -41 26 -91 29 -111
3 -20 10 -49 16 -64 19 -50 31 -118 46 -255 35 -322 36 -353 20 -472 -17 -132
-22 -194 -42 -623 -8 -176 -19 -349 -24 -385 -13 -88 -12 -388 1 -475 6 -38
12 -84 14 -102 2 -18 6 -36 9 -42 22 -35 69 -586 67 -774 -1 -93 -6 -132 -24
-184 -12 -37 -26 -68 -32 -70 -5 -1 -27 23 -47 55 -21 31 -56 84 -79 117 -23
33 -47 76 -54 95 -25 72 -164 349 -202 406 -61 89 -124 155 -244 254 -138 114
-219 222 -243 324 -4 17 -15 41 -25 55 -34 48 -141 270 -141 293 0 12 -7 29
-15 38 -9 10 -36 57 -61 106 -58 113 -147 247 -199 299 -53 53 -161 91 -233
81 -128 -17 -209 -73 -235 -164 -20 -66 -47 -116 -100 -187 -76 -103 -90 -138
-85 -219 6 -84 45 -184 119 -308 58 -96 107 -150 204 -222 120 -90 262 -223
302 -283 20 -31 84 -115 140 -186 57 -71 103 -133 103 -137 0 -4 12 -21 28
-38 23 -25 97 -141 152 -238 8 -15 28 -41 44 -57 16 -17 45 -55 65 -86 20 -31
55 -81 79 -112 23 -31 42 -60 42 -65 0 -5 14 -29 31 -54 42 -61 134 -252 155
-320 19 -63 64 -169 106 -253 18 -36 30 -76 32 -107 1 -27 8 -56 16 -65 7 -9
14 -37 15 -64 1 -26 4 -51 7 -57 11 -18 29 -161 38 -304 5 -80 15 -185 21
-235 6 -49 13 -154 14 -232 2 -79 6 -147 10 -152 3 -6 0 -70 -6 -143 -6 -73
-12 -272 -13 -443 -1 -290 -3 -320 -29 -465 -15 -85 -40 -195 -56 -245 -46
-143 -70 -236 -77 -295 -8 -71 -52 -205 -114 -350 -58 -139 -160 -394 -160
-404 0 -4 -21 -48 -46 -99 -25 -51 -64 -134 -85 -186 -22 -52 -43 -99 -48
-105 -5 -6 -34 -55 -65 -110 -61 -108 -142 -226 -155 -226 -13 0 -20 34 -36
185 -9 77 -21 158 -27 180 -8 27 -11 137 -9 350 3 286 1 318 -18 410 -27 122
-36 173 -51 290 -6 50 -23 143 -37 209 -13 65 -26 132 -29 150 -3 29 -31 158
-74 346 -11 47 -24 115 -30 151 -10 65 -56 227 -85 302 -8 20 -20 59 -25 85
-18 79 -114 279 -192 400 -27 40 -48 75 -48 78 0 6 -46 65 -121 154 -67 81
-104 142 -160 271 -28 62 -64 145 -81 184 -17 38 -48 127 -69 197 -21 70 -47
148 -58 174 -12 26 -21 52 -21 59 0 7 -9 39 -19 72 -10 32 -22 95 -26 139 -4
43 -16 104 -27 134 -29 85 -45 167 -52 265 -4 50 -13 137 -21 195 -8 58 -19
161 -25 230 -9 114 -40 251 -62 274 -4 6 -8 17 -8 24 0 23 -66 98 -145 166
-93 79 -148 98 -307 104 -98 4 -127 1 -185 -16 -78 -24 -145 -72 -203 -144
-40 -51 -47 -68 -100 -253 -31 -112 -83 -235 -98 -235 -4 0 -38 15 -75 34 -38
19 -99 44 -136 56 -66 21 -71 21 -131 6 -34 -9 -92 -30 -130 -46 -38 -17 -77
-30 -88 -30 -26 0 -78 -44 -97 -81 -38 -73 0 -293 90 -519 25 -61 45 -117 45
-125 0 -7 7 -18 16 -26 21 -17 105 -185 97 -193 -4 -3 -1 -6 5 -6 6 0 35 -32
65 -71 30 -38 76 -84 101 -100 83 -55 148 -134 303 -369 30 -47 75 -107 98
-135 23 -27 75 -93 115 -145 41 -52 119 -145 174 -205 56 -61 115 -133 131
-159 17 -27 46 -74 65 -105 19 -31 51 -79 71 -106 20 -28 47 -69 59 -92 12
-23 38 -61 58 -85 21 -24 55 -65 76 -91 21 -26 100 -114 175 -196 82 -89 154
-177 181 -222 24 -41 67 -110 97 -153 29 -44 67 -109 84 -145 16 -36 38 -82
49 -101 58 -102 174 -341 187 -383 11 -38 12 -52 2 -63 -9 -12 -9 -17 3 -27 9
-7 19 -34 23 -62 4 -27 20 -100 35 -161 16 -61 31 -135 35 -165 3 -30 12 -81
19 -114 34 -150 41 -243 41 -555 0 -207 -4 -345 -13 -403 -7 -50 -12 -157 -11
-245 3 -206 3 -197 -3 -417 -4 -179 -6 -195 -35 -275 -16 -47 -47 -134 -67
-195 -21 -60 -41 -119 -46 -130 -5 -11 -20 -58 -35 -105 -15 -47 -35 -108 -46
-135 -10 -28 -19 -55 -19 -61 0 -7 -21 -56 -46 -110 -25 -55 -64 -148 -86
-209 -52 -145 -112 -257 -230 -429 -53 -77 -129 -202 -169 -276 -99 -187 -220
-391 -236 -397 -7 -3 -13 -12 -13 -21 0 -8 -31 -67 -68 -131 -38 -64 -106
-186 -152 -271 -88 -165 -93 -173 -211 -326 -159 -206 -252 -265 -524 -335
-149 -38 -252 -44 -540 -31 -236 11 -301 24 -428 88 -180 92 -351 274 -637
682 -163 233 -225 328 -247 384 -9 24 -52 102 -95 175 -43 72 -78 138 -78 147
0 8 -5 18 -11 22 -18 11 -135 262 -163 349 -35 113 -49 248 -44 427 5 156 21
246 83 489 14 53 25 107 25 120 0 13 16 69 35 124 61 171 66 207 72 485 3 140
9 260 14 266 6 7 4 21 -3 36 -10 18 -13 94 -12 293 l2 270 42 115 c23 63 62
178 86 255 25 77 52 150 60 163 52 79 291 310 394 379 48 33 84 61 163 128 9
8 22 15 27 15 6 0 10 4 10 9 0 12 196 98 254 111 27 6 65 11 85 12 20 1 45 7
57 14 11 8 42 21 70 29 52 16 265 55 325 60 20 1 41 5 47 9 5 3 54 11 108 17
138 15 133 14 199 30 34 7 84 29 115 50 82 55 185 153 210 201 13 24 29 54 36
67 18 34 32 41 92 41 63 0 94 15 143 67 49 51 61 78 61 133 0 70 -30 124 -131
237 -147 165 -214 211 -471 325 -71 31 -81 33 -180 32 -112 -2 -158 -12 -283
-64 -66 -28 -88 -44 -146 -107 -53 -56 -74 -72 -88 -67 -29 11 -53 35 -53 54
0 17 28 87 70 175 30 64 43 338 20 413 -39 123 -156 271 -229 292 -84 23 -275
5 -348 -34 -50 -25 -102 -75 -124 -118 -11 -21 -50 -69 -88 -106 -38 -38 -81
-88 -96 -112 -33 -52 -80 -187 -101 -290 -9 -41 -26 -102 -38 -135 -13 -33
-37 -118 -55 -190 -93 -385 -101 -414 -142 -500 -21 -44 -56 -110 -78 -147
-21 -36 -56 -106 -77 -154 -60 -141 -140 -264 -170 -264 -25 0 -35 40 -49 198
-12 134 -22 182 -60 307 -25 82 -45 154 -45 162 0 8 -9 31 -19 52 -11 20 -29
75 -41 122 -20 75 -22 119 -27 410 -9 550 11 679 142 914 15 28 37 68 48 90
11 22 28 49 36 60 33 40 114 238 165 405 15 47 49 123 75 170 27 47 60 117 75
155 15 39 38 95 51 125 61 139 126 293 160 380 43 107 108 230 144 268 55 60
52 275 -5 390 -24 47 -41 65 -102 107 l-74 50 -101 -1 c-156 -2 -286 -51 -469
-176 -35 -24 -108 -24 -137 0 -37 30 -43 109 -37 477 3 187 10 414 15 505 34
539 32 851 -5 1035 -41 200 -54 304 -64 510 -6 127 -15 280 -21 340 -5 61 -14
182 -19 270 -5 88 -12 189 -15 225 -10 100 22 264 75 381 23 51 58 141 77 198
19 57 40 113 47 123 36 51 397 325 455 345 9 3 26 15 39 26 12 11 22 17 22 14
0 -4 10 -1 23 7 29 19 168 42 347 55 101 8 176 20 245 40 92 26 262 82 310
102 11 4 61 20 110 34 142 41 214 73 285 124 36 27 104 73 151 103 74 48 88
62 115 114 40 76 60 137 79 247 37 217 -48 418 -211 498 -36 18 -66 35 -68 38
-2 3 16 33 40 66 114 158 164 285 164 418 0 137 -34 174 -162 176 -96 2 -281
-52 -382 -112 -71 -41 -239 -201 -428 -405 -89 -98 -208 -222 -264 -277 -56
-55 -144 -152 -194 -215 -51 -63 -121 -143 -156 -178 -56 -55 -64 -60 -64 -39
0 13 8 32 18 43 9 10 26 39 37 64 11 25 38 72 61 105 22 33 57 92 78 132 21
40 49 84 62 98 13 14 24 29 24 32 0 6 91 217 119 278 11 22 22 58 26 80 3 22
15 58 25 80 10 22 32 79 49 127 16 48 36 102 45 120 8 18 30 83 49 143 49 155
60 186 106 310 106 281 125 356 146 580 14 149 44 322 82 474 9 35 35 102 58
150 24 47 55 114 69 148 30 71 118 227 185 327 112 167 164 266 235 446 54
138 97 337 96 449 -1 56 -23 153 -41 179 -26 36 -124 119 -166 141 -37 18
-175 66 -222 76 -9 2 -61 13 -116 25 -138 30 -397 40 -443 16 -37 -19 -50 -20
-49 -3 4 41 -19 216 -38 294 -39 155 -124 294 -236 380 -86 68 -112 75 -254
71 -116 -3 -121 -4 -166 -35 -79 -55 -113 -102 -159 -219 -49 -127 -64 -200
-80 -384 -6 -74 -21 -207 -32 -295 -25 -205 -34 -551 -19 -760 15 -200 51
-431 96 -602 19 -73 41 -171 50 -218 8 -47 21 -112 29 -143 8 -31 20 -95 26
-142 6 -47 17 -132 25 -190 21 -160 35 -250 47 -303 14 -67 14 -724 -1 -857
-15 -138 -39 -289 -57 -370 -23 -98 -75 -241 -91 -247 -7 -3 -13 -11 -13 -18
0 -7 -20 -40 -45 -74 -25 -34 -78 -114 -117 -179 -39 -64 -90 -142 -113 -172
-46 -60 -109 -171 -120 -210 -4 -14 -24 -61 -45 -105 -22 -44 -51 -114 -65
-155 -35 -100 -50 -136 -82 -195 -6 -11 -28 -60 -48 -109 -49 -117 -99 -210
-116 -214 -30 -6 -155 251 -204 418 -20 67 -43 141 -51 164 -9 22 -26 79 -39
125 -13 46 -27 93 -33 105 -48 102 -82 233 -82 317 0 21 -8 54 -17 74 -15 32
-16 46 -5 138 23 193 12 514 -23 662 -23 95 -29 246 -17 390 11 122 15 139
148 550 24 75 85 180 224 385 43 64 52 89 81 230 53 254 30 776 -40 921 -12
23 -21 48 -21 54 0 23 -150 223 -208 276 -33 31 -86 71 -118 89 -33 18 -88 53
-124 78 -73 51 -137 81 -257 122 -119 40 -209 54 -373 54 -159 1 -142 6 -295
-79 -135 -74 -152 -100 -170 -260 -14 -116 -56 -301 -105 -455 -27 -85 -61
-218 -76 -295 -15 -77 -32 -150 -39 -163 -11 -23 -12 -23 -86 46 -41 38 -83
87 -94 108 -24 47 -94 162 -160 266 -28 42 -72 117 -100 165 -54 94 -107 163
-219 285 -39 42 -91 98 -116 125 -32 35 -72 63 -134 94 -82 40 -96 44 -165 44
-64 0 -85 -4 -131 -29 -93 -48 -205 -149 -292 -263 l-40 -53 4 -167 4 -168 53
-155 c53 -156 108 -291 121 -300 26 -18 120 -196 173 -325 25 -60 66 -157 92
-215 25 -58 60 -136 77 -175 80 -181 169 -298 456 -597 166 -173 257 -258 352
-331 79 -60 260 -228 273 -254 7 -12 31 -36 54 -55 37 -29 142 -147 273 -303
25 -29 81 -113 125 -187 43 -73 91 -151 106 -173 15 -23 52 -86 82 -142 30
-55 77 -128 104 -162 54 -70 112 -168 113 -192 0 -18 41 -99 93 -183 20 -33
39 -69 42 -80 4 -12 10 -30 14 -41 12 -29 61 -213 61 -228 0 -8 18 -60 39
-117 36 -95 38 -105 23 -116 -15 -11 -24 -6 -62 30 -25 24 -81 72 -125 107
-44 35 -111 91 -150 124 -38 33 -92 76 -120 94 -27 19 -76 56 -107 83 -31 27
-83 64 -115 82 -32 18 -112 64 -178 102 -66 38 -168 108 -226 155 -58 48 -128
99 -155 115 -27 15 -85 55 -129 89 -44 34 -101 73 -126 88 -25 14 -70 46 -100
69 -30 24 -92 71 -138 103 -142 102 -286 257 -372 402 -131 222 -162 276 -167
296 -2 12 -10 29 -17 37 -7 8 -22 40 -33 70 -11 30 -40 98 -65 150 -61 132
-90 200 -127 305 -82 232 -76 224 -361 521 -58 61 -133 147 -165 190 -145 197
-318 365 -433 424 -25 12 -96 40 -158 61 -108 37 -120 39 -235 39 -114 0 -124
-2 -158 -25 -39 -27 -119 -115 -139 -153 -23 -43 -34 -275 -19 -392 17 -133
149 -419 254 -552 54 -67 76 -105 98 -170 16 -46 42 -108 57 -139 29 -59 147
-234 206 -306 34 -41 36 -49 35 -110 0 -40 -6 -71 -14 -79 -7 -7 -59 -24 -115
-38 -56 -13 -146 -43 -200 -66 -54 -24 -119 -49 -146 -57 -54 -16 -109 -60
-126 -101 -10 -24 -9 -38 9 -85 34 -90 77 -145 195 -245 101 -87 163 -142 219
-198 65 -65 160 -138 317 -244 174 -117 245 -167 284 -203 61 -56 472 -306
615 -374 47 -23 141 -68 210 -101 69 -33 154 -74 190 -90 36 -17 76 -37 90
-46 30 -17 117 -56 127 -56 4 0 25 -9 47 -19 103 -48 205 -91 215 -91 6 0 11
-5 11 -10 0 -6 12 -15 27 -21 16 -5 50 -21 77 -36 27 -14 70 -31 95 -38 66
-18 224 -84 381 -157 76 -36 138 -64 320 -143 30 -13 105 -43 165 -67 61 -23
112 -46 113 -50 2 -4 10 -8 17 -8 35 0 264 -164 282 -202 14 -29 48 -144 79
-268 25 -99 24 -88 48 -930 2 -99 11 -191 24 -255 11 -55 30 -154 43 -220 12
-66 30 -142 40 -170 33 -94 54 -150 61 -160 18 -28 69 -226 83 -320 8 -58 26
-140 39 -183 38 -120 73 -296 86 -422 6 -63 18 -140 25 -170 25 -100 27 -113
37 -320 14 -270 13 -307 -6 -372 -21 -72 -35 -85 -78 -67 -93 37 -390 383
-491 571 -32 61 -60 99 -137 188 -67 78 -97 118 -135 185 -27 47 -148 213
-178 245 -15 15 -107 150 -107 156 0 24 -259 240 -355 296 -38 22 -101 59
-139 82 -39 22 -88 52 -110 65 -102 60 -213 107 -358 152 -241 74 -357 96
-630 119 -161 14 -276 58 -447 173 -106 71 -381 343 -447 442 -29 44 -71 103
-93 130 -52 64 -167 233 -211 310 -19 33 -78 105 -130 160 -53 55 -115 125
-138 156 -50 66 -104 111 -180 150 -50 25 -68 29 -145 29 -93 0 -113 -6 -193
-61 -64 -44 -149 -180 -237 -379 -49 -113 -55 -192 -31 -395 8 -68 -21 -111
-91 -137 -135 -51 -185 -97 -185 -169 0 -50 58 -136 156 -230 119 -113 184
-153 319 -195 70 -21 56 -17 125 -32 30 -6 120 -16 200 -22 302 -22 374 -31
440 -54 68 -23 164 -83 213 -133 37 -36 135 -168 149 -199 6 -13 15 -24 19
-24 11 0 29 -68 29 -109 0 -63 -40 -112 -172 -207 -73 -53 -185 -149 -278
-239 -182 -177 -201 -192 -345 -279 -106 -64 -210 -137 -367 -258 -41 -32
-119 -83 -174 -114 -54 -31 -120 -71 -147 -90 -26 -19 -49 -34 -52 -34 -3 0
-26 -15 -52 -33 -27 -18 -65 -42 -86 -53 -61 -31 -144 -100 -182 -152 -79
-108 -127 -282 -106 -384 17 -81 55 -153 112 -213 43 -45 63 -58 120 -77 l68
-21 89 21 c49 12 117 34 151 47 33 14 74 25 90 25 19 0 30 6 33 18 6 20 255
178 355 224 37 17 70 34 73 37 3 3 21 14 40 24 82 42 149 92 272 204 99 90
155 150 232 253 55 74 125 160 154 192 30 31 74 83 98 115 25 32 129 146 232
253 401 419 450 460 687 575 153 74 248 101 319 91 50 -8 281 -119 370 -178
27 -18 63 -41 80 -51 16 -11 49 -36 73 -57 23 -20 68 -53 98 -71 211 -128 326
-226 424 -359 22 -30 45 -61 51 -68 6 -7 23 -38 37 -70 51 -117 175 -355 246
-474 41 -68 91 -154 112 -193 109 -199 292 -417 471 -564 44 -36 112 -93 151
-127 38 -33 107 -84 154 -112 46 -28 111 -72 144 -99 33 -26 72 -53 86 -60 33
-15 119 -140 119 -174 0 -30 -43 -174 -95 -314 -20 -55 -42 -118 -50 -140 -7
-22 -30 -85 -50 -140 -89 -240 -105 -337 -105 -651 0 -169 0 -172 34 -270 97
-278 162 -486 187 -594 16 -70 72 -241 99 -306 12 -27 40 -98 62 -159 22 -60
51 -139 65 -175 21 -53 27 -91 33 -205 4 -77 15 -164 23 -194 37 -128 50 -263
43 -469 -3 -108 -11 -233 -16 -277 -19 -146 -26 -434 -13 -500 7 -33 12 -77
13 -97 0 -21 5 -58 12 -82 9 -34 9 -93 1 -249 -15 -273 -22 -288 -153 -320
-120 -30 -243 -36 -390 -21 -210 22 -308 45 -495 116 -131 50 -256 129 -406
258 -42 36 -92 74 -110 85 -18 11 -41 25 -50 30 -22 14 -58 46 -132 118 -33
31 -64 57 -68 57 -4 0 -54 37 -111 83 -189 152 -297 226 -368 252 -56 21 -239
105 -436 201 -116 56 -173 115 -280 289 -93 150 -143 251 -209 420 -25 66 -76
181 -112 255 -36 74 -92 189 -123 256 -102 215 -278 465 -418 593 -76 70 -254
201 -354 261 -89 53 -310 199 -333 220 -11 10 -51 34 -88 54 -37 20 -112 63
-165 97 -53 33 -135 78 -182 100 -47 22 -105 50 -130 62 -60 30 -264 140 -270
147 -3 3 -30 17 -60 31 -58 28 -102 64 -235 194 -89 87 -119 126 -129 167 -6
27 -31 63 -200 292 -107 144 -222 312 -261 381 -36 63 -119 151 -167 176 -52
27 -167 26 -224 -1 -56 -27 -144 -121 -144 -153 0 -14 -21 -83 -46 -153 -25
-71 -50 -144 -56 -163 -14 -48 -5 -122 26 -213 27 -81 32 -113 17 -122 -5 -3
-7 -15 -4 -25 7 -29 -45 -126 -97 -181 -38 -41 -56 -51 -120 -70 -169 -48
-280 -106 -280 -146 0 -8 -4 -14 -9 -14 -5 0 -12 -14 -16 -31 -4 -17 -29 -77
-56 -132 -31 -66 -49 -115 -49 -140 0 -45 55 -161 108 -227 37 -46 179 -205
197 -220 6 -5 28 -24 50 -43 121 -104 404 -260 545 -301 125 -37 314 -75 400
-81 163 -11 297 -27 345 -40 72 -20 171 -34 325 -45 159 -12 196 -19 313 -59
48 -16 109 -33 135 -36 82 -11 241 -45 280 -59 20 -8 67 -19 105 -26 92 -15
219 -60 363 -130 193 -95 212 -117 379 -450 49 -96 123 -238 165 -315 109
-201 130 -257 130 -355 0 -72 -4 -88 -34 -148 -41 -81 -64 -104 -136 -132
-103 -41 -272 -91 -356 -106 -47 -8 -96 -19 -109 -24 -14 -5 -84 -19 -156 -31
-128 -20 -135 -20 -228 -4 -118 21 -212 72 -326 179 -71 66 -83 73 -178 103
-123 39 -147 40 -269 9 -161 -41 -224 -86 -258 -186 -30 -86 -24 -185 20 -350
18 -67 113 -156 221 -208 118 -56 121 -62 61 -105 -66 -49 -222 -228 -222
-256 0 -5 -12 -24 -27 -41 -28 -34 -41 -102 -29 -164 12 -64 127 -159 237
-197 57 -19 78 -21 194 -16 77 3 148 12 175 21 25 9 90 27 145 42 74 19 158
55 320 135 121 60 224 109 229 109 12 0 184 68 226 89 39 20 155 61 245 86 33
9 69 20 80 25 11 5 54 16 95 26 41 9 104 25 139 35 35 10 74 16 87 13 14 -4
31 -1 39 6 9 8 79 14 207 17 191 5 205 4 386 -32 50 -9 249 -78 277 -95 17
-10 59 -30 95 -45 68 -28 139 -71 153 -92 4 -7 27 -21 50 -33 23 -11 60 -33
82 -50 80 -60 191 -105 427 -176 26 -8 121 -45 211 -84 90 -38 171 -70 179
-70 29 0 255 -82 338 -123 46 -23 141 -84 210 -136 68 -52 161 -114 204 -138
229 -126 308 -206 624 -627 135 -180 157 -219 207 -356 89 -247 185 -420 375
-675 52 -70 70 -104 83 -155 38 -150 69 -255 76 -260 3 -3 14 -24 23 -47 9
-23 56 -104 106 -180 50 -77 108 -177 128 -224 33 -74 187 -381 219 -434 11
-19 118 -255 156 -345 10 -25 35 -96 54 -159 l35 -114 0 -311 c0 -171 1 -354
3 -406 3 -118 -6 -193 -33 -301 -28 -109 -50 -241 -50 -304 0 -131 54 -317
140 -483 28 -53 50 -100 50 -105 0 -23 87 -154 130 -194 61 -57 67 -89 50
-243 -18 -164 -50 -248 -125 -330 -18 -19 -46 -55 -61 -79 -16 -24 -51 -78
-79 -121 -57 -87 -146 -201 -178 -227 -12 -10 -29 -34 -38 -54 -10 -19 -34
-56 -55 -81 -22 -25 -58 -70 -81 -99 -24 -30 -83 -99 -133 -154 -50 -55 -108
-122 -130 -150 -21 -27 -46 -58 -55 -68 -8 -9 -24 -41 -35 -70 -11 -28 -27
-64 -36 -80 -8 -15 -12 -31 -9 -37 3 -5 1 -19 -6 -31 -9 -18 -8 -25 7 -39 25
-24 240 -68 388 -79 109 -8 119 -7 209 19 51 16 147 36 213 45 65 9 169 23
229 31 171 24 327 68 442 124 56 28 107 50 113 50 6 0 32 11 58 24 49 24 112
41 197 52 82 10 216 44 277 70 51 21 66 23 150 18 85 -6 98 -4 153 19 37 16
98 29 160 36 108 13 177 41 298 123 78 53 95 89 79 166 -19 92 -51 143 -107
174 -28 15 -75 32 -105 39 -30 6 -76 15 -102 21 -26 5 -89 35 -140 65 -141 84
-245 130 -331 148 -94 19 -144 43 -202 96 -37 34 -46 50 -60 112 -10 40 -35
122 -55 182 -21 61 -47 158 -59 216 -11 59 -23 113 -25 120 -3 8 -7 30 -10 49
-6 38 -53 179 -81 245 -26 60 -36 202 -19 278 24 109 34 225 42 488 5 156 12
262 18 270 13 17 32 111 39 199 12 144 28 246 50 309 43 120 126 316 139 326
7 6 16 19 20 31 3 11 24 38 47 60 22 21 61 70 87 108 62 92 99 134 282 317
185 185 248 231 450 324 41 19 102 49 135 68 141 80 163 92 225 131 36 22 108
72 160 111 52 39 127 93 165 120 39 27 136 101 216 165 80 63 209 161 285 217
164 122 294 226 462 370 67 59 133 113 146 122 13 9 48 35 78 57 29 23 78 54
108 69 29 15 59 32 66 39 24 21 140 99 220 146 23 14 66 43 95 66 30 22 106
78 169 124 183 132 241 179 347 275 55 50 115 104 134 121 19 16 99 99 179
183 80 84 258 266 395 405 155 155 295 306 367 396 98 122 145 177 190 218 4
4 23 26 44 49 20 24 52 53 72 65 21 12 41 28 45 35 4 7 12 13 17 13 5 0 29 14
52 30 133 94 291 180 330 180 11 0 31 9 46 20 25 19 167 66 222 74 14 2 49 9
79 15 29 6 73 11 97 11 24 0 44 4 44 9 0 5 15 9 33 9 52 0 138 22 202 51 92
43 251 91 301 91 12 0 24 4 26 10 4 14 189 27 348 25 74 -1 143 3 154 8 28 14
206 -10 321 -43 55 -16 119 -32 143 -35 23 -4 66 -16 95 -27 28 -12 65 -20 81
-20 16 1 38 -4 50 -10 11 -6 77 -26 145 -44 91 -24 145 -45 205 -80 124 -72
156 -93 156 -104 0 -6 6 -10 13 -10 14 0 49 -17 144 -73 34 -19 72 -38 85 -42
13 -4 57 -26 98 -49 41 -23 108 -53 148 -66 41 -12 76 -29 79 -37 3 -7 9 -13
14 -13 6 0 53 -28 107 -62 108 -68 222 -163 222 -185 0 -7 8 -16 18 -20 30
-11 62 -45 88 -97 14 -28 31 -62 38 -76 14 -27 53 -136 66 -185 14 -54 201
-378 259 -450 31 -38 60 -78 64 -87 3 -10 11 -18 17 -18 5 0 10 -7 10 -15 0
-8 6 -15 13 -15 7 0 36 -18 65 -39 104 -78 142 -91 286 -93 l128 -3 47 51 c27
30 59 82 77 125 32 74 32 75 42 332 5 142 12 260 14 263 12 11 104 -28 161
-69 35 -25 115 -70 178 -101 65 -32 137 -76 167 -102 60 -52 159 -103 253
-130 93 -27 498 -27 609 0 102 25 216 71 264 106 166 123 246 232 246 338 0
77 -43 206 -91 272 -21 30 -44 66 -50 80 -15 32 -95 81 -297 180 -163 80 -267
119 -437 165 -130 35 -257 71 -375 106 -129 38 -272 74 -346 88 -75 14 -178
44 -259 76 -33 13 -100 35 -150 50 -49 14 -135 44 -190 65 -131 50 -205 64
-805 150 -118 17 -285 42 -370 55 -85 13 -193 29 -240 35 -221 29 -331 83
-538 261 l-42 36 63 31 c89 45 233 123 297 162 173 104 475 201 905 292 100
21 135 23 380 22 288 0 347 -7 610 -70 55 -13 118 -26 140 -30 37 -5 98 -23
260 -75 33 -11 134 -34 225 -50 90 -17 168 -33 173 -36 4 -2 36 -6 70 -9 34
-2 84 -8 112 -14 60 -12 292 -30 389 -30 62 0 220 -40 236 -59 6 -8 249 -47
375 -61 185 -20 359 -8 513 36 121 35 182 83 257 204 68 110 79 159 72 305 -6
130 -20 170 -102 280 -71 97 -176 175 -319 239 -91 41 -126 51 -220 63 -156
20 -250 49 -289 88 -18 17 -20 107 -5 140 6 11 36 45 67 75 66 64 345 359 388
410 72 86 185 326 214 455 30 132 31 281 1 365 -61 174 -103 217 -292 293
-103 41 -107 42 -225 41 -105 0 -135 -4 -235 -33 -347 -98 -473 -146 -735
-278 -435 -220 -603 -314 -735 -413 -65 -49 -245 -174 -767 -533 -252 -173
-673 -425 -673 -402 0 3 -15 -5 -32 -18 -18 -14 -69 -40 -113 -60 -44 -19
-155 -71 -246 -116 -91 -44 -168 -81 -172 -81 -3 0 -49 -20 -101 -45 -52 -24
-116 -53 -143 -64 -120 -48 -293 -125 -466 -209 -232 -114 -326 -150 -492
-191 -71 -18 -152 -41 -180 -51 -72 -26 -212 -52 -235 -45 -11 3 -22 18 -26
33 -3 15 -9 34 -15 42 -32 51 -31 60 15 139 74 126 92 148 156 185 33 20 98
66 143 102 45 37 88 69 95 71 6 3 12 10 12 16 0 5 19 26 42 46 24 20 88 77
144 126 132 117 152 134 203 169 39 27 141 129 427 424 65 68 159 158 208 200
49 42 126 111 170 153 45 42 88 80 98 85 25 14 112 92 308 276 165 155 339
288 376 288 8 0 14 4 14 10 0 12 80 63 205 129 55 29 114 63 130 75 40 30 112
66 130 66 8 0 15 5 15 10 0 6 6 10 13 10 7 0 18 9 25 20 7 11 22 20 33 20 12
0 35 6 52 14 52 22 88 33 172 51 44 9 94 23 110 30 17 7 57 13 90 14 95 2 133
6 141 14 4 4 22 7 41 7 18 0 33 5 33 10 0 6 26 10 58 10 32 0 63 5 70 12 9 9
12 9 12 -1 0 -8 9 -6 26 8 14 11 49 22 82 26 31 4 70 13 86 21 16 8 41 14 56
14 16 0 30 7 34 15 4 11 13 14 29 10 17 -5 26 -2 30 9 6 16 66 36 109 36 15 0
33 7 41 15 8 8 17 11 21 8 3 -3 12 -1 19 6 8 6 49 15 91 21 42 5 87 17 101 26
14 9 32 14 40 10 8 -3 15 -1 15 3 0 12 133 68 230 97 110 33 264 88 270 95 3
3 23 16 45 27 22 11 67 43 100 71 33 28 69 56 80 62 11 5 49 48 85 94 35 46
68 81 72 79 5 -3 11 3 14 13 3 10 34 77 69 148 74 150 85 202 85 398 0 107 -3
133 -26 197 -66 189 -297 373 -604 482 -146 51 -260 71 -380 64 -119 -6 -226
-26 -285 -51 -22 -9 -71 -26 -110 -36 -38 -11 -119 -33 -180 -49 -60 -17 -173
-44 -250 -60 -77 -16 -196 -45 -264 -65 -212 -60 -257 -48 -322 82 -32 66 -33
73 -37 208 l-4 140 46 158 c25 88 46 169 46 180 0 12 7 56 16 97 21 99 21 369
0 403 -8 12 -17 40 -21 62 -8 54 -62 134 -149 218 -117 114 -171 142 -398 202
-129 34 -168 23 -300 -81 -108 -87 -161 -181 -217 -385 -24 -91 -33 -148 -41
-284 -6 -93 -15 -219 -21 -280 -6 -60 -12 -227 -12 -370 -1 -210 2 -274 16
-335 24 -105 23 -270 -2 -341 -34 -99 -44 -123 -77 -180 -18 -32 -35 -68 -39
-81 -14 -45 -99 -214 -170 -338 -39 -69 -97 -171 -129 -227 -31 -56 -62 -108
-69 -115 -7 -7 -29 -42 -49 -78 -39 -69 -108 -171 -247 -367 -155 -217 -187
-257 -332 -408 -641 -670 -791 -835 -988 -1080 -130 -162 -170 -219 -222 -321
-50 -97 -69 -126 -89 -131 -41 -12 -203 -8 -227 5 -38 21 -136 162 -150 217
-8 29 -13 106 -13 187 0 149 25 460 39 487 5 9 10 176 12 371 4 336 3 360 -18
455 -77 350 -111 462 -166 544 -23 36 -70 110 -104 165 -69 112 -119 163 -199
202 -51 25 -59 26 -191 22 -135 -3 -139 -4 -201 -37 -45 -25 -76 -51 -107 -92
-59 -77 -76 -114 -116 -244 l-34 -110 1 -255 c1 -233 3 -267 27 -390 43 -219
46 -237 40 -259 -3 -12 -1 -21 5 -21 6 0 18 -35 27 -77 29 -132 77 -326 92
-368 42 -118 69 -330 80 -611 l6 -181 -41 -119 c-47 -139 -58 -201 -77 -419
-17 -198 -24 -219 -197 -530 -185 -332 -508 -682 -846 -915 -143 -99 -259
-182 -365 -262 -42 -31 -122 -87 -179 -124 -258 -168 -329 -218 -412 -289 -48
-41 -109 -90 -135 -107 -25 -17 -48 -35 -51 -39 -3 -4 -44 -31 -92 -60 -48
-30 -122 -84 -165 -121 -108 -93 -300 -237 -340 -256 -30 -14 -35 -14 -44 -2
-14 21 -2 109 26 188 49 140 85 235 95 247 5 6 7 15 4 18 -6 5 37 104 83 192
8 17 60 119 114 227 117 234 207 387 284 483 86 108 182 261 258 410 22 44 57
109 77 145 21 36 54 108 75 160 61 159 127 301 181 390 61 102 74 128 157 295
75 153 215 491 231 560 4 17 13 37 20 45 7 8 18 53 24 100 6 47 22 119 36 160
14 41 26 86 26 100 0 28 65 237 79 254 4 6 14 29 21 51 7 22 25 61 40 86 18
30 36 84 50 150 11 57 32 137 46 178 23 68 33 134 74 486 6 50 14 106 19 125
5 19 19 78 31 130 12 52 30 111 41 130 10 19 28 60 40 90 11 30 26 69 34 85 7
17 21 53 30 80 31 86 123 256 180 331 17 21 71 80 121 129 211 210 293 282
400 349 236 150 331 213 379 251 27 23 73 56 100 75 115 78 164 129 363 378
30 37 71 85 93 107 21 23 39 43 39 47 0 9 65 114 94 153 14 18 26 38 26 43 0
5 24 45 53 89 28 44 74 115 100 157 27 42 64 92 83 110 19 18 34 37 34 43 0 5
15 27 33 49 18 21 40 50 49 64 33 52 189 207 259 258 159 114 268 188 305 207
22 11 41 23 44 26 19 23 176 81 300 109 47 11 102 25 123 31 21 5 47 7 58 4
11 -4 25 -2 32 3 7 6 64 22 127 36 63 15 214 51 335 81 121 30 279 68 350 86
131 31 193 48 360 99 50 16 119 34 155 40 36 7 92 21 125 31 126 40 328 49
1000 40 367 -4 432 9 537 107 52 48 123 159 132 202 2 14 11 54 20 90 21 87
20 165 -3 241 -11 35 -22 79 -26 96 -4 18 -11 35 -16 39 -5 3 -16 21 -24 40
-8 19 -18 34 -22 34 -4 0 -28 18 -52 39 l-44 38 33 59 c19 33 46 78 62 101 52
78 54 218 3 295 -26 40 -135 118 -164 118 -9 0 -50 11 -91 24 -96 31 -243 41
-377 27 -120 -13 -193 -35 -319 -97 -51 -24 -152 -64 -225 -89 -225 -74 -337
-116 -524 -195 -55 -23 -111 -45 -125 -50 -56 -18 -372 -171 -475 -230 -60
-35 -148 -83 -195 -108 -47 -25 -114 -62 -150 -82 -71 -41 -261 -130 -277
-130 -6 0 -17 -8 -24 -17 -19 -23 -204 -109 -265 -124 -27 -6 -67 -20 -90 -30
-41 -20 -74 -25 -74 -12 0 13 71 125 116 183 23 30 69 82 102 114 36 35 74 85
93 124 38 73 121 172 295 348 65 66 154 159 196 206 43 47 108 107 145 133 75
52 545 520 591 588 86 127 234 418 280 552 40 115 46 173 26 261 -16 74 -20
82 -76 137 -77 75 -165 118 -313 153 -95 22 -145 28 -240 28 -115 1 -123 0
-192 -32 -47 -22 -84 -32 -105 -30 -31 3 -33 5 -32 42 1 22 11 71 23 110 64
220 93 452 60 492 -29 35 -93 57 -164 58 -63 0 -78 -4 -150 -42 -156 -82 -273
-206 -425 -452 -47 -74 -94 -148 -106 -165 -29 -40 -123 -216 -134 -252 -13
-43 -153 -437 -183 -513 -3 -8 -13 -67 -22 -130 -29 -212 -79 -414 -144 -577
-11 -29 -22 -63 -25 -75 -2 -13 -13 -59 -25 -103 -11 -44 -25 -114 -31 -155
-6 -41 -20 -92 -31 -113 -10 -21 -19 -44 -19 -53 0 -35 -78 -154 -102 -154 -5
0 -36 25 -68 55 -64 62 -105 140 -120 227 -5 29 -13 67 -19 83 -5 17 -19 91
-31 165 -42 273 -106 433 -227 568 l-48 53 -42 -21 c-23 -12 -53 -36 -66 -54
-14 -18 -52 -47 -86 -65 -34 -18 -75 -50 -93 -73 -18 -23 -84 -91 -146 -151
-62 -61 -127 -128 -143 -149 l-31 -38 40 -48 c128 -153 241 -375 242 -474 0
-12 7 -32 15 -42 8 -11 15 -28 15 -38 0 -17 16 -62 80 -223 15 -38 34 -101 41
-140 27 -139 7 -632 -32 -815 -21 -96 -124 -352 -169 -420 -10 -14 -23 -41
-29 -61 -6 -20 -40 -76 -74 -123 -34 -48 -72 -101 -85 -119 -12 -18 -35 -43
-50 -57 -15 -14 -40 -46 -56 -70 -39 -59 -205 -276 -284 -370 -34 -41 -92
-117 -129 -168 -78 -111 -236 -288 -263 -297 -11 -4 -20 -11 -20 -17 0 -22
-73 -99 -134 -143 -81 -57 -232 -125 -280 -125 -54 0 -121 19 -145 41 -11 11
-25 38 -32 62 -14 51 -27 246 -17 249 4 2 1 21 -6 43 -25 72 -39 272 -34 466
6 200 26 367 64 524 20 86 52 252 84 440 4 28 18 77 29 110 12 33 21 72 21 86
0 15 11 89 25 163 14 75 27 151 29 169 3 17 16 89 30 158 14 70 26 145 26 167
0 62 47 323 74 415 14 45 32 121 41 169 22 124 80 267 132 329 8 9 16 28 19
42 10 57 94 234 172 364 53 88 189 248 228 269 19 10 34 22 34 26 0 4 21 32
48 62 26 30 72 84 102 120 69 84 198 199 281 251 35 21 86 56 112 77 27 21 55
38 62 38 8 0 18 7 23 15 4 9 45 44 89 78 45 34 130 103 189 152 59 50 173 144
253 211 80 66 216 178 302 250 138 114 226 175 396 277 27 16 69 47 95 68 26
22 60 45 76 52 15 7 34 18 42 25 8 6 51 38 95 71 44 32 97 78 117 102 75 87
127 133 393 347 237 191 357 289 445 364 118 101 299 238 313 238 2 0 23 18
46 40 23 22 87 74 144 117 269 204 673 608 803 803 80 119 213 367 221 410 2
14 13 45 25 70 33 74 88 230 88 250 0 10 11 27 24 37 19 15 22 23 14 37 -7 13
-1 45 26 124 97 291 110 432 57 605 -32 103 -66 175 -115 246 -117 170 -142
193 -270 242 -100 38 -207 42 -334 11 -180 -45 -265 -108 -617 -463 -331 -333
-406 -400 -502 -448 -37 -19 -103 -54 -145 -77 l-76 -42 -27 28 c-14 15 -36
56 -47 91 -19 59 -21 100 -29 514 -8 478 -11 529 -36 615 -8 30 -16 62 -18 71
-2 9 -13 47 -25 85 -11 38 -23 85 -26 104 -9 65 -26 135 -59 245 -19 61 -50
163 -70 228 -24 81 -55 152 -99 232 -36 63 -67 124 -71 135 -11 36 -279 233
-379 280 -217 101 -341 122 -456 78z"/>
</g>
</svg>
