<?xml version="1.0" encoding="UTF-8" standalone="no"?>
<svg
   xmlns:dc="http://purl.org/dc/elements/1.1/"
   xmlns:cc="http://creativecommons.org/ns#"
   xmlns:rdf="http://www.w3.org/1999/02/22-rdf-syntax-ns#"
   xmlns:svg="http://www.w3.org/2000/svg"
   xmlns="http://www.w3.org/2000/svg"
   xmlns:sodipodi="http://sodipodi.sourceforge.net/DTD/sodipodi-0.dtd"
   xmlns:inkscape="http://www.inkscape.org/namespaces/inkscape"
   version="1.0"
   width="692.52545"
   height="544.99609"
   viewBox="0 0 554.02036 435.99687"
   preserveAspectRatio="xMidYMid meet"
   id="svg2"
   inkscape:version="0.48.4 r9939"
   sodipodi:docname="bacteria.svg">
  <defs
     id="defs54" />
  <sodipodi:namedview
     pagecolor="#ffffff"
     bordercolor="#666666"
     borderopacity="1"
     objecttolerance="10"
     gridtolerance="10"
     guidetolerance="10"
     inkscape:pageopacity="0"
     inkscape:pageshadow="2"
     inkscape:window-width="1867"
     inkscape:window-height="1060"
     id="namedview52"
     showgrid="false"
     inkscape:zoom="0.37835671"
     inkscape:cx="609.1792"
     inkscape:cy="-104.64526"
     inkscape:window-x="50"
     inkscape:window-y="-3"
     inkscape:window-maximized="1"
     inkscape:current-layer="g6"
     fit-margin-top="0"
     fit-margin-left="0"
     fit-margin-right="0"
     fit-margin-bottom="0" />
  <metadata
     id="metadata4">
Created by potrace 1.11, written by Peter Selinger 2001-2013
<rdf:RDF>
  <cc:Work
     rdf:about="">
    <dc:format>image/svg+xml</dc:format>
    <dc:type
       rdf:resource="http://purl.org/dc/dcmitype/StillImage" />
  </cc:Work>
</rdf:RDF>
</metadata>
  <g
     transform="matrix(0.1,0,0,-0.1,-24.500263,476.24844)"
     id="g6"
     style="fill:#000000;stroke:none">
    <g
       id="g3004">
      <path
         inkscape:connector-curvature="0"
         id="path8"
         d="m 4105,4760 c -237.8555,-96.0484 -248.8336,-442.3631 -122.6575,-633.1606 -35.8237,-92.647 -221.8848,-248.2052 -168.5566,-418.9888 -37.3198,-227.0376 275.8037,-471.7827 403.8938,-203.8369 94.6708,304.2813 30.5906,604.4914 3.3203,563.9863 212.4188,159.0065 201.8026,627.7583 -84.9375,694.4844 L 4105,4760 z" />
      <path
         inkscape:connector-curvature="0"
         id="path10"
         d="M 848,4751 C 571.07583,4651.4231 801.32065,4318.6939 999.23828,4278.6309 1215.2398,4154.6793 1554.7698,4371.8218 1310.25,4595.875 1195.5779,4724.9642 1016.1045,4776.7762 848,4751 z" />
      <path
         inkscape:connector-curvature="0"
         id="path12"
         d="m 3315,4670 c -224.7192,-89.1409 -241.5102,-402.7315 -147.2174,-595.2521 -65.3891,-41.7265 -363.7798,-21.1169 -441.7689,-190.5819 -231.2345,-192.6247 19.7555,-510.2427 263.664,-344.4472 230.022,118.1272 425.9904,502.0764 313.1973,417.7812 265.3609,-21.5735 313.5187,346.2843 239.1692,536.8115 C 3509.0894,4587.7374 3427.7754,4692.8609 3315,4670 z" />
      <path
         inkscape:connector-curvature="0"
         id="path14"
         d="m 5013,4285 c -282.6054,-7.4993 -396.9396,-445.6129 -50.1719,-446.9844 197.7699,-39.2733 545.15,93.1916 464.0469,338.7344 C 5339.3541,4312.046 5153.3307,4309.5273 5013,4285 z" />
      <path
         inkscape:connector-curvature="0"
         id="path16"
         d="m 1955,4100 c -219.1132,-87.0187 -247.4792,-399.6267 -147.2539,-588.1855 119.9345,-276.4886 436.3074,-42.8966 404.499,182.9816 C 2225.3556,3854.7545 2161.6787,4117.64 1955,4100 z" />
      <path
         inkscape:connector-curvature="0"
         id="path18"
         d="m 1093,3715 c -282.60536,-7.4993 -396.93957,-445.6129 -50.1719,-446.9844 197.7699,-39.2733 545.15,93.1916 464.0469,338.7344 C 1419.3541,3742.046 1233.3307,3739.5273 1093,3715 z" />
      <path
         inkscape:connector-curvature="0"
         id="path20"
         d="m 1925,3352 c -225.1784,-141.419 -224.0778,-512.2252 -35,-685 -184.7113,-170.9913 -189.5535,-522.24 17.1875,-676.1875 293.1011,-85.3435 378.1086,371.7054 256.2031,564.4687 -179.1125,161.3394 166.0413,350.7014 36.0218,571.2374 C 2173.7618,3245.6068 2070.3566,3413.9098 1925,3352 z" />
      <path
         inkscape:connector-curvature="0"
         id="path22"
         d="m 5238,3341 c -276.9242,-99.5769 -46.6793,-432.3061 151.2383,-472.3691 216.0015,-123.9516 555.5315,93.1909 311.0117,317.2441 C 5585.5779,3314.9642 5406.1045,3366.7762 5238,3341 z" />
      <path
         inkscape:connector-curvature="0"
         id="path24"
         d="m 2933.5593,3147.7119 c -219.1132,-87.0187 -247.4792,-399.6267 -147.2539,-588.1855 119.9345,-276.4886 436.3074,-42.8966 404.499,182.9816 13.1105,159.9584 -50.5664,422.8439 -257.2451,405.2039 z" />
      <path
         id="path26"
         d="m 378,3121 c -136,-44 -172,-161 -88,-289 89,-136 256,-219 423,-210 140,8 209,61 210,162 1,120 -125,259 -290,318 -64,22 -210,33 -255,19 z"
         inkscape:connector-curvature="0" />
      <path
         inkscape:connector-curvature="0"
         id="path28"
         d="m 4345,2990 c -219.1132,-87.0187 -247.4792,-399.6267 -147.2539,-588.1855 119.9345,-276.4886 436.3074,-42.8966 404.499,182.9816 C 4615.3556,2744.7545 4551.6787,3007.64 4345,2990 z" />
      <path
         inkscape:connector-curvature="0"
         id="path30"
         d="m 3693,2505 c -282.6054,-7.4993 -396.9396,-445.6129 -50.1719,-446.9844 197.7699,-39.2733 545.15,93.1916 464.0469,338.7344 C 4019.3541,2532.046 3833.3307,2529.5273 3693,2505 z" />
      <path
         inkscape:connector-curvature="0"
         id="path32"
         d="m 1032.5763,2090.4068 c -276.92422,-99.5769 -46.67936,-432.3061 151.2383,-472.3691 216.0015,-123.9516 555.5315,93.1909 311.0117,317.2441 -114.6721,129.0892 -294.1455,180.9012 -462.25,155.125 z" />
      <path
         inkscape:connector-curvature="0"
         id="path34"
         d="m 5195,2400 c -219.1132,-87.0187 -247.4792,-399.6267 -147.2539,-588.1855 119.9345,-276.4886 436.3074,-42.8966 404.499,182.9816 C 5465.3556,2154.7545 5401.6787,2417.64 5195,2400 z" />
      <path
         inkscape:connector-curvature="0"
         id="path36"
         d="m 3145,2250 c -219.1132,-87.0187 -247.4792,-399.6267 -147.2539,-588.1855 119.9345,-276.4886 436.3074,-42.8966 404.499,182.9816 C 3415.3556,2004.7545 3351.6787,2267.64 3145,2250 z" />
      <path
         inkscape:connector-curvature="0"
         id="path38"
         d="m 2161.8644,2034.5763 c -249.3608,-104.3188 -258.8051,-494.9564 -84.9712,-673.3203 246.1944,-171.784 400.7144,231.027 331.8157,427.2978 -22.8728,116.882 -104.1397,270.1894 -246.8445,246.0225 z" />
      <path
         inkscape:connector-curvature="0"
         id="path40"
         d="m 3615,1950 c -219.1132,-87.0187 -247.4792,-399.6267 -147.2539,-588.1855 119.9345,-276.4886 436.3074,-42.8966 404.499,182.9816 C 3885.3556,1704.7545 3821.6787,1967.64 3615,1950 z" />
      <path
         inkscape:connector-curvature="0"
         id="path42"
         d="m 4850,1662 c -216.1216,-33.9128 -419.9713,-220.8218 -413,-450 -231.9708,8.1594 -468.7834,-183.4319 -480,-421 -199.2029,163.95405 -579.2191,97.48365 -671.4375,-155.34375 17.6088,-299.81227 472.2396,-267.03748 635.0625,-99.28125 78.8443,104.39768 82.4437,185.08787 230.5312,113.54688 C 4377.8759,659.69124 4621.5358,857.39384 4595,1100 c 237.8254,-12.4917 521.8327,203.1732 474.0625,458.7812 C 5039.6791,1648.9832 4930.8744,1663.8564 4850,1662 z" />
      <path
         inkscape:connector-curvature="0"
         id="path44"
         d="m 5238,1651 c -276.9242,-99.5769 -46.6793,-432.3061 151.2383,-472.3691 216.0015,-123.9516 555.5315,93.1909 311.0117,317.2441 C 5585.5779,1624.9642 5406.1045,1676.7762 5238,1651 z" />
      <path
         inkscape:connector-curvature="0"
         id="path46"
         d="M 1145,1370 C 925.88683,1282.9813 897.52078,970.37332 997.74609,781.81445 1117.6806,505.32591 1434.0535,738.91792 1402.2451,964.79614 1415.3556,1124.7545 1351.6787,1387.64 1145,1370 z" />
      <path
         inkscape:connector-curvature="0"
         id="path48"
         d="m 2184,1265 c -193.6512,-175.6487 -104.0551,-547.10527 117.2244,-663.38843 304.6907,-84.03083 311.2324,394.19738 166.77,555.87623 C 2410.1697,1246.3754 2289.0286,1330.6851 2184,1265 z" />
      <path
         inkscape:connector-curvature="0"
         id="path50"
         d="M 4868,911 C 4591.0758,811.42309 4821.3207,478.69389 5019.2383,438.63086 5235.2398,314.67932 5574.7698,531.82183 5330.25,755.875 5215.5779,884.96422 5036.1045,936.77619 4868,911 z" />
    </g>
  </g>
</svg>
