<?xml version="1.0" standalone="no"?>
<!DOCTYPE svg PUBLIC "-//W3C//DTD SVG 20010904//EN"
 "http://www.w3.org/TR/2001/REC-SVG-20010904/DTD/svg10.dtd">
<svg version="1.0" xmlns="http://www.w3.org/2000/svg"
 width="110592.000000pt" height="110592.000000pt" viewBox="0 0 110592.000000 110592.000000"
 preserveAspectRatio="xMidYMid meet">
<metadata>
Created by potrace 1.11, written by Peter Selinger 2001-2013
</metadata>
<g transform="translate(0.000000,110592.000000) scale(17.526466,-22.162725)"
fill="#000000" stroke="none">
<path d="M4105 4760 c-96 -21 -168 -123 -197 -280 -19 -104 11 -257 67 -342
l25 -38 -28 -14 c-106 -55 -178 -246 -155 -409 20 -139 75 -237 154 -277 150
-77 303 94 303 340 0 98 -28 202 -70 263 -14 21 -24 40 -22 41 1 1 19 12 39
24 185 111 191 533 9 662 -38 27 -85 38 -125 30z"/>
<path d="M848 4751 c-136 -44 -172 -161 -88 -289 89 -136 256 -219 423 -210
140 8 209 61 210 162 1 120 -125 259 -290 318 -64 22 -210 33 -255 19z"/>
<path d="M3315 4670 c-98 -21 -170 -127 -197 -288 -14 -79 0 -184 35 -270 l25
-63 -41 6 c-131 23 -269 -28 -382 -140 -83 -83 -120 -159 -120 -247 0 -80 19
-112 85 -145 115 -59 303 -1 435 134 78 78 110 149 110 241 0 61 2 71 15 65 8
-3 34 -8 57 -11 126 -12 234 149 236 353 2 223 -119 394 -258 365z"/>
<path d="M5013 4285 c-126 -35 -227 -108 -264 -189 -35 -78 -15 -146 59 -203
60 -46 110 -58 237 -57 102 0 116 3 190 34 102 43 187 122 205 190 23 85 -19
158 -117 205 -49 24 -74 28 -158 31 -67 3 -117 -1 -152 -11z"/>
<path d="M1955 4100 c-98 -21 -170 -127 -197 -288 -28 -162 45 -357 153 -412
150 -77 303 94 303 340 0 219 -122 389 -259 360z"/>
<path d="M1093 3715 c-126 -35 -227 -108 -264 -189 -35 -78 -15 -146 59 -203
60 -46 110 -58 237 -57 102 0 116 3 190 34 102 43 187 122 205 190 23 85 -19
158 -117 205 -49 24 -74 28 -158 31 -67 3 -117 -1 -152 -11z"/>
<path d="M1925 3352 c-84 -39 -144 -140 -167 -280 -21 -122 22 -289 93 -364
l39 -41 -39 -42 c-72 -78 -112 -231 -94 -358 27 -182 116 -297 231 -297 49 0
118 43 154 96 30 44 64 145 73 219 14 110 -30 264 -97 340 -39 44 -40 47 -21
60 64 45 117 187 117 315 0 238 -148 418 -289 352z"/>
<path d="M5238 3341 c-136 -44 -172 -161 -88 -289 89 -136 256 -219 423 -210
140 8 209 61 210 162 1 120 -125 259 -290 318 -64 22 -210 33 -255 19z"/>
<path d="M3145 3190 c-98 -21 -170 -127 -197 -288 -28 -162 45 -357 153 -412
150 -77 303 94 303 340 0 219 -122 389 -259 360z"/>
<path d="M378 3121 c-136 -44 -172 -161 -88 -289 89 -136 256 -219 423 -210
140 8 209 61 210 162 1 120 -125 259 -290 318 -64 22 -210 33 -255 19z"/>
<path d="M4345 2990 c-98 -21 -170 -127 -197 -288 -28 -162 45 -357 153 -412
150 -77 303 94 303 340 0 219 -122 389 -259 360z"/>
<path d="M3693 2505 c-126 -35 -227 -108 -264 -189 -35 -78 -15 -146 59 -203
60 -46 110 -58 237 -57 102 0 116 3 190 34 102 43 187 122 205 190 23 85 -19
158 -117 205 -49 24 -74 28 -158 31 -67 3 -117 -1 -152 -11z"/>
<path d="M948 2471 c-136 -44 -172 -161 -88 -289 89 -136 256 -219 423 -210
140 8 209 61 210 162 1 120 -125 259 -290 318 -64 22 -210 33 -255 19z"/>
<path d="M5195 2400 c-98 -21 -170 -127 -197 -288 -28 -162 45 -357 153 -412
150 -77 303 94 303 340 0 219 -122 389 -259 360z"/>
<path d="M3145 2250 c-98 -21 -170 -127 -197 -288 -28 -162 45 -357 153 -412
150 -77 303 94 303 340 0 219 -122 389 -259 360z"/>
<path d="M2035 1950 c-98 -21 -170 -127 -197 -288 -20 -115 18 -276 83 -355
151 -183 369 -21 372 278 2 223 -119 394 -258 365z"/>
<path d="M3615 1950 c-98 -21 -170 -127 -197 -288 -28 -162 45 -357 153 -412
150 -77 303 94 303 340 0 219 -122 389 -259 360z"/>
<path d="M4850 1662 c-96 -12 -207 -70 -285 -147 -76 -76 -116 -153 -122 -239
l-6 -64 -46 -1 c-96 -1 -219 -59 -306 -146 -69 -69 -113 -149 -122 -223 l-6
-51 -25 20 c-80 62 -237 87 -359 55 -211 -54 -336 -202 -275 -326 21 -42 89
-95 145 -112 24 -7 90 -13 152 -12 102 0 116 3 190 34 105 44 188 122 206 193
6 26 13 47 14 47 2 0 22 -9 46 -20 120 -54 304 4 434 137 74 75 110 150 110
231 l0 62 46 0 c102 0 232 63 324 157 128 130 152 302 52 370 -32 22 -121 41
-167 35z"/>
<path d="M5238 1651 c-136 -44 -172 -161 -88 -289 89 -136 256 -219 423 -210
140 8 209 61 210 162 1 120 -125 259 -290 318 -64 22 -210 33 -255 19z"/>
<path d="M1145 1370 c-98 -21 -170 -127 -197 -288 -28 -162 45 -357 153 -412
150 -77 303 94 303 340 0 219 -122 389 -259 360z"/>
<path d="M2184 1265 c-61 -36 -95 -111 -102 -224 -8 -148 38 -280 130 -374
158 -161 330 -78 345 164 18 281 -202 537 -373 434z"/>
<path d="M4868 911 c-136 -44 -172 -161 -88 -289 89 -136 256 -219 423 -210
140 8 209 61 210 162 1 120 -125 259 -290 318 -64 22 -210 33 -255 19z"/>
</g>
</svg>
