<?xml version="1.0" encoding="UTF-8" standalone="no"?>
<svg
   xmlns:osb="http://www.openswatchbook.org/uri/2009/osb"
   xmlns:dc="http://purl.org/dc/elements/1.1/"
   xmlns:cc="http://creativecommons.org/ns#"
   xmlns:rdf="http://www.w3.org/1999/02/22-rdf-syntax-ns#"
   xmlns:svg="http://www.w3.org/2000/svg"
   xmlns="http://www.w3.org/2000/svg"
   xmlns:sodipodi="http://sodipodi.sourceforge.net/DTD/sodipodi-0.dtd"
   xmlns:inkscape="http://www.inkscape.org/namespaces/inkscape"
   version="1.0"
   width="1536"
   height="1536"
   viewBox="0 0 1228.8 1228.8"
   preserveAspectRatio="xMidYMid meet"
   id="svg2"
   inkscape:version="0.48.4 r9939"
   sodipodi:docname="bird.svg">
  <defs
     id="defs12">
    <linearGradient
       id="linearGradient4184"
       osb:paint="solid">
      <stop
         style="stop-color:#000000;stop-opacity:1;"
         offset="0"
         id="stop4186" />
    </linearGradient>
    <inkscape:perspective
       sodipodi:type="inkscape:persp3d"
       inkscape:vp_x="0 : 170.5 : 1"
       inkscape:vp_y="0 : 1000 : 0"
       inkscape:vp_z="300 : 170.5 : 1"
       inkscape:persp3d-origin="150 : 113.66667 : 1"
       id="perspective3357" />
  </defs>
  <sodipodi:namedview
     pagecolor="#ffffff"
     bordercolor="#666666"
     borderopacity="1"
     objecttolerance="10"
     gridtolerance="10"
     guidetolerance="10"
     inkscape:pageopacity="0"
     inkscape:pageshadow="2"
     inkscape:window-width="1867"
     inkscape:window-height="1060"
     id="namedview10"
     showgrid="false"
     inkscape:zoom="0.19575038"
     inkscape:cx="1021.6384"
     inkscape:cy="110.61653"
     inkscape:window-x="50"
     inkscape:window-y="-3"
     inkscape:window-maximized="1"
     inkscape:current-layer="svg2"
     inkscape:snap-nodes="true"
     fit-margin-top="0"
     fit-margin-left="0"
     fit-margin-right="0"
     fit-margin-bottom="0" />
  <metadata
     id="metadata4">
Created by potrace 1.11, written by Peter Selinger 2001-2013
<rdf:RDF>
  <cc:Work
     rdf:about="">
    <dc:format>image/svg+xml</dc:format>
    <dc:type
       rdf:resource="http://purl.org/dc/dcmitype/StillImage" />
    <dc:title />
  </cc:Work>
</rdf:RDF>
</metadata>
  <path
     style="fill:#ffffff;fill-opacity:0.27848098;stroke:#000000;stroke-width:0.12771367;stroke-opacity:0"
     d=""
     id="path4329"
     inkscape:connector-curvature="0" />
  <path
     style="fill:#000000;stroke:none"
     d="M 45.463639,3.1388137e-4 C 35.487517,-0.03348612 26.281282,2.6278339 18.39543,8.9530039 -0.47783323,84.234804 29.168667,161.18328 49.142813,234.72545 60.746642,290.95062 138.78543,311.88469 188.82002,344.62743 249.78497,382.35715 304.245,430.67006 330.9938,487.97337 282.39738,538.48004 212.52135,476.66355 150.58289,500.83643 74.430614,509.78611 28.322861,570.67524 78.050606,621.7492 c -20.680942,22.32184 -49.701785,32.49111 -43.755888,58.86137 -41.2798063,17.40572 -52.950115,72.44427 8.40954,68.01987 15.282057,-49.5649 94.577702,-79.138 155.970692,-81.70617 82.54078,0.61727 163.38569,17.51303 246.37324,15.33277 31.85335,2.37784 67.96864,-1.72744 97.2353,4.6307 86.52955,88.8244 109.25659,208.92143 216.93986,286.3832 116.29354,98.00816 246.63205,189.96646 402.34395,247.38236 62.0422,24.6471 68.1124,-11.4935 67.1449,-43.7344 -12.947,-32.6647 -13.5479,-54.5535 -52.034,-81.1916 62.3539,-17.3711 -66.9496,-38.8554 -12.3515,-55.0539 -14.3185,-18.8483 -47.0473,-24.8102 -22.2065,-40.1328 -31.8986,-20.22651 -32.9687,-42.2242 -70.5613,-59.68458 20.278,-33.15385 -77.62301,-26.32762 -34.8207,-56.59746 -66.9039,-20.63865 -50.93302,-86.87638 -88.82578,-128.1161 -31.58729,-60.29593 -80.72192,-115.75553 -103.27967,-178.33347 62.27118,-31.55184 143.89549,-22.85945 209.31875,-36.634 57.9977,-31.60222 35.7307,-103.47911 -5.7816,-138.09781 -42.2218,-44.18307 -114.9736,-22.00242 -166.74541,-2.77842 -43.3905,9.84837 -78.20536,38.90924 -126.53731,31.59166 -33.20654,-7.24065 -79.46789,5.30526 -102.09707,-19.75766 C 554.43974,331.10787 448.43745,248.72846 307.99896,215.79103 254.89324,175.81511 242.33464,106.12416 178.0453,69.152134 146.73266,50.520584 88.693484,0.14671388 45.463639,3.1388137e-4 z M 809.2864,449.38419 l 9.06654,1.95518 c 16.69272,3.60005 19.63501,4.80478 34.55795,14.20082 17.27782,10.87877 22.08997,14.40564 24.96582,18.317 6.02607,8.19572 11.87007,20.1212 14.1911,29.01906 1.32514,5.08003 1.31468,5.17985 0,7.51203 -2.8872,5.11164 -13.21244,13.57232 -27.7252,22.63899 -8.38284,5.2371 -8.52412,5.24813 -12.08871,5.24813 -1.98471,0 -4.10722,0.0288 -4.59897,0.1029 -0.49143,0.0745 -8.41674,0.0782 -17.73888,0 -9.32202,-0.0794 -16.95048,-0.18811 -16.95048,-0.30871 0,-0.1206 -1.05981,-4.35768 -2.36518,-9.36431 -2.61752,-10.03998 -2.56554,-9.80828 -8.93514,-25.10869 l -4.46756,-10.80498 -6.70136,-5.45393 c -12.92788,-10.49132 -25.00445,-18.39356 -48.74905,-32.31201 -14.33128,-8.40063 -18.79007,-11.28093 -18.79007,-11.93692 0,-0.25726 1.60953,-1.06095 3.54778,-1.85228 l 3.54777,-1.44067 39.55112,-0.20581 39.68252,-0.2058 z"
     id="path8"
     inkscape:connector-curvature="0" />
</svg>
