<?xml version="1.0" standalone="no"?>
<!DOCTYPE svg PUBLIC "-//W3C//DTD SVG 20010904//EN"
 "http://www.w3.org/TR/2001/REC-SVG-20010904/DTD/svg10.dtd">
<svg version="1.0" xmlns="http://www.w3.org/2000/svg"
 width="110592.000000pt" height="110592.000000pt" viewBox="0 0 110592.000000 110592.000000"
 preserveAspectRatio="xMidYMid meet">
<metadata>
Created by potrace 1.11, written by Peter Selinger 2001-2013
</metadata>
<g transform="translate(0.000000,110592.000000) scale(18.432000,-47.060426)"
fill="#000000" stroke="none">
<path d="M2979 2332 c-134 -68 -274 -96 -734 -147 -176 -20 -372 -42 -435 -50
-136 -17 -417 -31 -925 -45 -564 -16 -790 -28 -836 -47 -41 -16 -56 -44 -44
-82 10 -34 112 -118 183 -152 333 -157 440 -219 524 -301 24 -23 184 -198 355
-389 643 -715 876 -941 1028 -996 149 -54 216 -67 345 -67 103 0 135 3 180 20
171 66 172 66 270 66 109 -1 306 -40 490 -97 129 -41 225 -53 286 -36 69 19
290 173 519 362 146 121 391 371 459 469 136 195 207 282 341 416 304 304 585
459 900 495 49 5 93 15 97 22 30 46 19 100 -25 124 -27 14 -79 18 -331 24
-1142 29 -2072 174 -2475 385 -93 49 -120 53 -172 26z m-206 -228 c3 -4 -6
-25 -22 -48 -71 -105 -220 -387 -321 -606 -39 -85 -83 -180 -98 -210 -34 -73
-180 -288 -287 -425 -108 -138 -298 -365 -306 -365 -4 0 -61 57 -128 126
l-122 126 184 187 c203 208 319 343 447 522 139 192 294 374 463 542 149 147
174 167 190 151z m416 -125 c17 -73 49 -222 72 -333 56 -277 139 -601 184
-721 71 -191 195 -433 347 -674 32 -52 55 -98 51 -102 -4 -4 -43 -29 -85 -57
-89 -57 -137 -68 -230 -52 -54 10 -247 66 -256 75 -8 8 -43 160 -61 270 -52
310 -71 604 -78 1223 -5 446 -4 502 9 502 12 0 24 -34 47 -131z m-651 112 c-1
-5 -46 -42 -98 -81 -216 -165 -446 -380 -692 -648 -107 -116 -190 -195 -291
-276 -207 -165 -186 -156 -237 -99 -24 27 -83 90 -132 142 -49 52 -87 99 -85
104 1 5 50 26 107 47 179 63 329 151 387 226 37 49 196 181 318 263 227 155
349 219 490 256 55 14 123 37 150 50 52 24 89 31 83 16z m884 -83 c44 -46 108
-118 142 -160 60 -74 247 -379 416 -678 112 -197 183 -294 346 -471 l77 -84
-93 -88 c-51 -48 -106 -97 -121 -108 l-28 -20 -67 103 c-130 200 -278 455
-340 583 -122 257 -279 609 -337 760 -19 50 -51 123 -70 162 -34 67 -37 83
-14 83 5 0 46 -37 89 -82z m406 -8 c66 -25 225 -141 320 -234 41 -39 121 -124
178 -188 110 -123 195 -193 406 -333 l118 -78 -31 -36 c-47 -56 -149 -192
-167 -223 -9 -15 -21 -28 -26 -28 -15 0 -294 286 -364 373 -34 43 -105 144
-158 223 -104 158 -316 445 -358 483 -60 56 -17 78 82 41z m-904 -98 c9 -14
-59 -552 -95 -752 -10 -58 -39 -235 -64 -393 -53 -337 -76 -453 -111 -560 -24
-71 -30 -81 -63 -95 -51 -23 -244 -22 -326 2 -111 32 -215 69 -215 77 0 5 35
55 79 113 101 134 229 328 321 486 205 352 409 841 435 1040 3 30 9 63 11 73
6 18 19 23 28 9z"/>
</g>
</svg>
