<?xml version="1.0" encoding="UTF-8" standalone="no"?>
<svg
   xmlns:dc="http://purl.org/dc/elements/1.1/"
   xmlns:cc="http://creativecommons.org/ns#"
   xmlns:rdf="http://www.w3.org/1999/02/22-rdf-syntax-ns#"
   xmlns:svg="http://www.w3.org/2000/svg"
   xmlns="http://www.w3.org/2000/svg"
   xmlns:sodipodi="http://sodipodi.sourceforge.net/DTD/sodipodi-0.dtd"
   xmlns:inkscape="http://www.inkscape.org/namespaces/inkscape"
   version="1.0"
   width="1536"
   height="1536"
   viewBox="0 0 1228.7999 1228.8001"
   preserveAspectRatio="xMidYMid meet"
   id="svg4203"
   inkscape:version="0.48.4 r9939"
   sodipodi:docname="braquiopodos.svg">
  <defs
     id="defs4213" />
  <sodipodi:namedview
     pagecolor="#ffffff"
     bordercolor="#666666"
     borderopacity="1"
     objecttolerance="10"
     gridtolerance="10"
     guidetolerance="10"
     inkscape:pageopacity="0"
     inkscape:pageshadow="2"
     inkscape:window-width="1867"
     inkscape:window-height="1060"
     id="namedview4211"
     showgrid="false"
     inkscape:zoom="0.58"
     inkscape:cx="1140.0716"
     inkscape:cy="737.63432"
     inkscape:window-x="50"
     inkscape:window-y="-3"
     inkscape:window-maximized="1"
     inkscape:current-layer="svg4203"
     showguides="false"
     fit-margin-top="0"
     fit-margin-left="0"
     fit-margin-right="0"
     fit-margin-bottom="0" />
  <metadata
     id="metadata4205">
Created by potrace 1.11, written by Peter Selinger 2001-2013
<rdf:RDF>
  <cc:Work
     rdf:about="">
    <dc:format>image/svg+xml</dc:format>
    <dc:type
       rdf:resource="http://purl.org/dc/dcmitype/StillImage" />
    <dc:title />
  </cc:Work>
</rdf:RDF>
</metadata>
  <path
     style="fill:#000000;stroke:none"
     sodipodi:nodetypes="cccccccccccccccccccccccccccccccccccccsccccccccc"
     inkscape:connector-curvature="0"
     id="path4209"
     d="m 613.28222,199.01259 c -75.92632,57.787 -160.9167,49.78857 -241.0131,74.15929 -120.62465,22.6978 -242.76479,8.69156 -363.0659358,34.63276 -61.2464852,60.63391 233.6073458,249.74503 101.9254558,155.32981 59.52766,70.45189 98.6413,183.90922 148.50973,274.37086 54.70367,101.39129 102.33081,223.07 171.38929,293.06999 60.60442,61.9887 122.59351,-9.5607 183.83628,-4.3056 54.20214,0.1403 110.66633,87.0344 161.66893,26.7749 84.51161,-99.30489 158.64654,-227.65577 215.3296,-379.29026 59.42993,-129.37542 137.94833,-247.62335 234.02913,-259.88688 33.6493,-97.48405 -179.5018,-58.271 -121.228,-63.48601 C 956.92969,334.50927 805.36437,319.63622 665.57967,223.39742 648.81392,213.82995 631.52716,179.47721 613.28222,199.01259 z m -42.47108,85.82903 C 528.62586,407.96448 501.0304,545.83237 460.03733,669.91601 429.42541,753.87756 414.76503,792.18574 377.73923,866.93104 347.81538,839.23841 326.01808,803.93323 323.61067,758.53248 383.40345,654.86597 426.17911,573.05023 475.65477,453.1407 505.29252,396.24417 533.74759,320.50776 570.81114,284.84162 z m 85.76685,47.05539 c 24.50033,205.60595 42.72164,420.06263 107.33596,599.55134 18.62751,51.25735 23.9113,82.29335 -26.53719,84.21465 -82.59076,17.6691 -78.16482,-87.91175 -84.45271,-195.27242 -8.39468,-176.75809 -8.90346,-354.652 -7.60168,-531.89037 4.94703,-23.98737 10.21013,45.31495 11.25562,43.3968 z M 522.36111,289.73539 C 445.533,392.96397 390.44318,515.88054 322.59114,636.994 c -29.75015,61.58006 -30.81972,92.64125 -85.10125,8.79747 -42.67803,-79.4818 58.98908,-103.29122 74.22354,-144.12086 55.07347,-93.70372 120.09287,-171.40356 193.53554,-205.91215 3.67629,-0.081 14.25967,-15.58989 17.11214,-6.02307 z m 190.29785,31.24478 c 81.45214,153.82327 99.69565,338.35486 186.00084,485.58456 -7.67288,18.03912 -26.61981,84.9829 -67.15102,99.42677 -70.70794,-189.37909 -102.4706,-403.25345 -147.77752,-614.54449 8.18884,-3.61604 22.52908,23.36142 28.9277,29.53316 z m 75.66186,3.01153 c 48.26349,44.68034 113.35498,112.2005 135.33797,187.79436 14.25289,49.01197 61.82463,63.40119 56.67724,103.22393 -1.96635,46.19908 -78.77756,158.13956 -43.07682,107.6615 C 865.68634,613.30999 834.11016,479.54205 776.19302,348.90606 756.045,320.38425 768.69858,308.48079 788.32082,323.9917 z m -178.33468,12.563 c -10.99727,210.16638 -37.57411,444.07483 -61.10235,650.74435 -42.91023,54.37865 -110.56183,-26.59579 -116.35942,-43.0289 62.03438,-187.0064 123.74533,-331.78479 153.33456,-552.51872 2.23355,-3.72359 15.19985,-67.68563 24.12721,-55.19673 z" />
</svg>
