<?xml version="1.0" standalone="no"?>
<!DOCTYPE svg PUBLIC "-//W3C//DTD SVG 20010904//EN"
 "http://www.w3.org/TR/2001/REC-SVG-20010904/DTD/svg10.dtd">
<svg version="1.0" xmlns="http://www.w3.org/2000/svg"
 width="110592.000000pt" height="110592.000000pt" viewBox="0 0 110592.000000 110592.000000"
 preserveAspectRatio="xMidYMid meet">
<metadata>
Created by potrace 1.11, written by Peter Selinger 2001-2013
</metadata>
<g transform="translate(0.000000,110592.000000) scale(13.824000,-13.824000)"
fill="#000000" stroke="none">
<path d="M7060 7020 c0 -6 -8 -10 -18 -10 -9 0 -50 -16 -89 -35 -40 -19 -77
-35 -82 -35 -5 0 -11 -3 -13 -7 -4 -11 -67 -43 -84 -43 -8 0 -14 -4 -14 -10 0
-5 -6 -10 -14 -10 -8 0 -21 -6 -28 -13 -7 -7 -33 -21 -58 -32 -25 -11 -49 -23
-55 -28 -11 -9 -188 -99 -375 -191 -63 -32 -123 -61 -132 -67 -10 -5 -25 -9
-33 -9 -8 0 -15 -4 -15 -10 0 -5 -8 -10 -17 -10 -15 0 -132 -37 -188 -60 -11
-4 -47 -16 -80 -25 -33 -10 -69 -21 -80 -26 -11 -4 -47 -15 -80 -24 -80 -23
-152 -45 -198 -61 -20 -8 -46 -14 -57 -14 -11 0 -20 -4 -20 -10 0 -5 -10 -10
-22 -10 -26 0 -107 -25 -157 -49 -60 -29 -60 -26 -21 -281 5 -32 4 -59 -1 -65
-5 -5 -9 -16 -9 -23 0 -16 -201 -321 -259 -392 -20 -25 -49 -65 -66 -90 -16
-25 -36 -51 -44 -58 -9 -7 -16 -16 -16 -20 0 -9 -39 -61 -72 -98 -13 -13 -22
-26 -20 -27 2 -3 -21 -34 -74 -100 -14 -18 -41 -54 -60 -82 -19 -27 -39 -54
-45 -60 -49 -42 -145 -239 -129 -264 5 -10 -31 -41 -48 -41 -7 0 -17 -4 -23
-8 -5 -5 -40 -21 -79 -37 -38 -16 -73 -33 -76 -37 -3 -5 -26 -9 -50 -10 -24 0
-50 -4 -59 -8 -8 -4 -33 -16 -54 -26 -22 -11 -47 -26 -56 -34 -9 -8 -27 -22
-39 -30 -13 -8 -39 -32 -60 -53 -20 -22 -46 -49 -58 -62 -13 -12 -23 -27 -23
-32 0 -5 -9 -19 -20 -31 -12 -12 -18 -22 -14 -22 3 0 1 -6 -5 -13 -6 -8 -12
-22 -14 -33 -1 -10 -5 -23 -9 -29 -3 -5 -6 -22 -6 -36 0 -26 -28 -79 -42 -79
-4 0 -16 -8 -28 -18 -11 -10 -33 -27 -48 -38 -15 -10 -35 -26 -44 -34 -27 -25
-79 -60 -87 -60 -5 0 -16 -8 -25 -17 -23 -25 -40 -38 -68 -53 -14 -7 -30 -18
-36 -24 -6 -6 -22 -18 -34 -26 -12 -8 -36 -25 -53 -37 -17 -13 -35 -23 -39
-23 -5 0 -14 -5 -21 -10 -48 -41 -62 -50 -74 -50 -7 0 -13 -4 -13 -8 0 -4 -24
-20 -52 -36 -29 -15 -75 -41 -103 -57 -27 -16 -62 -35 -77 -40 -16 -6 -28 -15
-28 -20 0 -5 -8 -9 -18 -9 -10 0 -22 -4 -28 -9 -18 -17 -164 -70 -211 -77 -26
-3 -52 -9 -58 -12 -13 -8 -43 -15 -72 -16 -13 -1 -23 -4 -23 -8 0 -4 -10 -6
-22 -5 -23 1 -153 -16 -261 -34 -31 -6 -61 -8 -65 -5 -5 3 -28 0 -53 -5 -24
-6 -57 -10 -74 -11 -44 0 -348 -59 -360 -69 -5 -5 -19 -9 -32 -9 -13 0 -23 -4
-23 -10 0 -5 -6 -10 -13 -10 -13 0 -76 -30 -111 -53 -58 -38 -226 -204 -226
-223 0 -6 -9 -19 -20 -29 -11 -10 -20 -23 -20 -30 0 -7 -8 -20 -19 -29 -15
-13 -102 -174 -107 -196 0 -3 -4 -13 -8 -22 -4 -9 -9 -22 -10 -30 -1 -7 -9
-33 -16 -58 -17 -60 -19 -70 -21 -171 -1 -48 4 -95 10 -107 10 -19 2 -28 -82
-99 -173 -146 -316 -300 -382 -412 -5 -9 -19 -30 -31 -46 -42 -60 -99 -203
-113 -284 -9 -57 -8 -194 3 -223 3 -10 8 -25 11 -33 7 -24 49 -17 76 13 13 15
24 31 24 35 0 4 5 11 11 15 6 4 25 30 44 57 19 28 42 59 51 70 45 51 67 76
103 119 60 70 125 136 136 136 6 0 10 7 10 15 0 8 3 15 8 15 4 0 23 14 42 30
52 45 58 50 68 50 4 0 17 7 27 15 11 8 47 35 80 60 33 24 67 50 75 57 8 7 41
35 75 61 87 70 134 108 168 140 16 15 33 27 36 27 3 0 24 16 46 36 70 60 91
78 119 98 15 11 36 27 47 35 27 22 55 44 124 96 84 63 103 78 120 93 7 6 17
12 21 12 4 0 16 7 26 17 20 18 50 36 86 52 12 6 22 15 22 20 0 5 11 12 25 15
14 4 25 11 25 16 0 6 6 10 14 10 8 0 21 6 28 13 37 35 231 117 312 131 l39 8
-16 -26 c-10 -14 -17 -30 -17 -36 0 -12 -70 -114 -82 -118 -4 -2 -8 -8 -8 -14
0 -6 -14 -27 -31 -47 -43 -51 -100 -119 -127 -150 -62 -71 -193 -210 -345
-364 -92 -94 -167 -175 -167 -179 0 -4 -4 -8 -8 -8 -4 0 -65 -55 -135 -122
-112 -109 -208 -199 -296 -278 -15 -14 -45 -41 -67 -61 -22 -20 -68 -57 -102
-83 -63 -48 -70 -62 -52 -97 9 -16 19 -18 66 -14 30 3 64 9 74 15 11 6 20 8
20 4 0 -3 6 -2 13 3 6 6 31 13 55 17 24 3 51 10 60 15 28 14 118 41 136 41 9
0 16 5 16 10 0 6 11 10 25 10 14 0 25 5 25 10 0 6 9 10 19 10 11 0 22 4 26 9
3 5 19 12 35 16 17 4 30 11 30 16 0 5 6 9 13 9 8 0 24 9 37 20 13 11 27 20 32
20 5 0 15 6 22 13 7 6 25 21 41 32 15 11 36 28 47 37 10 10 22 18 26 18 5 0
19 8 31 18 11 9 33 26 47 37 14 11 33 27 43 35 10 8 33 26 51 40 17 13 42 33
55 45 12 11 35 29 49 39 15 11 37 28 48 38 12 10 24 18 27 18 3 0 24 17 47 38
22 20 53 46 69 57 15 11 42 32 59 46 17 14 42 34 55 45 13 10 31 27 40 36 8
10 19 18 23 18 9 0 -30 -68 -46 -78 -6 -4 -15 -14 -21 -23 -39 -63 -67 -99
-75 -99 -6 0 -10 -5 -10 -11 0 -11 -46 -73 -83 -114 -10 -11 -25 -32 -33 -47
-8 -16 -18 -28 -22 -28 -4 0 -15 -12 -24 -27 -9 -16 -33 -46 -52 -68 -20 -22
-36 -45 -36 -51 0 -7 -11 -19 -25 -28 -14 -9 -25 -21 -25 -26 0 -5 -10 -20
-22 -33 -13 -14 -45 -50 -73 -81 -27 -32 -61 -70 -75 -85 -67 -76 -191 -201
-200 -201 -6 0 -10 -7 -10 -15 0 -8 -5 -15 -10 -15 -6 0 -23 -12 -38 -28 -25
-25 -95 -81 -157 -126 -14 -11 -36 -28 -47 -38 -12 -10 -27 -18 -34 -18 -7 0
-14 -5 -16 -11 -6 -17 -105 -72 -249 -137 -49 -23 -59 -36 -59 -82 0 -24 5
-30 30 -35 17 -4 36 -2 43 3 7 6 29 13 50 17 20 4 40 11 43 16 3 5 18 9 33 9
15 0 31 3 35 7 3 4 12 8 19 9 22 4 117 41 124 47 3 4 17 7 30 7 12 0 23 5 23
10 0 6 11 10 24 10 14 0 28 5 31 10 3 6 15 10 26 10 10 0 19 5 19 10 0 6 11
10 25 10 14 0 25 5 25 10 0 6 9 10 20 10 11 0 28 4 38 9 69 36 126 61 138 61
8 0 14 3 14 8 0 4 21 16 48 26 26 11 49 22 52 25 3 3 37 22 75 41 39 19 72 38
75 41 3 4 15 9 28 13 12 4 22 11 22 16 0 4 11 11 25 14 14 4 25 11 25 16 0 6
5 10 10 10 6 0 34 17 63 37 28 20 68 48 87 61 19 13 43 32 54 44 15 16 20 17
27 6 5 -7 9 -8 9 -3 1 6 7 -3 16 -20 22 -44 37 -70 54 -88 8 -9 26 -30 40 -48
30 -37 79 -89 84 -89 2 0 23 -18 47 -41 24 -22 62 -50 84 -61 22 -11 47 -27
56 -35 9 -7 20 -13 25 -12 5 1 31 -8 58 -20 27 -12 51 -19 53 -17 3 3 16 1 28
-4 30 -11 121 -23 160 -21 110 8 195 22 195 32 0 5 9 9 20 9 12 0 40 9 62 20
23 11 48 20 55 20 7 0 13 5 13 10 0 6 7 10 16 10 8 0 35 14 59 30 24 17 47 30
50 30 8 0 92 66 122 96 13 13 29 27 36 31 24 15 107 120 107 136 0 9 5 19 10
22 9 6 75 137 71 143 -1 1 6 16 14 32 9 17 13 30 9 30 -4 0 -1 6 5 14 7 8 14
27 17 42 3 15 8 32 12 38 4 6 7 13 8 16 0 3 6 25 13 50 7 25 15 52 16 60 2 8
9 31 15 50 6 19 18 62 26 95 7 33 16 69 19 80 7 28 17 76 20 103 2 13 5 25 7
28 5 4 76 -90 84 -111 4 -8 10 -13 14 -10 4 3 13 -9 19 -25 5 -17 15 -30 20
-30 6 0 11 -5 11 -10 0 -6 10 -22 22 -35 13 -13 34 -38 48 -55 14 -18 33 -41
43 -52 9 -12 17 -25 17 -30 0 -4 6 -8 14 -8 7 0 19 -13 26 -30 7 -16 16 -27
20 -25 5 3 11 -3 15 -14 3 -10 14 -29 25 -42 11 -13 23 -28 28 -34 40 -49 62
-178 41 -243 -35 -108 -55 -163 -72 -202 -11 -25 -21 -51 -23 -58 -1 -8 -10
-22 -18 -31 -9 -10 -14 -20 -11 -23 3 -3 -1 -11 -10 -18 -8 -7 -15 -21 -15
-31 0 -10 -4 -20 -9 -24 -6 -3 -21 -29 -36 -58 -14 -28 -35 -68 -47 -87 -30
-51 -34 -102 -9 -117 14 -9 28 -10 46 -3 23 9 116 74 189 132 54 44 236 229
236 241 0 7 8 17 19 24 10 6 28 31 41 55 12 24 35 66 51 94 15 28 26 54 23 57
-3 3 0 16 7 29 13 23 16 31 25 78 31 148 16 311 -41 450 -44 109 -50 120 -57
120 -3 0 -9 13 -13 30 -4 16 -11 30 -16 30 -5 0 -11 11 -15 25 -3 14 -10 23
-14 20 -5 -3 -11 8 -15 25 -4 16 -11 30 -16 30 -5 0 -9 7 -9 15 0 9 -18 38
-40 66 -22 28 -40 55 -40 60 0 6 -4 8 -9 4 -5 -3 -12 3 -16 14 -3 10 -13 28
-23 39 -39 46 -49 59 -83 112 -110 170 -141 298 -102 421 18 59 21 64 87 129
58 58 63 63 117 91 24 13 46 27 47 32 2 4 12 7 22 7 9 0 23 7 30 15 7 8 21 15
31 15 11 0 19 4 19 8 0 4 12 13 28 19 15 7 50 25 77 42 28 17 60 36 73 42 12
7 22 16 22 21 0 4 6 8 13 8 8 0 23 8 35 18 11 10 33 27 48 38 85 61 284 287
284 323 0 5 9 20 21 35 11 14 17 26 14 26 -4 0 -3 6 2 13 6 6 16 30 24 52 16
51 16 48 33 123 9 44 21 69 37 80 32 23 104 66 164 97 54 28 87 47 95 55 5 5
70 41 150 82 25 13 46 26 48 30 2 4 24 18 49 30 25 13 48 28 50 35 3 7 11 13
18 13 12 0 91 65 119 97 6 7 35 38 64 69 28 31 52 60 52 65 0 4 9 13 20 19 11
6 20 16 20 21 0 10 37 58 120 159 12 14 34 43 50 65 17 22 34 45 38 51 5 5 22
29 37 52 15 23 32 42 36 42 5 0 9 4 9 10 0 9 55 86 82 114 7 8 24 28 38 46 46
58 73 81 89 74 13 -6 220 -9 271 -5 23 2 60 37 67 63 3 13 7 374 9 803 2 429
4 851 5 937 1 143 -12 241 -29 224 -3 -3 -10 -2 -16 3 -19 14 -46 21 -46 11z
m-2598 -2477 c26 -13 52 -31 59 -39 6 -8 17 -14 23 -14 7 0 22 -9 34 -20 12
-12 22 -18 22 -15 0 3 8 -2 18 -10 41 -37 81 -65 91 -65 6 0 18 -11 27 -25 9
-14 22 -25 29 -25 6 0 20 -9 30 -20 10 -11 21 -18 25 -15 4 2 17 -9 29 -26 12
-16 26 -27 30 -25 4 3 18 -8 30 -24 12 -17 25 -29 30 -27 4 1 21 -11 38 -28
53 -55 123 -115 131 -115 5 0 15 -11 22 -25 7 -14 17 -25 20 -25 11 0 132
-126 179 -186 4 -5 10 -24 13 -42 4 -29 2 -32 -23 -32 -18 0 -36 10 -52 30
-14 17 -30 30 -36 30 -6 0 -11 6 -11 13 0 7 -15 27 -33 43 -18 16 -39 38 -47
49 -8 11 -31 32 -50 46 -19 15 -53 44 -75 64 -64 58 -164 138 -240 190 -38 27
-74 54 -78 62 -4 7 -13 13 -19 13 -5 0 -19 11 -30 25 -11 14 -25 25 -33 25 -7
0 -20 11 -29 25 -9 14 -22 25 -29 25 -8 0 -24 11 -37 25 -12 13 -26 22 -30 20
-4 -3 -15 7 -24 20 -9 14 -20 23 -25 21 -4 -3 -15 8 -25 25 -9 16 -24 29 -32
29 -19 0 -36 42 -20 52 14 9 38 2 98 -29z m-347 -89 c20 -13 23 -21 18 -52 -8
-49 -29 -89 -53 -102 -11 -6 -20 -16 -20 -23 -1 -7 -12 -21 -26 -32 -14 -11
-31 -26 -37 -33 -7 -7 -29 -29 -50 -50 -21 -20 -48 -47 -60 -59 -11 -13 -29
-23 -38 -23 -10 0 -20 -4 -24 -9 -8 -14 -67 -10 -89 5 -11 7 -20 26 -21 41 -2
36 49 149 75 165 11 7 20 18 20 25 0 7 4 13 9 13 6 0 22 11 37 25 15 14 32 25
38 25 6 0 30 18 54 40 23 22 55 42 70 46 15 3 32 7 37 9 21 7 37 4 60 -11z
m957 -791 c13 -17 14 -99 0 -116 -5 -7 -12 -25 -16 -40 -4 -15 -11 -25 -16
-22 -6 3 -15 -6 -20 -20 -6 -15 -29 -44 -53 -66 -62 -57 -69 -63 -100 -79 -20
-10 -24 -16 -15 -22 10 -6 9 -8 -4 -8 -9 0 -23 -6 -30 -13 -37 -38 -130 -23
-146 22 -6 16 -9 31 -7 33 2 2 6 15 9 30 2 14 9 36 16 47 6 12 8 21 4 21 -4 0
3 11 16 25 13 14 19 25 14 25 -5 0 19 26 54 58 34 32 62 63 62 70 0 7 11 12
25 12 14 0 25 4 25 9 0 8 28 22 85 42 32 11 84 7 97 -8z m-3623 -960 c-18 -23
-260 -263 -266 -263 -5 0 1 9 35 60 27 41 120 139 152 160 13 8 30 22 39 31
13 14 33 25 50 28 2 1 -3 -7 -10 -16z m1762 -890 c0 -96 -7 -166 -22 -228 -5
-22 -11 -51 -13 -65 -7 -45 -15 -72 -27 -86 -6 -8 -9 -14 -5 -14 4 0 0 -13 -9
-30 -9 -16 -13 -30 -11 -30 3 0 -8 -23 -24 -50 -17 -28 -30 -55 -30 -59 0 -16
-78 -89 -112 -104 -78 -36 -216 -43 -318 -17 -25 6 -65 16 -90 22 -25 5 -49
14 -54 19 -6 5 -20 9 -33 9 -13 0 -23 3 -23 6 0 8 60 96 79 115 9 9 34 38 56
65 22 26 47 55 55 64 8 8 38 42 65 75 28 32 83 93 123 134 39 41 72 78 72 83
0 4 4 8 9 8 4 0 31 21 59 48 121 113 224 170 245 136 4 -7 8 -53 8 -101z
m-1824 -1139 c-3 -3 -12 -4 -19 -1 -8 3 -5 6 6 6 11 1 17 -2 13 -5z"/>
</g>
</svg>
