<?xml version="1.0" encoding="UTF-8" standalone="no"?>
<svg
   xmlns:dc="http://purl.org/dc/elements/1.1/"
   xmlns:cc="http://creativecommons.org/ns#"
   xmlns:rdf="http://www.w3.org/1999/02/22-rdf-syntax-ns#"
   xmlns:svg="http://www.w3.org/2000/svg"
   xmlns="http://www.w3.org/2000/svg"
   xmlns:sodipodi="http://sodipodi.sourceforge.net/DTD/sodipodi-0.dtd"
   xmlns:inkscape="http://www.inkscape.org/namespaces/inkscape"
   version="1.0"
   width="1536"
   height="1536"
   viewBox="0 0 1228.8 1228.8"
   preserveAspectRatio="xMidYMid meet"
   id="svg2"
   inkscape:version="0.48.4 r9939"
   sodipodi:docname="calamar.svg">
  <defs
     id="defs12" />
  <sodipodi:namedview
     pagecolor="#ffffff"
     bordercolor="#666666"
     borderopacity="1"
     objecttolerance="10"
     gridtolerance="10"
     guidetolerance="10"
     inkscape:pageopacity="0"
     inkscape:pageshadow="2"
     inkscape:window-width="1867"
     inkscape:window-height="1060"
     id="namedview10"
     showgrid="false"
     inkscape:zoom="0.3337544"
     inkscape:cx="446.28622"
     inkscape:cy="706.8275"
     inkscape:window-x="50"
     inkscape:window-y="-3"
     inkscape:window-maximized="1"
     inkscape:current-layer="g6"
     fit-margin-top="0"
     fit-margin-left="0"
     fit-margin-right="0"
     fit-margin-bottom="0" />
  <metadata
     id="metadata4">
Created by potrace 1.11, written by Peter Selinger 2001-2013
<rdf:RDF>
  <cc:Work
     rdf:about="">
    <dc:format>image/svg+xml</dc:format>
    <dc:type
       rdf:resource="http://purl.org/dc/dcmitype/StillImage" />
  </cc:Work>
</rdf:RDF>
</metadata>
  <g
     transform="matrix(0.1,0,0,-0.1,-29.66335,1274.5704)"
     id="g6"
     style="fill:#000000;stroke:none">
    <path
       d="m 12171.59,12740.746 c -829.529,-374.975 -1329.331,-369.841 -2217.4255,-598.062 -274.0568,-89.108 -1528.8911,-411.365 -1730.2196,-582.867 -148.3774,-126.396 266.9317,-934.023 393.5674,-1244.903 C 8246.2881,9553.2862 7171.4907,8614.5154 6777.6092,7871.257 6629.2648,7351.6931 5855.6315,7546.177 5643.6147,7007.5458 5526.372,6499.2969 5432.7946,6676.216 5056.3226,6384.9159 4525.0987,5994.0736 4228.2539,5889.5644 3568.4796,5856.5013 2942.2421,5768.4664 2081.6315,5861.6001 1670.9251,5258.13 1310.1574,4869.8778 1370.1874,4196.3209 1315.0235,3729.6264 783.20241,3254.2133 145.1438,2593.4469 328.88096,1781.5924 c 374.02503,162.9058 591.66845,808.4393 1006.05964,1038.8267 845.9175,612.6661 1546.6631,1495.494 2529.8194,1863.8743 428.7991,177.3762 -617.4209,-973.303 -363.1919,-701.5115 -648.8082,-758.7107 -1333.2603,-1484.1168 -2065.4509,-2149.4821 215.7843,-247.284 1372.1434,341.4582 1061.147,221.5696 539.1979,357.6132 1552.7935,1478.2039 2049.1392,1899.7092 C 4002.3928,3124.1387 2879.9577,1612.9519 2107.482,1001.0686 1709.4943,850.85231 1163.752,277.99702 1923.1255,585.53794 2616.9569,844.49729 3308.6093,1152.7447 3885.2051,1650.8032 4149.3918,1251.5179 4511.733,825.28354 5010.8769,788.85785 c 753.5575,-62.32148 1475.2792,538.84295 1658.1109,1312.80555 168.5884,362.1756 143.275,1345.9723 498.6404,625.1677 C 7552.203,2310.91 7909.87,1748.3601 7525.8065,1177.014 7345.8303,927.04747 7017.1729,128.32046 7566.0246,608.32077 8120.7434,1030.2837 8588.8212,1765.1852 8334.1629,2514.997 c -165.488,582.285 -241.8745,17.143 -916.9733,1030.3154 -238.3076,598.386 -190.4007,792.8864 219.2308,1002.741 495.9559,297.4387 931.6108,788.0361 1026.9094,1406.3935 478.454,403.3699 1779.2712,1222.8167 2138.7542,1788.7005 345.987,358.5595 303.718,582.8968 744.56,767.0209 301.419,-80.3981 932.988,-249.7622 994.554,-66.0198 105.812,315.7951 -22.116,1605.0275 32.825,1920.0935 -12.955,793.063 -206.94,1546.793 -272.78,2335.852 -40.531,13.517 -86.093,60.888 -129.653,40.652 z M 7068.1143,7538.9352 c 741.2006,-313.9948 920.2707,-401.3244 1418.1016,-1427.9624 -129.8238,-177.7354 -871.6455,799.8239 -777.0889,729.8068 -192.8511,231.8972 -926.2099,616.0995 -861.489,689.923 z m -713.4104,-230.0361 c 60.5792,-263.3351 -461.1823,-904.6313 -702.3103,-630.7831 46.8432,308.0844 409.291,688.2923 702.3103,630.7831 z m 1680.2776,-1480.562 c 36.6446,-371.827 -339.0216,-793.4818 -659.5407,-733.2911 -163.7918,338.7604 339.6738,826.6316 659.5407,733.2911 z M 2319.9309,4660.359 c -350.8481,-468.4103 -800.5247,-782.1585 -334.9552,323.1324 26.0429,37.4119 1556.4116,277.1054 334.9552,-323.1324 z M 5740.9561,3153.1166 c 256.898,-448.7947 92.978,-1772.0138 -545.2242,-1719.9192 -360.2343,-3.7824 -1327.8684,398.3933 -898.7974,724.6188 333.4372,369.9656 613.7306,867.4809 1082.2712,1041.7329 72.2867,-31.2058 317.8899,-6.1274 361.7504,-46.4325 z M 2211.0727,862.55839 c -63.7696,-21.69671 -31.9574,31.84426 0,0 z"
       id="path8"
       inkscape:connector-curvature="0"
       sodipodi:nodetypes="ccsccccccccccccccccccccccccccccscccccccccccccccccccccccc" />
  </g>
</svg>
