<?xml version="1.0" standalone="no"?>
<!DOCTYPE svg PUBLIC "-//W3C//DTD SVG 20010904//EN"
 "http://www.w3.org/TR/2001/REC-SVG-20010904/DTD/svg10.dtd">
<svg version="1.0" xmlns="http://www.w3.org/2000/svg"
 width="110592.000000pt" height="110592.000000pt" viewBox="0 0 110592.000000 110592.000000"
 preserveAspectRatio="xMidYMid meet">
<metadata>
Created by potrace 1.11, written by Peter Selinger 2001-2013
</metadata>
<g transform="translate(0.000000,110592.000000) scale(15.191209,-20.254945)"
fill="#000000" stroke="none">
<path d="M5435 4265 c-5 -2 -57 -18 -115 -36 -91 -28 -111 -38 -155 -80 -43
-41 -62 -51 -140 -72 -107 -30 -143 -35 -300 -42 -184 -7 -445 -34 -640 -64
-38 -6 -122 -18 -185 -25 -63 -8 -146 -22 -185 -30 -38 -9 -89 -16 -111 -16
-23 0 -93 -16 -155 -36 -63 -20 -139 -42 -169 -49 -161 -37 -295 -90 -400
-159 -36 -24 -89 -55 -117 -69 -29 -14 -101 -58 -160 -98 -59 -39 -130 -82
-158 -96 -80 -41 -323 -244 -390 -327 -22 -26 -63 -74 -90 -107 -28 -32 -66
-85 -85 -119 -53 -93 -90 -148 -152 -231 -32 -42 -58 -80 -58 -86 0 -5 -13
-27 -30 -49 -16 -21 -30 -43 -30 -48 0 -5 -10 -23 -23 -40 -38 -52 -105 -170
-126 -224 -11 -28 -39 -88 -61 -133 -89 -176 -150 -434 -135 -570 6 -56 5 -56
-32 -84 -21 -16 -58 -48 -82 -72 l-44 -44 7 -60 c9 -79 37 -169 65 -208 20
-27 28 -31 70 -31 32 0 64 8 95 25 76 40 76 40 110 -76 9 -31 16 -63 16 -72 0
-21 35 -57 54 -57 22 0 46 28 46 53 0 24 -7 36 -57 112 -40 59 -43 95 -10 95
15 0 28 -11 40 -32 31 -58 102 -128 130 -128 31 0 51 23 44 52 -4 13 -49 65
-102 117 -88 86 -109 119 -67 104 19 -7 168 -107 194 -130 22 -19 64 -10 73
16 10 34 -17 69 -91 118 l-74 48 97 3 c53 1 103 8 110 14 21 17 11 61 -17 76
-18 9 -49 11 -111 7 -90 -7 -113 1 -89 30 13 15 102 45 211 69 118 26 145 45
339 239 99 100 195 203 213 229 89 129 174 224 412 460 295 293 348 336 740
590 72 47 176 109 231 138 132 69 186 109 230 170 33 46 41 51 117 73 45 13
145 43 222 66 77 23 165 46 195 51 30 5 114 29 185 54 288 98 270 90 380 162
75 48 126 52 206 15 35 -17 88 -35 118 -41 51 -10 57 -8 143 30 91 41 182 108
324 239 39 36 99 89 132 116 33 28 64 58 67 68 8 23 -8 43 -42 52 -14 3 -40
17 -57 30 -50 38 -146 73 -257 94 -97 18 -292 34 -314 26z"/>
</g>
</svg>
