<?xml version="1.0" encoding="UTF-8" standalone="no"?>
<svg
   xmlns:dc="http://purl.org/dc/elements/1.1/"
   xmlns:cc="http://creativecommons.org/ns#"
   xmlns:rdf="http://www.w3.org/1999/02/22-rdf-syntax-ns#"
   xmlns:svg="http://www.w3.org/2000/svg"
   xmlns="http://www.w3.org/2000/svg"
   xmlns:sodipodi="http://sodipodi.sourceforge.net/DTD/sodipodi-0.dtd"
   xmlns:inkscape="http://www.inkscape.org/namespaces/inkscape"
   version="1.0"
   width="1536"
   height="1536"
   viewBox="0 0 1228.8 1228.8"
   preserveAspectRatio="xMidYMid meet"
   id="svg3382"
   inkscape:version="0.48.4 r9939"
   sodipodi:docname="celentereos.svg">
  <defs
     id="defs3404" />
  <sodipodi:namedview
     pagecolor="#ffffff"
     bordercolor="#666666"
     borderopacity="1"
     objecttolerance="10"
     gridtolerance="10"
     guidetolerance="10"
     inkscape:pageopacity="0"
     inkscape:pageshadow="2"
     inkscape:window-width="1867"
     inkscape:window-height="1060"
     id="namedview3402"
     showgrid="false"
     inkscape:zoom="0.14564563"
     inkscape:cx="929.69106"
     inkscape:cy="916.11924"
     inkscape:window-x="50"
     inkscape:window-y="-3"
     inkscape:window-maximized="1"
     inkscape:current-layer="g3386"
     fit-margin-top="0"
     fit-margin-left="0"
     fit-margin-right="0"
     fit-margin-bottom="0" />
  <metadata
     id="metadata3384">
Created by potrace 1.11, written by Peter Selinger 2001-2013
<rdf:RDF>
  <cc:Work
     rdf:about="">
    <dc:format>image/svg+xml</dc:format>
    <dc:type
       rdf:resource="http://purl.org/dc/dcmitype/StillImage" />
    <dc:title />
  </cc:Work>
</rdf:RDF>
</metadata>
  <g
     transform="matrix(0.1,0,0,-0.1,-467.83932,1460.4132)"
     id="g3386"
     style="fill:#000000;stroke:none">
    <g
       id="g2989"
       transform="matrix(0.56209877,0,0,0.50156524,2048.6741,1154.4406)">
      <path
         sodipodi:nodetypes="cccccccccccccccccc"
         inkscape:connector-curvature="0"
         id="path3388"
         d="m 11925,26813 c -1464.3,-143.021 -2883.8401,-741.059 -3974.3948,-1734.609 -893.47,-731.804 -1732.6002,-1558.508 -2280.7458,-2587.203 -480.8063,-864.891 -887.9483,-1808.083 -991.4063,-2800.297 -3.328,-968.425 130.9111,-1998.599 671.221,-2825.746 286.2867,-357.425 629.8556,-763.765 1091.8944,-870.743 466.4192,-25.712 646.6041,439.531 1336.4315,449.598 555.3429,166.891 1290.652,375.29 1582,930.856 676.013,269.171 761.483,10.766 1239.394,256.308 271.666,503.77 666.833,817.045 1428.606,1044.211 227.988,570.316 1049.679,556.139 1175,1190 393.74,283.927 1019.987,394.407 1212,943.625 520.483,108.067 497.08,473.296 1118.217,1011.013 1059.436,312.849 1606.52,2118.551 877.783,942.987 287.52,368.618 1230.546,1031.657 1160.355,1641.289 -59.105,624.385 -495.68,1021.88 -1031.355,1400.91 -702.304,634.135 -1360.405,736.205 -2283.559,854.551 -668.833,193.572 -1643.77,150.859 -2331.441,153.25 z" />
      <path
         sodipodi:nodetypes="cccccccccccccccccccccccccc"
         inkscape:connector-curvature="0"
         id="path3390"
         d="m 15100,20484 c -126.862,-274.178 -814.425,-519.805 -270.625,-754.875 348.375,-307.47 639.852,-681.261 1045.625,-924.125 389.769,-238.68 745.51,-518.105 1081,-828 364.164,-258.484 721.675,-622.153 1186,-673 420.769,-129.474 865.493,-128.334 1306,-154 424.431,-48.942 954.189,9.895 1334.68,-209.74 526.816,-140.967 842.09,-310.97 1271.348,-483.543 394.804,-170.071 720.761,-363.839 1096.972,-576.717 383.087,-238.31 772.216,-457.285 1157.047,-689.094 423.105,-220.173 580.612,-1023.292 555.546,-768.707 -137.446,272.103 271.504,-520.758 -15.968,-684.699 -146.148,-236.017 -1344.802,-205.561 -1069.048,-686.964 231.605,-216.162 539.44,67.649 805.181,-22.479 331.677,-3.123 530.645,414.964 766.011,574.051 111.352,292.903 70.13,302.918 118.44,588.978 41.133,438.647 -392.625,758.075 -887.795,1415.022 -287.687,255.388 -676.035,374.706 -1066.414,653.892 -398.246,197.175 -806.429,366.706 -1214.875,533.375 -626.84,362.188 -282.304,164.12 -626.84,362.188 C 21193.89,17395.46 20553.21,17534.12 20112,17645 c -447.979,99.873 -941.691,-41.697 -1370.891,139.594 -453.702,56.448 -815.409,359.222 -1261.109,450.406 -416.625,218.995 -575.715,672.217 -870.875,1011.094 -287.651,341.739 -656.021,602.478 -951.25,937.406 -176.009,107.042 -316.888,386.064 -557.875,300.5 z" />
      <path
         sodipodi:nodetypes="ccccccccccccccccccccccc"
         inkscape:connector-curvature="0"
         id="path3392"
         d="m 13970,19664 c -634.959,-711.139 -654.362,-321.665 -129.51,-893.887 426.073,-500.614 1877.382,-1800.577 1426.01,-1334.488 205.059,-662.954 2013.607,-1610.756 1441.25,-1307.891 886.298,-540.72 1891.14,-1192.329 1625.25,-1014.734 575.257,-410.739 1149.641,-819.887 1695,-1268 595.336,-252.694 665.695,-604.457 1432,-1189 545.553,-272.312 920.724,-557.596 1451.75,-1043.125 546.535,-527.53 795.528,-1252.426 1299.25,-1817.875 337.86,-773.1008 532.799,-1374.4606 953.536,-1978.3918 169.488,-693.909 371.027,-943.5806 649.589,-1765.3582 139.308,-1079.8925 397.602,-1142.252 647.875,-1158.25 193.23,532.2099 -3.753,1272.5193 -282,1717.25 -260.041,547.6122 -382.039,1043.002 -681,1699.75 -298.602,523.324 -296.239,808.5897 -779,1606 69.372,-1.6776 -432.137,939.92 -1155,1731 -475.588,504.992 -814.217,1152.314 -1517.608,1348.928 -653.046,260.138 -1030.073,927.315 -1672.017,1218.572 -561.592,436.013 -2303.78,1672.294 -1712.328,1272.516 -541.839,345.224 -1182.995,900.334 -1593.047,1076.984 -242.107,363.42 -872.42,829.446 -1474,1375 -327.623,651.209 -788.721,1252.987 -1351,1710 -85.649,35.975 -185.504,61.181 -275,15 z" />
      <path
         id="path3394"
         d="m 12330,18890 c -13,-9 -13,-10 0,-10 8,0 22,5 30,10 13,9 13,10 0,10 -8,0 -22,-5 -30,-10 z"
         inkscape:connector-curvature="0" />
      <path
         sodipodi:nodetypes="cccccccccccccccccccccccccccccccccc"
         inkscape:connector-curvature="0"
         id="path3396"
         d="m 13084,18782 c -291.61,-295.973 -626.386,-148.088 -665.945,-694.664 252.472,-923.431 947.667,-2099.149 825.945,-1873.336 408.47,-566.229 750.167,-1137.95 1052.875,-1772.125 191.86,-653.977 630.501,-1158.198 998.437,-1705.281 494.709,-431.278 1091.81,-767.353 1638.297,-1132.75 550.769,-231.289 981.397,-695.806 1588.641,-816.938 578.355,-288.147 914.216,-1007.0664 1235.75,-1397.906 170.817,-157.8988 934.536,-1410.3234 844.567,-632.7835 83.435,598.78 -1444.21,2232.2345 -1043.834,1819.4255 -511.318,817.538 -1886.967,1033.452 -1332.311,856.842 -513.102,326.917 -2044.138,1301.869 -1552.922,944.141 -541.721,313.376 -1701.314,1706.159 -1358.014,1184.137 -379.728,536.41 -600.846,1177.04 -905.486,1759.238 -293.859,570.351 -1455.143,1974.326 -921.57,1849.356 441.29,-257.292 800.995,-794.39 673.07,-653.606 512.417,-421.117 733.412,-1120.374 1349.484,-1462.391 408.183,-532.499 1189.948,-547.055 1672.016,-1033.359 489.107,-456.878 1135.244,-690.284 1637.078,-1136.656 858.429,-507.13 1564.101,-1261.186 1404.172,-1105.344 376.645,-525.895 670.479,-2407.4586 556.5,-1787.9141 5.177,-830.8412 19.178,-1669.0954 0.25,-2495.0859 -1.772,-1507.6359 11.59,-3027.1641 14,-4540 -8.679,-514.5381 942.543,-796.1567 650,-129 -323.406,781.1945 -162.223,2622.4118 -159.576,1905.4504 11.352,875.3039 -89.664,1748.4675 -3.637,2622.2918 -19.889,1000.5218 62.663,2009.5894 -50.787,3004.2578 -119.391,608.646 -227.151,1243.82 -648,1715 -392.658,476.198 -915.604,869.054 -1452,1217.75 -513.732,417.716 -2135.888,1556.942 -1639,1124.25 -470.77,448.008 -749.234,550.156 -1618.051,981.49 -543.274,523.014 -710.894,826.747 -1097.629,1347.724 341.253,-532.23 -169.713,555.992 -754.969,886.58 252.41,-247.709 -800.934,1102.344 -937.351,1151.206 z" />
      <path
         sodipodi:nodetypes="cccccccccccccccccccccccccccccccccccccccccc"
         inkscape:connector-curvature="0"
         id="path3398"
         d="m 11990,18066 c -782.817,-155.95 -1355.763,-1425.832 -1149.484,-946.094 -7.4,-591.81 139.574,-1398.797 359.484,-1746.906 771.651,-975.336 948.452,-1671.5 870,-1486 237.6,-579.061 480.013,-1082.654 748.875,-1719 373.977,-512.791 236.244,-804.78 1014.016,-1412.5 670.514,-408.777 430.4,-608.977 535.057,-1098.9713 -33.006,-1035.4333 169.745,-1424.4619 307.784,-2194.5668 497.88,-1636.5739 560.744,-1538.707 752.08,-1810.7238 239.483,-572.3828 722.099,-726.6966 1189.376,-997.5193 475.817,-332.1206 1002.882,-783.0923 933.906,-1424.9219 -71.905,-333.3608 2.447,-1272.1281 483.906,-765.7969 2.893,402.3583 51.963,821.8598 -15,1218 -293.516,990.3299 -541.53,998.2822 -1073,1359 -759.064,561.7492 -931.072,637.6926 -1185,1182 -349.293,378.2226 -288.485,751.7667 -588.717,1475.022 33.395,602.4087 41.437,862.8344 -236.132,1764.3806 -27.93,334.7912 40.799,694.6174 -33.151,1017.5974 -331.826,513.79 -458.911,606.845 -1157,1377 -447.644,421.271 -678.67,1070.809 -923.75,1651 -293.955,533.962 -564.602,1624.407 -434.25,1322 351.511,-538.406 1031.384,-718.391 1335,-1289 304.416,-529.295 526.906,-1113.612 991,-1580 352.671,-457.444 1782.392,-1376.195 1365,-1001 421.609,-458.151 1092.297,-553.569 1360,-1149 317.081,-523.4834 861.644,-813.5714 1338,-1258 644.179,-374.8029 1117.173,-2324.6359 870.641,-1431.6875 150.03,-508.7139 94.83,-843.635 181.359,-1611.3758 69.687,-545.5029 -279.778,-879.1385 -229.016,-771.9523 C 19401.763,4501.5426 18471.951,4144.0749 19175,3882 c 567.583,187.2415 1196.605,597.4634 1153.457,1248.1582 -13.292,477.5412 20.062,965.8892 -18.408,1438.4816 -140.79,400.7554 -415.027,1591.5103 -285.049,1197.3602 -154.497,618.8421 -675.506,982.9469 -1139.75,1366.375 -485.687,380.0813 -956.28,760.5226 -1269.25,1294.625 -329.585,467.74 -750.976,606.762 -1394.631,1021.37 -750.071,460.51 -938.761,662.294 -1207.369,970.286 -284.146,340.015 -543.476,704.77 -693.58,1201.439 -373.579,469.7 -505.837,774.142 -1148.717,1099.624 -323.726,447.514 -841.912,767.205 -942.578,1343.406 -304.231,570.989 -226.383,2475.275 -171.375,1856.25 -44.548,-10.265 54.823,241.659 -67.75,146.625 z" />
      <path
         sodipodi:nodetypes="cccccccccccccccccccc"
         inkscape:connector-curvature="0"
         id="path3400"
         d="m 21496.825,6616.598 c 13.596,-116.2014 99.461,-640.926 129.444,-753.0106 8.788,-158.4441 141.82,-372.2344 143.803,-530.876 92.536,-70.7892 172.531,-414.6651 264.347,-486.8088 l 257.079,-350.4866 c 88.111,-84.148 279.511,-316.9119 395.172,-298.0703 62.385,-98.9605 471.067,-141.2255 606.294,-127.0005 344.638,-8.5101 359.315,51.3664 704.036,47.6548 101.89,40.4347 515.285,202.9353 585.678,290.8613 103.751,110.4875 335.482,451.7244 -15.089,414.7249 -234.98,-71.2706 0,0 -108.207,-11.7505 -18.158,-46.505 -558.769,-209.6726 -617.587,-191.8357 l -724.795,0 -247.822,54.3145 c 0,0 -213.629,107.2063 -372.32,326.1376 -160.698,180.5831 -99.507,132.8985 -160.698,238.8429 -68.185,100.9165 -190.025,464.2152 -274.621,669.3672 l -164.55,518.5496 c -63.588,69.0338 -265.024,1162.2815 -347.845,1169.6234 z" />
    </g>
  </g>
</svg>
