<?xml version="1.0" standalone="no"?>
<!DOCTYPE svg PUBLIC "-//W3C//DTD SVG 20010904//EN"
 "http://www.w3.org/TR/2001/REC-SVG-20010904/DTD/svg10.dtd">
<svg version="1.0" xmlns="http://www.w3.org/2000/svg"
 width="110592.000000pt" height="110592.000000pt" viewBox="0 0 110592.000000 110592.000000"
 preserveAspectRatio="xMidYMid meet">
<metadata>
Created by potrace 1.11, written by Peter Selinger 2001-2013
</metadata>
<g transform="translate(0.000000,110592.000000) scale(3.590649,-3.590649)"
fill="#000000" stroke="none">
<path d="M11925 26813 c-142 -14 -385 -47 -470 -63 -738 -144 -1124 -253
-1518 -429 -87 -39 -161 -71 -164 -71 -3 0 -51 -21 -107 -46 -497 -228 -853
-435 -1127 -655 -64 -52 -174 -139 -245 -194 -231 -181 -566 -458 -772 -639
-321 -281 -985 -950 -1148 -1156 -93 -117 -376 -528 -454 -658 -52 -86 -128
-212 -205 -337 -67 -109 -101 -166 -171 -287 -54 -94 -139 -268 -154 -313 -7
-22 -48 -111 -92 -198 -43 -87 -102 -218 -129 -290 -28 -73 -78 -202 -111
-287 -102 -263 -218 -625 -278 -867 -25 -101 -74 -357 -92 -478 -17 -119 -17
-650 1 -800 31 -266 111 -763 147 -914 86 -364 82 -350 178 -611 160 -437 383
-778 702 -1071 265 -244 382 -328 567 -410 l92 -41 185 -10 c226 -11 269 -8
351 30 36 16 121 44 189 62 237 62 294 82 405 139 137 71 220 132 246 182 10
21 22 40 27 43 4 2 70 18 147 36 252 56 425 112 715 232 329 137 479 222 598
337 65 64 92 111 122 216 15 53 21 61 51 72 34 11 339 107 524 165 224 69 413
145 585 235 151 79 257 155 290 209 30 47 70 84 121 110 58 29 104 81 160 184
50 91 51 91 201 115 53 8 137 31 185 49 48 19 105 37 125 41 20 4 60 22 88 40
28 18 68 36 88 40 21 4 51 20 69 37 18 17 66 48 106 67 65 32 84 48 153 131
104 124 145 182 182 255 16 33 38 67 48 77 11 9 73 37 139 63 66 26 127 52
135 59 8 8 69 46 135 86 145 87 208 134 258 194 20 25 50 53 66 62 38 23 70
81 86 157 21 100 74 227 99 238 11 4 55 15 96 22 61 11 90 24 153 65 43 28 97
59 120 69 23 10 93 44 156 76 62 31 131 60 153 63 31 5 55 23 129 95 50 49 95
89 100 89 15 0 86 103 154 225 36 66 81 135 100 154 34 34 99 58 280 99 38 9
77 24 87 34 10 10 32 21 49 25 16 3 32 10 35 14 3 5 11 9 18 9 19 0 340 323
421 425 40 50 92 128 115 175 23 46 50 96 59 109 9 13 28 54 42 90 l26 66 136
70 c141 73 248 140 313 197 61 53 305 386 358 488 13 25 39 94 57 153 27 91
36 108 56 113 13 4 23 10 23 14 0 10 113 80 129 80 19 0 162 93 285 184 84 63
135 110 186 174 39 48 79 97 90 110 32 38 86 133 124 216 35 76 36 82 36 200
-1 231 -29 405 -106 654 -25 81 -64 205 -86 276 -52 168 -130 329 -214 439
-66 86 -265 283 -394 388 -36 29 -106 90 -157 135 -50 45 -113 94 -140 110
-26 15 -77 46 -113 69 -56 36 -130 79 -335 195 -71 40 -348 177 -410 203 -33
14 -145 52 -250 85 -327 104 -470 138 -764 182 -225 34 -360 60 -481 94 -173
50 -501 101 -751 117 -158 11 -1132 21 -1214 12z"/>
<path d="M15100 20484 c-57 -25 -99 -63 -125 -114 -14 -27 -25 -54 -25 -60 0
-20 -104 -131 -150 -159 -25 -16 -58 -48 -75 -75 -29 -45 -104 -106 -132 -106
-22 0 -14 -27 15 -50 30 -24 112 -95 174 -151 22 -20 69 -58 106 -85 77 -58
169 -148 223 -220 47 -64 275 -292 343 -345 28 -21 80 -62 116 -90 36 -28 81
-62 100 -75 19 -14 62 -45 95 -69 33 -25 83 -60 110 -80 28 -19 75 -52 105
-74 30 -22 69 -48 85 -57 17 -9 46 -29 65 -43 19 -15 69 -47 110 -71 41 -23
93 -54 115 -68 49 -31 209 -168 284 -243 31 -31 72 -67 91 -79 19 -13 67 -53
106 -89 39 -36 93 -83 120 -104 119 -91 156 -125 183 -169 34 -54 89 -89 176
-113 33 -9 79 -22 102 -28 32 -9 75 -41 169 -126 69 -63 140 -121 157 -130 18
-9 54 -30 81 -46 67 -40 157 -57 318 -61 131 -3 141 -5 225 -40 179 -73 220
-79 558 -83 163 -2 259 -7 300 -17 39 -9 118 -14 223 -14 100 0 171 -4 184
-11 11 -6 68 -12 127 -14 85 -2 122 -9 186 -31 67 -23 103 -29 220 -34 99 -4
155 -11 190 -25 28 -10 75 -27 105 -38 62 -21 170 -73 245 -115 28 -16 77 -45
110 -63 109 -63 349 -177 428 -204 69 -24 95 -27 261 -31 101 -2 195 -8 209
-13 14 -5 40 -23 58 -38 123 -106 454 -273 599 -303 151 -32 304 -92 404 -158
108 -73 305 -173 377 -192 69 -18 202 -95 265 -153 56 -52 121 -93 220 -141
29 -14 80 -50 114 -80 34 -30 71 -58 83 -62 12 -3 49 -17 82 -29 33 -13 79
-29 102 -34 39 -11 66 -29 168 -115 23 -18 104 -66 180 -106 77 -39 146 -79
153 -88 7 -9 22 -46 33 -82 30 -96 104 -208 164 -248 27 -18 57 -47 68 -65 10
-18 33 -46 49 -64 l31 -32 1 -268 c1 -303 1 -299 84 -385 l45 -47 -78 -73
c-59 -55 -85 -88 -107 -135 -32 -71 -10 -63 -185 -69 -68 -2 -80 -6 -210 -74
-171 -89 -191 -104 -227 -171 -51 -92 -38 -204 32 -281 55 -60 104 -82 187
-83 67 0 75 3 173 58 l102 57 188 0 c217 0 241 7 308 83 47 53 64 102 64 181
l0 56 73 54 c39 29 79 62 88 72 51 59 79 175 79 326 0 96 -4 122 -30 200 -17
50 -43 109 -59 132 l-30 41 -3 270 c-4 228 -7 276 -22 310 -21 50 -69 101
-118 126 -21 10 -43 29 -49 42 -17 32 -70 87 -101 103 -27 14 -68 79 -68 107
0 7 -10 33 -23 58 -97 184 -96 182 -313 295 -86 45 -180 100 -208 122 -158
127 -178 139 -300 174 -61 17 -91 32 -126 63 -26 23 -91 64 -144 91 -55 27
-123 72 -154 100 -52 46 -200 144 -218 144 -4 0 -24 11 -43 24 -20 14 -79 40
-132 59 -103 38 -233 102 -288 145 -67 51 -256 139 -371 173 -36 11 -108 31
-160 45 -118 31 -331 134 -420 204 -86 68 -151 110 -167 110 -8 0 -39 11 -71
24 -67 28 -157 38 -342 40 l-135 1 -80 42 c-44 23 -114 58 -155 78 -41 20
-100 51 -130 69 -234 140 -437 241 -531 262 -41 9 -110 20 -154 23 -71 5 -86
10 -133 43 -29 21 -70 40 -90 43 -20 4 -58 13 -85 22 -38 12 -112 14 -395 14
-293 -1 -366 2 -463 17 -63 10 -152 18 -199 17 -75 -2 -91 1 -140 26 -145 73
-168 81 -262 90 -92 8 -128 18 -283 79 -44 17 -96 36 -115 42 -19 6 -51 25
-71 43 -47 42 -172 104 -279 137 -47 15 -134 43 -195 62 -60 18 -126 37 -145
41 -21 5 -56 27 -90 59 -61 57 -118 103 -232 190 -54 40 -80 68 -88 90 -10 33
-66 122 -129 206 -18 25 -48 77 -66 115 -22 46 -50 87 -85 120 -29 28 -64 68
-79 90 -127 191 -296 378 -427 471 -35 25 -78 66 -95 90 -16 24 -58 63 -92 86
-68 46 -184 161 -314 311 -47 53 -89 97 -94 97 -5 0 -47 36 -93 80 -47 44
-103 87 -124 95 -24 10 -50 32 -70 60 -18 25 -53 57 -84 74 -44 26 -64 31
-118 31 -36 -1 -81 -8 -100 -16z"/>
<path d="M13970 19664 c-25 -14 -53 -33 -64 -42 -24 -22 -66 -106 -66 -131 0
-15 -18 -29 -70 -55 -39 -19 -85 -46 -103 -61 -17 -14 -60 -49 -95 -76 -34
-28 -65 -61 -68 -73 -5 -21 8 -48 79 -162 51 -82 222 -264 600 -640 401 -399
522 -510 626 -574 151 -93 179 -116 304 -239 141 -139 194 -218 223 -332 9
-35 31 -89 49 -119 18 -30 54 -91 81 -135 71 -120 150 -204 236 -251 45 -25
99 -67 147 -115 56 -56 100 -89 166 -124 50 -26 115 -72 147 -101 35 -34 84
-66 132 -88 42 -19 95 -48 119 -64 119 -83 274 -156 385 -182 70 -17 94 -27
122 -55 51 -50 155 -120 235 -159 64 -31 235 -173 272 -226 7 -10 30 -28 50
-41 21 -12 49 -32 63 -45 31 -28 92 -61 395 -212 132 -66 259 -135 282 -154
23 -18 75 -61 116 -95 78 -64 108 -85 237 -168 43 -27 99 -68 125 -89 25 -21
65 -53 87 -70 23 -17 58 -43 77 -58 42 -32 109 -80 201 -143 36 -25 74 -51 85
-58 11 -8 81 -54 155 -102 100 -66 169 -121 265 -213 159 -152 212 -195 463
-367 31 -21 143 -91 192 -120 126 -73 203 -130 320 -234 170 -153 403 -391
470 -482 73 -98 201 -221 270 -259 30 -16 66 -36 80 -44 14 -8 59 -31 100 -50
41 -20 100 -51 130 -70 204 -124 311 -179 425 -218 111 -37 204 -83 315 -155
145 -94 182 -130 283 -277 16 -23 39 -50 51 -61 13 -11 72 -74 133 -140 60
-66 167 -177 237 -248 69 -70 139 -146 154 -170 28 -44 71 -98 155 -196 27
-31 62 -81 77 -111 36 -72 120 -266 131 -305 10 -33 95 -167 149 -234 19 -24
67 -76 105 -115 80 -83 139 -153 176 -211 56 -88 106 -167 144 -230 22 -36 61
-91 86 -120 45 -53 55 -77 90 -218 9 -37 29 -66 85 -129 40 -44 86 -90 102
-101 47 -33 76 -84 171 -292 73 -160 90 -205 85 -230 -7 -41 41 -240 70 -285
12 -19 37 -66 55 -105 17 -38 39 -83 48 -100 9 -16 39 -75 66 -130 55 -110
108 -187 209 -306 37 -43 70 -91 74 -107 3 -15 11 -45 19 -67 7 -22 23 -74 35
-115 44 -148 83 -256 106 -295 13 -22 33 -88 44 -145 23 -117 29 -138 61 -225
12 -33 36 -115 54 -182 24 -91 42 -137 69 -175 35 -51 60 -136 49 -165 -5 -12
13 -109 39 -208 5 -22 23 -61 39 -86 36 -56 38 -70 43 -244 l3 -140 51 -115
c28 -63 65 -167 81 -230 29 -107 56 -200 87 -295 7 -22 18 -58 24 -81 42 -167
252 -238 392 -131 89 68 120 184 79 299 -18 51 -44 136 -74 243 -8 28 -22 75
-31 106 -9 31 -16 64 -16 74 0 17 -28 88 -76 193 -21 46 -24 67 -24 166 0 137
-32 275 -81 354 -26 42 -32 63 -36 134 -5 75 -36 224 -61 289 -6 14 -22 40
-37 57 -24 29 -39 73 -75 222 -5 19 -18 56 -30 82 -11 25 -27 81 -35 125 -29
156 -44 212 -74 264 -30 54 -83 207 -146 424 -41 139 -54 161 -175 299 -25 28
-57 67 -71 86 -30 40 -148 263 -175 330 -10 25 -31 67 -48 93 -26 43 -30 59
-36 160 -5 87 -11 121 -28 152 -11 22 -51 108 -88 190 -37 83 -71 155 -75 161
-5 6 -15 29 -23 51 -23 66 -102 174 -182 248 -62 58 -77 78 -85 114 -5 23 -23
72 -39 107 -17 35 -30 67 -30 72 0 5 -17 29 -38 53 -62 72 -95 119 -158 222
-136 226 -167 267 -330 437 -87 91 -159 195 -175 252 -6 24 -19 58 -30 78 -10
19 -37 78 -60 130 -22 52 -47 102 -54 110 -7 8 -23 35 -35 60 -13 25 -53 79
-90 120 -76 87 -127 150 -155 197 -11 18 -112 127 -225 242 -239 243 -321 333
-358 388 -98 146 -188 229 -411 375 -88 57 -338 178 -370 178 -15 0 -196 85
-236 111 -134 87 -378 219 -406 219 -12 0 -126 118 -184 189 -124 154 -248
279 -538 544 -131 120 -165 144 -357 258 -69 41 -150 91 -180 112 -30 21 -73
50 -95 65 -108 72 -203 154 -364 311 -58 57 -121 111 -140 122 -20 11 -61 37
-92 57 -30 20 -71 47 -90 59 -192 123 -346 234 -492 355 -45 37 -102 80 -127
94 -128 77 -204 131 -315 225 -105 90 -154 120 -335 210 -328 162 -364 181
-419 218 -31 21 -99 80 -151 131 -52 51 -111 103 -130 115 -19 12 -41 30 -49
39 -7 9 -55 36 -107 62 -60 29 -103 58 -121 80 -97 120 -128 144 -203 158 -81
16 -268 81 -300 104 -19 14 -109 100 -200 191 -200 201 -311 293 -425 357 -49
28 -168 119 -201 155 -40 43 -78 104 -93 150 -6 20 -26 54 -44 75 -65 78 -108
144 -146 226 -22 46 -51 98 -65 117 -14 19 -33 59 -42 90 -15 53 -83 176 -128
233 -12 14 -34 49 -51 78 -16 28 -56 88 -88 131 -32 44 -65 96 -73 115 -8 18
-50 74 -93 122 -50 55 -90 111 -106 147 -15 34 -50 85 -83 120 -31 33 -99 109
-151 168 -51 59 -97 107 -101 107 -4 0 -22 13 -40 30 -18 16 -50 44 -71 61
-22 17 -48 48 -59 68 -10 20 -56 74 -102 121 -71 72 -95 90 -163 119 -111 48
-210 53 -275 15z"/>
<path d="M12330 18890 c-13 -9 -13 -10 0 -10 8 0 22 5 30 10 13 9 13 10 0 10
-8 0 -22 -5 -30 -10z"/>
<path d="M13084 18782 c-22 -16 -72 -65 -112 -109 -39 -44 -95 -95 -124 -115
-46 -31 -61 -36 -115 -36 -132 0 -243 -107 -246 -236 -1 -52 10 -108 44 -226
10 -36 18 -90 17 -121 -1 -36 10 -96 32 -175 40 -144 62 -202 118 -313 50 -96
84 -191 112 -312 10 -46 26 -106 34 -134 8 -27 24 -80 34 -116 17 -60 30 -87
95 -194 10 -16 41 -77 69 -135 28 -58 67 -124 87 -146 20 -23 72 -113 115
-200 44 -88 95 -181 114 -209 19 -27 44 -72 57 -100 12 -27 43 -72 70 -100 26
-27 69 -80 96 -116 36 -49 63 -74 102 -94 32 -17 58 -39 65 -54 6 -14 29 -55
51 -91 62 -101 83 -140 107 -205 12 -33 32 -85 44 -115 12 -30 32 -82 45 -115
37 -96 66 -168 79 -195 69 -141 116 -225 153 -274 60 -80 89 -132 112 -197 11
-30 31 -85 46 -124 14 -38 31 -85 36 -103 12 -40 95 -201 114 -222 23 -26 144
-272 166 -338 11 -34 31 -75 43 -90 12 -15 38 -52 57 -82 20 -30 90 -109 155
-175 192 -193 196 -199 284 -385 56 -120 192 -268 300 -326 30 -17 64 -35 75
-41 11 -6 49 -25 85 -41 98 -44 310 -188 375 -255 49 -50 140 -113 232 -159
137 -70 222 -129 329 -229 51 -48 103 -90 116 -94 13 -4 57 -23 98 -42 138
-65 155 -72 230 -103 217 -89 231 -98 413 -254 84 -74 231 -176 252 -176 6 0
106 -48 221 -106 200 -101 333 -155 419 -169 37 -6 78 -22 235 -90 31 -14 79
-47 110 -77 43 -42 68 -58 112 -70 78 -22 149 -84 194 -169 20 -39 66 -98 112
-145 52 -53 88 -101 110 -146 28 -57 44 -76 110 -126 43 -33 92 -67 109 -76
38 -19 101 -127 113 -194 13 -77 46 -195 63 -227 8 -16 56 -73 105 -126 73
-79 100 -118 156 -225 37 -71 70 -142 73 -157 3 -16 22 -41 44 -59 22 -17 39
-40 39 -50 0 -35 30 -91 74 -138 25 -26 55 -69 69 -96 14 -27 34 -57 45 -67
20 -19 21 -18 27 26 5 33 2 61 -11 99 -22 64 -22 137 -1 199 18 53 17 219 -2
278 -7 22 -8 76 -5 145 4 61 6 125 6 142 -1 39 -31 101 -66 134 -51 47 -109
131 -116 168 -30 140 -44 191 -63 221 -12 20 -33 57 -47 83 -79 150 -107 181
-229 261 -54 36 -67 49 -79 87 -12 34 -36 65 -103 129 -68 64 -96 99 -123 155
-29 58 -51 84 -121 146 -152 132 -162 140 -206 160 -24 10 -53 33 -64 50 -30
46 -86 80 -167 102 -71 19 -162 55 -262 104 -28 13 -61 24 -75 24 -48 0 -160
38 -253 86 -89 46 -205 103 -333 166 -33 16 -90 54 -126 86 -199 171 -324 254
-470 312 -27 11 -72 29 -100 40 -45 18 -97 42 -247 112 -24 11 -46 27 -49 34
-5 14 -109 101 -172 144 -20 14 -52 37 -71 52 -19 14 -84 51 -143 82 -102 52
-159 92 -252 176 -22 20 -50 43 -61 51 -12 8 -61 41 -110 74 -102 69 -226 145
-238 145 -5 0 -42 17 -83 37 -90 45 -140 98 -179 191 -16 37 -38 83 -50 102
-12 19 -33 56 -48 82 -14 26 -99 122 -189 215 -184 190 -201 211 -226 285 -19
56 -122 258 -214 422 -31 55 -59 113 -63 130 -3 17 -14 51 -25 76 -10 25 -34
88 -55 140 -37 97 -84 184 -139 255 -66 86 -126 206 -199 400 -15 39 -35 90
-46 115 -10 25 -30 77 -45 115 -35 96 -83 190 -132 262 -49 72 -123 257 -123
308 0 30 -21 116 -57 235 -43 141 -163 375 -254 493 -11 15 -58 100 -103 190
-45 89 -101 196 -124 237 -91 166 -86 167 63 15 172 -176 207 -220 257 -319
45 -90 76 -130 198 -258 60 -62 93 -107 113 -151 16 -34 38 -73 50 -86 33 -36
163 -119 200 -126 43 -10 54 -20 88 -84 60 -112 85 -149 137 -206 70 -77 118
-152 153 -244 37 -94 44 -107 94 -167 86 -104 183 -182 288 -233 124 -60 310
-234 355 -333 31 -69 76 -114 150 -152 26 -13 73 -45 106 -70 32 -25 61 -46
65 -46 3 0 38 -10 76 -21 39 -11 104 -24 146 -29 96 -11 161 -43 244 -120 47
-44 93 -73 181 -115 309 -147 404 -199 471 -256 121 -104 137 -116 176 -139
21 -13 49 -38 61 -57 13 -19 55 -67 94 -107 62 -64 85 -80 203 -139 133 -65
216 -116 296 -181 29 -23 62 -38 112 -49 78 -18 145 -49 206 -96 22 -17 60
-45 84 -63 89 -67 205 -173 235 -216 55 -78 276 -208 526 -308 162 -65 260
-124 300 -182 93 -133 213 -262 273 -293 21 -11 42 -30 48 -42 11 -25 169
-130 209 -140 25 -6 90 -51 187 -129 37 -30 53 -51 58 -74 6 -35 25 -56 91
-103 39 -28 65 -65 154 -225 19 -35 45 -77 58 -94 21 -29 73 -145 92 -205 5
-16 23 -44 39 -63 17 -19 33 -44 35 -57 11 -53 26 -182 26 -223 0 -32 14 -77
49 -157 46 -105 49 -119 55 -222 5 -72 17 -149 37 -225 17 -63 37 -140 45
-172 31 -131 36 -318 31 -1261 -3 -690 -1 -951 7 -1007 7 -41 11 -145 11 -230
-2 -137 -5 -162 -24 -205 -19 -42 -21 -59 -15 -105 13 -92 14 -235 22 -2370
l7 -2065 32 -87 c22 -61 47 -107 81 -148 27 -34 55 -80 63 -103 9 -30 35 -63
86 -113 86 -84 127 -106 206 -112 75 -6 137 18 193 74 99 98 93 261 -11 360
-18 17 -44 53 -58 81 -14 27 -42 68 -61 92 -33 39 -36 48 -37 109 0 37 -2 630
-3 1317 -2 1192 -4 1255 -22 1365 -18 106 -20 157 -18 630 2 452 4 523 20 580
16 60 17 173 20 1475 2 1144 -1 1441 -12 1575 -16 183 -29 282 -43 308 -23 43
-54 200 -66 332 -14 146 -27 194 -93 340 -14 31 -22 77 -27 150 -11 159 -55
285 -132 370 -69 77 -92 109 -98 135 -4 17 -21 73 -38 125 -28 86 -37 101
-101 170 -38 41 -80 83 -93 93 -12 10 -23 23 -23 29 0 18 -70 159 -97 195 -13
18 -58 56 -101 84 -42 29 -95 67 -117 85 -78 66 -131 104 -175 128 -25 13 -60
43 -79 66 -24 30 -54 52 -100 72 -36 16 -76 41 -89 56 -41 47 -97 125 -125
174 -28 49 -47 66 -137 125 -71 46 -289 158 -338 173 -20 7 -106 46 -190 87
-129 63 -158 82 -183 116 -30 41 -139 145 -212 202 -105 82 -125 97 -162 122
-22 15 -53 38 -69 51 -39 31 -189 100 -246 113 -25 6 -58 23 -75 39 -16 15
-50 39 -75 53 -25 13 -83 45 -129 71 -45 26 -100 54 -122 62 -38 16 -85 65
-128 137 -15 24 -57 60 -119 102 -53 35 -126 91 -162 123 -98 89 -175 134
-485 282 -114 54 -160 82 -193 116 -23 24 -61 54 -84 65 -24 12 -54 30 -68 40
-54 40 -199 89 -293 99 -65 7 -99 16 -117 30 -14 11 -41 31 -61 44 -21 14 -42
39 -48 57 -15 44 -302 325 -395 388 -39 26 -104 64 -143 85 -86 45 -138 98
-153 158 -7 24 -22 59 -33 78 -12 19 -30 51 -39 70 -26 52 -100 155 -150 208
-24 26 -66 88 -93 137 -26 50 -60 106 -74 125 -14 19 -38 52 -52 74 -35 51
-98 92 -163 107 -47 10 -55 16 -70 48 -8 20 -70 92 -136 161 -80 84 -129 143
-147 180 -14 30 -36 69 -48 85 -11 17 -33 50 -47 75 -14 25 -101 122 -192 215
-169 172 -211 231 -230 322 -6 27 -46 92 -140 228 -7 11 -39 58 -70 105 -31
47 -66 98 -79 115 -12 16 -44 58 -70 94 -71 94 -106 138 -159 195 -46 50 -76
99 -138 224 -18 34 -33 62 -34 62 -2 0 -21 -13 -42 -28z"/>
<path d="M11990 18066 c-25 -6 -67 -29 -93 -49 -27 -20 -54 -37 -61 -37 -7 0
-27 -11 -46 -25 -18 -13 -49 -30 -69 -36 -71 -22 -146 -53 -157 -66 -6 -7 -31
-15 -55 -19 -62 -9 -133 -50 -175 -101 -19 -23 -55 -54 -79 -69 -24 -14 -52
-38 -62 -54 -28 -43 -222 -223 -275 -253 -83 -48 -78 -14 -78 -532 0 -489 9
-614 50 -714 31 -77 59 -171 79 -271 46 -227 71 -297 113 -314 38 -16 118
-120 118 -153 0 -13 11 -49 24 -81 13 -31 29 -73 35 -93 13 -41 92 -119 160
-159 95 -56 160 -148 180 -256 5 -27 21 -74 34 -104 14 -30 27 -62 31 -70 3
-8 24 -40 47 -70 22 -30 56 -78 75 -107 19 -29 44 -58 57 -64 46 -24 77 -62
77 -94 0 -43 33 -135 75 -213 20 -35 53 -114 75 -175 60 -175 67 -191 126
-320 39 -85 67 -132 93 -157 69 -64 107 -149 130 -292 7 -43 52 -143 171 -382
140 -282 163 -335 172 -397 16 -107 81 -238 164 -333 37 -41 74 -86 83 -99 9
-13 32 -48 53 -78 20 -30 66 -83 103 -119 36 -36 99 -103 138 -149 64 -75 81
-89 153 -122 90 -42 130 -81 139 -137 6 -33 34 -112 70 -198 12 -28 55 -84
123 -159 15 -16 41 -47 57 -68 16 -22 54 -56 84 -77 31 -21 86 -65 123 -98 37
-33 84 -65 105 -72 23 -7 63 -37 100 -73 49 -48 63 -68 69 -101 3 -23 24 -80
45 -127 22 -48 39 -91 39 -97 0 -5 7 -15 15 -22 11 -9 15 -33 15 -90 0 -43 8
-110 19 -152 26 -100 55 -328 52 -404 -1 -50 2 -65 21 -89 23 -29 23 -32 25
-352 2 -333 8 -392 50 -476 8 -15 18 -53 24 -85 6 -31 19 -66 29 -77 17 -19
18 -54 16 -675 -2 -740 1 -784 59 -920 20 -47 45 -109 57 -139 15 -40 45 -79
123 -161 111 -116 131 -154 122 -224 -9 -64 9 -123 69 -224 53 -87 61 -96 152
-157 53 -36 104 -71 113 -78 9 -7 22 -38 29 -70 20 -96 116 -223 196 -259 39
-17 42 -21 53 -76 11 -58 29 -90 105 -191 38 -51 146 -131 244 -180 24 -13 63
-39 85 -60 23 -21 63 -52 89 -70 26 -17 59 -47 74 -67 31 -40 90 -77 149 -93
32 -9 48 -23 81 -70 41 -57 67 -76 254 -183 25 -15 104 -85 175 -156 72 -71
145 -137 162 -146 18 -9 40 -30 49 -47 21 -41 151 -172 192 -193 17 -9 39 -30
47 -46 8 -16 28 -44 44 -62 22 -26 32 -55 49 -140 14 -68 32 -126 50 -160 17
-29 35 -69 41 -89 8 -24 12 -201 14 -550 2 -506 2 -515 24 -554 49 -91 128
-138 229 -138 103 1 188 59 229 156 13 31 15 115 15 580 l0 544 -30 94 c-17
52 -42 115 -55 141 -19 34 -30 79 -40 158 -18 135 -32 171 -94 235 -27 28 -55
71 -65 97 -22 60 -84 122 -144 144 -62 23 -80 40 -107 99 -28 65 -76 112 -144
142 -34 15 -71 43 -99 74 -85 95 -229 214 -325 269 -95 53 -97 55 -139 133
-23 43 -58 92 -78 108 -33 28 -113 59 -152 59 -20 0 -138 81 -208 143 -25 22
-61 47 -80 56 -81 38 -152 85 -160 105 -4 12 -13 43 -19 69 -24 103 -145 267
-208 283 -16 4 -24 16 -29 43 -11 59 -42 109 -112 183 -62 64 -89 87 -195 157
-32 21 -37 29 -32 51 3 15 1 44 -4 66 -6 21 -17 68 -26 104 -20 80 -100 204
-198 306 -68 70 -107 139 -127 224 -4 19 -7 235 -7 480 2 490 -3 556 -54 672
-16 36 -29 73 -29 81 0 17 -25 101 -50 172 -24 64 -51 232 -43 267 7 34 -12
142 -38 228 -20 62 -21 93 -23 730 l-3 666 -29 53 c-16 30 -42 63 -57 75 -29
21 -46 53 -74 141 -22 69 -41 94 -166 219 -84 83 -123 115 -171 136 -33 15
-70 38 -81 50 -11 12 -45 40 -76 61 -52 35 -146 139 -177 195 -7 13 -22 62
-34 109 -11 47 -30 99 -42 115 -11 16 -40 55 -63 88 -23 32 -53 66 -67 75 -14
10 -41 33 -61 53 -20 19 -60 46 -88 60 -60 27 -248 212 -311 305 -58 86 -85
122 -120 159 -45 46 -62 84 -71 150 -13 92 -39 152 -271 612 -35 70 -70 156
-78 190 -40 180 -97 314 -171 398 -17 19 -41 50 -54 67 -12 18 -42 45 -67 59
-54 32 -56 36 -82 144 -16 70 -19 113 -17 245 2 103 -2 181 -11 220 -35 165
-48 216 -71 285 -14 41 -36 94 -49 117 -33 57 -30 61 15 22 22 -19 61 -50 87
-69 93 -69 113 -92 158 -178 36 -69 61 -102 123 -160 112 -104 250 -220 281
-236 15 -8 51 -30 80 -50 29 -19 70 -38 90 -42 63 -10 69 -14 95 -53 15 -22
60 -65 102 -96 41 -31 92 -77 113 -102 20 -25 54 -64 75 -88 20 -23 37 -48 37
-56 1 -33 45 -107 94 -159 29 -30 69 -81 89 -112 21 -33 59 -73 87 -94 57 -41
65 -62 57 -143 -5 -42 0 -81 17 -151 31 -123 38 -141 76 -184 19 -21 38 -59
47 -93 15 -59 35 -90 118 -191 28 -32 63 -76 78 -96 15 -20 52 -51 82 -70 48
-31 135 -125 135 -146 0 -5 36 -53 79 -108 53 -66 82 -112 86 -136 5 -26 16
-41 40 -56 36 -22 123 -134 170 -219 25 -44 42 -60 90 -86 33 -18 114 -61 180
-97 104 -56 227 -103 317 -122 17 -4 71 -53 155 -142 70 -75 158 -167 195
-205 62 -65 130 -108 171 -109 11 0 50 -9 87 -21 60 -18 78 -30 152 -101 231
-222 337 -309 428 -352 30 -14 78 -44 105 -67 65 -54 96 -67 195 -78 91 -10
104 -18 157 -96 37 -54 91 -128 165 -223 25 -33 51 -70 58 -83 7 -13 29 -42
50 -64 24 -25 43 -57 50 -85 6 -25 24 -65 38 -90 15 -25 32 -57 38 -71 16 -36
77 -95 122 -118 20 -11 79 -65 131 -120 80 -85 106 -106 178 -142 74 -37 95
-54 159 -128 150 -175 242 -256 385 -341 68 -40 111 -77 287 -248 81 -79 147
-133 182 -151 30 -16 78 -40 106 -54 42 -22 55 -35 77 -81 15 -30 27 -60 27
-66 0 -15 158 -172 196 -194 40 -24 104 -146 104 -199 0 -21 11 -66 24 -100
13 -34 29 -77 35 -96 6 -19 22 -49 36 -67 23 -30 25 -41 25 -134 0 -155 39
-290 100 -345 18 -17 20 -30 21 -169 0 -189 15 -286 54 -352 70 -117 65 -49
65 -851 l0 -724 -32 -17 c-78 -41 -176 -164 -265 -332 -17 -33 -40 -55 -85
-83 -56 -34 -68 -37 -133 -37 -114 0 -164 -23 -246 -116 -14 -16 -44 -41 -65
-56 -97 -65 -128 -209 -69 -317 50 -91 136 -138 240 -129 54 5 160 47 211 84
17 13 80 39 140 59 60 21 123 48 141 61 17 13 74 44 128 70 115 54 142 86 179
208 27 88 54 126 89 126 35 1 99 35 133 71 41 44 111 160 124 207 8 25 10 308
8 902 l-3 865 -32 72 c-18 40 -43 92 -56 115 -24 41 -25 53 -30 268 -4 140
-11 240 -18 264 -7 21 -32 60 -56 86 l-43 48 0 125 c0 143 -12 187 -65 253
-46 56 -61 93 -73 179 -7 52 -23 94 -59 165 -109 209 -120 225 -183 262 -58
35 -111 90 -132 138 -11 25 -33 63 -49 85 -104 142 -85 127 -249 204 -74 34
-101 56 -206 158 -157 153 -247 230 -298 254 -60 28 -170 114 -213 165 -158
189 -232 257 -340 309 -46 23 -151 119 -189 173 -7 11 -36 34 -64 51 -47 29
-50 33 -75 116 -22 72 -34 94 -79 143 -30 31 -73 85 -97 119 -24 34 -71 97
-103 140 -101 133 -111 147 -130 178 -10 17 -53 64 -95 105 -56 56 -88 79
-121 89 -25 7 -69 22 -98 32 -30 10 -70 19 -89 19 -23 0 -46 9 -66 26 -17 14
-60 39 -95 56 -71 34 -148 97 -322 263 -63 60 -136 127 -161 148 -44 35 -133
73 -238 100 -39 10 -60 28 -175 155 -152 167 -261 265 -320 286 -23 8 -84 26
-136 42 -56 16 -156 58 -245 103 -166 84 -162 80 -195 212 -7 26 -28 67 -48
92 -101 126 -161 205 -176 235 -25 49 -151 183 -201 214 -24 15 -49 36 -55 47
-5 11 -28 41 -50 66 -22 25 -40 56 -40 68 -1 34 -38 108 -71 143 l-31 32 -4
147 c-4 192 -13 219 -107 316 -39 42 -87 86 -105 98 -18 13 -39 36 -47 52 -9
16 -36 51 -60 79 -25 28 -45 58 -45 68 -1 59 -76 156 -267 346 -65 64 -93 100
-98 123 -9 46 -58 108 -108 138 -27 15 -89 35 -153 48 -125 26 -123 25 -211
98 -127 104 -175 154 -199 204 -44 93 -122 183 -229 265 -97 75 -152 129 -165
163 -21 53 -118 193 -159 229 -21 18 -52 41 -69 50 -24 12 -32 25 -37 55 -11
65 -34 118 -70 161 -19 22 -35 50 -35 63 0 57 -106 369 -169 499 -21 42 -43
92 -50 110 -8 25 -11 246 -11 832 0 636 -2 798 -12 797 -7 0 -33 -6 -58 -13z"/>
<path d="M21744 5930 c3 -19 13 -77 21 -128 9 -52 25 -117 37 -145 19 -47 21
-73 22 -298 l1 -246 37 -34 c20 -19 50 -64 67 -99 26 -53 54 -86 155 -182 102
-97 139 -125 207 -158 46 -22 94 -40 108 -40 37 -1 79 -39 110 -101 25 -51 47
-72 149 -141 26 -17 51 -48 72 -87 34 -63 74 -100 138 -129 33 -15 100 -17
583 -20 l546 -4 89 38 c75 32 100 50 164 114 64 64 82 89 113 162 29 68 37 99
37 147 0 270 -366 342 -476 94 l-24 -53 -391 0 -392 0 -76 72 c-52 49 -81 86
-93 117 -21 55 -69 105 -128 136 -25 13 -53 36 -63 52 -41 62 -127 103 -218
103 -43 0 -51 4 -111 63 -36 34 -76 82 -88 107 -12 25 -37 62 -54 82 -17 21
-44 54 -61 74 -16 20 -46 48 -67 61 -31 21 -37 30 -32 49 13 52 -4 87 -61 129
-54 39 -143 132 -196 205 -15 20 -42 43 -60 50 -19 7 -42 20 -52 29 -18 15
-18 14 -13 -19z"/>
</g>
</svg>
