<?xml version="1.0" standalone="no"?>
<!DOCTYPE svg PUBLIC "-//W3C//DTD SVG 20010904//EN"
 "http://www.w3.org/TR/2001/REC-SVG-20010904/DTD/svg10.dtd">
<svg version="1.0" xmlns="http://www.w3.org/2000/svg"
 width="110592.000000pt" height="110592.000000pt" viewBox="0 0 110592.000000 110592.000000"
 preserveAspectRatio="xMidYMid meet">
<metadata>
Created by potrace 1.11, written by Peter Selinger 2001-2013
</metadata>
<g transform="translate(0.000000,110592.000000) scale(3.590649,-3.590649)"
fill="#000000" stroke="none">
<path d="M21187 24293 c-4 -3 -215 -10 -469 -14 -697 -12 -1030 -34 -1542
-105 -98 -13 -235 -31 -305 -39 -69 -8 -157 -21 -196 -29 -38 -8 -115 -20
-170 -25 -55 -6 -122 -15 -150 -21 -27 -5 -151 -21 -275 -35 -124 -15 -247
-33 -274 -41 -27 -8 -86 -17 -133 -21 -46 -3 -86 -10 -89 -15 -3 -4 -20 -8
-38 -8 -18 0 -59 -9 -92 -20 -90 -32 -454 -135 -592 -169 -67 -16 -184 -50
-260 -75 -196 -63 -558 -173 -617 -187 -27 -6 -58 -16 -69 -21 -10 -5 -102
-38 -205 -73 -103 -35 -243 -89 -312 -120 -68 -31 -176 -78 -239 -105 -63 -26
-166 -73 -229 -104 l-115 -56 -29 35 c-33 40 -57 54 -223 125 -66 28 -180 83
-254 123 -269 143 -357 179 -753 306 -213 69 -327 89 -672 121 -483 43 -541
45 -880 21 -352 -25 -409 -33 -664 -96 -368 -91 -761 -219 -934 -304 -124 -61
-214 -126 -330 -239 -79 -77 -93 -103 -112 -207 -30 -160 -5 -253 99 -363 104
-110 193 -167 333 -212 103 -33 80 -31 553 -59 186 -11 215 -20 449 -136 200
-100 251 -137 406 -297 96 -99 133 -146 187 -237 37 -63 65 -118 62 -123 -3
-4 -60 -47 -127 -95 -67 -47 -200 -147 -295 -220 -258 -199 -453 -344 -481
-357 -14 -6 -37 -23 -51 -37 -14 -15 -124 -114 -245 -221 -122 -108 -311 -280
-420 -383 -110 -103 -216 -199 -236 -214 -20 -15 -58 -52 -85 -84 -93 -108
-420 -453 -649 -687 -184 -187 -266 -280 -402 -455 -94 -121 -221 -283 -282
-360 -62 -77 -163 -216 -226 -310 -62 -93 -166 -246 -230 -340 -64 -93 -155
-235 -204 -315 -203 -334 -389 -654 -459 -790 -42 -80 -84 -158 -95 -174 -11
-16 -89 -162 -172 -325 -84 -163 -168 -323 -189 -356 -50 -82 -47 -78 -101
-189 -26 -55 -82 -159 -124 -230 -132 -223 -261 -483 -394 -796 -25 -58 -80
-181 -121 -275 -104 -232 -182 -428 -331 -840 -116 -319 -229 -605 -431 -1086
-41 -97 -74 -181 -74 -185 -1 -5 -9 -27 -20 -49 -11 -22 -20 -44 -20 -50 -1
-26 -192 -513 -308 -785 -238 -558 -292 -685 -317 -740 -13 -30 -40 -93 -59
-140 -19 -47 -57 -136 -86 -199 -85 -188 -275 -790 -320 -1016 -17 -88 -51
-248 -75 -355 -84 -378 -99 -482 -115 -777 -16 -300 -29 -482 -41 -543 -39
-206 -170 -430 -369 -632 -132 -133 -212 -192 -397 -291 -150 -80 -471 -304
-680 -473 -56 -45 -130 -102 -164 -125 -34 -23 -96 -72 -138 -108 -42 -37
-123 -105 -181 -151 -196 -158 -340 -319 -516 -580 -50 -74 -115 -178 -145
-230 -29 -52 -79 -135 -111 -183 -73 -111 -196 -355 -238 -472 -18 -49 -46
-117 -63 -150 -34 -68 -80 -240 -97 -365 -7 -47 -21 -125 -32 -174 -22 -98
-19 -124 26 -193 22 -33 78 -63 120 -63 31 0 72 34 95 78 51 100 433 480 557
555 76 46 168 109 307 210 89 65 426 256 667 378 185 94 205 102 390 150 107
28 281 75 385 104 320 90 952 207 1213 225 205 14 1428 15 1576 1 160 -15 248
-34 736 -156 481 -121 777 -215 1070 -340 241 -103 443 -218 628 -357 42 -32
43 -32 99 -20 81 17 90 28 75 98 -10 50 -23 81 -61 151 -5 10 -39 79 -74 153
-100 211 -182 339 -319 498 -128 149 -364 379 -531 518 -231 193 -760 518
-982 603 -60 24 -126 51 -145 62 -19 11 -196 73 -394 139 -607 203 -715 261
-732 397 -4 31 -4 90 -1 132 4 64 11 88 45 151 23 41 66 111 97 155 31 44 80
116 109 160 66 99 353 635 431 805 133 288 204 413 395 692 63 92 130 192 149
224 36 60 393 542 541 729 48 61 113 148 145 194 87 125 400 452 727 759 208
197 255 236 300 255 20 9 66 38 102 65 38 30 90 58 130 72 47 15 74 32 100 61
20 21 36 43 36 49 0 5 24 28 53 50 160 125 206 165 299 263 56 60 136 136 177
169 42 34 82 69 89 79 7 10 32 32 55 48 23 16 67 53 98 82 31 30 80 72 109 94
29 22 65 53 79 70 27 30 56 59 157 156 33 31 73 72 89 90 17 19 63 57 103 86
40 28 89 72 108 97 19 25 40 46 46 46 6 0 74 62 152 139 82 80 160 148 186
161 25 12 60 33 77 47 18 13 52 31 75 39 67 23 98 37 167 72 36 19 94 43 130
54 35 11 102 35 147 53 46 19 131 43 191 55 59 12 135 30 168 40 33 10 82 21
108 24 26 3 67 17 91 31 23 14 55 25 71 25 40 0 282 86 335 119 43 27 113 65
270 148 41 22 118 63 170 91 52 28 113 55 135 60 121 29 355 93 390 108 56 23
194 44 292 44 93 0 131 7 288 56 61 19 134 39 163 45 29 6 109 37 177 70 116
55 184 79 330 115 33 8 92 24 130 34 39 10 88 21 111 24 22 3 69 18 105 34 35
16 111 41 169 56 58 15 132 34 165 43 33 9 89 28 125 44 36 15 99 37 140 49
96 28 234 76 285 100 22 10 51 22 65 25 14 4 84 36 156 71 73 35 135 64 139
64 25 0 562 277 600 310 22 19 163 98 270 153 253 128 396 197 421 203 42 10
165 73 192 97 12 11 37 30 56 41 18 12 60 39 92 60 33 22 109 73 169 113 61
40 133 89 160 108 28 19 84 49 125 66 276 117 512 244 595 320 26 24 478 259
610 317 28 12 77 38 110 57 33 19 84 44 114 56 55 20 93 37 233 103 42 20 81
36 87 36 5 0 30 16 55 35 26 19 49 35 53 35 9 0 219 117 278 155 46 29 156 85
169 85 3 0 90 47 194 105 158 88 193 111 219 148 26 38 50 53 184 119 144 71
304 130 589 218 58 17 116 36 130 42 14 5 50 14 80 19 30 4 114 24 185 44 155
42 402 95 500 106 39 4 156 15 260 23 258 22 350 33 415 51 90 25 174 35 385
45 110 5 277 14 370 20 165 12 692 14 985 6 212 -7 886 -9 896 -4 15 8 281
-20 399 -41 153 -28 444 -69 583 -81 161 -15 487 -57 580 -76 42 -9 132 -31
198 -50 67 -18 233 -54 370 -78 404 -73 466 -85 667 -127 241 -50 315 -56 492
-35 165 20 238 37 323 78 89 42 130 87 189 209 27 58 58 113 67 122 24 24 25
155 2 216 -24 65 -62 111 -91 111 -34 0 -50 30 -70 130 -21 104 -46 171 -85
230 -39 60 -229 271 -305 339 -170 154 -1038 1003 -1090 1066 l-60 73 -1 214
c-2 243 -13 345 -55 506 -37 142 -117 349 -165 427 -21 33 -65 107 -100 165
-120 202 -173 276 -312 435 -158 182 -465 487 -562 560 -36 27 -92 72 -125
100 -81 70 -125 98 -295 190 -80 43 -203 113 -275 155 -133 79 -518 268 -590
290 -22 7 -78 32 -125 55 -196 100 -679 292 -960 383 -221 71 -262 83 -435
128 -232 60 -298 78 -311 87 -7 4 -92 29 -190 57 -99 27 -206 59 -239 71 -33
11 -114 33 -180 49 -66 15 -165 39 -220 53 -245 61 -570 123 -745 141 -80 9
-219 24 -310 35 -193 22 -417 45 -653 66 -93 8 -177 20 -187 25 -22 12 -34 13
-43 3z m553 -3808 c34 -12 97 -15 302 -15 221 0 259 -2 264 -15 5 -11 23 -15
73 -15 42 -1 73 -6 85 -15 11 -8 38 -15 60 -15 23 0 50 -7 60 -15 11 -8 41
-15 67 -15 25 0 63 -7 82 -15 20 -8 51 -15 69 -15 18 0 42 -7 52 -15 12 -9 42
-15 77 -15 31 0 76 -7 99 -15 23 -8 66 -15 95 -15 35 0 57 -5 65 -15 8 -9 30
-15 58 -15 31 0 60 -8 90 -26 25 -15 59 -30 76 -35 29 -7 49 -13 131 -43 16
-6 46 -24 65 -41 19 -17 53 -36 75 -44 74 -24 120 -50 130 -73 6 -13 20 -24
32 -26 12 -2 27 -10 33 -18 7 -8 20 -14 30 -14 10 0 23 -7 30 -15 7 -8 21 -15
32 -15 10 0 21 -7 24 -15 4 -8 16 -15 29 -15 12 0 28 -7 36 -16 17 -21 123
-74 149 -74 11 0 20 -7 20 -15 0 -10 10 -15 26 -15 20 0 44 -17 86 -60 33 -33
66 -60 73 -60 14 0 43 -17 135 -77 27 -18 54 -33 59 -33 5 0 33 -16 62 -37 30
-20 84 -51 121 -69 40 -20 78 -48 97 -71 17 -21 46 -46 65 -57 18 -10 43 -30
53 -45 23 -30 133 -101 157 -101 9 0 16 -6 16 -13 0 -7 15 -21 33 -32 17 -10
70 -54 116 -97 45 -43 105 -90 132 -104 27 -13 49 -28 49 -32 0 -5 23 -19 50
-32 28 -13 50 -29 50 -35 0 -7 23 -34 50 -61 28 -27 59 -67 70 -89 11 -22 38
-60 60 -84 22 -25 40 -50 40 -58 0 -7 10 -12 23 -12 16 1 18 2 5 6 -10 2 -18
11 -18 19 0 8 -4 14 -10 14 -5 0 -10 4 -10 10 0 5 17 0 38 -12 41 -24 86 -67
78 -75 -3 -3 -211 -9 -463 -14 -252 -5 -487 -13 -523 -18 -36 -5 -135 -12
-220 -16 -184 -7 -366 -22 -435 -35 -27 -6 -135 -17 -240 -25 -104 -9 -226
-20 -270 -26 -126 -15 -384 -29 -730 -38 -309 -8 -323 -9 -400 -35 -124 -41
-135 -44 -215 -60 -115 -23 -214 -36 -266 -36 -26 0 -120 -18 -208 -39 -89
-22 -179 -43 -201 -46 -78 -13 -165 -44 -237 -86 -215 -123 -316 -176 -473
-250 -201 -94 -234 -110 -340 -169 -60 -33 -171 -90 -245 -127 -74 -37 -160
-83 -190 -103 -72 -48 -215 -125 -261 -139 -20 -7 -45 -21 -54 -32 -21 -22
-210 -115 -306 -150 -35 -13 -98 -42 -139 -64 -41 -23 -222 -115 -403 -204
-218 -109 -344 -177 -377 -205 -75 -64 -363 -218 -535 -287 -44 -17 -98 -44
-120 -59 -22 -15 -86 -59 -143 -96 -57 -38 -113 -76 -125 -83 -12 -8 -74 -48
-137 -90 -63 -41 -133 -86 -155 -101 -22 -15 -67 -37 -100 -49 -33 -12 -115
-49 -182 -82 -67 -32 -125 -59 -129 -59 -4 0 -34 -17 -68 -38 -34 -21 -104
-60 -156 -85 -52 -26 -114 -59 -137 -74 -158 -105 -557 -313 -598 -313 -8 0
-52 -15 -97 -34 -46 -19 -103 -39 -128 -46 -25 -7 -101 -36 -170 -65 -69 -29
-136 -56 -150 -60 -14 -4 -41 -18 -60 -31 -41 -27 -175 -78 -265 -100 -73 -18
-323 -99 -385 -124 -25 -10 -97 -30 -160 -45 -143 -32 -306 -79 -386 -110 -34
-13 -99 -35 -145 -48 -46 -14 -172 -52 -279 -85 -134 -42 -220 -63 -275 -68
-92 -7 -306 -49 -335 -64 -10 -6 -119 -37 -242 -69 -177 -47 -238 -67 -295
-100 -40 -23 -75 -41 -78 -41 -4 0 -37 -17 -73 -39 -163 -94 -269 -142 -400
-181 -75 -23 -207 -66 -292 -95 -280 -96 -334 -113 -403 -129 -37 -8 -107 -31
-155 -51 -48 -19 -125 -46 -172 -60 -47 -14 -97 -34 -111 -44 -33 -24 -98 -53
-182 -81 -37 -12 -80 -32 -95 -45 -15 -12 -54 -37 -87 -56 -85 -47 -124 -79
-255 -210 -64 -64 -135 -126 -158 -139 -22 -13 -55 -42 -72 -66 -17 -24 -66
-68 -110 -99 -44 -31 -89 -69 -101 -86 -12 -17 -80 -77 -153 -135 -72 -57
-135 -108 -139 -113 -36 -41 -101 -103 -212 -200 -135 -119 -214 -197 -350
-345 -44 -48 -106 -105 -137 -127 -32 -22 -58 -43 -58 -48 0 -4 -32 -31 -70
-60 -39 -28 -77 -63 -86 -76 -9 -13 -26 -27 -37 -31 -30 -9 -137 -73 -167
-100 -14 -13 -51 -35 -82 -49 -32 -15 -70 -39 -85 -54 -16 -15 -48 -33 -73
-40 -30 -9 -60 -29 -92 -61 l-46 -48 -10 26 c-13 35 -22 550 -11 622 21 129
41 279 44 325 2 28 12 106 24 175 11 69 22 175 26 237 3 61 10 126 15 143 5
17 14 86 20 153 6 67 20 169 30 227 10 58 24 141 30 185 7 44 18 92 26 106 7
15 18 49 24 75 14 62 76 194 123 263 20 29 37 61 37 71 0 9 9 28 19 41 10 14
25 40 33 59 8 19 38 60 66 91 29 32 66 88 85 130 19 41 48 87 66 103 17 17 31
36 31 43 0 8 29 45 65 83 36 38 65 73 65 78 0 5 36 49 81 98 55 60 91 112 114
160 18 39 44 80 57 90 23 18 55 56 147 179 36 48 67 77 141 133 17 13 67 65
111 115 45 51 111 124 148 162 36 39 87 98 113 130 61 79 247 249 343 314 55
38 116 87 155 125 14 13 43 31 64 40 62 26 260 181 378 297 86 85 117 109 153
119 24 7 51 22 59 34 7 12 33 31 57 41 54 24 33 9 219 162 335 276 418 337
518 384 45 21 104 53 130 71 26 18 88 53 137 79 91 46 229 144 275 194 14 15
48 37 75 50 28 12 80 44 116 71 36 27 88 65 114 84 27 19 71 53 99 75 56 44
186 105 223 105 13 0 23 5 23 11 0 5 21 20 47 31 26 11 68 33 93 48 25 16 83
40 130 55 69 22 166 63 290 125 9 4 31 11 49 15 19 4 35 15 38 25 3 10 36 32
76 51 39 18 130 69 202 112 71 44 211 122 310 175 99 52 196 105 215 117 19
12 53 28 75 35 22 7 51 21 64 31 13 11 32 19 41 19 10 0 23 7 30 15 7 8 19 15
27 15 18 0 414 186 728 342 121 60 252 122 290 138 102 41 367 166 433 204 31
18 111 61 177 95 66 34 129 71 141 82 11 10 32 19 46 19 14 0 108 31 209 69
101 38 211 77 244 86 33 10 84 30 112 47 72 40 283 116 363 129 36 6 106 22
155 35 50 14 121 31 158 40 38 8 94 23 125 33 114 37 198 61 217 61 11 0 47
12 80 26 157 67 193 78 325 94 56 7 157 26 330 61 25 5 74 12 110 15 36 3 84
12 107 20 69 22 161 36 303 44 154 9 598 55 662 69 24 5 79 12 123 16 89 7
340 49 425 70 69 18 254 41 435 55 276 21 391 32 430 40 67 13 170 11 215 -5z"/>
<path d="M21095 19489 c-22 -22 -47 -45 -57 -50 -9 -5 -66 -10 -126 -13 -98
-3 -117 -7 -174 -34 -34 -17 -126 -60 -203 -97 -77 -37 -158 -74 -179 -81 -22
-8 -54 -26 -72 -39 -21 -16 -61 -31 -111 -41 -43 -8 -108 -28 -144 -45 -36
-16 -76 -29 -88 -29 -12 0 -43 -9 -69 -19 -197 -80 -265 -101 -333 -101 -25 0
-81 -11 -125 -24 -92 -29 -426 -145 -499 -174 -27 -11 -74 -30 -103 -41 -29
-12 -60 -26 -70 -31 -60 -36 -326 -110 -392 -110 -75 0 -251 -30 -271 -47 -8
-7 -30 -13 -47 -13 -19 0 -32 -5 -32 -12 0 -12 -196 -78 -228 -78 -7 0 -30 -9
-52 -20 -80 -41 -226 -70 -354 -70 -138 0 -191 -18 -229 -76 -12 -19 -27 -34
-34 -34 -7 0 -28 -16 -47 -36 -27 -28 -43 -61 -76 -165 -47 -150 -93 -254
-143 -329 -36 -54 -91 -103 -335 -297 -78 -63 -204 -172 -280 -242 -170 -159
-239 -218 -276 -238 -15 -8 -54 -39 -86 -70 -95 -90 -286 -238 -440 -340 -255
-170 -566 -415 -664 -523 -33 -37 -36 -45 -36 -101 0 -105 34 -139 195 -196
79 -28 82 -28 309 -27 126 1 254 7 285 13 154 30 274 51 351 61 226 30 883
251 1161 390 44 23 194 86 332 141 139 55 331 137 427 184 96 46 245 117 331
158 85 40 200 102 255 137 54 35 142 88 194 120 108 64 472 305 569 378 35 26
77 55 93 65 89 54 385 286 444 347 38 39 110 105 159 145 50 41 239 221 420
401 182 179 366 358 410 397 44 39 90 87 104 106 13 20 39 54 59 75 19 22 70
93 114 160 45 69 100 139 128 164 35 30 53 56 62 85 6 23 26 62 44 87 41 59
74 124 74 149 0 11 -10 31 -22 44 -13 14 -31 36 -41 51 -10 14 -24 26 -30 26
-7 0 -31 -18 -52 -41z"/>
<path d="M24265 17633 c-115 -7 -302 -17 -415 -22 -139 -7 -231 -16 -285 -29
-135 -33 -185 -41 -325 -52 -341 -26 -414 -34 -550 -60 -80 -16 -208 -45 -285
-65 -77 -21 -171 -43 -210 -51 -66 -14 -211 -58 -475 -144 -63 -21 -181 -70
-262 -110 -137 -67 -152 -72 -203 -68 l-55 3 98 -98 c88 -89 286 -239 417
-317 53 -32 335 -241 408 -304 97 -82 241 -283 301 -418 35 -78 51 -149 77
-323 11 -82 25 -172 30 -200 15 -90 23 -620 10 -737 -24 -221 -124 -558 -298
-1003 -105 -269 -109 -299 -49 -419 30 -61 48 -84 91 -116 29 -22 56 -49 60
-60 10 -32 54 -60 94 -60 20 0 78 14 129 31 74 25 115 46 200 108 59 42 157
112 217 156 204 146 407 323 494 429 125 152 356 517 461 725 65 130 119 257
155 362 31 91 120 305 151 361 7 14 14 33 14 41 0 8 27 91 60 184 67 187 139
460 165 628 9 61 20 124 25 140 5 17 21 89 35 160 15 72 57 252 95 400 98 389
147 620 169 795 5 36 12 82 16 103 5 28 4 37 -6 38 -88 6 -388 1 -554 -8z"/>
</g>
</svg>
