<?xml version="1.0" standalone="no"?>
<!DOCTYPE svg PUBLIC "-//W3C//DTD SVG 20010904//EN"
 "http://www.w3.org/TR/2001/REC-SVG-20010904/DTD/svg10.dtd">
<svg version="1.0" xmlns="http://www.w3.org/2000/svg"
 width="110592.000000pt" height="110592.000000pt" viewBox="0 0 110592.000000 110592.000000"
 preserveAspectRatio="xMidYMid meet">
<metadata>
Created by potrace 1.11, written by Peter Selinger 2001-2013
</metadata>
<g transform="translate(0.000000,110592.000000) scale(22.251911,-27.039609)"
fill="#000000" stroke="none">
<path d="M1245 3689 c-152 -60 -352 -163 -427 -219 -127 -96 -178 -194 -185
-355 -6 -135 19 -347 47 -409 26 -54 28 -56 225 -184 83 -54 159 -107 169
-118 11 -10 82 -58 159 -105 l140 -87 23 32 c13 17 36 49 51 71 15 22 42 59
61 83 19 24 33 45 31 46 -2 2 -24 14 -49 26 -98 49 -310 211 -310 236 0 6 30
19 67 28 217 55 335 163 378 348 19 82 49 328 41 336 -11 11 -110 -45 -222
-124 -139 -99 -274 -184 -292 -184 -28 0 -5 65 111 311 64 134 117 252 119
263 2 10 -6 24 -17 31 -17 12 -33 9 -120 -26z"/>
<path d="M3617 3719 c-30 -17 -13 -73 78 -262 106 -221 147 -316 143 -328 -4
-12 -133 68 -295 184 -67 48 -127 87 -134 87 -6 0 -27 9 -45 21 l-34 21 -10
-27 c-11 -30 9 -231 35 -343 43 -185 161 -293 379 -348 54 -13 65 -19 54 -29
-103 -92 -217 -174 -307 -220 -44 -22 -51 -29 -39 -36 9 -5 37 -40 61 -77 25
-37 59 -84 75 -105 17 -21 32 -43 35 -50 4 -12 277 151 310 185 10 10 80 60
155 110 197 131 211 143 243 212 22 50 30 86 40 198 28 313 -13 442 -179 568
-104 79 -466 251 -526 250 -11 0 -29 -5 -39 -11z"/>
<path d="M2705 2763 c-30 -7 -55 -44 -55 -79 l0 -32 -77 -4 c-43 -2 -115 -2
-160 0 l-83 5 0 36 c-1 53 -19 71 -73 71 -25 0 -57 -4 -71 -10 -22 -8 -25 -16
-28 -66 l-3 -57 -95 -24 c-200 -52 -363 -136 -472 -245 -85 -86 -125 -165
-137 -272 -11 -93 -32 -29 207 -636 l178 -455 659 0 660 0 46 120 c76 197 278
714 314 805 38 95 39 122 7 216 -28 84 -44 113 -101 182 -54 65 -162 142 -269
193 -82 39 -259 101 -289 101 -21 0 -23 5 -23 62 0 50 -4 63 -20 73 -23 15
-87 24 -115 16z"/>
<path d="M405 2128 c-21 -12 -35 -28 -35 -40 0 -16 63 -77 98 -95 238 -123
418 -201 522 -228 95 -24 217 -35 335 -28 l103 6 -9 26 c-6 14 -24 50 -42 79
l-31 52 -156 0 c-133 0 -167 4 -240 24 -111 31 -215 69 -275 101 -201 107
-237 121 -270 103z"/>
<path d="M4521 2133 c-13 -3 -82 -36 -155 -73 -79 -41 -186 -87 -269 -114
l-139 -46 -158 0 -159 0 -21 -30 c-11 -16 -31 -53 -45 -83 l-23 -54 111 -6
c173 -10 326 12 460 64 28 11 136 63 241 115 191 95 256 142 256 184 0 32 -48
53 -99 43z"/>
<path d="M1410 1459 c-72 -21 -152 -37 -375 -74 -229 -38 -255 -48 -255 -105
0 -35 31 -60 74 -60 29 0 411 71 491 91 22 5 65 16 95 24 30 8 70 14 88 15 17
0 32 4 32 10 0 5 -11 34 -24 65 -28 63 -30 63 -126 34z"/>
<path d="M3453 1429 c-30 -67 -29 -79 5 -79 15 0 68 -11 117 -24 50 -14 146
-34 215 -46 69 -12 152 -29 184 -37 33 -8 90 -17 128 -20 56 -5 72 -3 87 11
42 38 31 86 -27 115 -25 13 -121 34 -258 56 -121 20 -259 45 -309 56 -49 10
-96 19 -105 19 -8 0 -24 -21 -37 -51z"/>
<path d="M1549 1141 c-137 -92 -234 -163 -267 -194 -44 -42 -150 -221 -158
-266 -3 -20 -13 -62 -21 -94 -12 -52 -12 -62 1 -82 19 -28 84 -62 95 -49 4 5
15 37 25 72 52 197 212 388 404 483 37 19 69 35 71 36 2 1 -7 19 -19 40 -13
21 -26 51 -29 67 -4 16 -11 31 -17 33 -6 2 -44 -19 -85 -46z"/>
<path d="M3337 1183 c-4 -3 -7 -16 -7 -28 0 -13 -12 -44 -26 -69 -15 -26 -25
-48 -23 -49 2 -1 34 -17 71 -36 194 -96 343 -274 404 -481 19 -64 25 -75 45
-77 38 -4 92 49 93 89 0 73 -35 193 -82 278 -68 122 -107 157 -370 337 -60 41
-90 51 -105 36z"/>
<path d="M2988 882 c-21 -2 -38 -7 -38 -12 0 -14 38 -46 101 -87 32 -20 61
-43 64 -50 3 -8 -8 -25 -25 -40 -17 -14 -37 -38 -45 -54 -17 -32 -20 -135 -5
-173 11 -30 95 -76 139 -76 63 0 143 111 173 242 16 67 -6 118 -82 193 l-61
60 -92 0 c-51 0 -109 -1 -129 -3z"/>
<path d="M1728 813 c-103 -108 -106 -138 -28 -308 34 -75 44 -88 76 -101 34
-14 41 -14 83 2 25 10 58 30 74 45 24 24 27 35 27 91 0 69 -20 115 -69 155
-34 29 -25 43 69 108 41 28 75 56 78 63 3 9 -28 12 -121 12 l-124 0 -65 -67z"/>
</g>
</svg>
