<?xml version="1.0" standalone="no"?>
<!DOCTYPE svg PUBLIC "-//W3C//DTD SVG 20010904//EN"
 "http://www.w3.org/TR/2001/REC-SVG-20010904/DTD/svg10.dtd">
<svg version="1.0" xmlns="http://www.w3.org/2000/svg"
 width="110592.000000pt" height="110592.000000pt" viewBox="0 0 110592.000000 110592.000000"
 preserveAspectRatio="xMidYMid meet">
<metadata>
Created by potrace 1.11, written by Peter Selinger 2001-2013
</metadata>
<g transform="translate(0.000000,110592.000000) scale(3.590649,-3.590649)"
fill="#000000" stroke="none">
<path d="M12920 27329 c-41 -10 -118 -27 -170 -38 -116 -24 -295 -78 -452
-136 -64 -24 -150 -51 -192 -59 -91 -19 -140 -37 -421 -159 -245 -105 -260
-114 -471 -254 -82 -55 -196 -128 -254 -164 -136 -83 -395 -291 -539 -432
-121 -120 -209 -222 -398 -467 -66 -85 -138 -173 -161 -196 -41 -40 -44 -41
-142 -53 -74 -8 -124 -21 -187 -46 -248 -103 -380 -191 -653 -435 -85 -76
-174 -154 -197 -172 -423 -334 -654 -539 -1003 -888 -356 -355 -590 -620 -686
-778 -42 -68 -99 -159 -127 -202 -157 -236 -382 -640 -483 -865 -41 -92 -81
-177 -89 -189 -7 -11 -64 -138 -125 -281 -124 -287 -165 -424 -195 -645 -9
-69 -23 -170 -31 -225 -32 -215 -36 -295 -25 -465 5 -91 15 -187 20 -215 6
-27 24 -129 42 -225 17 -96 42 -218 55 -271 14 -58 21 -110 18 -131 -4 -23 1
-51 15 -84 11 -27 24 -73 29 -103 9 -51 8 -57 -33 -145 -75 -159 -142 -356
-180 -526 -21 -91 -55 -243 -76 -339 -51 -223 -62 -339 -49 -506 16 -206 30
-320 46 -382 27 -108 154 -492 164 -498 6 -3 10 -13 10 -22 0 -8 27 -76 61
-151 109 -246 256 -508 353 -632 103 -131 349 -396 402 -432 18 -13 37 -32 42
-43 5 -11 157 -171 337 -355 180 -184 358 -373 394 -419 147 -187 245 -287
396 -403 65 -50 201 -122 214 -114 14 9 29 146 27 231 -2 44 3 109 10 145 7
36 16 103 19 150 4 47 11 105 16 129 17 79 59 334 59 361 0 15 9 53 20 85 11
32 20 80 20 108 0 48 17 122 47 204 22 61 10 103 -51 187 -48 65 -109 155
-281 421 -78 120 -85 137 -177 439 -100 323 -178 636 -178 707 0 15 -9 46 -19
70 -31 70 -87 285 -136 519 -25 118 -65 280 -90 360 -25 80 -57 190 -70 245
-21 87 -70 405 -90 577 -5 45 -11 58 -26 63 -19 6 -18 8 6 37 14 16 25 34 25
39 0 5 5 9 11 9 6 0 25 11 42 24 18 13 68 45 111 71 44 25 107 68 140 94 76
60 316 221 374 250 23 12 42 26 42 31 0 6 8 10 18 10 11 0 48 19 83 42 35 23
134 84 219 135 85 52 164 103 175 113 12 11 55 44 97 73 87 60 175 142 361
338 128 133 161 162 372 323 225 172 425 347 533 467 191 215 374 477 539 774
33 60 47 74 98 103 33 18 76 46 95 61 26 20 52 30 95 35 92 11 279 63 395 110
58 24 123 49 145 56 22 7 61 26 86 42 127 77 284 137 501 188 236 56 306 76
394 113 32 14 163 62 289 107 333 118 568 225 712 323 44 30 113 72 154 93 44
23 92 58 119 88 25 27 63 67 85 90 22 23 53 66 69 95 28 53 28 53 9 79 -34 45
-81 64 -138 56 -27 -5 -131 -8 -230 -9 l-180 0 -145 -73 c-118 -59 -156 -74
-205 -78 -33 -3 -81 -14 -107 -25 -31 -12 -71 -19 -117 -19 -38 0 -82 -5 -98
-11 -15 -6 -66 -13 -113 -16 -54 -4 -105 -14 -140 -28 -144 -59 -334 -75 -913
-75 -291 0 -422 -4 -525 -16 -113 -13 -146 -14 -188 -4 -47 12 -76 10 -117 -6
-11 -4 -16 8 -22 53 -4 32 -13 85 -21 118 -13 60 -84 271 -98 293 -4 6 10 28
32 50 38 38 52 74 52 134 0 17 8 42 18 56 11 15 31 50 46 78 15 28 40 58 56
67 37 22 68 66 77 109 7 37 38 82 130 183 115 127 167 176 218 203 40 22 55
37 76 81 17 34 38 60 55 69 47 24 66 44 90 100 14 30 30 52 39 52 9 0 34 17
58 39 23 21 53 42 67 46 14 4 57 38 95 74 39 37 90 80 114 96 49 33 221 197
221 211 0 5 13 16 28 25 16 9 74 76 129 150 56 74 113 145 128 159 15 14 52
55 81 92 30 37 78 83 106 102 29 19 74 57 100 83 61 63 180 215 214 274 22 40
33 49 71 60 25 7 66 29 92 49 54 43 166 174 239 280 29 41 102 129 163 195
108 117 185 211 208 254 14 25 17 77 7 109 -14 41 -200 113 -291 111 -22 0
-74 -9 -115 -20z"/>
<path d="M18872 26039 c-95 -4 -186 -12 -203 -18 -18 -6 -75 -18 -128 -26 -53
-9 -114 -25 -137 -35 -22 -11 -48 -20 -57 -20 -57 0 -347 -115 -514 -204 -84
-45 -267 -197 -309 -257 l-28 -41 19 -36 c11 -20 38 -48 59 -63 38 -25 46 -27
215 -32 159 -5 186 -9 281 -37 69 -21 139 -34 206 -39 70 -5 109 -12 128 -24
15 -10 70 -36 124 -58 l96 -39 201 0 c219 -1 291 -12 354 -53 72 -48 197 -104
298 -136 56 -17 105 -36 108 -41 3 -6 23 -10 43 -10 47 0 117 -32 132 -59 19
-37 82 -61 159 -61 82 0 106 -8 167 -55 28 -21 83 -46 142 -65 53 -18 117 -43
144 -56 26 -13 58 -24 70 -24 13 0 47 -11 76 -25 30 -14 61 -25 69 -25 28 0
206 -82 252 -116 67 -50 107 -66 186 -74 123 -12 366 -155 409 -240 7 -14 16
-51 20 -83 6 -57 4 -63 -45 -163 -29 -57 -56 -104 -60 -104 -21 0 -169 -267
-169 -305 0 -22 -18 -18 -71 16 -27 17 -68 33 -91 36 -46 6 -124 41 -173 78
-59 44 -129 72 -199 79 -58 6 -78 13 -120 43 -27 19 -76 48 -109 64 -33 15
-69 37 -81 48 -28 27 -88 51 -125 51 -17 0 -45 6 -63 14 -18 8 -45 17 -60 20
-15 4 -48 28 -74 56 -50 53 -109 79 -232 100 -34 6 -95 22 -135 36 -39 14 -93
32 -119 40 -40 13 -49 20 -59 52 -30 93 -80 126 -265 176 -185 51 -205 58
-274 114 -77 63 -346 179 -477 206 -62 13 -70 13 -103 -4 -19 -10 -47 -32 -62
-50 -26 -31 -26 -32 -12 -93 33 -140 84 -213 312 -445 136 -138 542 -484 807
-687 72 -55 190 -150 262 -211 121 -101 454 -333 644 -447 91 -54 369 -197
384 -197 6 0 21 -14 34 -31 33 -44 79 -69 129 -69 39 0 42 -2 32 -19 -21 -40
-12 -163 21 -272 68 -229 122 -330 319 -589 256 -338 419 -527 699 -814 414
-422 603 -597 861 -795 185 -143 270 -201 415 -286 55 -32 134 -81 175 -110
70 -48 218 -144 294 -190 18 -11 72 -51 121 -90 337 -267 390 -318 409 -397 5
-23 3 -28 -13 -28 -16 0 -24 -14 -41 -72 -46 -157 -133 -522 -160 -668 -121
-668 -180 -875 -380 -1335 -148 -338 -487 -977 -597 -1121 -27 -36 -29 -78 -8
-148 12 -39 15 -113 15 -359 0 -256 3 -318 16 -365 14 -49 16 -97 12 -347 -4
-182 -10 -301 -17 -319 -6 -16 -10 -30 -8 -32 1 -2 33 20 71 49 37 29 83 61
101 72 37 22 454 329 581 427 44 35 146 122 225 194 79 71 227 202 329 291
277 240 340 310 631 698 221 294 294 414 394 650 234 548 254 977 79 1745 -45
198 -64 336 -64 478 0 101 3 123 30 198 84 239 101 602 50 1074 -16 151 -36
349 -45 440 -23 238 -55 410 -130 709 -93 371 -139 510 -249 744 -26 54 -60
131 -76 171 -16 40 -73 161 -126 267 -54 107 -124 247 -155 311 -32 64 -88
161 -126 214 -84 121 -456 622 -481 649 -10 11 -28 35 -41 53 -12 17 -28 32
-34 32 -7 0 -23 17 -37 37 -41 61 -523 540 -672 666 -75 64 -162 139 -194 167
-31 27 -63 50 -69 50 -7 0 -15 8 -17 18 -3 10 -63 58 -134 107 -71 49 -199
140 -284 203 -205 153 -325 230 -451 293 -57 29 -140 73 -184 100 -44 26 -98
50 -120 54 -53 10 -271 82 -304 101 -74 43 -103 63 -138 95 -23 20 -66 44
-108 58 -38 14 -106 46 -150 72 -89 52 -216 114 -375 184 -77 34 -134 51 -220
66 -156 27 -349 73 -503 120 -191 58 -454 115 -542 117 -16 1 -57 5 -90 11
-69 11 -266 11 -513 0z"/>
<path d="M14850 18425 c-208 -44 -337 -82 -392 -115 -60 -35 -103 -171 -86
-275 17 -111 64 -168 168 -206 37 -13 57 -26 53 -33 -4 -6 -16 -24 -29 -41
-12 -16 -27 -46 -33 -66 -6 -19 -30 -53 -54 -76 l-42 -41 -190 -6 c-104 -4
-269 -14 -365 -22 -96 -8 -287 -21 -425 -29 -216 -12 -537 -38 -925 -75 -58
-6 -170 -24 -250 -40 -80 -17 -232 -42 -339 -55 -106 -14 -232 -34 -280 -45
-161 -38 -443 -90 -626 -116 -116 -16 -260 -50 -490 -114 -60 -17 -137 -37
-170 -45 -33 -7 -84 -22 -112 -34 -29 -11 -101 -34 -161 -50 -82 -22 -139 -45
-233 -97 -69 -38 -155 -84 -190 -103 -36 -18 -105 -61 -152 -95 -227 -162
-373 -319 -456 -491 -109 -224 -298 -758 -304 -860 -2 -33 -14 -91 -25 -130
-11 -38 -25 -99 -31 -135 -6 -36 -20 -116 -31 -178 -12 -63 -25 -159 -30 -215
-6 -56 -14 -120 -19 -142 -6 -22 -8 -80 -7 -130 2 -49 -2 -121 -9 -160 -7 -38
-13 -112 -14 -163 0 -51 -5 -122 -11 -157 -9 -55 -7 -75 10 -136 10 -39 23
-76 28 -83 5 -6 14 -31 21 -56 21 -75 88 -192 153 -271 295 -352 728 -748 840
-765 24 -4 62 -24 97 -50 32 -24 76 -47 99 -52 49 -11 159 -78 257 -157 74
-59 185 -124 248 -144 20 -7 61 -34 90 -60 28 -26 105 -75 170 -109 65 -34
169 -94 232 -132 63 -39 122 -73 132 -77 10 -3 31 -17 47 -30 34 -29 105 -66
178 -93 29 -11 78 -40 108 -65 31 -26 76 -52 104 -60 57 -17 80 -31 159 -97
32 -27 77 -58 100 -70 23 -11 80 -60 127 -108 47 -47 126 -114 175 -148 50
-33 125 -93 169 -131 43 -39 83 -71 88 -71 16 0 141 -91 200 -147 32 -30 66
-53 78 -53 73 0 497 -382 610 -550 13 -19 41 -51 62 -70 36 -33 39 -40 49
-115 21 -169 27 -212 43 -278 9 -37 24 -84 34 -105 11 -20 22 -54 25 -75 7
-46 133 -251 189 -306 45 -46 219 -166 293 -204 149 -75 485 -144 907 -187
180 -19 249 -20 800 -16 332 2 646 4 698 4 203 1 697 52 926 97 205 40 278 62
371 111 89 47 107 63 216 189 52 61 109 122 125 137 18 17 32 43 37 65 3 20
17 57 29 82 41 82 79 185 78 209 -1 13 7 35 17 48 10 13 29 65 41 116 16 67
30 102 50 123 15 17 47 67 71 113 52 99 110 170 241 292 53 50 107 107 119
128 12 20 46 64 74 97 28 33 64 77 79 97 16 22 51 49 84 65 32 15 73 42 92 59
19 18 71 51 115 74 44 23 100 62 125 85 48 45 156 108 205 120 17 3 50 19 75
35 46 30 199 70 264 70 18 0 39 7 46 15 7 8 20 15 29 15 9 0 43 16 76 35 33
19 101 54 150 79 50 24 115 62 145 85 30 23 78 49 107 57 28 8 63 24 78 36 14
11 54 34 88 50 73 35 140 83 217 152 30 27 82 67 115 87 62 40 187 126 277
192 28 20 58 37 65 37 7 0 37 22 68 50 30 27 71 58 92 69 21 10 52 31 68 46
17 15 51 37 76 49 57 27 137 92 204 166 85 93 118 123 199 179 75 52 291 269
356 357 17 23 37 44 44 47 8 3 16 14 18 24 2 11 37 48 78 84 91 79 151 152
209 255 41 71 45 86 53 173 11 133 32 251 62 350 14 47 26 108 26 135 0 28 7
73 15 100 20 65 22 480 3 523 -9 19 -15 121 -19 318 -3 160 -8 301 -11 315
-10 43 -61 153 -97 208 -20 32 -36 71 -40 101 -4 36 -15 59 -38 85 -18 19 -33
40 -33 46 0 20 -129 240 -199 339 -128 180 -477 525 -590 582 -14 8 -72 42
-129 77 -110 67 -322 172 -347 172 -8 0 -15 5 -15 10 0 6 -7 10 -15 10 -8 0
-23 5 -33 10 -21 13 -252 82 -382 114 -52 13 -252 54 -445 91 -192 36 -377 75
-410 85 -87 28 -266 60 -335 60 -32 0 -71 5 -86 10 -33 13 -320 46 -509 59
-77 6 -194 15 -260 20 -66 6 -264 15 -440 21 -366 12 -553 24 -675 45 -47 8
-113 17 -147 21 -38 4 -63 11 -63 18 0 7 -12 28 -26 47 -14 19 -31 48 -39 65
-7 17 -18 35 -24 38 -7 5 -11 45 -11 105 l0 99 29 11 c38 16 87 68 105 113 11
24 16 68 16 125 -1 128 -31 183 -133 241 -31 18 -65 24 -180 32 -259 18 -350
19 -378 4 -14 -7 -48 -18 -75 -25 -58 -15 -141 -65 -177 -108 -55 -66 -61
-164 -14 -244 21 -35 40 -52 85 -74 l58 -28 -1 -67 c0 -62 -2 -68 -25 -79 -15
-7 -20 -13 -12 -16 23 -9 14 -63 -15 -86 -14 -12 -40 -36 -57 -53 l-31 -31
-80 8 c-191 19 -654 39 -750 33 -101 -7 -103 -6 -115 17 -7 13 -27 40 -45 59
-31 33 -33 40 -39 132 -3 54 -8 103 -11 110 -2 8 17 23 48 38 113 55 140 150
91 331 -7 26 -130 83 -259 121 -145 43 -223 45 -375 13z"/>
<path d="M2328 15676 c-13 -7 -37 -16 -52 -20 -86 -22 -141 -97 -185 -256 -23
-82 -26 -143 -11 -235 5 -33 16 -129 25 -213 16 -155 47 -342 66 -397 6 -16
19 -64 29 -106 36 -144 175 -416 276 -540 63 -77 174 -177 235 -212 21 -12 41
-29 44 -39 6 -16 82 -91 101 -99 5 -2 31 -31 56 -65 53 -70 75 -87 217 -173
57 -35 138 -88 180 -117 42 -30 108 -72 146 -95 39 -22 115 -68 170 -101 396
-239 496 -283 822 -359 157 -36 247 -52 323 -56 99 -5 107 -7 136 -35 17 -16
51 -35 75 -42 37 -11 45 -18 52 -47 12 -46 42 -86 80 -106 36 -18 400 -139
517 -171 100 -28 255 -59 360 -72 91 -11 959 -35 1150 -32 63 1 143 0 178 -4
55 -5 62 -8 62 -28 0 -25 98 -125 145 -149 17 -8 71 -22 120 -32 50 -9 171
-34 270 -56 276 -60 387 -72 610 -66 105 4 208 12 230 18 29 9 212 14 650 18
482 5 616 9 640 20 l30 13 -37 14 c-67 23 -242 114 -281 146 -21 16 -53 34
-71 39 -19 5 -51 21 -72 36 -108 73 -215 143 -269 175 -61 35 -218 153 -311
233 l-51 43 -144 11 c-232 17 -444 62 -584 123 -38 16 -119 51 -180 77 -60 26
-150 72 -200 102 -155 95 -182 109 -272 135 -143 43 -224 34 -302 -32 -42 -35
-130 -57 -156 -38 -9 6 -37 15 -62 19 -26 4 -74 17 -108 30 -73 28 -222 75
-238 75 -7 0 -17 8 -24 18 -13 22 -177 104 -253 126 -30 9 -56 19 -59 24 -7 9
-143 71 -286 129 -149 61 -238 82 -375 90 -133 7 -193 -6 -298 -63 -34 -19
-68 -34 -74 -34 -6 0 -33 20 -59 45 -26 25 -54 45 -61 45 -7 0 -49 36 -93 80
-193 191 -509 369 -775 435 -52 13 -213 46 -356 74 -195 37 -274 49 -311 44
-46 -5 -53 -3 -99 32 -27 21 -63 44 -80 51 -32 13 -37 21 -228 332 -95 156
-195 258 -325 334 -48 28 -220 176 -306 264 -27 28 -65 77 -84 108 -44 74
-118 282 -130 366 -17 127 -73 197 -133 166z"/>
<path d="M29042 15079 c-12 -5 -25 -16 -28 -24 -4 -9 -19 -28 -33 -43 -15 -15
-42 -63 -60 -107 -58 -139 -70 -156 -235 -325 -89 -91 -175 -186 -191 -212
-32 -50 -39 -54 -162 -103 -115 -46 -164 -77 -252 -158 -42 -39 -110 -95 -151
-125 -81 -60 -269 -243 -316 -307 -42 -58 -124 -132 -124 -111 0 23 -12 21
-183 -24 -190 -49 -528 -123 -667 -144 -193 -31 -272 -54 -422 -128 -79 -38
-183 -86 -233 -105 -126 -50 -205 -91 -205 -107 0 -22 -79 -40 -190 -42 -119
-3 -301 -26 -435 -55 -319 -70 -590 -151 -715 -214 -114 -57 -378 -202 -411
-226 -35 -24 -125 -20 -192 10 -27 11 -64 21 -83 21 -19 0 -123 -22 -232 -49
-438 -108 -607 -144 -832 -177 -129 -19 -316 -48 -415 -65 -99 -17 -222 -33
-274 -36 l-95 -6 -64 -68 c-36 -38 -71 -77 -79 -88 -21 -31 -127 -110 -175
-131 -24 -10 -56 -32 -72 -49 -15 -16 -51 -39 -80 -52 -28 -12 -70 -39 -93
-60 -23 -21 -59 -46 -80 -55 -35 -14 -36 -17 -19 -27 10 -7 37 -24 61 -39 65
-43 225 -88 345 -99 58 -5 150 -14 205 -20 125 -13 313 -27 515 -38 175 -10
333 -26 348 -35 6 -3 59 0 119 8 132 18 284 33 423 41 76 5 130 15 195 36 132
44 265 111 316 161 l45 43 94 -2 c72 -1 116 -8 180 -28 111 -34 216 -41 436
-26 282 19 379 30 539 61 83 16 222 41 310 55 222 36 355 69 530 132 244 89
282 115 263 176 -5 18 -13 48 -18 67 -4 19 -11 42 -14 51 -6 15 -2 15 41 4 34
-9 79 -10 153 -5 167 13 306 51 520 143 128 55 344 137 359 137 19 0 254 116
346 171 50 29 110 74 136 100 54 55 85 73 158 88 35 7 82 30 135 65 44 29 110
68 146 87 76 40 159 118 219 209 60 90 84 113 176 175 44 29 117 85 161 123
90 79 155 174 259 382 32 63 77 147 100 185 72 120 116 215 133 289 23 100 24
518 2 557 -8 15 -25 45 -37 67 -30 53 -71 82 -101 71z"/>
<path d="M8825 11450 c-11 -5 -40 -9 -65 -9 -25 -1 -99 -15 -164 -31 -72 -18
-146 -30 -185 -30 -44 0 -99 -10 -166 -30 -55 -17 -147 -38 -205 -46 -154 -23
-251 -47 -476 -120 -128 -41 -216 -75 -241 -93 -57 -41 -99 -110 -112 -182 -7
-41 -20 -72 -41 -100 -33 -41 -46 -50 -36 -24 3 8 3 15 1 15 -52 0 -577 -295
-710 -399 -106 -83 -231 -161 -330 -208 -48 -22 -99 -49 -282 -149 -207 -112
-403 -242 -537 -355 -54 -46 -117 -98 -140 -114 -22 -17 -61 -53 -86 -80 -24
-28 -108 -115 -186 -195 -228 -234 -345 -366 -406 -458 -32 -48 -72 -105 -89
-127 -38 -48 -79 -131 -79 -161 0 -12 9 -33 20 -46 10 -14 17 -27 15 -30 -3
-3 -7 -29 -10 -57 -7 -87 -25 -163 -51 -216 -40 -83 -129 -321 -180 -480 -26
-82 -101 -285 -167 -450 -211 -530 -237 -617 -263 -863 -17 -166 -14 -247 10
-294 16 -30 13 -154 -3 -151 -25 6 -95 -138 -124 -258 -39 -156 -45 -456 -11
-586 32 -124 119 -269 217 -361 26 -25 64 -67 85 -95 52 -69 274 -262 336
-292 124 -60 252 -69 344 -23 57 28 72 56 79 152 8 110 -19 218 -126 496 -51
135 -60 189 -71 450 -8 216 -39 426 -64 442 -30 19 -7 124 59 273 15 32 51
134 82 225 30 91 74 213 98 272 25 60 55 160 70 230 41 195 109 420 186 618
27 69 49 131 49 139 0 7 11 26 25 43 14 16 25 36 25 43 0 8 21 18 53 25 125
26 150 51 325 310 60 91 146 208 191 260 44 52 124 149 178 215 197 240 446
499 683 711 74 67 194 177 265 244 233 220 665 530 913 654 41 21 96 53 123
72 30 21 55 32 62 27 7 -4 39 -11 72 -14 33 -4 105 -18 160 -33 142 -39 238
-42 432 -17 116 15 178 28 218 45 31 14 86 32 123 41 97 23 196 50 377 105 88
27 214 63 280 80 147 38 316 94 461 154 60 24 165 61 234 82 69 20 134 41 144
47 11 5 60 20 110 33 50 13 141 38 201 55 103 29 144 36 355 58 47 5 120 17
163 26 l78 18 21 49 c11 27 33 59 48 71 17 13 30 36 34 57 6 35 5 36 -46 59
-29 13 -120 57 -203 97 -82 40 -163 76 -180 79 -44 10 -106 48 -138 84 l-27
31 -893 -1 c-490 0 -901 -4 -912 -9z"/>
<path d="M20725 11330 c-38 -27 -106 -69 -150 -92 -44 -22 -94 -52 -112 -65
-18 -14 -52 -31 -76 -38 -25 -7 -73 -33 -108 -57 -59 -40 -115 -70 -383 -205
-97 -49 -108 -57 -92 -68 27 -20 215 -85 266 -92 25 -3 99 -28 165 -54 66 -27
130 -49 141 -49 12 0 91 -23 175 -51 85 -28 179 -55 209 -59 56 -8 230 -63
330 -105 30 -12 100 -35 155 -50 103 -27 195 -60 230 -81 11 -6 60 -19 110
-29 49 -9 101 -25 116 -35 57 -41 312 -150 350 -150 14 0 82 -22 150 -49 68
-27 144 -52 169 -56 25 -4 62 -16 82 -26 51 -26 223 -69 278 -69 25 0 78 -9
119 -19 53 -13 83 -16 105 -10 17 5 77 9 133 9 l102 0 43 65 c23 36 45 65 48
65 4 0 19 -14 36 -31 16 -17 65 -49 109 -71 151 -76 404 -256 598 -425 119
-105 367 -338 578 -544 127 -124 345 -383 396 -471 20 -35 76 -127 125 -205
48 -79 107 -180 130 -225 68 -136 297 -539 334 -589 62 -86 176 -169 270 -199
21 -7 47 -16 57 -21 12 -6 17 -5 17 3 0 7 9 2 19 -12 11 -13 17 -28 15 -32 -2
-3 10 -31 27 -60 18 -29 46 -87 64 -128 18 -41 87 -192 153 -335 66 -143 131
-294 146 -335 14 -41 51 -205 81 -365 31 -159 63 -324 73 -365 14 -63 15 -83
5 -124 -8 -32 -9 -63 -4 -87 5 -22 5 -41 -1 -47 -5 -5 -18 -51 -28 -103 -29
-142 -78 -307 -109 -369 -15 -30 -60 -107 -101 -170 -91 -141 -156 -266 -166
-317 -10 -54 11 -185 40 -249 31 -68 107 -150 146 -157 57 -12 323 44 400 83
52 27 248 199 292 257 38 50 212 394 249 492 31 81 89 371 96 476 3 55 1 112
-6 145 -6 30 -14 104 -18 165 -4 81 -10 119 -24 143 -11 18 -19 40 -19 48 0 8
-7 31 -16 52 -9 20 -18 53 -19 72 -2 37 -25 190 -51 350 -19 109 -83 375 -121
500 -36 120 -140 394 -176 465 -16 33 -57 100 -90 149 -33 49 -88 139 -122
200 -34 61 -65 109 -69 106 -5 -3 -16 17 -27 45 l-19 49 26 27 c51 53 41 143
-31 294 -24 50 -68 128 -98 175 -30 47 -97 159 -149 250 -92 159 -133 226
-254 412 -92 142 -383 470 -504 568 -31 25 -85 70 -121 101 -35 31 -72 60 -81
65 -9 5 -63 50 -120 101 -197 173 -333 266 -597 407 -79 42 -205 118 -280 169
-75 52 -166 110 -203 131 -37 20 -73 47 -79 59 -6 12 -30 42 -54 67 -36 38
-43 53 -48 98 -8 68 -58 172 -102 211 -84 74 -236 125 -660 224 -130 31 -174
36 -330 42 -99 3 -218 11 -265 16 -47 5 -157 14 -245 19 -237 14 -399 27 -495
39 -47 6 -141 15 -210 20 -69 5 -159 18 -200 29 -99 26 -247 77 -274 95 -13 9
-65 17 -141 21 -66 3 -147 8 -180 11 -59 4 -61 4 -130 -45z"/>
<path d="M11675 10709 c-27 -9 -93 -25 -145 -34 -52 -10 -135 -28 -185 -40
-184 -47 -303 -69 -415 -75 -63 -4 -124 -10 -135 -13 -11 -3 -65 -13 -120 -23
-55 -9 -142 -29 -193 -45 -51 -16 -99 -29 -108 -29 -8 0 -31 -8 -52 -19 -20
-10 -75 -28 -122 -40 -46 -12 -134 -45 -195 -75 -60 -30 -141 -62 -180 -71
-38 -9 -80 -23 -92 -30 -11 -8 -43 -19 -70 -26 -83 -19 -202 -58 -241 -78 -47
-24 -379 -111 -424 -111 -63 0 -213 -42 -368 -102 -85 -34 -180 -69 -210 -79
-106 -33 -175 -61 -215 -84 -22 -12 -60 -28 -85 -35 -57 -15 -205 -103 -380
-225 -74 -52 -173 -116 -220 -142 -124 -70 -670 -437 -849 -571 -210 -157
-375 -311 -541 -507 -87 -103 -128 -168 -206 -329 -84 -173 -108 -245 -109
-327 0 -56 5 -77 35 -135 35 -69 35 -69 20 -116 -8 -27 -21 -48 -28 -48 -7 0
-25 -26 -39 -57 -21 -46 -29 -82 -35 -173 -5 -63 -15 -182 -23 -265 -24 -245
-14 -489 25 -590 7 -17 18 -64 26 -105 13 -71 63 -185 110 -255 32 -47 45
-132 33 -207 -33 -194 58 -657 169 -863 33 -60 49 -77 113 -122 41 -28 90 -59
109 -69 19 -10 53 -30 75 -44 36 -22 51 -25 135 -25 117 0 173 19 226 77 129
143 153 435 57 698 -46 127 -146 356 -159 363 -8 4 -14 18 -14 30 0 13 -9 40
-20 62 l-20 38 37 32 c36 31 38 35 41 108 5 92 -22 286 -53 387 -36 114 -42
143 -70 305 -24 141 -64 313 -85 361 -15 37 15 113 64 164 97 99 249 290 305
385 61 102 104 153 352 416 75 79 193 207 262 285 156 175 563 571 677 658 47
35 119 94 160 130 124 109 326 236 376 236 10 0 36 9 59 20 53 26 121 45 255
71 89 17 741 227 851 273 34 14 227 69 454 128 96 25 359 66 635 98 47 5 135
10 197 10 63 0 160 8 225 19 62 11 138 22 168 26 50 6 561 -28 618 -40 59 -14
249 -4 417 20 99 14 183 29 187 33 12 12 -80 146 -112 165 -15 9 -50 40 -77
68 -30 33 -71 62 -110 80 -34 16 -79 46 -100 67 -21 22 -76 60 -123 85 -47 25
-99 60 -115 77 -17 17 -49 40 -72 50 -24 10 -74 46 -112 78 -63 55 -186 144
-193 141 -2 -1 -25 -10 -53 -20z"/>
<path d="M19192 10560 c-29 -15 -65 -39 -80 -53 -15 -14 -50 -39 -79 -54 -53
-29 -138 -124 -174 -194 -17 -35 -193 -209 -210 -209 -10 0 -89 -98 -89 -111
0 -5 39 -9 88 -9 109 0 248 -21 332 -50 48 -16 104 -25 210 -31 192 -12 274
-22 340 -42 109 -33 238 -62 465 -107 132 -27 270 -63 323 -87 30 -13 84 -28
121 -33 75 -9 126 -26 226 -75 39 -18 99 -46 135 -61 36 -15 81 -38 100 -51
19 -13 40 -23 47 -23 7 0 57 -17 110 -39 54 -21 123 -44 153 -51 30 -7 89 -27
131 -46 42 -19 82 -34 88 -34 7 0 31 -10 54 -22 23 -12 71 -25 107 -29 36 -3
108 -18 160 -32 52 -14 142 -38 200 -52 74 -19 127 -40 180 -72 73 -43 76 -44
106 -29 27 12 40 13 85 2 113 -27 238 -108 421 -273 260 -233 492 -447 563
-518 140 -140 475 -642 651 -975 50 -94 116 -181 219 -289 87 -91 92 -99 108
-166 15 -63 16 -77 2 -140 -16 -75 -30 -306 -41 -681 l-6 -230 26 -51 c14 -28
31 -53 38 -56 10 -3 9 -9 -4 -24 -10 -10 -23 -34 -29 -52 -7 -20 -16 -30 -25
-27 -16 6 -124 -126 -159 -194 -13 -27 -38 -99 -56 -161 -30 -109 -31 -118
-27 -279 l3 -166 38 -76 c63 -129 183 -212 279 -194 66 12 156 86 311 252 26
29 70 94 98 145 28 52 56 99 63 104 21 18 72 117 127 250 53 129 54 131 55
240 2 165 1 161 28 173 29 13 109 132 141 209 23 59 55 192 75 316 11 69 -4
282 -31 432 -5 33 -14 89 -20 124 -21 144 -60 268 -89 286 -15 9 -2 50 43 135
37 71 39 78 35 150 -4 64 -13 94 -60 205 -31 72 -67 150 -82 175 -14 25 -26
53 -26 63 0 10 -5 23 -11 30 -6 7 -23 33 -37 59 -40 70 -193 284 -254 355 -88
104 -519 515 -609 581 -363 268 -411 298 -644 414 -137 69 -420 188 -445 188
-5 0 -10 4 -10 9 0 5 -12 12 -27 16 -16 3 -101 36 -191 71 -90 36 -194 73
-232 82 -39 9 -70 20 -70 26 0 38 -123 126 -177 126 -19 0 -201 63 -235 81
-12 6 -44 15 -72 19 -56 9 -185 60 -346 138 -66 32 -126 53 -160 58 -30 3 -88
22 -129 41 -40 18 -96 40 -125 48 -80 22 -199 60 -356 114 -80 28 -156 50
-171 51 -14 0 -100 25 -193 55 -92 30 -181 55 -197 55 -17 0 -65 15 -107 33
-102 44 -155 59 -357 98 -206 39 -252 52 -423 118 -74 28 -141 51 -150 50 -10
0 -41 -13 -70 -29z"/>
<path d="M12725 9731 c-39 -15 -81 -35 -95 -44 -75 -48 -463 -215 -615 -264
-300 -96 -792 -278 -1125 -418 -58 -24 -154 -64 -215 -89 -162 -68 -400 -188
-482 -243 -91 -60 -230 -188 -339 -311 -111 -124 -190 -278 -203 -392 -5 -41
-11 -82 -14 -90 -3 -8 -8 -28 -11 -43 -4 -15 -11 -25 -16 -22 -20 12 -82 -105
-134 -255 -36 -101 -101 -400 -131 -595 -20 -131 -36 -490 -37 -840 -1 -287
22 -585 56 -727 15 -64 64 -152 113 -205 48 -52 67 -104 97 -257 32 -169 68
-261 194 -506 111 -214 205 -362 263 -414 97 -88 200 -138 316 -154 68 -10 76
-14 165 -85 177 -141 255 -185 398 -225 306 -86 354 -88 570 -23 80 23 161 54
180 66 55 37 344 324 381 380 33 48 34 54 34 145 0 118 -14 150 -104 241 -79
79 -123 103 -249 135 -127 32 -213 31 -557 -7 -379 -43 -355 -43 -378 6 -11
22 -72 121 -137 220 -65 99 -158 257 -207 350 -83 159 -153 273 -187 307 -10
11 -13 31 -10 73 3 49 9 64 33 89 37 38 51 75 51 129 0 51 -23 102 -89 202
-56 85 -79 148 -116 315 -14 63 -36 157 -50 209 -33 123 -62 329 -73 516 -9
148 -6 222 17 360 35 209 26 187 101 259 45 44 73 64 84 60 65 -25 827 335
1240 586 61 37 195 111 296 165 102 54 205 111 230 128 164 112 419 299 423
311 3 8 19 17 35 20 16 4 42 18 58 31 109 90 306 238 358 269 35 20 76 50 91
66 l28 29 -23 118 c-12 65 -32 141 -44 168 -12 28 -31 91 -41 140 -18 89 -39
146 -53 144 -4 0 -39 -13 -77 -28z"/>
<path d="M18420 9609 c0 -7 -21 -58 -46 -113 -25 -56 -54 -119 -64 -141 -10
-22 -25 -65 -34 -95 -8 -30 -27 -72 -41 -92 -26 -39 -54 -140 -39 -145 5 -2
65 -35 134 -74 167 -96 244 -130 402 -180 73 -22 180 -56 238 -75 175 -56 304
-82 546 -109 128 -14 285 -34 350 -45 66 -12 214 -36 329 -55 255 -42 447 -78
620 -117 151 -33 199 -48 315 -95 80 -33 221 -78 389 -124 64 -18 81 -19 118
-8 l43 12 46 -52 c25 -28 57 -68 71 -89 14 -20 36 -50 48 -67 37 -49 95 -173
130 -275 18 -52 61 -156 95 -230 137 -298 188 -441 221 -627 25 -139 40 -173
117 -254 52 -55 59 -60 83 -51 l26 10 -14 -51 c-18 -70 -16 -154 8 -272 14
-76 22 -175 29 -410 6 -170 14 -343 20 -382 l10 -73 -45 -41 c-24 -22 -47 -49
-50 -59 -4 -12 -37 -28 -98 -50 -51 -17 -113 -45 -140 -61 -26 -16 -53 -29
-60 -29 -20 0 -233 -106 -321 -160 -91 -56 -175 -130 -199 -177 -22 -42 -67
-199 -67 -233 0 -41 57 -146 97 -179 41 -34 261 -123 347 -141 34 -7 81 -9
110 -5 135 17 417 100 519 151 47 24 212 124 299 182 52 34 194 183 251 264
49 68 99 156 111 194 3 12 27 43 52 70 62 68 90 134 117 271 20 109 22 145 21
483 0 218 -6 407 -13 470 -14 120 -74 403 -95 446 -8 16 -17 49 -21 74 -9 56
-91 227 -186 385 -39 66 -96 165 -126 220 -48 87 -216 346 -314 485 -87 124
-336 416 -430 506 -129 122 -318 253 -375 260 -69 8 -74 12 -74 54 l0 38 -147
36 c-82 20 -164 36 -183 36 -46 0 -256 72 -348 119 -21 11 -69 26 -107 34 -39
8 -107 31 -152 51 -45 20 -87 36 -93 36 -12 0 -142 61 -326 152 -57 28 -100
42 -145 47 -35 4 -107 23 -159 43 -86 32 -186 59 -265 72 -53 8 -258 53 -340
75 -88 24 -399 71 -467 71 -50 0 -250 35 -276 48 -22 12 -99 22 -252 33 -69 5
-142 12 -162 15 -28 5 -38 3 -38 -7z"/>
</g>
</svg>
