<?xml version="1.0" standalone="no"?>
<!DOCTYPE svg PUBLIC "-//W3C//DTD SVG 20010904//EN"
 "http://www.w3.org/TR/2001/REC-SVG-20010904/DTD/svg10.dtd">
<svg version="1.0" xmlns="http://www.w3.org/2000/svg"
 width="110592.000000pt" height="110592.000000pt" viewBox="0 0 110592.000000 110592.000000"
 preserveAspectRatio="xMidYMid meet">
<metadata>
Created by potrace 1.11, written by Peter Selinger 2001-2013
</metadata>
<g transform="translate(0.000000,110592.000000) scale(3.590649,-3.590649)"
fill="#000000" stroke="none">
<path d="M10806 27800 c-33 -16 -65 -35 -73 -41 -23 -20 -70 -113 -78 -154 -4
-22 -18 -66 -31 -97 -22 -54 -24 -69 -24 -240 l0 -183 40 -115 c22 -63 51
-137 64 -165 24 -48 36 -86 93 -289 13 -49 35 -110 48 -135 27 -55 34 -79 80
-281 20 -85 47 -183 60 -217 14 -33 32 -110 41 -170 8 -59 21 -128 29 -153 8
-25 24 -108 35 -185 12 -77 24 -143 27 -148 2 -4 11 -45 19 -90 7 -45 22 -114
33 -153 10 -39 24 -106 31 -150 6 -43 26 -162 45 -264 19 -102 37 -214 40
-250 4 -38 18 -92 35 -130 16 -36 45 -110 66 -165 20 -55 49 -129 66 -165 16
-36 42 -123 59 -195 35 -157 73 -306 87 -343 6 -15 22 -67 37 -117 59 -200 78
-252 269 -734 74 -185 151 -392 171 -461 30 -101 70 -192 209 -475 167 -338
237 -492 289 -640 14 -38 50 -140 80 -225 31 -87 104 -256 167 -385 182 -374
230 -473 230 -479 0 -7 88 -168 181 -331 47 -83 83 -165 118 -265 37 -109 91
-227 217 -475 92 -181 185 -361 207 -400 77 -135 107 -190 107 -202 0 -7 24
-57 54 -110 70 -127 223 -429 283 -557 25 -56 79 -172 119 -258 41 -86 91
-203 112 -260 22 -57 67 -157 100 -224 92 -181 128 -293 192 -594 38 -180 41
-301 10 -403 -19 -60 -30 -77 -108 -156 l-87 -89 -75 -14 c-126 -22 -1057 -15
-1445 11 -171 12 -346 26 -390 32 -44 6 -244 14 -445 19 -437 10 -594 26 -750
74 -25 8 -67 17 -95 21 -27 3 -93 15 -145 25 -452 93 -486 97 -1270 131 -291
13 -522 4 -687 -25 -134 -24 -333 -55 -463 -71 -69 -9 -160 -22 -203 -31 -43
-8 -160 -29 -260 -46 l-182 -31 -820 -7 c-716 -6 -851 -10 -1065 -28 -448 -39
-574 -52 -735 -72 -88 -11 -281 -29 -430 -40 -261 -19 -355 -29 -460 -49 -68
-13 -369 -86 -480 -116 -49 -14 -164 -40 -255 -59 -447 -94 -599 -147 -694
-242 -44 -43 -53 -61 -112 -214 -36 -93 -36 -97 -31 -205 4 -94 9 -119 35
-176 31 -68 63 -102 140 -146 26 -14 68 -39 93 -55 71 -44 294 -118 357 -118
40 0 69 -8 121 -35 38 -19 102 -42 143 -51 40 -8 125 -38 188 -64 63 -27 153
-61 200 -75 47 -15 103 -34 125 -42 34 -14 256 -91 540 -188 44 -15 103 -36
131 -47 28 -10 75 -21 105 -25 30 -3 72 -15 94 -25 61 -30 160 -55 260 -67 50
-6 119 -15 155 -20 80 -12 170 -20 365 -30 83 -4 160 -13 172 -19 12 -7 36
-12 54 -12 57 0 332 -51 379 -71 65 -26 169 -55 290 -79 58 -11 123 -27 145
-35 40 -14 328 -80 478 -109 42 -8 89 -23 105 -34 15 -10 94 -45 177 -78 82
-32 220 -94 305 -137 184 -93 406 -197 510 -239 41 -16 80 -33 85 -38 6 -4 28
-13 50 -20 22 -7 54 -21 70 -31 37 -22 278 -109 399 -144 651 -189 1294 -273
1796 -235 262 20 601 56 668 71 25 5 120 21 212 34 225 32 485 95 585 141 150
68 342 124 429 124 16 0 43 4 60 10 62 19 313 59 411 65 172 10 428 -32 552
-90 28 -14 58 -25 67 -25 21 0 71 -45 98 -87 26 -43 29 -136 8 -213 -11 -42
-29 -136 -80 -425 -47 -264 -100 -460 -149 -549 -15 -28 -37 -78 -49 -111 -11
-33 -39 -105 -62 -160 -47 -115 -58 -145 -207 -580 -172 -500 -320 -997 -335
-1125 -5 -41 -15 -122 -24 -180 -8 -58 -19 -184 -24 -280 -17 -274 -66 -590
-130 -823 -11 -39 -33 -137 -49 -218 -16 -80 -39 -183 -51 -230 -27 -107 -143
-446 -171 -501 -5 -10 -9 -23 -9 -30 0 -26 -145 -459 -187 -556 -145 -342
-312 -537 -1203 -1408 -396 -387 -534 -513 -655 -599 -98 -69 -154 -115 -275
-226 -58 -53 -191 -166 -296 -250 -441 -356 -510 -423 -582 -558 -58 -108 -66
-175 -30 -252 14 -30 37 -69 52 -86 58 -68 198 -140 300 -153 33 -4 74 -13 91
-20 89 -35 164 -40 555 -40 302 0 403 3 452 14 61 14 107 20 383 51 114 13
196 26 325 51 19 3 62 21 95 39 33 18 101 45 152 60 50 14 109 35 132 45 22
11 47 20 55 20 8 0 77 32 154 70 77 39 143 70 146 70 4 0 52 22 106 49 54 28
123 57 153 66 30 8 64 26 77 40 12 13 36 27 53 31 17 3 60 20 96 36 36 17 107
46 156 65 50 19 95 38 100 43 6 4 42 17 80 30 77 24 235 94 276 121 14 10 59
33 100 52 67 31 184 108 263 173 17 15 97 63 178 108 311 175 617 464 873 825
11 16 38 53 61 82 73 96 264 387 264 403 0 6 100 170 114 185 21 25 134 220
142 244 4 12 24 57 45 99 22 43 39 86 39 96 0 20 145 249 185 292 34 36 99
163 130 250 15 41 53 127 84 190 52 103 98 177 286 458 31 46 62 100 70 120
57 151 78 214 87 262 5 30 18 71 28 90 10 19 21 46 24 60 2 14 14 59 26 100
15 54 24 126 30 255 12 212 21 277 60 399 55 175 88 302 114 441 40 209 45
230 92 350 48 120 71 167 120 235 17 25 48 77 69 115 21 39 61 107 88 153 27
46 64 120 82 165 52 133 79 179 154 259 48 51 89 85 132 106 70 36 58 39 189
-48 41 -27 93 -59 115 -71 58 -32 174 -128 300 -249 137 -132 240 -223 375
-330 58 -46 159 -136 225 -200 66 -64 176 -162 245 -217 258 -206 510 -450
855 -828 356 -389 437 -474 611 -646 93 -91 205 -194 249 -228 44 -35 82 -66
85 -70 3 -3 17 -13 32 -21 63 -36 314 -257 628 -556 140 -133 307 -286 370
-340 63 -54 159 -143 215 -196 55 -54 102 -98 104 -98 2 0 18 -14 35 -30 57
-55 137 -118 199 -156 34 -21 116 -85 181 -142 66 -56 153 -128 194 -159 40
-30 76 -61 79 -69 3 -8 12 -14 21 -14 8 0 23 -6 31 -14 9 -7 138 -79 286 -160
271 -146 462 -236 591 -277 38 -12 74 -25 79 -29 11 -9 252 -90 266 -90 5 0
60 -23 122 -51 108 -49 220 -95 339 -138 32 -11 66 -25 75 -30 10 -5 47 -19
83 -31 64 -22 246 -100 344 -146 28 -13 55 -24 61 -24 6 0 49 -16 95 -36 198
-84 261 -103 545 -165 22 -4 92 -27 155 -50 63 -22 154 -52 202 -65 105 -28
213 -73 288 -118 80 -49 232 -118 330 -151 78 -25 94 -27 196 -23 74 4 120 10
140 21 16 9 39 21 51 26 43 20 54 61 56 209 1 75 -1 162 -5 192 -4 30 -11 96
-17 145 -5 50 -17 119 -25 155 -37 171 -50 218 -66 250 -10 19 -21 51 -25 70
-4 19 -19 58 -33 85 -14 28 -40 93 -58 145 -17 52 -44 124 -59 160 -38 90
-141 246 -213 321 -82 87 -92 100 -147 204 -110 206 -332 521 -510 722 -38 44
-87 101 -109 127 -21 26 -65 67 -98 91 -32 23 -118 96 -191 162 -73 66 -186
167 -252 225 -66 58 -183 165 -260 238 -77 73 -192 177 -255 230 -133 113
-234 215 -450 459 -109 122 -202 213 -313 308 -255 218 -533 537 -842 964 -33
45 -96 130 -139 188 -109 145 -209 296 -295 442 -40 68 -95 158 -122 199 -27
41 -63 104 -80 140 -17 36 -44 93 -60 126 -16 34 -59 95 -95 135 -37 41 -84
98 -105 126 -43 58 -112 132 -443 479 -168 176 -242 262 -311 360 -123 178
-250 350 -299 405 -79 89 -275 356 -297 405 -12 27 -26 56 -30 64 -5 8 -32 60
-60 115 -48 95 -57 107 -192 234 -106 99 -169 150 -247 197 -120 73 -176 121
-196 170 -12 29 -12 39 3 76 24 61 78 146 127 196 60 63 205 156 421 268 72
37 155 87 187 111 31 23 67 47 80 53 12 6 61 35 108 66 47 30 93 58 103 61 9
3 17 9 17 14 0 5 5 9 11 9 6 0 31 17 57 39 26 21 93 64 148 96 56 31 112 67
125 79 13 11 49 32 79 46 30 14 60 30 65 37 6 7 57 46 115 88 58 42 117 86
131 98 14 12 56 45 93 72 273 203 618 522 849 784 223 254 340 381 348 381 5
0 9 6 9 13 0 21 226 345 274 394 17 17 42 53 56 80 29 58 92 153 137 209 18
23 33 45 33 49 0 5 8 18 18 29 11 12 69 100 131 196 62 96 139 211 171 255 32
44 105 148 161 230 114 167 110 163 266 338 61 70 136 157 167 194 30 38 120
148 200 247 81 98 151 186 156 196 5 10 35 43 65 75 31 31 67 75 81 97 50 78
219 284 323 394 101 104 127 138 221 279 22 33 69 101 105 150 35 50 84 119
108 155 25 36 123 153 218 260 171 193 259 300 259 318 0 17 363 424 555 622
237 245 405 475 460 630 12 34 25 61 99 207 44 87 122 320 142 421 18 93 18
259 -1 336 -22 93 -76 166 -140 189 -137 51 -193 62 -320 62 -111 0 -137 -4
-180 -22 -27 -12 -62 -24 -77 -27 -15 -4 -93 -42 -172 -86 -153 -85 -269 -134
-338 -145 -24 -3 -72 -17 -108 -30 -36 -13 -97 -36 -137 -50 -39 -14 -77 -32
-83 -40 -6 -8 -42 -31 -78 -51 -37 -20 -91 -59 -122 -86 -83 -77 -156 -128
-182 -128 -13 0 -66 -25 -118 -55 -52 -30 -120 -66 -150 -81 -30 -14 -76 -45
-101 -67 -26 -23 -77 -67 -113 -97 -37 -30 -114 -101 -172 -157 -57 -57 -113
-103 -122 -103 -10 0 -40 -14 -68 -32 -77 -49 -182 -95 -269 -118 -83 -22 -96
-28 -255 -113 -199 -106 -225 -119 -318 -158 -53 -23 -110 -52 -128 -65 -17
-13 -35 -24 -41 -24 -13 0 -199 -96 -233 -120 -15 -10 -80 -49 -145 -85 -65
-36 -168 -99 -229 -139 -61 -41 -139 -86 -174 -100 -35 -15 -87 -47 -117 -71
-60 -49 -170 -115 -240 -145 -26 -11 -124 -58 -219 -104 -99 -49 -211 -95
-266 -111 -152 -43 -174 -53 -298 -135 -124 -83 -224 -175 -386 -353 -99 -108
-211 -212 -460 -423 -72 -61 -176 -159 -231 -218 -55 -59 -332 -340 -615 -625
-283 -284 -562 -570 -620 -635 -194 -218 -319 -325 -652 -559 -75 -53 -184
-132 -242 -176 -170 -129 -321 -222 -496 -309 -161 -79 -217 -94 -340 -96
-193 -2 -223 31 -325 357 -19 59 -41 160 -50 225 -8 64 -26 187 -40 272 -13
85 -36 234 -50 330 -14 96 -32 208 -40 248 -8 41 -26 151 -40 245 -14 95 -38
244 -54 332 -61 331 -96 585 -136 981 -8 78 -24 195 -35 260 -72 398 -134 704
-150 734 -6 10 -10 33 -10 49 0 17 -4 39 -10 49 -5 9 -19 53 -31 97 -23 88
-49 178 -114 390 -24 77 -51 167 -60 200 -23 82 -66 175 -124 264 -26 42 -58
94 -69 116 -63 122 -115 212 -177 307 -38 58 -78 119 -88 134 -9 16 -27 45
-38 64 -12 19 -36 58 -54 85 -17 28 -52 83 -76 123 -73 122 -81 135 -121 194
-21 32 -38 61 -38 64 0 3 -8 18 -19 32 -10 15 -65 115 -121 222 -57 107 -143
255 -192 328 -48 73 -88 135 -88 138 0 2 -13 16 -28 31 -16 16 -55 68 -88 117
-32 49 -78 117 -100 151 -23 34 -72 120 -109 191 -37 71 -83 154 -101 185 -17
31 -41 78 -53 103 -11 26 -38 72 -59 104 -67 100 -128 196 -135 215 -4 10 -45
80 -90 155 -46 76 -90 148 -98 162 -8 14 -24 34 -35 45 -12 11 -27 36 -33 55
-31 98 -224 374 -381 544 -41 45 -124 137 -185 205 -144 162 -318 318 -430
389 -49 31 -146 99 -215 152 -69 53 -154 119 -190 146 -36 28 -85 64 -110 80
-25 16 -49 33 -55 37 -5 4 -44 28 -85 54 -318 197 -482 336 -665 563 -38 47
-82 100 -99 119 -127 139 -205 214 -369 355 -185 158 -191 163 -405 278 -119
64 -235 128 -257 142 -81 49 -199 79 -335 83 -123 4 -126 4 -184 -27z m6257
-12718 c43 -23 88 -42 100 -42 12 0 40 -11 62 -25 62 -38 76 -43 129 -50 39
-5 56 -14 90 -49 63 -64 136 -106 183 -106 22 0 59 -10 83 -23 108 -57 107
-209 -1 -265 -62 -32 -170 -27 -249 12 -83 41 -186 99 -206 116 -11 9 -62 35
-114 59 -52 24 -128 59 -168 77 -60 28 -84 34 -142 34 -83 0 -126 16 -162 58
-48 58 -49 136 -1 193 44 51 74 60 203 56 113 -4 116 -5 193 -45z m-1004 -60
c48 -35 65 -69 65 -125 -1 -95 -83 -218 -213 -315 -42 -31 -117 -96 -167 -145
-125 -120 -216 -158 -297 -123 -72 29 -110 112 -88 186 12 40 70 100 97 100 9
0 52 35 98 78 45 42 117 106 161 142 51 41 89 83 105 112 32 60 58 87 95 105
38 17 111 9 144 -15z m64 -249 c-27 -42 -144 -193 -149 -193 -3 0 15 28 41 63
25 34 62 87 83 118 37 55 60 66 25 12z m2225 -510 c58 -43 67 -67 70 -181 3
-94 0 -121 -27 -222 -52 -194 -62 -223 -96 -275 -29 -44 -33 -60 -37 -137 -4
-74 -8 -91 -31 -121 -16 -21 -45 -42 -72 -53 -39 -15 -51 -15 -88 -4 -50 15
-102 66 -111 110 -10 51 -7 206 5 237 5 15 28 55 49 88 54 83 90 218 99 365 4
63 12 124 18 135 16 28 54 62 83 74 35 15 108 7 138 -16z m-2758 -502 c14 -9
43 -46 66 -80 23 -34 52 -74 66 -89 14 -15 42 -61 61 -103 19 -42 53 -101 76
-131 27 -37 48 -80 62 -129 12 -41 30 -105 41 -142 51 -175 -7 -302 -137 -302
-91 0 -143 54 -156 162 -8 73 -35 198 -46 217 -4 6 -26 36 -48 66 -23 30 -47
70 -54 88 -8 17 -19 32 -26 32 -22 0 -77 52 -91 87 -8 18 -14 45 -14 61 0 15
-9 45 -20 67 -33 65 -21 134 32 183 49 45 136 51 188 13z m1693 -725 c100 -41
126 -176 50 -248 -30 -28 -117 -67 -228 -103 -76 -25 -209 -55 -238 -55 -10 0
-35 -9 -57 -20 -22 -11 -50 -20 -62 -20 -13 0 -45 -11 -72 -25 -61 -31 -91
-31 -146 -2 -73 39 -101 126 -64 203 21 43 114 112 163 120 20 3 57 14 83 25
26 10 60 19 75 19 43 0 223 40 263 58 143 64 178 72 233 48z"/>
</g>
</svg>
