<?xml version="1.0" standalone="no"?>
<!DOCTYPE svg PUBLIC "-//W3C//DTD SVG 20010904//EN"
 "http://www.w3.org/TR/2001/REC-SVG-20010904/DTD/svg10.dtd">
<svg version="1.0" xmlns="http://www.w3.org/2000/svg"
 width="110592.000000pt" height="110592.000000pt" viewBox="0 0 110592.000000 110592.000000"
 preserveAspectRatio="xMidYMid meet">
<metadata>
Created by potrace 1.11, written by Peter Selinger 2001-2013
</metadata>
<g transform="translate(0.000000,110592.000000) scale(3.072000,-3.072000)"
fill="#000000" stroke="none">
<path d="M11790 28329 c-30 -4 -69 -15 -85 -23 -17 -9 -35 -16 -41 -16 -7 0
-18 -10 -26 -22 -19 -29 -68 -179 -68 -206 0 -12 19 -39 44 -62 26 -24 51 -61
61 -88 51 -135 92 -197 216 -326 67 -70 181 -178 253 -241 171 -148 323 -303
381 -389 86 -126 235 -376 259 -434 65 -153 73 -389 22 -622 -26 -116 -74
-306 -93 -370 -6 -19 -21 -69 -33 -110 -25 -83 -69 -166 -215 -405 -92 -150
-215 -390 -215 -419 0 -8 -6 -19 -14 -25 -7 -6 -16 -33 -20 -60 -3 -27 -27
-107 -51 -179 -26 -74 -50 -166 -56 -214 -6 -46 -15 -91 -20 -100 -21 -41 -7
-297 25 -463 9 -44 18 -100 22 -125 3 -25 9 -54 14 -65 11 -28 91 -265 144
-430 24 -77 59 -178 76 -225 42 -112 135 -418 184 -605 30 -115 60 -352 53
-430 -3 -38 -16 -86 -36 -130 -29 -63 -33 -81 -36 -185 -2 -63 -8 -127 -13
-141 -6 -14 -15 -69 -22 -123 -6 -53 -18 -113 -26 -132 l-14 -34 51 37 c28 20
64 57 80 82 26 43 83 97 252 238 38 31 83 77 100 102 37 54 138 154 234 231
69 56 206 189 323 315 36 39 89 88 118 110 32 24 72 69 101 113 49 74 126 149
270 261 45 35 102 87 127 116 34 41 67 64 140 102 62 31 104 59 117 78 39 57
72 87 131 117 54 27 103 59 260 169 27 19 80 59 116 89 37 30 88 69 113 87 25
17 64 57 87 88 53 72 94 98 191 119 18 4 40 29 79 88 109 169 190 238 295 254
28 4 64 17 80 29 17 13 74 46 128 73 54 28 115 66 136 85 21 19 60 42 87 51
57 20 112 47 171 82 23 14 65 27 95 31 61 6 133 46 218 119 55 47 121 83 152
84 9 0 39 18 68 41 28 22 63 46 78 52 15 7 47 24 72 39 25 15 67 32 94 38 27
6 74 26 105 44 129 76 239 135 281 151 25 9 64 23 86 31 23 8 65 35 94 60 29
24 62 50 74 56 11 6 37 24 56 39 19 15 67 38 105 50 39 12 88 32 110 44 22 13
51 26 65 30 29 8 90 30 215 79 102 40 243 86 264 86 8 0 31 11 50 24 20 14 81
41 135 61 55 19 105 40 111 45 15 12 148 59 200 70 22 5 55 7 73 3 21 -3 49 2
80 15 26 11 83 25 127 31 97 14 127 23 211 67 46 24 79 34 112 34 26 1 65 8
87 16 22 9 67 23 100 31 33 8 92 30 131 50 63 31 82 35 160 38 73 2 102 8 164
34 41 17 98 38 125 45 28 8 89 28 137 45 57 20 107 31 142 31 34 0 73 8 103
21 46 21 63 22 381 22 182 0 332 4 332 8 0 5 -4 9 -9 9 -26 0 -349 152 -367
173 -13 16 -36 26 -67 30 -28 4 -106 36 -197 82 -139 70 -205 99 -255 111 -11
3 -29 9 -40 14 -214 91 -347 145 -389 160 -67 23 -224 88 -256 106 -14 8 -65
27 -115 44 -49 16 -102 39 -117 50 -15 11 -38 20 -51 20 -28 0 -247 59 -332
90 -33 12 -145 61 -250 109 -278 129 -389 177 -490 212 -49 17 -196 73 -326
125 -279 110 -368 143 -509 182 -58 17 -125 39 -150 51 -25 11 -54 21 -64 21
-11 0 -63 14 -115 31 -53 17 -116 38 -141 46 -25 8 -103 32 -175 54 -71 21
-138 44 -147 49 -10 6 -26 10 -36 10 -11 0 -53 16 -95 35 -42 19 -92 35 -111
35 -19 0 -58 9 -86 20 -28 11 -64 20 -80 20 -16 0 -62 7 -102 15 -67 14 -95
23 -140 46 -10 5 -29 9 -43 9 -14 0 -39 7 -56 15 -16 9 -34 13 -39 10 -5 -3
-17 -2 -27 4 -25 12 -155 51 -173 51 -8 0 -34 7 -58 15 -23 8 -86 22 -140 30
-53 9 -115 23 -137 31 -54 21 -289 70 -449 94 -72 10 -161 28 -196 39 -36 12
-86 21 -111 21 -55 0 -200 36 -210 51 -4 8 -8 7 -11 -2 -4 -11 -26 -11 -124
-1 -235 24 -554 51 -844 72 -267 19 -378 30 -595 61 -38 5 -250 14 -470 19
-375 8 -407 10 -520 34 -125 27 -146 29 -235 15z"/>
<path d="M26132 28034 c-12 -8 -22 -26 -22 -40 0 -13 30 -95 66 -182 37 -86
82 -196 100 -244 18 -48 62 -151 98 -228 36 -77 72 -160 80 -184 21 -61 83
-385 90 -471 7 -77 41 -287 56 -350 24 -95 34 -426 23 -746 l-11 -316 -51
-149 c-29 -82 -61 -180 -72 -219 -25 -86 -58 -148 -113 -211 -24 -27 -62 -82
-85 -122 -54 -94 -145 -190 -213 -226 -29 -16 -66 -39 -83 -51 -39 -28 -53
-33 -130 -45 -80 -13 -111 -3 -233 74 -150 95 -166 120 -244 390 -22 77 -53
163 -68 190 -16 28 -33 69 -39 91 -6 23 -42 96 -81 163 -38 68 -70 125 -70
127 0 2 -13 18 -29 35 -16 18 -44 59 -62 92 -19 33 -49 78 -67 101 -18 22 -42
57 -52 78 -26 50 -96 109 -131 109 -45 0 -78 -17 -99 -52 -19 -31 -20 -44 -14
-198 5 -116 12 -181 24 -220 41 -124 50 -333 17 -360 -7 -5 -29 -23 -49 -40
l-37 -31 -164 65 c-229 91 -511 184 -647 212 -63 13 -214 35 -335 49 -121 14
-272 32 -335 40 -83 10 -136 12 -190 5 -41 -5 -145 -9 -232 -10 -149 0 -159
-1 -207 -26 -49 -26 -59 -27 -234 -30 -308 -5 -757 -23 -857 -34 -52 -6 -187
-12 -300 -14 -181 -3 -495 -17 -707 -30 -42 -3 -91 -13 -119 -25 -25 -12 -67
-21 -93 -21 -28 -1 -65 -10 -96 -25 -27 -14 -97 -39 -155 -56 -58 -16 -125
-42 -150 -56 -39 -23 -62 -27 -170 -34 -173 -11 -279 -25 -320 -42 -19 -8 -71
-20 -115 -27 -44 -7 -111 -25 -150 -41 -117 -47 -257 -100 -314 -120 -29 -10
-67 -27 -85 -38 -17 -10 -53 -22 -81 -25 -73 -10 -151 -34 -230 -72 -38 -18
-113 -50 -165 -72 -139 -58 -312 -136 -415 -187 -50 -25 -95 -45 -100 -45 -6
0 -41 -16 -79 -35 -39 -19 -78 -35 -88 -35 -11 0 -53 -20 -96 -45 -42 -25 -81
-45 -86 -45 -5 0 -42 -16 -82 -36 -55 -27 -75 -42 -83 -64 -17 -51 -88 -117
-148 -140 -30 -11 -68 -27 -85 -36 -16 -8 -55 -19 -85 -24 -37 -6 -65 -18 -82
-34 -14 -13 -49 -36 -78 -50 -87 -43 -134 -78 -223 -164 -47 -45 -104 -92
-128 -103 -23 -12 -69 -51 -102 -88 -33 -38 -77 -77 -98 -87 -20 -10 -64 -44
-98 -74 -123 -111 -219 -177 -352 -241 -107 -52 -176 -104 -307 -234 -162
-160 -353 -306 -484 -371 -168 -83 -291 -166 -377 -256 -44 -46 -109 -109
-146 -140 -36 -32 -125 -124 -199 -204 -120 -131 -292 -290 -448 -413 -74 -59
-217 -185 -261 -231 -19 -20 -56 -54 -81 -75 -30 -26 -52 -56 -63 -87 -10 -27
-28 -54 -44 -64 -44 -29 -230 -222 -260 -269 -28 -44 -118 -132 -182 -175 -19
-13 -58 -44 -85 -69 -28 -25 -78 -67 -112 -93 -35 -26 -86 -78 -115 -114 -29
-37 -91 -108 -138 -158 -47 -50 -103 -115 -125 -144 -21 -28 -57 -64 -80 -79
-69 -46 -175 -146 -211 -200 -19 -29 -40 -53 -47 -53 -7 0 -32 -16 -56 -35
-50 -40 -58 -42 -63 -17 -2 11 -18 -11 -44 -58 -31 -58 -51 -83 -89 -108 -27
-18 -62 -36 -78 -39 -21 -4 -38 -21 -64 -60 -19 -30 -44 -59 -56 -64 -13 -6
-40 -45 -64 -92 -24 -45 -83 -136 -133 -202 -50 -66 -111 -162 -137 -213 -53
-105 -67 -121 -218 -254 -148 -130 -152 -133 -244 -178 -97 -48 -128 -55 -296
-70 -71 -6 -157 -17 -190 -25 -102 -24 -202 -27 -310 -10 -55 8 -147 22 -204
31 -57 9 -131 24 -163 34 -46 14 -65 16 -87 7 -26 -10 -31 -7 -60 26 -49 56
-112 81 -196 80 -101 -2 -139 22 -240 153 -16 22 -29 44 -27 51 1 6 -27 21
-62 33 -35 11 -70 28 -76 36 -7 8 -16 14 -21 14 -5 0 -35 17 -67 38 -32 21
-96 56 -143 79 -46 22 -154 75 -240 117 -85 42 -173 91 -195 109 -21 19 -46
36 -55 39 -14 5 -159 96 -184 115 -5 5 -22 16 -37 26 -16 10 -28 24 -28 32 0
8 -7 15 -16 15 -9 0 -41 15 -72 34 -112 67 -590 335 -732 411 -214 115 -476
234 -845 386 -93 39 -267 113 -386 164 -222 97 -582 232 -679 255 -30 7 -66
18 -80 25 -14 7 -70 23 -125 35 -84 18 -161 24 -470 35 -368 14 -581 27 -705
45 -36 5 -93 10 -126 10 -34 0 -99 7 -145 16 -94 18 -185 16 -563 -10 -299
-20 -478 -41 -536 -61 -25 -9 -58 -17 -75 -17 -16 -1 -34 -7 -40 -13 -5 -7
-91 -45 -190 -84 -99 -39 -236 -102 -305 -139 -165 -90 -359 -227 -442 -312
-37 -38 -85 -81 -107 -96 -23 -15 -41 -33 -41 -40 0 -8 -5 -14 -11 -14 -20 0
-219 -203 -238 -244 -11 -22 -21 -63 -23 -91 -3 -45 -1 -51 23 -62 15 -7 54
-16 88 -19 l61 -7 -7 -39 c-7 -48 4 -58 67 -58 35 0 73 14 175 66 71 35 136
71 145 78 8 8 63 37 121 65 59 28 109 57 112 65 9 23 129 75 231 101 133 34
302 47 601 48 213 1 270 -2 315 -15 30 -9 95 -21 144 -28 155 -20 282 -70 561
-222 61 -33 127 -73 147 -89 20 -16 41 -29 47 -29 12 0 91 -83 129 -135 52
-72 118 -138 193 -196 87 -66 117 -98 155 -169 15 -28 31 -50 35 -50 5 0 27
-33 50 -73 23 -39 59 -97 79 -127 67 -98 88 -147 225 -505 13 -33 37 -123 55
-200 17 -77 42 -174 55 -215 13 -41 40 -138 60 -215 21 -77 52 -183 70 -235
17 -52 49 -167 70 -255 20 -88 48 -196 61 -240 31 -106 139 -702 159 -882 9
-78 20 -156 25 -174 9 -30 17 -130 40 -489 11 -166 26 -325 55 -565 8 -71 15
-159 15 -195 0 -36 5 -83 10 -105 6 -22 19 -137 30 -255 11 -118 27 -240 35
-271 8 -31 22 -132 30 -225 9 -97 24 -195 35 -229 11 -33 24 -94 30 -135 13
-88 74 -365 95 -431 8 -26 15 -55 15 -66 0 -11 11 -57 25 -103 37 -123 55
-239 62 -390 5 -110 3 -146 -11 -193 -23 -81 -90 -230 -128 -290 -18 -28 -40
-69 -49 -92 -22 -58 -229 -373 -318 -485 -41 -52 -107 -129 -146 -170 -38 -42
-82 -92 -97 -112 -15 -20 -80 -74 -144 -120 -64 -45 -146 -105 -183 -131 -36
-27 -91 -64 -121 -84 -30 -19 -59 -40 -65 -47 -23 -26 -98 -78 -220 -151 -142
-85 -185 -119 -185 -147 0 -38 40 -99 76 -114 57 -24 144 -29 188 -10 38 16
40 15 93 -9 74 -36 153 -48 258 -42 81 5 100 10 195 55 58 27 148 66 200 87
52 21 107 46 121 56 15 10 39 23 54 29 15 6 39 20 54 31 56 44 345 229 357
229 6 0 19 11 28 25 9 14 23 25 31 25 8 0 18 6 22 14 4 8 40 37 78 64 39 27
128 99 199 158 219 186 358 294 378 294 10 0 18 6 18 13 0 15 80 84 124 107
31 16 148 103 311 233 49 40 229 209 400 377 170 168 333 323 360 345 90 72
343 303 629 574 69 66 286 295 407 431 86 97 255 315 279 360 7 14 36 54 65
90 84 103 122 159 166 245 42 81 192 308 372 560 176 247 323 467 397 595 40
69 90 150 111 181 43 63 133 211 192 314 22 39 54 88 71 110 18 22 51 73 74
112 58 99 153 224 207 271 44 39 46 39 147 46 127 8 321 33 368 46 50 14 97
12 124 -5 13 -9 56 -24 95 -35 77 -22 149 -55 221 -104 68 -46 229 -196 285
-266 160 -199 236 -272 415 -400 52 -37 133 -102 180 -144 122 -110 201 -160
296 -186 44 -12 104 -38 134 -57 52 -34 72 -50 200 -153 27 -23 68 -47 91 -55
23 -9 64 -35 90 -60 26 -25 74 -57 106 -72 33 -16 81 -52 113 -83 52 -53 184
-147 260 -185 19 -9 53 -34 75 -55 39 -38 74 -56 188 -100 31 -12 76 -36 100
-53 23 -17 78 -53 122 -80 44 -27 98 -64 120 -81 22 -18 72 -45 110 -60 39
-16 84 -36 101 -47 16 -10 55 -25 85 -33 79 -21 99 -30 144 -66 38 -30 63 -44
195 -110 32 -16 91 -62 140 -110 47 -46 100 -89 118 -97 19 -8 56 -35 83 -60
42 -39 56 -46 106 -53 74 -9 99 -20 151 -63 23 -20 57 -39 74 -42 52 -12 104
-42 162 -94 43 -39 66 -52 110 -61 32 -7 78 -26 109 -47 28 -19 72 -46 97 -58
25 -13 69 -44 98 -69 30 -25 61 -46 71 -46 9 0 59 -22 111 -49 52 -26 117 -54
144 -60 27 -7 62 -21 77 -32 16 -11 53 -28 83 -39 30 -10 74 -30 98 -43 24
-14 59 -28 78 -32 19 -4 48 -14 63 -22 35 -17 307 -73 362 -73 60 0 216 -35
261 -58 21 -11 59 -23 84 -26 40 -6 190 -35 349 -67 30 -6 60 -17 67 -24 7 -7
50 -18 95 -24 51 -8 113 -27 168 -50 47 -21 131 -53 186 -71 55 -18 113 -40
130 -48 18 -9 95 -20 205 -28 211 -17 289 -33 440 -91 313 -120 371 -154 477
-272 47 -53 120 -141 161 -196 222 -296 394 -455 812 -746 321 -225 565 -369
740 -437 139 -54 414 -140 625 -196 116 -31 264 -74 330 -97 238 -82 260 -89
280 -89 11 0 41 -10 66 -23 25 -13 125 -43 224 -67 139 -35 179 -48 183 -62 5
-20 23 -23 38 -9 9 10 216 -31 311 -62 26 -9 158 -36 293 -62 135 -25 286 -55
335 -66 78 -17 131 -20 405 -22 l315 -2 87 43 c82 41 89 43 124 32 67 -22 165
-8 326 48 81 28 186 58 234 67 88 16 201 54 241 80 29 19 199 94 243 107 19 6
64 27 100 48 36 21 90 47 120 57 46 15 113 52 330 180 14 8 93 47 175 88 159
77 200 100 388 214 119 72 245 145 325 187 53 28 153 93 167 108 6 6 32 22 58
36 26 14 71 43 100 64 62 48 164 113 307 196 58 34 110 64 116 68 6 4 48 32
95 63 46 31 172 103 279 159 107 56 200 105 205 110 25 19 314 168 350 180 22
7 44 19 48 26 4 8 12 14 16 14 4 0 73 37 152 81 79 45 164 93 189 106 160 88
553 346 762 500 96 71 310 220 474 332 353 239 360 244 399 277 17 14 74 57
127 95 53 38 132 97 175 131 43 34 92 70 109 79 18 9 63 43 100 77 110 96 284
243 347 292 33 25 80 62 105 82 26 20 51 37 55 37 4 1 13 5 20 11 142 113 478
378 527 415 181 137 544 493 894 878 103 114 192 207 197 207 5 0 9 7 9 15 0
16 61 76 86 85 8 3 28 28 46 57 42 64 196 259 266 334 28 31 69 64 90 74 20
10 48 24 62 32 14 7 57 30 95 49 39 20 112 66 163 103 52 36 110 77 131 91 57
39 237 239 337 375 80 108 121 196 134 284 7 42 16 81 22 88 6 7 7 30 3 52
-17 101 -124 195 -216 189 -34 -2 -45 0 -42 10 3 6 11 12 18 12 23 0 48 99 49
190 l1 85 -74 110 c-41 61 -105 147 -144 193 -38 46 -96 118 -129 160 -75 95
-419 438 -484 481 -26 18 -97 57 -158 88 -194 96 -192 96 -561 488 -301 320
-925 934 -1000 985 -27 18 -313 296 -373 363 -23 26 -47 47 -52 47 -5 0 -11 8
-14 18 -3 9 -21 27 -39 40 -19 12 -58 46 -89 75 -30 29 -108 100 -173 157
-150 132 -143 126 -212 182 -32 26 -82 67 -112 92 -30 25 -58 46 -62 46 -4 0
-10 8 -13 18 -4 10 -22 26 -40 35 -19 9 -88 60 -153 113 -65 54 -143 114 -173
133 -30 20 -66 47 -80 60 -14 13 -86 70 -160 127 -74 58 -142 113 -150 122 -8
9 -53 42 -100 73 -47 31 -110 76 -140 100 -70 56 -207 145 -312 205 -92 52
-247 154 -291 190 -16 13 -35 24 -44 24 -17 0 -202 122 -300 197 -34 27 -119
93 -189 148 -135 107 -215 163 -279 197 -22 11 -141 87 -265 168 -124 81 -263
169 -310 195 -47 26 -103 60 -125 75 -56 38 -322 175 -368 190 -47 15 -190
119 -214 157 -14 22 -18 46 -17 123 1 110 16 195 85 485 80 339 88 381 111
575 17 134 23 236 22 370 0 211 -12 311 -60 532 -19 86 -34 162 -34 168 0 6
-8 30 -19 53 -10 23 -46 105 -80 183 -91 207 -247 483 -351 618 -60 78 -124
178 -180 281 -24 44 -51 92 -61 106 -17 24 -64 108 -249 449 -121 223 -190
335 -287 465 -101 136 -222 269 -265 291 -35 18 -78 18 -106 -2z m534 -6969
c48 -20 100 -71 125 -123 l23 -47 -1 -480 c-1 -461 -2 -483 -23 -548 l-21 -68
20 -122 c18 -110 21 -172 22 -612 2 -464 3 -493 22 -540 18 -47 20 -77 22
-565 l2 -515 32 -85 c18 -47 36 -98 40 -115 5 -16 16 -52 25 -78 9 -26 16 -72
16 -101 0 -32 8 -72 21 -100 11 -27 22 -75 24 -110 1 -37 11 -78 23 -102 11
-21 25 -63 31 -92 6 -29 22 -70 36 -90 14 -20 25 -41 25 -45 0 -5 25 -53 55
-106 34 -59 62 -126 74 -173 11 -42 29 -95 41 -118 11 -22 25 -65 31 -95 6
-32 24 -75 44 -105 19 -28 37 -68 41 -88 4 -20 19 -51 34 -68 15 -17 47 -69
73 -115 40 -73 61 -98 161 -186 63 -57 122 -103 130 -103 19 0 64 -19 96 -41
28 -19 134 -49 172 -49 14 0 56 -9 94 -20 38 -12 101 -30 139 -41 39 -11 101
-34 138 -51 38 -17 96 -39 129 -49 33 -10 77 -29 97 -44 32 -22 53 -27 153
-34 63 -5 126 -15 139 -22 18 -11 89 -14 304 -15 255 -2 284 -4 325 -22 40
-17 68 -19 240 -19 l195 0 75 -33 c103 -45 122 -60 190 -151 65 -87 84 -147
74 -224 -4 -28 -2 -50 5 -59 41 -49 31 -133 -22 -184 -28 -28 -46 -35 -103
-43 -39 -5 -74 -16 -80 -24 -6 -8 -21 -15 -33 -15 -11 0 -21 -4 -21 -10 0 -11
-51 -26 -150 -41 -56 -9 -99 -9 -170 0 -52 6 -162 16 -245 22 -191 13 -317 32
-480 70 -71 17 -146 33 -165 36 -19 3 -39 9 -45 13 -5 5 -95 31 -200 60 -234
63 -381 111 -460 152 -64 32 -339 130 -490 173 -99 29 -300 128 -355 175 -19
17 -55 39 -80 51 -25 11 -58 27 -75 36 -152 82 -142 73 -336 290 -133 149
-183 236 -195 345 -5 44 -21 90 -55 158 -26 52 -51 109 -55 125 -4 17 -13 43
-21 58 -8 16 -19 69 -24 118 -5 49 -16 106 -25 127 -9 21 -16 72 -18 117 -1
44 -7 89 -13 100 -6 11 -29 74 -51 140 -22 66 -52 152 -67 190 -22 59 -27 91
-31 200 -2 78 -11 152 -20 185 -15 49 -17 153 -18 910 -2 657 -5 862 -15 885
-17 40 -21 116 -26 430 -2 149 -8 344 -15 435 -25 366 -11 667 39 838 11 37
28 94 37 127 10 33 16 66 15 73 -1 7 3 37 9 67 32 155 198 242 346 180z m2699
-280 c241 -61 443 -266 505 -511 24 -93 26 -228 5 -329 -8 -39 -35 -112 -62
-165 -89 -176 -248 -305 -443 -359 -92 -26 -254 -28 -350 -5 -327 76 -559 393
-537 732 7 107 45 229 98 319 19 31 70 93 114 138 66 67 96 90 165 123 78 37
161 64 235 76 52 8 207 -3 270 -19z"/>
<path d="M12265 14148 c11 -191 10 -189 40 -298 15 -52 29 -106 32 -120 3 -14
12 -34 18 -45 7 -11 18 -42 24 -68 6 -27 36 -106 66 -176 30 -70 55 -138 55
-151 0 -13 8 -33 18 -44 11 -12 31 -57 47 -101 28 -83 90 -206 132 -262 28
-39 63 -118 63 -144 0 -11 7 -19 18 -19 46 -1 119 -195 152 -400 6 -41 39
-183 72 -315 104 -415 101 -393 81 -860 -10 -213 -15 -258 -47 -405 -50 -232
-68 -420 -67 -684 1 -278 -34 -599 -91 -821 -14 -58 -18 -94 -13 -130 4 -27 8
-88 10 -135 2 -49 8 -86 14 -88 6 -2 11 -9 11 -17 0 -7 7 -19 17 -26 9 -8 33
-37 55 -66 54 -74 103 -87 287 -80 121 4 151 9 271 45 74 22 182 61 240 85
131 55 409 194 516 258 45 27 87 49 93 49 6 0 19 8 29 18 9 9 56 42 102 73 74
49 132 83 373 218 23 13 94 56 157 96 128 80 302 180 429 245 87 45 232 150
381 274 47 39 105 87 130 107 25 20 81 69 125 109 44 40 90 77 103 83 12 6 22
16 22 23 0 7 46 52 103 101 138 120 156 133 183 133 14 0 25 8 29 19 17 54
238 229 525 415 80 52 176 121 214 153 80 68 134 103 159 103 9 0 17 6 17 14
0 8 41 52 90 99 l90 85 -67 11 c-111 18 -183 37 -283 76 -63 25 -122 39 -175
45 -45 4 -117 21 -165 37 -158 56 -258 85 -340 98 -25 4 -65 17 -90 29 -25 13
-76 26 -114 30 -86 9 -153 42 -201 100 -20 24 -50 49 -67 55 -17 6 -46 23 -65
37 -18 14 -59 37 -91 51 -31 14 -87 47 -123 74 -36 26 -85 57 -107 68 -23 12
-63 43 -89 70 -39 41 -74 62 -193 116 -93 42 -157 78 -181 101 -26 25 -58 42
-112 59 -42 13 -89 32 -104 42 -16 11 -66 38 -113 61 -47 23 -101 50 -120 61
-19 11 -50 25 -69 32 -18 7 -51 27 -73 46 -23 19 -51 33 -66 33 -38 1 -103 32
-148 72 -22 19 -55 38 -74 42 -19 3 -68 28 -110 55 -41 26 -95 58 -120 71
-174 88 -231 119 -272 148 -50 35 -185 102 -204 102 -7 0 -36 16 -65 36 -89
60 -128 76 -164 70 -79 -15 -190 36 -237 109 -14 21 -39 40 -64 50 -25 9 -74
49 -130 103 -49 48 -114 102 -145 119 -31 18 -69 47 -85 66 -16 19 -47 44 -69
55 -50 25 -92 70 -138 148 -48 80 -122 136 -202 152 -33 7 -76 23 -97 37 -21
14 -41 25 -44 25 -4 0 -3 -64 1 -142z"/>
</g>
</svg>
