<?xml version="1.0" encoding="UTF-8" standalone="no"?>
<svg
   xmlns:dc="http://purl.org/dc/elements/1.1/"
   xmlns:cc="http://creativecommons.org/ns#"
   xmlns:rdf="http://www.w3.org/1999/02/22-rdf-syntax-ns#"
   xmlns:svg="http://www.w3.org/2000/svg"
   xmlns="http://www.w3.org/2000/svg"
   xmlns:sodipodi="http://sodipodi.sourceforge.net/DTD/sodipodi-0.dtd"
   xmlns:inkscape="http://www.inkscape.org/namespaces/inkscape"
   version="1.0"
   width="1536"
   height="1536"
   viewBox="0 0 1228.8 1228.8"
   preserveAspectRatio="xMidYMid meet"
   id="svg4248"
   inkscape:version="0.48.4 r9939"
   sodipodi:docname="fitoplancton.svg">
  <defs
     id="defs4260" />
  <sodipodi:namedview
     pagecolor="#ffffff"
     bordercolor="#666666"
     borderopacity="1"
     objecttolerance="10"
     gridtolerance="10"
     guidetolerance="10"
     inkscape:pageopacity="0"
     inkscape:pageshadow="2"
     inkscape:window-width="1867"
     inkscape:window-height="1060"
     id="namedview4258"
     showgrid="false"
     inkscape:zoom="0.16384298"
     inkscape:cx="2678.8156"
     inkscape:cy="-114.19786"
     inkscape:window-x="50"
     inkscape:window-y="-3"
     inkscape:window-maximized="1"
     inkscape:current-layer="svg4248"
     fit-margin-top="0"
     fit-margin-left="0"
     fit-margin-right="0"
     fit-margin-bottom="0" />
  <metadata
     id="metadata4250">
Created by potrace 1.11, written by Peter Selinger 2001-2013
<rdf:RDF>
  <cc:Work
     rdf:about="">
    <dc:format>image/svg+xml</dc:format>
    <dc:type
       rdf:resource="http://purl.org/dc/dcmitype/StillImage" />
    <dc:title />
  </cc:Work>
</rdf:RDF>
</metadata>
  <g
     id="g2983"
     transform="matrix(2.4272323,0,0,2.6536029,-170.03493,-30.770279)">
    <path
       sodipodi:nodetypes="cccccccccccccccccccccccccccc"
       inkscape:connector-curvature="0"
       id="path4254"
       d="M 269,11.7 C 237.90652,18.821658 207.45308,28.871279 180.28555,45.956445 149.24913,61.952823 123.72331,87.878074 107.85,118.9875 c -14.336958,19.42984 -22.686354,35.28257 -32.970681,56.78841 12.335044,19.71778 7.911939,16.95162 -3.389158,31.25727 -0.577947,31.99647 -5.097753,78.38098 5.611401,109.31995 2.939794,21.53449 8.416407,42.41068 17.557813,62.19218 8.895965,22.86864 22.943625,43.27533 42.067045,58.80125 28.53007,30.34161 72.46996,40.75358 112.76108,36.35344 35.77332,-10.17199 63.06363,-40.22463 78.99954,-71.99182 13.79708,-16.63347 8.99414,-35.42431 -8.22142,-20.75349 -18.67914,19.18265 -28.89476,45.63089 -51.83046,60.95075 -19.4475,15.07224 -46.63125,9.19234 -68.98829,5.41331 -25.69117,-6.46837 -48.88246,-22.13986 -61.06914,-46.18066 -13.86876,-20.99067 -26.66194,-44.56987 -26.1666,-70.46739 -2.36629,-16.08703 3.86848,-32.47076 13.49629,-39.17102 -0.11848,-17.4629 3.24181,-34.93205 14.57852,-48.88562 13.93851,-19.868 29.02668,-39.07549 36.67656,-62.47656 1.47458,-17.7675 25.39398,-39.32088 15.15,-54.5625 -29.36103,10.20575 -23.47665,-32.109423 -3.58438,-40.45 18.32599,-12.808974 35.76785,-27.435672 56.45879,-36.408203 23.66877,-7.682803 49.47261,-5.485226 74.0127,-4.753711 C 351.37107,49.878281 385.10331,56.777605 413,75.1 c 20.28999,14.495291 39.56451,30.0018 57.71875,47.11875 8.62411,10.00692 30.03896,8.43067 15.91719,-6.32344 C 468.51783,90.832312 448.49894,66.404763 421.3,50.7 398.39243,33.459371 371.53077,22.539563 343.5,17 319.38029,9.8508135 293.82323,11.948986 269,11.7 z"
       style="fill:#000000;stroke:none" />
    <path
       sodipodi:nodetypes="ccccccccccccccccccc"
       inkscape:connector-curvature="0"
       id="path4256"
       d="m 204.6,128.6 c -4.30637,44.73162 -15.6386,56.49902 -28.94894,83.56797 -17.04626,23.42734 -38.32039,46.30029 -36.22228,77.53635 -0.14187,13.62213 24.44433,-4.8721 34.64248,1.63606 23.22607,-2.07636 33.15217,-13.38597 53.35374,-24.40913 21.00898,-14.60428 55.7622,-17.27413 81.875,-8.33125 28.54155,9.71805 47.70445,16.04313 74.43357,30.33486 22.58916,8.41345 54.09584,21.56248 77.78987,26.68858 24.34735,6.59253 48.22235,14.5005 71.63437,24.08125 87.49712,28.08622 17.86755,-11.94715 -0.40293,-20.09499 -22.97939,-11.41585 -35.2606,-14.0929 -57.54807,-26.0063 C 455.40643,282.45108 423.35669,265.0582 401.96484,256.91855 369.28206,240.57538 335.19656,227.26676 303.50149,209.01016 278.45994,196.68459 282.83527,194.55664 259.66975,179.61213 248.37789,158.73161 230.68592,142.02795 208.075,127.325 l -1.6625,0.0187 -1.8125,1.25625 0,0 z"
       style="fill:#000000;stroke:none" />
  </g>
</svg>
