<?xml version="1.0" standalone="no"?>
<!DOCTYPE svg PUBLIC "-//W3C//DTD SVG 20010904//EN"
 "http://www.w3.org/TR/2001/REC-SVG-20010904/DTD/svg10.dtd">
<svg version="1.0" xmlns="http://www.w3.org/2000/svg"
 width="110592.000000pt" height="110592.000000pt" viewBox="0 0 110592.000000 110592.000000"
 preserveAspectRatio="xMidYMid meet">
<metadata>
Created by potrace 1.11, written by Peter Selinger 2001-2013
</metadata>
<g transform="translate(0.000000,110592.000000) scale(18.432000,-22.849587)"
fill="#000000" stroke="none">
<path d="M2690 4723 c-27 -4 -72 -17 -339 -93 -159 -45 -189 -58 -375 -156
-110 -58 -208 -112 -216 -119 -8 -7 -39 -25 -69 -40 -29 -14 -63 -36 -76 -48
-12 -12 -48 -40 -80 -62 -90 -61 -107 -78 -221 -212 -116 -137 -149 -182 -192
-264 -32 -62 -50 -92 -102 -169 -47 -71 -158 -300 -177 -365 -8 -27 -30 -81
-48 -118 l-34 -68 31 -43 c35 -50 29 -75 -21 -96 -16 -6 -32 -19 -36 -28 -13
-35 -25 -238 -31 -542 -6 -343 -7 -335 55 -575 17 -66 31 -131 31 -145 0 -14
7 -57 15 -95 9 -39 20 -95 26 -125 6 -30 21 -75 34 -100 12 -25 36 -83 53
-130 38 -105 78 -196 102 -230 11 -15 38 -65 61 -111 36 -72 59 -101 163 -204
151 -149 226 -214 355 -306 155 -112 508 -197 772 -186 125 4 127 5 235 53
143 64 238 129 320 222 36 42 77 84 90 95 13 10 31 35 41 55 10 20 39 65 65
100 26 34 66 100 87 147 25 52 54 96 77 117 73 64 74 66 74 111 0 63 -48 99
-103 78 -54 -21 -196 -191 -256 -309 -24 -46 -171 -218 -227 -267 -183 -157
-219 -171 -444 -167 -196 3 -296 19 -434 72 -181 69 -254 110 -332 192 -89 92
-139 160 -204 279 -29 52 -70 117 -91 146 -43 57 -47 66 -77 168 -11 39 -33
108 -48 155 -25 81 -26 90 -20 245 8 225 32 298 97 299 l34 1 7 135 c5 84 14
151 24 178 27 71 102 202 166 286 32 43 67 95 78 115 10 20 38 57 62 83 25 28
59 83 82 135 73 162 128 297 162 396 18 54 43 115 56 135 64 102 86 211 48
232 -15 8 -23 6 -37 -8 -16 -17 -24 -18 -69 -8 -70 15 -124 63 -128 114 -3 43
16 123 38 156 8 13 51 62 96 109 65 69 105 101 198 156 65 38 128 81 142 96
34 37 107 82 226 138 124 59 178 67 495 74 179 4 246 2 315 -11 49 -8 118 -20
154 -26 36 -7 81 -18 101 -25 19 -7 76 -23 125 -34 205 -49 446 -149 534 -222
81 -68 183 -143 230 -168 27 -15 112 -88 188 -162 97 -95 153 -142 192 -161
137 -66 164 -69 176 -22 7 27 -19 71 -101 169 -23 28 -60 77 -83 110 -43 64
-56 79 -160 194 -63 70 -289 249 -359 284 -17 9 -68 42 -113 72 -123 85 -173
112 -257 141 -43 14 -109 39 -148 54 -38 16 -97 34 -130 40 -33 6 -91 20 -130
30 -160 43 -208 49 -465 53 -140 2 -266 2 -280 0z"/>
<path d="M2046 3554 c-9 -8 -16 -25 -16 -37 0 -11 -9 -39 -19 -61 -62 -134
-101 -226 -110 -262 -6 -23 -31 -83 -55 -135 -24 -52 -55 -126 -69 -164 -39
-111 -86 -196 -137 -251 -26 -27 -55 -65 -65 -84 -9 -18 -41 -66 -71 -106 -72
-97 -104 -154 -141 -249 -27 -69 -33 -98 -39 -207 -6 -112 -4 -128 9 -128 9 0
22 9 30 20 23 33 79 49 193 56 164 9 357 54 469 108 51 25 106 48 121 52 54
13 124 54 162 95 20 22 60 52 87 66 58 31 221 63 317 63 87 0 302 -42 381 -76
57 -24 123 -46 332 -111 107 -33 189 -66 310 -123 274 -130 328 -153 410 -175
39 -10 81 -26 95 -35 53 -35 216 -92 300 -105 25 -4 70 -18 100 -31 30 -13 78
-28 105 -33 111 -21 245 -61 301 -89 32 -16 109 -46 169 -67 61 -20 121 -43
135 -50 37 -19 108 -4 137 30 28 32 29 54 3 105 -18 35 -35 47 -123 91 -109
55 -184 85 -312 126 -116 37 -151 51 -240 94 -44 21 -127 59 -185 84 -58 25
-114 54 -125 64 -44 41 -220 131 -395 202 -58 24 -188 84 -290 135 -102 51
-234 113 -295 137 -118 48 -244 109 -285 137 -41 28 -319 170 -333 170 -16 0
-48 23 -101 74 -23 21 -75 58 -117 82 -93 54 -170 130 -205 203 -31 66 -77
122 -136 164 -24 17 -72 56 -108 87 -36 30 -78 62 -94 70 -15 8 -33 26 -38 40
-15 41 -37 49 -62 24z"/>
</g>
</svg>
