<?xml version="1.0" standalone="no"?>
<!DOCTYPE svg PUBLIC "-//W3C//DTD SVG 20010904//EN"
 "http://www.w3.org/TR/2001/REC-SVG-20010904/DTD/svg10.dtd">
<svg version="1.0" xmlns="http://www.w3.org/2000/svg"
 width="110592.000000pt" height="110592.000000pt" viewBox="0 0 110592.000000 110592.000000"
 preserveAspectRatio="xMidYMid meet">
<metadata>
Created by potrace 1.11, written by Peter Selinger 2001-2013
</metadata>
<g transform="translate(0.000000,110592.000000) scale(30.978151,-33.614590)"
fill="#000000" stroke="none">
<path d="M1700 2979 c-24 -5 -58 -15 -75 -23 -16 -8 -43 -18 -60 -22 -49 -11
-156 -68 -220 -117 -192 -146 -331 -360 -421 -650 -10 -32 -25 -64 -33 -71
-76 -68 -82 -75 -72 -94 14 -26 51 -38 159 -52 51 -7 144 -26 205 -42 295 -80
336 -87 382 -66 53 24 46 92 -21 207 -26 45 -45 83 -43 85 5 4 202 -12 237
-20 15 -3 29 -19 42 -48 l19 -44 68 -9 c37 -4 181 -6 318 -4 138 2 325 4 418
5 92 0 167 4 167 8 0 5 3 7 8 6 18 -5 50 14 60 37 14 30 -2 52 -73 98 -43 28
-53 42 -81 107 -59 141 -162 285 -301 423 -145 143 -279 224 -468 284 -39 13
-158 14 -215 2z m248 -59 c41 -15 37 -31 -14 -48 -41 -14 -252 -12 -286 3 -40
16 -9 45 62 59 42 8 203 -2 238 -14z"/>
<path d="M2735 1990 c-3 -5 -1 -10 4 -10 6 0 11 5 11 10 0 6 -2 10 -4 10 -3 0
-8 -4 -11 -10z"/>
<path d="M2706 1959 c-66 -21 -109 -29 -163 -29 -42 0 -106 -9 -149 -20 -60
-16 -79 -18 -97 -9 -19 11 -20 10 -9 -3 17 -21 1 -25 -175 -39 -113 -10 -151
-9 -187 1 -49 14 -53 18 -33 40 6 8 0 4 -15 -9 -16 -14 -28 -30 -28 -37 0 -16
90 -44 145 -45 65 -2 256 21 314 37 30 9 62 13 73 11 10 -3 18 -2 18 3 0 13
41 22 150 30 59 4 131 16 165 28 83 28 123 34 146 21 17 -9 18 -13 8 -27 -11
-14 -11 -15 1 -4 8 6 22 12 32 12 25 0 23 37 -3 50 -40 22 -102 18 -193 -11z"/>
<path d="M790 1887 c-47 -22 -73 -45 -67 -61 7 -18 107 -40 145 -32 16 4 67
-6 129 -23 99 -29 182 -39 233 -27 83 20 153 25 205 17 6 -1 1 -8 -9 -16 -11
-8 -16 -15 -10 -15 18 1 67 48 60 58 -13 21 -110 24 -208 7 -73 -12 -102 -14
-117 -5 -16 8 -21 8 -21 -1 0 -7 -7 -8 -17 -4 -10 4 -30 8 -44 10 -14 2 -54
13 -90 24 -41 12 -89 19 -132 19 -110 -3 -109 33 2 52 l46 8 -40 0 c-22 0 -51
-5 -65 -11z"/>
<path d="M970 1896 c0 -2 11 -6 25 -8 13 -3 22 -1 19 3 -5 9 -44 13 -44 5z"/>
<path d="M2834 1868 l-19 -23 23 19 c12 11 22 21 22 23 0 8 -8 2 -26 -19z"/>
<path d="M1090 1836 c0 -2 8 -10 18 -17 15 -13 16 -12 3 4 -13 16 -21 21 -21
13z"/>
<path d="M1722 1827 c-18 -22 -25 -93 -13 -130 7 -20 31 -71 54 -114 75 -140
119 -243 126 -296 l8 -52 7 37 c16 73 -9 214 -57 328 -24 58 -47 129 -50 159
-4 29 -12 59 -18 67 -14 18 -43 18 -57 1z"/>
<path d="M2770 1830 c-9 -6 -10 -10 -3 -10 6 0 15 5 18 10 8 12 4 12 -15 0z"/>
<path d="M2816 1806 c18 -14 18 -15 -11 -22 -32 -9 -170 -10 -560 -4 -281 4
-328 -2 -339 -46 -12 -46 7 -113 63 -224 60 -119 66 -149 63 -340 -1 -96 -6
-176 -11 -178 -11 -4 24 -123 40 -132 42 -26 232 75 392 208 122 101 194 180
263 284 53 81 60 99 84 207 13 57 26 92 43 110 13 14 32 37 41 52 14 23 14 27
0 47 -8 12 -20 22 -25 22 -6 0 -17 7 -25 15 -9 8 -20 15 -27 15 -6 0 -2 -6 9
-14z"/>
<path d="M791 1735 c0 -11 -11 -25 -23 -30 -18 -8 -23 -18 -22 -46 2 -63 13
-87 74 -157 33 -38 71 -94 86 -123 56 -114 172 -276 250 -350 87 -82 204 -146
282 -156 83 -9 98 -1 117 63 10 36 28 67 48 87 18 17 24 25 14 17 -9 -7 -20
-11 -23 -8 -2 3 12 65 32 139 47 175 74 316 74 389 l0 59 -37 10 c-53 13 -308
31 -446 31 -88 0 -148 7 -260 30 -81 17 -148 30 -151 30 -2 0 -7 8 -9 18 -4
14 -5 14 -6 -3z"/>
<path d="M1348 1723 c12 -2 30 -2 40 0 9 3 -1 5 -23 4 -22 0 -30 -2 -17 -4z"/>
<path d="M1815 1302 c0 -163 -12 -211 -53 -213 -24 -2 -24 -2 -4 -6 12 -2 22
-7 22 -9 0 -3 -22 -44 -48 -92 -26 -48 -56 -106 -65 -130 -23 -58 -22 -132 4
-187 12 -25 19 -48 17 -51 -7 -6 -48 90 -48 110 0 30 -20 16 -21 -14 -1 -16
-2 -36 -2 -42 -3 -49 41 -198 76 -258 38 -67 131 -200 139 -200 16 0 8 28 -33
116 -91 196 -116 294 -98 390 12 63 33 111 111 249 31 55 60 116 64 135 14 67
6 194 -17 256 -38 104 -44 97 -44 -54z"/>
<path d="M1680 1070 c-8 -5 -10 -10 -5 -10 6 0 17 5 25 10 8 5 11 10 5 10 -5
0 -17 -5 -25 -10z"/>
<path d="M1937 1049 c7 -7 15 -10 18 -7 3 3 -2 9 -12 12 -14 6 -15 5 -6 -5z"/>
</g>
</svg>
