<?xml version="1.0" encoding="UTF-8" standalone="no"?>
<svg
   xmlns:dc="http://purl.org/dc/elements/1.1/"
   xmlns:cc="http://creativecommons.org/ns#"
   xmlns:rdf="http://www.w3.org/1999/02/22-rdf-syntax-ns#"
   xmlns:svg="http://www.w3.org/2000/svg"
   xmlns="http://www.w3.org/2000/svg"
   xmlns:sodipodi="http://sodipodi.sourceforge.net/DTD/sodipodi-0.dtd"
   xmlns:inkscape="http://www.inkscape.org/namespaces/inkscape"
   version="1.0"
   width="1536"
   height="1536"
   viewBox="0 0 1228.8 1228.8"
   preserveAspectRatio="xMidYMid meet"
   id="svg4386"
   inkscape:version="0.48.4 r9939"
   sodipodi:docname="flechasdemar.svg">
  <defs
     id="defs4396" />
  <sodipodi:namedview
     pagecolor="#ffffff"
     bordercolor="#666666"
     borderopacity="1"
     objecttolerance="10"
     gridtolerance="10"
     guidetolerance="10"
     inkscape:pageopacity="0"
     inkscape:pageshadow="2"
     inkscape:window-width="1867"
     inkscape:window-height="1060"
     id="namedview4394"
     showgrid="false"
     inkscape:zoom="0.22163466"
     inkscape:cx="1408.6013"
     inkscape:cy="1006.755"
     inkscape:window-x="50"
     inkscape:window-y="-3"
     inkscape:window-maximized="1"
     inkscape:current-layer="svg4386"
     fit-margin-top="0"
     fit-margin-left="0"
     fit-margin-right="0"
     fit-margin-bottom="0" />
  <metadata
     id="metadata4388">
Created by potrace 1.11, written by Peter Selinger 2001-2013
<rdf:RDF>
  <cc:Work
     rdf:about="">
    <dc:format>image/svg+xml</dc:format>
    <dc:type
       rdf:resource="http://purl.org/dc/dcmitype/StillImage" />
    <dc:title />
  </cc:Work>
</rdf:RDF>
</metadata>
  <g
     id="g2983"
     transform="matrix(2.9732531,0,0,3.0230499,-147.86614,-144.05915)">
    <g
       id="g4390"
       transform="matrix(0.1,0,0,-0.1,0,506)"
       style="fill:#000000;stroke:none">
      <path
         sodipodi:nodetypes="csccscscccscccccccccccccccccccccccccccccccscccccccccc"
         inkscape:connector-curvature="0"
         id="path4392"
         d="m 827.73754,4583.4642 c -0.26282,-57.8045 84.81142,-208.787 29.89564,-220.8514 -34.36191,-7.5489 -106.63286,91.2635 -133.50237,168.9419 -75.90202,-94.0215 41.58413,-199.0308 71.77998,-217.5672 -43.54748,-69.4391 -10.62638,-129.4106 -69.97312,-122.9078 -133.65721,14.6452 -228.58199,-6.4757 -228.58199,-6.4757 3.14255,-40.7559 208.19549,-37.787 213.67327,-67.8823 4.83232,-26.5489 -126.57775,-33.1179 -213.7079,-56.8649 29.704,-80.1217 165.52071,-38.7789 221.07665,-12.4432 -20.72636,-117.1696 -219.30394,-82.4432 -116.80849,-173.8664 69.13657,15.4466 160.31863,150.6247 212.59168,144.6396 119.64591,-13.6993 196.40231,-140.1053 265.82371,-252.3504 217.6994,-273.6152 480.2385,-547.8937 738.5025,-805.6374 C 1950.1265,2844.8487 2079.5769,2727.1096 2205,2605 c 9.7815,-180.5482 -10.6958,-382.663 94.5,-539.125 76.9905,-61.9824 167.733,-146.8484 274.8462,-124.2108 118.0577,-46.1745 242.155,98.6636 325.7451,63.0809 105.8953,-129.2405 301.471,-199.5853 308.5649,-383.2139 72.1566,-199.437 78.2351,-429.4478 217.3438,-598.5312 135.1236,-191.04479 336.2605,31.1508 471.0219,111.3434 83.9795,53.5723 241.9177,-98.1001 247.0369,-175.0309 C 4093.5782,815.48031 4024.9605,446.99129 4310,531 c 180.0706,17.39474 404.0942,222.6315 288.3652,414.375 -317.4094,135.8261 -293.6911,83.7081 -387.3175,265.5057 -141.9774,120.4984 5.9038,194.7799 94.5,285.5 165.7051,115.641 154.6567,456.6825 -87.5301,474.4045 -204.6043,46.3135 -415.3962,58.699 -621.0176,100.2148 -169.2422,215.6074 -342.3237,308.299 -353,522 22.4948,260.5953 -215.5652,506.7181 -477.6875,487.2812 -82.2079,18.5802 -190.8353,-41.0202 -244.7607,45.9522 -160.1163,153.5031 -318.972,310.9459 -495.9991,441.4736 -143.8384,168.2562 -353.589,248.7191 -510.9199,400.6582 -147.8005,89.9771 -345.9549,159.9362 -484.3117,260.5155 -119.95351,84.5987 88.8146,245.1353 53.8993,342.8216 -92.39937,-25.8552 -111.44363,-214.4811 -137.17905,-188.8212 -22.68076,118.8659 -50.91172,193.0111 -119.30381,200.5831 z M 2990.9055,2785.4979 c 68.5895,-111.6999 105.8645,-134.6745 149.6189,-270.2189 -101.2607,105.3699 -591.8213,531.3344 -468.2684,477.9562 33.8349,-2.9047 289.3601,-191.3782 318.6495,-207.7373 z M 2399.7137,2416.167 c 98.3764,-80.5179 529.9588,-424.4373 367.5703,-309.6292 -49.7865,2.2971 -171.1898,35.9135 -247.099,101.4527 -177.0559,152.8684 -304.9394,394.4099 -120.4713,208.1765 z m 1552.1282,-718.8986 c 124.9069,-175.0054 69.6853,-127.7989 122.9564,-283.6502 7.8424,-44.2138 -465.0448,610.0636 -397.4295,540.4295 82.955,15.2055 220.4096,-198.2522 274.4731,-256.7793 z M 3412.5358,1594 c 149.9558,-122.6043 295.8743,-206.6835 412.7522,-354.2724 -196.9682,96.3586 -203.1901,105.6274 -299.0615,192.0711 -166.6598,132.4391 -40.125,-1.2401 -200.3238,180.6899 -31.0307,113.684 83.5173,-13.036 86.6331,-18.4886 z" />
    </g>
  </g>
</svg>
