<?xml version="1.0" standalone="no"?>
<!DOCTYPE svg PUBLIC "-//W3C//DTD SVG 20010904//EN"
 "http://www.w3.org/TR/2001/REC-SVG-20010904/DTD/svg10.dtd">
<svg version="1.0" xmlns="http://www.w3.org/2000/svg"
 width="110592.000000pt" height="110592.000000pt" viewBox="0 0 110592.000000 110592.000000"
 preserveAspectRatio="xMidYMid meet">
<metadata>
Created by potrace 1.11, written by Peter Selinger 2001-2013
</metadata>
<g transform="translate(0.000000,110592.000000) scale(13.824000,-13.824000)"
fill="#000000" stroke="none">
<path d="M3885 7977 c-117 -39 -198 -110 -248 -215 -29 -61 -32 -75 -32 -167
0 -92 3 -106 32 -167 40 -85 106 -151 191 -191 61 -29 75 -32 167 -32 92 0
106 3 167 32 85 40 151 106 191 191 29 61 32 75 32 167 0 92 -3 106 -32 167
-40 86 -106 151 -191 191 -55 26 -81 32 -152 34 -52 2 -101 -2 -125 -10z"/>
<path d="M3885 7107 c-117 -39 -198 -110 -248 -215 -29 -61 -32 -75 -32 -167
0 -92 3 -106 32 -167 40 -85 106 -151 191 -191 61 -29 75 -32 167 -32 92 0
106 3 167 32 85 40 151 106 191 191 29 61 32 75 32 167 0 92 -3 106 -32 167
-40 86 -106 151 -191 191 -55 26 -81 32 -152 34 -52 2 -101 -2 -125 -10z"/>
<path d="M6365 6967 c-117 -39 -198 -110 -248 -215 -29 -61 -32 -75 -32 -167
0 -92 3 -106 32 -167 40 -85 106 -151 191 -191 61 -29 75 -32 167 -32 92 0
106 3 167 32 85 40 151 106 191 191 29 61 32 75 32 167 0 92 -3 106 -32 167
-40 86 -106 151 -191 191 -55 26 -81 32 -152 34 -52 2 -101 -2 -125 -10z"/>
<path d="M905 6477 c-117 -39 -198 -110 -248 -215 -29 -61 -32 -75 -32 -167 0
-92 3 -106 32 -167 40 -85 106 -151 191 -191 61 -29 75 -32 167 -32 92 0 106
3 167 32 85 40 151 106 191 191 29 61 32 75 32 167 0 92 -3 106 -32 167 -40
86 -106 151 -191 191 -55 26 -81 32 -152 34 -52 2 -101 -2 -125 -10z"/>
<path d="M5785 6297 c-117 -39 -198 -110 -248 -215 -29 -61 -32 -75 -32 -167
0 -92 3 -106 32 -167 40 -85 106 -151 191 -191 61 -29 75 -32 167 -32 92 0
106 3 167 32 85 40 151 106 191 191 29 61 32 75 32 167 0 92 -3 106 -32 167
-40 86 -106 151 -191 191 -55 26 -81 32 -152 34 -52 2 -101 -2 -125 -10z"/>
<path d="M3885 6247 c-117 -39 -198 -110 -248 -215 -29 -61 -32 -75 -32 -167
0 -92 3 -106 32 -167 40 -85 106 -151 191 -191 61 -29 75 -32 167 -32 92 0
106 3 167 32 85 40 151 106 191 191 29 61 32 75 32 167 0 92 -3 106 -32 167
-40 86 -106 151 -191 191 -55 26 -81 32 -152 34 -52 2 -101 -2 -125 -10z"/>
<path d="M1605 5897 c-117 -39 -198 -110 -248 -215 -29 -61 -32 -75 -32 -167
0 -92 3 -106 32 -167 40 -85 106 -151 191 -191 61 -29 75 -32 167 -32 92 0
106 3 167 32 85 40 151 106 191 191 29 61 32 75 32 167 0 92 -3 106 -32 167
-40 86 -106 151 -191 191 -55 26 -81 32 -152 34 -52 2 -101 -2 -125 -10z"/>
<path d="M5205 5667 c-117 -39 -198 -110 -248 -215 -29 -61 -32 -75 -32 -167
0 -92 3 -106 32 -167 40 -85 106 -151 191 -191 61 -29 75 -32 167 -32 92 0
106 3 167 32 85 40 151 106 191 191 29 61 32 75 32 167 0 92 -3 106 -32 167
-40 86 -106 151 -191 191 -55 26 -81 32 -152 34 -52 2 -101 -2 -125 -10z"/>
<path d="M2285 5357 c-117 -39 -198 -110 -248 -215 -29 -61 -32 -75 -32 -167
0 -92 3 -106 32 -167 40 -85 106 -151 191 -191 61 -29 75 -32 167 -32 92 0
106 3 167 32 85 40 151 106 191 191 29 61 32 75 32 167 0 92 -3 106 -32 167
-40 86 -106 151 -191 191 -55 26 -81 32 -152 34 -52 2 -101 -2 -125 -10z"/>
<path d="M3885 5347 c-117 -39 -198 -110 -248 -215 -29 -61 -32 -75 -32 -167
0 -92 3 -106 32 -167 40 -85 106 -151 191 -191 61 -29 75 -32 167 -32 92 0
106 3 167 32 85 40 151 106 191 191 29 61 32 75 32 167 0 92 -3 106 -32 167
-40 86 -106 151 -191 191 -55 26 -81 32 -152 34 -52 2 -101 -2 -125 -10z"/>
<path d="M7005 5197 c-117 -39 -198 -110 -248 -215 -29 -61 -32 -75 -32 -167
0 -92 3 -106 32 -167 40 -85 106 -151 191 -191 61 -29 75 -32 167 -32 92 0
106 3 167 32 85 40 151 106 191 191 29 61 32 75 32 167 0 92 -3 106 -32 167
-40 86 -106 151 -191 191 -55 26 -81 32 -152 34 -52 2 -101 -2 -125 -10z"/>
<path d="M4695 4947 c-117 -39 -198 -110 -248 -215 -29 -61 -32 -75 -32 -167
0 -92 3 -106 32 -167 40 -85 106 -151 191 -191 61 -29 75 -32 167 -32 92 0
106 3 167 32 85 40 151 106 191 191 29 61 32 75 32 167 0 92 -3 106 -32 167
-40 86 -106 151 -191 191 -55 26 -81 32 -152 34 -52 2 -101 -2 -125 -10z"/>
<path d="M2985 4857 c-117 -39 -198 -110 -248 -215 -29 -61 -32 -75 -32 -167
0 -92 3 -106 32 -167 40 -85 106 -151 191 -191 61 -29 75 -32 167 -32 92 0
106 3 167 32 85 40 151 106 191 191 29 61 32 75 32 167 0 92 -3 106 -32 167
-40 86 -106 151 -191 191 -55 26 -81 32 -152 34 -52 2 -101 -2 -125 -10z"/>
<path d="M555 4797 c-117 -39 -198 -110 -248 -215 -29 -61 -32 -75 -32 -167 0
-92 3 -106 32 -167 40 -85 106 -151 191 -191 61 -29 75 -32 167 -32 92 0 106
3 167 32 85 40 151 106 191 191 29 61 32 75 32 167 0 92 -3 106 -32 167 -40
86 -106 151 -191 191 -55 26 -81 32 -152 34 -52 2 -101 -2 -125 -10z"/>
<path d="M6195 4647 c-117 -39 -198 -110 -248 -215 -29 -61 -32 -75 -32 -167
0 -92 3 -106 32 -167 40 -85 106 -151 191 -191 61 -29 75 -32 167 -32 92 0
106 3 167 32 85 40 151 106 191 191 29 61 32 75 32 167 0 92 -3 106 -32 167
-40 86 -106 151 -191 191 -55 26 -81 32 -152 34 -52 2 -101 -2 -125 -10z"/>
<path d="M3420 4109 c-294 -214 -539 -395 -544 -402 -5 -8 66 -243 200 -655
l208 -642 173 0 172 0 -9 -30 c-5 -16 -8 -328 -8 -693 0 -427 -4 -678 -11
-703 -6 -22 -10 -151 -10 -300 0 -146 -4 -278 -10 -300 -5 -22 -10 -117 -10
-212 l0 -172 394 0 394 0 0 169 c0 92 4 186 10 207 5 22 10 151 9 294 0 146 5
273 10 295 13 49 15 1371 2 1415 l-9 30 127 0 128 0 207 638 c114 352 207 644
207 650 0 8 -1085 804 -1093 801 -1 0 -243 -176 -537 -390z"/>
<path d="M1365 4387 c-117 -39 -198 -110 -248 -215 -29 -61 -32 -75 -32 -167
0 -92 3 -106 32 -167 40 -85 106 -151 191 -191 61 -29 75 -32 167 -32 92 0
106 3 167 32 85 40 151 106 191 191 29 61 32 75 32 167 0 92 -3 106 -32 167
-40 86 -106 151 -191 191 -55 26 -81 32 -152 34 -52 2 -101 -2 -125 -10z"/>
<path d="M5505 4137 c-117 -39 -198 -110 -248 -215 -29 -61 -32 -75 -32 -167
0 -92 3 -106 32 -167 40 -85 106 -151 191 -191 61 -29 75 -32 167 -32 92 0
106 3 167 32 85 40 151 106 191 191 29 61 32 75 32 167 0 92 -3 106 -32 167
-40 86 -106 151 -191 191 -55 26 -81 32 -152 34 -52 2 -101 -2 -125 -10z"/>
<path d="M2175 4047 c-117 -39 -198 -110 -248 -215 -29 -61 -32 -75 -32 -167
0 -92 3 -106 32 -167 40 -85 106 -151 191 -191 61 -29 75 -32 167 -32 92 0
106 3 167 32 85 40 151 106 191 191 29 61 32 75 32 167 0 92 -3 106 -32 167
-40 86 -106 151 -191 191 -55 26 -81 32 -152 34 -52 2 -101 -2 -125 -10z"/>
</g>
</svg>
