<?xml version="1.0" standalone="no"?>
<!DOCTYPE svg PUBLIC "-//W3C//DTD SVG 20010904//EN"
 "http://www.w3.org/TR/2001/REC-SVG-20010904/DTD/svg10.dtd">
<svg version="1.0" xmlns="http://www.w3.org/2000/svg"
 width="110592.000000pt" height="110592.000000pt" viewBox="0 0 110592.000000 110592.000000"
 preserveAspectRatio="xMidYMid meet">
<metadata>
Created by potrace 1.11, written by Peter Selinger 2001-2013
</metadata>
<g transform="translate(0.000000,110592.000000) scale(7.200000,-7.200000)"
fill="#000000" stroke="none">
<path d="M3195 15340 c-115 -38 -214 -141 -265 -277 l-22 -58 2 -1277 1 -1278
-43 -2 c-24 -1 -536 -2 -1138 -2 -1263 -1 -1458 -8 -1545 -56 -251 -138 -239
-597 19 -710 92 -41 930 -64 1969 -54 l737 7 0 -1046 0 -1047 -127 -1 c-71 -1
-524 -1 -1008 0 -792 2 -1040 -3 -1423 -25 -102 -6 -118 -10 -165 -38 -60 -36
-118 -109 -149 -186 -32 -80 -31 -241 1 -323 35 -88 89 -150 163 -185 60 -29
72 -31 268 -42 437 -24 939 -31 1683 -24 l757 7 0 -1047 0 -1046 -1037 0
c-941 -1 -1162 -4 -1521 -26 -102 -6 -117 -10 -164 -38 -61 -36 -119 -109
-150 -186 -32 -80 -31 -241 1 -323 31 -78 87 -146 150 -181 44 -23 71 -30 159
-37 350 -27 668 -33 1595 -31 l967 2 0 -1044 0 -1044 -1187 -5 c-1277 -5
-1453 -10 -1531 -50 -24 -12 -61 -40 -82 -63 -180 -196 -129 -548 94 -650 85
-38 319 -46 1574 -51 l1132 -5 0 -1036 c1 -940 4 -1161 26 -1520 6 -102 10
-117 38 -164 36 -61 109 -119 186 -150 79 -31 241 -31 320 0 106 42 187 124
209 211 31 122 51 1045 43 1979 l-5 682 1048 0 1048 0 -6 -818 c-5 -799 3
-1454 22 -1720 8 -114 13 -139 35 -176 128 -218 482 -250 657 -58 34 37 53 69
63 105 28 100 39 480 43 1580 l5 1087 1045 0 1045 0 -7 -917 c-7 -894 0 -1308
25 -1631 11 -140 24 -174 92 -238 187 -179 540 -136 642 79 21 45 26 76 35
217 25 388 33 892 28 1682 l-6 808 1044 0 1045 0 2 -62 c0 -35 2 -542 2 -1128
1 -1107 10 -1406 42 -1498 9 -23 37 -64 62 -90 183 -188 546 -149 650 70 29
60 31 73 41 258 25 430 32 948 26 1693 l-7 757 43 2 c24 1 532 2 1129 2 1187
1 1468 10 1543 48 136 68 220 260 190 433 -30 172 -132 285 -275 305 -152 21
-745 32 -1660 31 l-968 -1 0 1045 0 1045 128 0 c70 1 584 2 1142 3 1102 3
1359 12 1433 49 256 129 259 585 5 706 -60 29 -72 31 -268 42 -453 24 -932 31
-1677 24 l-763 -7 0 1046 0 1046 1153 4 c1298 4 1477 10 1561 55 190 102 245
420 106 609 -35 48 -108 99 -159 112 -125 32 -1022 53 -1918 45 l-743 -7 0
1046 0 1046 1183 4 c1149 4 1431 11 1514 38 46 15 124 88 156 146 116 214 45
492 -147 579 -85 38 -319 46 -1573 51 l-1131 5 -6 1201 c-2 661 -9 1259 -14
1329 -11 147 -28 194 -97 256 -186 172 -512 142 -632 -57 -20 -33 -34 -72 -37
-105 -30 -266 -45 -1053 -38 -1948 l5 -678 -1047 0 -1047 0 2 1053 c3 1185 -7
1555 -43 1640 -28 64 -120 148 -195 178 -48 19 -77 23 -173 24 -109 0 -119 -2
-182 -32 -76 -36 -135 -91 -166 -154 -45 -93 -62 -582 -62 -1776 l0 -933
-1045 0 -1045 0 3 1098 c2 1145 -7 1514 -39 1591 -72 172 -333 260 -536 182
-75 -29 -159 -105 -186 -168 -45 -107 -67 -800 -59 -1890 l6 -813 -1044 0
-1045 0 -1 118 c0 64 -1 590 -3 1167 -3 1181 -9 1335 -53 1416 -36 67 -110
134 -189 171 -87 41 -200 48 -289 18z m2625 -4755 l0 -1045 -1045 0 -1045 0 0
1045 0 1045 1045 0 1045 0 0 -1045z m2900 0 l0 -1045 -1040 0 -1040 0 0 1045
0 1045 1040 0 1040 0 0 -1045z m2910 0 l0 -1045 -1045 0 -1045 0 0 1045 0
1045 1045 0 1045 0 0 -1045z m-5810 -2910 l0 -1045 -1045 0 -1045 0 0 1045 0
1045 1045 0 1045 0 0 -1045z m2900 0 l0 -1045 -1040 0 -1040 0 0 1045 0 1045
1040 0 1040 0 0 -1045z m2910 0 l0 -1045 -1045 0 -1045 0 0 1045 0 1045 1045
0 1045 0 0 -1045z m-5810 -2910 l0 -1045 -1045 0 -1045 0 0 1045 0 1045 1045
0 1045 0 0 -1045z m2900 0 l0 -1045 -1040 0 -1040 0 0 1045 0 1045 1040 0
1040 0 0 -1045z m2910 0 l0 -1045 -1045 0 -1045 0 0 1045 0 1045 1045 0 1045
0 0 -1045z"/>
<path d="M4030 11422 c-21 -10 -44 -34 -59 -60 l-23 -44 1 -710 c2 -780 -1
-744 63 -790 l33 -23 715 0 c811 0 753 -6 792 82 20 45 20 64 19 747 -2 794 2
751 -81 794 l-44 22 -691 0 c-637 0 -693 -1 -725 -18z"/>
<path d="M6953 11415 c-17 -7 -44 -33 -60 -56 l-28 -43 0 -710 c0 -693 1 -712
20 -745 11 -19 33 -43 48 -55 28 -21 34 -21 735 -24 803 -3 756 -7 799 79 l24
45 -1 698 c0 748 0 735 -51 783 -13 12 -37 26 -52 32 -19 8 -252 11 -715 11
-563 -1 -693 -3 -719 -15z"/>
<path d="M9880 5557 c-21 -7 -46 -28 -65 -55 l-30 -44 -3 -594 c-1 -326 1
-654 6 -729 8 -123 10 -137 33 -161 54 -58 20 -55 776 -54 770 1 742 -2 784
66 l24 39 0 722 c0 713 0 722 -21 749 -11 15 -33 37 -48 48 -27 21 -38 21
-724 23 -523 2 -706 -1 -732 -10z"/>
</g>
</svg>
