<?xml version="1.0" standalone="no"?>
<!DOCTYPE svg PUBLIC "-//W3C//DTD SVG 20010904//EN"
 "http://www.w3.org/TR/2001/REC-SVG-20010904/DTD/svg10.dtd">
<svg version="1.0" xmlns="http://www.w3.org/2000/svg"
 width="110592.000000pt" height="110592.000000pt" viewBox="0 0 110592.000000 110592.000000"
 preserveAspectRatio="xMidYMid meet">
<metadata>
Created by potrace 1.11, written by Peter Selinger 2001-2013
</metadata>
<g transform="translate(0.000000,110592.000000) scale(7.200000,-7.200000)"
fill="#000000" stroke="none">
<path d="M3183 15342 c-112 -40 -205 -141 -263 -285 l-23 -58 5 -1269 4 -1270
-175 -1 c-1157 -5 -2359 -19 -2426 -29 -128 -18 -205 -71 -259 -178 -36 -73
-49 -144 -43 -241 10 -174 91 -297 221 -336 121 -37 1034 -59 1994 -49 l682 7
0 -1781 0 -1780 -1167 -5 c-1247 -5 -1455 -12 -1530 -48 -47 -23 -125 -103
-153 -158 -29 -59 -43 -142 -38 -237 3 -73 10 -101 35 -155 62 -133 144 -183
323 -198 263 -23 818 -33 1658 -29 l872 3 0 -1756 0 -1756 -1197 -6 c-1236 -6
-1431 -12 -1507 -46 -58 -25 -120 -92 -158 -168 -55 -112 -51 -288 8 -405 59
-117 143 -164 325 -178 110 -9 1590 -28 2272 -30 l257 0 1 -452 c1 -747 17
-1944 29 -2081 12 -149 24 -180 97 -249 82 -76 165 -108 285 -108 126 0 206
27 286 95 59 51 90 108 101 190 24 165 35 685 35 1628 l1 977 1286 0 c707 0
1495 -3 1750 -7 l464 -6 0 -1116 c0 -1147 7 -1420 41 -1538 20 -72 99 -152
191 -196 65 -31 73 -32 193 -32 121 0 127 1 191 32 75 37 141 102 170 167 13
30 22 86 29 182 12 152 29 1378 30 2077 l0 437 1774 0 1774 0 5 -1203 c6
-1161 11 -1371 37 -1466 17 -64 115 -160 195 -192 51 -20 77 -24 175 -23 95 0
125 4 171 22 67 27 140 87 174 145 58 100 70 388 70 1679 l0 1036 29 6 c16 3
493 6 1060 6 985 0 1449 9 1564 30 107 19 201 120 237 254 27 99 17 230 -22
316 -35 75 -98 140 -164 169 -86 38 -229 43 -1491 48 l-1208 5 -2 1096 c-3
954 1 2404 5 2409 1 0 565 6 1252 12 688 6 1285 16 1329 21 100 13 160 43 212
107 69 84 88 148 88 283 0 137 -20 201 -88 277 -54 60 -113 90 -202 102 -171
24 -681 35 -1621 35 l-973 0 0 1776 0 1777 1178 6 c1216 7 1448 13 1520 42 61
25 143 118 173 196 20 54 24 82 24 179 0 110 -2 119 -32 180 -38 77 -102 146
-159 172 -26 11 -87 22 -160 28 -125 11 -1404 29 -2120 30 l-421 0 -6 368 c-4
202 -7 655 -8 1007 0 352 -4 775 -9 940 -10 355 -15 381 -91 457 -187 187
-550 151 -661 -65 -46 -91 -62 -528 -62 -1730 l-1 -977 -1777 0 -1778 0 0
1083 c0 1028 -8 1456 -30 1554 -15 64 -52 116 -116 164 -97 71 -133 83 -272
87 l-124 4 -73 -36 c-84 -42 -155 -112 -173 -172 -38 -129 -52 -583 -52 -1761
l0 -933 -458 0 c-252 0 -1039 3 -1749 7 l-1291 6 -5 1221 c-5 1265 -9 1377
-47 1464 -27 60 -113 140 -190 176 -56 26 -79 31 -160 33 -73 3 -107 -1 -147
-15z m2795 -3719 l1252 -6 0 -1780 0 -1780 -572 6 c-314 4 -1102 7 -1750 7
l-1178 0 0 1780 0 1780 498 0 c273 0 1061 -3 1750 -7z m5652 -1773 l0 -1780
-1775 0 -1775 0 0 1780 0 1780 1775 0 1775 0 0 -1780z m-183 -2616 l161 -7 6
-121 c3 -67 8 -853 11 -1748 l5 -1628 -1202 0 c-662 0 -1462 -3 -1779 -7
l-576 -6 -7 309 c-3 170 -9 963 -12 1761 l-7 1453 504 3 c692 5 2697 -2 2896
-9z m-4899 -1 l682 -6 0 -1760 0 -1760 -357 6 c-197 4 -985 10 -1750 14
l-1393 6 0 1754 0 1753 1068 0 c587 0 1374 -3 1750 -7z"/>
</g>
</svg>
