<?xml version="1.0" standalone="no"?>
<!DOCTYPE svg PUBLIC "-//W3C//DTD SVG 20010904//EN"
 "http://www.w3.org/TR/2001/REC-SVG-20010904/DTD/svg10.dtd">
<svg version="1.0" xmlns="http://www.w3.org/2000/svg"
 width="110592.000000pt" height="110592.000000pt" viewBox="0 0 110592.000000 110592.000000"
 preserveAspectRatio="xMidYMid meet">
<metadata>
Created by potrace 1.11, written by Peter Selinger 2001-2013
</metadata>
<g transform="translate(0.000000,110592.000000) scale(3.583668,-3.583668)"
fill="#000000" stroke="none">
<path d="M22435 25953 c2 -19 10 -42 18 -51 8 -10 17 -34 20 -55 3 -21 15 -57
25 -80 11 -23 27 -62 36 -87 34 -93 109 -177 231 -254 114 -73 130 -115 130
-336 l0 -165 -38 -105 c-21 -58 -55 -157 -75 -220 -35 -108 -37 -123 -36 -235
1 -66 7 -149 14 -185 25 -138 25 -150 2 -150 -40 0 -71 19 -78 47 -4 15 -16
34 -26 41 -10 7 -25 26 -33 43 -9 16 -22 29 -30 29 -8 0 -15 8 -15 19 0 10
-20 35 -45 56 -75 61 -218 155 -236 155 -9 0 -27 8 -40 18 -13 9 -40 26 -59
36 -37 21 -240 219 -240 235 0 6 -13 18 -30 28 -16 9 -30 25 -30 33 0 19 -50
70 -68 70 -7 0 -12 8 -12 18 0 21 -73 123 -170 237 -38 45 -95 124 -126 176
-51 84 -110 168 -139 194 -6 6 -17 29 -24 52 -13 41 -114 173 -131 173 -5 0
-12 15 -16 32 -10 49 -32 77 -54 71 -27 -7 -26 -48 1 -67 14 -9 20 -22 17 -34
-11 -41 33 -158 140 -373 120 -241 131 -258 292 -454 58 -70 114 -139 124
-154 135 -183 361 -388 531 -481 119 -65 165 -94 165 -106 0 -8 -48 -13 -162
-17 -201 -6 -259 -21 -453 -116 -134 -66 -145 -70 -250 -81 -60 -7 -123 -13
-140 -14 -16 0 -32 -4 -36 -8 -12 -17 -116 -28 -359 -38 -540 -22 -747 -43
-1059 -105 -286 -58 -630 -179 -846 -297 -71 -40 -236 -125 -365 -191 -129
-66 -247 -128 -262 -138 -15 -11 -46 -26 -69 -35 -24 -8 -46 -18 -49 -22 -3
-5 -59 -48 -125 -97 -84 -63 -185 -154 -340 -309 -203 -203 -484 -510 -494
-539 -2 -7 -17 -31 -33 -55 -89 -131 -203 -413 -248 -619 -11 -48 -35 -138
-54 -199 -19 -61 -50 -201 -70 -310 -19 -109 -42 -224 -51 -254 -9 -30 -34
-125 -56 -210 l-41 -155 6 -230 c8 -345 20 -398 151 -650 46 -88 102 -203 126
-255 23 -52 55 -110 70 -128 16 -18 40 -54 54 -80 45 -86 179 -277 298 -425
64 -81 117 -151 117 -157 0 -5 4 -10 9 -10 5 0 42 -32 83 -71 88 -87 212 -181
288 -219 30 -15 90 -49 134 -74 107 -64 303 -162 395 -197 114 -44 270 -72
573 -103 99 -11 161 -22 190 -36 84 -39 275 -108 398 -144 244 -72 495 -186
584 -264 73 -64 229 -164 381 -244 199 -105 361 -210 532 -345 73 -57 158
-119 190 -137 190 -107 244 -154 361 -309 67 -89 107 -153 121 -192 11 -32 31
-75 45 -95 25 -39 24 -35 55 -257 11 -84 27 -176 35 -205 8 -29 18 -73 21 -98
4 -25 16 -80 26 -123 11 -43 24 -108 29 -145 4 -37 27 -200 50 -362 108 -774
120 -890 120 -1209 0 -158 -4 -243 -14 -285 -8 -34 -22 -106 -31 -161 -18
-105 -40 -198 -56 -227 -5 -10 -9 -22 -9 -27 0 -16 -100 -172 -152 -238 -27
-35 -73 -83 -101 -107 -71 -59 -200 -156 -210 -156 -4 0 -20 -11 -35 -25 -15
-14 -52 -38 -83 -54 -31 -16 -72 -40 -90 -54 -48 -35 -104 -62 -215 -102 -53
-19 -133 -52 -178 -72 -44 -20 -94 -40 -111 -44 -16 -5 -86 -24 -155 -44 -207
-59 -353 -92 -607 -139 -133 -24 -250 -49 -260 -54 -76 -40 -492 -154 -728
-201 -174 -35 -552 -86 -740 -101 -71 -5 -148 -14 -170 -20 -51 -12 -208 -12
-305 0 -64 9 -104 24 -270 104 -107 52 -215 100 -240 106 -70 19 -135 56 -275
157 -131 94 -166 121 -288 223 -36 31 -105 78 -154 105 -48 27 -134 77 -190
112 -57 35 -117 69 -134 75 -18 6 -62 29 -98 51 -36 22 -91 51 -121 64 -30 14
-68 31 -85 38 -16 7 -111 45 -210 84 -207 82 -484 216 -549 266 -24 18 -76 48
-116 65 -95 42 -330 179 -409 238 -18 14 -67 47 -110 73 -42 27 -83 55 -92 63
-9 9 -19 16 -23 16 -5 0 -25 12 -45 28 -20 15 -43 32 -52 37 -9 6 -37 25 -62
43 -120 85 -525 293 -770 394 -156 64 -214 86 -402 149 -33 11 -136 35 -230
54 -181 36 -375 86 -623 160 -212 63 -538 140 -722 170 -208 33 -213 35 -620
130 -195 46 -409 91 -475 100 -66 9 -156 23 -200 31 -50 9 -203 18 -405 24
-697 21 -899 35 -1231 85 -90 13 -254 37 -364 54 -265 39 -442 47 -610 27 -71
-9 -283 -20 -470 -26 -187 -6 -386 -15 -442 -20 -181 -19 -657 -115 -863 -175
-67 -19 -135 -35 -151 -35 -16 0 -29 -4 -29 -9 0 -18 -60 -33 -103 -27 -34 5
-49 3 -68 -12 -13 -11 -78 -39 -144 -62 -257 -90 -534 -219 -681 -316 -111
-73 -246 -216 -307 -326 -27 -48 -55 -92 -63 -99 -8 -6 -14 -18 -14 -25 0 -8
-11 -31 -24 -52 -14 -20 -39 -75 -56 -122 -17 -47 -41 -103 -55 -125 -78 -129
-127 -259 -162 -430 -20 -98 -22 -369 -4 -535 15 -143 84 -490 126 -638 24
-86 53 -261 76 -457 6 -55 13 -104 16 -108 5 -8 27 -139 42 -254 5 -34 11 -66
15 -71 12 -20 35 -184 46 -322 21 -284 41 -371 208 -895 82 -255 108 -345 122
-425 12 -67 37 -162 74 -280 18 -58 46 -157 61 -220 15 -63 34 -129 41 -147 8
-17 14 -36 14 -42 0 -29 139 -430 187 -541 79 -181 188 -388 274 -520 162
-248 205 -319 247 -415 63 -144 162 -426 162 -461 0 -34 93 -212 157 -300 69
-96 137 -209 169 -282 13 -29 43 -76 67 -105 67 -81 90 -114 157 -232 86 -150
217 -342 262 -382 7 -7 41 -38 76 -69 34 -31 62 -61 62 -65 0 -4 12 -20 28
-36 15 -16 47 -55 72 -88 51 -65 125 -124 187 -148 63 -24 194 -38 254 -27 97
19 240 100 286 164 18 25 54 62 80 83 59 46 127 148 198 296 57 118 60 135 71
323 l6 111 -50 105 c-28 58 -58 133 -67 167 -20 79 -30 102 -81 181 -23 36
-85 148 -139 250 -54 102 -144 266 -200 366 -142 250 -165 298 -220 464 -26
80 -69 200 -96 267 -58 147 -86 276 -134 623 -39 282 -60 368 -111 451 -52 87
-91 187 -114 295 -13 57 -44 152 -75 224 -68 159 -82 212 -89 334 -4 55 -20
177 -36 272 -16 95 -36 257 -44 361 -13 168 -18 199 -50 296 -20 59 -45 163
-55 230 -26 168 -33 190 -111 367 -91 206 -109 289 -117 561 -6 192 -5 210 15
275 45 143 119 206 407 347 39 19 160 67 270 106 110 39 255 92 322 116 259
95 394 119 658 119 146 -1 240 -7 405 -28 361 -46 394 -55 475 -128 28 -25 66
-56 86 -69 92 -61 159 -110 159 -117 0 -5 15 -13 33 -20 19 -7 94 -53 168
-103 74 -49 184 -123 244 -163 130 -87 483 -258 638 -310 59 -20 148 -45 198
-56 107 -23 559 -199 724 -282 39 -20 142 -66 230 -104 88 -37 210 -93 270
-124 511 -262 652 -335 665 -345 8 -7 26 -16 40 -20 14 -4 68 -35 120 -70 95
-63 345 -208 515 -300 50 -27 113 -63 140 -80 28 -17 114 -63 191 -103 78 -39
166 -86 195 -105 68 -43 265 -153 434 -242 72 -37 209 -111 305 -163 549 -298
950 -434 1470 -497 283 -34 546 -53 910 -65 140 -4 388 -19 550 -33 162 -14
363 -30 445 -36 95 -6 217 -23 333 -46 l182 -36 743 4 742 3 110 27 c185 45
300 76 361 97 33 12 117 37 189 56 122 33 242 76 485 174 58 23 126 50 153 61
27 11 130 30 245 44 108 14 231 32 272 40 41 8 131 19 200 25 270 23 317 39
757 256 138 68 256 124 262 124 6 0 11 4 11 10 0 5 38 27 83 49 184 88 432
320 594 557 46 67 112 139 257 278 107 103 220 220 250 259 115 151 245 400
397 762 55 132 130 296 165 365 36 69 75 152 86 185 12 33 58 135 104 226 135
271 197 440 295 802 36 132 41 165 49 326 15 284 -9 526 -68 691 -11 30 -47
128 -81 217 -78 209 -136 410 -156 548 -31 210 -99 415 -195 590 -92 167 -131
251 -176 381 -25 71 -49 143 -53 159 -4 17 -17 48 -28 70 -11 22 -39 92 -61
155 -22 63 -56 156 -76 207 -33 84 -37 107 -46 245 -12 169 -35 373 -50 429
-6 20 -26 57 -45 82 -19 25 -35 50 -35 56 0 6 -10 16 -22 22 -13 7 -48 33 -78
59 -30 26 -68 55 -85 66 -16 10 -51 38 -76 61 -25 24 -86 73 -135 110 -49 38
-141 113 -206 168 -64 55 -152 122 -196 148 -146 89 -780 356 -987 417 -257
75 -352 108 -461 158 -60 28 -120 53 -134 57 -14 4 -86 34 -160 65 -74 32
-153 63 -175 70 -22 7 -110 44 -195 82 -190 86 -214 95 -409 163 -86 29 -178
63 -206 75 -27 12 -88 38 -135 57 -174 71 -253 119 -332 201 -40 42 -86 100
-102 127 -16 28 -45 68 -63 90 -88 103 -122 220 -122 420 l-1 90 110 142 c61
79 136 187 167 240 30 54 84 141 118 193 34 52 71 113 81 135 56 120 355 347
634 481 232 111 240 116 425 225 160 95 313 196 409 269 28 22 70 53 93 69 26
19 61 61 93 113 28 46 69 108 90 138 21 30 44 72 51 95 20 59 78 169 96 179
37 20 192 56 245 56 31 0 69 5 85 11 59 23 142 15 237 -24 108 -44 166 -81
166 -105 0 -26 -56 -82 -200 -202 -69 -57 -144 -122 -168 -144 -52 -49 -110
-145 -152 -250 -37 -91 -91 -283 -97 -346 -3 -25 -10 -50 -15 -57 -5 -7 -7
-26 -3 -43 4 -18 2 -36 -4 -44 -8 -9 -6 -18 8 -32 10 -11 20 -26 23 -34 11
-33 68 99 103 240 14 56 82 193 181 365 31 54 76 97 222 217 119 96 252 223
252 240 0 14 54 7 115 -15 58 -21 60 -23 67 -66 4 -24 7 -137 5 -250 l-2 -206
-31 -60 c-52 -100 -55 -119 -45 -241 6 -61 16 -124 24 -140 8 -16 24 -47 35
-69 38 -77 45 -136 43 -378 -3 -285 -2 -287 26 -287 14 0 24 -9 30 -26 l8 -25
23 40 c41 73 66 234 66 431 0 178 -10 247 -49 321 -25 47 -55 176 -49 211 4
18 17 51 29 73 23 40 36 87 37 135 0 14 6 83 14 154 12 106 13 142 2 203 -15
93 -9 105 60 115 28 4 81 19 117 33 104 39 215 32 215 -13 0 -10 4 -22 9 -27
5 -6 21 -63 35 -127 14 -64 34 -134 45 -155 44 -86 286 -275 432 -336 47 -21
91 -37 96 -37 13 0 102 -48 127 -69 19 -16 136 -249 136 -271 0 -6 16 -50 35
-96 20 -47 42 -113 50 -146 7 -33 16 -63 19 -66 14 -13 37 72 30 112 -4 22 -8
95 -9 161 -1 74 -9 143 -19 180 -21 76 -93 225 -109 225 -7 0 -18 9 -25 20 -7
11 -21 20 -32 20 -11 0 -20 6 -20 13 0 6 -69 44 -152 82 -84 39 -188 94 -232
123 -43 28 -84 52 -90 52 -6 1 -24 21 -39 45 -16 25 -34 45 -42 45 -17 0 -24
19 -41 115 -7 44 -17 93 -20 109 -7 29 -7 29 30 23 21 -3 97 -33 169 -65 200
-90 224 -97 357 -97 112 0 117 1 191 36 42 20 124 70 181 110 108 77 153 124
320 343 42 56 87 111 99 124 33 33 144 82 187 82 52 0 149 -22 283 -64 336
-104 658 -158 741 -123 82 34 175 185 248 400 32 95 40 132 40 191 0 81 20
162 45 180 14 10 12 20 -24 91 -22 44 -57 97 -78 119 -37 37 -143 110 -214
146 -19 10 -42 26 -49 35 -21 26 -95 60 -236 109 -71 24 -207 72 -301 105
-240 84 -590 153 -848 167 -89 5 -110 3 -190 -21 -49 -14 -110 -39 -135 -55
-67 -42 -108 -50 -290 -56 -163 -6 -166 -5 -264 25 -54 16 -104 35 -109 40 -8
8 -5 28 7 68 10 31 19 73 21 92 5 79 70 402 86 432 5 10 9 29 9 42 0 27 65
132 116 187 17 19 64 78 104 130 75 100 166 200 180 200 19 0 153 170 187 237
29 58 34 78 29 107 -4 20 -3 36 2 36 6 0 6 19 1 46 -5 25 -7 50 -4 55 7 11
-32 47 -77 70 -30 15 -38 25 -38 47 0 15 5 33 12 40 6 6 9 14 6 18 -10 9 -98
34 -98 27 0 -3 12 -22 28 -42 26 -35 27 -39 27 -173 0 -126 -2 -139 -22 -167
-13 -17 -23 -32 -23 -35 0 -2 -60 -63 -134 -135 -79 -78 -161 -171 -202 -228
-38 -54 -83 -111 -101 -128 -79 -76 -109 -136 -148 -300 -15 -66 -31 -129 -36
-140 -17 -43 -41 -249 -32 -282 3 -14 1 -23 -6 -23 -6 0 -16 -12 -22 -27 -6
-16 -23 -48 -39 -73 -29 -46 -29 -46 -122 -63 -83 -16 -145 -39 -349 -129 -43
-19 -52 -20 -147 -8 -56 7 -108 18 -117 24 -29 21 -91 332 -81 407 10 73 101
358 144 449 13 27 17 70 18 190 3 173 -17 295 -55 348 -11 17 -21 36 -21 44
-1 30 -51 70 -108 86 -50 14 -68 27 -142 102 -47 47 -135 147 -196 222 -104
127 -112 134 -109 101z m-13457 -13291 c1 -33 8 -52 23 -64 22 -18 15 -25 -10
-9 -20 13 -37 121 -18 121 1 0 3 -21 5 -48z m74 -199 c-2 -48 -5 -89 -8 -92
-2 -3 -4 35 -2 85 1 49 -2 96 -6 104 -7 12 -6 13 5 2 10 -9 13 -36 11 -99z
m12865 -2735 c-3 -7 -5 -2 -5 12 0 14 2 19 5 13 2 -7 2 -19 0 -25z"/>
</g>
</svg>
