<?xml version="1.0" standalone="no"?>
<!DOCTYPE svg PUBLIC "-//W3C//DTD SVG 20010904//EN"
 "http://www.w3.org/TR/2001/REC-SVG-20010904/DTD/svg10.dtd">
<svg version="1.0" xmlns="http://www.w3.org/2000/svg"
 width="110592.000000pt" height="110592.000000pt" viewBox="0 0 110592.000000 110592.000000"
 preserveAspectRatio="xMidYMid meet">
<metadata>
Created by potrace 1.11, written by Peter Selinger 2001-2013
</metadata>
<g transform="translate(0.000000,110592.000000) scale(3.584830,-3.584830)"
fill="#000000" stroke="none">
<path d="M20786 22852 l-37 -23 5 -77 c4 -42 13 -174 21 -292 8 -118 22 -269
30 -335 39 -312 45 -367 45 -418 0 -74 -22 -95 -44 -42 -9 21 -14 41 -11 45 3
5 -3 15 -13 22 -11 7 -29 33 -42 58 -33 66 -124 204 -151 228 -27 26 -57 28
-66 6 -3 -9 3 -44 15 -78 12 -33 28 -99 37 -145 9 -46 27 -119 40 -162 13 -43
27 -98 30 -122 7 -42 5 -46 -43 -101 -30 -34 -59 -81 -72 -116 -22 -60 -22
-60 -5 -153 10 -50 23 -104 30 -119 11 -23 10 -29 -4 -41 -32 -27 -89 -57
-142 -75 -60 -20 -76 -29 -228 -124 -200 -126 -306 -170 -446 -184 l-62 -6
-27 58 c-15 32 -42 81 -60 109 -31 46 -50 61 -142 115 -25 15 -32 26 -37 65
-4 25 -25 91 -47 146 -22 55 -40 107 -40 117 0 10 -7 27 -15 38 -8 10 -15 26
-15 35 0 8 -11 37 -24 65 -32 68 -48 120 -44 146 2 13 -4 30 -13 38 -16 15
-96 213 -138 342 -12 37 -31 78 -42 92 -10 13 -19 32 -19 43 0 23 -11 38 -32
46 -15 5 -23 31 -19 59 0 3 -13 9 -29 13 -33 7 -70 -9 -70 -30 0 -8 -4 -15 -9
-15 -12 0 -2 -66 16 -100 7 -14 13 -31 13 -39 0 -8 16 -63 35 -122 19 -60 35
-116 35 -125 0 -9 10 -37 23 -63 31 -60 78 -198 128 -376 11 -38 25 -75 31
-82 6 -7 7 -21 3 -30 -5 -10 -7 -24 -6 -30 2 -16 2 -16 -35 -3 -16 6 -36 21
-44 34 -28 45 -191 178 -241 197 -65 25 -85 24 -104 -5 -18 -28 -7 -68 24 -88
25 -16 211 -276 211 -296 0 -3 11 -20 25 -38 14 -18 25 -37 25 -43 0 -6 6 -11
14 -11 12 0 10 -10 -7 -47 -18 -39 -22 -66 -22 -143 0 -106 7 -125 80 -216 14
-18 25 -39 25 -48 0 -11 -57 -44 -185 -106 -161 -78 -197 -101 -287 -176 -120
-101 -228 -174 -256 -174 -18 0 -21 9 -27 68 -3 37 -13 82 -23 101 -30 61 -99
119 -196 165 -89 43 -92 45 -114 98 -12 29 -22 59 -22 65 0 6 -4 13 -8 15 -4
2 -34 43 -66 92 -32 50 -82 123 -112 163 -30 40 -54 77 -54 82 0 5 -17 31 -39
58 -21 27 -44 60 -52 74 -8 14 -40 56 -71 94 -31 39 -88 110 -126 158 -150
189 -279 322 -321 330 -14 3 -36 1 -49 -4 -19 -7 -23 -14 -17 -32 3 -12 9 -33
12 -47 7 -30 22 -51 140 -204 51 -65 93 -123 93 -129 0 -5 18 -27 40 -49 22
-22 40 -45 40 -51 0 -6 7 -17 15 -26 32 -33 75 -94 75 -106 0 -7 7 -19 16 -26
16 -13 114 -153 114 -163 0 -7 69 -107 97 -140 37 -44 63 -105 63 -150 0 -31
-3 -37 -16 -32 -9 3 -20 6 -25 6 -5 0 -9 6 -9 13 0 9 -9 12 -27 10 -16 -3 -76
13 -142 36 -63 23 -127 41 -143 41 -28 0 -68 -30 -68 -52 0 -23 99 -103 197
-160 l98 -56 1 -64 c1 -88 12 -154 29 -168 8 -7 15 -20 15 -29 0 -24 100 -172
111 -166 5 4 9 2 9 -3 0 -14 47 -32 84 -32 41 0 66 26 66 68 0 43 -50 163 -77
185 -15 12 -23 29 -23 48 0 17 -6 32 -15 35 -19 8 -19 38 0 54 26 21 130 3
218 -37 70 -33 82 -43 78 -65 0 -5 4 -8 9 -8 6 0 30 -20 53 -45 46 -48 54 -50
105 -36 51 15 36 -9 -24 -39 -28 -14 -64 -35 -80 -46 -55 -40 -227 -136 -281
-155 -29 -11 -53 -25 -53 -30 0 -5 -3 -8 -7 -7 -16 5 -191 -78 -293 -138 -82
-49 -148 -77 -298 -129 -107 -36 -211 -74 -232 -85 -37 -19 -40 -19 -48 -3 -5
10 -12 48 -15 85 -3 49 -12 80 -32 114 -36 61 -204 230 -276 278 -43 28 -66
54 -102 114 -25 42 -78 115 -118 162 -39 47 -82 101 -95 121 -12 21 -27 39
-32 40 -12 5 -148 167 -317 378 -135 170 -191 228 -244 255 -28 15 -31 15 -56
-7 l-26 -22 31 -69 c26 -58 172 -270 226 -327 8 -9 27 -35 42 -57 15 -22 54
-73 87 -113 79 -97 107 -133 151 -197 20 -29 44 -58 53 -65 10 -6 20 -19 24
-27 4 -8 23 -44 42 -78 19 -35 35 -65 35 -67 0 -8 -60 15 -87 32 -156 108
-227 143 -283 143 -36 0 -54 -28 -41 -62 12 -32 79 -115 132 -163 24 -22 70
-67 103 -99 l58 -60 -6 -51 c-4 -37 0 -73 13 -121 29 -103 45 -144 57 -144 5
0 20 -13 32 -30 25 -33 109 -80 144 -80 28 0 64 23 78 50 11 20 9 25 -25 90
-78 147 -105 229 -84 253 5 7 16 21 23 32 14 20 14 20 59 -2 24 -12 78 -53
120 -92 42 -39 81 -71 87 -71 5 0 10 -8 10 -19 0 -10 7 -24 15 -31 8 -7 17
-28 21 -49 4 -20 16 -53 27 -73 11 -21 19 -39 16 -41 -11 -9 -243 -103 -314
-127 -44 -15 -123 -35 -175 -45 -52 -9 -176 -37 -275 -62 -99 -25 -259 -65
-355 -89 -96 -24 -226 -58 -288 -75 -62 -17 -116 -29 -119 -25 -3 3 -1 17 5
32 10 20 9 28 -3 40 -8 9 -15 21 -15 29 0 7 -16 36 -35 65 -19 29 -35 55 -35
59 0 15 -77 127 -109 159 -41 41 -106 74 -190 98 -76 21 -131 64 -131 101 0
18 -14 38 -45 65 -24 22 -50 50 -57 63 -21 38 -156 212 -250 321 -123 144
-264 264 -310 264 -10 0 -18 5 -18 10 0 6 -26 10 -59 10 -34 0 -61 5 -63 11
-2 7 -13 3 -27 -8 l-23 -19 24 -36 c12 -20 46 -50 75 -67 93 -56 181 -147 338
-349 17 -21 28 -41 25 -43 -2 -2 8 -16 22 -30 14 -14 54 -74 88 -132 35 -59
67 -107 72 -107 4 0 8 -7 8 -15 0 -8 12 -37 28 -65 21 -39 25 -53 16 -67 -18
-30 -50 -27 -73 6 -36 50 -248 171 -300 171 -20 0 -71 -36 -71 -50 0 -5 53
-62 118 -127 174 -176 192 -201 207 -286 16 -92 82 -271 112 -303 13 -14 21
-29 18 -34 -6 -9 -57 -29 -295 -116 -85 -31 -198 -76 -250 -101 -133 -62 -338
-135 -369 -131 -22 3 -28 11 -41 63 -22 82 -37 102 -147 192 l-94 78 -75 0
-75 0 -62 66 c-276 293 -447 465 -546 548 -136 114 -141 118 -210 127 -42 5
-51 10 -46 23 3 10 -1 9 -12 -5 -10 -12 -26 -24 -35 -27 -35 -12 3 -70 90
-139 96 -75 384 -360 445 -440 28 -37 55 -68 59 -68 5 0 8 -5 8 -10 0 -6 15
-26 33 -44 17 -18 40 -47 50 -64 l18 -31 -33 -6 c-19 -3 -84 5 -157 20 -152
31 -175 31 -195 4 -13 -19 -13 -26 -1 -48 15 -30 77 -77 152 -114 28 -15 55
-32 60 -39 4 -7 8 -47 8 -88 0 -64 4 -82 28 -121 26 -44 99 -119 143 -146 18
-12 18 -13 -10 -37 -16 -14 -95 -66 -176 -116 -173 -109 -258 -175 -318 -250
-37 -46 -230 -263 -297 -334 l-20 -21 -6 62 c-6 66 -29 110 -78 149 -33 27
-207 124 -223 124 -29 0 -209 99 -238 130 -3 3 -33 27 -67 54 -35 26 -63 51
-63 56 0 4 -10 10 -22 14 -13 3 -54 35 -93 71 -38 37 -81 73 -95 81 -14 8 -56
39 -95 69 -72 57 -150 91 -183 81 -11 -4 -24 -18 -30 -31 -6 -14 -16 -25 -22
-25 -27 0 18 -80 59 -102 18 -11 77 -56 130 -102 53 -45 128 -107 166 -138 95
-75 185 -163 185 -181 0 -29 -23 -36 -77 -22 -72 19 -243 31 -243 17 0 -5 -9
-8 -19 -5 -23 6 -71 -37 -71 -63 0 -21 56 -73 84 -78 102 -20 140 -31 196 -59
36 -18 71 -43 80 -58 25 -43 91 -129 105 -137 16 -9 98 -119 119 -161 9 -17
30 -38 47 -46 16 -9 35 -27 41 -41 10 -22 6 -33 -41 -101 -46 -68 -53 -84 -58
-142 -3 -36 -12 -76 -20 -88 -19 -29 -285 -203 -310 -203 -19 0 -43 36 -43 65
0 8 -4 15 -9 15 -6 0 -36 23 -68 51 -32 28 -68 55 -80 60 -13 5 -23 13 -23 18
0 5 -15 15 -34 21 -19 6 -40 18 -46 26 -7 7 -21 14 -31 14 -11 0 -19 5 -19 10
0 6 -5 10 -11 10 -5 0 -32 21 -58 48 -27 26 -99 79 -160 117 -62 39 -189 127
-284 196 -95 69 -192 138 -215 153 -24 15 -64 43 -89 62 -55 42 -240 133 -332
164 -52 17 -66 19 -72 8 -7 -11 -12 -11 -29 0 -16 10 -20 10 -20 -2 0 -8 -7
-16 -15 -20 -19 -7 -19 -25 1 -65 19 -38 58 -63 177 -116 48 -21 90 -42 93
-47 3 -5 24 -18 47 -30 44 -22 312 -213 384 -273 23 -19 46 -35 52 -35 5 0 14
-6 18 -13 4 -7 31 -28 58 -47 99 -65 117 -94 69 -106 -15 -4 -108 -1 -207 6
-133 9 -182 9 -185 1 -2 -6 -12 -11 -21 -11 -10 0 -32 -7 -50 -16 -27 -14 -32
-21 -29 -47 2 -22 9 -33 22 -35 11 -3 26 -10 33 -17 7 -8 48 -21 91 -30 181
-38 268 -59 280 -70 7 -7 17 -38 22 -71 4 -32 18 -81 29 -107 18 -43 116 -160
247 -298 19 -19 34 -41 34 -49 0 -20 -107 -218 -143 -265 -36 -46 -143 -171
-255 -297 -69 -78 -80 -87 -107 -84 -48 6 -234 83 -308 128 -43 26 -79 40 -98
39 -16 0 -42 -2 -58 -2 -36 -2 -108 32 -165 79 -24 20 -115 101 -201 179 -169
154 -335 273 -494 352 -122 62 -191 85 -205 71 -5 -5 -24 -10 -40 -10 -44 0
-60 -13 -53 -42 11 -42 46 -77 89 -89 35 -9 169 -81 256 -136 55 -36 189 -139
243 -188 30 -27 71 -64 90 -81 53 -48 129 -132 129 -142 0 -6 7 -12 15 -16 8
-3 15 -12 15 -20 0 -7 11 -17 25 -20 32 -8 33 -36 2 -36 -13 0 -93 20 -179 44
-212 61 -258 55 -283 -31 -9 -33 30 -67 99 -87 32 -10 99 -37 150 -61 50 -24
111 -49 136 -56 25 -7 52 -18 61 -26 8 -7 27 -13 41 -13 22 0 27 -6 37 -42 29
-115 185 -322 276 -370 26 -12 55 -27 65 -33 24 -12 24 -28 5 -120 -9 -40 -13
-89 -10 -115 5 -39 2 -51 -25 -92 -17 -26 -60 -78 -95 -116 -36 -39 -65 -74
-65 -79 0 -5 -13 -22 -30 -38 l-30 -29 -67 13 c-38 7 -78 18 -89 26 -12 8 -84
30 -160 50 -123 32 -148 35 -214 29 -84 -7 -125 5 -189 54 -20 15 -56 37 -81
49 -25 13 -52 26 -60 31 -126 72 -343 177 -417 201 -34 12 -93 24 -132 27 -64
6 -71 5 -71 -11 0 -15 -6 -17 -38 -12 -20 4 -32 3 -27 -1 17 -11 16 -52 -1
-52 -35 0 -1 -55 54 -88 24 -14 45 -18 70 -15 25 3 61 -4 107 -20 104 -37 225
-96 232 -113 3 -7 12 -14 21 -14 8 0 29 -11 46 -23 71 -54 166 -117 175 -117
20 0 81 -62 81 -82 0 -23 12 -25 -164 21 -134 35 -195 39 -237 14 -33 -20 -35
-26 -13 -44 8 -7 22 -25 30 -41 11 -20 43 -42 117 -79 56 -28 125 -67 153 -85
30 -20 64 -34 81 -34 47 0 77 -32 134 -144 49 -99 55 -106 98 -124 25 -11 61
-23 78 -27 41 -8 41 -17 4 -124 -34 -95 -42 -109 -115 -194 -29 -34 -100 -123
-158 -197 -58 -75 -113 -141 -121 -148 -12 -10 -40 -9 -138 3 -155 19 -214 19
-313 0 l-79 -15 -46 31 c-25 17 -126 70 -224 119 -98 48 -183 92 -190 98 -20
16 -218 89 -287 106 -87 21 -318 49 -347 41 -17 -4 -23 -13 -23 -34 0 -64 111
-129 278 -161 116 -22 253 -77 437 -174 158 -83 167 -115 35 -116 -115 -1
-221 -36 -238 -78 -3 -9 -16 -32 -29 -51 -29 -43 -29 -62 0 -89 27 -26 70 -28
111 -7 20 11 32 12 36 5 5 -7 15 -8 33 -1 64 24 152 24 256 0 l101 -24 62 -70
c86 -95 141 -147 220 -206 36 -28 69 -57 72 -66 9 -22 -23 -111 -61 -171 -19
-28 -36 -60 -40 -70 -11 -31 -113 -161 -140 -179 -22 -15 -58 -19 -202 -24
-160 -5 -182 -8 -240 -32 -36 -15 -75 -37 -87 -48 -22 -21 -27 -21 -96 -11
-79 13 -277 25 -653 42 -132 6 -250 13 -261 15 -45 10 -177 -15 -221 -40 -48
-29 -52 -42 -24 -76 17 -21 30 -24 147 -31 103 -6 382 -29 619 -52 17 -1 42
-3 58 -4 47 -3 30 -20 -43 -42 -38 -11 -75 -26 -82 -33 -7 -7 -31 -22 -52 -33
-53 -26 -66 -48 -43 -71 16 -16 35 -18 166 -15 108 2 167 -1 215 -13 37 -8
103 -15 147 -15 l79 0 31 -50 c49 -79 159 -160 219 -160 11 0 20 -5 20 -12 0
-16 -91 -135 -215 -278 -59 -69 -119 -142 -132 -162 -30 -44 -32 -44 -178 -23
-140 20 -298 20 -331 -1 -27 -18 -24 -18 -214 15 -63 11 -163 25 -222 31 -59
6 -127 17 -151 24 -24 7 -58 11 -74 9 -17 -3 -87 3 -155 12 -141 19 -345 25
-356 10 -4 -6 -24 -19 -45 -30 -20 -11 -39 -26 -41 -35 -9 -39 -5 -68 12 -75
9 -4 92 -11 183 -15 92 -4 171 -10 176 -13 5 -3 67 -13 138 -22 205 -25 318
-46 342 -61 12 -8 47 -14 78 -14 40 0 55 -4 55 -14 0 -10 -33 -20 -113 -35
-162 -31 -284 -97 -258 -139 14 -23 82 -32 264 -32 156 0 177 -2 177 -16 0 -9
45 -70 100 -136 55 -66 100 -126 100 -134 0 -7 6 -11 12 -9 16 6 78 -31 78
-46 0 -6 -42 -55 -92 -108 -51 -53 -115 -125 -142 -159 -26 -35 -57 -67 -67
-73 -22 -11 -56 -4 -119 25 -41 19 -64 21 -270 22 -187 0 -230 3 -255 16 -17
9 -62 26 -100 38 -39 12 -79 28 -91 35 -11 7 -45 15 -75 18 -60 5 -88 10 -199
32 -137 27 -381 55 -481 55 -106 0 -169 -17 -169 -44 0 -9 -7 -16 -15 -16 -9
0 -12 -6 -9 -15 4 -8 1 -22 -6 -29 -9 -12 -7 -18 12 -29 28 -18 65 -24 228
-37 286 -22 669 -103 776 -166 42 -24 61 -49 44 -59 -4 -3 -68 -9 -142 -14
-267 -19 -382 -90 -247 -155 41 -19 57 -22 92 -15 26 5 100 2 192 -7 198 -19
203 -20 220 -55 21 -39 125 -150 174 -184 23 -15 55 -31 73 -34 26 -6 33 -12
31 -29 -5 -39 -61 -152 -80 -158 -10 -4 -47 -19 -83 -35 l-65 -27 -60 33 c-88
49 -179 73 -357 96 -166 21 -184 24 -208 44 -8 7 -28 15 -45 18 -16 3 -57 13
-90 22 -77 20 -536 110 -641 126 -44 7 -96 9 -116 5 -40 -7 -88 -40 -88 -60 0
-21 40 -67 68 -77 25 -9 406 -98 622 -145 133 -29 200 -57 200 -84 0 -10 -9
-21 -20 -25 -21 -7 -118 8 -194 31 -66 19 -206 19 -206 0 0 -21 80 -136 95
-136 7 0 37 -11 66 -25 30 -13 86 -31 124 -40 141 -32 138 -31 181 -92 22 -32
46 -70 53 -86 15 -29 115 -128 166 -164 l30 -21 -23 -25 c-13 -14 -56 -39 -97
-57 l-73 -32 -81 26 c-45 14 -87 26 -94 26 -7 0 -25 7 -41 15 -16 9 -36 13
-43 11 -7 -3 -34 1 -60 9 -27 7 -93 23 -148 36 -151 33 -404 127 -441 163 -8
8 -30 18 -49 22 -19 3 -35 10 -35 14 0 5 -10 12 -21 15 -49 16 -169 104 -248
182 -87 86 -123 102 -151 68 -34 -40 34 -191 121 -271 79 -73 225 -155 471
-267 72 -33 78 -38 78 -65 0 -16 -6 -34 -12 -39 -16 -12 -194 9 -210 25 -12
12 -74 -13 -82 -33 -8 -21 209 -185 244 -185 6 0 18 -4 28 -9 9 -6 34 -13 55
-16 20 -3 37 -10 37 -16 0 -14 73 -120 99 -143 31 -28 26 -44 -16 -52 -21 -3
-100 -26 -176 -51 l-138 -44 -76 47 c-69 43 -272 134 -300 134 -6 0 -21 13
-32 29 -12 16 -37 35 -56 41 -19 6 -76 50 -127 96 -51 47 -103 90 -115 96 -13
6 -23 17 -23 23 0 7 -25 43 -55 80 -73 88 -89 120 -90 175 l0 45 -51 3 c-56 3
-78 -12 -93 -66 -7 -24 -6 -32 6 -36 9 -4 12 -13 8 -26 -4 -13 1 -33 14 -54
12 -18 21 -39 21 -46 0 -18 42 -100 51 -100 4 0 9 -10 13 -23 3 -12 37 -57 76
-100 89 -99 92 -114 20 -109 -56 3 -75 -8 -65 -38 9 -29 142 -168 222 -232 68
-53 123 -132 106 -149 -6 -6 -53 -21 -104 -35 -116 -30 -504 -61 -552 -44 -16
5 -66 34 -111 63 -598 395 -975 607 -1050 593 -22 -4 -27 -3 -16 4 12 8 11 10
-7 10 -16 0 -21 -4 -17 -15 7 -18 -27 -21 -57 -5 -17 10 -19 7 -19 -24 0 -69
16 -85 138 -142 165 -78 319 -165 481 -273 79 -53 161 -105 181 -116 53 -28
260 -177 260 -187 0 -14 -58 -38 -92 -38 -21 0 -37 7 -45 19 -7 11 -28 20 -56
24 -24 4 -91 26 -148 50 -245 105 -341 99 -243 -16 69 -81 76 -87 124 -115
104 -59 138 -85 133 -98 -6 -17 -123 -74 -152 -74 -14 0 -26 10 -34 27 -6 16
-14 30 -18 33 -3 3 -11 15 -17 26 -10 18 -24 22 -92 28 -47 5 -247 49 -480
107 -220 54 -413 99 -429 99 -34 0 -77 -31 -67 -49 4 -6 24 -20 44 -31 20 -11
65 -40 100 -65 46 -33 95 -55 188 -85 70 -22 137 -40 150 -40 13 0 47 -11 76
-24 29 -14 133 -50 231 -82 140 -44 188 -55 222 -52 42 5 43 5 35 -21 -4 -14
-20 -51 -34 -81 -14 -30 -26 -61 -26 -69 0 -9 -5 -11 -17 -5 -10 4 -50 10 -89
12 -69 3 -72 2 -155 -45 -74 -42 -84 -52 -87 -79 -2 -19 4 -40 17 -55 17 -21
27 -24 88 -24 85 1 164 27 213 71 l38 34 21 -68 c22 -74 26 -80 145 -222 l80
-95 -89 -5 c-80 -5 -96 -9 -139 -37 -27 -18 -69 -35 -95 -39 -25 -4 -79 -17
-119 -30 -68 -22 -138 -31 -393 -49 -103 -8 -127 -19 -146 -67 -13 -34 -13
-39 4 -62 27 -38 71 -46 253 -46 188 0 411 29 472 61 20 10 42 19 49 19 20 0
173 76 193 96 11 10 35 29 55 40 l35 22 70 -57 c79 -62 91 -75 73 -78 -82 -12
-92 -17 -143 -65 -30 -28 -54 -58 -54 -67 0 -9 9 -31 21 -50 l20 -34 71 5 70
5 -6 -35 c-14 -92 -195 -283 -399 -425 -70 -48 -131 -96 -137 -107 -21 -40 48
-69 135 -55 54 8 196 78 280 137 73 53 349 331 357 360 7 30 84 137 98 138 15
0 98 -46 134 -74 16 -13 17 -18 6 -31 -7 -8 -18 -15 -25 -15 -38 0 -125 -127
-125 -184 0 -25 73 -96 98 -96 41 0 72 20 92 61 19 37 25 41 51 37 40 -6 53
19 46 89 -3 31 -2 53 4 53 5 0 29 -10 51 -21 l42 -21 -22 -18 c-12 -10 -27
-20 -33 -22 -5 -2 -12 -34 -14 -72 -2 -57 -7 -72 -24 -85 -19 -15 -20 -20 -10
-49 8 -23 8 -36 0 -45 -5 -7 -13 -33 -17 -57 -10 -72 -44 -195 -55 -198 -5 -2
-9 -13 -9 -25 -1 -12 -7 -33 -15 -47 -8 -14 -14 -35 -15 -47 0 -12 -9 -27 -20
-33 -11 -6 -20 -19 -20 -30 0 -43 -149 -233 -197 -251 -37 -14 -31 -67 12
-109 27 -26 38 -31 47 -22 7 7 19 12 29 12 21 0 108 46 138 73 87 80 251 354
251 421 0 16 11 48 24 70 13 23 31 66 40 96 9 30 25 84 36 120 51 171 60 206
60 235 0 43 7 47 49 26 64 -32 195 -60 361 -77 110 -10 121 -20 75 -64 -27
-25 -19 -27 -105 21 -55 30 -97 25 -135 -16 -57 -59 -60 -168 -6 -219 25 -24
33 -26 86 -22 47 3 62 8 73 25 8 12 21 21 28 21 27 0 8 -310 -23 -390 -4 -8
-6 -17 -5 -21 0 -3 -13 -54 -29 -115 -17 -60 -33 -126 -36 -146 -3 -21 -11
-42 -19 -49 -18 -15 -18 -39 2 -67 29 -42 135 -24 161 27 6 14 19 29 28 34 19
10 95 162 95 189 0 10 13 69 29 131 16 61 35 150 41 197 6 47 17 108 25 137 8
28 15 60 15 71 0 10 7 34 16 52 13 26 14 37 5 51 -6 10 -11 30 -11 44 0 14 -8
29 -20 35 -11 6 -20 19 -20 28 0 16 9 17 73 14 98 -4 99 -5 85 -42 -13 -38 1
-96 37 -151 13 -20 31 -53 39 -73 12 -30 22 -37 61 -47 53 -13 66 -32 65 -92
0 -23 2 -56 6 -73 3 -16 1 -57 -6 -90 -6 -32 -14 -90 -18 -129 -9 -100 -8
-433 1 -478 8 -36 9 -37 51 -37 57 0 72 18 92 116 8 43 22 111 30 149 7 39 25
151 38 250 14 99 32 221 40 270 23 132 39 304 32 353 -8 58 -31 99 -67 117
-18 10 -29 23 -27 32 3 19 124 101 178 122 67 26 239 75 245 70 3 -3 7 -34 10
-69 7 -104 31 -157 99 -226 49 -48 78 -67 143 -94 68 -28 83 -38 87 -59 10
-48 26 -232 26 -296 0 -89 56 -193 96 -178 23 9 52 75 60 134 4 30 11 59 16
66 6 7 5 20 -2 33 -8 15 -8 30 -1 53 6 18 9 54 8 81 -1 30 2 51 10 53 8 3 7
11 -3 31 -20 40 -17 60 14 87 28 25 52 32 52 16 0 -8 20 -37 108 -156 17 -22
69 -102 116 -178 65 -105 86 -147 86 -173 0 -42 23 -89 49 -104 38 -20 114 -6
80 15 -7 5 -1 17 16 35 18 18 24 33 19 42 -4 7 -7 27 -5 45 5 64 -31 152 -132
318 -45 74 -139 214 -156 233 -12 12 -21 25 -21 28 0 3 -24 42 -54 87 -50 76
-55 89 -66 171 -13 100 -34 170 -62 206 l-19 24 33 17 c47 25 50 27 78 33 70
15 245 150 274 211 13 28 30 42 64 56 26 11 70 31 97 44 68 33 239 103 269
111 21 5 27 0 42 -28 25 -49 108 -142 163 -182 25 -19 71 -41 101 -48 47 -12
57 -20 77 -54 41 -71 53 -103 88 -226 19 -66 48 -155 65 -197 16 -42 34 -95
40 -117 12 -50 33 -61 62 -32 20 20 21 27 15 202 -4 125 -10 196 -21 231 -9
28 -19 85 -23 129 l-6 78 30 -16 c17 -8 44 -26 59 -39 16 -12 42 -31 57 -40
15 -10 40 -36 55 -57 15 -22 34 -39 42 -40 9 0 62 -47 120 -105 57 -57 116
-109 132 -116 37 -15 72 -5 86 26 17 37 15 60 -9 107 -25 48 -337 375 -429
449 -64 51 -65 53 -73 113 -9 68 -15 79 -81 152 -25 29 -46 56 -46 62 0 6 39
36 88 68 48 32 91 64 95 71 4 7 13 13 19 13 6 0 26 11 44 25 18 14 44 25 58
25 14 0 27 4 30 9 3 4 33 16 67 25 61 18 176 74 214 106 11 9 74 47 139 84 65
37 137 82 159 99 29 23 41 28 45 19 12 -37 105 -142 166 -189 66 -51 70 -53
132 -53 48 0 64 -3 64 -14 0 -8 11 -17 25 -20 35 -9 92 -62 112 -105 20 -42
47 -83 91 -139 18 -22 32 -49 32 -61 0 -15 11 -27 36 -38 34 -17 36 -17 50 2
18 24 18 48 -1 160 -10 62 -27 119 -55 178 -39 85 -48 117 -32 117 4 0 51 -25
104 -55 53 -30 101 -55 107 -55 5 0 29 -13 53 -29 64 -43 368 -197 406 -206
45 -9 90 10 99 43 8 33 -25 60 -250 204 -237 150 -361 233 -426 282 -29 23
-62 45 -72 51 -11 5 -19 16 -19 23 0 22 -74 142 -134 219 -31 40 -56 78 -56
87 0 8 15 41 34 73 18 32 45 79 60 105 25 45 102 118 124 118 6 0 15 6 19 13
8 13 99 87 213 174 30 23 82 62 114 87 33 25 62 46 66 46 4 0 12 -11 18 -25
25 -55 167 -122 330 -156 113 -23 124 -29 163 -82 17 -23 70 -85 118 -137 64
-69 104 -103 144 -123 72 -35 94 -35 102 1 4 22 -3 42 -30 87 -19 32 -35 64
-35 70 0 7 -9 20 -20 30 -11 10 -20 24 -20 30 0 7 -23 47 -50 89 -54 83 -61
110 -31 126 82 43 519 -71 575 -151 44 -63 112 -76 156 -29 24 26 27 34 20 70
-4 23 -18 52 -30 65 -47 51 -237 135 -418 185 -59 17 -111 35 -116 40 -6 6
-25 10 -43 10 -58 0 -98 25 -156 96 -55 70 -98 113 -151 152 -21 16 -43 22
-82 22 -68 0 -68 9 -8 86 25 33 56 80 69 105 25 48 86 109 110 109 22 0 231
212 319 323 66 83 81 97 99 91 12 -3 71 -32 131 -63 l109 -56 108 0 108 0 25
-35 c13 -19 49 -71 79 -115 30 -44 69 -93 87 -110 17 -16 55 -54 84 -84 37
-38 58 -52 70 -48 25 10 20 76 -14 169 -16 45 -30 90 -30 100 0 10 -15 39 -34
65 -29 41 -87 140 -135 230 -20 39 -2 46 60 24 60 -21 329 -103 397 -121 23
-6 42 -15 42 -20 0 -6 11 -10 24 -10 13 0 53 -9 88 -20 70 -22 100 -25 126
-11 9 5 24 12 33 14 11 4 15 13 12 30 -3 14 1 35 8 48 11 22 11 23 -4 10 -14
-11 -18 -11 -23 2 -7 19 -41 33 -274 112 -318 108 -524 198 -610 266 -52 41
-131 64 -171 50 -45 -15 -69 -14 -69 5 0 9 9 47 21 85 18 61 26 72 68 102 93
67 204 211 381 494 56 89 106 163 110 163 5 0 16 -21 25 -47 20 -61 30 -74 85
-103 42 -23 55 -25 195 -26 122 0 156 -3 183 -17 17 -10 32 -24 32 -32 0 -8 7
-15 15 -15 8 0 22 -12 32 -26 10 -14 32 -42 48 -62 17 -21 52 -68 78 -107 59
-88 87 -118 164 -178 68 -54 92 -57 107 -14 9 24 0 48 -69 189 -44 89 -101
194 -127 234 -47 73 -78 128 -78 139 0 12 40 3 179 -41 80 -26 155 -50 166
-54 11 -5 65 -20 120 -34 55 -14 111 -29 124 -32 16 -5 22 -3 18 3 -4 6 2 13
13 16 14 3 20 14 20 31 0 17 7 29 20 34 17 6 18 10 7 32 -12 26 -27 31 -375
140 -85 27 -250 103 -365 168 -41 24 -133 117 -162 166 -5 9 -28 20 -49 23
-22 3 -55 17 -74 30 -19 12 -39 23 -43 23 -26 0 0 55 75 154 46 61 100 137
121 169 21 31 43 57 50 57 6 0 22 -11 35 -25 13 -14 28 -25 33 -25 5 0 21 -8
35 -19 63 -44 142 -78 212 -91 41 -7 87 -22 102 -32 36 -25 131 -153 197 -266
64 -108 158 -205 193 -200 84 12 -51 397 -194 555 -26 29 -48 57 -48 62 0 30
76 45 106 20 14 -11 134 -68 317 -150 115 -51 195 -103 207 -134 8 -22 16 -25
55 -25 37 0 47 4 62 27 10 15 18 48 19 79 1 45 -2 58 -23 78 -13 13 -128 77
-256 142 -328 166 -344 177 -387 265 -38 78 -97 138 -205 211 -80 54 -115 88
-115 110 0 32 47 114 77 133 15 10 89 78 165 152 78 76 145 133 156 133 11 0
39 -16 63 -35 80 -64 243 -93 351 -61 31 9 60 16 65 16 5 0 46 -48 90 -107
132 -176 160 -205 197 -201 27 3 31 7 34 35 4 39 -45 188 -93 282 -19 39 -35
77 -35 84 0 8 -9 22 -20 32 -32 29 -26 55 11 55 66 0 315 -134 419 -225 76
-67 122 -90 149 -76 30 16 41 36 47 83 6 44 4 48 -37 93 -43 46 -57 57 -178
137 -84 55 -244 140 -355 189 -83 36 -111 54 -167 109 -37 36 -84 80 -105 97
l-39 32 24 63 c39 103 71 232 60 243 -34 34 22 138 117 215 40 34 90 81 110
105 20 25 43 45 51 45 8 0 35 -12 60 -27 50 -29 93 -33 206 -20 65 7 68 7 76
-16 15 -39 107 -174 154 -227 51 -56 85 -65 103 -27 6 13 7 33 3 45 -4 11 -15
75 -24 143 -8 67 -19 127 -23 133 -24 40 6 42 59 5 53 -37 303 -162 358 -179
56 -17 58 -17 70 1 6 11 22 19 35 19 21 0 25 6 31 41 6 35 4 43 -15 56 -43 30
-282 173 -290 173 -13 0 -180 131 -180 142 0 5 -4 7 -8 4 -13 -8 -27 7 -50 54
-28 59 -137 192 -199 242 -26 22 -54 50 -62 63 -22 35 10 90 90 150 36 28 90
69 119 93 29 23 57 41 63 39 5 -1 15 -18 21 -37 18 -58 58 -71 206 -68 147 2
176 -8 201 -69 115 -276 132 -307 175 -323 40 -16 71 4 84 52 9 30 9 43 1 46
-6 2 -11 16 -11 30 0 42 -25 164 -42 202 -33 76 -38 92 -38 125 0 46 25 47 67
3 30 -33 51 -51 153 -129 30 -24 105 -91 165 -149 61 -59 123 -116 139 -128
92 -70 145 31 71 134 -19 27 -46 65 -59 84 -19 28 -195 201 -258 253 -8 6 -22
24 -31 39 -9 15 -33 35 -52 44 -49 23 -108 93 -122 145 -20 74 -65 129 -162
199 -50 35 -91 67 -91 71 0 11 172 161 203 178 24 13 29 12 63 -19 52 -45 115
-70 213 -83 67 -9 85 -15 89 -29 2 -10 10 -18 17 -18 13 0 30 -28 26 -43 -1
-5 6 -11 16 -14 28 -8 55 -48 122 -178 66 -128 129 -205 168 -205 26 0 58 42
49 66 -18 48 -46 218 -37 227 7 7 3 14 -12 22 -12 6 -22 20 -23 30 0 11 -6 30
-12 43 -11 19 -10 23 3 28 9 4 28 0 42 -7 30 -16 191 -162 213 -194 15 -21 75
-76 138 -128 33 -27 102 -38 102 -17 0 6 6 10 14 10 8 0 16 7 20 15 3 8 12 15
21 15 8 0 15 2 15 5 0 14 -36 73 -71 118 -22 27 -39 57 -39 68 0 12 -15 26
-42 40 -49 24 -288 259 -288 282 0 8 -11 18 -24 21 -35 9 -86 71 -86 106 0 47
-30 93 -93 141 -32 24 -76 59 -98 76 -23 18 -54 41 -70 50 -16 10 -29 22 -29
28 0 7 48 40 108 75 120 71 199 129 287 210 l60 55 6 -52 c7 -56 33 -106 88
-166 45 -50 103 -80 170 -87 34 -3 57 -11 61 -20 5 -8 23 -42 42 -75 19 -33
50 -96 68 -140 46 -112 88 -192 106 -199 30 -11 53 -6 65 15 24 46 28 79 14
133 -8 30 -18 88 -24 129 -6 49 -16 87 -30 106 -12 16 -21 37 -21 48 0 10 -11
39 -25 65 -29 55 -31 68 -10 68 15 0 33 -11 56 -35 32 -34 134 -166 152 -199
12 -21 27 -46 32 -55 35 -55 101 -173 158 -282 37 -70 72 -131 79 -136 31 -25
53 -22 92 12 l39 34 -13 62 c-8 37 -46 127 -96 228 -110 218 -126 245 -212
359 -40 54 -82 114 -93 135 -11 20 -23 37 -27 37 -24 0 -49 42 -55 93 -4 30
-17 76 -28 103 -27 62 -118 204 -130 204 -29 0 27 118 77 162 10 9 73 33 138
54 66 20 157 52 202 70 46 19 88 34 94 34 6 0 10 -29 10 -70 0 -50 4 -70 13
-70 7 0 20 -9 29 -20 10 -10 43 -26 75 -35 93 -26 140 -45 155 -63 8 -9 32
-57 54 -107 65 -150 144 -209 173 -130 7 19 10 43 7 53 -3 9 -7 46 -10 82 l-5
65 34 17 c19 10 40 15 47 12 21 -9 163 -232 222 -350 68 -134 111 -201 135
-209 24 -7 71 14 71 32 0 7 5 13 10 13 6 0 10 6 10 13 0 27 -73 235 -106 300
-19 38 -34 77 -34 87 0 10 -16 37 -35 60 -19 23 -35 52 -35 65 0 14 -7 26 -18
29 -19 7 -76 81 -85 112 -4 11 -11 64 -17 119 -6 54 -17 124 -24 155 -8 30
-22 90 -32 133 l-17 78 21 15 c12 8 22 21 22 27 0 21 35 35 149 61 65 15 154
44 216 71 104 47 125 50 125 15 0 -10 6 -20 14 -23 8 -3 20 -18 28 -34 21 -43
86 -74 174 -80 42 -3 78 -11 80 -17 2 -6 13 -93 24 -193 11 -100 24 -193 30
-208 5 -14 10 -39 10 -54 0 -49 37 -64 93 -38 29 13 32 23 17 61 -5 14 -6 26
-1 26 4 0 12 65 18 145 6 84 15 150 22 159 9 11 10 20 1 36 -13 25 -3 83 13
77 27 -9 149 -246 202 -392 18 -49 52 -135 75 -190 23 -55 55 -149 70 -210 18
-68 35 -114 46 -122 28 -21 61 -15 95 15 l31 28 -11 99 c-11 107 -17 126 -67
250 -18 44 -44 121 -59 170 -14 50 -35 113 -47 140 -11 28 -31 77 -45 110 -13
33 -31 72 -39 88 -8 15 -13 31 -9 36 3 6 0 13 -8 18 -20 13 -77 108 -77 129 0
10 9 34 20 52 11 18 20 47 20 65 1 17 7 48 13 67 10 25 11 62 5 130 -4 52 -6
100 -4 105 2 6 32 25 67 43 58 29 77 33 209 42 171 13 301 32 388 59 43 13 62
16 63 8 14 -281 17 -306 38 -351 13 -25 39 -59 59 -74 47 -37 126 -72 163 -72
15 0 30 -4 33 -8 3 -5 10 -49 17 -98 8 -57 19 -96 30 -109 24 -27 49 -88 49
-120 0 -21 5 -25 29 -25 25 0 31 6 41 36 7 19 15 98 19 175 5 81 13 145 19
151 7 7 13 10 14 7 2 -2 14 -19 27 -37 12 -19 24 -40 25 -47 1 -7 7 -19 13
-26 21 -27 76 -145 114 -244 46 -124 101 -249 112 -253 4 -2 7 -10 7 -19 0 -8
11 -29 24 -46 13 -18 31 -48 38 -67 28 -66 61 -75 94 -25 16 24 16 31 -1 118
-20 105 -48 201 -77 267 -12 25 -24 54 -28 65 -4 11 -21 56 -38 100 -16 44
-37 100 -45 125 -31 94 -62 175 -69 178 -5 2 -8 9 -8 15 0 6 -7 18 -16 28 -15
17 -15 22 4 71 41 109 42 115 22 155 -20 43 -55 159 -66 218 -4 22 -15 52 -25
66 -15 21 -24 24 -56 21 -38 -5 -38 -4 -20 16 37 41 107 59 352 91 132 17 254
33 271 36 41 7 46 -8 29 -82 -21 -87 -19 -117 9 -138 13 -10 27 -31 30 -47 10
-52 72 -114 150 -153 l73 -36 7 -99 c10 -166 41 -260 84 -260 44 0 71 63 92
213 13 96 26 117 71 117 34 0 36 -2 48 -95 5 -38 17 -101 26 -140 8 -38 13
-75 11 -82 -3 -7 1 -27 9 -46 7 -18 30 -125 49 -238 20 -112 40 -224 45 -248
18 -88 71 -122 124 -81 28 23 38 75 15 82 -9 3 -8 13 4 37 11 25 13 43 7 74
-5 23 -14 78 -19 122 -22 168 -27 203 -34 213 -6 10 -10 51 -21 202 -2 25 -8
61 -14 80 -6 19 -14 71 -17 115 -4 44 -12 83 -17 87 -7 4 2 35 24 85 l36 79
-12 90 c-16 115 -44 251 -58 282 -10 21 -8 27 13 44 82 66 230 116 377 126 83
6 115 13 128 25 20 20 65 23 65 4 0 -8 9 -22 21 -33 16 -14 19 -26 14 -49 -3
-16 -13 -77 -21 -135 -17 -114 -15 -129 31 -239 19 -46 25 -74 21 -100 -3 -20
-10 -71 -16 -114 -5 -43 -14 -87 -20 -97 -16 -29 -17 -214 -2 -232 34 -42 102
-13 102 43 0 16 4 37 10 47 21 38 68 159 75 192 4 19 13 44 19 55 7 11 16 47
19 79 3 32 10 63 15 68 5 5 27 8 48 6 33 -3 42 -8 56 -38 9 -19 22 -60 27 -90
5 -30 23 -108 40 -173 30 -119 47 -220 57 -337 3 -35 9 -69 14 -75 4 -5 11
-28 15 -50 9 -47 27 -71 61 -79 30 -8 59 17 67 58 14 79 -27 566 -52 614 -5
10 -12 39 -16 67 -4 27 -13 61 -20 75 -7 14 -19 54 -26 88 -13 61 -13 63 18
125 40 79 54 211 29 272 -9 20 -13 41 -10 46 7 12 211 11 256 -1 44 -13 45
-17 51 -190 5 -134 19 -177 86 -254 27 -32 40 -54 36 -65 -30 -77 -49 -156
-49 -206 -1 -49 4 -70 30 -114 34 -60 58 -81 73 -66 6 6 15 44 22 85 6 41 22
103 36 138 l25 62 79 0 c53 0 79 -4 79 -11 0 -7 9 -30 19 -53 11 -23 41 -108
67 -191 26 -82 51 -155 55 -160 4 -6 15 -42 23 -80 20 -87 56 -185 67 -185 5
0 9 -11 9 -25 0 -39 21 -73 49 -80 14 -4 29 -12 34 -18 5 -8 14 -4 29 13 11
14 25 24 30 22 5 -1 7 5 4 15 -3 10 -10 47 -16 83 -7 36 -15 74 -20 85 -9 25
-32 122 -36 154 -1 13 -7 35 -12 50 -6 14 -18 60 -27 101 -10 41 -21 82 -25
89 -4 8 -4 26 1 39 7 19 6 27 -7 36 -18 14 -50 101 -60 166 -4 25 -14 50 -22
56 -13 10 -11 20 17 80 18 38 39 76 47 85 22 24 41 195 25 221 -20 31 -2 38
74 27 73 -10 431 -101 475 -121 14 -6 33 -12 42 -13 30 -3 32 -14 14 -66 -15
-40 -18 -69 -14 -133 7 -103 32 -162 99 -233 48 -51 51 -57 45 -93 -4 -25 -1
-51 8 -72 8 -18 19 -52 25 -75 16 -59 95 -145 130 -141 26 3 26 3 34 123 12
178 6 166 90 181 l37 6 0 -50 c0 -28 5 -54 10 -57 17 -10 94 -172 130 -270 18
-49 39 -105 47 -122 7 -18 20 -47 27 -65 19 -45 88 -244 121 -350 15 -48 33
-92 39 -97 7 -6 28 -12 46 -13 29 -3 36 1 49 27 13 26 12 40 -4 120 -27 138
-54 222 -161 497 -19 48 -34 95 -34 104 0 9 -10 29 -21 46 -12 16 -27 48 -34
71 -17 55 -48 127 -89 207 l-34 65 34 75 c18 41 34 83 34 93 0 10 7 20 15 23
10 4 15 20 15 49 l0 42 158 7 c89 4 218 18 300 32 78 14 146 23 151 20 5 -3
12 -23 16 -43 14 -78 97 -307 121 -334 8 -8 48 -83 89 -165 42 -82 84 -156 94
-165 11 -8 29 -40 42 -70 13 -30 36 -76 51 -102 15 -26 28 -53 28 -59 0 -6 12
-43 26 -82 20 -57 28 -108 41 -266 8 -107 20 -198 26 -201 5 -4 7 -14 4 -23
-3 -8 1 -22 9 -31 9 -8 12 -15 9 -15 -11 0 105 -193 126 -210 4 -3 16 -23 27
-45 37 -72 117 -135 173 -135 77 0 139 38 139 84 0 23 -58 85 -97 105 -13 6
-59 66 -103 133 -92 140 -120 213 -120 322 0 131 -39 372 -66 406 -6 8 -15 26
-19 40 -4 14 -18 45 -31 70 -13 25 -24 51 -24 58 0 7 -7 15 -15 18 -8 4 -15
11 -15 17 0 12 -60 143 -86 187 -57 98 -186 370 -193 407 -10 49 -5 83 12 83
18 0 86 -51 92 -69 3 -9 19 -24 35 -33 17 -10 38 -30 47 -45 8 -15 32 -41 52
-56 37 -29 130 -111 234 -207 80 -75 86 -88 77 -185 -12 -142 7 -236 81 -390
71 -149 121 -223 152 -225 19 0 67 43 82 73 13 29 13 39 0 89 -8 31 -25 78
-39 104 -91 177 -88 164 -89 334 -2 153 -2 156 -34 220 -23 47 -63 97 -145
182 -62 64 -123 119 -135 123 -23 6 -39 38 -28 55 3 6 -4 10 -17 10 -16 0 -33
14 -55 47 -18 26 -31 48 -29 51 2 2 27 -3 55 -12 89 -26 195 -115 226 -188 12
-29 21 -38 39 -38 14 0 37 -11 53 -24 16 -13 56 -40 90 -60 34 -20 71 -47 81
-61 11 -14 23 -25 26 -25 4 0 30 -16 59 -36 64 -44 202 -111 271 -131 87 -25
101 -26 115 -9 8 9 19 16 27 16 39 0 44 119 7 150 -11 8 -23 27 -26 40 -8 31
-89 138 -154 204 -72 73 -301 233 -498 346 -116 67 -154 94 -202 143 -38 39
-51 60 -50 78 3 31 54 129 68 129 13 0 86 -37 121 -61 14 -11 33 -19 42 -19 9
0 16 -6 16 -14 0 -44 251 -177 473 -251 159 -53 245 -68 397 -69 216 0 274 41
225 159 -13 34 -32 50 -113 100 -134 83 -325 178 -397 198 -89 24 -230 47
-292 47 -62 0 -81 8 -143 63 -25 21 -72 52 -105 68 -34 16 -74 42 -89 58 l-29
30 14 98 c7 54 18 101 23 105 6 4 67 8 136 9 69 0 150 5 180 9 168 28 245 23
350 -23 89 -39 272 -67 430 -66 191 0 237 8 267 45 28 36 29 64 2 97 -29 38
-75 47 -301 56 l-203 9 -156 51 c-85 28 -175 54 -200 57 -24 3 -93 -1 -154 -9
-140 -20 -356 -31 -373 -19 -15 10 -42 110 -35 128 4 11 100 54 119 54 3 0 54
27 112 59 178 98 251 101 502 18 120 -39 131 -41 255 -41 154 -1 177 5 350 99
188 102 406 203 507 234 51 16 161 45 243 65 93 23 164 46 187 61 62 41 85
113 42 129 -8 3 -13 10 -10 15 9 14 -141 23 -166 10 -13 -7 -43 -14 -68 -16
-54 -4 -237 -47 -300 -70 -45 -16 -351 -155 -380 -172 -68 -40 -256 -132 -300
-147 -82 -27 -271 -24 -328 5 -50 25 -223 55 -322 55 -95 0 -112 -3 -185 -32
-44 -17 -104 -50 -134 -73 -57 -43 -100 -62 -169 -74 l-43 -7 -92 91 c-51 50
-113 116 -137 148 -29 38 -72 77 -125 111 -73 49 -145 105 -377 295 -93 77
-324 234 -397 271 -70 36 -77 47 -57 97 21 51 56 219 56 264 0 22 11 48 33 77
18 24 70 117 116 208 46 91 87 167 91 170 4 3 15 20 24 38 9 17 21 32 26 32 5
0 7 7 4 15 -4 8 -1 15 5 15 6 0 17 15 26 33 14 30 79 130 124 188 11 14 32 51
47 83 24 51 25 60 13 82 -10 20 -10 27 -1 33 32 19 -35 101 -83 101 -47 0 -75
-32 -75 -85 0 -48 -14 -94 -33 -110 -7 -5 -21 -28 -32 -49 -11 -21 -32 -52
-47 -68 -15 -16 -47 -66 -72 -112 -25 -46 -64 -112 -86 -147 -22 -35 -43 -71
-46 -79 -47 -123 -105 -230 -124 -230 -6 0 -18 16 -27 35 -15 31 -15 51 -3
222 7 103 10 206 6 228 -4 22 -8 57 -8 78 0 20 -3 37 -6 37 -4 0 -6 31 -4 69
3 59 1 72 -17 90 -28 28 -49 17 -56 -27 -12 -77 -67 -288 -81 -310 -11 -17
-12 -27 -3 -43 8 -17 7 -41 -7 -108 -9 -47 -21 -90 -26 -96 -5 -6 -59 -10
-121 -10 -102 0 -117 -2 -167 -28 -70 -35 -127 -79 -217 -168 -83 -82 -56 -82
-258 1 -77 32 -167 66 -200 75 -33 9 -112 35 -175 56 -93 31 -257 73 -458 117
-38 8 -37 29 3 73 45 51 75 113 74 159 0 57 -56 150 -106 178 -37 20 -43 28
-43 56 0 32 27 126 39 136 4 3 11 23 17 45 23 81 82 234 128 331 121 252 166
371 166 439 0 42 -5 60 -21 76 -25 25 -68 22 -83 -6 -6 -11 -19 -26 -28 -33
-10 -7 -18 -25 -18 -41 0 -29 -71 -184 -89 -195 -6 -4 -11 -20 -11 -36 0 -15
-7 -30 -15 -34 -8 -3 -15 -12 -15 -19 0 -19 -86 -208 -98 -216 -5 -3 -13 -22
-17 -41 -4 -19 -22 -63 -41 -97 -19 -34 -34 -68 -34 -76 0 -26 -24 -25 -38 2
-8 14 -25 103 -38 196 -13 94 -36 215 -49 269 -14 54 -25 116 -25 137 0 29 -6
42 -26 58 -35 28 -62 27 -68 -1 -19 -91 -23 -379 -11 -663 l6 -130 -30 -15
c-101 -52 -150 -83 -183 -117 -38 -40 -87 -130 -108 -198 -10 -34 -60 -174
-65 -183 -1 -1 -75 -9 -164 -17 -90 -8 -253 -26 -364 -40 -226 -28 -280 -30
-295 -12 -5 6 -14 41 -21 77 -22 129 -103 241 -212 292 -67 31 -74 46 -89 178
-6 52 -13 102 -15 110 -8 26 -44 349 -60 535 -37 430 -36 426 -98 480 l-34 31
-37 -24z m1976 -1394 l126 -62 -39 -44 c-21 -25 -39 -55 -39 -67 0 -42 -21
-48 -124 -36 -52 6 -143 11 -201 11 -107 0 -107 0 -100 23 4 12 13 42 20 67
14 49 55 116 83 136 29 20 106 43 127 38 11 -3 77 -32 147 -66z m-1689 -135
c52 -31 87 -90 84 -143 l-2 -45 -180 -43 c-99 -23 -189 -41 -200 -40 -26 4
-46 47 -52 117 -6 63 -5 65 92 128 84 55 190 66 258 26z m3434 -413 c87 -14
148 -49 195 -112 l40 -53 -5 -90 c-6 -98 -13 -125 -32 -125 -7 0 -43 17 -81
39 -38 21 -140 78 -226 125 -87 48 -160 92 -164 97 -11 19 38 68 98 98 67 34
83 36 175 21z m-2207 -99 c37 -18 53 -45 108 -177 57 -136 77 -202 129 -439
l38 -170 0 -432 c1 -238 -2 -433 -6 -433 -11 0 -27 -57 -39 -140 -39 -267 -47
-312 -58 -319 -7 -4 -10 -15 -6 -24 3 -10 1 -17 -5 -17 -6 0 -11 -13 -11 -29
0 -34 -11 -44 -65 -61 -22 -7 -43 -18 -47 -24 -5 -8 -13 -7 -28 2 -11 6 -26
12 -35 12 -25 0 -34 32 -24 85 5 28 13 59 18 70 5 11 17 85 26 163 9 79 30
210 47 290 35 163 38 235 26 602 -6 200 -31 384 -78 571 -23 96 -33 121 -107
276 -60 128 -65 162 -28 191 28 23 102 24 145 3z m-3036 -106 c15 -8 36 -15
45 -15 30 0 120 -50 146 -82 24 -28 25 -32 10 -48 -13 -14 -70 -35 -186 -66
-11 -3 -24 17 -48 78 -18 46 -38 93 -43 105 -20 42 20 57 76 28z m1320 -104
c3 -4 23 -12 43 -15 31 -6 51 -22 110 -88 40 -44 84 -105 98 -134 14 -30 36
-78 50 -107 14 -30 28 -68 31 -85 4 -17 13 -37 20 -43 8 -6 14 -20 14 -31 0
-11 15 -47 34 -81 79 -142 165 -354 232 -572 20 -66 47 -140 59 -165 12 -25
20 -50 18 -57 -2 -6 1 -14 6 -18 6 -3 11 -16 11 -28 0 -12 11 -49 25 -82 13
-33 25 -71 25 -85 0 -14 7 -34 15 -44 8 -11 15 -29 15 -41 0 -11 6 -29 14 -40
7 -11 16 -40 19 -65 3 -25 15 -88 26 -140 53 -240 51 -223 32 -244 -19 -22
-84 -56 -107 -56 -9 0 -31 7 -49 16 -26 12 -37 26 -49 64 -9 27 -16 58 -16 69
0 11 -5 23 -11 26 -6 4 -8 13 -5 21 15 40 -64 334 -168 621 -35 98 -74 214
-86 258 -25 93 -73 218 -135 348 -45 96 -145 330 -145 341 0 4 -20 50 -45 102
-29 60 -64 115 -94 147 -26 29 -51 60 -54 70 -4 9 -13 17 -21 17 -9 0 -23 11
-32 25 -32 49 13 102 88 104 15 1 29 -3 32 -8z m3493 -201 c18 -11 34 -30 37
-42 44 -245 72 -521 77 -749 1 -45 -13 -133 -31 -194 -5 -16 -14 -127 -20
-246 -7 -145 -17 -242 -30 -297 -27 -111 -107 -350 -131 -388 -10 -17 -19 -40
-19 -51 0 -25 -25 -48 -74 -68 -36 -15 -41 -15 -82 4 -42 20 -59 51 -36 65 5
3 9 22 10 42 1 20 15 70 31 112 62 160 94 320 111 562 7 93 20 187 32 235 43
158 30 458 -31 790 -21 110 -10 205 26 233 25 18 94 15 130 -8z m-4907 -295
c-18 -21 -3 -18 31 6 21 15 27 16 23 5 -3 -8 1 -25 10 -38 9 -12 16 -37 16
-55 0 -18 5 -33 10 -33 6 0 10 -11 10 -23 0 -13 9 -32 20 -42 11 -10 20 -24
20 -31 0 -8 9 -19 20 -26 11 -7 20 -18 20 -23 0 -6 13 -26 30 -45 16 -19 29
-40 30 -47 0 -6 14 -23 30 -36 17 -14 30 -30 30 -36 0 -5 14 -19 30 -31 51
-36 124 -159 165 -277 21 -59 45 -126 54 -148 10 -22 24 -60 33 -85 9 -25 26
-70 38 -100 12 -30 25 -67 30 -82 15 -47 152 -340 187 -398 18 -30 33 -60 33
-66 0 -6 7 -17 15 -24 8 -7 15 -21 15 -32 0 -10 12 -42 26 -71 17 -33 27 -69
28 -102 1 -46 -1 -50 -24 -53 -14 -2 -29 -8 -35 -13 -23 -22 -110 8 -142 50
-24 30 -122 237 -147 311 -15 41 -35 83 -46 95 -11 12 -20 28 -20 35 0 8 -17
50 -38 95 -22 44 -52 118 -67 165 -15 47 -33 92 -40 100 -7 8 -10 21 -8 28 3
6 0 12 -6 12 -6 0 -11 7 -11 15 0 8 -12 40 -26 72 -36 79 -85 212 -91 245 -3
15 -47 71 -104 134 -54 59 -99 110 -99 113 0 4 -20 33 -45 66 -25 33 -45 65
-45 70 0 6 -14 30 -30 55 -16 25 -37 66 -46 93 -17 51 -31 57 -74 32 -14 -8
-38 -14 -53 -15 -15 0 -41 -7 -57 -15 -17 -9 -30 -13 -30 -11 0 11 60 36 87
36 15 1 39 7 53 15 14 8 38 14 53 15 16 0 40 9 54 20 17 13 21 20 11 20 -9 0
-21 -7 -28 -15 -7 -9 -27 -14 -49 -13 l-36 1 35 4 c19 3 43 12 52 20 10 9 26
13 37 10 13 -3 26 3 38 17 l18 21 -25 -20 c-23 -18 -23 -17 3 11 15 16 28 39
28 50 1 17 2 17 6 1 3 -10 -1 -24 -7 -32z m-1195 -787 c56 -14 98 -64 135
-160 41 -107 77 -165 158 -255 37 -40 69 -80 72 -87 3 -8 52 -68 110 -133 127
-142 220 -256 220 -270 0 -6 7 -16 15 -23 8 -7 24 -33 36 -59 11 -25 37 -73
58 -106 92 -146 191 -330 191 -353 0 -15 -69 -72 -87 -72 -34 0 -102 42 -126
78 -28 41 -138 223 -225 372 -80 137 -121 196 -212 301 -44 52 -95 111 -113
132 -53 64 -101 118 -119 135 -10 9 -18 22 -18 30 0 7 -4 10 -10 7 -6 -3 -10
4 -10 18 0 14 -7 30 -15 37 -8 7 -15 21 -15 31 0 17 -5 21 -26 18 -4 0 -15 12
-25 28 -10 15 -24 36 -31 46 -11 15 -10 20 5 31 24 19 22 27 -18 66 -19 19
-35 40 -35 46 0 7 -11 25 -25 40 -18 19 -25 38 -25 65 0 59 22 65 135 37z
m-3055 -264 c27 -13 52 -33 55 -44 4 -11 10 -20 15 -20 4 0 18 -21 30 -46 12
-25 32 -57 44 -72 12 -15 34 -46 49 -69 l27 -43 -29 -15 c-17 -8 -83 -35 -148
-59 -65 -24 -142 -54 -171 -65 l-54 -21 7 63 c6 54 2 82 -24 180 -17 64 -31
123 -31 131 0 20 47 75 85 98 36 22 73 18 145 -18z m1448 -271 c-20 -2 -42
-11 -48 -19 -7 -8 -27 -14 -45 -14 -30 0 -32 -2 -27 -27 3 -16 8 -30 12 -33 3
-3 16 -34 29 -70 12 -36 33 -95 46 -132 13 -37 49 -117 81 -178 87 -168 352
-493 534 -657 14 -12 36 -34 50 -49 14 -14 56 -51 94 -82 38 -30 136 -122 218
-203 162 -161 168 -173 105 -202 -18 -8 -51 -20 -74 -26 -49 -13 -70 -2 -163
87 -30 29 -58 56 -63 60 -4 4 -45 45 -90 92 -80 83 -243 232 -325 297 -22 18
-84 85 -137 150 -54 65 -108 127 -121 138 -13 12 -24 26 -24 32 0 6 -22 36
-50 66 -27 30 -50 57 -50 61 0 3 -18 29 -40 58 -22 29 -40 58 -40 64 0 6 -6
17 -14 23 -8 7 -26 42 -41 79 -15 37 -32 74 -39 82 -7 8 -19 37 -25 64 -7 27
-21 66 -31 86 -11 21 -22 56 -26 78 -10 61 -17 68 -51 48 l-28 -17 30 26 c17
14 44 29 60 34 29 9 56 18 138 48 20 7 50 13 66 13 16 0 34 7 41 15 7 9 27 14
49 13 l36 -1 -37 -4z m-2928 -509 c59 -56 70 -72 70 -99 0 -36 -12 -50 -53
-60 -15 -4 -27 -11 -27 -15 0 -5 -17 -14 -37 -21 -21 -7 -65 -25 -98 -41 -91
-43 -99 -40 -118 38 -9 37 -24 81 -32 98 -9 17 -19 50 -22 73 -6 42 -5 43 33
59 32 14 103 25 196 33 10 0 49 -29 88 -65z m1351 -36 c29 -53 529 -598 550
-598 4 0 16 -13 25 -29 10 -17 98 -99 197 -183 205 -174 373 -345 408 -415 13
-26 34 -56 47 -66 25 -21 79 -96 234 -326 22 -32 23 -84 3 -101 -26 -22 -111
-25 -153 -6 -38 17 -118 118 -161 203 -11 23 -25 45 -31 48 -6 4 -8 11 -4 16
3 5 -20 37 -51 71 -31 33 -81 96 -111 139 -30 43 -68 89 -85 103 -16 14 -29
29 -29 35 0 6 -9 15 -20 21 -24 13 -108 83 -165 138 -22 21 -58 52 -80 68 -61
43 -242 222 -273 269 -15 23 -59 69 -97 102 -39 33 -108 99 -154 147 -46 47
-87 86 -91 86 -4 0 -10 10 -14 23 -3 13 -25 45 -48 72 -44 50 -68 101 -68 145
0 48 17 57 107 59 44 1 54 -2 64 -21z m7499 -68 c0 -17 -7 -44 -15 -60 -14
-27 -14 -33 0 -59 11 -23 13 -40 6 -77 -11 -56 -31 -74 -80 -74 -86 0 -93 12
-109 165 -6 55 -13 108 -17 118 -7 16 2 17 104 17 l111 0 0 -30z m874 -66
l118 -17 -8 -41 c-4 -23 -8 -57 -10 -76 -1 -19 -9 -48 -18 -65 -9 -16 -16 -37
-16 -46 0 -26 -47 -69 -75 -69 -31 0 -116 75 -138 123 -9 18 -23 70 -31 116
-18 93 -14 105 34 97 14 -3 78 -12 144 -22z m-2054 -191 c0 -9 -7 -25 -17 -35
-15 -17 -15 -18 5 -18 15 0 23 -8 28 -27 3 -16 12 -48 19 -73 29 -94 35 -138
25 -166 -11 -27 -11 -27 -85 -21 -79 7 -195 47 -231 79 -40 36 -75 121 -72
174 3 48 4 49 43 58 22 6 87 22 145 36 108 28 140 26 140 -7z m3263 -57 c54
-8 101 -17 104 -20 4 -3 1 -24 -6 -46 -6 -21 -9 -50 -6 -63 4 -15 1 -28 -9
-36 -9 -8 -16 -19 -16 -27 0 -18 -33 -26 -74 -18 -24 4 -49 20 -76 50 -38 42
-40 47 -40 109 0 45 4 65 13 65 6 0 56 -7 110 -14z m-4503 -236 c-25 -64 -25
-92 0 -170 28 -87 26 -101 -18 -129 -76 -50 -124 -71 -163 -71 -33 0 -42 5
-58 31 -19 32 -34 101 -47 214 l-6 60 78 34 c95 40 204 80 221 81 9 0 7 -15
-7 -50z m-6869 -219 c68 -25 119 -52 334 -179 33 -19 98 -65 143 -101 46 -36
105 -82 132 -101 26 -19 75 -56 109 -82 34 -27 65 -48 70 -48 5 0 47 -19 93
-43 46 -24 106 -53 133 -65 28 -12 86 -51 130 -87 44 -35 103 -82 130 -104 28
-21 136 -123 240 -226 105 -102 220 -214 258 -247 37 -34 67 -64 67 -68 0 -3
50 -58 112 -121 115 -118 200 -234 218 -297 9 -34 8 -39 -15 -59 -29 -25 -83
-38 -121 -29 -35 9 -134 104 -134 128 0 11 -50 71 -113 136 -61 64 -147 154
-189 200 -42 45 -81 82 -87 82 -6 0 -11 5 -11 11 0 5 -34 46 -75 89 -41 43
-75 84 -75 89 0 6 -6 11 -13 11 -7 0 -57 41 -112 91 -94 86 -223 190 -267 215
-10 6 -18 14 -16 17 6 10 -72 56 -85 51 -8 -3 -20 2 -27 11 -7 8 -18 15 -25
15 -7 0 -18 6 -24 14 -7 8 -26 18 -42 21 -16 4 -29 11 -29 16 0 5 -6 9 -14 9
-8 0 -17 6 -20 13 -5 10 -7 10 -12 0 -8 -18 -24 -16 -24 2 0 8 -4 15 -9 15 -6
0 -23 11 -38 25 -47 42 -52 45 -63 45 -6 0 -13 7 -16 15 -4 8 -14 15 -25 15
-10 0 -23 9 -29 20 -6 11 -17 20 -25 20 -8 0 -15 7 -15 15 0 8 -7 15 -15 15
-9 0 -20 11 -27 24 -6 16 -21 26 -37 28 -20 2 -27 9 -29 31 -2 17 -8 27 -16
24 -6 -3 -29 6 -51 19 -22 14 -48 27 -57 30 -10 4 -18 11 -18 18 0 6 -10 12
-23 13 -26 1 -167 82 -167 95 0 5 -8 7 -19 3 -10 -3 -24 1 -31 10 -7 8 -16 15
-21 15 -4 0 -28 14 -53 31 -69 46 -75 97 -14 124 48 21 74 18 159 -14z m-1096
-89 c11 -6 45 -21 75 -35 66 -30 82 -47 124 -130 l33 -64 -36 -24 c-20 -13
-53 -36 -73 -51 l-36 -28 -35 42 c-19 24 -46 59 -59 79 -13 20 -41 51 -62 69
-47 42 -66 78 -66 128 l0 39 57 -8 c31 -4 66 -12 78 -17z m6584 -102 c-5 -23
-11 -64 -12 -93 -3 -46 -7 -55 -36 -74 -35 -23 -104 -42 -193 -50 -50 -5 -63
-2 -93 18 -39 27 -41 32 -21 48 11 9 353 189 362 191 1 0 -2 -18 -7 -40z
m-1239 -653 c0 -29 6 -77 14 -107 8 -30 17 -76 21 -102 9 -57 12 -56 -112 -27
-169 39 -208 53 -235 77 -32 30 -30 37 20 52 20 7 54 24 76 38 47 32 198 119
209 121 4 1 7 -23 7 -52z m-5248 -111 c-55 -57 -49 -71 100 -199 105 -91 172
-133 393 -244 207 -104 297 -161 390 -245 83 -76 214 -178 227 -178 6 0 34
-15 62 -33 106 -70 351 -187 389 -187 14 0 32 -7 41 -15 28 -28 171 -82 316
-120 441 -113 644 -202 666 -291 5 -19 11 -23 28 -19 11 3 6 -2 -11 -12 -18
-9 -33 -23 -33 -30 0 -7 -3 -12 -7 -12 -24 4 -34 -3 -29 -18 7 -25 -36 -76
-60 -70 -18 4 -18 5 1 6 25 2 57 44 49 65 -4 11 -14 13 -35 9 -22 -4 -53 6
-132 45 -144 71 -156 75 -406 137 -124 32 -266 75 -320 97 -232 97 -339 140
-387 158 -61 23 -74 30 -308 185 -99 66 -189 130 -199 143 -52 63 -190 154
-386 251 -112 56 -226 118 -254 137 -29 20 -59 33 -69 31 -12 -4 -18 0 -18 11
0 27 -159 170 -181 165 -11 -3 -19 -11 -19 -18 0 -6 -9 -20 -20 -30 -18 -17
-20 -17 -14 -2 3 9 10 17 15 17 5 0 9 9 9 20 0 12 7 20 16 20 23 0 43 29 44
63 0 17 5 27 15 27 10 0 15 10 15 26 0 29 24 53 53 54 9 0 17 6 17 13 0 7 14
26 30 42 17 16 31 38 31 49 1 19 2 19 6 2 3 -11 -6 -30 -25 -50z m-1015 -38
c32 -12 78 -35 103 -52 65 -43 160 -141 160 -164 0 -21 -94 -113 -142 -138
-26 -14 -28 -13 -44 18 -9 18 -57 74 -105 125 -49 51 -89 97 -89 104 0 6 -7
26 -16 44 -14 31 -14 35 1 59 22 33 53 33 132 4z m5164 -521 c3 -20 11 -42 17
-49 6 -8 28 -47 48 -88 l36 -74 -47 -44 c-47 -45 -47 -45 -103 -38 -66 8 -121
33 -176 79 l-39 33 64 60 c35 32 88 83 119 111 30 29 59 51 65 49 5 -1 13 -19
16 -39z m-4977 -543 c29 -19 58 -46 64 -58 17 -37 130 -164 152 -171 11 -3 20
-12 20 -20 0 -16 97 -105 114 -105 7 0 23 -11 36 -25 13 -14 29 -25 36 -25 6
0 25 -12 42 -27 17 -16 95 -61 174 -102 78 -41 150 -79 158 -86 17 -14 382
-180 480 -218 36 -14 99 -35 140 -46 41 -12 111 -32 155 -46 255 -78 501 -139
524 -130 8 3 18 1 21 -6 4 -6 63 -30 131 -53 68 -23 135 -49 149 -58 14 -9 46
-23 73 -33 26 -10 47 -21 47 -25 0 -4 9 -10 20 -13 26 -7 43 -52 29 -78 -14
-27 -68 -59 -99 -59 -35 0 -92 20 -184 64 -44 21 -118 47 -165 58 -47 11 -100
27 -117 34 -17 8 -62 21 -100 29 -81 19 -171 44 -199 56 -11 5 -42 13 -70 19
-27 6 -117 30 -200 55 -82 24 -168 47 -190 50 -22 4 -62 18 -90 31 -27 13 -74
33 -104 44 -30 12 -66 29 -80 39 -14 10 -61 33 -103 51 -43 17 -95 43 -115 57
-21 14 -51 30 -68 36 -42 15 -284 144 -320 171 -16 12 -38 26 -49 29 -31 12
-135 89 -188 139 -27 25 -56 49 -63 52 -8 3 -12 11 -10 18 3 8 -7 18 -25 25
-16 6 -30 18 -30 27 0 9 -4 16 -8 16 -14 0 -152 162 -173 202 -41 79 -17 118
73 118 50 0 66 -5 112 -36z m4068 -135 c3 -9 9 -9 25 0 38 20 82 13 113 -18
27 -26 29 -34 28 -104 0 -85 -18 -126 -67 -151 -40 -21 -108 -17 -115 7 -4 16
-7 16 -40 -4 -63 -37 -137 2 -139 73 -1 37 63 139 114 183 32 26 75 33 81 14z
m-5222 -120 c43 -17 70 -20 123 -16 71 5 177 -19 185 -42 2 -6 -6 -24 -18 -41
-12 -16 -38 -63 -59 -103 -27 -51 -44 -73 -60 -75 -27 -4 -105 52 -149 107
-61 76 -112 191 -84 191 4 0 32 -9 62 -21z m4678 -662 c90 -59 108 -80 94
-111 -12 -27 -34 -32 -199 -42 -78 -5 -113 -4 -113 4 0 6 23 39 51 74 28 35
58 75 67 91 9 15 20 27 25 27 5 0 39 -20 75 -43z m-4170 -433 c37 -20 79 -47
94 -59 59 -49 270 -153 416 -205 29 -11 65 -25 80 -33 104 -55 511 -190 682
-226 80 -17 177 -38 215 -46 39 -8 82 -15 97 -15 14 0 92 -16 172 -35 81 -19
157 -35 169 -35 13 0 27 -4 33 -9 5 -5 54 -19 109 -31 55 -11 114 -25 130 -30
17 -5 77 -18 135 -31 58 -12 133 -30 167 -41 35 -11 67 -17 72 -13 13 8 41
-47 41 -80 0 -21 -8 -29 -47 -46 -80 -35 -117 -35 -274 4 -79 20 -202 50 -274
67 -71 17 -157 39 -190 50 -33 11 -174 40 -314 65 -140 25 -258 48 -262 51 -5
3 -23 6 -41 8 -109 11 -503 138 -729 235 -91 39 -172 71 -178 71 -7 0 -25 6
-39 14 -15 8 -63 32 -107 53 -103 48 -163 84 -251 150 -40 29 -74 53 -77 53
-16 0 -65 59 -69 82 -5 27 17 57 52 72 37 15 122 -3 188 -40z m-1143 -73 c75
-19 245 -79 257 -90 4 -4 -4 -25 -19 -46 -28 -43 -154 -195 -160 -195 -25 0
-70 43 -109 105 -55 90 -73 135 -74 191 0 62 1 62 105 35z m4633 -322 c28 -23
65 -59 83 -82 31 -38 32 -40 13 -54 -26 -19 -111 -43 -154 -43 -23 0 -44 8
-58 20 l-22 20 22 53 c11 28 27 69 36 90 8 20 18 37 22 37 4 0 30 -19 58 -41z
m-4468 -808 c0 -4 19 -11 43 -14 23 -3 71 -10 107 -16 36 -5 130 -15 210 -21
80 -6 197 -17 260 -25 63 -8 167 -17 230 -20 167 -10 220 -20 431 -80 104 -30
203 -55 220 -55 16 0 40 -6 52 -14 12 -8 87 -30 167 -51 196 -49 316 -89 434
-142 54 -24 104 -42 111 -39 7 2 21 -5 32 -16 42 -47 351 -178 418 -178 13 0
25 -4 27 -8 2 -4 24 -20 51 -35 55 -32 81 -67 72 -96 -8 -26 -82 -61 -130 -61
-48 0 -394 138 -543 216 -57 30 -108 54 -115 54 -7 0 -39 13 -73 29 -33 15
-172 59 -310 96 -137 37 -321 86 -409 111 -194 53 -287 69 -514 89 -95 8 -177
18 -181 20 -4 3 -106 10 -226 16 -120 5 -223 14 -229 18 -5 5 -30 11 -55 15
-24 4 -50 12 -57 18 -7 5 -20 8 -28 4 -8 -3 -15 -2 -15 3 0 4 -17 13 -39 19
-48 15 -59 27 -66 77 -7 52 2 65 61 81 61 16 64 16 64 5z m-840 -246 c36 -8
79 -14 97 -15 17 0 35 -4 38 -10 7 -11 -83 -230 -95 -230 -12 0 -183 183 -199
213 -22 41 -9 57 46 57 26 -1 77 -7 113 -15z m4624 -202 c43 -33 116 -129 116
-152 0 -9 -38 -26 -82 -35 -33 -7 -184 18 -204 35 -8 6 -14 18 -14 25 0 15
118 164 130 164 4 0 28 -17 54 -37z m-4314 -483 c-14 -4 -44 -8 -67 -9 -30 -1
-43 -5 -43 -15 0 -8 -10 -16 -23 -20 -15 -3 -23 -14 -25 -30 -1 -21 4 -27 26
-32 15 -3 71 -19 125 -36 135 -40 231 -56 457 -74 451 -35 550 -43 640 -53 52
-5 145 -15 205 -20 226 -22 557 -102 970 -233 105 -33 239 -76 300 -95 158
-49 187 -64 210 -106 18 -35 18 -37 1 -56 -10 -11 -38 -28 -62 -37 -58 -22
-106 -12 -369 73 -542 175 -939 267 -1245 288 -52 3 -171 12 -265 20 -93 8
-287 24 -430 35 -143 11 -289 27 -325 35 -105 25 -191 56 -212 77 -16 16 -22
17 -28 7 -6 -9 -12 -10 -22 -1 -32 26 -61 -30 -69 -133 l-6 -80 -1 75 c-1 49
4 84 13 100 8 14 14 40 15 59 0 19 7 42 16 52 10 12 14 32 12 65 l-3 49 -12
-35 c-6 -20 -12 -27 -12 -16 -2 30 36 81 74 102 19 10 35 24 35 31 0 11 40 18
120 20 l25 1 -25 -8z m-856 -469 c3 -5 25 -7 48 -4 68 6 74 -5 39 -65 -17 -29
-40 -75 -52 -104 -12 -29 -26 -57 -30 -62 -8 -9 -69 30 -69 45 0 5 -9 22 -20
37 -11 15 -23 52 -27 81 -5 46 -3 56 12 67 21 16 91 19 99 5z m4361 -23 c14
-6 25 -15 25 -20 0 -4 5 -8 11 -8 7 0 37 -20 67 -45 31 -25 62 -50 70 -54 11
-6 12 -13 3 -29 -6 -11 -11 -37 -11 -56 0 -30 -4 -37 -26 -42 -54 -14 -230 55
-260 101 -13 20 -6 43 29 100 7 11 18 30 25 43 14 25 29 27 67 10z m-4323
-838 l-33 -30 26 -10 c15 -6 28 -10 30 -10 2 0 64 -28 137 -61 233 -107 193
-100 618 -110 724 -17 924 -40 1515 -174 154 -34 314 -70 355 -79 107 -24 163
-54 171 -93 8 -40 4 -45 -51 -74 -32 -16 -60 -23 -100 -22 -62 2 -280 45 -487
97 -419 106 -699 136 -1440 156 -428 11 -451 15 -700 140 -163 81 -173 85
-173 63 0 -19 -5 -23 -27 -22 -24 2 -25 2 -5 6 17 3 22 11 22 35 0 21 6 31 20
35 16 4 20 14 20 49 0 32 4 44 15 44 8 0 15 7 15 15 0 8 15 21 33 28 17 8 38
21 46 30 7 10 16 17 20 17 3 0 -9 -14 -27 -30z m3659 -29 c13 -22 27 -31 60
-36 24 -4 50 -11 59 -15 77 -36 77 -35 109 -110 6 -14 17 -33 23 -43 35 -50
-83 -62 -209 -22 -43 14 -87 25 -98 25 -46 1 -46 11 -9 123 20 59 39 107 42
107 4 0 14 -13 23 -29z m-4366 -240 c76 -11 120 -25 120 -37 0 -5 -36 -67 -80
-137 l-80 -128 -40 43 c-125 136 -164 226 -112 263 23 17 57 16 192 -4z m126
-812 c19 -7 58 -30 87 -53 151 -117 177 -131 268 -151 33 -7 70 -17 80 -23 62
-33 380 -73 764 -97 348 -21 688 -52 810 -74 58 -11 128 -22 155 -25 28 -3
157 -17 288 -31 250 -26 298 -39 331 -87 25 -35 20 -58 -14 -69 -16 -6 -30
-15 -30 -20 0 -18 -71 -20 -220 -5 -421 43 -541 57 -613 71 -43 8 -147 19
-231 25 -84 5 -159 12 -167 14 -8 3 -90 8 -184 10 -178 6 -362 17 -555 36
-145 13 -388 58 -417 76 -12 8 -33 14 -47 14 -14 0 -27 4 -31 9 -3 5 -34 19
-69 31 -79 26 -179 90 -203 130 -9 17 -23 28 -30 26 -7 -3 -13 -1 -13 4 0 6
-6 10 -12 10 -7 0 -30 16 -50 36 -31 28 -38 42 -38 72 0 45 8 58 40 71 34 13
61 13 101 0z m-771 -227 c32 -11 56 -26 58 -35 2 -9 -11 -37 -28 -62 -18 -26
-45 -76 -62 -112 l-29 -66 -45 44 c-53 51 -110 134 -132 191 -15 38 -15 41 4
55 26 20 159 11 234 -15z m4274 19 c3 -5 30 -23 60 -39 57 -33 109 -88 125
-134 13 -37 -3 -44 -67 -28 -56 14 -212 85 -212 97 0 13 72 113 81 113 4 0 10
-4 13 -9z m-4157 -738 c-20 -14 -37 -31 -37 -36 0 -6 -8 -19 -17 -30 -18 -19
-17 -19 22 1 22 11 53 32 68 48 17 16 25 21 21 10 -3 -9 -15 -21 -25 -27 -11
-5 -19 -15 -19 -22 0 -27 216 -132 473 -229 272 -103 496 -175 708 -227 341
-83 486 -115 594 -131 70 -10 238 -66 310 -102 71 -36 89 -59 81 -102 -7 -39
-12 -42 -87 -51 -58 -7 -88 -1 -324 57 -156 39 -311 75 -490 113 -115 25 -198
47 -240 65 -11 4 -60 18 -110 30 -127 32 -362 109 -377 123 -7 7 -42 18 -78
26 -36 7 -83 21 -105 31 -23 10 -70 30 -105 43 -94 35 -236 109 -313 161 -44
30 -69 42 -71 34 -3 -7 -6 -20 -9 -28 -2 -8 -4 10 -4 40 0 56 17 90 44 90 7 0
13 8 13 19 0 10 7 24 15 31 8 7 15 21 15 31 0 11 4 19 8 19 5 0 19 9 32 20 13
11 28 20 34 20 6 0 -6 -12 -27 -27z m-817 -68 c25 -10 70 -26 100 -36 108 -38
106 -35 57 -93 -24 -28 -58 -72 -77 -98 -18 -27 -37 -48 -41 -48 -13 0 -84 78
-109 119 -14 23 -37 61 -52 84 -27 42 -35 76 -20 91 10 11 90 0 142 -19z
m4056 -355 c24 -22 50 -40 58 -40 8 0 43 -27 77 -60 l63 -60 -21 -20 c-12 -11
-36 -20 -53 -20 -63 0 -256 66 -281 96 -9 11 1 27 47 78 33 36 61 65 63 66 2
0 23 -18 47 -40z m-4696 -355 c47 -13 104 -29 128 -35 53 -13 51 -18 -53 -120
l-76 -75 -29 35 c-16 19 -45 65 -65 101 -44 85 -47 140 -6 124 9 -4 54 -17
101 -30z m736 -68 c-16 -12 -14 -15 21 -43 21 -17 79 -68 128 -114 128 -116
361 -270 411 -270 10 0 25 -7 34 -15 9 -8 57 -32 106 -54 86 -37 215 -75 609
-181 322 -86 346 -96 370 -146 31 -67 3 -93 -108 -101 -59 -4 -93 1 -190 26
-65 17 -131 31 -146 31 -34 0 -134 31 -188 58 -47 25 -149 52 -191 52 -17 0
-34 5 -37 10 -8 13 -72 40 -94 40 -9 0 -29 7 -46 16 -16 8 -66 31 -111 49
-129 54 -294 138 -369 189 -120 80 -365 308 -386 357 -9 23 -16 28 -32 23 -40
-13 -112 -71 -115 -92 -2 -12 -9 -22 -17 -22 -7 0 -16 -8 -18 -17 -4 -14 -5
-12 -6 5 -1 13 5 22 14 22 8 0 15 6 15 14 0 8 15 26 33 40 17 14 40 32 50 41
9 8 21 15 25 15 5 0 34 14 64 30 47 25 89 37 182 49 6 0 2 -5 -8 -12z m-744
-604 c32 -10 58 -23 58 -29 0 -6 13 -29 29 -51 15 -21 37 -59 48 -84 52 -118
293 -359 438 -439 33 -18 87 -50 120 -70 97 -59 137 -71 280 -80 133 -8 207
-26 258 -62 36 -26 34 -50 -8 -87 -56 -49 -92 -55 -256 -43 -201 15 -277 33
-370 87 -41 25 -81 45 -87 45 -7 0 -12 4 -12 8 0 5 -18 17 -40 27 -22 10 -40
21 -40 25 0 10 -105 83 -157 109 -24 12 -43 28 -43 37 0 9 -13 21 -30 27 -16
6 -32 18 -35 27 -10 24 -69 109 -77 110 -18 0 -128 143 -128 166 0 3 -11 20
-24 37 -35 49 -86 157 -86 185 0 36 37 72 74 72 17 0 57 -8 88 -17z m3617 -50
c34 -37 61 -72 61 -77 0 -5 6 -17 14 -25 8 -9 17 -33 21 -53 7 -36 6 -38 -20
-38 -45 0 -126 33 -123 50 2 8 -10 24 -26 35 -16 11 -38 37 -48 57 l-20 37 33
41 c18 22 36 40 40 40 4 0 35 -30 68 -67z m-4473 -299 c18 -9 36 -24 39 -35 4
-10 10 -19 14 -19 5 0 11 -24 14 -52 9 -87 60 -224 141 -376 104 -196 132
-237 228 -339 46 -48 94 -102 106 -120 27 -39 99 -89 140 -98 42 -9 56 -28 48
-69 -8 -40 -48 -79 -101 -96 -57 -19 -146 30 -259 142 -49 48 -93 88 -97 88
-4 0 -6 8 -4 18 3 11 -19 37 -65 77 -38 33 -73 71 -79 85 -6 14 -22 43 -36 65
-13 22 -35 60 -47 85 -13 25 -29 49 -35 53 -7 4 -13 15 -13 23 0 8 -6 17 -14
20 -8 3 -12 14 -8 27 3 12 1 19 -3 15 -12 -11 -95 186 -109 257 -12 57 -14
178 -4 204 23 62 74 78 144 45z m3035 -556 c17 -13 49 -45 70 -72 32 -40 37
-51 28 -68 -9 -17 -18 -19 -47 -15 -39 5 -75 19 -105 39 -22 15 -97 88 -97 95
0 7 84 42 103 42 10 1 32 -9 48 -21z m-1332 -785 c38 -148 24 -212 -43 -197
-49 10 -142 61 -164 89 -20 25 -58 123 -51 129 14 10 225 72 231 67 3 -3 16
-43 27 -88z"/>
<path d="M6850 8365 c-6 -8 -10 -22 -7 -32 3 -14 5 -12 11 9 4 15 15 29 24 31
15 4 15 5 1 6 -9 0 -22 -6 -29 -14z"/>
</g>
</svg>
