<?xml version="1.0" standalone="no"?>
<!DOCTYPE svg PUBLIC "-//W3C//DTD SVG 20010904//EN"
 "http://www.w3.org/TR/2001/REC-SVG-20010904/DTD/svg10.dtd">
<svg version="1.0" xmlns="http://www.w3.org/2000/svg"
 width="110592.000000pt" height="110592.000000pt" viewBox="0 0 110592.000000 110592.000000"
 preserveAspectRatio="xMidYMid meet">
<metadata>
Created by potrace 1.11, written by Peter Selinger 2001-2013
</metadata>
<g transform="translate(0.000000,110592.000000) scale(11.059200,-11.059200)"
fill="#000000" stroke="none">
<path d="M1940 9985 c-394 -55 -750 -203 -1075 -448 -103 -78 -324 -299 -402
-402 -200 -266 -348 -580 -413 -880 -52 -241 -50 -92 -50 -3255 0 -3163 -2
-3014 50 -3255 65 -300 213 -614 413 -880 78 -103 299 -324 402 -402 329 -248
684 -395 1085 -449 157 -21 5943 -21 6100 0 399 54 758 202 1085 449 103 78
324 299 402 402 200 266 348 580 413 880 52 241 50 92 50 3255 0 3163 2 3014
-50 3255 -65 300 -213 614 -413 880 -78 103 -299 324 -402 402 -266 200 -580
348 -880 413 -241 52 -90 50 -3265 49 -2387 -1 -2973 -4 -3050 -14z m6090
-537 c662 -122 1174 -574 1365 -1203 76 -250 70 11 70 -3245 0 -3256 6 -2995
-70 -3245 -195 -641 -736 -1108 -1400 -1207 -74 -11 -620 -13 -3000 -13 -3250
0 -2990 -6 -3240 70 -556 169 -981 594 -1150 1150 -76 250 -70 -11 -70 3245 0
3256 -6 2995 70 3245 124 410 385 747 753 974 217 134 505 226 767 244 28 2
1348 3 2935 2 2571 -1 2894 -3 2970 -17z"/>
<path d="M5579 8923 c10 -27 101 -253 201 -503 100 -250 186 -467 190 -481 23
-79 -126 -245 -266 -298 -24 -9 -45 -19 -48 -22 -5 -5 51 -229 59 -237 7 -7
120 30 169 55 178 90 294 252 435 605 55 138 341 911 341 922 0 4 -68 5 -152
4 l-151 -3 -18 -60 c-9 -33 -60 -208 -112 -389 l-95 -329 -32 104 c-17 57 -74
233 -126 392 l-96 287 -159 0 -159 0 19 -47z"/>
<path d="M4874 8881 c-17 -10 -42 -34 -55 -53 l-24 -33 -3 -1022 -2 -1023 -23
-4 c-12 -3 -56 -8 -97 -11 -624 -53 -1299 -392 -1732 -870 -378 -419 -597
-881 -685 -1445 -22 -146 -25 -565 -5 -710 39 -271 121 -562 217 -765 3 -5
-342 -210 -767 -455 -424 -245 -784 -455 -799 -468 -15 -12 -35 -43 -45 -67
-32 -86 3 -177 84 -216 90 -44 60 -58 919 437 l778 450 69 -101 c188 -273 447
-529 721 -712 741 -495 1675 -605 2511 -298 244 90 559 269 774 441 180 144
406 391 541 590 l50 75 32 -20 c80 -48 1457 -841 1494 -860 82 -41 180 -16
230 58 32 48 32 129 -1 185 -22 38 -83 75 -802 490 -429 247 -781 450 -782
452 -2 1 19 58 46 126 116 286 178 580 189 903 15 454 -75 877 -273 1275 -265
534 -683 956 -1214 1224 -299 152 -641 253 -950 281 -36 3 -80 8 -97 11 l-33
5 -2 1012 c-3 967 -4 1014 -22 1050 -39 78 -167 114 -242 68z m346 -2441 c269
-34 538 -119 820 -260 352 -176 602 -365 776 -587 247 -315 573 -941 550
-1056 -9 -47 -33 -77 -61 -77 -30 0 -41 19 -48 90 -8 73 -76 211 -121 245 -79
60 -145 4 -165 -141 -13 -90 0 -189 39 -294 55 -147 100 -384 100 -525 0 -64
-5 -90 -25 -133 -35 -76 -130 -198 -189 -244 -86 -66 -91 -73 -141 -193 -74
-180 -132 -258 -225 -307 -37 -19 -60 -23 -131 -23 -77 0 -90 3 -127 28 -81
53 -100 121 -111 407 -7 178 -11 211 -29 246 -37 73 -94 100 -242 114 -140 13
-210 38 -293 102 -59 47 -89 107 -89 177 0 92 42 167 176 312 189 204 275 309
288 350 23 77 -50 251 -115 273 -23 9 -37 5 -85 -21 -31 -17 -122 -59 -202
-94 -141 -62 -147 -64 -230 -64 -150 1 -267 39 -300 98 -23 41 0 73 85 118 39
21 83 52 99 70 27 31 28 36 24 108 -6 108 -21 128 -101 133 -108 7 -250 96
-291 183 -28 58 -11 90 114 206 60 56 116 117 126 137 30 65 4 195 -46 222
-15 8 -25 5 -53 -20 -47 -41 -67 -46 -189 -55 -135 -9 -160 -23 -204 -114 -17
-36 -40 -68 -50 -72 -10 -4 -69 -5 -130 -2 -142 7 -173 -2 -212 -66 -21 -33
-66 -75 -149 -139 -66 -50 -132 -105 -147 -122 -34 -41 -34 -100 -1 -182 14
-34 25 -71 25 -83 0 -45 -198 -203 -238 -191 -56 18 -68 147 -19 206 34 40 34
65 -2 122 -30 48 -122 128 -147 128 -43 0 -271 -126 -305 -168 -23 -29 -23 -9
-2 -292 7 -105 -2 -131 -57 -164 -51 -32 -183 -70 -213 -62 -31 7 -103 62
-129 96 -18 25 -18 27 2 73 16 35 20 64 19 114 -3 64 0 74 53 183 122 251 332
512 566 703 256 210 615 384 943 457 239 54 596 76 809 50z m-820 -1561 c118
-18 103 -32 -107 -98 -189 -59 -223 -75 -223 -104 0 -52 67 -83 327 -151 416
-109 627 -166 632 -172 3 -3 4 -168 2 -367 -1 -199 -3 -438 -4 -532 -1 -113 3
-185 12 -214 28 -96 95 -116 283 -82 65 12 127 21 140 21 13 0 46 12 73 25
116 57 219 12 181 -80 -30 -72 -80 -85 -335 -94 l-203 -6 -30 -35 c-73 -85
-122 -239 -121 -385 0 -117 11 -148 118 -326 98 -162 329 -475 394 -533 11
-11 21 -23 21 -27 0 -5 -24 -15 -53 -24 -223 -65 -559 -70 -942 -14 -160 23
-186 35 -390 172 -406 273 -525 419 -525 644 0 108 28 198 126 407 93 199 99
226 69 341 -25 95 -58 156 -119 223 -132 142 -359 191 -502 107 -74 -44 -109
-103 -150 -263 -24 -90 -33 -109 -80 -166 -55 -67 -128 -112 -163 -101 -51 16
-149 228 -192 414 -50 215 -80 607 -63 819 9 105 15 137 35 173 76 137 259
154 630 58 115 -30 119 -30 154 -13 23 11 80 67 151 150 123 141 162 174 241
204 117 44 416 58 613 29z"/>
<path d="M960 4055 l0 -115 261 -2 261 -3 -74 -85 c-40 -46 -166 -204 -280
-350 l-208 -265 0 -82 0 -83 465 0 465 0 0 115 0 115 -280 0 c-154 0 -280 3
-280 6 0 3 27 35 60 72 32 37 154 189 269 337 l211 270 0 93 0 92 -435 0 -435
0 0 -115z"/>
<path d="M8013 4157 c3 -8 84 -130 181 -272 97 -141 174 -260 172 -264 -2 -3
-84 -123 -181 -266 -98 -143 -180 -266 -182 -273 -4 -10 28 -12 152 -10 l158
3 106 187 c58 103 108 187 111 187 3 1 18 -23 33 -52 16 -28 65 -114 110 -189
l82 -138 163 0 c128 0 162 3 156 13 -19 31 -102 159 -227 349 l-135 206 179
257 c98 142 179 262 179 266 0 5 -69 9 -152 9 l-153 0 -90 -155 c-49 -85 -98
-169 -108 -186 l-18 -30 -86 143 c-47 79 -99 162 -115 186 l-29 42 -156 0
c-125 0 -154 -3 -150 -13z"/>
</g>
</svg>
