<?xml version="1.0" standalone="no"?>
<!DOCTYPE svg PUBLIC "-//W3C//DTD SVG 20010904//EN"
 "http://www.w3.org/TR/2001/REC-SVG-20010904/DTD/svg10.dtd">
<svg version="1.0" xmlns="http://www.w3.org/2000/svg"
 width="110592.000000pt" height="110592.000000pt" viewBox="0 0 110592.000000 110592.000000"
 preserveAspectRatio="xMidYMid meet">
<metadata>
Created by potrace 1.11, written by Peter Selinger 2001-2013
</metadata>
<g transform="translate(0.000000,110592.000000) scale(11.059200,-11.059200)"
fill="#000000" stroke="none">
<path d="M1940 9985 c-394 -55 -750 -203 -1075 -448 -103 -78 -324 -299 -402
-402 -200 -266 -348 -580 -413 -880 -52 -241 -50 -92 -50 -3255 0 -3163 -2
-3014 50 -3255 65 -300 213 -614 413 -880 78 -103 299 -324 402 -402 329 -248
684 -395 1085 -449 157 -21 5943 -21 6100 0 399 54 758 202 1085 449 103 78
324 299 402 402 200 266 348 580 413 880 52 241 50 92 50 3255 0 3163 2 3014
-50 3255 -65 300 -213 614 -413 880 -78 103 -299 324 -402 402 -266 200 -580
348 -880 413 -241 52 -90 50 -3265 49 -2387 -1 -2973 -4 -3050 -14z m6090
-537 c367 -68 682 -231 935 -483 261 -262 432 -601 487 -970 19 -133 19 -5857
0 -5990 -84 -563 -434 -1045 -941 -1295 -113 -56 -200 -88 -331 -123 -205 -55
-49 -52 -3185 -52 -3250 0 -2990 -6 -3240 70 -641 195 -1108 736 -1207 1400
-19 133 -19 5857 0 5990 87 580 458 1076 988 1318 178 81 396 137 589 150 28
2 1348 3 2935 2 2571 -1 2894 -3 2970 -17z"/>
<path d="M4503 8338 c-14 -18 -3653 -6396 -3653 -6403 0 -5 7290 -8 7290 -2 0
1 7 58 15 127 19 156 19 160 -1 160 -9 0 -53 32 -98 71 -1086 949 -1586 1360
-1777 1459 -83 43 -111 70 -129 126 -14 42 -1 115 34 191 l25 52 -91 223 c-83
205 -95 228 -143 279 -68 71 -81 113 -65 212 6 40 15 126 20 191 l9 119 -48
96 c-34 66 -62 145 -91 256 l-43 160 -93 95 -94 95 0 90 0 90 -77 77 c-45 45
-71 78 -62 78 41 0 66 84 37 123 -7 9 -34 25 -60 36 -26 11 -55 32 -64 47 -17
25 -17 29 -1 74 32 90 32 90 -133 255 l-150 150 0 440 0 440 -241 240 c-197
197 -246 251 -273 303 -25 49 -35 61 -43 50z"/>
<path d="M6497 7489 c-55 -13 -105 -41 -169 -96 -158 -135 -197 -163 -227
-163 -25 0 -36 -8 -54 -37 -79 -127 -165 -392 -174 -540 -5 -85 -7 -92 -29
-97 -27 -7 -40 -42 -30 -81 3 -13 56 -73 117 -132 61 -60 130 -135 152 -168
67 -99 233 -280 305 -333 37 -27 98 -68 135 -91 l68 -41 121 15 c67 8 125 18
130 23 4 4 41 95 82 202 40 107 95 242 121 300 93 207 95 216 95 363 -1 166
-15 233 -70 327 -90 154 -328 456 -408 517 -60 45 -87 50 -165 32z"/>
<path d="M7729 5861 c-13 -10 -67 -47 -118 -82 -110 -73 -206 -164 -245 -231
-28 -47 -28 -48 -28 -240 1 -246 18 -324 86 -387 35 -33 118 -39 214 -17 82
19 82 19 101 7 12 -7 10 -15 -7 -43 -11 -18 -35 -43 -51 -56 -17 -12 -31 -26
-31 -31 0 -11 220 31 333 64 291 83 400 230 313 420 -15 32 -37 73 -51 90 -13
17 -51 78 -86 136 -188 316 -337 444 -430 370z"/>
<path d="M8168 4612 c-18 -16 -76 -57 -128 -92 -378 -252 -674 -546 -741 -735
-21 -61 -25 -146 -8 -194 6 -18 45 -72 85 -119 91 -107 144 -211 188 -368 64
-229 76 -237 315 -235 139 1 159 -1 198 -20 60 -29 94 -79 133 -196 40 -121
54 -148 86 -169 35 -24 97 -14 229 36 301 113 426 212 599 477 85 130 108 182
145 334 52 212 65 317 66 514 0 167 -2 183 -22 222 -18 34 -31 44 -71 57 -55
19 -84 45 -179 170 -37 48 -87 102 -111 119 -39 28 -52 32 -150 38 -128 9
-164 20 -329 100 -211 102 -249 109 -305 61z"/>
</g>
</svg>
