<?xml version="1.0" standalone="no"?>
<!DOCTYPE svg PUBLIC "-//W3C//DTD SVG 20010904//EN"
 "http://www.w3.org/TR/2001/REC-SVG-20010904/DTD/svg10.dtd">
<svg version="1.0" xmlns="http://www.w3.org/2000/svg"
 width="110592.000000pt" height="110592.000000pt" viewBox="0 0 110592.000000 110592.000000"
 preserveAspectRatio="xMidYMid meet">
<metadata>
Created by potrace 1.11, written by Peter Selinger 2001-2013
</metadata>
<g transform="translate(0.000000,110592.000000) scale(11.059200,-11.059200)"
fill="#000000" stroke="none">
<path d="M1940 9985 c-394 -55 -750 -203 -1075 -448 -103 -78 -324 -299 -402
-402 -200 -266 -348 -580 -413 -880 -52 -241 -50 -92 -50 -3255 0 -3164 -2
-3015 50 -3255 66 -304 211 -612 413 -880 78 -103 299 -324 402 -402 329 -248
684 -395 1085 -449 157 -21 5943 -21 6100 0 399 54 758 202 1085 449 103 78
324 299 402 402 248 329 395 684 449 1085 21 157 21 5943 0 6100 -35 255 -99
469 -210 695 -123 249 -233 403 -430 601 -198 197 -352 307 -601 430 -226 111
-440 175 -695 210 -151 20 -5964 19 -6110 -1z m6090 -537 c367 -68 682 -231
935 -483 261 -262 432 -601 487 -970 19 -133 19 -5857 0 -5990 -84 -563 -434
-1045 -941 -1295 -113 -56 -200 -88 -331 -123 -205 -55 -49 -52 -3185 -52
-3250 0 -2990 -6 -3240 70 -641 195 -1108 736 -1207 1400 -19 133 -19 5857 0
5990 87 580 458 1076 988 1318 178 81 396 137 589 150 28 2 1348 3 2935 2
2571 -1 2894 -3 2970 -17z"/>
<path d="M2845 8674 c-491 -53 -889 -237 -1215 -564 -296 -296 -476 -650 -546
-1075 -25 -150 -25 -439 -1 -585 74 -436 261 -797 565 -1091 290 -281 634
-456 1032 -526 141 -24 418 -29 562 -9 439 62 817 247 1122 552 481 482 673
1181 505 1844 -86 342 -254 636 -509 890 -296 296 -648 476 -1070 545 -94 15
-368 27 -445 19z m353 -439 c219 -31 418 -102 590 -212 389 -247 638 -631 702
-1084 16 -110 8 -387 -15 -489 -9 -41 -32 -122 -51 -180 -38 -113 -125 -295
-141 -295 -5 0 -525 423 -1155 940 l-1145 940 35 30 c145 124 347 237 525 294
84 27 131 37 297 64 60 10 264 5 358 -8z m-332 -1660 l1145 -940 -48 -42
c-158 -140 -410 -267 -628 -317 -175 -40 -384 -50 -545 -26 -493 72 -917 377
-1139 818 -119 237 -167 458 -158 727 6 176 29 295 87 460 35 98 120 267 133
262 4 -1 523 -425 1153 -942z"/>
<path d="M7154 8168 c-191 -201 -357 -499 -420 -758 -77 -316 -38 -582 119
-814 52 -77 169 -199 245 -256 l61 -45 -6 -190 c-3 -104 -7 -191 -9 -193 -1
-2 -92 54 -202 125 l-200 128 -12 55 c-127 567 -514 910 -1024 910 -162 0
-352 -42 -478 -106 l-50 -26 6 -61 c26 -234 117 -473 246 -646 134 -181 331
-301 580 -356 119 -26 360 -31 521 -10 l136 17 236 -137 237 -137 0 -384 0
-385 113 3 112 3 5 375 5 374 224 134 224 133 86 -39 c105 -49 166 -62 280
-62 104 0 222 27 330 77 333 151 692 554 843 943 48 123 50 115 -44 160 -46
21 -124 51 -173 66 -83 25 -103 28 -270 28 -160 1 -189 -2 -265 -23 -185 -51
-375 -160 -523 -301 -196 -185 -318 -397 -334 -581 l-8 -81 -192 -113 -193
-113 0 206 1 207 56 35 c77 48 199 170 255 256 53 79 99 187 125 290 24 96 24
355 0 477 -73 365 -305 747 -524 860 -18 10 -38 17 -46 17 -8 0 -41 -28 -73
-62z"/>
<path d="M5617 4480 c-95 -37 -228 -177 -266 -280 -45 -122 -98 -374 -77 -367
6 2 50 52 98 112 122 152 163 191 238 228 56 28 74 32 140 31 59 0 89 -6 131
-26 74 -34 115 -72 214 -198 142 -180 212 -231 341 -246 133 -16 242 43 364
198 96 121 171 201 215 228 17 11 60 27 96 36 54 14 74 15 132 4 105 -19 167
-66 293 -224 156 -196 225 -240 369 -240 145 0 208 40 365 236 130 161 191
208 294 228 152 29 251 -23 400 -209 80 -101 146 -172 146 -158 0 28 -46 231
-69 304 -22 72 -40 106 -80 157 -129 161 -216 211 -361 204 -140 -7 -193 -42
-345 -233 -158 -198 -207 -230 -355 -230 -148 0 -197 32 -355 230 -108 135
-141 166 -215 206 -39 21 -59 24 -150 24 -91 0 -111 -3 -149 -23 -63 -34 -132
-102 -222 -219 -130 -168 -198 -213 -328 -221 -146 -8 -221 41 -389 253 -97
122 -163 178 -236 200 -69 21 -180 18 -239 -5z"/>
<path d="M650 2984 l0 -1056 28 18 c293 195 735 413 1027 507 233 76 376 101
555 100 215 -1 350 -48 476 -166 85 -79 143 -180 467 -816 139 -272 168 -322
220 -378 113 -121 272 -204 452 -238 74 -14 119 -16 250 -10 229 10 250 10
665 -2 254 -7 477 -7 690 -1 329 10 310 11 765 -33 132 -13 328 -6 407 15 32
9 149 54 260 101 341 145 664 268 1253 480 88 31 192 70 232 87 67 27 73 32
79 64 30 162 -115 351 -315 410 -121 35 -284 34 -411 -2 -94 -27 -574 -244
-603 -273 -5 -5 -31 -3 -60 5 -181 47 -453 60 -622 29 -119 -21 -248 -65 -356
-121 l-89 -46 -67 11 c-38 6 -79 13 -93 15 -14 2 -6 4 18 5 57 1 156 35 216
74 59 37 86 91 94 182 15 196 -127 358 -383 435 -92 28 -147 37 -342 60 -214
24 -309 47 -417 99 -229 111 -403 339 -631 826 -92 195 -126 245 -220 320
-178 141 -469 238 -798 266 -169 14 -575 -1 -857 -32 -211 -23 -648 -27 -900
-9 -192 14 -739 85 -962 125 l-28 5 0 -1056z"/>
<path d="M5635 3842 c-80 -28 -139 -76 -221 -180 -42 -53 -97 -118 -122 -144
l-45 -47 12 -117 c19 -173 17 -171 87 -84 135 167 158 192 202 225 70 51 130
68 221 63 131 -8 187 -47 332 -230 56 -69 119 -141 142 -159 62 -50 141 -78
218 -79 143 0 219 47 359 223 112 140 151 179 214 213 47 27 60 29 151 29 85
0 106 -3 143 -23 64 -34 123 -92 228 -223 95 -120 127 -150 204 -190 39 -21
59 -24 145 -24 89 0 105 3 151 27 75 39 107 69 204 193 156 196 213 236 350
243 75 4 92 1 142 -21 72 -32 137 -93 245 -230 48 -59 89 -104 93 -100 9 9 30
172 30 225 0 23 -7 41 -22 54 -11 10 -63 71 -114 135 -158 197 -213 233 -364
233 -153 0 -209 -35 -371 -240 -49 -61 -104 -126 -124 -143 -130 -113 -320
-113 -450 0 -20 17 -75 82 -124 143 -160 202 -217 240 -366 240 -150 1 -221
-44 -365 -229 -142 -184 -223 -238 -353 -237 -144 1 -205 41 -358 233 -116
146 -178 199 -264 224 -64 20 -148 18 -210 -3z"/>
<path d="M5681 3209 c-29 -5 -76 -21 -103 -36 -50 -28 -150 -127 -201 -200
l-27 -40 35 -88 c20 -49 38 -92 41 -97 4 -5 37 20 74 57 79 76 139 106 225
113 136 10 223 -42 366 -222 48 -59 103 -125 124 -146 129 -132 344 -139 485
-17 19 17 82 89 140 160 62 77 125 144 154 164 100 68 221 80 326 31 75 -34
116 -71 214 -197 154 -196 228 -244 372 -244 73 0 91 4 146 31 73 36 117 78
236 228 98 122 146 163 229 194 122 46 251 10 360 -100 l63 -63 21 49 c11 27
30 71 40 98 l20 48 -75 92 c-111 139 -195 188 -324 188 -140 1 -214 -44 -344
-206 -117 -147 -173 -202 -238 -234 -47 -23 -68 -27 -140 -27 -144 0 -202 40
-378 261 -131 163 -204 207 -347 206 -135 0 -211 -50 -357 -234 -154 -194
-213 -233 -358 -233 -73 0 -92 4 -137 28 -74 38 -111 74 -212 201 -150 189
-195 220 -351 241 -14 1 -49 -1 -79 -6z"/>
</g>
</svg>
