<?xml version="1.0" standalone="no"?>
<!DOCTYPE svg PUBLIC "-//W3C//DTD SVG 20010904//EN"
 "http://www.w3.org/TR/2001/REC-SVG-20010904/DTD/svg10.dtd">
<svg version="1.0" xmlns="http://www.w3.org/2000/svg"
 width="110592.000000pt" height="110592.000000pt" viewBox="0 0 110592.000000 110592.000000"
 preserveAspectRatio="xMidYMid meet">
<metadata>
Created by potrace 1.11, written by Peter Selinger 2001-2013
</metadata>
<g transform="translate(0.000000,110592.000000) scale(11.059200,-11.059200)"
fill="#000000" stroke="none">
<path d="M1940 9985 c-394 -55 -750 -203 -1075 -448 -103 -78 -324 -299 -402
-402 -200 -266 -348 -580 -413 -880 -52 -241 -50 -92 -50 -3255 0 -3163 -2
-3014 50 -3255 65 -300 213 -614 413 -880 78 -103 299 -324 402 -402 329 -248
684 -395 1085 -449 157 -21 5943 -21 6100 0 399 54 758 202 1085 449 103 78
324 299 402 402 200 266 348 580 413 880 52 241 50 92 50 3255 0 3163 2 3014
-50 3255 -65 300 -213 614 -413 880 -78 103 -299 324 -402 402 -266 200 -580
348 -880 413 -241 52 -90 50 -3265 49 -2387 -1 -2973 -4 -3050 -14z m6090
-537 c674 -125 1193 -591 1374 -1236 62 -219 60 -168 63 -1454 2 -648 2 -1178
0 -1178 -3 0 -85 38 -183 84 -295 139 -435 178 -691 195 -144 10 -379 0 -487
-20 -175 -33 -262 -64 -546 -199 -292 -139 -466 -185 -745 -197 -229 -10 -465
22 -651 88 -44 16 -171 71 -280 123 -110 52 -239 108 -287 125 -189 66 -452
96 -710 80 -266 -16 -406 -56 -714 -203 -286 -136 -427 -180 -655 -205 -258
-29 -554 2 -775 80 -45 16 -172 72 -280 123 -317 151 -448 188 -719 205 -286
18 -552 -16 -754 -96 -36 -14 -149 -66 -253 -114 -103 -49 -192 -89 -198 -89
-7 0 -9 374 -6 1188 3 1297 1 1245 63 1464 196 700 809 1201 1529 1251 28 2
1348 3 2935 2 2571 -1 2894 -3 2970 -17z m-6202 -3859 c228 -25 343 -61 647
-204 376 -176 479 -200 860 -200 232 1 271 3 365 24 157 33 254 69 480 176
342 162 494 202 800 212 244 7 457 -22 638 -89 31 -11 156 -67 277 -123 376
-175 481 -200 850 -200 264 0 327 7 488 51 115 32 196 65 402 164 334 161 551
209 895 197 313 -11 456 -51 837 -233 l102 -49 1 -152 c0 -97 -4 -153 -10
-153 -6 0 -54 22 -108 49 -368 184 -531 225 -902 226 -376 0 -481 -25 -884
-217 -216 -102 -313 -137 -471 -170 -97 -20 -138 -23 -355 -23 -365 0 -493 31
-865 208 -281 134 -404 173 -637 198 -130 15 -433 6 -551 -16 -183 -33 -237
-53 -625 -234 -275 -129 -403 -155 -742 -155 -366 -1 -474 25 -845 199 -306
144 -422 181 -657 206 -143 16 -445 5 -569 -20 -181 -36 -263 -67 -554 -206
-66 -32 -130 -61 -142 -66 l-23 -9 0 151 0 150 48 21 c26 11 126 58 222 103
249 117 387 161 590 184 109 12 326 13 438 0z m-58 -569 c246 -19 380 -56 634
-176 440 -209 555 -238 931 -237 346 0 491 36 860 211 224 106 315 140 462
172 138 30 358 43 523 30 262 -19 379 -52 645 -177 233 -110 320 -146 430
-178 321 -93 766 -82 1074 27 47 17 174 72 281 123 107 51 235 107 283 124
231 81 552 108 837 70 191 -26 331 -73 603 -203 l138 -66 -4 -1338 c-3 -1218
-4 -1345 -20 -1431 -69 -373 -228 -681 -482 -936 -220 -220 -476 -366 -785
-448 -205 -55 -49 -52 -3185 -52 -3250 0 -2990 -6 -3240 70 -567 172 -999 612
-1159 1183 -63 221 -60 152 -63 1600 -4 1264 -3 1323 14 1329 10 3 114 51 232
105 299 139 430 178 657 197 141 12 193 12 334 1z"/>
<path d="M2664 8703 c-96 -107 -197 -237 -228 -293 l-26 -47 20 -79 c58 -227
216 -408 493 -565 208 -118 534 -225 843 -277 l109 -19 -95 -7 c-793 -58
-1295 -307 -1440 -713 l-22 -62 35 -75 c53 -112 247 -392 254 -369 4 10 -24
231 -42 334 -3 23 2 20 53 -30 122 -121 323 -185 477 -152 29 6 29 6 -35 47
-36 22 -89 62 -118 89 l-53 48 58 61 c32 34 73 77 91 97 l32 35 -145 59 c-80
32 -145 62 -145 66 0 9 141 112 156 113 7 1 47 -53 89 -119 195 -305 347 -446
554 -514 74 -24 236 -41 230 -23 -2 5 -59 53 -127 105 -91 71 -118 97 -105
101 10 2 62 17 116 32 53 15 97 30 97 33 0 4 -86 81 -191 172 l-192 164 164
12 c90 7 172 14 182 15 14 3 6 22 -48 112 -36 60 -67 113 -68 118 -2 11 71 39
378 144 121 42 224 79 228 83 4 4 -39 29 -95 56 -275 129 -483 228 -487 231
-2 2 33 52 77 111 52 69 76 110 69 114 -7 3 -85 19 -174 34 -89 16 -160 32
-158 35 3 4 95 69 205 145 110 76 200 141 200 145 0 4 -50 26 -110 50 -94 37
-107 45 -93 55 10 6 71 45 137 85 133 83 133 88 10 89 -271 3 -480 -140 -800
-544 l-31 -39 -76 69 c-42 38 -74 71 -72 74 3 2 69 23 147 45 78 23 143 46
145 51 1 6 -31 53 -72 105 -71 89 -74 95 -58 113 23 24 151 104 191 118 18 6
32 14 32 19 0 14 -88 30 -167 30 -130 0 -244 -41 -344 -123 -36 -28 -55 -39
-53 -29 8 36 75 308 80 325 10 33 -13 16 -82 -60z"/>
<path d="M4477 8196 c-86 -31 -153 -74 -210 -135 -71 -76 -82 -103 -82 -206 0
-104 15 -151 81 -260 83 -135 82 -211 -7 -346 -32 -49 -68 -107 -79 -130 -25
-47 -50 -156 -50 -214 0 -118 142 -274 306 -337 69 -26 185 -29 344 -9 125 16
725 110 1060 166 375 62 509 81 805 110 762 75 2336 258 2525 293 l45 9 -29
12 c-107 43 -1789 454 -2583 630 -198 44 -554 128 -790 185 -891 218 -1023
246 -1163 252 -93 4 -112 2 -173 -20z"/>
<path d="M1943 8178 c2 -7 31 -104 63 -215 l58 -203 98 -76 c54 -42 97 -78 95
-80 -1 -2 -97 26 -212 62 -191 59 -782 200 -805 192 -6 -2 78 -50 184 -108
107 -57 194 -105 193 -106 -1 -2 -126 -14 -277 -28 -360 -34 -382 -37 -350
-47 14 -4 153 -33 310 -65 157 -31 288 -60 292 -63 5 -4 -80 -43 -188 -86
-194 -79 -237 -101 -172 -91 18 3 157 20 308 36 173 19 357 47 495 74 121 24
221 43 222 42 1 -1 -48 -33 -108 -71 l-111 -70 -84 -204 c-46 -112 -82 -206
-80 -209 3 -2 58 33 123 78 371 259 730 437 998 495 44 9 91 19 105 23 18 3 2
9 -55 19 -249 44 -517 193 -827 461 -57 50 -139 126 -183 171 -75 76 -103 97
-92 69z"/>
<path d="M1094 4442 c-18 -11 -34 -81 -34 -147 0 -223 145 -554 337 -769 23
-26 43 -52 43 -57 0 -17 -46 -38 -130 -59 -164 -40 -259 -102 -304 -199 -39
-84 -23 -382 22 -428 37 -37 208 17 651 205 l304 130 56 -13 c31 -7 119 -23
196 -35 220 -33 331 -69 420 -134 139 -103 568 -351 820 -475 449 -222 841
-364 1335 -482 91 -22 181 -45 200 -51 35 -11 34 -11 -61 -33 -251 -58 -369
-120 -369 -195 0 -64 71 -116 369 -270 262 -135 350 -189 428 -263 l55 -52 82
0 c70 0 89 4 139 29 151 77 313 285 453 583 61 129 32 113 259 138 389 43 807
133 1170 251 418 137 858 346 992 472 60 56 87 107 65 121 -6 3 -98 19 -204
35 -106 16 -197 32 -202 37 -6 6 -4 9 5 9 46 1 307 138 410 216 66 51 91 86
87 122 -3 30 -4 31 -186 107 -247 103 -959 294 -1418 380 -108 20 -297 34
-376 28 l-63 -5 -28 96 c-73 261 -217 475 -397 591 -121 77 -139 82 -395 94
-126 6 -327 11 -445 11 -204 0 -489 -15 -500 -27 -3 -2 -5 -39 -4 -81 0 -66 5
-87 34 -144 35 -72 101 -156 212 -274 l69 -72 -38 -6 c-21 -4 -297 -6 -613 -4
-537 2 -589 0 -780 -21 -303 -33 -484 -61 -849 -132 l-206 -41 -295 43 -295
43 -45 71 c-119 189 -300 398 -429 496 -87 65 -207 124 -305 149 -78 20 -220
27 -242 12z m6442 -1272 c226 -97 236 -419 16 -531 -63 -32 -196 -34 -257 -4
-117 58 -186 191 -163 317 33 186 231 292 404 218z"/>
</g>
</svg>
