<?xml version="1.0" standalone="no"?>
<!DOCTYPE svg PUBLIC "-//W3C//DTD SVG 20010904//EN"
 "http://www.w3.org/TR/2001/REC-SVG-20010904/DTD/svg10.dtd">
<svg version="1.0" xmlns="http://www.w3.org/2000/svg"
 width="110592.000000pt" height="110592.000000pt" viewBox="0 0 110592.000000 110592.000000"
 preserveAspectRatio="xMidYMid meet">
<metadata>
Created by potrace 1.11, written by Peter Selinger 2001-2013
</metadata>
<g transform="translate(0.000000,110592.000000) scale(11.059200,-11.059200)"
fill="#000000" stroke="none">
<path d="M1940 9985 c-394 -55 -750 -203 -1075 -448 -103 -78 -324 -299 -402
-402 -200 -266 -348 -580 -413 -880 -52 -241 -50 -92 -50 -3255 0 -3163 -2
-3014 50 -3255 65 -300 213 -614 413 -880 78 -103 299 -324 402 -402 329 -248
684 -395 1085 -449 157 -21 5943 -21 6100 0 399 54 758 202 1085 449 103 78
324 299 402 402 200 266 348 580 413 880 52 241 50 92 50 3255 0 3163 2 3014
-50 3255 -65 300 -213 614 -413 880 -78 103 -299 324 -402 402 -266 200 -580
348 -880 413 -241 52 -90 50 -3265 49 -2387 -1 -2973 -4 -3050 -14z m6090
-537 c662 -122 1174 -574 1365 -1203 76 -250 70 11 70 -3245 0 -3256 6 -2995
-70 -3245 -195 -641 -736 -1108 -1400 -1207 -74 -11 -620 -13 -3000 -13 -3250
0 -2990 -6 -3240 70 -556 169 -981 594 -1150 1150 -76 250 -70 -11 -70 3245 0
3256 -6 2995 70 3245 124 410 385 747 753 974 217 134 505 226 767 244 28 2
1348 3 2935 2 2571 -1 2894 -3 2970 -17z"/>
<path d="M4470 6765 l0 -1875 -1355 0 -1355 0 0 665 0 665 -380 0 -380 0 0
-2430 0 -2430 3890 0 3890 0 0 2930 0 2930 -1360 0 -1360 0 0 710 0 710 -795
0 -795 0 0 -1875z m380 -1765 l0 -3270 -80 0 -80 0 0 3270 0 3270 80 0 80 0 0
-3270z m360 0 l0 -3270 -85 0 -85 0 0 3270 0 3270 85 0 85 0 0 -3270z m350 0
l0 -3270 -85 0 -85 0 0 3270 0 3270 85 0 85 0 0 -3270z m350 0 l0 -3270 -85 0
-85 0 0 3270 0 3270 85 0 85 0 0 -3270z m870 1205 l0 -405 -225 0 -225 0 0
405 0 405 225 0 225 0 0 -405z m880 0 l0 -405 -225 0 -225 0 0 405 0 405 225
0 225 0 0 -405z m880 0 l0 -405 -225 0 -225 0 0 405 0 405 225 0 225 0 0 -405z
m-1760 -1110 l0 -405 -225 0 -225 0 0 405 0 405 225 0 225 0 0 -405z m880 0
l0 -405 -225 0 -225 0 0 405 0 405 225 0 225 0 0 -405z m880 0 l0 -405 -225 0
-225 0 0 405 0 405 225 0 225 0 0 -405z m-6070 -815 l0 -240 -225 0 -225 0 0
240 0 240 225 0 225 0 0 -240z m880 0 l0 -240 -220 0 -220 0 0 240 0 240 220
0 220 0 0 -240z m890 0 l0 -240 -225 0 -225 0 0 240 0 240 225 0 225 0 0 -240z
m2540 -290 l0 -400 -225 0 -225 0 0 400 0 400 225 0 225 0 0 -400z m880 0 l0
-400 -225 0 -225 0 0 400 0 400 225 0 225 0 0 -400z m880 0 l0 -400 -225 0
-225 0 0 400 0 400 225 0 225 0 0 -400z m-6070 -375 l0 -245 -225 0 -225 0 0
245 0 245 225 0 225 0 0 -245z m880 0 l0 -245 -220 0 -220 0 0 245 0 245 220
0 220 0 0 -245z m890 0 l0 -245 -225 0 -225 0 0 245 0 245 225 0 225 0 0 -245z
m2540 -735 l0 -400 -225 0 -225 0 0 400 0 400 225 0 225 0 0 -400z m880 0 l0
-400 -225 0 -225 0 0 400 0 400 225 0 225 0 0 -400z m880 0 l0 -400 -225 0
-225 0 0 400 0 400 225 0 225 0 0 -400z m-6070 70 l0 -240 -225 0 -225 0 0
240 0 240 225 0 225 0 0 -240z m880 0 l0 -240 -220 0 -220 0 0 240 0 240 220
0 220 0 0 -240z m890 0 l0 -240 -225 0 -225 0 0 240 0 240 225 0 225 0 0 -240z
m-1770 -670 l0 -240 -225 0 -225 0 0 240 0 240 225 0 225 0 0 -240z m880 0 l0
-240 -220 0 -220 0 0 240 0 240 220 0 220 0 0 -240z m890 0 l0 -240 -225 0
-225 0 0 240 0 240 225 0 225 0 0 -240z m2390 -580 l0 -310 -150 0 -150 0 0
310 0 310 150 0 150 0 0 -310z m960 0 l0 -310 -155 0 -155 0 0 310 0 310 155
0 155 0 0 -310z m950 0 l0 -310 -155 0 -155 0 0 310 0 310 155 0 155 0 0 -310z
m-6210 -135 l0 -185 -155 0 -155 0 0 185 0 185 155 0 155 0 0 -185z m950 0 l0
-185 -150 0 -150 0 0 185 0 185 150 0 150 0 0 -185z m960 0 l0 -185 -155 0
-155 0 0 185 0 185 155 0 155 0 0 -185z"/>
</g>
</svg>
