<?xml version="1.0" standalone="no"?>
<!DOCTYPE svg PUBLIC "-//W3C//DTD SVG 20010904//EN"
 "http://www.w3.org/TR/2001/REC-SVG-20010904/DTD/svg10.dtd">
<svg version="1.0" xmlns="http://www.w3.org/2000/svg"
 width="110592.000000pt" height="110592.000000pt" viewBox="0 0 110592.000000 110592.000000"
 preserveAspectRatio="xMidYMid meet">
<metadata>
Created by potrace 1.11, written by Peter Selinger 2001-2013
</metadata>
<g transform="translate(0.000000,110592.000000) scale(11.015139,-11.059200)"
fill="#000000" stroke="none">
<path d="M1940 9985 c-394 -55 -750 -203 -1075 -448 -103 -78 -324 -299 -402
-402 -200 -266 -348 -580 -413 -880 -52 -241 -50 -92 -50 -3255 0 -3163 -2
-3014 50 -3255 65 -300 213 -614 413 -880 78 -103 299 -324 402 -402 329 -248
684 -395 1085 -449 157 -21 5983 -21 6140 0 399 54 758 202 1085 449 103 78
324 299 402 402 200 266 348 580 413 880 52 241 50 92 50 3255 0 3163 2 3014
-50 3255 -65 300 -213 614 -413 880 -78 103 -299 324 -402 402 -266 200 -580
348 -880 413 -241 52 -89 50 -3285 49 -2404 -1 -2993 -4 -3070 -14z m4453
-527 c-140 -182 -167 -230 -203 -357 -21 -72 -25 -78 -124 -175 -56 -56 -138
-146 -182 -201 -60 -75 -93 -107 -133 -129 -31 -17 -64 -44 -79 -68 -15 -22
-40 -55 -56 -74 -27 -32 -31 -34 -92 -34 -45 0 -77 -6 -103 -20 -22 -11 -72
-28 -111 -39 -83 -23 -94 -32 -147 -108 -37 -54 -37 -55 -38 -156 -1 -91 -4
-108 -31 -162 l-29 -60 -3 -225 c-1 -124 -4 -265 -5 -315 -2 -89 -2 -91 43
-175 39 -73 52 -88 90 -108 98 -51 210 -11 365 129 95 86 176 139 212 139 12
0 32 -10 43 -22 l22 -23 -3 25 c-2 16 5 34 18 47 12 12 27 41 33 65 6 24 22
75 35 113 14 39 32 113 40 165 19 115 37 173 69 214 l24 32 -24 69 c-28 82
-29 107 -10 184 8 31 17 97 20 146 14 201 48 271 173 355 65 44 89 80 118 175
13 41 33 90 44 109 12 18 32 72 46 120 35 122 46 140 146 234 48 46 93 97 99
113 11 27 17 29 62 29 50 0 50 0 43 -27 -11 -46 -49 -96 -140 -184 -84 -82
-86 -85 -110 -169 -14 -47 -38 -112 -54 -145 -17 -33 -39 -89 -50 -124 -32
-100 -64 -145 -148 -208 -42 -32 -85 -72 -95 -89 -10 -18 -22 -69 -28 -130 -6
-54 -16 -130 -22 -169 -21 -130 -21 -148 1 -205 30 -78 28 -122 -8 -162 -31
-36 -43 -72 -61 -188 -11 -72 -50 -206 -92 -317 -20 -52 -75 -113 -102 -113
-10 0 -16 -19 -21 -59 -6 -54 -4 -66 30 -142 31 -70 38 -100 46 -197 7 -79 19
-143 40 -204 22 -66 29 -107 29 -163 0 -159 37 -233 121 -242 41 -5 50 -2 81
26 19 17 46 46 58 64 31 46 48 55 119 66 118 19 178 86 204 228 21 113 89 358
111 401 12 23 36 42 84 66 37 19 75 42 84 53 43 47 81 205 81 338 1 111 -23
152 -120 205 -66 36 -95 86 -101 173 -5 87 14 150 85 280 79 145 144 221 295
342 207 167 216 182 197 332 -16 121 -5 158 64 227 102 101 208 127 288 71 79
-56 125 -147 98 -196 -6 -13 -33 -47 -58 -75 -26 -28 -87 -117 -136 -198 -50
-81 -113 -175 -141 -209 -80 -97 -98 -139 -98 -227 0 -41 4 -128 9 -193 7
-101 5 -129 -10 -192 -26 -101 -18 -119 67 -165 81 -44 104 -64 129 -112 48
-94 165 -76 562 84 199 81 225 86 282 63 19 -8 19 -8 3 12 -17 19 -17 22 13
76 16 31 43 92 59 136 54 149 159 575 145 589 -4 4 -38 12 -77 19 -121 20
-146 55 -147 204 -1 59 -7 104 -21 145 -21 58 -21 62 -5 249 9 105 18 204 21
222 l5 32 47 -18 c61 -24 223 -103 220 -107 -3 -3 -129 21 -165 32 -20 5 -22
2 -27 -48 -3 -29 -8 -108 -11 -174 -6 -106 -4 -130 14 -189 15 -46 21 -94 21
-156 l0 -88 35 -6 c19 -3 52 -8 73 -11 98 -15 129 -67 107 -181 -63 -321 -173
-658 -245 -750 l-20 -26 20 -22 c38 -41 21 -80 -55 -121 -33 -17 -46 -34 -26
-34 4 0 29 -19 55 -43 36 -34 46 -50 46 -74 0 -36 -34 -82 -85 -113 -49 -30
-46 -58 14 -124 27 -29 53 -69 59 -87 6 -19 13 -90 16 -158 6 -129 22 -243 38
-273 6 -13 21 -18 51 -18 53 0 102 -29 123 -74 l17 -34 44 34 c57 43 91 44
138 3 44 -39 86 -126 119 -248 14 -51 33 -104 41 -118 9 -14 58 -51 108 -83
186 -118 225 -159 213 -228 -8 -49 -30 -69 -93 -82 -52 -11 -56 -14 -75 -57
-22 -51 -20 -104 7 -133 14 -15 20 -16 53 -4 20 7 52 13 70 14 40 0 61 10 125
62 27 21 53 38 58 38 5 0 9 -24 9 -54 0 -50 -3 -56 -35 -80 -55 -42 -116 -66
-170 -66 -49 0 -50 -1 -141 -93 -84 -85 -91 -96 -96 -140 -11 -95 -66 -113
-143 -47 -54 47 -67 49 -89 15 -22 -34 -74 -65 -109 -65 -18 0 -42 13 -71 40
l-43 40 -74 -10 c-121 -16 -180 -12 -275 17 -113 34 -201 35 -303 4 -66 -20
-73 -24 -68 -44 46 -195 45 -201 -25 -323 -63 -111 -65 -117 -83 -233 -8 -53
-22 -117 -31 -144 -18 -52 -63 -104 -98 -113 -12 -3 -27 -14 -34 -25 -11 -16
-9 -19 8 -19 18 0 20 -7 20 -75 0 -71 1 -75 19 -66 32 18 152 24 221 11 160
-29 202 -25 280 27 19 13 50 23 68 23 32 0 33 1 27 34 -10 49 9 74 79 107 84
39 145 46 226 24 36 -10 113 -21 171 -24 93 -6 111 -10 147 -34 53 -35 75 -69
82 -126 5 -44 7 -47 65 -78 76 -40 125 -92 127 -135 4 -95 -20 -157 -84 -220
-55 -53 -158 -175 -158 -187 0 -5 35 -11 78 -14 42 -3 85 -7 96 -9 14 -2 21 7
30 42 6 25 26 66 43 91 18 26 45 86 60 134 31 97 60 135 105 135 44 0 64 -15
107 -79 22 -32 47 -61 56 -65 15 -5 16 -85 12 -893 -4 -986 -3 -970 -72 -1198
-195 -641 -736 -1108 -1400 -1207 -74 -11 -617 -13 -2980 -13 -3228 0 -2970
-6 -3220 70 -556 169 -981 594 -1150 1150 -76 250 -70 -11 -70 3245 0 3256 -6
2995 70 3245 124 410 385 747 753 974 217 134 507 226 767 244 28 2 992 4
2144 5 1673 2 2092 -1 2084 -10z m1586 -5 c29 -7 20 -11 -75 -28 -124 -22
-222 -24 -277 -6 -21 7 -40 11 -42 9 -2 -2 2 -44 10 -93 8 -50 15 -114 15
-144 0 -50 -1 -53 -22 -47 -13 3 -35 6 -50 6 -27 0 -28 1 -28 59 0 57 -23 210
-36 246 -7 17 5 18 232 12 131 -4 254 -10 273 -14z"/>
<path d="M3779 7759 c-45 -45 -8 -94 81 -106 45 -6 52 3 40 48 -20 73 -78 101
-121 58z"/>
<path d="M3184 7731 c-22 -10 -54 -35 -72 -56 -34 -42 -97 -155 -86 -155 3 0
51 23 106 52 113 59 148 93 148 144 0 30 -3 34 -27 34 -16 0 -46 -9 -69 -19z"/>
<path d="M3510 7679 c-61 -12 -238 -104 -274 -141 -27 -30 -28 -34 -22 -95 l7
-65 -70 -66 c-91 -88 -99 -108 -66 -179 16 -37 25 -73 25 -107 0 -45 5 -57 40
-100 22 -26 40 -52 40 -56 0 -5 -11 -31 -25 -58 -14 -28 -25 -66 -25 -85 0
-31 6 -38 53 -68 47 -31 54 -40 74 -99 32 -98 57 -231 49 -263 -9 -39 -53 -77
-86 -77 -15 0 -51 16 -80 36 -96 66 -139 75 -182 36 -27 -23 -22 -52 18 -107
60 -84 67 -103 53 -136 -15 -37 -46 -53 -128 -70 -44 -8 -74 -21 -95 -40 -30
-27 -30 -29 -16 -56 16 -29 41 -43 193 -114 115 -53 126 -80 41 -100 -25 -5
-60 -5 -96 2 -76 15 -99 8 -167 -55 -44 -41 -74 -59 -127 -76 -108 -35 -121
-72 -31 -89 29 -5 98 -13 155 -16 l103 -7 44 41 c25 23 49 41 55 41 6 0 38
-11 71 -25 42 -18 92 -29 162 -35 131 -12 190 -25 307 -68 81 -30 108 -35 185
-36 125 -1 175 22 175 83 0 11 -18 41 -40 66 -22 25 -40 49 -40 53 0 15 18 33
80 79 86 64 122 117 127 185 6 77 -10 99 -85 123 -95 31 -93 26 -101 232 -6
151 -10 184 -28 218 -27 53 -46 121 -78 285 -42 214 -47 223 -140 235 -83 10
-94 14 -110 39 -31 47 -5 66 181 136 188 70 254 124 254 203 0 50 -27 65 -136
77 -49 6 -107 15 -129 21 -42 12 -85 44 -85 65 0 20 44 50 112 74 125 46 148
71 109 122 -35 44 -138 59 -251 37z"/>
<path d="M7880 7362 c-265 -150 -245 -135 -248 -180 -4 -50 9 -103 28 -113 8
-4 27 -10 42 -14 28 -5 34 -17 56 -125 7 -33 10 -38 11 -17 1 19 8 30 25 37
13 5 28 15 33 22 48 76 173 68 273 -18 30 -26 72 -58 93 -72 l38 -25 42 30
c37 27 42 36 45 75 3 41 -1 49 -41 94 -102 114 -105 191 -8 253 28 18 51 35
51 37 0 1 -16 15 -35 30 -26 20 -38 24 -48 16 -9 -8 -26 -7 -58 2 -25 8 -79
17 -120 20 l-74 7 -105 -59z"/>
<path d="M7433 7251 c-6 -10 -15 -35 -19 -56 -5 -27 -21 -50 -55 -83 -42 -39
-49 -52 -49 -83 0 -29 6 -43 26 -58 31 -25 55 -26 93 -7 41 22 98 90 109 130
18 62 -9 136 -58 161 -36 19 -33 19 -47 -4z"/>
<path d="M2660 6989 c-30 -4 -68 -13 -84 -19 -25 -9 -27 -14 -21 -38 4 -15 9
-46 12 -69 4 -36 2 -43 -21 -58 -25 -17 -27 -16 -94 24 -42 25 -80 41 -100 41
-29 0 -34 -5 -56 -53 -15 -35 -40 -68 -70 -93 -25 -21 -46 -42 -46 -47 0 -4
29 -39 65 -77 36 -38 65 -78 65 -89 0 -28 -50 -63 -159 -110 -52 -22 -104 -49
-114 -60 -28 -27 -46 -185 -27 -231 16 -39 60 -60 124 -60 60 0 92 13 143 60
24 23 53 40 65 40 13 0 61 -16 108 -35 47 -20 102 -38 123 -42 34 -5 41 -2 76
34 55 59 131 177 147 230 8 26 17 85 21 132 6 77 5 85 -9 73 -14 -11 -27 -6
-88 30 -95 57 -125 95 -125 162 0 70 26 103 138 175 148 96 144 90 57 89 -41
0 -100 -4 -130 -9z"/>
<path d="M5614 6972 c-7 -4 -28 -34 -47 -68 -37 -63 -63 -81 -152 -104 -69
-17 -98 -43 -161 -146 -97 -157 -98 -163 -34 -348 16 -50 30 -109 30 -133 0
-24 5 -43 10 -43 6 0 10 11 10 25 0 23 3 25 28 19 57 -13 119 -33 164 -53 42
-19 51 -20 93 -9 25 7 55 21 67 32 18 17 20 27 14 87 -3 37 -13 98 -22 135
-23 100 -18 124 31 141 45 15 55 27 55 65 0 19 -11 38 -35 59 -19 18 -37 39
-40 48 -3 10 8 65 25 124 35 126 37 153 11 167 -23 12 -32 12 -47 2z"/>
<path d="M7010 6938 c-39 -48 -49 -70 -50 -105 0 -64 48 -54 79 17 22 50 25
77 15 104 -8 22 -15 20 -44 -16z"/>
<path d="M2919 6923 c-19 -16 -65 -49 -104 -72 -162 -100 -164 -128 -17 -215
34 -21 62 -42 62 -47 0 -16 121 53 138 79 30 46 15 183 -28 255 l-18 28 -33
-28z"/>
<path d="M7889 6904 c-29 -32 -71 -54 -100 -54 -17 0 -20 -4 -16 -22 19 -77
18 -114 0 -137 -37 -46 -67 -33 -164 69 -82 88 -89 93 -119 87 -81 -17 -163
-87 -189 -164 -17 -50 -28 -318 -12 -309 6 4 11 19 11 34 1 22 12 35 67 70 82
52 115 54 159 11 l33 -32 30 34 c17 18 31 37 31 41 0 20 64 38 132 38 141 -1
265 -41 392 -128 l59 -41 28 30 c22 24 35 29 71 29 34 0 50 6 68 25 23 25 23
28 -4 100 -8 23 -20 79 -26 125 -6 47 -13 87 -15 89 -2 1 -14 -4 -27 -13 -29
-21 -90 -20 -131 0 -18 9 -61 40 -97 69 -105 85 -139 94 -181 49z"/>
<path d="M6751 6773 c1 -15 -9 -54 -20 -86 -53 -143 -6 -229 57 -107 24 49 27
100 9 170 -14 53 -47 70 -46 23z"/>
<path d="M8463 6448 c-65 -70 -82 -81 -125 -87 -39 -6 -41 -8 -58 -64 -22 -70
-59 -126 -100 -150 -17 -10 -32 -30 -36 -45 -24 -111 -37 -138 -84 -182 -27
-26 -96 -71 -159 -104 -61 -31 -111 -60 -111 -64 0 -4 19 -49 41 -101 65 -147
65 -193 0 -264 -32 -34 -37 -46 -30 -64 5 -13 11 -23 14 -23 2 0 44 11 91 25
115 33 202 33 319 -1 86 -25 97 -26 240 -19 l150 6 34 -35 c19 -20 40 -36 45
-36 6 0 23 16 39 35 45 56 110 65 171 22 23 -16 30 -17 37 -6 5 8 9 20 9 26 0
7 32 47 72 89 62 65 70 78 60 92 -89 122 -31 317 99 338 21 4 39 10 39 13 0
14 -56 60 -130 106 -160 101 -194 143 -230 283 -22 89 -61 185 -79 196 -6 4
-36 -13 -67 -38 -54 -45 -75 -52 -109 -40 -19 8 -45 55 -45 83 0 22 -25 51
-44 51 -8 0 -31 -19 -53 -42z"/>
<path d="M7668 6436 c-54 -73 -120 -88 -178 -40 l-31 26 -57 -34 c-31 -20 -70
-38 -86 -42 l-28 -7 7 -82 c6 -79 25 -133 25 -73 0 21 4 26 18 22 9 -3 70 -8
135 -12 105 -6 120 -9 132 -28 30 -47 126 -269 121 -281 -3 -8 2 -19 10 -26
12 -10 32 -4 107 34 155 77 170 91 197 188 22 76 30 89 82 141 32 32 58 61 58
66 0 5 -24 28 -52 50 -116 88 -208 123 -355 137 l-72 6 -33 -45z"/>
<path d="M5804 6436 c-37 -16 -44 -32 -44 -97 0 -81 42 -139 101 -139 40 0 62
32 67 98 5 72 -16 128 -53 142 -32 12 -33 12 -71 -4z"/>
<path d="M7305 6094 c-10 -15 -17 -16 -79 -4 -84 17 -95 11 -118 -65 -20 -70
-24 -74 -77 -86 -55 -12 -104 8 -127 53 -27 54 -44 68 -84 68 -50 0 -104 -20
-173 -64 -51 -33 -62 -36 -129 -36 -70 0 -79 -3 -194 -61 -74 -38 -138 -63
-166 -66 l-46 -5 -41 60 c-72 107 -102 114 -232 51 -102 -50 -139 -53 -176
-16 l-27 26 23 25 c15 16 21 31 17 42 -5 14 -14 15 -54 9 -86 -14 -105 -12
-118 13 l-12 24 -16 -23 -16 -23 -43 21 c-46 22 -154 50 -162 41 -3 -3 -6 -37
-7 -76 -1 -54 4 -78 19 -105 l21 -35 -45 -6 c-39 -5 -49 -2 -75 19 -25 21 -39
25 -100 25 -63 0 -69 -2 -63 -17 20 -47 24 -104 11 -150 -7 -26 -23 -84 -35
-128 -38 -137 -96 -207 -183 -221 -45 -8 -49 -17 -52 -132 -1 -69 -6 -94 -23
-122 -19 -32 -20 -42 -13 -125 5 -50 5 -121 0 -160 -5 -38 -8 -70 -7 -71 125
-72 248 -201 247 -261 -1 -33 -39 -104 -100 -184 -33 -44 -60 -86 -60 -93 0
-18 44 -36 89 -36 22 0 63 11 93 25 73 34 118 33 162 -5 18 -17 37 -41 40 -55
l6 -25 139 0 c76 0 193 -3 261 -7 l123 -6 35 -36 c32 -32 35 -33 28 -11 -13
46 -18 99 -12 124 9 36 61 92 112 122 41 24 44 29 44 69 0 54 -21 81 -103 133
-79 50 -99 73 -133 146 -20 44 -25 68 -21 98 8 62 42 90 156 129 31 11 97 44
146 73 50 30 120 64 158 76 l67 22 0 46 c0 87 -29 236 -62 327 -32 86 -33 96
-32 227 0 76 2 139 5 142 2 2 25 2 50 -1 l46 -5 -5 -117 c-4 -109 -2 -121 27
-209 38 -115 58 -212 67 -323 l6 -85 43 -27 c49 -31 182 -168 211 -215 20 -35
31 -37 84 -22 48 14 134 -3 176 -35 18 -14 59 -59 91 -102 32 -42 64 -79 70
-81 7 -2 18 8 24 21 25 55 85 55 149 0 40 -34 42 -35 103 -27 144 17 203 1
311 -81 69 -52 81 -37 106 140 15 110 24 136 88 248 65 117 65 126 3 312 -23
66 -41 132 -41 147 0 17 15 44 40 73 28 33 40 55 40 77 0 41 -116 302 -151
339 -34 36 -61 37 -139 4 -69 -29 -140 -32 -312 -12 -104 13 -130 23 -148 58
-8 14 -3 22 24 39 30 18 40 19 78 11 24 -6 91 -15 150 -21 100 -10 110 -9 165
11 32 12 77 24 101 26 23 3 42 9 42 14 0 5 -12 33 -27 63 -30 61 -25 59 -173
71 -64 5 -77 3 -85 -11z"/>
<path d="M4705 5836 c-38 -17 -85 -71 -85 -98 0 -15 -4 -18 -17 -12 -10 4 -33
8 -52 8 -52 1 -78 -45 -135 -237 -33 -110 -40 -116 -120 -94 -35 9 -70 17 -78
17 -7 0 -36 -19 -63 -41 l-50 -41 -96 7 c-119 8 -132 0 -159 -99 -28 -100 -38
-110 -129 -141 -72 -24 -171 -77 -171 -93 -1 -4 -10 -18 -20 -31 l-20 -23 -65
17 c-70 19 -96 38 -121 88 -33 65 -64 97 -93 97 -47 0 -55 -19 -48 -121 3 -50
2 -102 -4 -116 -9 -25 -10 -25 -108 -21 -98 4 -99 4 -141 42 -59 53 -121 78
-211 83 -74 5 -76 5 -113 -27 -73 -64 -110 -186 -68 -222 9 -8 46 -21 82 -27
85 -16 138 -40 188 -86 49 -44 58 -69 71 -201 9 -100 11 -104 65 -190 31 -48
58 -101 61 -118 11 -56 -103 -390 -182 -536 -19 -36 -51 -82 -71 -102 -20 -21
-32 -38 -26 -38 6 0 18 -22 27 -48 25 -70 69 -117 142 -153 60 -29 66 -30 115
-20 135 29 177 7 293 -149 47 -64 145 -113 235 -118 l67 -4 29 57 c33 64 94
120 147 136 90 27 221 -29 352 -150 120 -112 119 -112 170 -59 40 41 162 117
227 141 47 18 40 49 -25 109 -49 45 -55 56 -55 90 0 21 7 53 17 71 24 46 20
104 -10 170 -48 106 -43 164 17 197 33 17 28 38 -25 100 -76 90 -70 124 34
201 107 79 176 148 204 203 14 27 56 90 94 141 38 50 69 101 69 112 0 33 -66
99 -172 170 -56 37 -142 105 -190 150 -49 45 -119 100 -157 122 -114 67 -242
210 -285 320 -9 24 -15 45 -13 47 2 2 25 7 50 10 42 6 47 5 47 -12 0 -54 145
-221 245 -281 33 -20 74 -47 91 -60 28 -21 33 -22 45 -7 7 8 33 29 57 46 l45
31 -46 42 c-58 53 -67 77 -67 171 0 70 -2 78 -28 102 -15 15 -36 32 -45 37
-17 9 -17 12 -1 52 l17 42 36 -19 c88 -44 128 -119 118 -216 -4 -37 -1 -58 10
-73 26 -38 43 -9 43 71 0 141 32 200 120 223 71 18 93 46 119 149 11 45 26 99
32 122 12 41 5 99 -11 89 -5 -3 -11 -1 -15 5 -9 15 -155 12 -190 -4z"/>
<path d="M6200 4981 c-8 -5 -43 -19 -77 -30 -34 -12 -93 -41 -130 -65 -37 -24
-101 -55 -141 -70 -109 -39 -112 -41 -103 -74 17 -59 42 -90 105 -131 105 -69
156 -139 156 -215 0 -30 50 -11 85 32 83 104 133 126 182 80 23 -21 24 -21
110 -6 177 32 273 87 273 157 0 52 -11 64 -44 51 -15 -5 -43 -10 -62 -10 -30
0 -40 7 -82 62 -96 128 -204 228 -241 228 -9 0 -23 -5 -31 -9z"/>
<path d="M4590 4912 c-20 -17 -23 -24 -14 -38 6 -10 16 -20 22 -22 12 -4 26
37 20 63 -3 16 -5 15 -28 -3z"/>
<path d="M6751 4621 c-16 -62 -66 -114 -146 -152 -59 -28 -200 -69 -237 -69
-10 0 -18 -3 -18 -8 0 -4 35 -7 78 -7 129 0 174 -44 176 -174 l1 -65 84 -30
c97 -35 95 -35 266 40 96 42 119 57 178 117 94 95 116 102 224 82 l86 -16 36
36 36 36 -25 19 c-46 36 -124 70 -160 70 -20 0 -62 -5 -94 -11 -72 -13 -107
-5 -148 33 -19 18 -34 25 -36 18 -11 -32 -47 -52 -89 -47 -55 6 -90 32 -143
111 -25 36 -48 66 -51 66 -3 0 -11 -22 -18 -49z"/>
<path d="M6176 4376 c-46 -56 -88 -82 -149 -90 -54 -7 -110 -33 -151 -71 -26
-24 -28 -31 -22 -71 20 -143 20 -131 -9 -158 -54 -50 -124 -39 -162 24 l-17
30 -211 0 c-115 0 -227 3 -249 7 -33 5 -38 4 -34 -13 1 -10 30 -35 64 -56 54
-34 64 -37 94 -28 50 14 182 24 223 16 23 -4 56 -26 98 -65 75 -68 131 -99
251 -136 78 -24 92 -26 138 -16 56 12 305 116 331 138 11 10 18 35 21 77 3 58
8 70 57 137 56 77 72 129 52 168 -10 19 -20 21 -92 21 -102 0 -130 14 -161 79
-12 28 -26 50 -29 51 -4 0 -23 -20 -43 -44z"/>
<path d="M8400 4320 c0 -5 6 -10 14 -10 19 0 106 -48 135 -73 13 -12 48 -58
78 -102 29 -44 73 -106 98 -138 54 -70 62 -110 45 -202 -19 -102 -23 -166 -12
-177 7 -7 15 -1 26 19 20 40 96 133 171 213 49 51 64 75 69 107 10 58 -3 76
-84 119 -57 29 -73 44 -90 78 -11 23 -20 54 -20 69 0 48 -34 67 -119 67 -43 0
-109 9 -151 20 -81 21 -160 26 -160 10z"/>
<path d="M7200 4205 c-66 -67 -97 -85 -285 -169 -44 -19 -93 -37 -110 -41 -32
-6 -129 19 -208 54 -27 12 -50 21 -53 21 -2 0 -15 -17 -28 -37 -16 -25 -27
-60 -32 -101 -5 -45 -14 -72 -30 -92 l-24 -28 51 -88 c70 -122 84 -139 123
-158 40 -19 139 -21 252 -5 87 12 117 25 154 64 33 36 63 46 98 34 25 -9 33
-6 60 19 24 23 44 30 87 35 73 7 101 27 115 78 16 57 76 192 111 247 26 42 29
54 29 131 l0 86 -72 0 c-40 0 -95 4 -123 8 l-50 8 -65 -66z"/>
<path d="M8308 4195 c-28 -26 -47 -35 -73 -35 -21 0 -52 -11 -81 -30 -75 -47
-137 -56 -252 -37 -233 41 -274 24 -366 -153 -24 -47 -53 -115 -65 -152 -12
-37 -31 -79 -43 -93 -24 -30 -80 -61 -130 -70 l-36 -7 33 -44 c23 -30 38 -64
46 -104 l12 -60 48 0 c62 0 95 -15 109 -51 10 -24 9 -35 -10 -73 -33 -70 -13
-80 84 -43 74 28 118 -2 156 -106 30 -80 45 -88 203 -100 201 -16 263 -13 341
12 85 27 132 51 214 107 73 50 112 60 169 45 34 -9 124 -64 210 -126 21 -16
22 -16 29 32 5 32 2 75 -9 129 -22 108 -23 108 20 155 35 38 39 40 79 34 41
-6 42 -5 52 27 6 18 13 49 17 68 6 33 5 34 -10 16 -8 -11 -15 -24 -15 -29 0
-16 -259 -2 -300 15 -83 36 -105 105 -76 231 26 112 22 142 -26 205 -24 30
-68 91 -98 136 -42 62 -65 86 -100 103 -76 38 -90 37 -132 -2z"/>
<path d="M4990 4128 c-55 -24 -74 -28 -122 -23 -31 2 -74 11 -95 20 l-39 15
-49 -46 c-28 -26 -77 -67 -110 -92 -33 -25 -64 -49 -69 -53 -4 -4 10 -30 33
-59 23 -29 44 -63 47 -76 8 -30 51 -54 96 -54 28 0 36 6 53 37 38 70 124 75
168 8 24 -37 37 -44 37 -20 0 22 37 55 62 55 12 0 32 -9 44 -21 l22 -20 25 25
c28 28 50 32 93 16 19 -7 30 -7 40 1 19 16 5 31 -63 70 -30 17 -64 46 -74 63
-20 31 -20 35 -3 130 10 54 -16 60 -96 24z"/>
<path d="M1475 3890 c-52 -45 -62 -47 -149 -23 -35 9 -70 13 -80 10 -23 -9
-35 -45 -50 -161 -8 -55 -17 -108 -20 -117 -6 -15 4 -16 87 -15 105 1 118 -5
162 -74 18 -28 33 -38 74 -49 79 -20 164 -66 184 -100 20 -35 22 -96 3 -131
-8 -13 -42 -40 -77 -60 -62 -35 -64 -37 -79 -96 -9 -33 -29 -82 -45 -110 -16
-27 -42 -75 -58 -107 -36 -73 -63 -91 -123 -84 -43 4 -45 3 -40 -17 17 -62 28
-146 22 -169 -3 -15 -20 -42 -37 -62 l-31 -35 31 -29 c53 -49 45 -73 -54 -166
-62 -59 -86 -89 -91 -113 -6 -30 -9 -32 -35 -27 -16 4 -29 5 -29 2 0 -2 27
-25 61 -51 80 -62 90 -88 77 -191 -11 -91 -3 -125 36 -150 41 -27 96 -29 178
-6 52 14 91 19 124 15 42 -5 59 -1 124 30 41 20 80 36 87 36 28 0 142 -59 179
-92 65 -58 107 -74 187 -70 21 2 44 19 86 61 68 72 96 84 181 83 36 -1 75 4
87 11 12 6 43 41 70 76 58 78 78 93 167 129 95 39 99 47 57 124 -32 57 -33 64
-23 102 22 82 84 215 116 248 40 41 338 182 441 208 38 10 104 21 145 25 132
12 160 31 160 108 0 33 0 33 -69 43 -130 21 -261 103 -313 195 -12 21 -38 50
-58 64 -34 23 -41 25 -81 16 -83 -20 -132 -14 -205 24 -106 55 -130 78 -170
161 -36 75 -38 104 -9 104 8 0 15 5 15 10 0 6 -17 10 -37 10 -38 0 -106 22
-378 124 -82 31 -188 70 -235 87 -113 41 -263 113 -379 183 -52 31 -105 56
-117 56 -13 0 -44 -18 -69 -40z"/>
<path d="M5485 3875 c-5 -2 -39 -6 -75 -10 -65 -6 -66 -7 -85 -47 -26 -54 -64
-81 -113 -81 -35 0 -40 -3 -51 -33 -16 -44 -60 -60 -103 -38 -30 15 -31 15
-57 -16 -48 -58 -117 -35 -153 51 -11 27 -24 49 -28 49 -4 0 -12 -11 -18 -25
-26 -58 -115 -81 -190 -50 -41 18 -77 13 -86 -10 -3 -8 8 -48 24 -89 36 -88
38 -152 10 -215 l-21 -44 50 -46 c33 -31 53 -60 62 -88 7 -24 18 -43 25 -43 7
0 45 25 85 55 85 64 116 69 185 29 65 -38 109 -95 129 -167 23 -83 39 -112 96
-178 35 -41 50 -69 55 -99 6 -38 20 -55 121 -154 124 -120 143 -146 143 -200
0 -50 41 -79 162 -117 96 -29 106 -35 164 -93 34 -34 73 -84 87 -111 17 -33
37 -56 61 -69 43 -23 72 -53 94 -97 10 -20 41 -50 74 -72 49 -32 58 -44 63
-75 3 -20 14 -67 25 -103 33 -110 26 -141 -54 -219 -37 -35 -46 -51 -46 -78 0
-38 37 -82 69 -82 11 0 48 28 83 62 35 35 85 82 111 106 54 50 91 114 83 146
-3 12 -28 50 -55 84 -56 70 -71 119 -48 152 20 29 128 120 142 120 5 0 47 -34
93 -75 45 -41 95 -81 112 -90 88 -45 130 16 98 142 -14 59 -82 133 -122 133
-73 0 -238 88 -341 182 -60 54 -63 64 -43 147 9 40 9 53 -2 66 -18 21 -35 19
-78 -10 -20 -14 -49 -25 -63 -25 -51 0 -233 141 -263 204 -9 19 -23 71 -32
116 -32 172 -73 236 -188 298 -106 57 -108 61 -98 224 9 158 10 158 108 213
63 35 98 43 109 25 3 -5 11 -10 17 -10 6 0 3 10 -5 24 -14 21 -14 26 -2 36 16
13 19 40 9 86 -5 24 -18 34 -79 63 -43 19 -95 54 -126 83 -62 58 -93 74 -124
63z"/>
<path d="M6205 3708 c-110 -48 -127 -52 -200 -52 l-80 -1 -6 -35 c-3 -19 -9
-47 -13 -61 -7 -24 -4 -26 86 -57 127 -43 211 -62 284 -62 103 0 144 24 144
84 0 21 5 26 25 26 14 0 25 2 25 4 0 3 -70 124 -107 184 -7 12 -19 22 -26 22
-6 -1 -66 -24 -132 -52z"/>
<path d="M7058 3543 c-13 -14 -35 -31 -49 -39 -33 -17 -49 -60 -49 -134 0 -64
20 -135 105 -377 47 -134 57 -177 62 -252 4 -59 10 -91 18 -91 6 0 34 -12 63
-26 55 -28 92 -74 92 -118 0 -31 -3 -31 61 -6 29 12 100 26 158 32 58 7 107
13 109 14 2 1 -11 34 -28 74 -45 102 -28 151 63 180 33 10 51 30 28 30 -5 0
-27 19 -50 43 -68 69 -78 154 -25 217 17 20 23 36 19 49 -6 20 -6 20 -56 1
-70 -28 -102 -26 -143 10 -43 38 -61 86 -46 124 15 41 14 43 -37 49 -60 6
-103 49 -103 102 0 18 -4 45 -9 58 -12 31 -62 79 -77 73 -6 -2 -28 -1 -47 4
-31 7 -39 4 -59 -17z"/>
<path d="M1127 3413 c-21 -145 -50 -210 -141 -313 -169 -191 -276 -356 -276
-425 0 -46 12 -68 66 -127 24 -26 44 -52 44 -57 0 -5 -23 -36 -51 -68 -105
-120 -132 -198 -84 -243 24 -22 28 -23 58 -10 33 14 43 14 180 6 66 -3 79 -1
84 13 19 60 44 99 101 153 54 50 62 62 49 69 -45 26 -77 62 -77 88 0 32 21 54
73 76 32 13 37 20 37 48 0 17 -7 62 -17 98 -14 57 -15 70 -3 99 16 40 61 60
116 54 l39 -5 51 93 c29 51 57 117 63 147 15 72 41 105 106 137 66 32 71 38
52 68 -11 16 -42 30 -108 50 -92 28 -149 67 -149 102 0 27 -37 35 -100 24 -66
-12 -80 -8 -80 21 0 10 -4 19 -8 19 -5 0 -16 -53 -25 -117z"/>
<path d="M6510 3487 c0 -39 -41 -90 -95 -117 -96 -48 -281 -27 -490 55 -49 19
-90 35 -91 35 -1 0 -4 -39 -7 -88 -8 -105 1 -142 36 -162 24 -14 28 -13 46 5
11 11 30 49 43 85 26 73 47 83 80 39 18 -23 18 -32 8 -87 -15 -83 -2 -124 58
-192 26 -30 58 -68 71 -85 81 -107 141 -147 240 -160 l54 -7 -22 33 c-77 116
-102 239 -63 315 60 116 202 174 397 160 l90 -7 2 76 1 75 -121 -2 c-126 -3
-128 -2 -229 50 -5 2 -8 -7 -8 -21z"/>
<path d="M6583 3206 c-96 -31 -137 -86 -123 -166 4 -25 11 -54 15 -65 15 -36
71 -119 114 -169 38 -44 41 -50 26 -65 -8 -10 -15 -20 -15 -23 0 -7 135 -118
144 -118 3 0 22 18 41 39 20 22 71 58 115 80 43 23 82 46 85 52 4 5 15 7 26 4
10 -4 19 -3 19 2 0 39 -129 406 -150 427 -16 16 -248 18 -297 2z"/>
<path d="M8545 3074 c-67 -48 -195 -109 -274 -129 -79 -20 -146 -22 -317 -7
-163 14 -180 18 -226 53 -44 34 -48 35 -48 9 0 -36 23 -70 67 -95 106 -63 84
-152 -49 -194 l-37 -12 33 -67 c19 -37 37 -77 40 -88 5 -15 18 -24 40 -28 53
-10 71 -38 69 -103 l-3 -56 44 5 c30 4 58 16 85 37 57 45 98 50 163 18 55 -27
154 -41 207 -31 26 5 33 14 47 58 30 94 70 121 202 136 49 5 107 16 129 24 30
11 44 11 52 3 18 -18 14 163 -4 218 -9 25 -12 51 -8 59 4 7 33 33 63 58 30 24
56 53 58 64 2 17 1 16 -18 -5 l-20 -23 -33 28 c-58 51 -136 96 -174 100 -31 3
-47 -2 -88 -32z"/>
<path d="M4887 2857 c-14 -19 -53 -47 -91 -66 -75 -37 -91 -58 -82 -110 4 -20
11 -64 16 -99 17 -111 54 -151 106 -117 23 15 25 21 19 56 -6 37 -4 43 33 83
25 27 43 58 48 81 8 44 -2 185 -15 198 -4 4 -19 -7 -34 -26z"/>
<path d="M6930 2626 c-46 -26 -82 -55 -93 -74 l-18 -30 55 -56 c30 -31 60 -56
66 -56 10 0 10 3 0 15 -10 12 -6 30 19 96 17 44 40 92 51 106 44 56 20 56 -80
-1z"/>
<path d="M7071 2547 c-42 -108 -56 -135 -76 -157 -22 -23 -23 -29 -14 -61 9
-28 8 -54 -4 -115 -43 -213 -40 -229 64 -345 82 -91 106 -107 95 -66 -4 19 0
26 19 35 33 15 70 76 100 166 36 108 34 135 -20 203 -56 73 -73 137 -56 208
28 115 27 116 -54 140 -44 14 -46 13 -54 -8z"/>
<path d="M8746 2514 c-22 -8 -69 -19 -105 -25 -36 -5 -67 -11 -68 -13 -2 -2 8
-23 21 -47 39 -69 42 -110 15 -165 -24 -48 -83 -105 -141 -136 -32 -17 -33
-17 -45 5 -19 34 -17 -6 2 -43 40 -78 114 -59 240 60 81 77 98 87 212 124 94
31 133 58 133 91 0 18 -17 34 -80 74 -44 28 -87 59 -97 71 -20 23 -33 24 -87
4z"/>
<path d="M7429 2422 c-64 -17 -139 -62 -139 -83 0 -6 -5 -7 -11 -3 -20 12 2
-39 34 -78 25 -31 37 -38 66 -38 20 0 47 -7 59 -16 13 -9 24 -14 26 -13 1 2
14 25 29 51 33 56 71 88 106 88 31 0 89 -34 98 -57 4 -11 14 12 28 63 l22 79
-21 8 c-12 5 -68 11 -126 13 -80 3 -121 0 -171 -14z"/>
<path d="M8470 2393 c-16 -45 -25 -57 -60 -80 -29 -20 -46 -23 -135 -23 -89 0
-108 3 -151 25 -27 14 -54 25 -61 25 -7 0 -33 -14 -57 -32 -34 -23 -59 -32
-100 -36 -51 -4 -57 -7 -81 -44 -26 -39 -75 -68 -115 -68 -52 0 -88 37 -103
105 -4 16 -5 15 -6 -5 -2 -35 -62 -140 -94 -164 l-26 -19 -51 26 c-50 26 -50
26 -50 5 0 -39 -49 -181 -83 -243 -21 -37 -51 -73 -80 -94 -45 -34 -45 -35
-31 -62 9 -18 14 -58 14 -108 0 -74 2 -81 26 -100 21 -16 41 -21 93 -21 38 -1
76 -7 91 -15 18 -10 61 -14 150 -15 181 0 230 -19 200 -75 -25 -46 -91 -56
-241 -36 -83 11 -149 0 -149 -24 0 -7 22 -59 49 -114 27 -55 52 -123 56 -150
8 -58 23 -75 62 -67 25 6 31 1 55 -44 46 -82 108 -79 108 6 0 68 18 66 77 -9
13 -17 30 -27 40 -25 33 6 26 52 -20 145 -56 111 -62 130 -46 149 10 12 17 11
55 -11 47 -27 74 -31 92 -13 19 19 14 50 -14 91 -31 46 -29 81 5 85 17 3 36
-9 71 -43 40 -40 53 -47 74 -41 29 7 42 41 31 84 -13 52 -105 127 -230 187
-92 44 -115 60 -115 76 0 12 25 46 60 80 39 38 60 67 60 82 0 14 -27 56 -70
106 -39 46 -73 94 -76 107 -8 32 4 62 27 69 24 8 53 -16 106 -88 63 -85 125
-68 121 33 -3 61 7 72 102 120 144 72 262 90 329 49 l34 -20 -6 20 c-4 16 4
26 38 46 54 31 85 69 85 104 0 24 -33 91 -45 91 -3 0 -10 -12 -15 -27z"/>
<path d="M4780 2371 c-14 -5 -46 -18 -72 -29 -34 -16 -58 -20 -90 -16 -72 8
-72 7 -59 -161 7 -80 11 -190 10 -242 -2 -93 -1 -97 22 -106 34 -13 145 -2
204 20 43 16 50 22 52 48 2 17 13 101 24 187 18 130 19 167 10 218 -15 89 -31
102 -101 81z"/>
<path d="M3600 2250 c-28 -28 -25 -64 8 -101 22 -24 37 -32 68 -33 l39 -1 3
62 c3 60 2 63 -27 78 -40 20 -67 19 -91 -5z"/>
<path d="M3341 2228 c-24 -13 -49 -31 -54 -40 -24 -37 55 -98 126 -98 60 0
103 57 95 126 -3 28 -5 29 -63 32 -48 2 -70 -2 -104 -20z"/>
<path d="M5620 1417 c-44 -23 -69 -26 -123 -11 -62 16 -85 11 -93 -22 -5 -21
1 -34 36 -69 52 -53 127 -98 344 -202 234 -114 258 -111 236 24 -12 75 -12 78
16 135 20 41 25 61 17 69 -19 19 -84 28 -142 18 -31 -5 -82 -9 -113 -9 -52 0
-61 3 -103 40 -25 22 -47 40 -48 40 -1 0 -13 -6 -27 -13z"/>
</g>
</svg>
