<?xml version="1.0" standalone="no"?>
<!DOCTYPE svg PUBLIC "-//W3C//DTD SVG 20010904//EN"
 "http://www.w3.org/TR/2001/REC-SVG-20010904/DTD/svg10.dtd">
<svg version="1.0" xmlns="http://www.w3.org/2000/svg"
 width="110592.000000pt" height="110592.000000pt" viewBox="0 0 110592.000000 110592.000000"
 preserveAspectRatio="xMidYMid meet">
<metadata>
Created by potrace 1.11, written by Peter Selinger 2001-2013
</metadata>
<g transform="translate(0.000000,110592.000000) scale(11.059200,-11.059200)"
fill="#000000" stroke="none">
<path d="M1940 9985 c-394 -55 -750 -203 -1075 -448 -103 -78 -324 -299 -402
-402 -200 -266 -348 -580 -413 -880 -52 -241 -50 -92 -50 -3255 0 -3163 -2
-3014 50 -3255 65 -300 213 -614 413 -880 78 -103 299 -324 402 -402 329 -248
684 -395 1085 -449 157 -21 5943 -21 6100 0 399 54 758 202 1085 449 103 78
324 299 402 402 200 266 348 580 413 880 52 241 50 92 50 3255 0 3163 2 3014
-50 3255 -65 300 -213 614 -413 880 -78 103 -299 324 -402 402 -266 200 -580
348 -880 413 -241 52 -90 50 -3265 49 -2387 -1 -2973 -4 -3050 -14z m6090
-537 c662 -122 1174 -574 1365 -1203 76 -250 70 10 70 -3240 0 -3136 3 -2980
-52 -3185 -35 -131 -67 -218 -123 -331 -250 -507 -732 -857 -1295 -941 -74
-11 -620 -13 -3000 -13 -3250 0 -2990 -6 -3240 70 -641 195 -1108 736 -1207
1400 -11 74 -13 620 -13 3000 0 3250 -6 2990 70 3240 124 410 385 747 753 974
217 134 505 226 767 244 28 2 1348 3 2935 2 2571 -1 2894 -3 2970 -17z"/>
<path d="M3904 8940 c-305 -42 -561 -232 -686 -507 -54 -121 -71 -203 -72
-358 0 -117 3 -153 22 -218 12 -42 22 -79 22 -82 0 -3 -18 -5 -40 -5 -61 0
-185 -28 -268 -60 -112 -44 -209 -106 -291 -189 -85 -86 -130 -155 -169 -263
-25 -71 -26 -79 -30 -373 -2 -193 0 -332 8 -390 15 -114 47 -187 94 -209 44
-21 58 -20 90 5 30 23 43 66 81 251 47 231 102 357 199 453 172 172 448 227
697 141 93 -33 167 -78 248 -153 81 -74 113 -119 155 -215 87 -200 239 -355
438 -447 109 -51 190 -71 318 -78 266 -14 512 86 691 282 58 64 85 103 130
189 l37 69 27 -54 c182 -360 572 -550 962 -470 409 85 693 433 694 853 l1 117
51 17 c207 66 402 240 501 447 58 121 77 197 83 343 9 194 -38 367 -141 523
-57 85 -191 213 -277 264 -403 237 -919 121 -1180 -265 l-26 -39 -35 53 c-78
117 -214 230 -354 295 -119 55 -219 75 -364 75 -192 0 -343 -46 -499 -151 -72
-49 -180 -156 -218 -217 -15 -24 -31 -44 -34 -44 -4 0 -18 17 -31 38 -65 98
-210 227 -316 281 -56 29 -165 67 -227 79 -76 16 -223 22 -291 12z"/>
<path d="M2226 5793 c-3 -27 -45 -786 -92 -1688 -48 -902 -88 -1641 -89 -1643
-2 -2 -124 -49 -271 -105 l-269 -103 -3 -562 -2 -562 3500 0 3500 0 0 1040 0
1040 -770 0 -770 0 0 565 c0 311 -3 565 -7 565 -5 0 -343 -128 -753 -283
l-745 -283 -3 218 -2 218 -745 0 -745 0 0 -519 0 -519 -67 -26 c-381 -144
-1008 -374 -1012 -371 -2 3 -43 693 -90 1535 l-86 1530 -237 0 -236 0 -6 -47z
m2624 -3548 l0 -375 -440 0 -440 0 0 375 0 375 440 0 440 0 0 -375z m1370 0
l0 -375 -440 0 -440 0 0 375 0 375 440 0 440 0 0 -375z m1370 0 l0 -375 -440
0 -440 0 0 375 0 375 440 0 440 0 0 -375z"/>
</g>
</svg>
