<?xml version="1.0" standalone="no"?>
<!DOCTYPE svg PUBLIC "-//W3C//DTD SVG 20010904//EN"
 "http://www.w3.org/TR/2001/REC-SVG-20010904/DTD/svg10.dtd">
<svg version="1.0" xmlns="http://www.w3.org/2000/svg"
 width="110592.000000pt" height="110592.000000pt" viewBox="0 0 110592.000000 110592.000000"
 preserveAspectRatio="xMidYMid meet">
<metadata>
Created by potrace 1.11, written by Peter Selinger 2001-2013
</metadata>
<g transform="translate(0.000000,110592.000000) scale(11.059200,-11.059200)"
fill="#000000" stroke="none">
<path d="M1940 9985 c-394 -55 -750 -203 -1075 -448 -103 -78 -324 -299 -402
-402 -200 -266 -348 -580 -413 -880 -52 -241 -50 -92 -50 -3255 0 -3164 -2
-3015 50 -3255 66 -304 211 -612 413 -880 78 -103 299 -324 402 -402 329 -248
684 -395 1085 -449 157 -21 5943 -21 6100 0 399 54 758 202 1085 449 103 78
324 299 402 402 248 329 395 684 449 1085 21 157 21 5943 0 6100 -35 255 -99
469 -210 695 -123 249 -233 403 -430 601 -198 197 -352 307 -601 430 -226 111
-440 175 -695 210 -151 20 -5964 19 -6110 -1z m6090 -537 c367 -68 682 -231
935 -483 261 -262 432 -601 487 -970 19 -133 19 -5857 0 -5990 -84 -563 -434
-1045 -941 -1295 -113 -56 -200 -88 -331 -123 -205 -55 -49 -52 -3185 -52
-3250 0 -2990 -6 -3240 70 -641 195 -1108 736 -1207 1400 -19 133 -19 5857 0
5990 87 580 458 1076 988 1318 178 81 396 137 589 150 28 2 1348 3 2935 2
2571 -1 2894 -3 2970 -17z"/>
<path d="M6265 9179 c-88 -13 -192 -67 -259 -133 -92 -93 -138 -204 -138 -337
0 -137 44 -242 143 -342 181 -181 486 -179 669 4 183 183 186 477 7 667 -108
113 -261 165 -422 141z"/>
<path d="M3655 9142 c-81 -27 -135 -61 -196 -121 -185 -186 -186 -484 0 -670
254 -254 673 -155 792 187 28 79 28 216 0 296 -55 155 -169 266 -320 310 -71
21 -210 19 -276 -2z"/>
<path d="M2932 8169 c-82 -16 -152 -86 -172 -171 -14 -61 -13 -1561 1 -1626
42 -200 312 -242 416 -65 l28 48 3 618 3 617 39 0 40 0 0 -1285 0 -1285 -175
0 -174 0 -52 -31 c-91 -53 -192 -82 -306 -87 -132 -5 -223 14 -340 74 l-88 45
-245 -3 c-207 -3 -251 -6 -285 -21 -53 -24 -93 -63 -116 -112 -18 -38 -19 -83
-19 -858 0 -894 -2 -857 58 -920 112 -119 314 -83 376 65 14 32 16 119 16 648
l0 610 45 0 45 0 0 -398 0 -398 -110 -949 c-60 -523 -110 -956 -110 -962 0
-10 29 -13 110 -13 l110 0 0 -402 c0 -256 4 -417 11 -442 13 -46 76 -118 125
-141 104 -49 246 3 295 110 17 37 19 72 19 458 l0 417 60 0 60 0 0 -414 0
-414 28 -53 c50 -95 151 -141 253 -115 64 17 109 53 144 117 l30 54 3 413 3
412 109 0 110 0 -5 28 c-3 15 -53 436 -110 937 l-105 910 0 422 0 423 40 0 39
0 3 -617 3 -618 28 -48 c90 -153 321 -147 398 10 24 47 24 54 27 383 l4 335
46 30 c34 21 55 46 75 84 l27 55 0 1083 0 1083 60 0 60 0 0 -1087 c0 -1031 1
-1090 19 -1128 20 -46 79 -102 116 -111 l25 -6 0 -317 c0 -360 5 -392 67 -456
47 -48 94 -68 164 -68 69 0 139 31 175 79 53 69 54 79 54 721 l0 593 40 0 40
0 2 -1772 3 -1773 30 -54 c35 -64 80 -100 144 -117 102 -26 203 20 253 115
l28 53 0 1084 0 1084 60 0 60 0 0 -1087 c0 -1038 1 -1090 19 -1128 49 -106
191 -159 296 -109 46 22 112 97 125 143 6 23 10 647 10 1799 l0 1762 45 0 45
0 0 -610 c0 -667 -1 -651 58 -713 112 -119 314 -83 376 65 13 31 16 92 16 372
l0 335 29 15 c44 23 98 92 110 141 8 31 11 365 11 1109 l0 1066 55 0 54 0 3
-1087 3 -1088 22 -40 c27 -51 68 -90 116 -110 l37 -15 0 -330 c0 -276 3 -337
16 -368 62 -148 264 -184 376 -65 59 62 58 46 58 713 l0 610 45 0 45 0 0 -380
0 -381 -95 -822 c-52 -453 -95 -830 -95 -840 0 -15 12 -17 95 -17 l95 0 0
-547 c0 -530 1 -550 21 -593 70 -155 260 -193 370 -73 67 71 64 41 67 655 l3
558 54 0 54 0 3 -563 3 -562 27 -46 c91 -155 314 -147 397 16 l26 49 3 553 3
553 124 0 125 0 -5 28 c-3 15 -32 263 -65 552 -33 289 -61 535 -64 548 -3 20
1 18 32 -14 46 -47 94 -67 164 -67 104 -1 196 70 218 169 5 22 10 387 10 820
0 870 2 848 -67 919 -64 65 -80 69 -349 73 l-240 4 -53 -32 c-92 -54 -194 -83
-308 -88 -131 -5 -222 14 -338 73 l-88 45 -193 0 -194 0 0 1285 0 1285 45 0
45 0 0 -612 c0 -686 -2 -659 73 -725 47 -42 96 -56 173 -51 82 5 136 41 176
117 l28 53 0 807 c0 492 -4 820 -10 841 -13 47 -63 106 -113 133 -40 21 -56
22 -285 25 l-243 3 -92 -45 c-201 -100 -400 -100 -604 0 l-92 45 -253 -3
c-237 -3 -256 -4 -293 -25 -51 -27 -79 -57 -104 -113 -20 -44 -21 -61 -21
-845 0 -494 4 -814 10 -835 13 -47 50 -97 97 -128 45 -31 139 -41 198 -22 51
17 104 66 129 120 20 44 21 61 24 653 l3 607 39 0 40 0 0 -1285 0 -1285 -169
0 -168 0 -88 -45 c-116 -59 -207 -78 -338 -73 -114 5 -215 34 -306 87 l-52 31
-194 0 -195 0 0 1285 0 1285 45 0 45 0 0 -602 c0 -390 4 -616 11 -641 43 -156
265 -203 381 -80 60 63 58 26 58 920 0 775 -1 820 -19 858 -23 49 -63 88 -116
112 -34 14 -78 18 -275 21 l-235 4 -88 -46 c-117 -60 -208 -79 -340 -74 -114
5 -220 35 -305 88 l-49 30 -229 -1 c-126 -1 -248 -5 -272 -10z m5298 -4216 c0
-262 -2 -474 -4 -472 -2 2 -14 97 -26 212 -17 154 -27 207 -37 207 -10 0 -13
51 -13 265 l0 265 40 0 40 0 0 -477z"/>
<path d="M2408 6031 c-295 -94 -422 -436 -263 -706 13 -23 45 -63 71 -89 212
-208 568 -173 730 72 213 320 -12 744 -395 741 -54 0 -107 -7 -143 -18z"/>
<path d="M4965 6035 c-129 -41 -244 -137 -297 -250 -128 -275 19 -595 309
-670 163 -42 336 4 456 122 93 91 138 199 139 333 0 138 -42 246 -131 337 -99
100 -204 144 -345 142 -50 -1 -109 -7 -131 -14z"/>
<path d="M7500 6031 c-203 -65 -331 -241 -331 -456 0 -363 374 -586 704 -419
69 36 163 134 198 208 89 190 54 403 -90 546 -99 99 -201 140 -343 139 -50 0
-105 -7 -138 -18z"/>
</g>
</svg>
