<?xml version="1.0" standalone="no"?>
<!DOCTYPE svg PUBLIC "-//W3C//DTD SVG 20010904//EN"
 "http://www.w3.org/TR/2001/REC-SVG-20010904/DTD/svg10.dtd">
<svg version="1.0" xmlns="http://www.w3.org/2000/svg"
 width="110592.000000pt" height="110592.000000pt" viewBox="0 0 110592.000000 110592.000000"
 preserveAspectRatio="xMidYMid meet">
<metadata>
Created by potrace 1.11, written by Peter Selinger 2001-2013
</metadata>
<g transform="translate(0.000000,110592.000000) scale(11.059200,-11.059200)"
fill="#000000" stroke="none">
<path d="M1940 9985 c-394 -55 -750 -203 -1075 -448 -103 -78 -324 -299 -402
-402 -200 -266 -348 -580 -413 -880 -52 -241 -50 -92 -50 -3255 0 -3163 -2
-3014 50 -3255 65 -300 213 -614 413 -880 78 -103 299 -324 402 -402 329 -248
684 -395 1085 -449 157 -21 5943 -21 6100 0 399 54 758 202 1085 449 103 78
324 299 402 402 200 266 348 580 413 880 52 241 50 92 50 3255 0 3163 2 3014
-50 3255 -65 300 -213 614 -413 880 -78 103 -299 324 -402 402 -266 200 -580
348 -880 413 -241 52 -90 50 -3265 49 -2387 -1 -2973 -4 -3050 -14z m6090
-537 c662 -122 1174 -574 1365 -1203 76 -250 70 11 70 -3245 0 -3256 6 -2995
-70 -3245 -195 -641 -736 -1108 -1400 -1207 -74 -11 -620 -13 -3000 -13 -3250
0 -2990 -6 -3240 70 -556 169 -981 594 -1150 1150 -76 250 -70 -11 -70 3245 0
3256 -6 2995 70 3245 124 410 385 747 753 974 217 134 505 226 767 244 28 2
1348 3 2935 2 2571 -1 2894 -3 2970 -17z"/>
<path d="M4599 9272 c-52 -27 -145 -75 -208 -107 -97 -50 -115 -63 -128 -92
-18 -44 -9 -87 24 -113 35 -27 83 -25 144 5 l50 26 38 -83 c22 -46 93 -195
160 -332 67 -137 121 -251 121 -252 0 -2 -66 -4 -146 -4 l-146 0 19 -24 c10
-13 42 -51 70 -85 l53 -62 -36 -72 -36 -72 39 -67 38 -67 80 -3 79 -3 31 -80
c17 -44 39 -111 49 -150 l17 -70 -53 -47 c-29 -26 -57 -48 -61 -48 -8 0 -1
-115 9 -151 2 -8 36 -31 75 -49 l71 -35 -7 -70 c-15 -172 -28 -244 -44 -249
-9 -3 -43 -12 -76 -22 -33 -9 -63 -22 -67 -28 -24 -36 -22 -36 550 -35 l557 0
45 70 c76 119 194 224 322 287 113 55 208 76 348 76 153 1 216 -14 360 -86 92
-46 117 -65 204 -151 54 -54 101 -95 105 -92 3 4 8 88 11 188 l5 182 39 3 c53
4 87 24 130 73 48 56 71 127 71 219 0 92 -23 163 -71 219 -43 49 -77 69 -130
73 l-39 3 -5 412 c-5 396 -6 413 -26 439 -11 15 -33 37 -48 48 -27 21 -35 21
-1064 24 -1149 3 -1097 6 -1144 -61 -20 -28 -24 -48 -28 -159 l-5 -127 -147
305 -146 305 56 28 c74 38 94 61 96 111 0 30 -5 46 -24 64 -46 45 -77 43 -181
-12z"/>
<path d="M3073 8443 c-28 -4 -34 -11 -56 -66 l-25 -62 -57 -14 -57 -14 -48 48
-49 48 -43 -12 c-24 -7 -85 -32 -136 -56 l-92 -44 6 -69 7 -68 -51 -37 -50
-37 -65 24 -66 25 -79 -83 c-121 -126 -119 -122 -82 -195 l30 -61 -31 -55 -31
-55 -67 0 -68 0 -26 -67 c-14 -38 -35 -100 -46 -140 l-19 -72 54 -42 c56 -43
58 -47 48 -121 -6 -44 -9 -47 -65 -74 l-59 -28 1 -75 c0 -42 6 -107 12 -145
13 -76 9 -71 104 -96 39 -10 42 -14 61 -68 l19 -58 -29 -34 c-67 -78 -67 -69
-4 -179 84 -149 79 -145 156 -133 65 10 65 10 98 -21 52 -49 54 -59 35 -128
l-17 -62 44 -39 c50 -44 175 -128 190 -128 6 0 34 16 63 35 l53 36 56 -26 c54
-25 56 -27 63 -73 13 -92 9 -88 101 -111 47 -12 111 -24 142 -27 l58 -6 34 56
34 56 62 0 61 0 37 -56 38 -56 61 6 c34 4 99 17 143 28 l81 21 9 66 9 66 57
28 56 29 54 -36 c29 -20 58 -36 64 -36 12 0 143 90 197 135 l36 30 -19 66 -18
65 42 48 41 47 54 -11 c29 -5 61 -10 70 -10 16 0 88 110 132 202 l22 47 -35
43 c-51 63 -51 63 -32 123 17 52 20 56 58 66 92 23 90 22 102 80 6 30 14 95
17 144 l6 91 -63 31 -63 32 -6 58 c-4 56 -3 59 26 83 18 14 42 34 54 45 l23
20 -19 70 c-10 39 -30 99 -43 135 l-25 65 -69 5 -69 5 -32 54 -32 53 31 63 31
63 -60 73 c-34 41 -77 89 -96 107 l-34 33 -64 -26 -63 -25 -53 36 -52 36 6 68
6 68 -71 36 c-80 40 -170 76 -192 76 -8 0 -35 -20 -60 -45 l-46 -45 -57 11
-56 12 -24 61 c-19 52 -27 62 -52 67 -33 7 -181 8 -232 2z m280 -599 c95 -21
237 -90 313 -153 111 -92 202 -229 246 -371 33 -109 33 -312 0 -420 -82 -262
-275 -448 -537 -521 -107 -30 -267 -30 -376 -1 -270 72 -473 279 -551 562 -6
25 -12 101 -12 170 -1 145 18 221 87 355 60 117 200 255 317 313 47 23 119 51
160 62 95 24 254 26 353 4z"/>
<path d="M3069 7475 c-74 -27 -118 -56 -167 -109 -69 -76 -95 -146 -95 -256 0
-137 46 -231 153 -311 67 -50 135 -72 229 -71 324 2 495 365 296 626 -34 45
-121 103 -182 121 -59 18 -186 18 -234 0z"/>
<path d="M6494 7001 c-119 -19 -210 -66 -299 -156 -111 -110 -158 -224 -159
-380 0 -173 66 -314 201 -425 162 -135 406 -158 597 -57 78 41 182 145 223
223 90 169 81 396 -21 549 -120 181 -335 278 -542 246z m178 -281 c150 -56
222 -237 152 -378 -108 -216 -419 -199 -505 28 -82 216 136 431 353 350z"/>
<path d="M6540 4315 l0 -1095 -480 0 -480 0 0 -545 0 -545 -180 0 -180 0 0
1160 0 1160 -215 0 -215 0 0 -1160 0 -1160 -155 0 -155 0 0 -570 0 -570 2100
0 2100 0 0 1115 0 1115 -535 0 -535 0 0 695 0 695 -215 0 -215 0 0 -695 0
-695 -110 0 -110 0 0 1095 0 1095 -210 0 -210 0 0 -1095z m1610 -1925 l0 -270
-970 0 -970 0 0 270 0 270 970 0 970 0 0 -270z"/>
<path d="M1710 4852 l-825 -527 -3 -222 -2 -223 90 0 90 0 0 -770 0 -770 1476
0 1476 0 -7 770 -8 770 102 0 101 0 0 223 -1 222 -825 525 c-454 289 -829 526
-832 527 -4 1 -378 -236 -832 -525z m830 -1482 l0 -760 -355 0 -355 0 0 760 0
760 355 0 355 0 0 -760z m1060 350 l0 -410 -335 0 -335 0 0 410 0 410 335 0
335 0 0 -410z"/>
</g>
</svg>
