<?xml version="1.0" standalone="no"?>
<!DOCTYPE svg PUBLIC "-//W3C//DTD SVG 20010904//EN"
 "http://www.w3.org/TR/2001/REC-SVG-20010904/DTD/svg10.dtd">
<svg version="1.0" xmlns="http://www.w3.org/2000/svg"
 width="110592.000000pt" height="110592.000000pt" viewBox="0 0 110592.000000 110592.000000"
 preserveAspectRatio="xMidYMid meet">
<metadata>
Created by potrace 1.11, written by Peter Selinger 2001-2013
</metadata>
<g transform="translate(0.000000,110592.000000) scale(11.059200,-11.059200)"
fill="#000000" stroke="none">
<path d="M1940 9985 c-401 -57 -747 -201 -1075 -448 -103 -78 -324 -299 -402
-402 -232 -308 -372 -631 -440 -1015 -17 -100 -18 -235 -18 -3120 0 -2885 1
-3020 18 -3120 68 -384 208 -707 440 -1015 78 -103 299 -324 402 -402 340
-256 712 -407 1120 -453 73 -8 917 -10 3080 -7 2771 3 2986 4 3065 20 408 83
701 211 1005 440 103 78 324 299 402 402 232 308 372 631 440 1015 17 100 18
235 18 3120 0 2885 -1 3020 -18 3120 -68 384 -208 707 -440 1015 -78 103 -299
324 -402 402 -304 229 -597 357 -1005 440 -79 16 -292 17 -3090 19 -2460 2
-3022 0 -3100 -11z m6090 -537 c231 -44 435 -121 612 -229 364 -223 629 -566
752 -972 75 -247 70 -85 73 -2205 l4 -1903 -88 76 c-393 339 -1042 632 -1822
825 -442 108 -941 192 -1441 240 -260 26 -650 50 -802 50 -64 0 -123 3 -132 6
-14 5 -16 45 -16 343 l0 336 292 173 293 173 90 -46 c129 -65 223 -87 370 -87
189 0 342 43 529 149 412 232 819 716 989 1173 58 157 62 140 -40 187 -222
103 -369 136 -598 136 -231 0 -372 -33 -591 -137 -263 -126 -508 -342 -669
-589 -122 -189 -172 -329 -178 -506 l-2 -44 -245 -143 -245 -143 -6 42 c-4 23
-7 141 -8 262 l-1 220 80 54 c464 310 626 860 440 1491 -113 383 -350 750
-582 901 -96 62 -100 61 -185 -23 -256 -253 -499 -708 -574 -1072 -28 -140
-35 -343 -16 -471 50 -326 223 -602 515 -823 l72 -55 -5 -101 c-3 -55 -8 -167
-11 -248 -3 -82 -8 -148 -10 -148 -6 0 -488 312 -502 325 -7 6 -24 55 -37 107
-53 210 -147 429 -251 585 -198 297 -514 495 -867 542 -255 35 -555 -10 -791
-117 l-79 -36 7 -67 c8 -93 41 -247 77 -362 157 -511 491 -833 969 -936 217
-46 526 -49 771 -6 l86 15 244 -141 c134 -78 272 -157 307 -176 l62 -35 0
-348 0 -348 -147 -6 c-778 -30 -1175 -69 -1731 -166 -1049 -185 -1887 -518
-2377 -946 l-86 -75 4 1898 c3 2115 -2 1953 73 2200 123 408 384 745 752 972
217 134 505 226 767 244 28 2 1348 3 2935 2 2620 -1 2893 -2 2970 -17z m-3160
-4451 c0 -24 -49 -183 -75 -242 -92 -209 -272 -390 -503 -505 -124 -62 -105
-65 -323 55 -212 118 -242 126 -286 82 -17 -16 -27 -40 -30 -69 -8 -70 13 -99
113 -155 l87 -48 -79 -13 c-44 -7 -141 -23 -217 -36 l-137 -24 -182 114 c-207
130 -236 139 -282 83 -20 -23 -26 -41 -26 -78 0 -63 17 -84 124 -150 47 -30
86 -57 85 -60 0 -3 -32 -26 -71 -51 -116 -74 -201 -175 -285 -342 -39 -76 -48
-102 -48 -146 0 -48 4 -57 33 -83 66 -59 107 -36 177 100 90 175 183 271 323
328 l52 22 0 -135 c0 -177 18 -214 103 -214 27 0 41 7 61 31 26 30 26 32 26
199 0 166 0 168 23 173 12 3 117 20 233 37 116 17 226 35 245 40 19 6 35 10
36 10 2 0 3 -46 3 -103 0 -115 10 -160 42 -194 47 -50 137 -16 152 58 3 17 3
90 0 162 l-7 132 125 62 c173 86 309 190 426 327 23 27 42 47 42 44 0 -12 -61
-191 -89 -261 -110 -276 -285 -501 -485 -626 -47 -29 -155 -82 -239 -117 -155
-65 -255 -125 -316 -188 l-34 -35 -127 64 c-70 36 -139 65 -152 65 -64 0 -109
-83 -86 -156 12 -35 23 -45 108 -91 52 -29 99 -54 105 -56 5 -2 -16 -46 -47
-98 -78 -131 -78 -132 -78 -184 0 -38 5 -52 29 -76 31 -30 75 -38 110 -19 10
5 44 53 76 107 90 152 134 210 235 311 l55 55 5 -161 c5 -153 6 -162 29 -186
26 -28 76 -35 111 -16 39 21 45 49 50 253 l5 198 89 39 c129 58 279 160 371
254 81 81 178 205 210 265 30 59 26 25 -8 -70 -133 -365 -345 -715 -631 -1037
-50 -57 -99 -117 -109 -135 -39 -70 9 -167 84 -167 33 0 45 8 117 85 84 88
215 248 285 347 22 32 42 56 44 54 2 -1 23 -72 47 -157 63 -219 133 -410 160
-437 26 -27 86 -33 112 -11 22 18 44 64 44 93 0 13 -24 97 -54 185 -69 204
-112 354 -136 481 l-20 100 65 122 c86 166 148 312 210 501 l52 159 18 -69
c36 -135 118 -342 212 -531 l96 -194 -17 -86 c-23 -120 -85 -339 -145 -512
-44 -127 -49 -150 -41 -181 28 -101 139 -111 179 -16 33 77 110 311 144 435
l33 124 68 -91 c81 -109 201 -252 284 -338 52 -55 65 -63 97 -63 57 0 95 43
95 108 0 56 -4 63 -125 197 -237 264 -443 580 -572 880 -33 76 -113 290 -113
302 0 3 24 -32 53 -79 74 -118 116 -171 205 -261 92 -94 241 -196 375 -257
l97 -45 0 -197 0 -196 26 -31 c20 -24 34 -31 60 -31 38 0 78 21 90 48 4 9 10
85 14 167 l5 150 79 -80 c80 -82 140 -163 215 -292 23 -40 51 -79 63 -88 26
-18 71 -20 100 -4 23 12 48 66 48 103 0 27 -62 152 -111 223 -17 24 -29 46
-27 48 1 1 44 23 94 48 106 53 134 82 134 139 0 67 -40 117 -93 118 -15 0 -81
-27 -147 -60 -66 -33 -123 -60 -128 -60 -4 0 -29 19 -56 43 -66 58 -155 111
-250 149 -133 54 -287 134 -357 187 -191 145 -352 387 -452 676 -57 167 -59
166 60 47 123 -122 223 -193 373 -265 l105 -50 -4 -156 -3 -157 30 -32 c22
-24 39 -32 64 -32 74 0 94 39 104 211 l6 106 61 -13 c34 -7 127 -22 207 -33
80 -11 169 -25 199 -31 29 -5 55 -10 57 -10 2 0 4 -65 4 -144 0 -79 3 -157 6
-175 15 -74 105 -108 152 -58 33 35 42 79 42 204 0 75 4 113 11 113 6 0 46
-18 90 -41 111 -58 189 -143 263 -287 31 -61 66 -118 78 -127 35 -24 76 -19
109 14 48 48 44 103 -16 222 -85 173 -186 292 -304 359 -33 19 -61 37 -61 40
0 3 33 25 73 49 94 57 135 97 143 137 8 42 -11 100 -39 119 -47 33 -80 21
-272 -100 l-183 -115 -73 15 c-70 15 -327 55 -352 55 -7 0 26 21 72 48 100 56
126 87 125 146 -2 80 -62 128 -129 101 -16 -7 -108 -55 -204 -109 -96 -53
-181 -96 -190 -96 -29 0 -225 105 -302 162 -132 98 -252 244 -314 384 -24 53
-61 165 -79 237 l-6 27 92 0 c119 0 524 -25 743 -45 890 -81 1753 -278 2350
-535 531 -228 892 -507 1072 -827 l34 -63 -4 -742 c-4 -823 -4 -818 -73 -1045
-193 -637 -728 -1099 -1394 -1205 -70 -11 -610 -13 -3000 -13 -3256 0 -2995
-6 -3245 70 -555 169 -981 594 -1149 1148 -69 227 -69 222 -73 1039 l-4 738
31 62 c118 231 359 464 671 649 610 361 1558 618 2669 724 422 41 970 59 970
32z"/>
<path d="M3692 2133 c-27 -5 -32 32 51 -348 l62 -280 35 -3 c19 -1 61 -7 93
-13 32 -7 60 -10 62 -7 3 2 16 128 30 279 13 151 27 293 30 315 l6 41 -89 12
c-85 11 -233 13 -280 4z"/>
<path d="M3445 2079 c-166 -56 -374 -179 -526 -312 -213 -187 -249 -241 -249
-381 0 -61 5 -83 30 -134 65 -128 199 -196 340 -170 77 14 118 38 207 120 141
132 250 209 358 254 36 15 50 26 49 40 -2 50 -129 604 -138 604 -6 -1 -38 -10
-71 -21z m-327 -374 c74 -31 114 -90 114 -165 0 -68 -34 -125 -96 -157 -38
-20 -114 -20 -153 0 -39 21 -81 71 -89 105 -3 15 -8 33 -10 41 -7 24 16 89 43
122 29 34 94 68 131 69 12 0 39 -7 60 -15z"/>
<path d="M4200 2063 c0 -5 -14 -150 -30 -323 -16 -173 -30 -318 -30 -322 0 -3
26 -21 58 -39 31 -18 90 -55 131 -82 40 -27 76 -45 80 -40 9 9 221 588 221
601 0 14 -209 129 -312 172 -97 40 -118 46 -118 33z"/>
<path d="M6962 2000 c-48 -10 -127 -47 -144 -68 -9 -11 34 -59 214 -239 l226
-226 30 47 c80 126 64 294 -38 396 -74 74 -189 110 -288 90z"/>
<path d="M6625 1780 c-33 -28 -61 -54 -63 -59 -3 -8 40 -100 192 -415 79 -163
88 -177 104 -165 15 13 253 211 277 231 6 5 -80 98 -215 233 -124 124 -227
225 -230 225 -3 0 -33 -23 -65 -50z"/>
<path d="M4645 1469 c-60 -165 -111 -303 -112 -307 -4 -11 320 -222 341 -222
6 0 319 551 314 554 -1 2 -29 17 -60 35 -31 17 -124 79 -207 136 -84 58 -155
105 -159 105 -4 0 -56 -135 -117 -301z"/>
<path d="M6341 1550 c-51 -38 -128 -86 -170 -106 -42 -21 -78 -38 -79 -40 -5
-4 227 -567 238 -578 12 -12 198 79 307 149 71 46 83 59 78 76 -9 26 -273 569
-277 568 -2 0 -45 -32 -97 -69z"/>
<path d="M5291 1372 c-130 -225 -271 -477 -271 -488 0 -19 423 -148 434 -132
1 1 15 127 30 278 15 151 30 293 33 316 l5 40 -48 12 c-27 6 -70 18 -96 26
l-48 15 -39 -67z"/>
<path d="M5665 1345 c-2 -5 -15 -127 -30 -270 -14 -143 -28 -281 -32 -306 l-5
-46 98 -7 c111 -7 291 6 410 30 43 9 81 18 82 19 2 2 -49 131 -113 287 -65
156 -119 288 -122 294 -6 15 -284 14 -288 -1z"/>
</g>
</svg>
