<?xml version="1.0" standalone="no"?>
<!DOCTYPE svg PUBLIC "-//W3C//DTD SVG 20010904//EN"
 "http://www.w3.org/TR/2001/REC-SVG-20010904/DTD/svg10.dtd">
<svg version="1.0" xmlns="http://www.w3.org/2000/svg"
 width="110592.000000pt" height="110592.000000pt" viewBox="0 0 110592.000000 110592.000000"
 preserveAspectRatio="xMidYMid meet">
<metadata>
Created by potrace 1.11, written by Peter Selinger 2001-2013
</metadata>
<g transform="translate(0.000000,110592.000000) scale(11.059200,-11.059200)"
fill="#000000" stroke="none">
<path d="M1940 9985 c-394 -55 -750 -203 -1075 -448 -103 -78 -324 -299 -402
-402 -200 -266 -348 -580 -413 -880 -52 -241 -50 -92 -50 -3255 0 -3163 -2
-3014 50 -3255 65 -300 213 -614 413 -880 78 -103 299 -324 402 -402 329 -248
684 -395 1085 -449 157 -21 5943 -21 6100 0 399 54 758 202 1085 449 103 78
324 299 402 402 200 266 348 580 413 880 52 241 50 92 50 3255 0 3163 2 3014
-50 3255 -65 300 -213 614 -413 880 -78 103 -299 324 -402 402 -266 200 -580
348 -880 413 -241 52 -90 50 -3265 49 -2387 -1 -2973 -4 -3050 -14z m6090
-537 c367 -68 682 -231 935 -483 213 -213 357 -461 441 -757 61 -215 57 -69
61 -2366 l4 -2104 -68 7 c-1025 102 -1969 520 -2604 1154 -221 221 -368 418
-482 646 -159 320 -207 609 -161 959 89 682 482 1124 1105 1243 135 26 508 25
667 -1 62 -10 115 -16 119 -13 8 8 -314 219 -477 313 -570 327 -1130 477
-1659 443 -785 -49 -1447 -452 -2176 -1324 -204 -244 -345 -430 -655 -866
-150 -211 -330 -463 -398 -559 -429 -601 -660 -890 -954 -1195 -354 -367 -717
-624 -1085 -769 -51 -20 -98 -36 -103 -36 -7 0 -9 657 -7 2103 4 2295 0 2150
61 2365 200 705 809 1205 1531 1255 28 2 1348 3 2935 2 2571 -1 2894 -3 2970
-17z"/>
</g>
</svg>
