<?xml version="1.0" standalone="no"?>
<!DOCTYPE svg PUBLIC "-//W3C//DTD SVG 20010904//EN"
 "http://www.w3.org/TR/2001/REC-SVG-20010904/DTD/svg10.dtd">
<svg version="1.0" xmlns="http://www.w3.org/2000/svg"
 width="110592.000000pt" height="110592.000000pt" viewBox="0 0 110592.000000 110592.000000"
 preserveAspectRatio="xMidYMid meet">
<metadata>
Created by potrace 1.11, written by Peter Selinger 2001-2013
</metadata>
<g transform="translate(0.000000,110592.000000) scale(11.059200,-11.059200)"
fill="#000000" stroke="none">
<path d="M1940 9985 c-394 -55 -750 -203 -1075 -448 -103 -78 -324 -299 -402
-402 -200 -266 -348 -580 -413 -880 -52 -241 -50 -92 -50 -3255 0 -3163 -2
-3014 50 -3255 65 -300 213 -614 413 -880 78 -103 299 -324 402 -402 329 -248
684 -395 1085 -449 157 -21 5943 -21 6100 0 399 54 758 202 1085 449 103 78
324 299 402 402 200 266 348 580 413 880 52 241 50 92 50 3255 0 3163 2 3014
-50 3255 -65 300 -213 614 -413 880 -78 103 -299 324 -402 402 -266 200 -580
348 -880 413 -241 52 -90 50 -3265 49 -2387 -1 -2973 -4 -3050 -14z m2245
-541 c-799 -146 -1548 -508 -2155 -1041 -489 -429 -883 -963 -1144 -1547 -164
-366 -296 -822 -349 -1211 -3 -16 -4 492 -3 1130 2 1290 0 1235 71 1470 124
410 385 747 753 974 217 134 507 226 767 244 28 2 532 4 1120 4 l1070 1 -130
-24z m3845 3 c658 -118 1174 -573 1365 -1202 71 -236 69 -174 71 -1530 2
-1218 2 -1220 -16 -1090 -85 606 -278 1161 -580 1675 -451 766 -1125 1386
-1925 1771 -360 174 -713 289 -1125 370 l-145 28 1135 -3 c967 -3 1148 -6
1220 -19z m-2524 -236 c684 -89 1296 -320 1854 -699 1393 -946 2090 -2613
1784 -4269 -100 -543 -318 -1082 -627 -1548 -527 -795 -1300 -1388 -2197
-1685 -669 -222 -1380 -273 -2070 -150 -1092 195 -2069 820 -2717 1740 -401
568 -650 1226 -740 1950 -28 224 -25 746 5 972 42 315 93 540 187 823 149 449
345 822 635 1210 690 922 1760 1535 2895 1659 216 24 212 24 530 21 234 -2
335 -7 461 -24z m3961 -6026 c-4 -1244 -1 -1196 -72 -1430 -191 -629 -706
-1083 -1365 -1202 -73 -14 -264 -16 -1380 -18 -712 -1 -1279 -1 -1260 2 385
41 684 102 995 203 957 311 1792 944 2352 1785 375 563 624 1218 710 1874 l18
136 3 -115 c2 -63 1 -619 -1 -1235z m-8887 955 c172 -874 599 -1670 1235
-2305 267 -267 540 -480 872 -681 151 -92 520 -271 693 -337 379 -145 806
-243 1215 -280 22 -2 -538 -3 -1245 -2 -1429 1 -1357 -2 -1595 70 -556 169
-981 594 -1150 1150 -71 236 -68 178 -71 1490 -2 1048 -1 1170 12 1090 7 -49
23 -137 34 -195z"/>
<path d="M4726 8879 c-716 -51 -1369 -280 -1920 -674 -208 -148 -568 -477
-535 -490 8 -3 136 -4 284 -3 l270 3 2 245 2 245 63 43 63 42 3 -290 2 -290
415 0 415 0 40 40 40 40 0 458 0 458 64 17 c35 9 67 17 70 17 4 0 5 -211 4
-469 l-3 -469 150 -7 c201 -9 204 -8 253 111 36 89 75 139 131 166 36 17 71
22 205 29 88 4 162 8 164 8 1 1 2 172 2 381 l0 380 75 0 75 0 0 -323 0 -324
29 5 c62 9 121 -112 121 -247 0 -92 -20 -140 -84 -209 -25 -27 -46 -52 -46
-56 0 -3 200 -6 445 -6 l445 0 2 515 3 516 -66 19 c-350 105 -782 148 -1183
119z"/>
<path d="M6104 8687 c-2 -7 -3 -228 -2 -492 l3 -480 453 -3 452 -2 0 285 0
284 -77 46 c-122 72 -466 239 -598 291 -191 74 -225 85 -231 71z"/>
<path d="M7150 7945 l0 -235 295 0 c165 0 295 4 295 9 0 36 -537 461 -582 461
-5 0 -8 -106 -8 -235z"/>
<path d="M3328 7583 l-367 -3 -3 -256 c-3 -232 -1 -260 16 -297 22 -49 23
-102 2 -126 -13 -14 -16 -42 -16 -144 l0 -127 101 0 c100 0 102 1 148 34 64
47 149 139 156 169 5 16 -5 53 -30 113 -50 119 -56 140 -56 201 -1 90 38 136
251 298 74 57 144 112 154 124 11 12 17 20 15 19 -2 -2 -169 -4 -371 -5z"/>
<path d="M6100 7108 l0 -478 455 0 455 0 2 478 3 477 -457 0 -458 0 0 -477z"/>
<path d="M7150 7108 l0 -478 455 0 455 0 0 349 0 348 -96 129 -96 129 -359 0
-359 0 0 -477z"/>
<path d="M2075 7503 c-33 -43 -84 -111 -112 -153 l-53 -75 0 -322 0 -323 156
0 156 0 -6 83 c-14 169 -10 256 11 285 39 54 423 272 478 272 11 0 42 -13 68
-30 26 -16 50 -30 52 -30 3 0 5 83 5 185 l0 185 -348 0 -348 0 -59 -77z"/>
<path d="M5060 7326 l0 -254 73 -28 c53 -20 92 -28 149 -29 43 -1 84 -7 92
-14 7 -6 24 -35 37 -64 30 -67 34 -222 7 -274 l-16 -33 284 0 284 0 0 475 0
475 -455 0 -455 0 0 -254z"/>
<path d="M4861 7524 c-96 -103 -94 -184 5 -292 l43 -47 1 193 c0 105 -2 192
-4 192 -2 0 -22 -21 -45 -46z"/>
<path d="M8200 6867 l0 -237 135 0 135 0 -29 58 c-33 66 -202 361 -225 394
-15 21 -16 3 -16 -215z"/>
<path d="M1713 6923 c-89 -186 -94 -202 -87 -250 l6 -43 69 0 69 0 0 200 c0
110 -1 200 -3 200 -2 0 -26 -48 -54 -107z"/>
<path d="M5172 6486 c-9 -5 -32 -22 -49 -39 -63 -59 -34 -147 64 -200 99 -53
189 -70 378 -71 l170 -1 105 48 c58 27 111 54 118 59 8 7 12 42 12 109 l0 99
-391 2 c-215 2 -398 -1 -407 -6z"/>
<path d="M7608 6493 l-458 -3 0 -475 0 -475 455 0 455 0 2 480 c2 264 3 479 3
478 0 -2 -206 -4 -457 -5z"/>
<path d="M8368 6493 l-168 -3 0 -178 c0 -169 1 -176 17 -144 23 48 78 92 114
92 66 0 139 -68 203 -190 52 -98 75 -170 86 -269 8 -74 13 -89 36 -109 28 -24
63 -24 92 1 50 41 60 156 24 270 -32 102 -225 542 -234 535 -2 -1 -78 -4 -170
-5z"/>
<path d="M1620 6481 c0 -4 -12 -25 -26 -46 -31 -46 -28 -78 13 -132 27 -36
137 -123 154 -123 5 0 9 70 9 155 l0 155 -75 0 c-41 0 -75 -4 -75 -9z"/>
<path d="M1910 6335 c0 -85 2 -155 4 -155 15 0 177 55 206 70 44 23 95 76 109
113 6 16 11 51 11 78 l0 49 -165 0 -165 0 0 -155z"/>
<path d="M6100 6420 c0 -47 4 -70 12 -70 6 0 65 27 131 61 132 67 145 68 199
20 66 -58 148 -253 148 -353 0 -78 -75 -192 -252 -381 -56 -61 -111 -121 -121
-134 l-18 -23 405 0 406 0 0 475 0 475 -455 0 -455 0 0 -70z"/>
<path d="M3369 6365 c-175 -21 -300 -60 -381 -117 l-28 -19 0 -345 0 -344 455
0 456 0 -3 152 -3 151 -67 23 c-141 47 -243 120 -236 168 4 30 54 59 175 101
59 20 114 39 121 41 8 2 12 32 12 104 l0 100 -197 -1 c-109 -1 -246 -7 -304
-14z"/>
<path d="M4006 6363 c-3 -4 -6 -35 -6 -70 0 -50 3 -63 15 -63 22 0 132 38 179
62 36 18 38 22 22 33 -15 11 -66 23 -177 40 -15 2 -29 1 -33 -2z"/>
<path d="M2755 6008 c-178 -217 -256 -288 -317 -288 -15 0 -125 24 -245 54
-120 30 -233 58 -250 61 l-33 7 0 -151 0 -151 455 0 455 0 0 270 c0 149 -1
270 -3 270 -2 0 -30 -33 -62 -72z"/>
<path d="M1535 5853 c-144 -19 -260 -106 -308 -231 -35 -88 -54 -82 263 -82
l280 0 0 160 0 160 -102 -1 c-57 -1 -116 -4 -133 -6z"/>
<path d="M4006 5802 c-3 -3 -6 -63 -6 -134 l0 -128 460 0 c363 0 458 3 454 13
-2 6 -192 63 -422 126 -498 135 -479 130 -486 123z"/>
<path d="M1193 5394 c-16 -43 9 -762 33 -911 l5 -33 269 0 270 0 0 480 0 480
-285 0 c-250 0 -286 -2 -292 -16z"/>
<path d="M1910 4930 l0 -480 455 0 455 0 0 480 0 480 -455 0 -455 0 0 -480z"/>
<path d="M2960 4930 l0 -480 455 0 455 0 0 480 0 480 -455 0 -455 0 0 -480z"/>
<path d="M4005 5398 c-3 -7 -4 -222 -3 -478 l3 -465 455 0 455 0 0 475 0 475
-453 3 c-357 2 -454 0 -457 -10z"/>
<path d="M5060 4931 c0 -407 2 -481 14 -481 22 0 31 140 29 460 -2 330 -12
491 -30 498 -10 3 -13 -97 -13 -477z"/>
<path d="M6100 5003 c0 -219 4 -403 8 -410 10 -16 85 -47 147 -62 28 -6 118
-18 201 -26 90 -8 175 -22 212 -34 50 -17 86 -21 202 -21 l140 0 0 475 0 475
-455 0 -455 0 0 -397z"/>
<path d="M7150 4925 l0 -475 455 0 455 0 0 475 0 475 -455 0 -455 0 0 -475z"/>
<path d="M8200 4925 l0 -475 74 0 75 0 22 58 c19 48 22 74 20 165 -2 126 -38
391 -76 561 -37 165 -37 166 -80 166 l-35 0 0 -475z"/>
<path d="M5942 5243 c-13 -18 -40 -68 -60 -110 -34 -73 -36 -84 -37 -178 0
-95 2 -103 33 -162 33 -60 77 -111 87 -101 3 3 4 135 3 294 l-3 289 -23 -32z"/>
<path d="M1250 4298 c0 -6 14 -78 30 -160 57 -278 158 -539 265 -687 l38 -53
49 4 c33 4 63 15 91 35 l42 29 3 422 2 422 -260 0 c-193 0 -260 -3 -260 -12z"/>
<path d="M1910 3968 l0 -343 22 33 c11 19 33 89 49 157 46 207 101 320 198
407 29 26 75 56 104 67 l52 20 -212 0 -213 1 0 -342z"/>
<path d="M2705 4286 c39 -12 80 -28 93 -35 21 -11 22 -10 22 24 l0 35 -92 0
-93 -1 70 -23z"/>
<path d="M2960 4228 l0 -83 46 -45 c123 -121 202 -300 225 -510 10 -92 9 -97
-15 -153 -14 -32 -26 -60 -26 -62 0 -3 153 -5 340 -5 l340 0 0 470 0 470 -455
0 -455 0 0 -82z"/>
<path d="M4000 3840 l0 -470 460 0 460 0 0 470 0 470 -460 0 -460 0 0 -470z"/>
<path d="M5060 3840 l0 -470 118 0 c228 1 747 18 765 25 15 6 17 24 17 156 0
82 -3 149 -7 149 -3 0 -35 -16 -70 -35 -35 -19 -76 -35 -92 -35 -16 0 -82 -11
-147 -24 -160 -32 -306 -49 -363 -41 -55 7 -117 40 -143 75 -46 63 -73 270
-65 508 3 93 1 162 -4 162 -5 0 -9 -199 -9 -470z"/>
<path d="M6857 4263 c10 -34 17 -131 24 -333 9 -302 19 -398 50 -487 22 -66
35 -83 60 -83 18 0 19 17 19 475 l0 475 -84 0 -84 0 15 -47z"/>
<path d="M7152 3838 l3 -473 227 -3 226 -2 48 62 c51 68 112 191 194 391 56
136 76 164 165 227 27 19 48 38 47 43 -1 4 -2 57 -2 117 l0 110 -455 0 -455 0
2 -472z"/>
<path d="M6110 3575 c0 -76 4 -125 10 -125 5 0 23 19 40 42 24 33 30 51 30 94
0 45 -4 57 -31 83 -17 17 -35 31 -40 31 -5 0 -9 -55 -9 -125z"/>
<path d="M3067 3123 c-25 -54 -59 -133 -76 -176 l-31 -78 0 -294 0 -295 455 0
455 0 0 470 0 470 -378 0 -379 0 -46 -97z"/>
<path d="M4000 2750 l0 -470 460 0 460 0 0 470 0 470 -460 0 -460 0 0 -470z"/>
<path d="M5060 2750 l0 -470 75 0 75 0 -55 109 c-66 132 -80 205 -72 366 7
127 38 259 90 383 l35 82 -74 0 -74 0 0 -470z"/>
<path d="M3021 2099 c63 -125 365 -385 727 -628 l122 -81 0 370 0 370 -434 2
-434 3 19 -36z"/>
<path d="M4000 1728 c0 -222 4 -408 8 -414 4 -6 34 -25 67 -41 169 -84 974
-150 1380 -113 143 13 304 44 402 76 43 15 80 28 81 29 2 2 -35 48 -83 102
-118 133 -297 372 -440 586 l-118 177 -118 0 -119 0 0 -485 0 -485 -70 0 -70
0 0 485 0 485 -460 0 -460 0 0 -402z"/>
</g>
</svg>
