<?xml version="1.0" standalone="no"?>
<!DOCTYPE svg PUBLIC "-//W3C//DTD SVG 20010904//EN"
 "http://www.w3.org/TR/2001/REC-SVG-20010904/DTD/svg10.dtd">
<svg version="1.0" xmlns="http://www.w3.org/2000/svg"
 width="110592.000000pt" height="110592.000000pt" viewBox="0 0 110592.000000 110592.000000"
 preserveAspectRatio="xMidYMid meet">
<metadata>
Created by potrace 1.11, written by Peter Selinger 2001-2013
</metadata>
<g transform="translate(0.000000,110592.000000) scale(11.059200,-11.059200)"
fill="#000000" stroke="none">
<path d="M1940 9985 c-394 -55 -750 -203 -1075 -448 -103 -78 -324 -299 -402
-402 -200 -266 -348 -580 -413 -880 -52 -241 -50 -92 -50 -3255 0 -3163 -2
-3014 50 -3255 65 -300 213 -614 413 -880 78 -103 299 -324 402 -402 329 -248
684 -395 1085 -449 157 -21 5943 -21 6100 0 399 54 758 202 1085 449 103 78
324 299 402 402 200 266 348 580 413 880 52 241 50 92 50 3255 0 3163 2 3014
-50 3255 -65 300 -213 614 -413 880 -78 103 -299 324 -402 402 -266 200 -580
348 -880 413 -241 52 -90 50 -3265 49 -2387 -1 -2973 -4 -3050 -14z m6090
-537 c578 -107 1047 -467 1282 -983 41 -89 98 -250 98 -276 0 -5 -1454 -9
-3915 -9 l-3915 0 0 -3755 c0 -2065 -2 -3755 -4 -3755 -13 0 -154 71 -218 111
-367 226 -629 564 -753 974 -76 250 -70 -11 -70 3245 0 3256 -6 2995 70 3245
124 410 385 747 753 974 217 134 505 226 767 244 28 2 1348 3 2935 2 2571 -1
2894 -3 2970 -17z m-4320 -2533 l0 -945 -905 0 -905 0 0 945 0 945 905 0 905
0 0 -945z m2120 0 l0 -945 -905 0 -905 0 0 945 0 945 905 0 905 0 0 -945z
m2120 0 l0 -945 -509 0 -509 0 -97 81 c-89 73 -98 78 -109 62 -7 -10 -29 -46
-50 -80 l-37 -63 -250 0 -249 0 0 945 0 945 905 0 905 0 0 -945z m1514 923 c3
-13 6 -188 6 -390 l0 -368 -316 -555 -316 -555 -284 0 -284 0 0 945 0 945 594
0 594 0 6 -22z m-5754 -3040 l-1 -863 -72 -87 -72 -88 -832 0 -833 0 0 950 0
950 905 0 905 0 0 -862z m2120 340 l0 -522 -256 -428 -257 -428 -396 0 -396 0
-253 227 -252 227 0 723 0 723 905 0 905 0 0 -522z m594 475 c-15 -27 -85
-145 -156 -263 l-128 -215 0 263 0 262 156 0 156 0 -28 -47z m1526 -218 l0
-265 -317 262 c-175 143 -320 263 -322 265 -2 1 140 3 317 3 l322 0 0 -265z
m685 221 c-14 -25 -102 -179 -195 -343 l-170 -298 0 343 0 342 195 0 196 0
-26 -44z m835 -931 l0 -925 -600 0 -600 0 0 82 c0 76 1 80 18 66 104 -88 133
-110 136 -107 4 5 864 1497 972 1686 38 68 70 123 72 123 1 0 2 -416 2 -925z
m-1522 -708 l2 -217 -896 0 -896 0 34 59 c18 32 191 321 383 643 l350 584 510
-426 510 -426 3 -217z m-4665 -549 c-11 -13 -316 -376 -678 -808 -362 -432
-668 -796 -681 -810 l-24 -25 0 833 0 832 702 0 701 0 -20 -22z m1821 -25
c-15 -27 -35 -60 -43 -75 -9 -16 -18 -28 -21 -28 -3 0 -41 34 -85 75 l-80 74
128 1 129 0 -28 -47z m2846 -898 l0 -945 -905 0 -905 0 0 945 0 945 905 0 905
0 0 -945z m1517 253 c-3 -568 -7 -709 -19 -784 -19 -106 -48 -216 -90 -331
l-30 -83 -529 0 -529 0 0 945 0 945 601 0 600 0 -4 -692z m-4845 -52 c315
-283 578 -516 583 -517 6 -2 148 228 317 511 l308 515 0 -827 0 -828 -905 0
-905 0 0 823 c0 453 3 827 7 830 3 4 10 7 15 7 4 0 266 -231 580 -514z m-915
-1143 c-2 -2 -242 -2 -532 -1 l-528 3 529 630 529 630 3 -629 c1 -346 1 -631
-1 -633z m3 -679 l0 -355 -817 4 c-627 2 -838 7 -905 17 l-88 14 0 56 0 56
237 282 237 282 668 0 668 0 0 -356z m2120 1 l0 -355 -905 0 -905 0 0 355 0
355 905 0 905 0 0 -355z m2130 7 l0 -349 -97 -6 c-54 -4 -464 -7 -910 -7
l-813 0 0 355 0 355 910 0 910 0 0 -348z m1134 287 c-99 -129 -272 -284 -428
-384 -78 -50 -234 -126 -323 -158 l-73 -27 0 315 0 315 436 0 435 0 -47 -61z"/>
</g>
</svg>
