<?xml version="1.0" standalone="no"?>
<!DOCTYPE svg PUBLIC "-//W3C//DTD SVG 20010904//EN"
 "http://www.w3.org/TR/2001/REC-SVG-20010904/DTD/svg10.dtd">
<svg version="1.0" xmlns="http://www.w3.org/2000/svg"
 width="110592.000000pt" height="110592.000000pt" viewBox="0 0 110592.000000 110592.000000"
 preserveAspectRatio="xMidYMid meet">
<metadata>
Created by potrace 1.11, written by Peter Selinger 2001-2013
</metadata>
<g transform="translate(0.000000,110592.000000) scale(11.059200,-11.059200)"
fill="#000000" stroke="none">
<path d="M1940 9985 c-394 -55 -750 -203 -1075 -448 -103 -78 -324 -299 -402
-402 -200 -266 -348 -580 -413 -880 -52 -241 -50 -92 -50 -3255 0 -3163 -2
-3014 50 -3255 65 -300 213 -614 413 -880 78 -103 299 -324 402 -402 329 -248
684 -395 1085 -449 157 -21 5943 -21 6100 0 399 54 758 202 1085 449 103 78
324 299 402 402 200 266 348 580 413 880 52 241 50 92 50 3255 0 3163 2 3014
-50 3255 -65 300 -213 614 -413 880 -78 103 -299 324 -402 402 -266 200 -580
348 -880 413 -241 52 -90 50 -3265 49 -2387 -1 -2973 -4 -3050 -14z m6090
-537 c367 -68 682 -231 935 -483 261 -262 432 -601 487 -970 19 -133 19 -5857
0 -5990 -84 -563 -434 -1045 -941 -1295 -113 -56 -200 -88 -331 -123 -205 -55
-49 -52 -3185 -52 -3250 0 -2990 -6 -3240 70 -641 195 -1108 736 -1207 1400
-19 133 -19 5857 0 5990 87 580 458 1076 988 1318 178 81 396 137 589 150 28
2 1348 3 2935 2 2571 -1 2894 -3 2970 -17z"/>
<path d="M4842 8853 c-438 -723 -793 -1364 -1112 -2008 -388 -782 -592 -1308
-666 -1715 -24 -129 -24 -369 0 -515 43 -268 137 -525 276 -750 143 -234 385
-473 628 -625 508 -315 1143 -378 1713 -170 526 191 958 623 1154 1154 137
371 156 718 60 1096 -132 522 -541 1424 -1118 2465 -249 450 -760 1315 -777
1315 -5 0 -76 -111 -158 -247z"/>
<path d="M2745 3949 c-707 -161 -1276 -398 -1611 -670 -259 -210 -400 -450
-412 -699 -28 -602 617 -1094 1843 -1404 724 -183 1540 -276 2435 -276 895 0
1711 93 2435 276 1056 267 1683 670 1821 1169 24 88 29 254 11 341 -35 165
-114 306 -249 450 -241 254 -593 454 -1109 629 -280 95 -824 235 -840 217 -3
-4 -23 -47 -44 -97 -114 -270 -292 -528 -499 -721 -47 -45 -86 -85 -86 -90 0
-5 44 -30 98 -56 150 -73 232 -149 232 -216 0 -23 -11 -44 -37 -73 -165 -183
-653 -338 -1263 -401 -168 -17 -785 -17 -945 0 -618 67 -1093 219 -1258 401
-26 29 -37 50 -37 73 0 67 82 143 232 216 54 26 98 51 98 56 0 5 -39 45 -86
90 -208 194 -379 441 -499 721 -24 55 -47 100 -52 101 -4 1 -84 -16 -178 -37z
m-355 -520 c-8 -5 -46 -28 -85 -51 -149 -88 -294 -212 -372 -318 -149 -204
-174 -445 -68 -661 235 -483 1180 -853 2445 -959 1078 -90 2193 35 2973 332
616 234 936 560 914 931 -8 148 -54 261 -162 398 -71 89 -270 246 -393 308
-66 34 -43 36 50 6 299 -98 622 -245 803 -366 128 -86 267 -219 318 -305 38
-63 67 -155 67 -210 0 -18 -9 -60 -20 -95 -112 -362 -800 -724 -1775 -935
-1261 -273 -2909 -273 -4170 0 -584 127 -1099 319 -1412 528 -126 84 -276 228
-321 308 -106 190 -71 350 118 540 191 191 474 346 925 506 145 51 200 66 165
43z m700 -166 c-66 -50 -167 -159 -199 -214 -84 -148 -88 -322 -9 -472 71
-136 281 -301 501 -394 414 -174 887 -259 1507 -270 646 -11 1169 61 1609 223
296 109 533 278 619 441 79 150 76 324 -9 472 -32 55 -133 164 -199 214 l-35
27 52 -15 c162 -48 378 -138 526 -222 218 -122 347 -266 347 -387 0 -54 -46
-134 -118 -206 -187 -187 -561 -354 -1062 -474 -955 -229 -2287 -229 -3240 0
-504 121 -875 286 -1062 474 -72 72 -118 152 -118 206 0 190 292 407 775 575
77 27 142 49 145 49 3 0 -11 -12 -30 -27z"/>
</g>
</svg>
