<?xml version="1.0" standalone="no"?>
<!DOCTYPE svg PUBLIC "-//W3C//DTD SVG 20010904//EN"
 "http://www.w3.org/TR/2001/REC-SVG-20010904/DTD/svg10.dtd">
<svg version="1.0" xmlns="http://www.w3.org/2000/svg"
 width="110592.000000pt" height="110592.000000pt" viewBox="0 0 110592.000000 110592.000000"
 preserveAspectRatio="xMidYMid meet">
<metadata>
Created by potrace 1.11, written by Peter Selinger 2001-2013
</metadata>
<g transform="translate(0.000000,110592.000000) scale(11.059200,-11.059200)"
fill="#000000" stroke="none">
<path d="M1940 9985 c-394 -55 -750 -203 -1075 -448 -103 -78 -324 -299 -402
-402 -200 -266 -348 -580 -413 -880 -52 -241 -50 -92 -50 -3255 0 -3163 -2
-3014 50 -3255 65 -300 213 -614 413 -880 78 -103 299 -324 402 -402 329 -248
684 -395 1085 -449 157 -21 5943 -21 6100 0 399 54 758 202 1085 449 103 78
324 299 402 402 200 266 348 580 413 880 52 241 50 92 50 3255 0 3163 2 3014
-50 3255 -65 300 -213 614 -413 880 -78 103 -299 324 -402 402 -266 200 -580
348 -880 413 -241 52 -90 50 -3265 49 -2387 -1 -2973 -4 -3050 -14z m6090
-537 c367 -68 682 -231 935 -483 261 -262 432 -601 487 -970 19 -133 19 -5857
0 -5990 -84 -563 -434 -1045 -941 -1295 -113 -56 -200 -88 -331 -123 -205 -55
-49 -52 -3185 -52 -3250 0 -2990 -6 -3240 70 -641 195 -1108 736 -1207 1400
-19 133 -19 5857 0 5990 87 580 458 1076 988 1318 178 81 396 137 589 150 28
2 1348 3 2935 2 2571 -1 2894 -3 2970 -17z"/>
<path d="M2810 9093 c0 -5 13 -72 29 -149 41 -191 85 -504 121 -850 37 -365
52 -453 90 -530 33 -68 71 -94 132 -94 74 2 148 69 148 134 -1 64 -30 167 -93
322 -35 87 -107 265 -159 394 -105 258 -181 477 -229 658 -29 110 -39 139 -39
115z"/>
<path d="M4896 8129 c-45 -70 -138 -176 -356 -404 -159 -167 -200 -227 -200
-293 0 -48 25 -82 86 -118 36 -22 54 -26 90 -21 89 10 129 75 226 374 73 227
116 341 163 435 20 39 34 74 33 79 -2 5 -21 -19 -42 -52z"/>
<path d="M3505 7273 c-315 -37 -575 -161 -791 -377 -189 -190 -310 -420 -359
-685 -20 -108 -20 -341 0 -455 52 -300 220 -589 449 -774 88 -72 197 -141 270
-173 31 -13 56 -27 56 -30 0 -3 -17 -11 -39 -17 -58 -18 -180 -102 -233 -161
-136 -152 -165 -384 -78 -637 24 -70 24 -71 3 -77 -11 -3 -7 -5 10 -6 15 0 27
-5 27 -11 0 -16 367 -12 2080 25 3061 66 4144 92 4196 100 38 6 71 40 84 86
16 56 22 231 10 300 -30 176 -123 366 -258 533 -72 88 -138 136 -276 201 -148
70 -237 95 -371 102 -98 5 -122 3 -218 -21 -60 -15 -110 -26 -111 -24 -1 2
-12 39 -24 83 -45 162 -165 354 -293 469 -127 114 -294 205 -457 247 -85 23
-226 29 -333 16 l-66 -8 -27 78 c-138 389 -410 577 -901 624 -255 24 -465 -14
-702 -126 -93 -44 -220 -121 -260 -158 -22 -19 -23 -19 -29 -1 -126 356 -379
631 -714 775 -196 85 -453 125 -645 102z"/>
<path d="M1390 7226 c0 -2 30 -23 67 -46 79 -51 196 -149 348 -290 130 -121
227 -201 273 -224 18 -9 53 -17 78 -18 37 0 51 5 76 28 65 63 85 142 49 201
-35 56 -134 100 -391 173 -175 49 -355 112 -432 151 -56 28 -68 33 -68 25z"/>
<path d="M1935 5625 c-42 -13 -132 -53 -465 -207 -258 -120 -396 -175 -635
-254 -187 -62 -230 -84 -86 -44 227 63 510 114 896 160 410 50 480 70 505 146
19 55 -3 139 -45 181 -29 29 -39 33 -81 32 -27 -1 -67 -7 -89 -14z"/>
<path d="M8840 3653 c-420 -357 -756 -678 -870 -833 -141 -191 -166 -325 -83
-437 83 -110 240 -76 357 76 61 79 81 122 120 263 19 67 47 152 61 187 97 238
270 512 478 759 38 45 68 84 66 87 -3 2 -61 -44 -129 -102z"/>
<path d="M7110 3648 c-415 -352 -793 -710 -899 -853 -123 -167 -165 -304 -121
-397 93 -198 325 -132 450 127 16 33 47 121 69 196 90 307 294 647 585 977 39
44 -1 21 -84 -50z"/>
<path d="M5340 3608 c-432 -366 -787 -705 -900 -858 -154 -208 -176 -357 -66
-458 50 -46 94 -59 152 -43 134 36 241 174 303 393 54 189 99 294 196 463 104
179 228 353 385 538 17 20 28 37 23 37 -4 0 -46 -33 -93 -72z"/>
<path d="M3575 3572 c-441 -375 -792 -709 -903 -860 -34 -45 -76 -112 -94
-149 -29 -60 -33 -77 -33 -149 0 -71 3 -85 28 -123 39 -58 80 -81 147 -81 73
0 146 43 213 125 67 82 91 133 131 277 20 68 47 152 61 187 94 230 274 518
464 741 30 36 61 73 69 83 35 41 1 20 -83 -51z"/>
<path d="M7420 2784 c-488 -419 -749 -682 -849 -857 -91 -160 -84 -286 22
-371 31 -25 47 -30 90 -30 140 0 282 158 342 379 40 147 70 226 140 365 98
195 244 414 394 590 30 36 61 73 69 83 42 50 -24 -1 -208 -159z"/>
<path d="M5765 2843 c-457 -390 -774 -692 -885 -843 -168 -228 -184 -386 -48
-487 25 -18 45 -23 87 -23 140 0 283 160 340 380 76 289 242 594 490 898 42
51 87 107 100 123 43 53 17 39 -84 -48z"/>
<path d="M3965 2778 c-428 -365 -740 -664 -855 -818 -147 -198 -175 -339 -87
-445 107 -130 296 -54 411 165 20 37 47 111 62 164 79 300 265 629 533 946 30
36 61 73 69 83 37 43 -13 8 -133 -95z"/>
<path d="M2195 2738 c-286 -245 -448 -391 -606 -548 -279 -276 -380 -429 -381
-571 0 -67 25 -122 76 -167 95 -83 230 -34 348 128 42 59 64 110 97 227 83
301 257 613 511 918 41 50 81 98 89 108 32 41 -13 9 -134 -95z"/>
</g>
</svg>
