<?xml version="1.0" standalone="no"?>
<!DOCTYPE svg PUBLIC "-//W3C//DTD SVG 20010904//EN"
 "http://www.w3.org/TR/2001/REC-SVG-20010904/DTD/svg10.dtd">
<svg version="1.0" xmlns="http://www.w3.org/2000/svg"
 width="110592.000000pt" height="110592.000000pt" viewBox="0 0 110592.000000 110592.000000"
 preserveAspectRatio="xMidYMid meet">
<metadata>
Created by potrace 1.11, written by Peter Selinger 2001-2013
</metadata>
<g transform="translate(0.000000,110592.000000) scale(11.059200,-11.059200)"
fill="#000000" stroke="none">
<path d="M1940 9985 c-394 -55 -750 -203 -1075 -448 -103 -78 -324 -299 -402
-402 -200 -266 -348 -580 -413 -880 -52 -241 -50 -92 -50 -3255 0 -3163 -2
-3014 50 -3255 65 -300 213 -614 413 -880 78 -103 299 -324 402 -402 329 -248
684 -395 1085 -449 157 -21 5943 -21 6100 0 399 54 758 202 1085 449 103 78
324 299 402 402 200 266 348 580 413 880 52 241 50 92 50 3255 0 3163 2 3014
-50 3255 -65 300 -213 614 -413 880 -78 103 -299 324 -402 402 -266 200 -580
348 -880 413 -241 52 -90 50 -3265 49 -2387 -1 -2973 -4 -3050 -14z m6090
-537 c662 -122 1174 -574 1365 -1203 76 -250 70 11 70 -3245 0 -3256 6 -2995
-70 -3245 -195 -641 -736 -1108 -1400 -1207 -74 -11 -620 -13 -3000 -13 -3250
0 -2990 -6 -3240 70 -556 169 -981 594 -1150 1150 -76 250 -70 -11 -70 3245 0
3256 -6 2995 70 3245 124 410 385 747 753 974 217 134 505 226 767 244 28 2
1348 3 2935 2 2571 -1 2894 -3 2970 -17z"/>
<path d="M2308 7447 c-251 -320 -664 -840 -918 -1156 -253 -316 -460 -581
-460 -590 0 -9 183 -203 407 -431 1076 -1098 2205 -2262 3126 -3225 274 -286
505 -524 513 -530 11 -8 90 66 365 340 381 381 1397 1421 2229 2285 289 299
745 769 1013 1045 369 378 487 505 484 520 -2 11 -160 223 -352 470 -533 687
-1061 1375 -1250 1628 l-170 227 -2265 -1 -2265 0 -457 -582z m2342 -63 c0 -8
-436 -584 -613 -809 -215 -274 -441 -545 -448 -537 -4 4 -43 174 -88 377 -45
204 -114 500 -153 658 -38 159 -67 291 -64 295 4 3 57 9 119 12 143 9 1247 12
1247 4z m2120 2 c0 -1 -63 -259 -140 -572 -77 -313 -150 -611 -163 -663 l-23
-95 -125 155 c-219 270 -889 1155 -889 1174 0 3 302 5 670 5 369 0 670 -2 670
-4z m-1572 -260 c343 -434 560 -718 782 -1026 73 -102 137 -191 143 -197 7
-10 -211 -13 -1087 -13 -1262 0 -1138 -13 -1034 111 56 67 801 1031 958 1241
36 48 68 87 71 88 3 0 78 -92 167 -204z m2138 -217 c321 -409 603 -781 695
-916 l70 -103 -681 0 -680 0 5 23 c3 12 19 83 35 157 52 236 284 1170 290
1170 4 0 123 -149 266 -331z m-4343 234 c44 -148 82 -303 162 -663 42 -190 89
-398 106 -462 16 -64 29 -119 29 -122 0 -3 -308 -6 -685 -6 -377 0 -685 2
-685 5 0 18 34 83 62 118 18 23 183 226 366 452 183 225 395 490 470 587 75
97 140 177 143 177 3 1 18 -38 32 -86z m534 -1883 c74 -162 263 -581 420 -930
246 -547 644 -1423 675 -1485 32 -64 -1475 1475 -2266 2315 -143 151 -287 303
-320 338 l-61 62 709 -2 709 -3 134 -295z m2730 288 c-39 -97 -372 -841 -654
-1463 -197 -434 -410 -906 -473 -1047 l-115 -256 -31 66 c-17 37 -91 193 -164
347 -73 154 -191 408 -262 565 -167 366 -789 1760 -795 1783 -5 16 59 17 1247
17 998 0 1251 -3 1247 -12z m1763 4 c0 -48 -267 -328 -1335 -1402 -936 -940
-1163 -1175 -1223 -1262 -31 -45 -68 -75 -78 -65 -3 2 23 62 57 133 129 271
266 571 557 1214 307 680 458 1009 577 1253 l66 137 690 0 c379 0 689 -4 689
-8z"/>
</g>
</svg>
