<?xml version="1.0" standalone="no"?>
<!DOCTYPE svg PUBLIC "-//W3C//DTD SVG 20010904//EN"
 "http://www.w3.org/TR/2001/REC-SVG-20010904/DTD/svg10.dtd">
<svg version="1.0" xmlns="http://www.w3.org/2000/svg"
 width="110592.000000pt" height="110592.000000pt" viewBox="0 0 110592.000000 110592.000000"
 preserveAspectRatio="xMidYMid meet">
<metadata>
Created by potrace 1.11, written by Peter Selinger 2001-2013
</metadata>
<g transform="translate(0.000000,110592.000000) scale(11.059200,-11.059200)"
fill="#000000" stroke="none">
<path d="M1940 9985 c-394 -55 -750 -203 -1075 -448 -103 -78 -324 -299 -402
-402 -200 -266 -348 -580 -413 -880 -52 -241 -50 -92 -50 -3255 0 -3163 -2
-3014 50 -3255 65 -300 213 -614 413 -880 78 -103 299 -324 402 -402 329 -248
684 -395 1085 -449 157 -21 5943 -21 6100 0 399 54 758 202 1085 449 103 78
324 299 402 402 200 266 348 580 413 880 52 241 50 92 50 3255 0 3163 2 3014
-50 3255 -65 300 -213 614 -413 880 -78 103 -299 324 -402 402 -266 200 -580
348 -880 413 -241 52 -90 50 -3265 49 -2387 -1 -2973 -4 -3050 -14z m6090
-537 c367 -68 682 -231 935 -483 261 -262 432 -601 487 -970 19 -133 19 -5857
0 -5990 -84 -563 -434 -1045 -941 -1295 -113 -56 -200 -88 -331 -123 -205 -55
-49 -52 -3185 -52 -3250 0 -2990 -6 -3240 70 -641 195 -1108 736 -1207 1400
-19 133 -19 5857 0 5990 87 580 458 1076 988 1318 178 81 396 137 589 150 28
2 1348 3 2935 2 2571 -1 2894 -3 2970 -17z"/>
<path d="M7890 8889 c-1287 -144 -1750 -280 -2585 -757 -232 -132 -761 -449
-1575 -944 -294 -178 -644 -389 -777 -469 -133 -79 -243 -147 -243 -151 0 -8
96 -169 452 -760 l216 -357 138 78 c162 91 316 187 694 434 361 235 394 256
396 254 13 -17 742 -1190 992 -1597 279 -454 1728 -2834 1857 -3050 88 -148
172 -267 233 -332 298 -316 841 -93 842 346 0 155 -49 266 -270 611 -81 127
-509 826 -952 1555 -443 729 -1050 1726 -1348 2215 l-543 890 21 100 c12 55
38 182 58 282 l37 183 196 128 c912 600 1567 890 2374 1052 l57 11 0 52 c0 50
-18 145 -41 215 -12 38 3 37 -229 11z"/>
<path d="M3230 4488 c-63 -51 -207 -171 -320 -268 -113 -97 -263 -222 -333
-279 -115 -92 -127 -105 -114 -119 7 -10 42 -53 78 -97 35 -44 156 -188 269
-320 113 -132 243 -288 289 -347 46 -60 88 -108 93 -108 15 0 296 231 385 316
l81 79 17 255 c9 140 22 302 30 360 23 167 28 149 -90 290 -88 104 -175 210
-255 312 -14 18 -20 14 -130 -74z"/>
<path d="M4010 2876 c-77 -200 -187 -547 -320 -1011 -28 -99 -76 -261 -106
-359 -30 -99 -53 -184 -51 -189 2 -6 79 -34 173 -63 93 -28 209 -66 258 -84
122 -44 163 -40 326 30 69 30 348 131 620 225 l495 171 -2 42 c-3 62 -45 269
-129 627 -41 176 -77 327 -80 336 -2 9 -26 21 -57 28 -124 32 -520 147 -737
216 -129 41 -263 83 -297 93 l-62 20 -31 -82z"/>
<path d="M1287 2361 c-8 -579 -9 -566 71 -673 26 -34 138 -154 250 -265 l204
-203 547 0 548 0 -2 743 c-1 408 -6 779 -10 825 l-8 82 -797 0 -797 0 -6 -509z"/>
</g>
</svg>
