<?xml version="1.0" standalone="no"?>
<!DOCTYPE svg PUBLIC "-//W3C//DTD SVG 20010904//EN"
 "http://www.w3.org/TR/2001/REC-SVG-20010904/DTD/svg10.dtd">
<svg version="1.0" xmlns="http://www.w3.org/2000/svg"
 width="110592.000000pt" height="110592.000000pt" viewBox="0 0 110592.000000 110592.000000"
 preserveAspectRatio="xMidYMid meet">
<metadata>
Created by potrace 1.11, written by Peter Selinger 2001-2013
</metadata>
<g transform="translate(0.000000,110592.000000) scale(11.059200,-11.059200)"
fill="#000000" stroke="none">
<path d="M1940 9985 c-394 -55 -750 -203 -1075 -448 -103 -78 -324 -299 -402
-402 -200 -266 -348 -580 -413 -880 -52 -241 -50 -92 -50 -3255 0 -3163 -2
-3014 50 -3255 65 -300 213 -614 413 -880 78 -103 299 -324 402 -402 329 -248
684 -395 1085 -449 157 -21 5943 -21 6100 0 399 54 758 202 1085 449 103 78
324 299 402 402 200 266 348 580 413 880 52 241 50 92 50 3255 0 3163 2 3014
-50 3255 -65 300 -213 614 -413 880 -78 103 -299 324 -402 402 -266 200 -580
348 -880 413 -241 52 -90 50 -3265 49 -2387 -1 -2973 -4 -3050 -14z m6090
-537 c367 -68 682 -231 935 -483 220 -220 366 -476 448 -785 55 -205 52 -50
52 -3180 0 -3130 3 -2975 -52 -3180 -77 -288 -195 -504 -403 -739 l-65 -74
-155 6 c-875 32 -1640 620 -2169 1665 -76 150 -200 423 -281 619 l-39 92 251
3 250 3 34 39 c54 63 52 146 -6 207 l-37 39 -319 0 -320 0 -71 123 c-153 263
-227 443 -436 1062 -57 171 -107 322 -111 338 l-6 27 630 0 c696 0 662 -3 696
63 21 39 20 119 -2 156 -38 64 -4 61 -746 61 l-673 0 -53 158 c-96 285 -203
534 -457 1067 l-153 320 1012 5 c795 4 1016 8 1033 18 72 41 72 196 1 246 -20
14 -140 16 -1105 16 l-1083 0 -76 153 c-42 83 -144 294 -226 467 -279 591
-450 875 -580 962 -23 16 -53 28 -68 28 -106 0 -351 -382 -779 -1215 l-200
-390 -1087 -3 -1087 -2 6 297 c3 189 11 331 20 388 129 785 783 1383 1572
1438 28 2 1348 3 2935 2 2571 -1 2894 -3 2970 -17z m-5470 -2395 c0 -3 -51
-117 -114 -252 -145 -311 -158 -341 -333 -776 -80 -198 -160 -395 -177 -437
l-31 -78 -687 0 -688 0 0 775 0 775 1015 0 c558 0 1015 -3 1015 -7z m-907
-2145 c-189 -453 -375 -908 -412 -1008 -19 -50 -52 -113 -81 -153 l-50 -67
-290 0 -290 0 0 775 0 775 629 0 629 0 -135 -322z m-834 -1555 c-52 -59 -133
-190 -203 -330 -36 -70 -70 -135 -75 -143 -8 -10 -11 64 -11 248 l0 262 161 0
161 0 -33 -37z"/>
<path d="M7548 8034 c-231 -55 -382 -264 -365 -502 12 -171 98 -295 245 -354
47 -18 76 -22 162 -22 116 0 191 21 252 72 l31 27 -7 -30 c-15 -63 -70 -158
-121 -210 -90 -90 -234 -144 -382 -145 l-63 0 0 -105 0 -105 73 0 c73 0 209
20 282 41 85 24 199 92 266 159 151 150 221 344 220 615 0 258 -88 438 -254
520 -113 55 -222 68 -339 39z m187 -203 c87 -39 137 -141 139 -283 l1 -87 -39
-40 c-49 -50 -113 -76 -186 -75 -98 0 -168 55 -200 158 -15 48 -8 156 14 207
35 84 111 139 191 139 22 0 58 -9 80 -19z"/>
<path d="M8665 8037 c-248 -64 -385 -308 -385 -687 0 -234 60 -440 162 -556
122 -138 344 -175 524 -87 122 60 217 205 256 392 25 117 29 366 9 481 -41
229 -146 382 -302 441 -66 25 -197 33 -264 16z m187 -222 c50 -34 95 -128 115
-241 20 -115 13 -409 -12 -498 -20 -71 -55 -144 -82 -168 -34 -31 -93 -50
-133 -43 -126 21 -192 187 -194 480 0 261 47 414 148 476 45 28 112 25 158 -6z"/>
<path d="M8657 5799 c-135 -32 -259 -152 -318 -308 -97 -257 -70 -671 55 -870
93 -147 254 -220 431 -194 221 32 358 195 406 483 17 99 17 336 0 429 -47 261
-167 418 -353 461 -52 12 -169 11 -221 -1z m188 -218 c89 -51 135 -207 135
-462 0 -155 -19 -283 -54 -362 -49 -111 -148 -157 -238 -111 -120 62 -182 419
-123 705 19 93 50 160 94 203 59 58 117 66 186 27z"/>
<path d="M7220 5680 l0 -110 310 0 c171 0 310 -3 310 -6 0 -4 -126 -257 -280
-562 -154 -305 -280 -556 -280 -558 0 -2 62 -4 138 -4 l138 0 282 586 282 585
0 90 0 89 -450 0 -450 0 0 -110z"/>
<path d="M8630 3781 c-222 -71 -350 -316 -350 -671 0 -259 63 -458 183 -579
183 -184 514 -148 661 72 122 185 159 540 85 823 -50 191 -161 320 -311 360
-73 19 -201 17 -268 -5z m230 -220 c77 -62 110 -174 117 -398 12 -356 -63
-543 -218 -543 -89 0 -162 94 -194 249 -47 228 -18 513 65 644 56 88 154 109
230 48z"/>
<path d="M7350 3765 c0 -8 -18 -153 -40 -322 -22 -170 -40 -315 -40 -323 0
-14 21 -16 153 -15 170 0 229 -12 307 -64 75 -50 110 -138 89 -228 -37 -169
-249 -235 -486 -152 -32 11 -65 22 -74 25 -13 5 -20 -11 -37 -79 -12 -46 -24
-90 -27 -99 -8 -19 69 -54 169 -75 95 -20 274 -20 352 1 219 57 345 189 374
391 19 129 -28 274 -116 355 -89 82 -249 134 -394 128 l-76 -3 18 120 c10 66
18 123 18 128 0 4 117 7 260 7 l260 0 0 110 0 110 -355 0 c-309 0 -355 -2
-355 -15z"/>
</g>
</svg>
