<?xml version="1.0" standalone="no"?>
<!DOCTYPE svg PUBLIC "-//W3C//DTD SVG 20010904//EN"
 "http://www.w3.org/TR/2001/REC-SVG-20010904/DTD/svg10.dtd">
<svg version="1.0" xmlns="http://www.w3.org/2000/svg"
 width="110592.000000pt" height="110592.000000pt" viewBox="0 0 110592.000000 110592.000000"
 preserveAspectRatio="xMidYMid meet">
<metadata>
Created by potrace 1.11, written by Peter Selinger 2001-2013
</metadata>
<g transform="translate(0.000000,110592.000000) scale(11.059200,-11.059200)"
fill="#000000" stroke="none">
<path d="M1940 9985 c-394 -55 -750 -203 -1075 -448 -103 -78 -324 -299 -402
-402 -200 -266 -348 -580 -413 -880 -52 -241 -50 -92 -50 -3255 0 -3163 -2
-3014 50 -3255 65 -300 213 -614 413 -880 78 -103 299 -324 402 -402 329 -248
684 -395 1085 -449 157 -21 5943 -21 6100 0 399 54 758 202 1085 449 103 78
324 299 402 402 200 266 348 580 413 880 52 241 50 92 50 3255 0 3163 2 3014
-50 3255 -65 300 -213 614 -413 880 -78 103 -299 324 -402 402 -266 200 -580
348 -880 413 -241 52 -90 50 -3265 49 -2387 -1 -2973 -4 -3050 -14z m6090
-537 c662 -122 1174 -574 1365 -1203 76 -250 70 11 70 -3245 0 -2712 -1 -2922
-17 -3021 -34 -205 -121 -445 -226 -617 -24 -40 -45 -72 -47 -70 -2 2 -254
1552 -560 3446 -549 3392 -557 3444 -537 3457 28 21 55 92 47 131 -3 18 -15
44 -26 58 -42 53 -58 56 -319 56 l-240 0 0 145 c0 161 -7 187 -60 225 -38 27
-102 30 -147 6 -57 -29 -67 -63 -71 -229 l-4 -148 -231 2 c-259 2 -291 -4
-328 -65 -33 -55 -24 -120 26 -176 l22 -25 -642 -3820 -641 -3820 -191 -3
-192 -2 -6 42 c-3 24 -118 1226 -255 2673 -137 1447 -251 2645 -254 2663 l-5
32 180 0 179 0 0 -44 c0 -57 31 -102 96 -141 l50 -30 -50 -30 c-162 -97 -114
-272 91 -335 130 -40 283 -36 408 11 106 39 167 127 150 215 -8 46 -69 107
-122 125 l-35 11 38 18 c85 38 132 103 122 170 -4 27 -3 28 49 33 101 10 150
64 141 153 -5 38 -93 227 -412 874 -259 524 -418 836 -437 855 l-29 30 -1640
0 -1640 0 -29 -30 c-32 -32 -843 -1666 -855 -1722 -10 -46 23 -117 64 -138 18
-9 56 -19 85 -22 52 -6 53 -6 45 -34 -20 -68 24 -139 112 -183 l48 -24 -39
-15 c-86 -35 -138 -116 -121 -192 12 -51 35 -82 88 -116 78 -49 142 -64 282
-64 140 0 204 15 282 64 53 34 76 65 88 116 17 76 -35 157 -121 192 l-39 15
48 24 c89 44 132 115 112 185 l-9 29 161 0 161 0 -6 -37 c-3 -21 -115 -1201
-248 -2623 -133 -1422 -245 -2588 -249 -2593 -9 -10 -108 36 -202 94 -368 227
-629 564 -753 974 -76 250 -70 -11 -70 3245 0 3256 -6 2995 70 3245 124 410
385 747 753 974 217 134 505 226 767 244 28 2 1348 3 2935 2 2571 -1 2894 -3
2970 -17z m-770 -1355 c0 -36 -2 -64 -3 -62 -2 2 -23 32 -46 67 l-42 62 46 0
45 0 0 -67z m356 40 c-8 -16 -29 -48 -45 -73 l-31 -45 0 73 0 72 45 0 46 0
-15 -27z m-503 -391 c64 -98 117 -181 117 -185 0 -9 -402 -619 -405 -615 -5 5
160 978 165 978 3 0 58 -80 123 -178z m792 -331 c42 -249 74 -455 72 -457 -5
-5 -400 588 -400 601 0 6 53 91 119 189 113 170 119 177 127 150 4 -16 41
-233 82 -483z m-5691 147 c-7 -50 -124 -1292 -124 -1317 l0 -21 -456 0 c-271
0 -454 4 -452 9 2 5 153 313 337 685 l335 676 182 0 183 0 -5 -32z m1401 -270
c-165 -167 -300 -304 -300 -305 -1 -1 -138 135 -305 302 l-305 305 605 0 604
0 -299 -302z m1550 -383 l336 -680 -477 -3 c-263 -1 -480 0 -483 3 -5 5 -130
1281 -131 1338 l0 27 210 -2 209 -3 336 -680z m-2456 7 c-150 -1 -273 -1 -275
1 -3 3 32 382 42 456 l6 44 249 -249 249 -249 -271 -3z m1454 306 c10 -106 21
-219 24 -250 l6 -58 -279 0 -279 0 250 250 c137 138 252 250 255 250 3 0 14
-87 23 -192z m3778 -730 c9 -17 -3 -18 -196 -18 l-205 0 0 313 0 312 196 -295
c107 -162 199 -303 205 -312z m-681 287 l0 -305 -200 0 c-110 0 -200 3 -200 7
0 7 393 602 398 603 1 0 2 -137 2 -305z m-3455 -345 l-210 -210 -285 0 -285 0
-210 210 -210 210 705 0 705 0 -210 -210z m-1290 -90 l120 -120 -134 0 -133 0
7 98 c6 84 13 142 19 142 1 0 55 -54 121 -120z m1730 23 c3 -54 9 -108 12
-120 5 -23 5 -23 -126 -23 -72 0 -131 3 -131 7 0 9 222 233 231 233 4 0 10
-44 14 -97z m3015 -380 c0 -184 -2 -215 -14 -203 -40 44 -346 410 -346 414 0
3 81 6 180 6 l180 0 0 -217z m638 200 c-8 -10 -77 -92 -153 -183 -76 -91 -154
-182 -172 -203 l-33 -37 0 220 0 220 187 0 c176 0 185 -1 171 -17z m376 -973
c74 -437 133 -796 132 -797 -4 -4 -811 956 -811 965 0 16 540 651 543 639 1
-7 63 -370 136 -807z m-1315 477 l261 -309 -83 -96 c-45 -54 -228 -269 -406
-480 -178 -211 -325 -381 -328 -379 -4 5 254 1559 263 1586 6 19 -19 47 293
-322z m-4009 218 l34 -35 -328 0 -328 0 6 23 c3 12 6 28 6 35 0 9 64 12 288
12 l288 0 34 -35z m1340 0 l0 -35 -322 0 -322 0 34 35 34 35 288 0 288 0 0
-35z m-588 -707 l-392 -393 -392 393 -393 392 785 0 785 0 -393 -392z m-1095
-456 c-204 -1 -372 0 -375 3 -6 5 43 575 55 642 5 33 6 32 348 -305 l342 -337
-370 -3z m1757 363 c15 -165 30 -315 33 -332 l5 -33 -378 0 -379 0 340 340
c187 187 342 336 346 332 3 -4 18 -142 33 -307z m2893 -1012 c-2 -2 -173 -2
-380 -1 l-377 3 377 446 378 445 3 -444 c1 -245 1 -447 -1 -449z m692 425
l361 -428 -385 0 -385 0 0 452 0 453 24 -25 c13 -14 186 -217 385 -452z
m-4188 -503 c-243 -245 -444 -445 -447 -446 -3 0 -208 200 -455 445 l-450 446
897 0 897 0 -442 -445z m-1218 -513 c-234 -1 -428 0 -431 3 -2 2 12 177 32
387 20 211 36 387 36 393 0 5 178 -168 395 -385 l395 -395 -427 -3z m1937 388
c17 -184 32 -347 35 -362 l5 -28 -438 0 -437 0 395 395 395 395 7 -32 c4 -18
21 -184 38 -368z m2780 -365 c0 -157 -2 -285 -5 -285 -4 0 -602 502 -669 562
-6 4 144 8 332 8 l342 0 0 -285z m950 271 c-32 -30 -661 -556 -665 -556 -3 0
-5 128 -5 285 l0 285 342 0 c294 0 340 -2 328 -14z m-1476 -486 c245 -206 445
-377 445 -380 0 -6 -1193 -1008 -1197 -1005 -6 5 294 1765 300 1762 5 -1 208
-171 452 -377z m1811 288 c42 -241 282 -1683 280 -1686 -4 -5 -1200 1010
-1200 1018 0 8 886 758 897 759 3 1 14 -41 23 -91z m-4726 -888 l-503 -510
-406 402 c-223 221 -454 450 -515 510 l-110 108 1018 0 1019 0 -503 -510z
m-1336 -578 c-273 -1 -498 0 -501 3 -3 3 14 204 37 447 23 244 41 450 41 458
0 8 207 -192 460 -445 l460 -460 -497 -3z m2117 492 c22 -230 42 -436 45 -456
l5 -38 -507 0 -508 0 460 460 c252 252 461 458 462 456 2 -2 21 -192 43 -422z
m2657 -921 c-2 -2 -250 -2 -550 -1 l-547 3 548 460 547 461 3 -460 c1 -252 1
-461 -1 -463z m828 464 c286 -242 527 -446 535 -453 12 -12 -69 -14 -533 -14
l-547 0 0 461 c0 365 3 459 13 453 6 -5 246 -206 532 -447z m-3411 -329 c3
-13 30 -291 61 -618 30 -327 58 -617 61 -643 l6 -48 -1374 4 c-1183 4 -1385 6
-1458 20 -141 25 -139 24 -134 60 2 18 27 284 54 592 28 308 53 581 56 608 l6
47 1359 0 1359 0 4 -22z m2590 -500 c3 -50 6 -252 6 -450 l0 -358 -760 0
c-700 0 -760 1 -760 16 0 19 139 851 145 872 4 9 149 12 683 12 l679 0 7 -92z
m1654 45 c6 -27 23 -113 39 -192 l28 -143 -55 -49 c-225 -203 -447 -327 -722
-405 -138 -39 -251 -54 -464 -61 l-191 -6 -6 153 c-4 84 -7 287 -7 452 l0 298
684 0 684 0 10 -47z"/>
</g>
</svg>
