<?xml version="1.0" standalone="no"?>
<!DOCTYPE svg PUBLIC "-//W3C//DTD SVG 20010904//EN"
 "http://www.w3.org/TR/2001/REC-SVG-20010904/DTD/svg10.dtd">
<svg version="1.0" xmlns="http://www.w3.org/2000/svg"
 width="110592.000000pt" height="110592.000000pt" viewBox="0 0 110592.000000 110592.000000"
 preserveAspectRatio="xMidYMid meet">
<metadata>
Created by potrace 1.11, written by Peter Selinger 2001-2013
</metadata>
<g transform="translate(0.000000,110592.000000) scale(11.059200,-11.059200)"
fill="#000000" stroke="none">
<path d="M1940 9985 c-394 -55 -750 -203 -1075 -448 -103 -78 -324 -299 -402
-402 -200 -266 -348 -580 -413 -880 -52 -241 -50 -92 -50 -3255 0 -3163 -2
-3014 50 -3255 65 -300 213 -614 413 -880 78 -103 299 -324 402 -402 329 -248
684 -395 1085 -449 157 -21 5943 -21 6100 0 399 54 758 202 1085 449 103 78
324 299 402 402 200 266 348 580 413 880 52 241 50 92 50 3255 0 3163 2 3014
-50 3255 -65 300 -213 614 -413 880 -78 103 -299 324 -402 402 -266 200 -580
348 -880 413 -241 52 -90 50 -3265 49 -2387 -1 -2973 -4 -3050 -14z m6090
-537 c367 -68 682 -231 935 -483 261 -262 432 -601 487 -970 19 -133 19 -5857
0 -5990 -84 -563 -434 -1045 -941 -1295 -113 -56 -200 -88 -331 -123 -205 -55
-49 -52 -3185 -52 -3250 0 -2990 -6 -3240 70 -641 195 -1108 736 -1207 1400
-19 133 -19 5857 0 5990 87 580 458 1076 988 1318 178 81 396 137 589 150 28
2 1348 3 2935 2 2571 -1 2894 -3 2970 -17z"/>
<path d="M4905 8974 c-1350 -106 -2520 -777 -3229 -1852 -300 -456 -493 -977
-573 -1552 -25 -179 -25 -721 0 -900 67 -474 186 -867 383 -1261 173 -346 355
-611 632 -918 34 -38 59 -72 55 -74 -28 -17 -331 -40 -518 -40 -295 0 -535 37
-782 119 -113 38 -141 41 -181 20 -37 -19 -57 -59 -56 -109 2 -62 38 -88 187
-136 204 -65 409 -102 647 -117 l105 -6 231 -382 c127 -209 235 -381 240 -380
5 0 72 182 148 405 77 222 141 406 142 408 2 2 56 -30 121 -71 578 -364 1206
-592 1838 -668 262 -32 674 -30 985 5 778 88 1606 355 2548 822 259 128 274
134 287 117 28 -39 155 -293 198 -399 90 -220 142 -416 171 -640 15 -109 19
-122 45 -149 53 -53 153 -34 181 34 10 23 10 54 1 140 -6 61 -14 116 -17 124
-3 9 12 26 40 46 114 78 217 207 251 315 27 88 18 193 -25 274 -32 59 -92 120
-161 163 -85 53 -255 98 -373 98 l-61 0 -33 60 -33 60 99 113 c259 296 415
524 575 842 193 385 302 747 369 1235 20 147 17 670 -5 835 -32 237 -75 439
-138 640 -412 1318 -1549 2341 -2967 2670 -360 84 -554 106 -957 110 -176 1
-342 1 -370 -1z m530 -228 c763 -25 1581 -313 2215 -780 234 -173 534 -461
710 -681 440 -553 701 -1194 761 -1875 15 -167 6 -582 -15 -730 -100 -700
-375 -1297 -849 -1848 -44 -50 -83 -92 -87 -92 -3 0 -32 36 -63 79 l-57 79 44
84 c72 135 91 211 91 358 0 119 -1 128 -31 190 -46 94 -93 143 -180 186 -62
31 -88 38 -161 43 -91 6 -201 -6 -284 -32 l-45 -14 81 122 c217 328 359 695
422 1095 23 145 26 585 5 725 -76 507 -263 937 -581 1335 -101 127 -312 337
-441 440 -463 369 -1006 590 -1625 662 -143 16 -529 16 -670 -1 -546 -64
-1011 -235 -1440 -529 -967 -661 -1419 -1801 -1144 -2887 179 -706 647 -1374
1244 -1775 l79 -54 -155 -76 c-229 -112 -512 -219 -732 -277 l-67 -17 -81 79
c-632 624 -1025 1508 -1068 2402 -47 995 335 1942 1075 2663 641 625 1451
1003 2379 1110 103 12 426 28 480 23 17 -1 102 -5 190 -7z m-15 -895 c656 -96
1216 -378 1658 -835 392 -406 628 -900 692 -1446 17 -141 14 -415 -5 -565 -36
-278 -143 -610 -273 -845 -86 -155 -260 -410 -280 -410 -5 0 -35 21 -68 46
-32 25 -124 89 -204 141 -80 53 -147 98 -149 100 -3 2 5 16 17 31 53 67 162
234 201 306 343 644 312 1409 -83 2019 -204 315 -494 572 -841 745 -317 159
-628 236 -995 249 -457 15 -898 -99 -1280 -331 -1114 -680 -1365 -2072 -549
-3049 222 -267 512 -474 886 -633 21 -8 18 -12 -45 -65 -103 -86 -220 -172
-343 -254 l-111 -75 -57 32 c-241 136 -547 404 -741 648 -408 514 -628 1137
-607 1724 13 361 87 656 247 981 134 273 278 474 500 695 459 459 1068 739
1765 810 143 14 509 4 665 -19z m-140 -706 c381 -48 729 -188 1025 -413 80
-61 234 -211 305 -297 444 -541 532 -1257 230 -1880 -52 -108 -144 -257 -199
-325 l-21 -25 0 71 c-1 255 -114 475 -287 557 -64 30 -75 32 -178 32 -101 -1
-116 -3 -182 -32 -134 -59 -271 -181 -351 -314 l-22 -36 -52 8 c-94 16 -340
26 -440 19 -117 -8 -130 -17 -173 -118 -125 -291 -286 -537 -508 -777 l-65
-70 -83 29 c-111 37 -313 138 -419 209 -359 237 -621 568 -758 958 -75 213
-110 525 -83 745 25 196 89 411 176 585 275 546 806 935 1440 1055 190 35 455
43 645 19z m130 -2866 c436 -39 867 -188 1295 -448 113 -68 294 -192 359 -244
l29 -24 -164 -110 c-420 -281 -760 -449 -1127 -557 -520 -152 -1020 -166
-1777 -50 -60 9 -116 20 -123 24 -9 4 6 19 45 45 97 64 291 216 427 335 l128
113 490 -88 c269 -48 490 -86 492 -84 2 2 -97 182 -221 399 -123 217 -229 405
-235 417 -9 18 -3 38 35 115 25 51 52 110 61 131 l15 37 78 0 c43 0 130 -5
193 -11z m2078 -1069 c63 -63 152 -159 199 -212 98 -112 313 -397 313 -415 0
-12 -301 -167 -550 -283 -839 -390 -1546 -602 -2275 -682 -159 -17 -703 -17
-850 0 -493 58 -925 187 -1350 401 -160 81 -438 241 -431 248 2 2 57 19 122
38 65 19 177 55 247 80 98 34 133 43 147 35 10 -5 206 -125 436 -265 229 -141
418 -254 420 -252 3 2 -22 184 -54 404 l-58 399 76 -13 c133 -24 419 -63 584
-79 233 -23 660 -23 841 -1 616 78 1155 300 1785 735 l144 100 70 -61 c38 -34
121 -114 184 -177z"/>
<path d="M4350 5695 l0 -815 510 0 510 0 0 160 0 160 -325 0 -325 0 0 655 0
655 -185 0 -185 0 0 -815z"/>
</g>
</svg>
