<?xml version="1.0" standalone="no"?>
<!DOCTYPE svg PUBLIC "-//W3C//DTD SVG 20010904//EN"
 "http://www.w3.org/TR/2001/REC-SVG-20010904/DTD/svg10.dtd">
<svg version="1.0" xmlns="http://www.w3.org/2000/svg"
 width="110592.000000pt" height="110592.000000pt" viewBox="0 0 110592.000000 110592.000000"
 preserveAspectRatio="xMidYMid meet">
<metadata>
Created by potrace 1.11, written by Peter Selinger 2001-2013
</metadata>
<g transform="translate(0.000000,110592.000000) scale(11.059200,-11.059200)"
fill="#000000" stroke="none">
<path d="M1940 9985 c-394 -55 -750 -203 -1075 -448 -103 -78 -324 -299 -402
-402 -200 -266 -348 -580 -413 -880 -52 -241 -50 -92 -50 -3255 0 -3163 -2
-3014 50 -3255 65 -300 213 -614 413 -880 78 -103 299 -324 402 -402 329 -248
684 -395 1085 -449 157 -21 5943 -21 6100 0 399 54 758 202 1085 449 103 78
324 299 402 402 200 266 348 580 413 880 52 241 50 92 50 3255 0 3163 2 3014
-50 3255 -65 300 -213 614 -413 880 -78 103 -299 324 -402 402 -266 200 -580
348 -880 413 -241 52 -90 50 -3265 49 -2387 -1 -2973 -4 -3050 -14z m6090
-537 c367 -68 682 -231 935 -483 213 -213 357 -461 441 -757 60 -212 57 -116
61 -1905 l4 -1643 -1534 0 -1535 0 -436 946 c-241 521 -436 947 -434 949 2 1
590 -366 1308 -817 l1305 -820 115 5 c84 3 133 10 180 26 72 25 223 109 218
122 -2 4 -531 394 -1176 865 -645 471 -1170 859 -1168 862 6 5 50 15 926 192
l685 139 158 -99 159 -100 224 56 c123 31 224 60 224 64 0 6 -498 439 -548
476 -13 10 -7 51 47 308 35 164 61 299 59 300 -1 2 -91 -1 -199 -7 l-195 -10
-65 -118 -64 -118 -37 36 -37 36 -167 -27 c-92 -14 -170 -28 -172 -31 -3 -2
41 -82 97 -176 56 -95 100 -173 99 -174 -2 -1 -232 -31 -513 -68 -389 -51
-607 -74 -920 -97 -225 -17 -432 -31 -460 -33 l-50 -2 -1120 761 c-616 419
-1134 768 -1152 778 -77 39 -237 40 -311 2 -29 -15 -112 -100 -111 -113 0 -5
373 -316 829 -693 456 -376 827 -686 826 -688 -2 -2 -30 -10 -63 -19 -78 -20
-168 -69 -222 -120 -39 -37 -54 -44 -140 -64 -382 -87 -566 -202 -565 -354 1
-119 93 -205 276 -255 175 -47 339 -52 786 -21 l293 21 57 -33 c52 -29 65 -32
142 -32 93 0 116 8 187 68 56 46 129 56 179 24 18 -12 34 -26 34 -32 -1 -5
-198 -437 -440 -960 l-438 -950 -2042 -3 -2041 -2 4 1642 c4 1790 1 1694 61
1906 200 705 809 1205 1531 1255 28 2 1348 3 2935 2 2571 -1 2894 -3 2970 -17z
m-2240 -4243 l249 -540 -264 -3 c-145 -1 -385 -1 -533 0 l-269 3 266 577 266
577 18 -37 c10 -20 130 -280 267 -577z m-3858 -1038 c-98 -95 -411 -400 -697
-677 -286 -277 -562 -544 -612 -594 l-93 -91 0 768 0 767 789 0 789 0 -176
-173z m1593 144 c-17 -15 -651 -628 -1410 -1361 -759 -733 -1394 -1346 -1411
-1362 l-32 -30 -30 84 c-74 205 -102 363 -105 581 l-2 138 1020 989 1020 989
490 1 490 0 -30 -29z m926 7 c-5 -13 -101 -221 -213 -463 l-203 -440 -1300
-1254 c-715 -690 -1325 -1278 -1356 -1308 l-56 -54 -101 75 c-115 85 -278 247
-341 335 l-41 59 1587 1536 1588 1535 222 1 223 0 -9 -22z m539 19 c0 -2 -68
-67 -150 -146 l-151 -143 24 53 c14 30 44 96 67 147 l43 92 83 0 c46 0 84 -1
84 -3z m1234 -74 c20 -42 35 -82 32 -88 -2 -7 -340 -336 -750 -731 l-746 -719
-87 -17 c-171 -34 -396 -90 -535 -134 -78 -24 -143 -42 -145 -41 -1 2 70 161
160 353 l162 350 570 551 570 552 366 0 367 1 36 -77z m1646 73 c0 -5 -900
-870 -908 -873 -4 -2 -74 142 -155 320 l-148 322 120 118 120 117 486 0 c267
0 485 -2 485 -4z m1375 -65 c-289 -287 -1841 -1769 -1846 -1763 -8 8 -286 609
-291 629 -2 6 276 280 616 607 l619 596 486 0 486 0 -70 -69z m225 -645 l0
-404 -1397 -1346 -1397 -1346 -423 0 c-233 0 -423 2 -423 4 0 2 286 279 636
616 539 518 646 616 693 638 75 34 181 102 236 153 48 45 101 131 113 183 6
29 167 188 981 970 535 515 975 936 977 936 2 0 4 -182 4 -404z m-2905 -101
l143 -310 -177 -170 c-97 -94 -208 -200 -247 -238 l-71 -67 -99 15 c-204 30
-336 39 -572 39 l-243 0 83 82 c46 45 294 285 553 534 343 330 472 448 478
438 5 -7 73 -152 152 -323z m376 -813 c47 -103 85 -188 84 -190 -1 -1 -42 13
-92 32 -49 19 -139 49 -199 66 -60 18 -115 34 -123 36 -10 3 28 46 110 124 68
65 126 119 129 119 3 0 44 -84 91 -187z m2526 -317 c-4 -222 -10 -359 -20
-420 -91 -547 -438 -1019 -931 -1263 -111 -54 -186 -83 -308 -118 -176 -49
-245 -56 -668 -61 l-395 -5 90 91 c50 49 572 554 1160 1120 887 855 1071 1027
1074 1008 2 -12 1 -170 -2 -352z m-5848 118 c-22 -49 -61 -132 -86 -186 l-46
-98 12 -66 c7 -36 23 -88 37 -115 32 -64 124 -153 206 -201 l65 -38 -111 -109
c-61 -59 -358 -347 -661 -640 l-550 -531 -210 5 c-244 6 -357 22 -521 72 -66
19 -120 37 -121 38 -3 2 2019 1955 2024 1956 1 0 -16 -39 -38 -87z m2269 -60
c23 -9 21 -12 -45 -73 -37 -35 -177 -169 -310 -297 l-242 -235 -168 12 c-264
17 -639 67 -681 89 -9 5 61 80 223 237 l237 229 136 17 c76 10 180 22 232 27
114 12 585 7 618 -6z m577 -98 c78 -19 203 -56 277 -81 129 -44 292 -120 286
-133 -5 -12 -92 -88 -113 -99 -35 -18 -230 -71 -352 -97 -158 -32 -367 -61
-538 -74 -77 -6 -169 -14 -205 -16 l-65 -6 190 183 c105 100 231 222 280 270
50 48 91 88 93 88 2 0 68 -16 147 -35z m-2280 -185 c-60 -60 -116 -110 -125
-110 -19 0 -136 55 -144 68 -7 12 109 65 254 113 63 21 117 38 120 39 2 0 -45
-49 -105 -110z m63 -514 c172 -44 421 -85 607 -101 44 -4 86 -11 93 -14 9 -5
-155 -170 -507 -509 l-520 -502 -485 2 -485 3 592 572 c326 314 596 572 600
572 5 1 52 -10 105 -23z m2117 -155 c-50 -49 -297 -288 -549 -530 l-459 -441
-486 0 -486 0 60 59 c33 33 263 255 512 493 l452 435 231 6 c268 8 452 21 640
46 74 10 144 19 155 20 14 1 -7 -26 -70 -88z"/>
</g>
</svg>
