<?xml version="1.0" standalone="no"?>
<!DOCTYPE svg PUBLIC "-//W3C//DTD SVG 20010904//EN"
 "http://www.w3.org/TR/2001/REC-SVG-20010904/DTD/svg10.dtd">
<svg version="1.0" xmlns="http://www.w3.org/2000/svg"
 width="110592.000000pt" height="110592.000000pt" viewBox="0 0 110592.000000 110592.000000"
 preserveAspectRatio="xMidYMid meet">
<metadata>
Created by potrace 1.11, written by Peter Selinger 2001-2013
</metadata>
<g transform="translate(0.000000,110592.000000) scale(11.059200,-11.059200)"
fill="#000000" stroke="none">
<path d="M1940 9985 c-394 -55 -750 -203 -1075 -448 -103 -78 -324 -299 -402
-402 -200 -266 -348 -580 -413 -880 -52 -241 -50 -92 -50 -3255 0 -3163 -2
-3014 50 -3255 65 -300 213 -614 413 -880 78 -103 299 -324 402 -402 329 -248
684 -395 1085 -449 157 -21 5943 -21 6100 0 399 54 758 202 1085 449 103 78
324 299 402 402 200 266 348 580 413 880 52 241 50 92 50 3255 0 3163 2 3014
-50 3255 -65 300 -213 614 -413 880 -78 103 -299 324 -402 402 -266 200 -580
348 -880 413 -241 52 -90 50 -3265 49 -2387 -1 -2973 -4 -3050 -14z m6090
-537 c662 -122 1174 -574 1365 -1203 76 -250 70 10 70 -3240 0 -3136 3 -2980
-52 -3185 -35 -131 -67 -218 -123 -331 -250 -507 -732 -857 -1295 -941 -74
-11 -620 -13 -3000 -13 -3250 0 -2990 -6 -3240 70 -641 195 -1108 736 -1207
1400 -11 74 -13 620 -13 3000 0 3250 -6 2990 70 3240 124 410 385 747 753 974
217 134 505 226 767 244 28 2 1348 3 2935 2 2571 -1 2894 -3 2970 -17z"/>
<path d="M4020 8954 c-422 -38 -830 -167 -977 -311 -69 -67 -95 -127 -135
-311 l-32 -147 -3 -945 -4 -945 22 -17 c20 -17 102 -18 1403 -18 1100 0 1386
3 1400 13 16 12 17 71 13 987 -3 943 -4 978 -24 1066 -49 213 -112 345 -187
389 -96 55 -296 127 -476 169 -220 53 -364 68 -670 71 -157 1 -305 1 -330 -1z
m886 -209 c20 -31 16 -141 -7 -156 -8 -5 -274 -9 -616 -9 -534 0 -603 2 -617
16 -22 21 -22 122 0 152 l15 22 604 0 605 0 16 -25z m468 -306 c15 -12 32 -33
37 -47 12 -32 82 -958 75 -988 -14 -56 34 -54 -1211 -54 -1132 0 -1145 0
-1165 20 -11 11 -20 28 -20 38 0 9 13 235 30 502 26 430 31 487 48 509 10 14
30 29 43 32 13 4 499 7 1080 8 l1056 1 27 -21z m-2019 -1300 c228 -62 186
-392 -50 -392 -58 0 -98 18 -143 64 -82 84 -66 230 34 298 56 39 98 47 159 30z
m2022 -25 c169 -99 95 -367 -101 -367 -129 0 -229 122 -197 241 37 138 177
197 298 126z"/>
<path d="M4650 7632 c-63 -24 -152 -114 -173 -174 l-16 -48 305 0 305 0 -7 23
c-22 73 -92 154 -165 193 -49 26 -190 29 -249 6z"/>
<path d="M6796 6404 c-13 -13 -16 -43 -16 -167 0 -102 -4 -160 -13 -177 l-13
-25 -200 -5 c-150 -4 -205 -9 -217 -19 -14 -11 -17 -36 -17 -157 0 -131 -2
-144 -19 -154 -11 -5 -78 -10 -150 -10 -104 0 -133 -3 -145 -16 -14 -13 -16
-49 -16 -240 0 -123 2 -224 5 -224 11 0 980 423 990 431 5 5 -85 9 -212 9
-216 0 -223 1 -248 23 -20 17 -27 34 -32 77 -8 79 13 125 64 140 26 8 205 10
591 8 l554 -3 24 -28 c41 -48 32 -168 -15 -204 -11 -9 -80 -12 -240 -13 -129
0 -221 -4 -215 -9 7 -7 911 -401 977 -426 16 -7 17 8 17 216 0 123 -5 231 -10
239 -7 12 -40 16 -150 20 -125 4 -143 7 -156 24 -10 15 -14 53 -14 145 0 69
-4 131 -8 138 -16 26 -69 33 -241 33 -131 0 -181 3 -189 13 -6 7 -12 84 -14
180 -3 153 -5 170 -22 183 -16 11 -78 14 -327 14 -266 0 -310 -2 -323 -16z"/>
<path d="M3110 6006 c0 -132 2 -146 23 -177 66 -98 260 -115 341 -30 37 38 45
82 46 229 l0 122 -205 0 -205 0 0 -144z"/>
<path d="M5050 6008 c0 -123 3 -147 19 -174 55 -91 268 -110 356 -32 45 39 55
79 55 226 l0 122 -215 0 -215 0 0 -142z"/>
<path d="M7046 5436 c-21 -8 -342 -146 -713 -308 l-674 -293 7 -40 c3 -22 65
-209 138 -415 l131 -375 3 -447 c2 -381 1 -448 -11 -448 -8 0 -77 32 -153 70
-194 98 -296 117 -448 85 -68 -14 -236 -88 -236 -104 0 -14 151 -251 160 -251
4 0 32 12 62 27 39 20 72 28 123 31 l70 4 145 -74 c163 -83 227 -101 351 -100
107 0 197 29 347 110 105 56 109 57 187 57 79 0 82 -1 225 -72 167 -82 212
-95 332 -94 106 0 190 26 351 109 108 55 115 57 189 57 73 0 80 -2 186 -57
156 -81 243 -109 346 -109 113 0 187 20 345 97 73 36 152 69 176 73 49 9 122
-7 193 -43 l48 -24 72 128 c40 71 72 131 72 134 0 13 -148 79 -218 97 -143 36
-254 19 -436 -69 l-121 -58 5 445 5 446 46 120 c26 66 88 226 139 355 66 170
92 249 93 284 l2 49 -699 304 c-744 324 -758 329 -840 299z"/>
<path d="M4475 4961 c-143 -52 -192 -88 -524 -389 -164 -148 -307 -275 -318
-283 -18 -10 -74 -5 -365 36 l-344 49 33 55 c56 94 48 194 -18 222 -69 28
-133 -11 -240 -142 -44 -54 -85 -99 -92 -99 -17 0 -384 38 -435 45 l-43 6 20
32 c108 176 97 287 -30 287 -53 0 -106 -37 -182 -127 -39 -48 -84 -100 -98
-116 l-25 -30 -180 28 c-182 29 -381 38 -456 22 -28 -6 -66 -36 -170 -136 -73
-71 -131 -131 -128 -134 3 -3 280 -105 615 -227 490 -178 638 -236 750 -294
189 -97 334 -189 411 -259 55 -51 64 -64 64 -93 0 -51 -20 -83 -123 -197 -51
-57 -222 -261 -382 -455 -262 -319 -292 -352 -315 -348 -14 3 -186 26 -384 52
l-358 46 -100 -99 -100 -100 286 -168 285 -168 -26 -50 -25 -50 65 -64 64 -65
50 25 50 26 163 -280 c89 -154 167 -282 172 -285 6 -4 53 36 106 89 l95 95
-47 376 c-26 207 -46 383 -44 390 2 8 165 147 364 308 199 162 396 325 438
363 104 93 153 125 196 125 29 0 43 -9 90 -59 68 -73 159 -219 260 -416 65
-127 111 -245 295 -763 l218 -614 134 134 133 133 11 65 c14 84 5 243 -26 443
-14 88 -25 160 -25 162 0 2 51 44 113 93 61 50 119 101 127 114 48 76 52 125
11 170 -25 28 -34 32 -79 31 -40 -1 -68 -10 -135 -46 l-83 -46 -23 245 c-14
141 -20 249 -15 253 5 4 49 38 97 76 49 37 100 85 114 106 32 49 41 111 19
143 -19 30 -84 50 -129 40 -36 -7 -104 -40 -127 -60 -14 -12 -21 25 -62 338
l-47 351 31 36 c18 20 146 161 286 313 264 288 291 323 351 448 67 141 52 234
-48 287 -53 27 -98 29 -166 4z"/>
</g>
</svg>
