<?xml version="1.0" standalone="no"?>
<!DOCTYPE svg PUBLIC "-//W3C//DTD SVG 20010904//EN"
 "http://www.w3.org/TR/2001/REC-SVG-20010904/DTD/svg10.dtd">
<svg version="1.0" xmlns="http://www.w3.org/2000/svg"
 width="110592.000000pt" height="110592.000000pt" viewBox="0 0 110592.000000 110592.000000"
 preserveAspectRatio="xMidYMid meet">
<metadata>
Created by potrace 1.11, written by Peter Selinger 2001-2013
</metadata>
<g transform="translate(0.000000,110592.000000) scale(11.059200,-11.059200)"
fill="#000000" stroke="none">
<path d="M1940 9985 c-394 -55 -750 -203 -1075 -448 -103 -78 -324 -299 -402
-402 -200 -266 -348 -580 -413 -880 -52 -241 -50 -92 -50 -3255 0 -3163 -2
-3014 50 -3255 65 -300 213 -614 413 -880 78 -103 299 -324 402 -402 329 -248
684 -395 1085 -449 157 -21 5943 -21 6100 0 399 54 758 202 1085 449 103 78
324 299 402 402 200 266 348 580 413 880 52 241 50 92 50 3255 0 3163 2 3014
-50 3255 -65 300 -213 614 -413 880 -78 103 -299 324 -402 402 -266 200 -580
348 -880 413 -241 52 -90 50 -3265 49 -2387 -1 -2973 -4 -3050 -14z m6090
-537 c367 -68 682 -231 935 -483 261 -262 432 -601 487 -970 19 -133 19 -5857
0 -5990 -84 -563 -434 -1045 -941 -1295 -113 -56 -200 -88 -331 -123 -205 -55
-49 -52 -3185 -52 -3250 0 -2990 -6 -3240 70 -641 195 -1108 736 -1207 1400
-19 133 -19 5857 0 5990 87 580 458 1076 988 1318 178 81 396 137 589 150 28
2 1348 3 2935 2 2571 -1 2894 -3 2970 -17z"/>
<path d="M4630 9271 c0 -5 4 -12 9 -15 31 -20 72 -303 74 -519 1 -149 0 -154
-36 -272 -84 -272 -100 -343 -100 -460 -1 -167 40 -283 122 -339 22 -16 97
-50 167 -77 156 -60 200 -87 225 -142 18 -40 19 -79 19 -903 l0 -862 -217 70
c-120 39 -222 73 -226 78 -5 4 0 36 9 71 25 92 26 349 1 439 -38 142 -129 299
-239 412 -78 81 -142 122 -233 151 -91 28 -228 27 -460 -3 -229 -30 -446 -25
-545 12 -121 45 -242 144 -285 234 -9 20 -21 32 -26 27 -4 -4 -22 -78 -39
-163 -41 -201 -51 -412 -26 -542 52 -273 229 -485 496 -594 155 -63 327 -93
724 -124 458 -36 485 -42 809 -175 l252 -104 0 -222 0 -222 -95 -19 c-308 -62
-688 -245 -969 -466 -157 -125 -337 -329 -405 -459 l-17 -33 1631 0 c896 0
1630 2 1630 5 0 3 -13 31 -29 63 -105 207 -336 431 -621 602 -227 137 -482
236 -747 289 l-88 18 -3 526 -2 526 112 35 c62 20 212 67 333 105 l220 69 95
-48 c304 -153 583 -181 870 -89 211 69 586 304 700 441 106 127 162 266 181
452 15 143 -5 316 -68 604 -6 24 -23 31 -23 9 0 -27 -81 -126 -140 -170 -172
-130 -346 -150 -690 -80 -166 33 -202 37 -345 37 -149 1 -166 -1 -245 -27
-109 -36 -199 -85 -302 -167 -236 -188 -339 -442 -283 -705 8 -38 15 -77 15
-85 0 -12 -49 -27 -211 -64 -116 -26 -213 -45 -216 -42 -3 3 -7 212 -7 463 -1
447 0 460 21 528 31 97 84 181 178 283 251 273 307 356 346 512 21 84 19 336
-5 430 -75 310 -301 504 -704 606 -52 13 -191 40 -310 59 -119 19 -232 38
-249 41 -19 3 -33 1 -33 -5z"/>
<path d="M3640 5226 c-279 -99 -678 -509 -1124 -1153 l-77 -113 -690 0 -689 0
0 -1365 0 -1365 3558 0 c3912 0 3609 -5 3697 62 148 113 163 362 29 492 -20
20 -57 46 -83 58 l-46 23 -1292 5 c-710 3 -1293 7 -1296 10 -28 31 -35 92 -15
135 l11 25 1486 0 c918 0 1512 4 1554 10 121 18 203 77 251 179 17 37 21 66
21 141 0 110 -18 160 -81 229 -46 52 -91 76 -169 90 -41 8 -517 11 -1557 11
l-1498 0 -16 25 c-21 33 -14 113 12 132 14 11 298 13 1528 13 1260 0 1520 3
1563 14 78 21 144 74 184 148 32 60 34 68 34 163 -1 81 -5 109 -23 148 -30 65
-100 131 -168 156 -54 21 -64 21 -1577 21 -1300 0 -1526 2 -1543 14 -27 20
-27 115 0 145 l19 21 -1285 2 -1285 3 134 280 c144 300 214 416 338 557 217
248 598 512 942 654 48 20 92 40 98 45 5 5 -171 9 -435 9 -439 0 -446 -1 -510
-24z"/>
<path d="M5920 5246 c0 -2 37 -18 83 -36 279 -111 568 -288 786 -484 82 -73
86 -75 104 -58 40 36 70 114 75 193 8 137 -44 251 -148 321 -94 64 -127 68
-537 68 -200 0 -363 -2 -363 -4z"/>
<path d="M7120 4345 c0 -2 17 -37 38 -77 21 -40 85 -187 143 -325 l104 -253
444 0 c282 0 468 4 508 11 160 28 262 168 251 343 -11 164 -111 273 -271 297
-61 9 -1217 13 -1217 4z"/>
</g>
</svg>
