<?xml version="1.0" standalone="no"?>
<!DOCTYPE svg PUBLIC "-//W3C//DTD SVG 20010904//EN"
 "http://www.w3.org/TR/2001/REC-SVG-20010904/DTD/svg10.dtd">
<svg version="1.0" xmlns="http://www.w3.org/2000/svg"
 width="110592.000000pt" height="110592.000000pt" viewBox="0 0 110592.000000 110592.000000"
 preserveAspectRatio="xMidYMid meet">
<metadata>
Created by potrace 1.11, written by Peter Selinger 2001-2013
</metadata>
<g transform="translate(0.000000,110592.000000) scale(11.059200,-11.059200)"
fill="#000000" stroke="none">
<path d="M1940 9985 c-394 -55 -750 -203 -1075 -448 -103 -78 -324 -299 -402
-402 -200 -266 -348 -580 -413 -880 -52 -241 -50 -92 -50 -3255 0 -3163 -2
-3014 50 -3255 65 -300 213 -614 413 -880 78 -103 299 -324 402 -402 329 -248
684 -395 1085 -449 157 -21 5943 -21 6100 0 399 54 758 202 1085 449 103 78
324 299 402 402 200 266 348 580 413 880 52 241 50 92 50 3255 0 3163 2 3014
-50 3255 -65 300 -213 614 -413 880 -78 103 -299 324 -402 402 -266 200 -580
348 -880 413 -241 52 -90 50 -3265 49 -2387 -1 -2973 -4 -3050 -14z m6090
-537 c662 -122 1174 -574 1365 -1203 76 -250 70 11 70 -3245 0 -3256 6 -2995
-70 -3245 -192 -631 -716 -1092 -1370 -1202 -67 -12 -201 -17 -531 -20 l-441
-5 -6 188 c-3 104 -36 1362 -73 2796 l-68 2607 23 25 23 25 90 -45 c459 -231
904 -363 1398 -416 246 -26 859 -13 986 21 27 7 25 9 -56 60 -113 70 -454 238
-612 300 -245 97 -539 179 -788 220 -237 39 -339 46 -662 46 l-318 0 0 25 c0
14 -13 48 -30 76 -36 63 -104 111 -171 120 l-47 6 -6 97 c-47 721 -217 1282
-570 1875 -56 95 -198 304 -255 376 l-40 51 -7 -27 c-18 -72 11 -530 51 -794
79 -528 289 -1072 590 -1531 l63 -97 -28 -27 c-64 -61 -94 -210 -57 -282 l15
-28 -76 -50 c-108 -69 -321 -226 -422 -309 -410 -341 -750 -775 -1003 -1281
-52 -105 -137 -297 -137 -310 0 -19 296 158 465 278 531 377 915 815 1235
1411 28 50 50 84 50 76 0 -8 -32 -1212 -70 -2675 -38 -1463 -70 -2693 -70
-2732 l0 -73 -1253 0 -1254 0 -95 162 c-421 716 -690 1352 -818 1937 -74 336
-102 601 -102 961 0 424 47 803 157 1271 19 82 35 152 35 154 0 3 -531 5
-1180 5 -649 0 -1180 -3 -1180 -6 0 -3 18 -83 39 -177 53 -230 95 -471 123
-702 19 -163 22 -240 22 -540 0 -386 -14 -552 -73 -861 -43 -221 -127 -419
-277 -651 l-62 -97 -9 60 c-4 32 -8 1366 -8 2964 0 3245 -6 2985 70 3235 124
410 385 747 753 974 217 134 505 226 767 244 28 2 1348 3 2935 2 2571 -1 2894
-3 2970 -17z"/>
<path d="M600 5619 c0 -6 25 -89 56 -185 l56 -174 1247 0 1248 0 43 143 c24
78 49 161 56 185 l13 42 -1359 0 c-977 0 -1360 -3 -1360 -11z"/>
<path d="M3405 4948 c-14 -43 -75 -313 -75 -335 0 -11 136 -13 718 -13 l718 0
48 163 c27 89 51 170 53 180 5 16 -34 17 -726 17 -576 0 -733 -3 -736 -12z"/>
<path d="M3280 4375 c0 -3 -7 -49 -15 -103 -157 -1047 22 -2010 573 -3087 l87
-170 728 -3 c400 -1 727 0 727 3 0 3 -37 69 -83 148 -423 722 -626 1272 -698
1882 -20 164 -17 587 5 760 21 169 49 338 76 460 11 50 20 96 20 103 0 9 -149
12 -710 12 -390 0 -710 -2 -710 -5z"/>
</g>
</svg>
