<?xml version="1.0" standalone="no"?>
<!DOCTYPE svg PUBLIC "-//W3C//DTD SVG 20010904//EN"
 "http://www.w3.org/TR/2001/REC-SVG-20010904/DTD/svg10.dtd">
<svg version="1.0" xmlns="http://www.w3.org/2000/svg"
 width="110592.000000pt" height="110592.000000pt" viewBox="0 0 110592.000000 110592.000000"
 preserveAspectRatio="xMidYMid meet">
<metadata>
Created by potrace 1.11, written by Peter Selinger 2001-2013
</metadata>
<g transform="translate(0.000000,110592.000000) scale(11.059200,-11.059200)"
fill="#000000" stroke="none">
<path d="M1940 9985 c-394 -55 -750 -203 -1075 -448 -103 -78 -324 -299 -402
-402 -200 -266 -348 -580 -413 -880 -52 -241 -50 -92 -50 -3255 0 -3163 -2
-3014 50 -3255 65 -300 213 -614 413 -880 78 -103 299 -324 402 -402 329 -248
684 -395 1085 -449 157 -21 5943 -21 6100 0 399 54 758 202 1085 449 103 78
324 299 402 402 200 266 348 580 413 880 52 241 50 92 50 3255 0 3163 2 3014
-50 3255 -65 300 -213 614 -413 880 -78 103 -299 324 -402 402 -266 200 -580
348 -880 413 -241 52 -90 50 -3265 49 -2387 -1 -2973 -4 -3050 -14z m6090
-537 c662 -122 1174 -574 1365 -1203 76 -250 70 11 70 -3245 0 -3256 6 -2995
-70 -3245 -195 -641 -736 -1108 -1400 -1207 -74 -11 -620 -13 -3000 -13 -3250
0 -2990 -6 -3240 70 -556 169 -981 594 -1150 1150 -76 250 -70 -11 -70 3245 0
3256 -6 2995 70 3245 124 410 385 747 753 974 217 134 505 226 767 244 28 2
1348 3 2935 2 2571 -1 2894 -3 2970 -17z"/>
<path d="M5353 9181 c-54 -14 -96 -45 -120 -90 l-23 -44 0 -933 0 -933 -1222
-4 c-1342 -4 -1279 -2 -1503 -66 -609 -176 -1068 -646 -1234 -1261 -55 -205
-54 -184 -58 -1312 -3 -734 -1 -1058 7 -1087 12 -47 50 -95 94 -119 29 -16
150 -17 1784 -20 l1752 -2 0 -985 0 -985 -909 0 c-619 0 -919 -3 -938 -11 -40
-15 -81 -57 -111 -114 -23 -43 -27 -63 -27 -135 0 -78 3 -90 34 -148 19 -35
50 -76 70 -90 l34 -27 2122 0 2122 0 34 27 c20 14 51 55 70 90 31 58 34 70 34
148 0 72 -4 92 -27 135 -30 57 -71 99 -111 114 -19 8 -330 11 -973 11 l-944 0
0 985 0 985 1608 0 c929 0 1624 4 1646 10 45 10 81 34 110 74 21 27 21 35 24
1079 3 1117 3 1138 -45 1341 -148 633 -648 1145 -1276 1307 -203 52 -191 52
-1024 56 l-783 4 0 390 0 389 630 0 c699 0 674 -2 726 66 l29 37 0 507 0 507
-28 36 c-58 76 -7 72 -817 74 -399 1 -739 -2 -757 -6z m-141 -2715 l3 -354 31
-39 c70 -88 188 -99 268 -25 55 51 56 62 56 432 l0 340 700 0 c719 0 823 -4
980 -41 485 -112 895 -502 1035 -985 55 -188 55 -198 55 -1199 l0 -925 -1794
0 -1795 0 -4 973 c-4 1040 -3 1007 -56 1214 -91 352 -326 713 -611 935 l-35
28 582 0 582 0 3 -354z m-1442 -661 l0 -295 -780 0 -780 0 0 295 0 295 780 0
780 0 0 -295z"/>
</g>
</svg>
