<?xml version="1.0" standalone="no"?>
<!DOCTYPE svg PUBLIC "-//W3C//DTD SVG 20010904//EN"
 "http://www.w3.org/TR/2001/REC-SVG-20010904/DTD/svg10.dtd">
<svg version="1.0" xmlns="http://www.w3.org/2000/svg"
 width="110592.000000pt" height="110592.000000pt" viewBox="0 0 110592.000000 110592.000000"
 preserveAspectRatio="xMidYMid meet">
<metadata>
Created by potrace 1.11, written by Peter Selinger 2001-2013
</metadata>
<g transform="translate(0.000000,110592.000000) scale(11.059200,-11.059200)"
fill="#000000" stroke="none">
<path d="M1940 9985 c-394 -55 -750 -203 -1075 -448 -103 -78 -324 -299 -402
-402 -200 -266 -348 -580 -413 -880 -52 -241 -50 -92 -50 -3255 0 -3163 -2
-3014 50 -3255 65 -300 213 -614 413 -880 78 -103 299 -324 402 -402 329 -248
684 -395 1085 -449 157 -21 5943 -21 6100 0 399 54 758 202 1085 449 103 78
324 299 402 402 200 266 348 580 413 880 52 241 50 92 50 3255 0 3163 2 3014
-50 3255 -65 300 -213 614 -413 880 -78 103 -299 324 -402 402 -266 200 -580
348 -880 413 -241 52 -90 50 -3265 49 -2387 -1 -2973 -4 -3050 -14z m6090
-537 c662 -122 1174 -574 1365 -1203 75 -248 69 3 72 -3041 l3 -2731 -146 29
c-284 56 -728 129 -1044 173 l-113 16 -146 129 c-80 70 -165 148 -188 172 -80
83 -122 216 -139 442 -6 87 11 689 21 742 4 20 11 21 297 27 551 13 837 52
846 116 5 32 -13 49 -383 374 -316 277 -595 545 -595 571 0 16 126 27 290 25
142 -2 206 17 271 80 27 26 49 55 49 63 0 21 -145 236 -349 517 -415 571 -589
840 -616 953 -7 26 -6 26 62 33 37 3 102 11 143 17 41 6 130 12 197 12 l123 1
0 31 c0 70 -41 130 -244 357 -176 197 -242 286 -316 427 -92 175 -95 186 -130
546 -13 138 -13 138 -69 130 -52 -7 -95 -42 -111 -91 -6 -17 -12 -119 -13
-226 -2 -140 -7 -202 -17 -224 -8 -16 -58 -76 -111 -132 -99 -103 -153 -176
-249 -338 -91 -152 -151 -237 -217 -306 -68 -71 -84 -109 -63 -158 17 -43 71
-61 203 -67 120 -6 207 -25 226 -48 10 -12 1 -30 -45 -98 -69 -98 -313 -431
-499 -678 -72 -96 -189 -256 -260 -355 -209 -292 -266 -395 -219 -395 11 0 98
-9 194 -20 96 -12 247 -23 336 -27 l161 -6 -121 -106 c-478 -420 -785 -758
-827 -915 -18 -68 -8 -82 79 -110 137 -43 261 -59 446 -58 188 1 336 19 530
63 90 20 133 26 141 18 15 -15 19 -287 6 -426 -6 -65 -22 -223 -35 -352 -22
-208 -28 -237 -50 -271 -36 -55 -121 -106 -320 -192 l-180 -78 -235 10 c-130
5 -341 10 -468 10 l-233 0 0 3210 0 3210 -160 0 -160 0 0 -3210 0 -3210 -144
0 c-192 0 -655 -17 -953 -35 -133 -8 -261 -15 -285 -15 l-44 0 -27 203 c-65
482 -104 936 -117 1360 -20 673 36 1199 160 1513 36 89 81 174 93 174 10 0 -1
-65 -19 -108 -13 -32 -12 -36 28 -95 l42 -61 14 34 c8 19 17 52 19 73 12 82
33 16 33 -103 0 -36 5 -82 11 -103 11 -40 74 -111 90 -102 5 4 9 50 9 103 1
93 1 96 16 69 21 -39 44 -151 44 -217 0 -35 6 -65 17 -80 22 -34 65 -80 74
-80 12 0 20 55 21 146 0 48 4 81 8 73 12 -21 50 -213 50 -251 1 -27 9 -41 46
-72 l46 -39 -7 119 c-4 65 -5 116 -1 113 3 -3 15 -49 26 -103 11 -54 29 -118
40 -143 23 -52 87 -143 101 -143 13 0 0 100 -28 210 -32 127 -99 294 -188 467
l-72 143 68 -61 c49 -43 93 -71 159 -99 50 -22 94 -40 97 -40 3 0 3 25 0 56
-4 37 -20 84 -46 137 -22 45 -39 83 -37 84 8 8 77 -86 97 -131 11 -26 26 -75
33 -109 l13 -62 54 -22 c87 -35 95 -34 91 7 -2 19 -14 65 -27 103 -13 37 -22
67 -20 67 5 0 74 -117 103 -176 30 -59 33 -62 74 -66 24 -3 45 -3 47 -1 11 9
-35 163 -70 232 -89 177 -237 296 -454 364 -44 13 -99 28 -122 32 -36 6 -52
18 -129 102 -88 95 -84 111 6 27 26 -24 51 -44 56 -44 5 1 42 32 83 69 52 49
72 74 68 85 -4 9 -28 30 -54 46 -53 34 -42 39 29 13 l48 -17 31 30 c35 33 119
147 119 161 0 13 -48 57 -90 82 -23 14 -52 21 -85 21 -85 0 -181 -55 -397
-227 -65 -51 -120 -93 -122 -93 -2 0 -30 48 -61 108 -128 239 -237 369 -333
392 -45 10 -56 9 -124 -14 -87 -30 -115 -32 -140 -9 -27 24 -23 0 9 -58 31
-59 53 -73 198 -130 l110 -44 -57 -5 -58 -5 38 -62 c32 -53 43 -63 77 -72 22
-6 59 -23 83 -38 l43 -28 -60 -3 c-34 -2 -61 -6 -60 -10 0 -4 35 -36 76 -72
49 -42 71 -66 61 -68 -9 -2 -58 10 -109 25 -82 24 -110 28 -219 27 -114 0
-131 -3 -193 -28 -38 -16 -96 -49 -129 -73 -33 -24 -61 -43 -62 -41 -1 2 -17
53 -36 113 -72 237 -219 605 -329 823 -28 56 -47 102 -43 102 26 0 106 -70
153 -134 54 -73 55 -74 115 -85 103 -19 97 -24 92 79 -2 50 -1 87 3 83 3 -5
29 -42 57 -84 55 -83 66 -89 175 -89 44 0 47 2 43 23 -11 52 -28 169 -24 172
2 2 35 -39 73 -90 l70 -94 78 -1 c42 0 77 4 77 9 0 5 -16 47 -35 92 -19 45
-33 84 -32 85 2 2 40 -37 85 -86 l83 -89 67 6 c37 3 68 7 70 8 2 2 -4 17 -12
34 l-16 30 37 -16 c55 -22 172 -13 243 19 l55 25 -75 -1 c-98 -1 -133 17 -298
153 -235 193 -326 236 -527 247 -109 7 -201 -7 -348 -50 -45 -13 -99 -26 -120
-29 -36 -6 -34 -3 75 91 l111 97 -83 5 -84 5 39 31 c53 42 95 62 142 70 36 5
43 12 91 89 29 45 52 85 52 88 0 3 -33 7 -72 9 l-73 3 60 24 c33 13 105 41
159 62 55 21 113 51 129 66 29 28 68 95 82 143 l7 25 -26 -24 c-34 -31 -67
-30 -166 8 -49 19 -98 31 -127 31 -156 0 -317 -180 -515 -573 -35 -70 -52 -96
-61 -90 -7 5 -48 38 -92 74 -209 170 -379 286 -472 325 -72 29 -154 32 -204 6
-43 -22 -139 -101 -139 -114 0 -15 95 -149 143 -200 47 -52 69 -58 117 -33 16
9 51 18 77 21 l48 6 -62 -32 c-35 -17 -72 -44 -83 -59 l-20 -28 100 -97 100
-97 57 50 c66 59 131 106 138 100 2 -3 -46 -59 -107 -124 l-111 -120 -96 -22
c-329 -73 -560 -228 -694 -464 -47 -83 -98 -224 -112 -306 -7 -43 -6 -43 23
-43 79 0 89 7 135 99 41 80 132 231 141 231 2 0 -12 -39 -30 -88 -36 -95 -54
-192 -36 -192 6 0 49 14 96 31 89 32 90 33 101 104 9 59 45 152 81 215 31 53
99 128 108 119 2 -2 -13 -33 -33 -69 -58 -103 -83 -170 -89 -239 -4 -52 -2
-63 9 -59 168 65 249 107 309 163 133 122 127 119 85 45 -189 -334 -338 -732
-360 -965 l-6 -70 32 30 c63 60 118 165 143 270 9 39 24 106 35 150 l19 80 1
-155 1 -154 55 54 c52 51 55 57 55 103 0 60 32 222 59 297 l20 55 -6 -70 c-5
-64 10 -241 21 -253 8 -7 68 47 95 84 20 29 26 52 33 146 8 114 34 223 69 288
l18 35 1 -142 c0 -85 4 -143 10 -143 19 0 81 64 97 99 9 21 19 90 24 166 5 72
15 157 22 190 l13 60 7 -65 c8 -76 36 -180 48 -180 5 0 31 34 59 75 l50 74
-19 49 c-11 26 -22 69 -26 94 -26 170 122 -117 210 -407 35 -115 97 -402 111
-512 6 -50 6 -52 -20 -59 -15 -3 -43 -4 -62 -1 -18 3 -34 4 -34 1 0 -9 85 -44
107 -44 26 0 26 0 48 -215 31 -309 39 -511 39 -950 0 -458 -10 -701 -45 -1130
-36 -441 -111 -1054 -131 -1066 -5 -3 -42 -9 -81 -13 -313 -29 -1174 -163
-1710 -266 -115 -22 -210 -40 -213 -40 -2 0 -3 1243 -1 2763 3 3079 -3 2824
72 3072 124 410 385 747 753 974 217 134 505 226 767 244 28 2 1348 3 2935 2
2571 -1 2894 -3 2970 -17z m-4494 -3419 c-189 -393 -339 -828 -430 -1252 l-32
-148 -12 248 c-19 390 -67 762 -142 1085 l-30 130 36 42 c20 22 41 45 46 51 5
5 -5 -23 -22 -64 -16 -41 -30 -76 -30 -78 0 -2 28 -3 62 -1 l62 3 54 70 55 70
-7 -50 c-4 -27 -9 -63 -12 -79 -6 -28 -5 -29 26 -22 18 3 48 6 66 6 30 0 38 7
80 68 l46 67 -7 -74 -7 -74 23 6 c13 3 42 9 65 13 31 4 45 13 58 35 27 45 68
90 100 110 17 10 31 17 33 15 2 -1 -35 -81 -81 -177z m2714 -3458 c1075 -51
2121 -171 3095 -355 l120 -22 -3 -65 c-6 -113 -31 -254 -65 -368 -19 -61 -36
-114 -39 -116 -2 -2 -152 20 -333 50 -1769 291 -3686 369 -5560 225 -929 -72
-1928 -203 -2585 -340 -105 -22 -192 -40 -194 -40 -9 0 -66 160 -94 262 -30
107 -59 295 -49 320 3 9 20 18 39 21 18 3 130 24 248 46 796 152 1705 269
2605 335 330 25 876 54 1120 60 264 6 1477 -3 1695 -13z m305 -880 c921 -54
1776 -149 2535 -281 151 -27 144 -23 126 -59 -58 -110 -267 -347 -395 -445
l-61 -47 -262 45 c-525 90 -1331 161 -2243 196 -323 13 -1300 13 -1660 0 -984
-35 -1925 -121 -2834 -261 -280 -43 -401 -58 -415 -51 -50 23 -236 172 -319
255 -89 90 -215 250 -200 254 40 11 596 110 773 137 963 149 1819 232 2875
276 110 4 544 7 965 5 620 -3 831 -8 1115 -24z m-625 -851 c881 -22 1714 -83
2225 -163 l210 -33 -65 -22 c-108 -35 -210 -60 -305 -74 -73 -11 -630 -13
-3000 -13 -2717 0 -2917 1 -3015 17 -191 32 -196 30 261 86 539 66 715 85
1085 117 539 45 1202 79 1769 88 368 6 457 6 835 -3z"/>
</g>
</svg>
