<?xml version="1.0" standalone="no"?>
<!DOCTYPE svg PUBLIC "-//W3C//DTD SVG 20010904//EN"
 "http://www.w3.org/TR/2001/REC-SVG-20010904/DTD/svg10.dtd">
<svg version="1.0" xmlns="http://www.w3.org/2000/svg"
 width="110592.000000pt" height="110592.000000pt" viewBox="0 0 110592.000000 110592.000000"
 preserveAspectRatio="xMidYMid meet">
<metadata>
Created by potrace 1.11, written by Peter Selinger 2001-2013
</metadata>
<g transform="translate(0.000000,110592.000000) scale(11.059200,-11.059200)"
fill="#000000" stroke="none">
<path d="M1940 9985 c-394 -55 -750 -203 -1075 -448 -103 -78 -324 -299 -402
-402 -200 -266 -348 -580 -413 -880 -52 -241 -50 -92 -50 -3255 0 -3163 -2
-3014 50 -3255 65 -300 213 -614 413 -880 78 -103 299 -324 402 -402 329 -248
684 -395 1085 -449 157 -21 5943 -21 6100 0 399 54 758 202 1085 449 103 78
324 299 402 402 200 266 348 580 413 880 52 241 50 92 50 3255 0 3163 2 3014
-50 3255 -65 300 -213 614 -413 880 -78 103 -299 324 -402 402 -266 200 -580
348 -880 413 -241 52 -90 50 -3265 49 -2387 -1 -2973 -4 -3050 -14z m6090
-537 c375 -69 686 -233 948 -497 l95 -96 -1462 -3 -1461 -2 0 -1285 0 -1284
38 -6 c302 -47 499 -132 700 -303 l53 -46 1209 1209 c665 665 1211 1207 1214
1205 10 -11 67 -219 77 -284 l11 -69 -1156 -1156 -1157 -1157 49 -94 c92 -182
134 -355 134 -560 1 -254 -69 -489 -207 -695 -25 -37 -45 -70 -45 -74 0 -3
532 -538 1181 -1187 l1182 -1182 -36 -118 c-19 -66 -45 -141 -57 -168 l-21
-50 -1238 1238 -1238 1238 -74 -49 c-151 -102 -313 -169 -479 -198 -52 -9
-105 -19 -117 -21 l-23 -4 0 -1300 0 -1300 1461 -2 1462 -3 -95 -96 c-229
-231 -482 -378 -798 -462 -205 -55 -49 -52 -3185 -52 -3250 0 -2990 -6 -3240
70 -282 86 -524 232 -734 445 l-94 95 946 3 947 2 0 1615 0 1615 -1145 0
-1145 0 0 635 0 635 1145 0 1145 0 0 1600 0 1600 -947 2 -946 3 94 95 c299
303 689 484 1104 513 28 2 1348 3 2935 2 2571 -1 2894 -3 2970 -17z"/>
<path d="M3140 7250 l0 -1600 909 0 908 0 38 58 c181 273 468 476 768 542 l57
13 0 1294 0 1293 -1340 0 -1340 0 0 -1600z"/>
<path d="M3140 2765 l0 -1615 1340 0 1340 0 0 1308 0 1308 -97 27 c-231 65
-376 151 -553 327 -69 69 -145 155 -169 193 l-43 67 -909 0 -909 0 0 -1615z"/>
</g>
</svg>
