<?xml version="1.0" standalone="no"?>
<!DOCTYPE svg PUBLIC "-//W3C//DTD SVG 20010904//EN"
 "http://www.w3.org/TR/2001/REC-SVG-20010904/DTD/svg10.dtd">
<svg version="1.0" xmlns="http://www.w3.org/2000/svg"
 width="110592.000000pt" height="110592.000000pt" viewBox="0 0 110592.000000 110592.000000"
 preserveAspectRatio="xMidYMid meet">
<metadata>
Created by potrace 1.11, written by Peter Selinger 2001-2013
</metadata>
<g transform="translate(0.000000,110592.000000) scale(11.059200,-11.059200)"
fill="#000000" stroke="none">
<path d="M1940 9985 c-394 -55 -750 -203 -1075 -448 -103 -78 -324 -299 -402
-402 -200 -266 -348 -580 -413 -880 -52 -241 -50 -92 -50 -3255 0 -3163 -2
-3014 50 -3255 65 -300 213 -614 413 -880 78 -103 299 -324 402 -402 329 -248
684 -395 1085 -449 157 -21 5943 -21 6100 0 399 54 758 202 1085 449 103 78
324 299 402 402 200 266 348 580 413 880 52 241 50 92 50 3255 0 3163 2 3014
-50 3255 -65 300 -213 614 -413 880 -78 103 -299 324 -402 402 -266 200 -580
348 -880 413 -241 52 -90 50 -3265 49 -2387 -1 -2973 -4 -3050 -14z m6090
-537 c662 -122 1174 -574 1365 -1203 76 -250 70 11 70 -3245 0 -3256 6 -2995
-70 -3245 -195 -641 -736 -1108 -1400 -1207 -74 -11 -620 -13 -3000 -13 -3250
0 -2990 -6 -3240 70 -556 169 -981 594 -1150 1150 -76 250 -70 -11 -70 3245 0
3256 -6 2995 70 3245 124 410 385 747 753 974 217 134 505 226 767 244 28 2
1348 3 2935 2 2571 -1 2894 -3 2970 -17z"/>
<path d="M7105 8051 c-258 -48 -472 -124 -775 -276 -361 -181 -820 -485 -1174
-777 l-90 -74 -145 116 c-360 287 -774 554 -1126 727 -752 370 -1311 385
-1656 44 -203 -202 -324 -513 -380 -986 -18 -148 -18 -602 -1 -720 59 -391
215 -802 477 -1258 l39 -67 761 2 760 3 120 345 c110 314 124 349 160 387 69
71 160 71 231 0 40 -41 42 -47 89 -237 26 -107 51 -202 56 -210 9 -18 -7 -92
159 700 78 366 145 679 151 697 13 41 68 89 116 102 45 12 105 1 142 -26 66
-48 57 14 211 -1533 78 -784 144 -1432 147 -1440 6 -17 3 -28 197 623 80 268
153 498 163 511 35 46 82 70 137 70 58 0 60 -1 224 -121 62 -46 116 -83 120
-83 4 0 54 199 112 442 115 485 124 509 200 543 77 35 177 -1 216 -77 11 -21
153 -736 154 -775 0 -2 205 -3 455 -3 l454 0 73 123 c210 355 371 735 447
1057 55 228 64 330 58 628 -7 355 -36 573 -108 806 -124 402 -333 634 -652
727 -105 31 -382 36 -522 10z"/>
<path d="M4850 5258 c0 -30 -223 -1044 -234 -1066 -20 -39 -59 -69 -107 -84
-50 -15 -106 1 -154 44 -41 35 -48 56 -131 400 -32 130 -61 235 -65 232 -4 -2
-24 -53 -43 -112 -44 -131 -71 -179 -115 -209 l-34 -23 -733 0 c-404 0 -734
-3 -734 -6 0 -9 168 -239 283 -389 456 -589 1115 -1269 1832 -1891 120 -104
381 -320 441 -366 13 -9 185 127 444 351 794 686 1457 1381 1954 2046 l127
170 -433 5 c-238 3 -442 9 -453 14 -44 20 -86 71 -101 124 -9 29 -18 51 -21
48 -3 -2 -22 -77 -43 -166 -21 -88 -47 -175 -57 -193 -23 -39 -74 -74 -120
-83 -52 -10 -104 16 -247 121 -71 53 -133 92 -137 88 -4 -4 -120 -388 -259
-853 -138 -465 -261 -863 -273 -885 -61 -113 -233 -108 -294 8 -12 25 -47 338
-148 1350 -73 724 -135 1320 -139 1324 -3 3 -6 4 -6 1z"/>
</g>
</svg>
