<?xml version="1.0" standalone="no"?>
<!DOCTYPE svg PUBLIC "-//W3C//DTD SVG 20010904//EN"
 "http://www.w3.org/TR/2001/REC-SVG-20010904/DTD/svg10.dtd">
<svg version="1.0" xmlns="http://www.w3.org/2000/svg"
 width="110592.000000pt" height="110592.000000pt" viewBox="0 0 110592.000000 110592.000000"
 preserveAspectRatio="xMidYMid meet">
<metadata>
Created by potrace 1.11, written by Peter Selinger 2001-2013
</metadata>
<g transform="translate(0.000000,110592.000000) scale(11.125956,-11.125956)"
fill="#000000" stroke="none">
<path d="M1915 9923 c-980 -131 -1773 -929 -1899 -1911 -14 -111 -16 -434 -16
-3042 0 -3234 -4 -3024 65 -3296 203 -793 816 -1406 1609 -1609 272 -69 62
-65 3296 -65 3234 0 3024 -4 3296 65 793 203 1406 816 1609 1609 69 272 65 62
65 3296 0 3234 4 3024 -65 3296 -203 793 -816 1406 -1609 1609 -272 69 -60 65
-3309 64 -2522 -1 -2947 -3 -3042 -16z m6085 -535 c279 -60 495 -151 700 -296
121 -86 306 -271 392 -392 115 -162 218 -381 263 -560 51 -200 48 -91 52
-1927 2 -985 0 -1713 -5 -1713 -5 0 -67 9 -138 19 -614 92 -1146 18 -1839
-259 -146 -58 -536 -247 -695 -337 l-105 -59 -3 130 c-3 116 13 565 20 571 2
2 149 8 328 14 317 11 547 29 644 51 54 12 106 36 106 49 0 22 -64 82 -244
229 -458 375 -701 590 -684 607 4 4 100 10 215 14 232 8 260 15 326 79 20 20
37 40 37 44 0 15 -92 147 -201 288 -486 629 -571 744 -652 885 -26 44 -50 95
-53 113 l-6 32 43 0 c24 0 100 7 169 16 69 8 161 14 205 12 95 -3 100 3 62 84
-23 51 -73 110 -272 318 -111 116 -188 218 -249 329 -61 110 -82 183 -95 327
-6 65 -16 149 -22 186 l-11 68 -41 -6 c-105 -16 -119 -47 -128 -289 -3 -104
-7 -191 -8 -193 0 -2 -49 -52 -108 -110 -89 -89 -130 -141 -236 -299 -86 -130
-150 -215 -197 -261 -57 -56 -70 -75 -70 -100 0 -75 28 -90 203 -101 123 -8
196 -25 210 -48 8 -12 -79 -127 -439 -578 -340 -428 -405 -512 -482 -627 -85
-127 -95 -118 163 -144 121 -13 271 -23 333 -23 l114 -1 -84 -67 c-195 -157
-364 -308 -529 -472 -176 -177 -260 -284 -281 -358 -17 -61 -3 -76 98 -101
166 -40 208 -45 389 -45 191 0 321 14 520 57 80 18 112 21 117 13 27 -44 21
-247 -17 -574 -14 -114 -25 -232 -25 -260 l0 -53 -2630 0 -2630 0 3 2128 c4
2288 0 2140 52 2342 45 179 148 398 263 560 86 121 271 306 392 392 247 175
509 273 835 312 17 2 1340 2 2940 1 2620 -1 2917 -3 2985 -17z m-2531 -6277
c-41 -31 -330 -225 -410 -274 l-76 -47 -2226 0 -2227 0 0 170 0 170 2481 0
c2420 0 2481 0 2458 -19z m-1295 -745 c-102 -47 -352 -145 -512 -200 -854
-292 -1676 -376 -2367 -239 -244 48 -533 157 -707 268 l-58 37 0 79 0 79 1848
0 1847 0 -51 -24z"/>
<path d="M2990 8690 c-76 -12 -213 -56 -285 -92 -283 -141 -479 -392 -551
-703 -28 -118 -26 -350 4 -463 123 -472 520 -785 997 -783 295 1 547 106 742
309 338 352 385 881 114 1292 -94 144 -285 302 -442 367 -138 58 -220 75 -379
79 -80 1 -170 -1 -200 -6z"/>
</g>
</svg>
