<?xml version="1.0" standalone="no"?>
<!DOCTYPE svg PUBLIC "-//W3C//DTD SVG 20010904//EN"
 "http://www.w3.org/TR/2001/REC-SVG-20010904/DTD/svg10.dtd">
<svg version="1.0" xmlns="http://www.w3.org/2000/svg"
 width="110592.000000pt" height="110592.000000pt" viewBox="0 0 110592.000000 110592.000000"
 preserveAspectRatio="xMidYMid meet">
<metadata>
Created by potrace 1.11, written by Peter Selinger 2001-2013
</metadata>
<g transform="translate(0.000000,110592.000000) scale(11.059200,-11.059200)"
fill="#000000" stroke="none">
<path d="M1940 9985 c-394 -55 -750 -203 -1075 -448 -103 -78 -324 -299 -402
-402 -200 -266 -348 -580 -413 -880 -52 -241 -50 -92 -50 -3255 0 -3163 -2
-3014 50 -3255 65 -300 213 -614 413 -880 78 -103 299 -324 402 -402 329 -248
684 -395 1085 -449 157 -21 5943 -21 6100 0 399 54 758 202 1085 449 103 78
324 299 402 402 200 266 348 580 413 880 52 241 50 92 50 3255 0 3163 2 3014
-50 3255 -65 300 -213 614 -413 880 -78 103 -299 324 -402 402 -266 200 -580
348 -880 413 -241 52 -90 50 -3265 49 -2387 -1 -2973 -4 -3050 -14z m6090
-537 c662 -122 1174 -574 1365 -1203 76 -250 70 11 70 -3245 0 -3256 6 -2995
-70 -3245 -191 -629 -706 -1083 -1365 -1202 -73 -14 -268 -16 -1367 -20
l-1283 -4 0 1841 0 1840 1895 0 1895 0 0 225 c0 124 -4 233 -9 243 -8 13 -261
1722 -261 1755 0 4 -537 7 -1192 7 l-1193 0 -52 -358 c-29 -196 -87 -594 -130
-884 l-77 -528 -438 0 -438 0 0 1820 0 1820 529 0 528 0 13 -47 c43 -160 176
-324 325 -400 115 -58 202 -77 333 -70 176 8 305 63 426 182 345 338 212 921
-246 1082 -157 56 -351 41 -511 -40 -149 -74 -284 -239 -327 -399 l-13 -48
-928 0 -928 0 -10 58 c-26 136 -84 284 -150 381 -35 52 -44 58 -91 69 -163 38
-379 -7 -515 -108 -114 -84 -198 -199 -240 -330 l-22 -65 -204 -3 -205 -2 -18
57 c-101 325 -426 518 -760 452 l-57 -12 -50 -81 c-101 -165 -149 -339 -149
-546 0 -207 48 -381 149 -546 l50 -81 57 -12 c333 -66 659 127 760 452 l18 57
205 -2 204 -3 22 -65 c34 -107 74 -170 165 -261 95 -95 169 -138 295 -170 81
-22 219 -25 295 -7 47 11 56 17 91 69 66 97 124 245 150 382 l10 57 165 0 164
0 0 -2920 0 -2920 -1280 0 -1280 0 2 232 3 231 81 18 c229 49 437 179 510 320
25 48 29 65 29 144 0 80 -3 96 -30 149 -39 77 -149 179 -246 228 l-74 38 178
0 177 0 0 33 c0 17 -11 57 -24 88 -42 102 -122 182 -260 255 l-61 34 174 0
174 0 -6 49 c-13 112 -109 230 -252 314 l-80 47 169 0 169 0 -5 49 c-3 26 -15
70 -28 97 -35 73 -149 181 -245 231 l-80 42 179 1 179 0 -5 45 c-13 113 -113
235 -260 318 l-83 47 174 0 174 0 -6 49 c-23 195 -251 360 -599 435 l-28 6 0
215 0 215 541 0 c429 0 540 3 537 13 -3 6 -58 213 -124 459 l-119 448 -1082 0
-1082 0 -11 -37 c-6 -21 -62 -227 -124 -458 l-112 -420 553 -3 553 -2 0 -214
c0 -238 6 -217 -70 -231 -63 -12 -186 -53 -246 -82 -91 -45 -144 -82 -205
-142 -64 -65 -100 -133 -107 -202 l-5 -49 174 0 174 0 -61 -34 c-86 -46 -158
-100 -199 -150 -46 -56 -85 -143 -85 -188 l0 -38 178 0 177 0 -75 -38 c-105
-52 -229 -174 -259 -255 -11 -32 -21 -73 -21 -92 l0 -35 168 0 167 0 -75 -42
c-90 -49 -197 -153 -230 -222 -13 -27 -25 -71 -28 -97 l-5 -49 174 0 174 -1
-60 -31 c-81 -42 -156 -99 -198 -150 -48 -58 -87 -144 -87 -190 l0 -38 176 0
175 0 -65 -34 c-187 -98 -285 -227 -286 -377 0 -113 45 -199 149 -286 106 -87
234 -144 440 -194 l43 -10 -7 -465 -7 -464 1521 0 1521 0 0 -735 0 -736 -1422
4 c-1582 3 -1494 0 -1733 72 -556 169 -981 594 -1150 1150 -76 250 -70 -11
-70 3245 0 3256 -6 2995 70 3245 124 410 385 747 753 974 217 134 505 226 767
244 28 2 1348 3 2935 2 2571 -1 2894 -3 2970 -17z"/>
</g>
</svg>
