<?xml version="1.0" standalone="no"?>
<!DOCTYPE svg PUBLIC "-//W3C//DTD SVG 20010904//EN"
 "http://www.w3.org/TR/2001/REC-SVG-20010904/DTD/svg10.dtd">
<svg version="1.0" xmlns="http://www.w3.org/2000/svg"
 width="110592.000000pt" height="110592.000000pt" viewBox="0 0 110592.000000 110592.000000"
 preserveAspectRatio="xMidYMid meet">
<metadata>
Created by potrace 1.11, written by Peter Selinger 2001-2013
</metadata>
<g transform="translate(0.000000,110592.000000) scale(11.059200,-11.059200)"
fill="#000000" stroke="none">
<path d="M1940 9985 c-394 -55 -750 -203 -1075 -448 -103 -78 -324 -299 -402
-402 -200 -266 -348 -580 -413 -880 -52 -241 -50 -92 -50 -3255 0 -3163 -2
-3014 50 -3255 65 -300 213 -614 413 -880 78 -103 299 -324 402 -402 329 -248
684 -395 1085 -449 157 -21 5943 -21 6100 0 399 54 758 202 1085 449 103 78
324 299 402 402 200 266 348 580 413 880 52 241 50 92 50 3255 0 3163 2 3014
-50 3255 -65 300 -213 614 -413 880 -78 103 -299 324 -402 402 -266 200 -580
348 -880 413 -241 52 -90 50 -3265 49 -2387 -1 -2973 -4 -3050 -14z m6090
-537 c662 -122 1174 -574 1365 -1203 76 -250 70 11 70 -3245 0 -3256 6 -2995
-70 -3245 -192 -631 -713 -1089 -1370 -1203 -73 -12 -213 -16 -747 -19 l-658
-5 0 119 c0 133 12 189 65 293 70 138 176 258 535 606 203 196 304 309 382
426 113 168 174 305 163 365 -13 70 -143 96 -247 50 -29 -13 -103 -58 -165
-100 -182 -124 -234 -144 -281 -111 -43 30 -19 86 66 158 24 19 112 76 196
127 84 50 188 118 230 151 96 76 255 268 303 366 32 63 37 84 37 145 l1 71
-40 27 c-22 16 -65 33 -95 40 -76 16 -183 -7 -352 -75 -73 -29 -151 -59 -173
-66 -22 -7 -66 -23 -97 -36 -63 -26 -139 -31 -157 -11 -22 27 -24 76 -6 125
15 37 60 89 221 252 260 265 330 369 348 520 8 68 -10 192 -35 241 -27 54 -94
84 -184 84 -67 0 -77 -4 -225 -77 -183 -90 -199 -95 -231 -69 -23 19 -24 26
-31 203 -3 100 -11 203 -16 228 -40 178 -121 256 -238 230 -61 -14 -101 -38
-154 -96 -83 -90 -108 -173 -130 -424 -16 -187 -45 -280 -85 -280 -7 0 -77 31
-156 69 -244 118 -386 133 -499 53 -115 -81 -118 -156 -13 -337 103 -178 191
-273 339 -371 110 -73 204 -195 244 -317 10 -32 9 -41 -4 -62 -33 -50 -106
-32 -361 90 -156 75 -257 105 -352 105 -141 0 -199 -70 -166 -201 23 -90 71
-156 218 -304 154 -155 290 -270 465 -394 63 -45 139 -105 167 -133 108 -105
124 -218 33 -218 -29 0 -83 34 -223 142 -104 80 -221 157 -308 203 -65 34 -82
39 -141 39 -116 0 -153 -50 -146 -199 6 -102 45 -187 161 -341 145 -194 282
-324 664 -632 204 -165 313 -285 382 -419 17 -35 21 -60 21 -148 l0 -106
-2242 4 c-2498 3 -2307 -2 -2553 72 -556 169 -981 594 -1150 1150 -76 250 -70
-11 -70 3245 0 3256 -6 2995 70 3245 124 410 385 747 753 974 217 134 505 226
767 244 28 2 1348 3 2935 2 2571 -1 2894 -3 2970 -17z"/>
<path d="M5950 9361 c0 -25 27 -100 47 -131 10 -14 16 -37 14 -52 -3 -28 38
-116 63 -137 12 -10 13 -17 6 -27 -16 -18 3 -77 44 -144 34 -54 34 -55 15 -73
-23 -21 -23 -19 -4 -63 8 -19 12 -41 9 -48 -10 -25 58 -133 111 -178 12 -10
15 -17 8 -18 -16 0 -17 -31 -3 -62 6 -13 35 -40 65 -61 60 -42 68 -57 31 -57
-57 0 -34 -54 41 -98 24 -15 57 -37 71 -49 l27 -22 -27 -1 c-18 0 -28 -5 -28
-14 0 -18 70 -80 158 -140 35 -24 71 -55 80 -68 139 -207 133 -196 136 -272 2
-48 12 -92 29 -137 22 -52 27 -82 27 -146 0 -63 4 -85 19 -104 10 -13 26 -52
35 -87 16 -62 47 -133 71 -162 7 -8 15 -49 18 -90 3 -44 16 -107 32 -150 15
-43 26 -94 25 -118 -1 -59 23 -148 70 -257 21 -49 42 -102 45 -116 9 -36 -31
-80 -97 -109 -70 -30 -1433 -321 -1740 -371 -42 -7 -74 -17 -71 -22 9 -14 361
7 1091 64 405 32 433 32 402 -6 -8 -9 -62 -41 -122 -71 -246 -123 -1260 -725
-1246 -740 3 -2 417 185 920 416 l916 420 88 1 c49 0 106 3 128 7 34 6 42 4
73 -25 19 -18 46 -36 61 -39 15 -4 48 -30 74 -59 26 -29 62 -60 81 -68 18 -9
50 -31 69 -50 20 -19 57 -40 82 -47 28 -7 48 -20 51 -31 8 -26 95 -109 120
-115 12 -3 29 -18 38 -34 10 -16 36 -37 58 -47 23 -10 47 -30 56 -46 20 -40
83 -108 109 -117 16 -7 20 -15 17 -33 -7 -34 24 -137 42 -144 9 -3 15 -18 15
-38 0 -46 9 -65 30 -65 15 0 20 -11 26 -47 9 -65 21 -93 38 -93 9 0 16 -20 22
-67 8 -60 11 -68 30 -67 18 0 27 -12 45 -60 18 -46 29 -61 44 -61 15 0 30 -21
63 -87 23 -49 49 -88 57 -88 8 0 30 -42 55 -107 45 -118 55 -135 77 -131 10 2
22 -17 36 -53 29 -74 53 -108 65 -91 7 10 15 5 35 -21 14 -19 29 -46 33 -61
14 -59 24 -33 18 51 -18 277 -80 874 -114 1094 -44 288 -48 301 -100 365 -26
33 -75 79 -109 104 -91 65 -433 477 -472 568 -28 64 -24 84 29 154 26 35 53
77 61 95 7 18 22 34 35 37 13 3 43 24 68 46 30 26 56 40 75 41 15 0 37 4 48 8
13 5 56 -4 125 -26 144 -45 154 -48 146 -35 -3 6 -48 40 -99 76 -89 64 -93 68
-111 126 -33 106 -131 172 -276 186 -73 8 -192 -18 -250 -54 -35 -21 -67 -30
-143 -40 -54 -7 -110 -18 -126 -26 l-27 -14 -23 116 c-88 431 -259 1042 -347
1231 -86 187 -238 374 -499 614 -161 148 -247 216 -445 348 -254 171 -516 374
-540 420 -14 24 -30 25 -30 0z"/>
<path d="M1093 6620 c-54 -24 -55 -47 -5 -90 154 -134 239 -337 263 -634 6
-73 19 -154 29 -184 32 -91 108 -179 257 -296 93 -73 115 -97 144 -158 20 -42
21 -51 9 -58 -8 -5 -24 -7 -35 -4 -37 11 -146 75 -213 127 -106 81 -139 97
-173 85 -24 -8 -32 -20 -45 -65 -22 -75 -22 -179 -1 -220 54 -102 241 -202
419 -224 78 -10 116 -9 238 5 414 49 629 25 776 -89 48 -38 134 -151 134 -177
0 -3 -11 -20 -25 -36 -46 -55 -54 -52 -202 84 -158 146 -208 175 -309 182
-152 10 -288 -37 -395 -135 -81 -75 -114 -126 -129 -197 -22 -106 -1 -175 79
-261 120 -128 190 -256 198 -360 4 -46 -2 -89 -26 -182 -36 -140 -40 -242 -15
-313 13 -36 30 -55 82 -92 36 -27 72 -48 81 -48 9 0 28 24 45 56 42 80 140
175 301 291 289 208 345 308 345 618 0 190 11 233 80 308 28 30 62 81 77 113
25 55 26 62 19 178 -24 450 -179 766 -576 1179 -204 212 -391 351 -615 458
-176 83 -307 120 -514 144 -171 20 -246 19 -298 -5z m928 -485 c48 -23 112
-59 141 -79 133 -87 294 -249 397 -396 l44 -63 -99 82 c-195 162 -304 224
-522 296 -203 68 -251 109 -206 173 38 55 118 51 245 -13z m376 -580 c85 -42
195 -126 243 -186 28 -36 30 -41 10 -26 -49 35 -207 106 -330 148 -134 45
-154 57 -145 82 18 44 109 37 222 -18z m255 -1489 c-43 -92 -164 -206 -219
-206 -28 0 -73 41 -73 66 0 32 102 113 210 169 58 29 107 49 108 44 2 -5 -10
-38 -26 -73z"/>
<path d="M4940 6629 c-440 -46 -783 -228 -1156 -610 -388 -398 -551 -732 -571
-1164 -7 -167 0 -192 91 -298 31 -37 61 -79 68 -94 6 -16 14 -118 18 -228 5
-151 11 -212 25 -250 47 -134 104 -201 285 -333 220 -160 299 -238 348 -340
14 -28 20 -32 42 -27 37 9 129 84 147 119 9 17 18 65 21 106 4 63 -2 101 -31
220 -38 155 -38 191 -3 288 22 62 95 170 169 251 80 87 91 117 85 232 -6 98
-15 116 -107 212 -93 98 -237 157 -380 157 -131 0 -191 -33 -364 -199 -64 -61
-120 -111 -126 -111 -6 0 -27 14 -46 32 -44 38 -42 54 14 137 59 86 159 149
291 182 80 20 369 18 560 -5 222 -26 334 -11 482 66 92 47 165 109 184 155 25
58 12 221 -20 262 -32 41 -84 26 -191 -59 -110 -85 -221 -145 -250 -134 -22 9
-19 23 16 87 24 46 52 74 140 143 61 47 133 114 161 148 78 93 99 147 109 284
24 301 97 500 236 639 72 72 78 98 28 123 -36 18 -157 22 -275 9z m-433 -459
c32 -19 50 -57 40 -84 -11 -27 -100 -70 -251 -121 -198 -67 -302 -127 -493
-287 -46 -38 -83 -66 -83 -62 0 16 120 165 200 248 108 112 228 202 355 265
132 66 178 74 232 41z m-387 -586 c27 -32 6 -46 -145 -99 -185 -65 -226 -83
-293 -129 l-53 -36 30 39 c86 109 258 219 372 239 50 9 74 6 89 -14z m-388
-1486 c65 -33 123 -72 162 -108 57 -55 60 -59 48 -84 -14 -32 -52 -51 -85 -42
-34 8 -137 96 -171 144 -27 40 -71 142 -60 142 3 0 51 -23 106 -52z"/>
</g>
</svg>
