<?xml version="1.0" standalone="no"?>
<!DOCTYPE svg PUBLIC "-//W3C//DTD SVG 20010904//EN"
 "http://www.w3.org/TR/2001/REC-SVG-20010904/DTD/svg10.dtd">
<svg version="1.0" xmlns="http://www.w3.org/2000/svg"
 width="110592.000000pt" height="110592.000000pt" viewBox="0 0 110592.000000 110592.000000"
 preserveAspectRatio="xMidYMid meet">
<metadata>
Created by potrace 1.11, written by Peter Selinger 2001-2013
</metadata>
<g transform="translate(0.000000,110592.000000) scale(11.059200,-11.059200)"
fill="#000000" stroke="none">
<path d="M1940 9985 c-394 -55 -750 -203 -1075 -448 -103 -78 -324 -299 -402
-402 -200 -266 -348 -580 -413 -880 -52 -241 -50 -92 -50 -3255 0 -3163 -2
-3014 50 -3255 65 -300 213 -614 413 -880 78 -103 299 -324 402 -402 329 -248
684 -395 1085 -449 157 -21 5943 -21 6100 0 399 54 758 202 1085 449 103 78
324 299 402 402 200 266 348 580 413 880 52 241 50 92 50 3255 0 3163 2 3014
-50 3255 -65 300 -213 614 -413 880 -78 103 -299 324 -402 402 -266 200 -580
348 -880 413 -241 52 -90 50 -3265 49 -2387 -1 -2973 -4 -3050 -14z m5700
-587 c0 -87 10 -106 98 -194 34 -34 62 -68 62 -77 0 -43 -93 -62 -152 -31 -35
18 -163 25 -212 11 -26 -7 -28 -6 -17 7 7 8 25 18 41 21 21 5 36 19 52 48 15
26 39 51 66 65 23 13 42 30 42 38 0 31 -88 58 -195 60 -55 0 -140 7 -189 14
-49 7 -110 9 -137 6 -39 -5 -49 -3 -57 10 -7 13 -19 16 -52 11 -23 -3 -49 -12
-58 -20 -10 -9 -47 -17 -89 -19 -77 -6 -112 -21 -140 -64 -15 -24 -15 -32 -3
-87 8 -34 15 -86 15 -115 1 -42 5 -55 23 -68 46 -32 101 -169 87 -215 -15 -47
29 -79 107 -79 37 0 47 -37 23 -90 -17 -38 -17 -39 5 -62 19 -20 21 -30 16
-88 -3 -36 -8 -81 -12 -101 -4 -28 0 -48 21 -88 18 -37 24 -61 20 -81 -8 -36
13 -57 68 -65 42 -6 43 -8 86 -91 24 -47 53 -92 66 -100 62 -41 144 68 145
194 0 37 12 40 57 13 37 -23 113 -116 113 -138 0 -8 -7 -30 -16 -49 -17 -35
-49 -45 -71 -23 -12 12 -60 9 -55 -3 1 -5 2 -35 2 -68 0 -44 4 -60 14 -60 7 0
16 -13 19 -28 9 -46 38 -73 85 -79 38 -5 42 -4 42 15 0 11 4 23 9 26 13 8 51
8 81 1 15 -4 33 0 45 8 16 12 17 17 6 30 -11 14 -9 15 21 11 18 -3 39 0 47 5
8 5 20 45 27 93 10 60 25 104 54 161 50 96 46 107 -44 107 -105 1 -161 38
-198 135 -14 34 -20 40 -46 40 -16 1 -38 7 -48 15 -37 31 -104 133 -104 159 0
18 -12 39 -35 61 -42 40 -41 57 6 133 16 26 29 51 29 56 0 5 -16 19 -36 32
-31 19 -44 21 -105 15 -38 -3 -69 -3 -69 1 0 5 8 22 18 38 18 29 21 30 93 30
41 1 81 4 90 8 10 5 24 -1 41 -18 23 -23 26 -35 30 -118 7 -143 43 -197 132
-197 26 0 39 -8 65 -40 39 -49 67 -51 114 -10 19 17 45 30 58 30 16 1 31 12
45 33 12 19 27 31 37 29 26 -4 40 43 33 111 -3 31 -2 57 2 57 4 0 22 -9 40
-20 47 -29 76 -98 67 -159 -15 -100 -56 -150 -129 -158 -25 -3 -46 -7 -46 -8
0 -2 92 -181 158 -310 33 -63 37 -78 37 -148 0 -71 -2 -81 -23 -98 -13 -10
-40 -23 -60 -29 -30 -8 -40 -18 -53 -49 -21 -49 -51 -69 -120 -81 -30 -5 -77
-18 -106 -30 -54 -23 -63 -37 -63 -97 0 -24 -7 -37 -25 -49 -14 -9 -37 -36
-51 -60 -14 -23 -32 -45 -40 -48 -21 -8 -62 15 -103 58 -37 38 -75 47 -85 19
-9 -24 11 -113 35 -152 20 -33 24 -34 79 -20 12 3 16 -8 18 -51 2 -30 8 -58
14 -61 16 -10 1 -70 -29 -116 -31 -49 -84 -81 -147 -89 -60 -9 -81 -24 -71
-53 8 -28 86 -78 133 -87 62 -12 7 -27 -123 -34 -136 -7 -179 -23 -199 -71
-18 -42 -9 -74 26 -104 37 -32 106 -33 196 -5 35 11 75 20 89 20 25 0 26 0 8
-20 -17 -19 -17 -21 1 -41 11 -13 17 -32 16 -52 -2 -28 3 -36 43 -62 67 -43
115 -142 115 -237 0 -61 -2 -69 -25 -84 -29 -19 -122 -20 -220 -3 -54 9 -67 8
-96 -7 -27 -14 -49 -16 -119 -11 -47 4 -96 10 -109 13 -21 6 -23 5 -18 -17 3
-13 3 -30 -1 -36 -11 -18 -77 -43 -112 -43 -42 0 -38 -14 14 -49 60 -42 82
-72 96 -134 13 -55 34 -102 56 -127 9 -11 14 -51 16 -120 l3 -104 35 -24 c31
-21 44 -23 108 -20 53 2 72 0 72 -9 0 -7 7 -30 16 -52 22 -56 69 -77 132 -61
26 6 64 22 84 36 29 18 51 24 97 24 57 0 59 1 64 30 8 37 42 60 104 68 l48 7
3 45 c1 25 14 68 29 97 27 51 27 52 10 88 -36 74 -17 113 92 194 85 64 92 77
51 109 -35 28 -35 53 1 103 24 33 24 36 0 90 -59 134 -21 178 96 109 19 -11
36 -20 37 -20 2 0 7 35 10 78 4 42 12 100 17 129 10 49 13 53 47 63 84 23 179
5 197 -37 5 -10 11 -43 14 -73 l6 -55 49 -7 c79 -11 79 -11 73 -72 -4 -45 -2
-57 13 -71 19 -17 18 -17 89 20 41 21 112 16 214 -15 l68 -21 -8 -37 c-4 -20
-7 -81 -6 -134 2 -107 -2 -114 -63 -102 -33 6 -34 6 -34 -29 0 -53 27 -67 120
-66 150 3 167 20 100 107 -22 29 -40 60 -40 70 0 9 18 46 40 82 57 93 53 139
-14 173 l-30 15 33 16 c38 20 38 45 -1 64 -14 7 -77 19 -140 27 -62 8 -127 20
-145 26 -37 12 -59 34 -43 44 20 13 9 23 -33 29 -77 12 -116 47 -141 129 -3 9
-15 17 -26 17 -84 0 -118 139 -37 148 42 5 86 -29 171 -128 42 -50 81 -90 86
-90 6 0 15 11 20 25 12 32 26 32 85 -6 29 -18 71 -34 107 -40 66 -11 155 -43
179 -65 10 -9 22 -48 30 -95 12 -77 14 -80 38 -78 46 2 49 0 78 -61 16 -34 35
-60 43 -60 9 0 41 -9 73 -20 34 -12 68 -18 82 -14 22 5 25 3 25 -20 0 -25 -2
-26 -32 -21 -43 8 -142 -18 -146 -37 -4 -19 107 -35 118 -17 6 8 9 8 14 0 4
-6 16 -11 27 -11 18 0 19 -10 19 -339 l0 -339 -42 5 c-73 8 -86 12 -93 33 -5
16 -15 20 -49 20 -26 0 -48 -6 -56 -15 -9 -11 -25 -13 -64 -9 -31 4 -76 0
-116 -9 -35 -9 -69 -13 -74 -10 -5 4 -7 69 -4 155 5 136 4 149 -12 158 -10 5
-31 7 -47 5 -15 -3 -59 -2 -96 3 -65 8 -70 7 -120 -23 -50 -30 -157 -77 -205
-90 -12 -4 -31 -23 -42 -44 -22 -45 -112 -129 -146 -137 -14 -4 -24 -14 -24
-23 0 -34 -59 -74 -126 -85 -37 -7 -42 -11 -53 -47 -14 -45 -39 -65 -96 -74
-22 -4 -52 -19 -67 -32 -25 -24 -32 -25 -119 -22 l-93 4 -7 -33 c-9 -44 -50
-104 -94 -138 -54 -41 -56 -49 -44 -181 9 -92 9 -131 0 -176 -24 -113 -112
-185 -238 -195 -65 -5 -79 -17 -43 -40 28 -17 26 -64 -5 -100 -17 -20 -30 -55
-39 -106 -17 -86 -24 -101 -61 -136 -15 -14 -37 -45 -49 -70 -41 -81 -51 -138
-51 -280 0 -127 2 -138 28 -192 15 -31 42 -67 61 -81 33 -25 33 -27 40 -129 7
-107 23 -240 32 -271 5 -17 3 -17 -35 3 -142 72 -407 71 -626 -3 l-70 -24 -3
-96 c-2 -76 0 -97 11 -97 7 0 17 4 22 8 6 5 35 19 65 30 148 58 347 71 454 31
107 -39 170 -117 182 -223 l7 -56 -207 0 c-312 0 -432 -33 -535 -146 -70 -77
-95 -157 -89 -293 3 -85 8 -106 36 -163 75 -154 244 -228 454 -201 128 16 191
45 270 122 l68 67 0 -83 0 -83 105 0 105 0 0 297 0 298 54 -81 c64 -95 134
-161 183 -170 34 -6 98 -1 141 12 14 4 22 2 22 -6 0 -27 63 -143 96 -175 28
-28 42 -35 75 -35 46 0 84 17 118 54 23 24 31 26 108 26 46 0 116 -5 155 -12
l71 -11 23 29 c13 16 26 41 29 55 10 44 57 49 70 8 8 -25 25 -24 66 4 34 23
40 32 80 120 31 70 110 151 181 186 34 17 68 31 77 31 9 0 27 8 40 17 23 16
25 15 48 -11 12 -15 23 -39 23 -53 0 -22 4 -25 24 -21 21 4 30 -3 61 -53 21
-35 43 -59 53 -59 9 0 30 21 47 45 36 54 51 61 66 33 6 -11 29 -38 52 -59 l40
-39 -7 -127 c-10 -178 -30 -301 -71 -438 -195 -641 -736 -1108 -1400 -1207
-74 -11 -620 -13 -3000 -13 -3250 0 -2990 -6 -3240 70 -556 169 -981 594
-1150 1150 -76 250 -70 -11 -70 3245 0 3256 -6 2995 70 3245 124 410 385 747
753 974 217 134 507 226 767 244 28 2 1280 4 2783 5 l2732 2 0 -72z m1808
-1608 c27 -48 27 -53 -3 -115 -25 -50 -21 -75 11 -75 12 0 14 -59 14 -347 -1
-324 -2 -346 -17 -318 -25 47 -44 65 -71 65 -17 0 -22 4 -19 14 26 66 14 129
-28 148 -17 7 -25 19 -25 36 0 13 -14 42 -31 64 -20 24 -32 52 -33 71 -1 21
-11 42 -28 59 -16 15 -28 34 -28 42 0 16 26 46 40 46 5 0 10 10 12 23 2 13 15
28 35 37 18 8 33 20 33 26 0 6 10 23 21 38 17 22 27 26 47 21 22 -5 24 -4 18
17 -13 48 -18 144 -7 170 13 35 30 29 59 -22z m11 -1044 c8 -9 11 -57 9 -145
l-3 -131 -34 18 c-41 20 -46 35 -56 160 l-7 90 29 10 c39 14 49 14 62 -2z
m-2199 -4278 c0 -116 -40 -234 -104 -313 -19 -23 -63 -57 -98 -76 -59 -32 -69
-34 -158 -34 -83 0 -102 3 -145 26 -71 36 -106 89 -112 171 -12 140 54 220
202 247 86 16 113 18 273 19 l142 2 0 -42z"/>
<path d="M860 7800 l0 -820 530 0 530 0 0 82 0 81 29 -39 c44 -60 81 -90 146
-121 57 -26 68 -28 200 -28 135 0 142 1 200 29 33 17 88 57 122 91 l63 61 0
-78 0 -78 105 0 105 0 0 615 0 615 -104 0 -105 0 -3 -412 -3 -413 -27 -57
c-35 -76 -97 -141 -161 -169 -67 -30 -223 -34 -273 -7 -49 27 -92 78 -116 137
-22 55 -23 68 -26 489 l-3 432 -105 0 -104 0 0 -130 0 -130 -385 0 -385 0 0
235 0 235 405 0 405 0 0 100 0 100 -520 0 -520 0 0 -820z m1000 -239 c0 -182
12 -293 39 -363 l11 -28 -410 0 -410 0 0 290 0 290 385 0 385 0 0 -189z"/>
<path d="M3551 8229 c-103 -17 -209 -84 -276 -174 -13 -18 -14 -12 -15 68 l0
87 -105 0 -105 0 0 -615 0 -615 105 0 105 0 0 348 c0 194 5 376 11 412 35 221
204 344 411 301 l57 -12 -28 -52 c-123 -220 -114 -601 19 -804 72 -110 185
-188 307 -213 89 -19 295 -9 368 18 163 60 274 193 327 392 28 108 28 333 -1
445 -54 207 -174 341 -356 398 -55 17 -94 22 -185 21 -162 0 -262 -32 -362
-116 l-48 -39 0 74 0 74 -46 7 c-59 8 -114 6 -183 -5z m776 -204 c132 -65 203
-217 203 -435 0 -263 -102 -427 -286 -459 -111 -20 -207 12 -283 94 -78 85
-111 192 -111 365 0 173 33 280 111 365 96 104 240 131 366 70z"/>
<path d="M5353 8225 c-86 -19 -155 -59 -214 -123 l-49 -54 0 81 0 81 -105 0
-105 0 0 -850 0 -850 105 0 105 0 0 311 0 311 51 -56 c153 -167 457 -178 636
-22 93 82 171 239 192 390 71 510 -212 869 -616 781z m167 -181 c105 -31 195
-148 226 -292 18 -86 18 -238 0 -323 -28 -130 -108 -243 -203 -285 -61 -27
-186 -25 -247 5 -136 67 -205 218 -206 447 0 232 85 394 234 446 64 22 127 23
196 2z"/>
<path d="M6380 8225 c-47 -7 -125 -26 -175 -42 l-90 -29 -3 -97 c-1 -53 1 -97
6 -97 5 0 38 13 73 29 100 45 192 64 309 65 133 1 201 -19 270 -81 51 -46 73
-89 84 -164 l7 -46 -218 -6 c-234 -6 -314 -18 -405 -61 -120 -57 -191 -155
-208 -288 -25 -198 51 -353 208 -426 49 -23 73 -27 177 -30 192 -7 284 24 387
130 l58 59 0 -81 0 -80 106 0 106 0 -5 423 c-5 458 -7 475 -63 593 -52 111
-144 184 -277 220 -78 21 -248 26 -347 9z m476 -707 c-14 -147 -53 -236 -137
-312 -65 -58 -131 -81 -234 -81 -70 1 -87 4 -134 30 -78 43 -105 89 -109 184
-3 64 1 83 20 121 51 99 146 127 437 129 l164 1 -7 -72z"/>
<path d="M860 5270 l0 -820 530 0 530 0 0 82 0 81 29 -39 c66 -91 146 -136
272 -155 154 -23 288 20 396 126 l63 61 0 -78 0 -78 105 0 105 0 0 615 0 615
-104 0 -105 0 -3 -412 -3 -413 -27 -57 c-35 -76 -97 -141 -161 -169 -67 -30
-223 -34 -273 -7 -49 27 -92 78 -116 137 -22 55 -23 68 -26 489 l-3 432 -105
0 -104 0 0 -130 0 -130 -385 0 -385 0 0 235 0 235 405 0 405 0 0 100 0 100
-520 0 -520 0 0 -820z m1000 -239 c0 -182 12 -293 39 -363 l11 -28 -410 0
-410 0 0 290 0 290 385 0 385 0 0 -189z"/>
<path d="M3551 5699 c-103 -17 -209 -84 -276 -174 -13 -18 -14 -12 -15 68 l0
87 -105 0 -105 0 0 -615 0 -615 105 0 105 0 0 348 c0 194 5 376 11 412 35 221
204 344 411 301 l57 -12 -28 -52 c-116 -207 -116 -569 0 -773 85 -150 211
-231 393 -254 318 -39 547 114 628 420 28 108 28 333 -1 445 -54 207 -174 341
-356 398 -55 17 -94 22 -185 21 -162 0 -262 -32 -362 -116 l-48 -39 0 74 0 74
-46 7 c-59 8 -114 6 -183 -5z m776 -204 c132 -65 203 -217 203 -435 0 -263
-102 -427 -286 -459 -111 -20 -207 12 -283 94 -78 85 -111 192 -111 365 0 173
33 280 111 365 96 104 240 131 366 70z"/>
<path d="M5353 5695 c-86 -19 -155 -59 -214 -123 l-49 -54 0 81 0 81 -105 0
-105 0 0 -850 0 -850 105 0 105 0 0 311 0 311 51 -56 c153 -167 457 -178 636
-22 93 82 171 239 192 390 71 510 -212 869 -616 781z m167 -181 c105 -31 195
-148 226 -292 18 -86 18 -238 0 -323 -28 -130 -108 -243 -203 -285 -61 -27
-186 -25 -247 5 -136 67 -205 218 -206 447 0 232 85 394 234 446 64 22 127 23
196 2z"/>
<path d="M6515 5703 c-237 -31 -418 -201 -481 -448 -26 -105 -24 -306 4 -408
62 -220 208 -361 431 -414 147 -35 389 -15 561 45 l75 27 3 102 3 102 -79 -34
c-188 -82 -399 -103 -542 -54 -138 47 -224 168 -254 357 l-5 32 466 0 466 0
-6 118 c-8 145 -27 225 -75 316 -102 195 -316 292 -567 259z m252 -209 c89
-43 156 -142 171 -254 l9 -60 -338 0 c-185 0 -345 -3 -354 -7 -15 -5 -16 -1
-10 38 27 161 134 277 285 309 72 15 178 3 237 -26z"/>
<path d="M860 2710 l0 -821 838 3 c760 3 843 5 897 21 192 56 285 163 285 327
0 85 -24 151 -74 207 -43 47 -135 102 -173 104 -10 0 5 9 34 20 64 25 127 91
143 151 16 57 8 184 -13 225 -25 48 -78 97 -133 123 -94 46 -142 52 -466 57
l-308 5 0 -521 0 -521 -400 0 -400 0 0 290 0 290 390 0 390 0 0 95 0 95 -390
0 -390 0 0 240 0 240 405 0 405 0 0 95 0 95 -520 0 -520 0 0 -820z m1637 221
c73 -32 105 -69 110 -128 6 -62 -23 -107 -92 -142 -47 -25 -59 -26 -232 -29
l-183 -4 0 168 0 167 173 -5 c148 -5 180 -9 224 -27z m14 -490 c94 -29 144
-92 144 -181 0 -89 -50 -152 -144 -181 -20 -6 -120 -14 -223 -16 l-188 -5 0
202 0 202 188 -5 c103 -3 203 -10 223 -16z"/>
<path d="M3460 3149 c-107 -14 -214 -79 -285 -174 -13 -18 -14 -12 -15 68 l0
87 -105 0 -105 0 0 -850 0 -850 105 0 105 0 0 316 0 316 39 -49 c144 -183 452
-205 648 -47 61 50 138 171 167 264 47 147 51 387 11 528 -54 183 -183 330
-330 375 -67 20 -156 27 -235 16z m177 -205 c126 -61 197 -216 197 -434 0
-129 -13 -196 -55 -287 -115 -244 -443 -244 -558 0 -88 189 -76 464 28 618 87
130 247 172 388 103z"/>
<path d="M4568 3150 c-133 -16 -232 -64 -318 -156 -115 -123 -154 -248 -154
-489 -1 -137 3 -171 22 -240 56 -195 174 -324 346 -377 94 -30 280 -32 371 -4
177 53 300 184 357 381 20 69 23 102 23 245 -1 128 -5 180 -19 229 -57 207
-194 352 -372 395 -79 19 -175 25 -256 16z m228 -208 c47 -24 115 -95 142
-149 41 -79 56 -153 56 -278 1 -71 -5 -143 -13 -175 -32 -127 -108 -232 -199
-273 -65 -29 -188 -30 -253 -1 -132 61 -204 193 -216 399 -16 274 104 480 292
504 67 9 142 -2 191 -27z"/>
<path d="M5340 2510 l0 -620 105 0 105 0 0 535 0 535 325 0 325 0 0 -535 0
-535 105 0 105 0 0 620 0 620 -535 0 -535 0 0 -620z"/>
</g>
</svg>
