<?xml version="1.0" standalone="no"?>
<!DOCTYPE svg PUBLIC "-//W3C//DTD SVG 20010904//EN"
 "http://www.w3.org/TR/2001/REC-SVG-20010904/DTD/svg10.dtd">
<svg version="1.0" xmlns="http://www.w3.org/2000/svg"
 width="110592.000000pt" height="110592.000000pt" viewBox="0 0 110592.000000 110592.000000"
 preserveAspectRatio="xMidYMid meet">
<metadata>
Created by potrace 1.11, written by Peter Selinger 2001-2013
</metadata>
<g transform="translate(0.000000,110592.000000) scale(11.059200,-11.059200)"
fill="#000000" stroke="none">
<path d="M1940 9985 c-394 -55 -750 -203 -1075 -448 -103 -78 -324 -299 -402
-402 -200 -266 -348 -580 -413 -880 -52 -241 -50 -92 -50 -3255 0 -3163 -2
-3014 50 -3255 65 -300 213 -614 413 -880 78 -103 299 -324 402 -402 329 -248
684 -395 1085 -449 157 -21 5943 -21 6100 0 399 54 758 202 1085 449 103 78
324 299 402 402 200 266 348 580 413 880 52 241 50 92 50 3255 0 3163 2 3014
-50 3255 -65 300 -213 614 -413 880 -78 103 -299 324 -402 402 -266 200 -580
348 -880 413 -241 52 -90 50 -3265 49 -2387 -1 -2973 -4 -3050 -14z m2987
-1352 c50 -40 85 -37 113 9 l18 30 36 -37 c48 -48 48 -84 -1 -158 -27 -41 -44
-57 -60 -57 -21 0 -23 -5 -23 -59 0 -51 3 -61 24 -74 18 -12 26 -29 31 -69 10
-79 41 -190 74 -263 27 -59 33 -65 59 -65 25 0 32 6 45 39 9 21 41 80 72 132
32 51 68 117 80 146 16 36 30 53 42 53 36 0 63 -13 63 -29 0 -10 14 -27 30
-40 59 -43 123 -149 268 -441 80 -162 165 -328 188 -367 24 -40 38 -73 31 -73
-18 0 -77 38 -77 50 0 5 -9 10 -20 10 -15 0 -20 -7 -20 -25 0 -21 -5 -25 -30
-25 -27 0 -30 -3 -30 -32 1 -43 35 -119 57 -125 10 -2 34 -27 53 -56 68 -99
138 -165 216 -203 l73 -35 -6 -68 c-7 -84 -2 -87 121 -101 97 -11 224 -46 351
-97 216 -86 357 -190 406 -297 28 -62 25 -76 -16 -76 -28 0 -38 5 -47 25 -15
33 -68 36 -68 4 0 -45 113 -115 330 -204 214 -87 298 -134 370 -205 77 -77
103 -107 119 -137 7 -13 17 -20 26 -17 9 4 16 -3 21 -20 4 -19 13 -26 30 -26
15 0 24 6 24 15 0 40 32 3 104 -120 129 -221 150 -291 132 -436 -22 -175 -6
-354 60 -683 19 -93 34 -171 34 -173 0 -2 6 -3 14 -3 13 0 26 -41 26 -81 0
-16 -5 -18 -25 -13 -21 5 -25 3 -25 -17 1 -13 7 -35 15 -49 8 -14 14 -35 15
-47 0 -15 13 -29 40 -44 22 -13 40 -26 40 -29 0 -4 11 -12 25 -18 38 -18 120
-98 154 -150 16 -26 36 -69 43 -95 11 -44 11 -50 -5 -62 -17 -12 -14 -17 38
-56 63 -48 75 -65 75 -108 0 -26 4 -31 24 -31 33 0 40 -14 25 -54 l-12 -33 90
-89 c49 -49 101 -109 114 -134 21 -39 29 -45 54 -43 172 12 275 15 349 8 l88
-7 -5 -451 c-4 -336 -9 -475 -20 -542 -65 -388 -226 -705 -497 -975 -276 -277
-608 -442 -1005 -502 -133 -19 -5597 -19 -5730 0 -397 60 -729 225 -1005 502
-185 185 -315 385 -403 620 -74 200 -103 358 -113 620 l-6 175 53 28 c30 15
93 58 141 96 48 38 112 81 142 96 116 57 286 57 401 0 30 -14 95 -58 143 -96
48 -38 120 -86 160 -106 68 -34 81 -37 182 -41 140 -6 216 15 316 88 38 27
100 72 138 100 103 75 160 93 286 94 147 0 198 -20 351 -140 146 -115 219
-144 366 -144 148 0 200 22 388 165 99 75 155 102 245 117 146 25 274 -15 420
-133 132 -105 227 -149 328 -149 l42 0 0 89 0 88 -56 7 c-111 13 -179 48 -339
172 -33 26 -89 61 -125 78 -63 30 -70 31 -200 31 -132 0 -137 -1 -201 -32 -35
-18 -105 -64 -154 -103 -113 -88 -192 -128 -284 -143 -143 -22 -269 18 -414
133 -155 122 -224 150 -373 150 -126 0 -197 -24 -299 -99 -209 -155 -256 -179
-380 -188 -85 -6 -190 16 -254 54 -25 14 -90 60 -145 102 -152 115 -182 126
-346 126 -132 0 -137 -1 -201 -32 -36 -18 -100 -60 -143 -93 -79 -63 -164
-120 -178 -120 -4 0 -8 89 -8 198 l1 197 37 17 c20 10 82 52 137 94 159 122
275 164 405 149 117 -13 165 -38 365 -185 119 -88 231 -117 378 -99 92 11 171
50 284 139 159 125 274 163 425 141 94 -14 170 -53 283 -141 49 -39 116 -84
150 -100 72 -36 175 -51 272 -40 115 14 171 41 312 152 143 113 263 151 408
129 97 -14 156 -44 278 -137 113 -86 197 -131 264 -139 25 -3 58 -8 74 -10
l27 -5 0 95 0 95 -33 0 c-50 0 -147 28 -197 57 -25 14 -81 54 -125 88 -153
118 -220 145 -366 145 -138 0 -217 -32 -359 -144 -132 -104 -195 -133 -312
-143 -134 -11 -241 26 -375 131 -173 136 -212 151 -384 151 -124 0 -125 0
-200 -37 -40 -21 -113 -69 -161 -107 -134 -106 -221 -141 -352 -141 -114 0
-212 41 -336 141 -147 117 -225 149 -371 149 -138 0 -217 -32 -359 -144 -76
-60 -145 -106 -160 -106 -7 0 -10 607 -10 1880 l0 1880 40 0 c28 0 43 5 47 16
4 12 21 15 82 13 42 -1 75 2 75 7 -1 5 -5 35 -9 67 l-6 57 33 0 c39 0 65 16
70 45 3 21 28 30 112 40 40 5 56 14 81 41 17 19 39 34 48 34 9 0 17 6 17 13 0
28 152 89 320 128 221 50 266 71 409 187 128 104 207 135 328 130 121 -6 191
-43 315 -169 84 -84 174 -159 192 -159 3 0 6 7 6 15 0 40 92 4 143 -56 44 -51
70 -128 86 -254 6 -49 18 -144 26 -210 19 -149 32 -194 61 -206 60 -22 72
-123 21 -177 -36 -39 -41 -75 -18 -120 37 -73 101 -115 178 -116 26 -1 33 -5
33 -21 0 -11 14 -32 30 -47 20 -17 30 -36 30 -55 0 -34 8 -46 38 -62 31 -17
28 -47 -8 -66 -23 -12 -30 -22 -30 -45 0 -41 34 -50 61 -16 20 26 44 31 86 20
13 -4 43 -39 75 -87 123 -187 326 -421 523 -600 230 -209 580 -474 602 -455 7
6 13 16 13 24 0 9 7 10 28 4 90 -26 129 -76 161 -207 43 -172 40 -164 61 -153
30 16 61 12 67 -9 5 -19 5 -19 24 0 26 26 62 12 69 -27 4 -23 11 -30 33 -32
22 -3 27 -8 27 -31 0 -16 -9 -40 -20 -54 -11 -14 -20 -28 -20 -31 0 -3 51 -6
113 -6 241 0 296 -58 232 -246 l-26 -73 34 -54 c41 -64 115 -131 175 -157 57
-26 58 -26 71 11 10 28 13 30 57 27 45 -3 47 -4 66 -52 10 -27 30 -91 44 -143
16 -61 42 -124 74 -180 51 -90 91 -184 111 -265 6 -27 17 -48 24 -48 18 0 40
-132 40 -245 0 -77 -4 -108 -18 -133 -21 -38 -50 -40 -55 -4 -4 28 -7 28 -68
-8 -92 -52 -131 -120 -80 -140 22 -8 24 -14 19 -47 -14 -96 -77 -186 -154
-220 l-41 -18 4 -85 c7 -129 33 -166 126 -176 45 -5 48 -4 69 30 28 44 63 68
111 75 33 6 37 10 40 39 2 17 9 32 15 32 7 0 25 37 40 83 58 167 140 302 244
398 89 82 161 116 324 153 29 6 29 2 3 165 -14 86 -14 95 0 103 18 10 21 56 6
110 -7 24 -31 55 -74 96 -52 48 -81 66 -158 96 -53 20 -103 45 -113 56 -26 29
-30 99 -10 161 40 124 178 362 250 432 38 37 86 53 180 59 38 3 41 1 67 -43
17 -29 40 -52 62 -63 38 -18 122 -36 170 -36 17 0 43 -7 58 -14 17 -9 41 -13
63 -9 49 8 75 -16 68 -63 -5 -29 -1 -38 29 -68 31 -31 36 -43 41 -100 10 -103
41 -148 121 -171 83 -25 82 -26 96 71 7 48 10 135 8 193 -9 217 -81 302 -393
458 -82 41 -177 93 -210 116 -59 40 -223 175 -360 297 -139 123 -202 163 -335
213 -191 70 -203 76 -196 93 3 9 6 23 6 32 0 10 19 27 46 41 123 66 176 208
110 294 -14 18 -16 17 -58 -4 -45 -24 -128 -31 -180 -16 -21 5 -28 4 -28 -7 0
-14 -16 -18 -113 -32 -42 -6 -51 -3 -72 16 -20 19 -31 22 -63 17 -32 -6 -46
-2 -83 22 -102 66 -177 140 -244 240 -37 56 -115 154 -173 219 -119 133 -184
220 -211 283 -14 32 -22 92 -31 224 -6 99 -16 188 -21 197 -5 10 -18 18 -29
18 -31 0 -50 39 -50 105 l-1 60 -77 60 c-42 33 -142 114 -222 180 -80 66 -163
134 -185 150 -22 17 -46 37 -53 45 -47 55 -100 216 -123 370 l-11 78 -29 -8
c-17 -5 -29 -5 -29 0 0 5 -26 22 -57 37 -75 37 -86 55 -53 88 23 22 29 24 60
15 19 -6 52 -10 73 -10 35 0 37 2 35 28 -3 38 8 52 40 52 26 0 27 2 24 39 -3
28 0 40 12 44 12 5 16 0 16 -23 0 -17 5 -30 10 -30 6 0 10 5 10 10 0 6 11 10
25 10 42 0 31 35 -67 210 l-37 65 40 120 c45 135 64 167 56 91 l-5 -48 37 5
c20 2 64 16 96 30 33 14 88 37 122 51 35 15 92 29 128 33 67 6 83 21 48 43
-16 9 -15 13 16 39 38 34 48 32 108 -16z m2271 -2381 c3 -17 -2 -22 -17 -22
-14 0 -21 6 -21 18 0 38 33 41 38 4z"/>
<path d="M2335 7083 c4 -17 -2 -30 -18 -47 -14 -14 -27 -36 -31 -50 -14 -56
-78 -101 -281 -200 -108 -53 -198 -103 -201 -110 -3 -8 5 -29 17 -46 l23 -31
-27 -25 c-32 -30 -32 -30 -7 -94 22 -56 26 -90 9 -90 -5 0 -17 -17 -26 -37
-32 -77 3 -166 81 -208 35 -19 43 -36 30 -69 -4 -11 -19 -16 -45 -16 -64 0
-49 -27 52 -94 87 -57 89 -59 89 -97 0 -40 22 -55 34 -24 3 8 16 15 30 15 13
0 32 3 41 6 22 9 45 57 45 96 0 43 25 78 55 78 22 0 27 10 55 98 107 333 180
749 150 862 -6 25 -15 59 -18 75 -6 24 -12 30 -35 30 -24 1 -27 -2 -22 -22z"/>
<path d="M2017 5713 c-4 -3 -7 -15 -7 -25 0 -10 -7 -18 -16 -18 -9 0 -41 -22
-71 -50 -99 -90 -241 -139 -409 -140 -63 0 -73 3 -87 23 -15 22 -15 22 -31
-17 -9 -21 -16 -42 -16 -47 0 -5 -4 -9 -9 -9 -5 0 -11 -26 -13 -57 -2 -32 -8
-66 -12 -75 -6 -14 -2 -20 20 -28 100 -38 137 -177 102 -380 -11 -63 -14 -70
-35 -70 -21 0 -23 -4 -23 -55 0 -54 1 -56 30 -62 30 -6 31 -7 28 -56 -3 -48
-5 -51 -36 -59 -18 -5 -34 -14 -36 -21 -7 -25 -75 -394 -81 -438 -6 -44 -8
-47 -40 -53 -32 -6 -34 -9 -28 -39 3 -18 7 -33 8 -35 2 -2 24 7 50 20 47 22
48 23 59 4 75 -129 134 -186 192 -186 59 0 119 101 94 160 -17 40 -5 67 38 89
56 28 88 32 138 20 40 -10 45 -15 41 -35 -5 -30 20 -53 70 -64 30 -7 42 -5 57
8 26 24 56 91 56 130 0 17 5 32 10 32 14 0 13 43 -1 57 -8 8 9 61 64 200 123
306 173 492 184 685 8 135 -7 218 -49 270 -46 58 -54 102 -32 179 4 14 -3 15
-43 12 -59 -6 -92 17 -128 88 -27 52 -28 53 -38 42z"/>
<path d="M3740 2197 c0 -26 -26 -67 -43 -67 -20 0 -86 -51 -122 -96 l-35 -43
30 -78 c44 -109 59 -123 159 -136 56 -7 81 -15 81 -24 0 -8 8 -16 18 -19 107
-35 226 -131 238 -193 5 -24 13 -30 42 -36 49 -9 355 -171 456 -242 105 -73
197 -149 217 -180 34 -51 79 -72 189 -88 58 -8 117 -18 133 -21 23 -6 27 -3
27 17 0 39 44 120 94 175 25 29 46 59 46 68 0 9 -18 33 -40 53 -34 32 -40 44
-40 78 0 22 -5 69 -11 105 -13 80 -8 100 31 125 36 24 63 76 86 169 12 50 29
83 61 125 24 31 56 73 71 93 15 21 32 37 39 38 6 0 17 16 23 35 6 18 27 48 46
65 26 22 34 36 29 50 -5 17 -12 18 -58 12 -29 -4 -85 -7 -126 -7 -67 0 -77 -3
-103 -27 -33 -30 -106 -57 -262 -93 -60 -14 -136 -35 -170 -46 -54 -19 -76
-21 -201 -16 -200 8 -336 50 -380 117 -15 23 -25 29 -40 25 -64 -20 -64 -20
-77 29 l-12 47 -101 -7 c-55 -4 -102 -8 -104 -10 -3 -2 6 -15 19 -29 27 -29
22 -49 -18 -63 -23 -8 -37 -7 -58 5 -45 23 -84 65 -84 90 0 18 -6 23 -25 23
-19 0 -25 -5 -25 -23z"/>
</g>
</svg>
