<?xml version="1.0" standalone="no"?>
<!DOCTYPE svg PUBLIC "-//W3C//DTD SVG 20010904//EN"
 "http://www.w3.org/TR/2001/REC-SVG-20010904/DTD/svg10.dtd">
<svg version="1.0" xmlns="http://www.w3.org/2000/svg"
 width="110592.000000pt" height="110592.000000pt" viewBox="0 0 110592.000000 110592.000000"
 preserveAspectRatio="xMidYMid meet">
<metadata>
Created by potrace 1.11, written by Peter Selinger 2001-2013
</metadata>
<g transform="translate(0.000000,110592.000000) scale(11.059200,-11.059200)"
fill="#000000" stroke="none">
<path d="M1940 9985 c-394 -55 -750 -203 -1075 -448 -103 -78 -324 -299 -402
-402 -200 -266 -348 -580 -413 -880 -52 -241 -50 -92 -50 -3255 0 -3163 -2
-3014 50 -3255 65 -300 213 -614 413 -880 78 -103 299 -324 402 -402 329 -248
684 -395 1085 -449 157 -21 5943 -21 6100 0 399 54 758 202 1085 449 103 78
324 299 402 402 200 266 348 580 413 880 52 241 50 92 50 3255 0 3163 2 3014
-50 3255 -65 300 -213 614 -413 880 -78 103 -299 324 -402 402 -266 200 -580
348 -880 413 -241 52 -90 50 -3265 49 -2387 -1 -2973 -4 -3050 -14z m6090
-537 c367 -68 682 -231 935 -483 213 -213 357 -461 441 -757 60 -214 57 -93
61 -2132 l4 -1869 -96 7 c-143 11 -798 8 -970 -4 -753 -52 -1398 -169 -2015
-365 -133 -42 -444 -58 -604 -30 -196 34 -338 127 -461 300 -41 58 -43 64 -56
180 -9 79 -14 228 -13 435 0 276 3 332 23 450 46 279 112 498 205 684 57 113
98 152 149 142 51 -10 118 -67 183 -155 75 -102 98 -165 114 -325 12 -113 38
-202 68 -229 77 -70 410 -113 550 -72 47 14 52 18 52 45 0 92 78 200 194 269
78 46 205 91 231 80 33 -13 108 -10 166 7 77 22 178 86 264 166 78 72 116 128
151 218 12 30 38 91 57 135 19 44 38 98 42 120 6 38 2 45 -66 135 -117 155
-154 259 -114 317 8 12 40 36 71 53 91 53 95 92 18 175 -67 72 -68 75 -109
245 -23 90 -45 160 -54 168 -48 38 -106 65 -148 67 -27 2 -49 9 -54 17 -5 8
-19 85 -33 171 -29 186 -28 186 -196 327 -133 113 -179 161 -240 250 -116 173
-206 236 -475 335 -71 26 -161 63 -200 81 -71 33 -146 97 -171 145 -12 25 -18
26 -94 28 -72 2 -88 -1 -143 -28 -76 -37 -285 -89 -389 -98 -58 -4 -89 -2
-128 11 -48 16 -56 16 -128 0 -65 -15 -128 -17 -399 -15 -344 2 -407 -4 -512
-49 -28 -13 -72 -38 -98 -56 -52 -37 -70 -40 -119 -22 -31 11 -36 8 -223 -122
-106 -74 -200 -145 -210 -159 -45 -66 -82 -143 -87 -185 -6 -42 -4 -48 25 -75
17 -16 31 -34 31 -40 0 -17 -60 -80 -107 -113 -24 -16 -116 -66 -204 -109
-137 -68 -169 -88 -222 -142 -119 -121 -200 -306 -253 -583 -2 -11 -38 -67
-79 -125 -132 -181 -208 -365 -234 -564 -7 -49 -26 -154 -43 -232 -17 -80 -28
-152 -24 -166 17 -70 197 -226 261 -227 40 0 266 -77 385 -130 168 -75 274
-138 428 -252 36 -28 53 -33 111 -36 78 -5 161 15 231 55 131 76 256 206 317
331 32 67 39 75 91 101 117 59 338 114 507 127 l91 7 37 -79 c162 -346 202
-837 107 -1305 -29 -141 -141 -488 -191 -594 -23 -46 -27 -50 -69 -57 -25 -4
-198 -7 -385 -6 -340 0 -415 -5 -525 -38 -64 -19 -162 -67 -206 -100 -17 -13
-36 -24 -42 -24 -5 0 -108 27 -229 61 -487 136 -1188 299 -1718 400 -258 49
-797 141 -908 154 l-58 7 4 1822 c4 1986 1 1870 61 2084 200 705 809 1205
1531 1255 28 2 1348 3 2935 2 2571 -1 2894 -3 2970 -17z m-7115 -5443 c2808
-460 5534 -1497 7722 -2937 l213 -140 -66 -50 c-86 -65 -199 -134 -300 -182
l-80 -38 -85 54 c-607 390 -1581 907 -2319 1233 -1675 739 -3518 1285 -5265
1560 -88 14 -170 27 -182 30 l-23 5 0 264 0 263 23 -3 c12 -2 175 -29 362 -59z
m8458 -22 l97 -6 0 -316 0 -317 -197 -12 c-822 -53 -1599 -218 -2288 -489
-145 -57 -392 -171 -505 -233 l-65 -36 -120 54 c-266 120 -524 230 -788 336
l-277 113 127 70 c853 473 1997 777 3148 836 123 6 774 7 868 0z m-8628 -718
c88 -14 257 -43 375 -65 2494 -458 4917 -1366 6892 -2581 l87 -54 -77 -13
c-47 -8 -222 -15 -454 -19 l-376 -5 -54 30 c-287 162 -945 483 -1408 687
-1563 689 -3340 1217 -5030 1495 -69 11 -135 23 -147 25 l-23 5 0 266 0 266
28 -6 c15 -3 99 -17 187 -31z m8725 -449 l0 -294 -67 -7 c-655 -63 -1314 -230
-1769 -449 l-108 -52 -213 113 c-118 63 -306 160 -419 216 -112 56 -204 104
-204 107 0 3 35 23 77 44 529 265 1221 463 1948 555 256 32 517 55 678 59 l77
2 0 -294z m-8679 -330 c1927 -329 3965 -990 5624 -1824 l260 -131 -582 0 -583
-1 -141 60 c-1176 503 -2450 910 -3744 1195 -379 83 -851 175 -1026 199 -59 9
-57 -2 -65 310 l-7 238 29 -6 c16 -3 122 -21 235 -40z m8674 -313 c-11 -176
-41 -353 -59 -353 -19 0 -292 -43 -381 -60 -220 -42 -505 -124 -655 -188 l-44
-19 -136 82 c-74 44 -192 114 -262 154 -71 40 -128 75 -128 76 0 7 224 96 335
135 338 116 711 201 1090 249 203 26 217 28 234 30 11 1 12 -18 6 -106z
m-8750 -449 c434 -74 1185 -238 1645 -359 841 -221 1545 -450 2424 -791 l100
-39 -774 -3 -774 -2 -246 74 c-654 199 -1319 370 -1954 501 -179 37 -212 47
-228 67 -58 74 -153 226 -196 313 -41 82 -102 233 -102 251 0 6 7 5 105 -12z
m8582 -221 c-18 -38 -48 -94 -66 -127 -37 -63 -168 -243 -193 -263 -12 -11
-49 10 -224 127 -115 77 -210 144 -212 149 -7 22 376 118 698 174 14 2 26 5
27 6 1 0 -12 -29 -30 -66z m-7841 -709 c190 -42 930 -228 994 -249 42 -14 31
-15 -170 -10 -118 2 -258 11 -311 20 -127 19 -307 75 -433 132 -121 56 -269
143 -243 143 2 0 75 -16 163 -36z"/>
</g>
</svg>
