<?xml version="1.0" standalone="no"?>
<!DOCTYPE svg PUBLIC "-//W3C//DTD SVG 20010904//EN"
 "http://www.w3.org/TR/2001/REC-SVG-20010904/DTD/svg10.dtd">
<svg version="1.0" xmlns="http://www.w3.org/2000/svg"
 width="110592.000000pt" height="110592.000000pt" viewBox="0 0 110592.000000 110592.000000"
 preserveAspectRatio="xMidYMid meet">
<metadata>
Created by potrace 1.11, written by Peter Selinger 2001-2013
</metadata>
<g transform="translate(0.000000,110592.000000) scale(21.600000,-21.600000)"
fill="#000000" stroke="none">
<path d="M2308 5102 c-43 -20 -2199 -1671 -2241 -1717 -91 -97 -70 -244 43
-312 19 -11 207 -65 417 -119 210 -54 381 -99 380 -99 -37 -22 -830 -639 -847
-659 -84 -100 -58 -248 54 -306 23 -12 210 -65 417 -118 l377 -97 -385 -295
c-449 -344 -470 -361 -494 -415 -43 -93 -5 -211 83 -257 56 -30 2694 -708
2753 -708 35 0 65 7 93 23 46 25 2081 1928 2126 1988 23 30 31 53 34 99 2 32
1 71 -2 85 -9 37 -69 99 -113 118 -21 9 -186 42 -368 73 -181 30 -331 57 -333
58 -1 2 168 164 377 359 209 196 392 373 407 393 54 70 42 207 -23 266 -37 34
-93 47 -419 103 -181 31 -333 57 -338 58 -5 2 169 170 386 374 247 232 401
384 411 406 22 45 22 138 1 180 -23 45 -44 66 -85 88 -43 22 -2539 449 -2621
449 -29 0 -70 -8 -90 -18z m1897 -1872 c143 -24 263 -46 268 -50 4 -3 -370
-360 -831 -792 l-839 -785 -1066 276 c-587 151 -1067 278 -1066 281 1 14 735
565 748 562 9 -2 329 -84 711 -183 383 -98 712 -179 733 -179 79 0 102 19 589
476 260 244 478 442 483 440 6 -2 127 -23 270 -46z m271 -1232 c2 -3 -372
-358 -832 -789 -562 -526 -844 -783 -856 -782 -14 2 -2093 537 -2119 546 -10
3 721 562 740 565 9 1 330 -78 713 -178 383 -99 715 -180 737 -180 85 0 103
15 594 474 l471 441 273 -46 c151 -25 276 -49 279 -51z"/>
</g>
</svg>
