<?xml version="1.0" standalone="no"?>
<!DOCTYPE svg PUBLIC "-//W3C//DTD SVG 20010904//EN"
 "http://www.w3.org/TR/2001/REC-SVG-20010904/DTD/svg10.dtd">
<svg version="1.0" xmlns="http://www.w3.org/2000/svg"
 width="110592.000000pt" height="110592.000000pt" viewBox="0 0 110592.000000 110592.000000"
 preserveAspectRatio="xMidYMid meet">
<metadata>
Created by potrace 1.11, written by Peter Selinger 2001-2013
</metadata>
<g transform="translate(0.000000,110592.000000) scale(115.200000,-115.200000)"
fill="#000000" stroke="none">
<path d="M450 880 c-35 -10 -342 -150 -358 -162 -6 -6 -12 -23 -12 -39 0 -26
7 -33 65 -61 36 -18 65 -35 65 -38 0 -4 -28 -20 -62 -36 -47 -22 -64 -35 -66
-52 -5 -32 14 -51 80 -80 32 -13 58 -27 58 -31 -1 -3 -32 -20 -70 -38 -63 -29
-70 -35 -70 -61 0 -16 6 -34 13 -40 6 -5 87 -44 179 -86 117 -53 179 -76 206
-76 38 0 78 17 320 131 76 37 82 42 82 70 0 27 -6 33 -70 62 -38 18 -69 35
-70 38 0 4 26 18 58 31 109 48 111 86 7 137 l-70 34 55 24 c30 14 63 32 73 40
20 19 23 56 5 70 -21 15 -341 159 -368 165 -14 3 -36 2 -50 -2z m-57 -376 c65
-34 109 -34 174 -1 l51 27 51 -22 c28 -11 51 -23 51 -27 0 -8 -222 -111 -240
-111 -19 0 -240 103 -240 111 0 5 75 42 98 48 1 1 26 -11 55 -25z m7 -199 c74
-31 86 -31 159 0 l59 25 51 -22 c28 -11 51 -23 51 -27 0 -8 -222 -111 -240
-111 -19 0 -240 103 -240 111 0 5 75 42 98 48 1 1 29 -10 62 -24z"/>
</g>
</svg>
