<?xml version="1.0" standalone="no"?>
<!DOCTYPE svg PUBLIC "-//W3C//DTD SVG 20010904//EN"
 "http://www.w3.org/TR/2001/REC-SVG-20010904/DTD/svg10.dtd">
<svg version="1.0" xmlns="http://www.w3.org/2000/svg"
 width="110592.000000pt" height="110592.000000pt" viewBox="0 0 110592.000000 110592.000000"
 preserveAspectRatio="xMidYMid meet">
<metadata>
Created by potrace 1.11, written by Peter Selinger 2001-2013
</metadata>
<g transform="translate(0.000000,110592.000000) scale(3.583668,-3.583668)"
fill="#000000" stroke="none">
<path d="M17675 28944 c-345 -64 -357 -68 -625 -200 -245 -121 -426 -239 -492
-320 -49 -59 -149 -258 -204 -402 -24 -63 -50 -122 -58 -131 -17 -20 -81 -280
-100 -411 -18 -115 -53 -318 -67 -379 -13 -60 -94 -671 -114 -861 -23 -225
-35 -464 -35 -720 0 -124 -5 -369 -10 -545 -9 -289 -15 -391 -39 -650 -4 -44
-6 -82 -4 -84 2 -3 47 41 101 96 71 73 114 109 160 132 44 22 90 59 150 120
48 49 107 101 132 117 79 51 225 175 365 312 41 39 79 72 84 72 4 0 25 21 45
47 20 26 60 65 90 87 70 53 146 122 309 279 232 224 248 241 301 312 29 39 60
76 70 84 9 8 33 38 52 67 19 29 52 68 72 86 20 19 50 52 66 73 62 83 251 262
306 290 30 15 71 40 90 55 19 15 56 41 82 56 25 16 74 50 107 76 33 25 84 54
113 63 94 31 190 95 320 215 33 30 88 73 123 95 107 68 178 117 221 151 22 19
67 46 100 60 32 15 78 40 101 56 23 15 63 37 89 48 26 11 60 32 77 46 16 14
56 38 88 54 32 16 61 35 64 41 4 6 31 26 60 44 28 19 92 74 141 123 49 49 107
102 130 118 22 16 67 50 100 77 32 26 83 56 113 67 29 11 72 33 95 49 22 15
61 37 86 48 43 19 125 71 233 148 56 40 62 36 -98 60 -107 15 -164 31 -425
119 -91 31 -246 78 -345 106 -254 71 -592 184 -710 237 -230 104 -277 123
-430 176 -148 51 -306 88 -495 117 -41 7 -125 21 -187 31 -144 24 -237 23
-398 -7z"/>
<path d="M23850 28500 c-200 -13 -354 -51 -579 -144 -74 -31 -139 -56 -144
-56 -6 0 -15 -6 -21 -14 -6 -8 -60 -35 -121 -61 -137 -59 -366 -166 -595 -279
-96 -47 -180 -86 -186 -86 -7 0 -14 -4 -16 -9 -1 -5 -28 -21 -58 -36 -79 -40
-207 -122 -265 -170 -27 -23 -77 -58 -110 -77 -33 -20 -132 -79 -220 -133 -88
-54 -188 -114 -222 -134 -34 -20 -153 -95 -265 -167 -112 -71 -217 -139 -234
-150 -62 -38 -353 -235 -586 -395 -378 -261 -469 -325 -538 -377 -36 -27 -180
-132 -320 -232 -335 -241 -466 -339 -820 -614 -467 -364 -567 -446 -769 -631
-36 -34 -82 -72 -101 -87 -19 -14 -88 -77 -152 -139 -110 -107 -159 -152 -351
-328 -43 -39 -92 -79 -110 -87 -46 -24 -147 -110 -187 -159 -47 -57 -83 -86
-156 -125 -34 -17 -79 -50 -101 -73 -143 -147 -252 -247 -325 -296 -25 -17
-112 -98 -192 -178 l-146 -148 0 -50 c0 -28 4 -55 9 -60 5 -6 12 -21 15 -35 4
-15 -2 -9 -14 14 -11 22 -20 57 -20 78 0 45 -5 46 -44 12 -25 -22 -28 -29 -18
-45 7 -10 12 -27 11 -36 -1 -12 -3 -9 -8 7 -4 14 -15 26 -24 28 -20 4 -284
-256 -393 -388 -39 -47 -138 -160 -220 -251 -479 -533 -577 -644 -669 -764
-56 -72 -120 -158 -142 -191 -126 -185 -299 -453 -353 -549 -35 -60 -91 -155
-125 -210 -34 -55 -118 -210 -187 -345 -121 -238 -223 -419 -277 -490 -15 -19
-41 -65 -59 -101 -42 -87 -365 -573 -554 -834 -40 -55 -255 -400 -280 -450
-41 -80 -151 -257 -208 -334 -32 -44 -133 -194 -224 -333 -258 -397 -332 -496
-538 -713 -52 -55 -113 -126 -137 -158 -23 -31 -62 -80 -86 -107 -51 -58 -122
-152 -147 -195 -50 -88 -51 -92 -39 -206 23 -219 57 -297 183 -425 90 -92 92
-93 112 -76 21 17 21 17 2 -5 -10 -12 -16 -28 -13 -36 7 -18 194 -171 272
-223 85 -57 167 -101 229 -124 100 -38 299 -226 404 -381 74 -111 100 -183
126 -354 48 -307 120 -518 198 -577 32 -24 129 -77 218 -119 44 -21 163 -64
622 -223 119 -41 239 -86 266 -100 78 -39 147 -100 226 -199 41 -50 89 -108
108 -127 50 -51 147 -123 202 -151 26 -13 70 -45 97 -71 28 -26 57 -48 65 -48
19 0 77 29 86 44 5 8 8 7 8 -2 0 -7 -16 -20 -35 -29 -20 -9 -34 -21 -32 -27 2
-6 55 -32 118 -59 138 -60 192 -66 454 -48 265 19 291 28 500 178 66 47 152
107 190 134 39 26 115 85 170 131 191 158 477 371 585 437 36 22 97 67 135
100 39 33 93 77 122 98 28 21 107 80 175 132 67 51 132 97 143 101 11 4 31 20
45 35 14 15 70 66 125 113 55 48 147 131 205 187 150 144 233 213 613 508 34
26 98 80 142 119 96 84 1060 1024 1185 1155 48 50 153 183 234 295 80 111 192
253 248 313 55 61 136 153 179 206 69 85 103 122 164 179 44 41 795 1113 795
1135 0 1 48 83 106 181 58 98 114 200 125 226 28 71 77 166 117 226 65 99 265
522 325 687 14 39 46 120 72 180 25 61 66 166 91 235 25 69 76 188 114 265 37
77 100 215 140 308 40 92 108 227 153 300 44 72 119 213 167 312 48 99 113
227 144 285 31 58 73 141 93 185 20 44 71 155 114 247 43 92 85 194 94 227 8
33 29 88 45 123 17 35 30 71 30 80 0 9 18 52 39 95 48 95 127 269 136 301 3
12 24 61 46 107 21 47 39 90 39 97 0 6 20 61 44 122 24 61 52 138 61 171 9 33
25 76 36 97 26 51 75 188 94 261 9 34 27 82 42 107 78 136 154 297 223 475 43
110 106 265 140 345 34 80 78 186 96 235 19 50 41 104 49 122 8 17 15 35 15
40 0 8 29 85 114 303 79 201 170 421 206 495 21 45 52 130 70 190 17 61 46
155 65 210 18 55 39 127 45 160 6 33 29 114 51 180 39 121 109 419 135 575 17
101 19 413 4 545 -12 101 -41 222 -69 287 -47 109 -152 211 -278 270 -94 45
-280 57 -583 38z m-257 -2720 c-5 -21 -33 -49 -33 -33 0 9 29 53 35 53 2 0 1
-9 -2 -20z m-53 -176 c0 -8 -5 -12 -10 -9 -6 4 -8 11 -5 16 9 14 15 11 15 -7z"/>
<path d="M21240 27395 c-33 -19 -21 -19 21 0 19 8 27 14 19 14 -8 0 -26 -6
-40 -14z"/>
<path d="M21190 27370 c-9 -6 -10 -10 -3 -10 6 0 15 5 18 10 8 12 4 12 -15 0z"/>
<path d="M20954 27225 c-10 -8 -14 -14 -9 -14 6 0 19 6 29 14 11 8 15 15 10
15 -6 0 -19 -7 -30 -15z"/>
<path d="M20894 27185 c-10 -8 -14 -15 -8 -15 6 0 17 7 24 15 16 19 9 19 -16
0z"/>
<path d="M20790 27140 c-13 -8 -12 -10 3 -10 9 0 17 5 17 10 0 12 -1 12 -20 0z"/>
<path d="M20655 27042 c-28 -26 -46 -44 -41 -39 6 4 17 7 26 8 15 1 89 79 74
79 -5 0 -32 -22 -59 -48z"/>
<path d="M25018 25202 c-37 -93 -58 -173 -58 -220 0 -55 -32 -152 -68 -209
-17 -27 -47 -79 -67 -118 -104 -198 -145 -281 -145 -292 0 -8 -13 -40 -30 -73
-16 -33 -30 -66 -30 -73 0 -8 -15 -45 -34 -83 -19 -38 -44 -95 -56 -126 -12
-32 -37 -79 -55 -105 -45 -63 -129 -208 -148 -255 -9 -20 -23 -64 -31 -97 -9
-34 -26 -82 -39 -108 -14 -27 -39 -93 -56 -148 -18 -55 -41 -127 -52 -160 -12
-33 -29 -90 -39 -128 -10 -37 -27 -84 -38 -105 -36 -69 -50 -97 -95 -192 -24
-52 -50 -111 -58 -130 -7 -19 -22 -51 -34 -70 -12 -19 -28 -53 -35 -75 -7 -22
-23 -60 -36 -85 -13 -25 -24 -52 -24 -60 0 -8 -11 -39 -25 -68 -14 -30 -32
-82 -40 -115 -9 -34 -34 -99 -57 -145 -34 -69 -42 -97 -49 -171 -7 -78 -28
-157 -50 -186 -4 -5 -16 -39 -27 -75 -11 -36 -39 -119 -62 -185 -23 -66 -48
-145 -56 -176 -7 -31 -38 -105 -68 -165 -30 -60 -59 -133 -65 -162 -12 -59
-48 -134 -84 -178 -13 -16 -37 -54 -53 -84 -17 -30 -35 -64 -41 -75 -21 -38
-83 -177 -83 -187 0 -6 8 -7 17 -4 10 4 72 21 138 37 66 17 174 48 240 69 141
45 213 60 800 165 606 108 923 180 1067 240 34 15 75 29 91 32 15 3 27 11 27
18 0 6 10 17 23 23 58 27 336 281 459 420 207 231 276 377 307 642 16 137 31
510 31 765 0 201 -2 229 -25 325 -74 304 -368 1041 -495 1243 -29 45 -141 208
-250 362 -178 254 -304 439 -385 567 l-30 46 -27 -66z"/>
<path d="M7500 21694 c-140 -38 -416 -209 -547 -340 -75 -75 -88 -93 -152
-225 -82 -168 -143 -320 -166 -410 -9 -35 -25 -76 -36 -91 -10 -15 -19 -37
-19 -48 0 -39 -32 -85 -124 -175 -86 -84 -96 -99 -152 -215 -33 -69 -79 -156
-102 -193 -23 -38 -51 -90 -62 -115 -12 -26 -48 -91 -81 -145 -99 -161 -100
-163 -106 -369 -3 -117 -10 -195 -19 -221 -8 -22 -14 -73 -14 -114 0 -61 -6
-90 -35 -166 -43 -111 -92 -207 -154 -305 -120 -190 -271 -418 -346 -522 -45
-63 -134 -204 -199 -312 -135 -228 -186 -299 -389 -535 -142 -165 -179 -216
-531 -738 -62 -93 -150 -235 -194 -315 -215 -391 -330 -592 -379 -663 -30 -43
-61 -97 -69 -120 -16 -45 -34 -79 -211 -397 -106 -192 -288 -550 -453 -895
-32 -67 -93 -208 -135 -315 -42 -107 -100 -253 -130 -325 -29 -71 -74 -195
-100 -275 -89 -272 -242 -697 -290 -805 -15 -33 -47 -132 -72 -220 -24 -88
-60 -216 -80 -285 -109 -384 -126 -461 -177 -825 -18 -126 -21 -354 -5 -441 6
-32 24 -104 40 -159 124 -412 248 -715 379 -925 141 -225 425 -556 575 -670
188 -143 496 -308 701 -376 194 -63 302 -83 484 -90 246 -9 407 10 785 92 61
13 184 35 275 49 91 14 262 48 380 76 118 27 296 65 394 84 298 57 473 107
698 201 144 59 168 64 168 35 0 -20 -169 -283 -189 -295 -6 -4 -11 -14 -11
-23 0 -21 -48 -114 -103 -200 -25 -39 -89 -162 -142 -274 -176 -371 -267 -627
-392 -1113 -47 -182 -89 -349 -94 -371 -9 -40 -77 -485 -101 -665 -17 -128
-17 -839 0 -1010 62 -599 128 -976 224 -1269 79 -240 195 -446 377 -670 42
-51 93 -116 114 -145 94 -128 409 -448 561 -569 34 -27 68 -55 76 -63 22 -22
228 -148 301 -184 35 -18 90 -48 121 -67 87 -52 185 -84 607 -199 668 -182
746 -197 1071 -209 194 -7 227 -5 695 55 332 42 380 49 630 99 83 16 191 37
240 47 50 9 133 30 185 45 52 16 143 38 201 49 59 11 156 34 215 51 60 17 262
70 449 119 375 98 380 100 845 259 179 61 388 130 465 152 167 48 625 194 780
249 156 55 208 77 493 211 139 65 255 119 258 119 3 0 38 15 77 34 40 19 99
46 132 59 33 14 114 51 180 82 119 57 172 78 335 137 47 16 158 63 247 104 89
41 167 74 172 74 6 0 30 14 53 30 24 17 78 54 120 83 161 109 397 274 490 343
143 106 177 116 298 84 55 -15 255 -7 350 14 36 7 108 28 160 45 52 17 100 31
106 31 5 0 32 14 60 32 27 17 75 41 107 54 32 13 76 39 97 58 44 40 110 75
188 101 36 11 73 35 115 73 98 90 100 92 146 125 24 18 64 51 90 73 25 23 67
53 93 67 62 33 243 191 271 236 12 20 40 56 63 81 61 67 130 173 149 229 9 27
22 55 30 61 8 6 27 35 43 63 16 29 45 66 63 82 19 17 65 57 102 89 80 69 110
110 172 228 l45 88 0 131 c0 243 -29 318 -149 390 -87 52 -168 77 -288 89 -56
5 -134 17 -175 26 -117 27 -365 5 -543 -47 -140 -41 -347 -163 -535 -314 -69
-56 -179 -142 -245 -192 -66 -50 -150 -119 -187 -152 -75 -70 -212 -238 -313
-386 -37 -55 -77 -111 -87 -125 -10 -14 -53 -77 -95 -140 -42 -63 -101 -149
-132 -190 -67 -92 -276 -327 -350 -395 -30 -27 -129 -122 -220 -210 -146 -141
-178 -167 -266 -214 -55 -30 -152 -85 -215 -122 -63 -37 -140 -79 -170 -92
-142 -65 -192 -86 -285 -122 -55 -21 -113 -44 -130 -51 -16 -7 -52 -18 -80
-25 -27 -6 -54 -15 -60 -19 -19 -14 -340 -148 -395 -165 -30 -9 -89 -32 -130
-50 -151 -68 -577 -225 -610 -225 -6 0 -124 -45 -263 -101 -220 -88 -287 -109
-527 -170 -151 -39 -346 -90 -433 -115 -103 -29 -187 -47 -242 -51 -56 -4 -85
-10 -85 -18 0 -8 -60 -22 -172 -40 -95 -15 -177 -31 -183 -35 -5 -4 -44 -12
-85 -19 -41 -7 -138 -30 -215 -51 -146 -41 -237 -57 -516 -90 -247 -30 -522
-86 -764 -156 -136 -40 -389 -93 -610 -129 -392 -63 -635 -68 -872 -19 -191
39 -504 146 -681 231 -85 42 -623 389 -743 479 -63 49 -185 198 -299 369 -226
339 -279 463 -305 726 -17 174 -39 316 -86 554 -62 322 -97 960 -69 1272 5 56
25 169 44 250 19 82 38 182 42 223 3 41 14 113 24 160 10 47 33 166 50 264 44
249 85 452 105 510 24 71 171 432 200 491 14 28 41 93 61 145 20 52 76 177
125 278 57 116 89 195 89 216 0 23 9 40 31 62 17 16 69 85 115 154 45 69 114
170 153 225 39 55 83 123 100 150 16 28 61 88 100 135 39 47 71 90 71 95 0 6
20 31 45 55 26 25 45 53 45 66 0 11 9 29 19 38 11 10 27 33 36 52 9 20 45 55
89 88 40 30 93 77 117 105 58 68 145 132 192 143 21 5 63 24 93 43 61 39 73
41 114 20 37 -19 60 -62 60 -113 0 -38 -6 -49 -87 -157 -12 -16 -36 -51 -53
-76 -16 -25 -62 -75 -102 -110 -197 -174 -229 -215 -366 -469 -19 -36 -38 -70
-42 -75 -5 -6 -17 -33 -28 -60 -11 -28 -45 -88 -76 -134 -31 -47 -62 -104 -68
-129 -6 -25 -27 -63 -49 -88 -34 -40 -54 -75 -120 -219 -13 -27 -40 -69 -61
-91 -22 -24 -55 -81 -78 -133 -22 -50 -46 -101 -54 -114 -16 -23 -42 -98 -102
-292 -33 -107 -38 -136 -44 -270 -9 -179 -25 -303 -45 -352 -37 -89 -10 -199
88 -363 62 -103 132 -174 215 -218 34 -18 66 -41 72 -52 14 -27 108 -70 152
-70 57 0 68 30 78 216 5 85 14 180 19 211 6 32 15 116 21 188 11 135 58 368
111 547 80 273 284 913 316 993 48 119 182 398 218 455 16 25 37 62 47 83 10
21 27 50 38 65 12 15 48 70 82 122 33 52 78 115 98 140 21 25 48 63 60 85 61
110 130 175 186 175 40 0 87 -34 106 -76 24 -54 17 -80 -38 -161 -24 -35 -46
-80 -49 -100 -18 -122 -45 -223 -118 -433 -68 -194 -64 -185 -103 -245 -18
-27 -45 -88 -59 -135 -15 -47 -32 -94 -39 -105 -7 -11 -19 -45 -26 -75 -7 -30
-23 -82 -36 -114 -13 -33 -24 -68 -24 -78 0 -10 -10 -38 -22 -61 -19 -38 -43
-151 -68 -327 -29 -203 -29 -641 0 -789 46 -232 245 -635 412 -834 43 -51 183
-166 336 -276 128 -91 123 -88 284 -146 147 -52 185 -55 225 -21 27 23 28 29
28 113 1 48 7 106 14 129 20 62 -3 124 -117 314 -230 383 -308 550 -430 920
-98 296 -132 467 -132 666 0 194 21 311 95 529 67 195 87 242 156 350 27 44
74 128 104 187 70 137 134 235 223 339 68 81 184 186 247 224 17 11 62 49 100
85 68 64 391 330 486 400 26 19 81 63 121 96 238 199 540 407 808 556 74 42
178 103 230 137 52 34 167 98 255 142 l160 79 160 25 c323 49 460 104 604 239
159 151 231 298 296 607 20 96 50 208 66 249 65 170 244 380 497 584 l73 59
-48 31 c-90 58 -377 201 -443 222 -25 7 -72 30 -105 50 -33 19 -82 44 -108 54
-27 10 -64 31 -84 46 -43 33 -151 95 -254 145 -42 21 -102 60 -133 87 -60 53
-267 161 -359 189 -93 27 -130 54 -254 180 -132 135 -163 183 -186 293 -20 93
-62 168 -158 280 -76 88 -118 189 -119 282 0 20 -7 63 -15 95 -8 31 -15 72
-15 90 0 23 -10 44 -33 70 -18 21 -44 54 -59 73 -14 19 -44 46 -68 60 -23 14
-63 39 -89 56 -26 17 -74 44 -106 59 -37 18 -84 53 -124 92 -35 35 -65 62 -66
61 -1 -2 -58 -72 -126 -156 -68 -84 -150 -191 -181 -237 -70 -101 -108 -132
-179 -145 -218 -40 -287 -55 -379 -86 -115 -38 -336 -149 -433 -216 -133 -93
-275 -269 -371 -463 -89 -180 -94 -196 -126 -360 -64 -331 -135 -529 -299
-825 -161 -292 -211 -375 -318 -529 -51 -74 -308 -338 -352 -362 -20 -10 -85
-53 -146 -95 -135 -94 -209 -134 -246 -134 -40 0 -73 -15 -149 -65 -91 -61
-188 -105 -230 -105 -24 0 -97 -31 -240 -104 -113 -57 -218 -107 -235 -110
-16 -4 -65 -25 -107 -47 l-77 -39 -130 0 c-78 0 -141 5 -158 12 -15 7 -95 15
-178 19 -233 11 -415 28 -470 44 -27 8 -79 23 -115 34 -36 10 -91 26 -122 35
-52 15 -69 29 -196 154 -76 75 -158 164 -182 197 -24 33 -73 92 -109 131 -67
73 -127 164 -233 359 -79 144 -114 236 -144 369 -13 60 -35 134 -49 163 l-24
54 -53 -3 -53 -3 -27 -53 c-15 -29 -30 -79 -33 -110 -4 -31 -18 -106 -33 -167
-20 -89 -26 -143 -29 -285 -9 -352 40 -526 236 -835 59 -93 103 -147 196 -240
201 -202 378 -338 454 -350 20 -3 59 -15 86 -25 28 -11 56 -20 64 -20 7 0 39
-11 70 -25 l56 -25 430 3 c554 5 729 20 825 72 25 13 86 44 136 68 50 25 94
49 98 55 4 6 28 18 54 26 78 23 244 108 291 148 24 21 56 41 70 45 14 3 43 14
64 25 24 12 70 21 121 25 108 8 150 -10 179 -76 19 -44 19 -45 0 -91 -13 -29
-17 -53 -12 -62 7 -12 -37 -37 -210 -121 -120 -59 -223 -107 -229 -107 -6 0
-15 -7 -19 -14 -14 -25 -184 -85 -259 -92 -45 -4 -96 -18 -144 -39 -118 -52
-151 -65 -168 -65 -9 0 -45 -15 -82 -34 -36 -19 -93 -44 -126 -55 -68 -22
-292 -57 -463 -72 -107 -8 -214 -25 -536 -84 -174 -32 -366 -52 -560 -60 -88
-3 -257 -15 -375 -25 -118 -10 -319 -21 -446 -24 -147 -3 -244 -10 -269 -18
-26 -9 -53 -30 -82 -66 l-43 -53 22 -32 c12 -18 30 -38 40 -45 10 -7 18 -19
18 -26 0 -32 199 -195 306 -250 l51 -27 264 6 c821 16 1100 24 1149 33 30 5
93 18 140 27 47 9 110 20 140 25 30 4 93 22 140 40 47 17 147 53 223 80 75 27
170 65 210 83 39 18 101 44 137 57 36 13 83 35 105 50 120 80 422 220 473 220
8 0 61 23 116 51 56 29 139 64 186 79 47 16 99 35 115 44 17 8 52 25 79 37 28
13 73 43 101 69 40 36 72 53 145 79 67 23 106 43 131 67 33 32 37 34 50 18 9
-11 14 -42 14 -92 l0 -75 -55 -30 c-30 -16 -79 -52 -110 -79 -30 -28 -73 -58
-95 -68 -22 -9 -47 -25 -55 -34 -7 -10 -37 -29 -64 -43 -28 -14 -76 -47 -106
-73 -31 -26 -76 -55 -100 -63 -25 -9 -91 -39 -148 -67 -56 -28 -119 -54 -138
-57 -20 -3 -64 -25 -98 -49 -87 -62 -296 -177 -471 -259 -83 -38 -175 -84
-205 -101 -30 -17 -86 -39 -125 -49 -38 -10 -82 -24 -97 -32 -15 -7 -55 -24
-90 -37 -35 -13 -112 -45 -173 -71 -341 -144 -595 -200 -1117 -245 -516 -44
-995 -51 -1154 -16 -212 46 -405 132 -568 255 -240 181 -374 359 -578 765
-100 200 -140 317 -169 493 -19 124 -21 162 -16 373 l6 235 56 270 c85 411
112 522 170 681 20 54 72 198 114 319 43 121 104 283 136 360 32 77 84 214
116 305 132 376 220 615 233 630 7 8 21 40 31 70 10 30 42 105 72 165 80 160
345 661 421 795 88 156 363 564 491 730 58 74 139 185 181 245 42 61 126 183
188 272 61 88 164 247 227 353 63 106 146 233 184 283 38 51 108 164 157 252
48 88 112 201 142 250 87 141 453 691 520 782 33 44 68 96 78 115 9 18 23 37
30 41 8 4 14 12 14 18 0 5 50 85 112 177 216 325 257 373 331 398 52 17 123
74 249 198 48 48 68 60 106 67 97 19 156 73 223 204 17 33 53 87 81 120 27 33
64 89 81 124 21 44 41 69 62 80 16 9 51 37 77 63 36 36 49 58 54 89 4 24 25
68 52 106 25 37 60 98 78 137 18 39 44 82 59 96 33 30 60 83 69 131 4 21 15
48 26 62 36 45 92 182 101 247 5 35 18 101 29 146 11 45 20 89 20 99 0 9 11
31 24 48 65 88 115 239 120 370 2 56 11 131 20 167 22 89 20 165 -5 246 -45
147 -85 196 -212 257 -137 67 -226 81 -337 51z m2983 -7428 c46 -147 23 -317
-62 -457 -39 -65 -213 -245 -303 -315 -32 -25 -84 -57 -115 -72 -50 -23 -70
-27 -148 -26 -109 0 -184 28 -287 104 l-68 50 26 72 c96 266 262 457 502 577
145 73 387 156 420 144 6 -3 22 -37 35 -77z m2248 -2281 c93 -5 139 -17 183
-48 l29 -20 -6 -91 c-10 -177 -82 -382 -168 -480 -73 -83 -289 -159 -521 -182
-66 -6 -66 -6 -136 39 -86 55 -96 80 -90 206 5 91 27 169 60 211 10 14 41 54
67 90 159 215 285 295 446 284 28 -2 89 -6 136 -9z"/>
<path d="M21837 19693 c-4 -3 -7 -11 -7 -17 0 -6 5 -5 12 2 6 6 9 14 7 17 -3
3 -9 2 -12 -2z"/>
<path d="M12335 15070 c3 -5 8 -10 11 -10 2 0 4 5 4 10 0 6 -5 10 -11 10 -5 0
-7 -4 -4 -10z"/>
<path d="M6072 12941 c-48 -35 -69 -86 -103 -241 -20 -95 -21 -122 -16 -290 7
-211 25 -331 66 -434 99 -250 158 -389 187 -448 l34 -68 110 0 c65 0 132 6
167 15 31 8 78 15 104 15 25 0 66 7 89 15 23 8 68 15 99 15 46 0 172 31 190
47 6 4 -29 52 -89 123 -26 30 -71 87 -101 126 -30 39 -89 114 -131 167 -91
112 -231 319 -293 432 -65 119 -113 244 -146 385 -25 103 -35 129 -57 147 -36
30 -61 29 -110 -6z"/>
<path d="M10048 9223 c-63 -65 -119 -129 -123 -143 -13 -48 -30 -80 -41 -80
-7 0 -14 -7 -18 -15 -3 -8 -12 -15 -21 -15 -8 0 -15 -7 -15 -15 0 -8 -7 -15
-15 -15 -8 0 -15 -8 -15 -18 0 -10 -13 -32 -30 -50 -16 -18 -30 -39 -30 -45 0
-7 -13 -27 -30 -45 -16 -18 -30 -41 -30 -50 0 -25 -16 -45 -37 -48 -9 -2 -19
-8 -21 -14 -2 -6 -10 -17 -18 -24 -8 -8 -14 -21 -14 -29 0 -8 -7 -20 -15 -27
-8 -7 -15 -27 -15 -44 0 -17 -6 -40 -14 -51 -7 -11 -16 -48 -19 -83 -7 -72 14
-143 86 -291 90 -185 408 -500 662 -654 113 -68 270 -106 520 -127 241 -19
620 40 801 126 61 29 104 86 128 169 9 28 25 64 37 79 25 32 20 66 -16 102
-30 30 -67 31 -194 4 -64 -14 -133 -20 -217 -20 -219 0 -308 21 -573 136 -328
143 -426 229 -538 473 -87 189 -88 193 -87 421 1 148 6 226 18 280 21 95 32
230 19 230 -5 0 -61 -53 -125 -117z"/>
<path d="M7450 8589 c-7 -11 -10 -23 -7 -25 2 -2 9 7 15 21 14 30 7 33 -8 4z"/>
<path d="M7415 8529 c-4 -6 -5 -12 -2 -15 2 -3 7 2 10 11 7 17 1 20 -8 4z"/>
</g>
</svg>
