<?xml version="1.0" standalone="no"?>
<!DOCTYPE svg PUBLIC "-//W3C//DTD SVG 20010904//EN"
 "http://www.w3.org/TR/2001/REC-SVG-20010904/DTD/svg10.dtd">
<svg version="1.0" xmlns="http://www.w3.org/2000/svg"
 width="110592.000000pt" height="110592.000000pt" viewBox="0 0 110592.000000 110592.000000"
 preserveAspectRatio="xMidYMid meet">
<metadata>
Created by potrace 1.11, written by Peter Selinger 2001-2013
</metadata>
<g transform="translate(0.000000,110592.000000) scale(21.600000,-21.600000)"
fill="#000000" stroke="none">
<path d="M3261 4913 c-5 -10 -279 -583 -608 -1273 -330 -690 -828 -1733 -1108
-2318 -279 -585 -506 -1064 -504 -1066 12 -10 200 -79 204 -75 3 3 329 685
726 1515 396 830 896 1877 1111 2327 227 475 387 822 382 827 -7 7 -181 80
-191 80 -1 0 -6 -8 -12 -17z"/>
<path d="M1940 4283 c-550 -84 -1030 -388 -1290 -817 -182 -302 -260 -619
-231 -943 47 -530 361 -1006 843 -1279 l59 -34 135 277 c74 152 131 279 127
283 -5 3 -42 32 -85 63 -343 258 -490 644 -397 1046 73 316 330 599 669 738
151 62 243 77 460 77 110 0 214 -5 238 -11 l44 -11 85 176 c47 98 107 223 133
279 l48 101 -86 21 c-156 38 -277 51 -472 50 -107 -1 -225 -7 -280 -16z"/>
<path d="M3221 4008 c-5 -13 -66 -139 -135 -282 l-126 -258 47 -41 c131 -112
222 -229 287 -368 53 -115 73 -185 86 -311 32 -315 -84 -614 -327 -837 -242
-224 -575 -340 -901 -317 l-92 7 -135 -277 c-75 -152 -133 -279 -131 -282 9
-8 131 -30 228 -41 396 -44 810 39 1151 231 l87 50 147 -134 c80 -73 286 -260
457 -416 176 -160 333 -295 361 -310 45 -24 61 -27 150 -27 112 0 157 16 232
79 97 84 127 223 71 336 -24 49 -80 104 -449 440 -232 212 -440 401 -462 420
l-39 35 66 102 c344 526 336 1175 -21 1712 -119 179 -336 390 -505 490 l-38
23 -9 -24z"/>
</g>
</svg>
