<?xml version="1.0" standalone="no"?>
<!DOCTYPE svg PUBLIC "-//W3C//DTD SVG 20010904//EN"
 "http://www.w3.org/TR/2001/REC-SVG-20010904/DTD/svg10.dtd">
<svg version="1.0" xmlns="http://www.w3.org/2000/svg"
 width="110592.000000pt" height="110592.000000pt" viewBox="0 0 110592.000000 110592.000000"
 preserveAspectRatio="xMidYMid meet">
<metadata>
Created by potrace 1.11, written by Peter Selinger 2001-2013
</metadata>
<g transform="translate(0.000000,110592.000000) scale(3.697492,-3.697492)"
fill="#000000" stroke="none">
<path d="M17325 27944 c-71 -6 -204 -26 -295 -43 -150 -29 -274 -58 -844 -196
-185 -45 -365 -107 -640 -219 -76 -31 -206 -82 -289 -112 -252 -92 -467 -209
-714 -388 -268 -195 -342 -254 -533 -429 -552 -505 -745 -715 -945 -1030 -57
-89 -137 -214 -178 -277 -41 -63 -109 -180 -152 -260 -42 -80 -83 -152 -91
-161 -8 -8 -14 -21 -14 -27 0 -12 -52 -118 -207 -422 -106 -208 -267 -612
-343 -860 -45 -147 -165 -623 -200 -790 -12 -58 -26 -114 -31 -125 -26 -56
-89 -447 -103 -645 -3 -41 -11 -253 -17 -470 -15 -543 -2 -659 141 -1294 102
-453 120 -555 164 -906 44 -343 60 -458 91 -655 29 -182 39 -306 59 -710 37
-756 43 -994 26 -1121 -9 -70 -10 -71 -79 -142 -39 -40 -71 -78 -71 -87 0 -17
30 -35 59 -35 25 0 18 -26 -9 -35 -10 -3 -20 -14 -23 -24 -2 -10 -17 -21 -33
-25 -16 -4 -35 -12 -41 -18 -7 -6 -31 -12 -53 -13 -21 -2 -81 -22 -132 -45
-74 -33 -111 -43 -181 -50 -118 -11 -199 -49 -278 -130 -41 -42 -62 -72 -69
-102 -27 -100 -104 -208 -186 -259 -37 -23 -65 -77 -93 -180 -11 -41 -42 -138
-70 -217 l-49 -143 1 -227 c1 -222 0 -229 -27 -312 -15 -47 -53 -139 -85 -205
-32 -66 -63 -134 -70 -152 -7 -17 -23 -41 -37 -54 -13 -12 -24 -26 -24 -31 0
-5 -13 -38 -30 -73 -16 -35 -30 -69 -30 -75 0 -19 -89 -299 -114 -358 -56
-132 -139 -298 -182 -364 -52 -80 -239 -410 -271 -478 -25 -52 -56 -144 -83
-248 -22 -82 -55 -144 -101 -187 -17 -17 -47 -54 -66 -84 -19 -30 -57 -78 -84
-105 -27 -28 -64 -71 -82 -96 -18 -24 -53 -59 -77 -78 -25 -18 -69 -54 -99
-80 -30 -26 -77 -59 -105 -73 -28 -15 -74 -43 -103 -62 -29 -19 -74 -43 -100
-53 -26 -10 -59 -25 -73 -35 -38 -25 -128 -69 -142 -69 -7 0 -55 -20 -107 -45
-57 -27 -116 -47 -150 -51 -31 -3 -88 -17 -128 -30 -39 -13 -94 -24 -122 -24
-27 0 -80 -7 -117 -16 -38 -9 -101 -14 -148 -13 -45 2 -146 -5 -226 -15 -111
-14 -230 -19 -505 -21 -198 -1 -459 -7 -580 -13 -121 -6 -348 -16 -505 -22
-341 -14 -409 -21 -514 -59 -170 -61 -417 -161 -546 -221 -365 -169 -421 -195
-500 -227 -102 -41 -346 -175 -450 -248 -41 -28 -102 -67 -135 -85 -33 -18
-76 -46 -96 -62 -20 -15 -40 -28 -43 -28 -3 0 -25 -13 -48 -30 -22 -16 -46
-30 -51 -30 -6 0 -18 -6 -26 -14 -9 -8 -45 -31 -81 -51 -36 -21 -80 -46 -99
-57 -18 -10 -67 -44 -107 -74 -41 -29 -81 -54 -89 -54 -8 0 -15 -4 -15 -9 0
-5 -36 -35 -80 -65 -44 -31 -80 -61 -80 -66 0 -6 -10 -15 -22 -21 -68 -29
-146 -102 -193 -179 -21 -36 -70 -101 -108 -144 -37 -44 -82 -103 -100 -132
-19 -30 -52 -66 -80 -85 -65 -45 -144 -122 -194 -189 -22 -31 -66 -75 -97 -99
-31 -24 -88 -84 -127 -133 -38 -48 -74 -88 -79 -88 -5 0 -39 -28 -76 -63 -91
-84 -153 -182 -193 -303 -18 -54 -42 -111 -52 -126 -35 -49 -88 -172 -107
-248 -11 -41 -33 -100 -50 -130 -40 -72 -69 -160 -82 -251 -6 -41 -26 -112
-45 -159 -35 -89 -55 -177 -55 -243 0 -22 -14 -80 -31 -129 -22 -64 -32 -116
-36 -181 -3 -58 -15 -122 -30 -172 -26 -81 -28 -114 -26 -390 1 -38 1 -119 0
-180 0 -60 1 -132 3 -160 6 -86 -12 -237 -36 -310 -12 -38 -27 -98 -33 -131
-5 -34 -24 -90 -41 -124 -31 -62 -70 -193 -70 -236 0 -28 -75 -187 -130 -274
-49 -78 -88 -195 -96 -293 -4 -41 -19 -102 -35 -142 -41 -102 -53 -190 -44
-309 4 -56 6 -123 4 -151 -2 -27 -3 -96 -2 -152 0 -57 1 -137 1 -178 0 -41 0
-123 0 -182 0 -118 0 -196 -2 -348 0 -55 1 -122 3 -150 2 -27 0 -95 -4 -150
-5 -68 -4 -124 5 -175 7 -41 14 -142 15 -225 1 -128 5 -160 24 -215 28 -78 52
-127 97 -195 19 -27 41 -75 50 -105 9 -30 35 -91 57 -135 51 -97 162 -214 257
-269 35 -21 99 -71 143 -112 84 -79 195 -142 297 -168 30 -8 89 -32 130 -54
41 -22 109 -51 150 -64 76 -23 90 -24 365 -17 17 1 77 -2 135 -6 63 -4 127 -3
160 3 39 8 76 7 127 0 70 -11 74 -11 125 17 29 15 71 42 93 60 22 17 58 42 80
55 47 28 115 83 199 161 34 31 81 69 106 84 71 43 118 95 139 150 11 29 41 92
66 141 l47 90 0 510 0 511 -30 54 c-16 30 -37 85 -47 122 -67 260 -356 390
-601 270 -102 -50 -177 -140 -216 -260 -12 -38 -32 -84 -45 -103 -42 -65 -56
-120 -56 -220 -1 -82 3 -105 27 -164 25 -60 28 -78 24 -142 -12 -183 -159
-340 -352 -375 -195 -36 -399 85 -472 281 -22 61 -29 570 -9 670 8 36 16 93
19 127 3 35 18 91 33 125 23 56 27 77 28 178 1 138 20 318 40 380 8 25 19 77
25 115 10 66 33 124 79 205 34 58 72 151 92 224 11 38 31 88 44 111 14 23 34
68 45 101 11 32 36 84 54 114 19 30 41 73 50 95 10 22 29 60 44 85 31 53 82
174 82 198 1 9 10 42 21 72 27 76 79 277 79 309 0 14 12 62 27 106 27 83 27
91 26 388 0 42 0 121 0 175 1 53 -1 124 -2 157 -5 90 9 245 26 290 20 54 43
176 43 231 0 25 7 58 15 74 18 35 55 184 55 223 0 16 13 59 30 97 16 37 37 98
45 134 9 37 33 101 55 144 21 42 46 102 55 132 25 86 56 139 98 174 80 63 157
139 193 192 20 29 54 65 76 80 21 15 64 55 96 88 71 76 114 102 194 116 124
22 234 71 333 150 33 26 87 59 121 73 78 31 154 81 229 149 78 70 159 113 260
138 100 23 175 55 254 109 33 23 99 55 147 72 47 18 119 54 160 81 40 27 101
58 136 69 68 23 128 51 170 81 15 10 61 27 102 38 42 10 117 39 168 64 51 24
124 52 163 61 87 19 183 64 253 116 65 50 147 79 221 79 31 1 90 8 131 16 41
8 143 19 225 23 129 7 163 13 244 40 51 17 112 31 135 31 22 0 70 7 106 16 36
8 121 17 190 19 101 2 141 8 209 29 57 18 107 26 155 26 87 0 179 22 275 66
41 19 101 38 134 44 33 5 87 18 121 29 34 11 102 22 151 24 131 8 262 53 370
127 23 16 61 33 85 40 68 18 200 84 246 124 23 20 78 51 123 70 44 19 108 53
141 75 34 23 66 39 72 35 7 -4 9 -34 6 -83 -5 -87 -44 -194 -104 -289 -57 -89
-82 -111 -192 -163 -182 -85 -262 -141 -410 -282 -75 -73 -148 -149 -162 -169
-32 -47 -258 -341 -329 -428 -58 -71 -85 -115 -213 -350 -150 -274 -195 -397
-304 -830 l-74 -295 -37 -30 c-21 -16 -65 -55 -98 -85 -33 -31 -80 -66 -105
-79 -74 -39 -150 -102 -209 -173 -51 -62 -170 -158 -195 -158 -6 0 -54 -20
-106 -44 -52 -24 -129 -51 -171 -60 -79 -18 -171 -57 -249 -106 -25 -15 -72
-36 -105 -45 -105 -30 -213 -93 -300 -176 -44 -42 -98 -86 -121 -97 -22 -11
-64 -39 -93 -62 -29 -23 -69 -48 -89 -57 -82 -33 -160 -78 -217 -123 -33 -26
-89 -60 -125 -75 -120 -50 -238 -146 -309 -249 -17 -24 -46 -55 -64 -68 -17
-12 -62 -50 -98 -83 -37 -33 -97 -78 -134 -100 -99 -59 -196 -167 -251 -281
-25 -51 -59 -108 -75 -126 -73 -80 -119 -160 -159 -275 -11 -29 -33 -73 -50
-98 -79 -114 -129 -266 -130 -388 0 -32 -6 -73 -14 -91 -57 -136 -60 -337 -8
-491 17 -52 32 -122 36 -166 15 -195 122 -390 277 -501 33 -24 103 -86 157
-138 66 -65 120 -108 171 -135 40 -22 80 -50 89 -63 24 -36 132 -118 208 -155
69 -35 150 -60 234 -72 25 -3 79 -22 121 -41 84 -38 188 -64 263 -64 27 0 86
-13 135 -30 48 -16 120 -32 161 -36 41 -4 100 -17 130 -29 74 -31 122 -43 210
-54 41 -5 114 -23 161 -40 47 -17 115 -34 150 -37 35 -4 111 -22 169 -42 113
-39 83 -36 418 -35 39 0 119 0 177 0 58 0 137 0 175 0 39 0 117 0 175 0 58 0
137 0 175 0 39 0 120 0 180 0 61 1 139 1 175 1 36 0 115 0 175 -1 61 0 142 0
180 0 39 0 116 0 173 0 56 -1 125 0 152 2 28 1 102 0 165 -4 122 -7 198 4 305
44 28 11 92 24 143 30 161 20 292 79 412 188 36 32 91 72 124 88 112 56 237
182 308 313 12 23 46 46 146 96 157 80 214 119 306 211 105 105 246 356 246
439 0 13 16 72 36 132 35 103 37 118 42 272 3 106 0 184 -8 225 -16 85 -88
266 -120 302 -15 17 -53 67 -84 112 -66 92 -172 201 -261 268 -76 57 -253 144
-372 183 -107 36 -317 85 -453 107 -52 8 -140 26 -194 40 -88 22 -120 25 -290
26 -105 0 -234 1 -286 2 -52 0 -122 -1 -155 -3 -33 -2 -103 0 -155 5 -130 11
-233 -10 -360 -72 -79 -38 -109 -60 -181 -132 -71 -71 -94 -102 -133 -181 -51
-105 -76 -201 -76 -301 l0 -67 51 -32 c46 -30 56 -33 124 -31 43 1 103 -5 141
-15 56 -14 136 -16 557 -18 l492 -1 67 -32 c94 -44 160 -109 206 -202 36 -73
37 -78 37 -185 0 -104 -2 -115 -31 -176 -39 -81 -96 -145 -165 -187 -104 -62
-111 -63 -759 -57 -550 6 -663 6 -860 6 -44 0 -123 0 -175 0 -52 0 -131 0
-175 0 -44 0 -122 0 -172 1 -51 0 -124 -1 -163 -3 -95 -3 -194 13 -295 49 -46
16 -114 33 -150 36 -36 3 -99 19 -140 35 -41 15 -111 33 -155 40 -97 14 -129
21 -221 54 -42 15 -111 29 -170 35 -54 5 -125 19 -157 30 -31 12 -91 27 -133
33 -87 14 -169 56 -194 100 -14 26 -13 35 24 145 22 64 64 166 94 227 47 96
66 122 136 191 48 48 143 123 231 184 83 57 202 143 265 192 63 49 122 92 130
96 8 4 35 21 60 39 55 39 207 114 232 114 10 0 18 4 18 10 0 30 483 341 579
372 82 26 171 70 235 115 27 19 67 41 89 49 124 44 255 135 327 229 23 30 70
75 104 99 33 24 81 65 106 91 25 25 76 63 115 83 47 25 93 62 145 115 93 96
121 124 240 240 60 58 106 112 124 147 16 30 56 82 89 114 97 97 183 248 202
361 4 22 20 60 36 85 31 50 73 141 82 180 4 14 27 52 52 84 25 33 62 93 82
135 19 42 54 97 77 122 22 26 57 73 76 105 40 69 180 222 224 245 17 9 58 22
91 29 226 46 405 186 506 395 48 100 51 104 159 194 61 51 168 147 238 213
203 193 271 248 357 289 175 84 346 73 394 -25 17 -36 18 -201 1 -282 -7 -32
-39 -156 -72 -274 -32 -118 -70 -255 -84 -303 -26 -96 -169 -401 -252 -539
-104 -173 -147 -281 -214 -538 -50 -191 -59 -325 -34 -471 20 -121 40 -179
107 -309 110 -213 194 -307 350 -389 169 -90 224 -103 524 -126 357 -27 598
-54 670 -74 167 -48 311 -103 404 -156 133 -74 156 -95 177 -158 9 -29 36 -90
59 -137 24 -47 46 -103 50 -125 11 -66 61 -180 113 -258 38 -56 56 -99 85
-197 74 -256 125 -342 231 -390 34 -15 85 -47 115 -71 76 -62 156 -114 231
-149 36 -17 78 -42 95 -54 47 -36 166 -93 210 -100 22 -4 65 -20 95 -36 116
-62 146 -73 223 -81 43 -4 94 -13 113 -19 24 -8 189 -12 537 -13 l502 -2 66
-31 c116 -55 192 -142 229 -262 67 -217 -42 -437 -260 -527 -42 -17 -82 -19
-550 -20 -397 -2 -516 1 -558 11 -29 8 -79 14 -111 14 -32 0 -80 7 -107 15
-27 8 -69 15 -94 15 -25 0 -72 7 -103 15 -32 8 -86 15 -121 15 -35 0 -84 7
-111 14 -39 12 -149 15 -571 17 l-523 3 -43 -33 c-24 -17 -72 -46 -108 -62
-36 -17 -90 -43 -120 -59 -30 -15 -66 -31 -79 -35 -14 -4 -47 -22 -75 -40 -28
-18 -71 -42 -96 -54 -25 -11 -63 -34 -85 -50 -22 -17 -71 -40 -110 -51 -86
-27 -158 -63 -207 -105 -21 -17 -64 -44 -95 -60 -32 -15 -89 -48 -128 -73 -69
-45 -104 -74 -237 -196 -36 -33 -105 -95 -153 -136 -83 -72 -202 -189 -311
-304 -28 -30 -68 -63 -90 -74 -21 -12 -64 -47 -96 -79 -192 -197 -291 -288
-353 -324 -52 -30 -152 -112 -188 -152 -25 -29 -67 -99 -120 -200 -12 -23 -23
-72 -28 -120 -4 -45 -13 -98 -18 -117 -6 -19 -11 -57 -11 -85 0 -27 -12 -81
-26 -120 -32 -90 -51 -180 -58 -278 -4 -48 -15 -102 -30 -138 l-24 -60 27 -13
c58 -30 171 -58 257 -63 211 -13 401 62 554 218 38 39 96 88 129 109 34 22 80
57 103 78 24 21 84 57 133 81 77 38 104 59 187 142 54 54 124 116 156 138 32
22 83 65 113 96 30 30 82 71 116 90 34 20 86 57 115 84 29 26 91 67 137 91
l84 42 196 13 c161 11 222 20 341 49 80 20 159 41 175 47 17 5 59 19 95 31 69
22 148 58 192 89 14 11 65 30 113 44 99 29 149 52 220 103 62 44 180 91 260
104 181 28 294 69 395 143 25 18 75 45 111 58 83 32 133 57 188 97 44 33 44
33 190 37 80 2 169 2 196 1 28 -1 96 -2 153 -1 56 0 134 0 172 0 39 0 117 0
175 0 58 0 137 0 175 0 39 0 120 0 180 0 190 1 237 1 348 0 59 -1 127 0 152 2
25 1 97 0 161 -4 171 -11 294 20 432 108 31 20 77 42 104 50 245 75 435 276
489 517 9 41 32 121 51 177 42 127 55 230 42 346 -7 56 -7 118 0 175 17 152
-8 284 -80 422 -73 140 -201 256 -352 319 -40 16 -99 46 -132 65 -32 20 -84
45 -114 57 -31 11 -85 40 -121 63 -86 58 -134 81 -205 101 -33 9 -83 32 -111
50 -27 18 -70 43 -95 55 -24 13 -69 46 -101 74 -108 98 -224 152 -381 180 -47
8 -100 22 -117 31 -18 9 -50 23 -71 30 -21 8 -65 32 -96 53 -78 53 -125 76
-206 101 -37 11 -98 38 -135 60 -37 22 -87 47 -112 57 -25 9 -69 37 -99 61
-30 24 -83 60 -119 80 -50 28 -67 44 -79 72 -35 88 -81 167 -133 230 -72 85
-124 184 -149 282 -11 42 -35 108 -54 145 -19 38 -40 95 -47 128 -41 201 -160
374 -322 472 -85 51 -189 153 -249 245 -59 91 -139 170 -237 233 -40 25 -72
50 -72 56 0 17 -134 118 -206 154 -40 20 -105 43 -145 52 -41 9 -112 34 -159
55 -47 21 -111 45 -143 54 l-58 17 25 33 c35 46 92 161 106 215 6 25 26 68 44
96 73 111 108 200 126 321 6 43 24 114 40 159 48 137 58 244 34 395 -6 36 -6
36 101 116 109 82 276 180 354 208 67 23 270 39 332 26 120 -26 349 -136 448
-215 36 -30 107 -96 158 -148 86 -88 93 -98 122 -182 l31 -88 -24 -68 c-81
-223 -40 -486 103 -665 22 -27 65 -101 95 -163 65 -130 155 -235 263 -302 35
-23 99 -76 142 -118 42 -42 99 -97 127 -122 77 -71 137 -148 182 -235 53 -102
117 -183 190 -240 68 -54 168 -107 237 -128 67 -20 207 -113 274 -182 59 -62
147 -125 213 -154 24 -11 72 -44 107 -74 35 -30 96 -71 135 -92 39 -21 94 -61
122 -88 106 -101 233 -164 383 -188 36 -5 70 -14 77 -19 6 -6 44 -23 84 -40
41 -17 88 -41 105 -55 53 -40 127 -81 190 -104 33 -12 83 -37 111 -56 72 -47
162 -91 214 -105 25 -6 72 -29 105 -50 91 -59 166 -90 269 -111 51 -10 117
-30 147 -43 93 -43 167 -58 294 -61 142 -3 200 -16 275 -61 73 -43 136 -70
213 -90 33 -8 73 -24 87 -34 103 -73 257 -120 391 -120 110 0 217 -28 314 -81
39 -21 106 -48 150 -61 106 -31 163 -66 266 -163 85 -80 190 -145 282 -175 31
-10 44 -23 79 -83 61 -105 161 -201 326 -314 26 -17 65 -45 87 -62 22 -17 76
-55 121 -84 91 -61 133 -107 173 -189 22 -48 38 -65 90 -98 35 -23 85 -49 112
-59 26 -11 70 -35 96 -54 26 -19 72 -47 102 -62 30 -15 77 -48 105 -74 28 -25
78 -64 110 -86 51 -34 136 -129 148 -166 8 -24 159 -50 278 -48 63 2 126 -1
139 -5 13 -5 64 -11 114 -15 l91 -6 36 -64 c20 -35 50 -80 66 -100 17 -20 53
-84 82 -144 56 -115 142 -219 232 -280 25 -17 78 -61 118 -98 129 -120 306
-189 484 -189 57 0 103 -7 148 -21 50 -17 95 -22 190 -24 74 -2 158 -10 204
-20 63 -14 100 -16 185 -10 197 13 274 5 416 -46 96 -35 73 -33 403 -32 39 0
119 0 177 0 58 0 137 0 175 0 39 0 116 0 173 0 56 -1 125 0 152 2 28 2 102 0
165 -4 101 -7 126 -5 200 14 210 53 367 175 465 363 71 135 96 334 59 488 -46
196 -196 383 -378 469 -110 52 -170 65 -291 64 -222 -1 -277 -1 -367 0 -51 0
-120 -1 -153 -3 -33 -2 -103 0 -155 5 -61 5 -116 3 -154 -4 -79 -15 -206 2
-306 39 -110 42 -195 54 -314 45 -128 -9 -130 -9 -321 2 -88 5 -166 13 -173
17 -7 4 -52 11 -99 14 l-86 7 -46 90 c-25 50 -58 107 -73 126 -15 20 -41 67
-56 105 -33 80 -63 130 -116 193 -21 25 -47 63 -58 85 -36 70 -94 150 -151
206 -31 32 -60 71 -66 92 -7 20 -40 79 -75 130 -34 51 -79 120 -98 153 -58 95
-133 165 -237 219 -125 65 -394 166 -466 175 -142 19 -358 -20 -519 -93 -43
-20 -82 -36 -87 -36 -5 0 -26 16 -46 36 -21 20 -56 48 -78 64 -55 38 -183 182
-225 253 -69 116 -195 222 -332 278 -39 16 -94 47 -122 68 -28 21 -62 44 -76
51 -13 7 -58 45 -100 85 -121 115 -208 166 -342 200 -35 9 -83 29 -108 45 -58
37 -142 74 -204 89 -56 14 -109 42 -217 117 -97 67 -188 112 -319 159 -58 20
-119 45 -137 55 -71 41 -571 201 -718 230 -199 39 -497 125 -640 185 -116 48
-224 80 -317 95 -117 17 -170 34 -243 79 -84 50 -156 78 -255 98 -100 21 -181
61 -245 124 -63 61 -89 79 -176 124 -36 18 -90 55 -120 80 -30 26 -74 58 -99
73 -25 14 -85 64 -135 111 -92 88 -178 142 -280 175 -47 15 -53 20 -80 78 -34
72 -118 181 -169 221 -47 36 -64 70 -80 164 -9 50 -44 153 -96 283 -89 222
-190 504 -209 586 -26 109 25 185 166 244 60 26 91 33 133 32 30 -1 147 -4
260 -5 203 -4 306 -13 470 -42 116 -20 300 -34 580 -44 152 -6 258 -14 300
-25 48 -11 118 -15 265 -16 110 0 364 -5 564 -11 411 -12 694 -2 876 31 61 11
160 26 220 35 61 8 153 22 205 29 214 33 449 37 1845 38 1264 1 1395 -1 1445
-16 30 -9 82 -21 115 -26 77 -13 230 -79 292 -126 69 -53 193 -110 279 -130
72 -16 75 -18 122 -76 40 -52 111 -114 205 -180 17 -12 34 -43 51 -93 31 -93
81 -185 134 -245 54 -62 64 -83 79 -175 10 -63 10 -96 2 -153 -8 -48 -9 -103
-4 -160 5 -48 7 -114 5 -147 -2 -33 -3 -103 -3 -155 1 -52 1 -133 1 -180 0
-47 -1 -123 -1 -170 0 -47 1 -123 1 -170 0 -47 0 -128 -1 -180 0 -52 1 -122 3
-155 2 -33 0 -103 -5 -155 -5 -61 -3 -116 4 -154 9 -50 7 -84 -10 -205 -19
-127 -21 -176 -16 -381 3 -129 10 -264 17 -300 20 -119 62 -285 82 -325 47
-96 159 -276 199 -320 10 -11 46 -52 80 -92 66 -77 109 -109 264 -196 196
-110 412 -174 682 -202 l153 -17 67 29 c59 24 82 28 173 29 123 1 244 12 280
26 37 14 243 30 440 34 169 3 178 2 260 -25 47 -16 110 -36 140 -45 152 -47
265 -182 291 -349 8 -50 7 -79 -6 -138 -9 -41 -19 -83 -21 -94 -7 -29 28 -79
70 -99 20 -9 63 -22 95 -27 102 -18 220 25 268 97 9 14 34 34 57 46 90 46 139
103 183 210 48 118 87 403 62 449 -6 13 -13 70 -16 128 -4 131 -30 230 -87
336 -24 44 -51 107 -60 140 -38 130 -111 247 -213 339 -24 21 -63 66 -88 101
-94 133 -226 227 -385 276 -65 20 -93 23 -202 21 -176 -3 -183 -3 -358 1 -85
3 -175 9 -200 16 -25 6 -78 11 -117 11 -50 0 -101 9 -160 27 -77 23 -107 27
-243 28 -176 2 -275 12 -290 30 -7 8 -6 32 1 71 7 37 9 99 4 169 -4 61 -6 133
-4 160 2 28 3 96 2 153 0 121 0 203 0 350 1 59 -1 127 -2 152 -2 25 0 95 4
155 6 85 12 115 26 130 44 50 99 192 135 350 35 154 36 169 41 401 5 220 3
249 -15 323 -44 172 -156 414 -340 734 -90 156 -237 328 -431 501 -68 61 -156
140 -195 175 -39 34 -97 81 -128 104 -31 22 -79 68 -107 102 -90 113 -227 197
-384 236 -44 11 -105 33 -136 48 -31 16 -67 32 -81 36 -14 4 -52 28 -85 52
-102 77 -191 114 -327 138 -42 8 -100 26 -128 40 -78 40 -191 65 -289 65 -53
0 -114 8 -159 20 -102 27 -204 34 -292 21 -57 -9 -96 -9 -166 0 -72 10 -111
10 -178 0 -66 -9 -105 -9 -175 1 -70 9 -111 9 -179 0 -66 -9 -108 -9 -175 0
-67 9 -108 9 -177 0 -70 -10 -110 -10 -179 -1 -69 10 -108 10 -174 0 -66 -9
-106 -9 -175 0 -70 10 -109 10 -175 0 -67 -9 -106 -9 -176 1 -70 9 -111 9
-179 0 -66 -9 -108 -9 -175 0 -67 9 -108 9 -177 0 -70 -10 -110 -10 -179 -1
-69 10 -108 10 -175 0 -67 -9 -105 -9 -172 0 -67 10 -106 10 -175 0 -69 -9
-109 -9 -179 1 -69 9 -110 9 -178 0 -66 -9 -108 -9 -175 0 -67 9 -108 9 -177
0 -70 -10 -110 -10 -179 -1 -69 10 -108 10 -174 0 -66 -9 -106 -9 -175 0 -70
10 -109 10 -175 0 -67 -9 -106 -9 -176 1 -70 9 -111 9 -179 0 -66 -9 -108 -9
-175 0 -67 9 -108 9 -177 0 -70 -10 -110 -10 -179 -1 -69 10 -108 10 -175 0
-67 -9 -105 -9 -172 0 -67 10 -106 10 -175 0 -130 -17 -257 1 -319 45 -25 18
-76 47 -115 66 -103 50 -224 181 -305 330 -41 75 -48 83 -78 86 -24 2 -32 8
-32 23 0 10 -4 19 -10 19 -6 0 -10 30 -10 69 l0 69 48 7 c26 4 108 22 182 41
124 32 225 53 401 84 47 8 90 9 155 2 58 -7 117 -7 169 -1 44 6 100 9 125 7
151 -9 277 -2 347 20 47 14 98 22 150 22 43 1 98 5 123 11 25 6 119 14 210 19
142 7 176 12 240 35 41 15 104 31 140 37 224 32 336 81 470 208 30 28 79 67
109 87 165 107 294 304 317 484 6 47 45 158 74 211 23 42 125 158 184 211 79
70 146 161 184 250 28 65 29 67 107 106 92 46 169 107 229 179 22 28 68 69
102 91 33 22 90 71 126 109 78 82 104 90 252 72 70 -8 116 -8 176 0 102 14
281 -2 390 -35 41 -13 102 -26 135 -30 33 -4 80 -16 105 -28 142 -63 268 -84
401 -67 67 9 111 9 178 0 66 -8 109 -8 172 0 50 7 107 8 143 4 34 -5 117 -9
186 -10 69 -1 180 -5 247 -9 98 -6 136 -4 198 10 103 23 235 91 315 162 92 83
221 165 320 204 46 18 117 57 158 86 40 29 80 53 88 53 7 0 43 -14 79 -31 58
-27 71 -39 116 -106 103 -152 242 -258 399 -304 l79 -22 47 -69 c69 -102 151
-170 274 -230 135 -66 186 -104 252 -184 88 -109 232 -204 362 -237 31 -9 85
-33 119 -56 64 -41 131 -73 181 -85 17 -4 69 -34 117 -66 48 -32 97 -61 108
-65 12 -3 21 -9 21 -13 0 -4 2 -54 5 -112 2 -59 11 -127 20 -155 19 -59 40
-274 35 -360 -2 -33 -3 -102 -3 -152 1 -120 1 -229 0 -350 -1 -54 1 -123 2
-153 2 -30 0 -98 -4 -150 -5 -66 -4 -118 5 -170 8 -41 14 -140 15 -220 1 -129
4 -154 27 -225 15 -44 45 -109 66 -145 22 -36 47 -94 56 -130 9 -36 35 -103
58 -150 33 -68 59 -102 127 -171 71 -71 102 -94 181 -133 125 -61 213 -79 355
-73 203 10 378 95 504 247 49 59 121 185 121 213 0 7 -30 26 -67 42 -79 34
-166 114 -207 191 -15 27 -44 72 -66 99 -46 58 -74 136 -91 255 -17 119 -23
662 -8 720 6 25 13 123 15 219 2 96 8 189 13 205 5 17 12 64 15 104 4 41 16
99 27 130 31 85 49 167 59 264 5 49 20 116 33 150 29 76 52 173 67 287 10 75
9 90 -10 155 -12 39 -41 107 -65 151 -23 44 -48 98 -55 120 -29 93 -85 180
-169 265 -47 47 -98 104 -113 128 -117 179 -314 295 -543 318 -45 4 -90 16
-125 34 -30 15 -86 37 -124 49 -95 29 -128 52 -193 132 -68 85 -153 150 -259
200 -77 37 -83 42 -120 106 -51 88 -155 197 -241 252 -68 45 -68 45 -131 174
-106 216 -215 367 -399 553 -144 146 -270 254 -295 254 -5 0 -80 29 -165 65
-193 81 -287 105 -428 112 -98 4 -120 2 -200 -22 -49 -15 -119 -35 -155 -45
-36 -10 -108 -43 -160 -73 -52 -30 -122 -70 -155 -88 -33 -19 -84 -59 -114
-89 -77 -78 -201 -235 -268 -341 -32 -49 -72 -111 -89 -137 -17 -26 -66 -76
-109 -112 l-79 -65 -130 -3 c-72 -2 -157 -4 -188 -4 -32 0 -111 0 -175 0 -251
-1 -290 1 -334 18 -152 57 -216 75 -291 81 l-81 6 -67 61 c-140 128 -232 181
-387 224 -94 25 -108 26 -333 26 -250 -1 -422 -18 -585 -56 -67 -15 -130 -42
-254 -105 -198 -102 -269 -158 -521 -413 -96 -97 -188 -182 -205 -190 -37 -16
-74 -74 -158 -245 -36 -71 -88 -161 -117 -200 -57 -77 -76 -110 -113 -202 -31
-77 -82 -145 -152 -203 -79 -66 -149 -159 -200 -265 -76 -160 -147 -217 -450
-360 -60 -28 -135 -68 -165 -87 -74 -47 -180 -78 -268 -78 -38 0 -94 -5 -123
-10 -38 -8 -81 -7 -147 1 -72 9 -114 9 -182 0 -68 -10 -106 -10 -170 0 -64 9
-105 9 -184 0 -123 -15 -219 0 -317 50 -97 48 -255 211 -358 369 -44 68 -81
132 -81 142 0 11 -9 31 -20 46 -19 26 -19 30 -4 117 10 60 27 114 51 160 19
39 48 95 63 125 32 62 72 172 136 374 42 135 44 144 44 265 0 190 -27 290
-104 386 -40 49 -53 70 -39 62 12 -7 36 16 27 26 -3 3 -3 19 1 36 5 22 14 33
31 37 15 4 38 26 58 58 132 206 485 594 661 726 50 37 104 75 120 86 17 10 62
42 100 71 39 28 185 121 325 205 140 85 291 178 334 208 265 184 330 230 411
295 50 40 135 104 190 144 55 39 143 105 195 147 52 41 112 86 132 99 69 46
371 299 473 395 55 53 163 152 240 220 77 69 214 198 305 287 90 90 167 163
170 163 3 0 14 16 25 34 11 19 92 117 181 218 180 206 285 332 303 366 6 12
18 22 25 22 8 0 16 10 20 23 3 12 35 60 71 107 219 285 277 367 375 528 61 99
110 184 110 190 0 5 6 12 14 15 7 3 40 52 73 109 33 57 93 155 133 218 124
194 236 447 320 720 18 57 55 165 82 240 74 201 180 635 217 887 48 332 61
488 67 813 11 544 -16 785 -129 1166 -20 66 -61 215 -91 330 -81 309 -192 620
-237 660 -10 9 -19 27 -19 38 0 40 -148 322 -243 461 -52 77 -115 175 -141
218 -48 83 -70 109 -287 357 -153 173 -297 316 -504 500 -77 68 -176 158 -220
199 -44 41 -103 90 -132 108 -28 19 -54 40 -56 47 -12 30 -322 189 -547 281
-63 26 -121 51 -128 57 -14 12 -47 25 -322 124 -231 83 -362 116 -582 149 -95
14 -180 28 -188 31 -8 3 -37 8 -65 10 -27 2 -90 8 -140 13 -49 6 -139 13 -200
16 -60 3 -155 10 -210 15 -163 15 -431 17 -570 4z m-1563 -13215 c286 -96 379
-444 183 -683 -19 -24 -47 -65 -61 -92 -116 -221 -411 -293 -619 -149 -180
123 -240 398 -134 607 27 53 211 242 269 276 110 65 245 81 362 41z"/>
<path d="M4030 20876 c-132 -28 -247 -88 -355 -187 -33 -30 -85 -68 -116 -83
-121 -60 -234 -178 -304 -316 -18 -36 -45 -76 -60 -90 -42 -39 -90 -108 -130
-189 -21 -41 -58 -102 -83 -135 -60 -82 -108 -183 -128 -274 -23 -101 -15
-280 16 -372 102 -306 399 -508 715 -487 89 6 199 32 193 45 -32 71 -78 156
-103 192 -72 100 -89 182 -75 367 7 88 17 151 31 188 30 80 96 164 163 205 31
19 80 50 108 69 132 87 244 109 386 77 39 -9 93 -16 121 -16 29 0 79 -11 118
-25 37 -14 100 -34 140 -45 39 -10 99 -33 132 -50 57 -30 65 -31 133 -25 52 5
92 2 141 -9 38 -9 87 -16 110 -16 23 0 60 -5 82 -11 22 -5 81 -14 131 -19 103
-10 183 -37 243 -81 23 -16 66 -41 97 -56 30 -14 76 -45 102 -68 70 -63 82
-67 170 -59 l77 7 -34 -37 c-19 -19 -33 -38 -30 -40 2 -2 35 -19 72 -37 63
-30 177 -127 177 -150 0 -5 29 -40 64 -79 36 -38 77 -95 92 -127 40 -81 109
-181 163 -235 49 -49 52 -54 121 -203 43 -94 83 -150 159 -225 25 -25 62 -75
81 -110 44 -81 134 -178 213 -230 34 -23 83 -66 109 -97 70 -84 142 -139 254
-194 56 -27 124 -67 150 -89 27 -22 80 -56 119 -77 38 -20 99 -63 135 -95 79
-71 219 -143 314 -163 37 -7 99 -30 137 -50 38 -20 94 -45 125 -55 30 -11 85
-39 122 -64 37 -24 92 -55 122 -69 62 -29 142 -102 169 -156 10 -20 23 -64 30
-98 7 -35 21 -88 31 -119 11 -32 20 -81 20 -109 0 -29 5 -77 11 -106 7 -30 12
-124 13 -209 2 -144 4 -161 33 -245 36 -107 45 -194 47 -440 1 -170 3 -184 29
-260 73 -207 235 -371 435 -441 39 -13 92 -27 119 -30 26 -4 55 -13 65 -21 14
-13 17 -12 23 8 4 13 20 43 35 68 15 26 33 68 39 95 7 27 21 67 32 89 12 22
28 63 36 91 8 28 28 76 45 107 29 56 30 59 33 240 3 182 8 217 38 275 9 17 23
61 31 98 16 69 45 133 78 176 11 13 35 58 54 100 28 60 51 90 118 156 l84 81
7 88 c10 117 1 215 -29 311 -13 44 -27 117 -30 164 -7 100 -31 191 -73 275
-17 33 -38 96 -46 139 -29 139 -101 270 -207 372 -34 33 -74 82 -91 111 -71
124 -177 222 -314 290 -38 20 -94 57 -124 84 -59 52 -159 109 -247 139 -30 11
-86 40 -124 65 -72 48 -169 88 -253 107 -70 15 -213 91 -267 143 -57 55 -156
118 -220 141 -28 10 -70 34 -94 54 -25 21 -66 51 -93 68 -26 17 -66 54 -87 82
-22 28 -55 63 -73 77 -19 15 -47 52 -63 83 -16 31 -46 78 -67 106 -21 27 -49
76 -61 109 -56 146 -142 260 -265 345 -82 59 -120 104 -143 173 -25 77 -67
156 -113 215 -23 28 -52 81 -66 118 -82 217 -255 373 -482 435 -43 12 -89 29
-103 39 -114 80 -276 124 -425 117 -63 -2 -122 1 -160 9 -44 10 -151 13 -395
12 -384 -1 -490 6 -577 38 -96 36 -217 50 -321 37 -60 -8 -104 -8 -142 -1 -32
6 -104 7 -170 3 -147 -8 -155 -8 -280 -1 -71 4 -126 1 -170 -8z"/>
<path d="M4785 17933 c-38 -3 -81 -12 -234 -48 -111 -26 -178 -60 -335 -169
l-57 -40 -167 -6 c-139 -6 -180 -12 -245 -33 -191 -62 -358 -214 -429 -390
-12 -28 -42 -79 -66 -112 -112 -150 -158 -301 -147 -480 8 -136 8 -135 0 -271
-8 -123 6 -213 51 -324 13 -33 24 -75 24 -93 0 -54 37 -186 75 -266 19 -40 35
-83 35 -95 0 -12 8 -53 19 -91 10 -39 21 -103 25 -143 3 -41 17 -100 31 -133
13 -34 36 -104 51 -157 14 -54 42 -139 61 -191 19 -52 42 -117 50 -145 8 -28
32 -82 53 -121 21 -38 58 -119 84 -180 25 -60 80 -173 122 -250 42 -77 82
-154 89 -172 21 -50 180 -288 248 -372 177 -218 487 -471 697 -567 52 -25 147
-71 210 -103 133 -68 217 -96 315 -106 39 -3 111 -15 162 -26 87 -18 306 -40
586 -59 70 -5 151 -13 180 -19 28 -6 102 -15 162 -21 237 -22 515 -52 620 -66
61 -8 156 -19 211 -24 109 -11 329 -52 393 -75 25 -8 81 -14 151 -13 109 0
112 0 160 33 27 18 73 41 102 51 29 9 69 28 88 40 20 13 74 37 120 53 47 15
119 47 161 69 42 22 101 45 132 52 38 8 70 23 98 46 22 19 44 34 49 34 13 0
150 135 150 148 0 6 28 42 63 79 82 88 100 114 133 197 16 40 45 88 73 119 54
60 111 142 111 161 0 37 -200 151 -320 183 -90 23 -244 23 -342 -1 l-77 -20
-64 32 c-63 30 -144 54 -223 66 -22 3 -70 19 -106 35 -75 34 -118 46 -238 66
-47 7 -125 28 -175 46 -86 32 -97 33 -245 35 -85 1 -179 7 -209 13 -29 6 -82
11 -116 11 -36 0 -86 8 -120 20 -32 11 -98 25 -148 31 -49 6 -111 17 -136 25
-88 28 -237 47 -396 51 -233 7 -271 7 -365 3 -47 -1 -150 -1 -230 2 -159 4
-193 14 -225 65 -44 69 -102 137 -149 174 -62 48 -157 165 -191 236 -17 33
-29 82 -35 136 -12 103 -46 208 -95 289 -24 41 -33 64 -26 71 7 7 4 22 -8 46
-10 20 -22 47 -26 61 -4 14 -35 52 -69 85 -172 170 -230 266 -245 410 -10 92
-24 142 -59 212 -11 21 -25 67 -32 101 -6 34 -18 81 -26 104 -9 26 -11 44 -5
46 6 2 7 24 4 52 -11 96 29 226 96 307 47 56 128 111 198 133 84 26 252 28
333 3 40 -12 85 -16 166 -14 99 2 119 0 185 -24 41 -14 98 -33 127 -40 158
-44 267 -146 313 -298 11 -34 32 -91 47 -127 23 -56 27 -81 28 -180 1 -63 8
-151 14 -195 7 -44 14 -159 15 -255 2 -196 -10 -277 -52 -349 -25 -43 -25 -45
-7 -58 11 -8 28 -16 39 -18 87 -15 133 -28 178 -49 113 -52 228 -82 370 -96
54 -5 124 -16 155 -24 105 -27 215 -38 405 -40 l188 -3 14 26 c25 50 45 136
51 221 3 47 15 119 27 160 15 54 21 103 20 175 0 55 0 143 0 195 0 314 2 299
-32 395 -18 50 -38 128 -45 175 -25 156 -57 242 -130 344 -24 34 -58 98 -75
143 -55 141 -145 251 -281 343 -36 24 -83 62 -105 83 -22 22 -62 55 -90 73
-27 18 -80 67 -117 108 -160 177 -388 264 -618 236 -68 -8 -120 -8 -183 -1
-61 7 -115 7 -175 0 -123 -16 -160 -8 -234 47 -70 51 -151 94 -278 146 -147
60 -168 64 -315 51z"/>
<path d="M3289 13241 c-36 -15 -87 -43 -113 -61 -39 -26 -50 -30 -57 -19 -5 8
-9 17 -9 21 0 4 -20 -6 -45 -23 -24 -16 -66 -37 -92 -46 -26 -9 -59 -24 -73
-33 -14 -10 -48 -29 -76 -43 -66 -34 -146 -87 -142 -96 2 -3 12 -22 22 -42 18
-36 18 -36 -5 -72 -22 -33 -31 -37 -114 -57 -92 -21 -205 -75 -276 -131 -20
-15 -72 -44 -115 -62 -145 -61 -252 -149 -337 -279 -50 -76 -110 -131 -165
-149 -106 -34 -226 -118 -304 -213 -33 -40 -83 -84 -129 -114 -148 -97 -265
-264 -302 -434 -13 -60 -22 -75 -76 -134 -33 -36 -72 -87 -87 -113 -15 -25
-64 -85 -109 -132 -147 -153 -211 -322 -202 -529 8 -187 72 -334 204 -466 91
-92 102 -96 156 -49 23 20 79 69 125 108 46 40 115 100 153 135 40 37 94 74
127 88 62 27 238 111 262 125 8 5 37 21 64 37 26 15 71 47 100 70 28 24 77 57
108 73 31 16 60 34 63 40 4 6 39 32 79 57 39 25 86 59 105 75 47 41 142 84
203 92 36 5 67 19 111 51 34 24 103 63 154 88 156 75 240 145 320 268 24 37
60 81 81 98 50 42 189 98 287 117 210 38 380 151 490 323 48 75 70 93 152 126
120 49 238 141 311 243 l31 43 -24 32 c-13 17 -79 81 -146 141 -169 152 -195
181 -230 252 -16 34 -40 75 -53 90 -13 15 -31 42 -39 60 -9 17 -34 52 -55 76
-22 25 -49 62 -62 83 -13 22 -43 62 -66 89 -49 59 -89 134 -99 188 -9 45 -18
46 -106 8z"/>
<path d="M20986 3683 c-11 -12 -6 -138 9 -198 8 -33 14 -78 15 -100 0 -22 7
-72 15 -110 9 -41 15 -124 15 -200 0 -148 -15 -197 -62 -203 -24 -3 -25 -7
-31 -84 -7 -113 -53 -205 -140 -282 -84 -75 -81 -72 -140 -150 -41 -56 -64
-76 -112 -99 -72 -36 -149 -55 -270 -66 -49 -5 -97 -12 -106 -16 -22 -8 -29
49 -22 165 5 72 2 100 -16 158 -64 211 -286 341 -500 291 -153 -35 -286 -168
-320 -320 -16 -69 -7 -394 11 -454 9 -27 21 -80 26 -117 12 -80 46 -158 94
-215 20 -23 46 -63 58 -88 56 -117 180 -206 318 -230 42 -8 95 -21 117 -31 60
-25 180 -30 247 -10 31 9 81 16 110 16 30 0 77 7 104 15 27 8 76 15 109 15 38
0 86 10 130 26 39 13 98 31 133 39 35 8 89 29 120 46 31 18 99 55 150 82 66
35 106 65 135 100 23 26 72 79 109 116 45 46 78 92 103 142 19 40 44 82 55 94
10 11 33 49 51 84 38 77 95 164 163 246 27 33 58 80 69 105 11 25 35 66 53 93
51 73 74 148 84 271 6 61 13 136 16 166 l6 56 -69 41 c-38 22 -98 54 -134 70
-35 17 -84 47 -108 67 -25 21 -63 47 -85 58 -63 32 -149 125 -182 196 -23 50
-37 68 -72 88 -23 14 -57 38 -75 53 -55 48 -163 92 -181 74z"/>
</g>
</svg>
