<?xml version="1.0" standalone="no"?>
<!DOCTYPE svg PUBLIC "-//W3C//DTD SVG 20010904//EN"
 "http://www.w3.org/TR/2001/REC-SVG-20010904/DTD/svg10.dtd">
<svg version="1.0" xmlns="http://www.w3.org/2000/svg"
 width="110592.000000pt" height="110592.000000pt" viewBox="0 0 110592.000000 110592.000000"
 preserveAspectRatio="xMidYMid meet">
<metadata>
Created by potrace 1.11, written by Peter Selinger 2001-2013
</metadata>
<g transform="translate(0.000000,110592.000000) scale(11.273394,-12.697130)"
fill="#000000" stroke="none">
<path d="M1643 8690 c-29 -10 -66 -28 -81 -39 -40 -28 -97 -93 -118 -133 -9
-18 -115 -181 -234 -363 -394 -599 -671 -1029 -987 -1529 l-163 -258 227 -367
c268 -434 587 -939 835 -1323 98 -152 178 -279 178 -282 0 -3 -66 -105 -147
-228 -470 -716 -1146 -1774 -1146 -1794 0 -25 833 -1350 1327 -2111 l158 -243
141 0 c78 -1 563 -5 1077 -10 514 -5 1124 -6 1355 -3 l421 6 254 386 c348 529
707 1081 880 1353 l144 228 1263 0 1263 0 168 253 c540 808 1347 2070 1339
2091 -19 48 -855 1375 -1322 2097 l-159 246 -470 6 c-259 4 -815 7 -1236 7
l-765 0 -74 123 c-181 296 -659 1048 -1104 1737 l-94 145 -109 7 c-60 4 -707
9 -1439 12 -1285 5 -1332 5 -1382 -14z m2351 -759 l98 -6 85 -130 c274 -424
823 -1292 897 -1420 l18 -31 -359 -554 c-198 -305 -427 -658 -509 -785 l-150
-230 -874 -3 c-481 -2 -942 0 -1025 3 l-150 7 -85 132 c-438 682 -878 1379
-902 1431 -10 22 4 48 172 312 193 302 579 897 741 1140 l94 142 925 0 c509
-1 969 -4 1024 -8z m3326 -2018 l516 -6 184 -286 c224 -347 533 -836 699
-1103 l122 -198 -87 -137 c-205 -325 -697 -1083 -879 -1355 l-58 -88 -677 0
c-372 0 -832 3 -1022 7 l-344 6 -16 26 c-8 14 -110 172 -225 351 -383 594
-760 1198 -755 1212 5 17 987 1533 1010 1561 14 16 51 17 516 17 276 0 733 -3
1016 -7z m-3697 -1970 l407 -6 264 -411 c404 -630 738 -1167 732 -1181 -11
-29 -519 -818 -828 -1287 l-190 -288 -637 1 c-350 1 -809 5 -1019 8 l-384 6
-209 325 c-388 601 -789 1242 -789 1260 0 12 274 444 585 920 131 201 281 431
334 512 l96 148 616 0 c339 0 799 -3 1022 -7z"/>
<path d="M2752 7459 c-279 -36 -566 -205 -743 -438 -106 -139 -188 -349 -204
-521 -10 -110 11 -334 40 -434 105 -363 413 -651 804 -753 117 -31 359 -42
528 -24 491 51 893 365 1000 780 34 133 43 377 19 504 -55 291 -232 560 -473
720 -157 104 -304 150 -542 166 -172 12 -336 12 -429 0z m439 -277 c257 -91
399 -382 399 -817 0 -237 -31 -412 -93 -530 -161 -304 -626 -370 -881 -125
-64 61 -114 141 -136 215 -37 131 -52 571 -25 731 51 293 190 478 408 539 73
21 253 14 328 -13z"/>
<path d="M7140 5450 c-54 -19 -59 -19 -235 -4 -146 13 -200 14 -287 5 -527
-56 -960 -461 -1003 -941 -9 -107 10 -350 35 -440 111 -393 472 -713 857 -760
49 -6 124 -15 168 -21 135 -18 392 -23 502 -10 293 34 453 135 470 295 l6 54
-48 7 c-76 12 -288 -1 -455 -28 -214 -34 -302 -41 -395 -28 -144 20 -265 98
-349 225 -78 118 -133 262 -156 408 -18 113 -9 331 19 438 25 94 91 243 141
315 193 280 527 323 803 104 65 -52 169 -165 193 -211 17 -34 27 -34 99 -7
112 42 168 119 169 230 0 57 -5 78 -37 142 -44 89 -126 171 -214 213 -79 38
-202 44 -283 14z"/>
<path d="M2794 3474 c-365 -61 -691 -290 -839 -589 -76 -154 -88 -216 -89
-460 -1 -190 1 -218 22 -295 82 -298 286 -553 553 -690 191 -98 350 -123 784
-124 205 -1 265 2 335 17 165 35 278 106 327 205 23 48 28 70 28 137 0 51 -7
101 -19 138 -30 95 -16 127 121 269 91 94 113 123 113 146 0 41 -31 76 -95
107 -52 26 -55 26 -131 14 -62 -10 -125 -10 -320 1 -348 19 -434 6 -469 -67
-15 -31 -15 -38 0 -90 18 -60 39 -85 120 -137 141 -92 144 -310 5 -440 -61
-57 -107 -76 -184 -76 -88 0 -159 37 -310 159 -87 70 -165 186 -207 308 -62
182 -68 471 -13 758 20 106 37 148 90 221 77 109 210 194 359 230 93 23 268
23 353 0 100 -27 109 -33 127 -90 36 -111 114 -192 202 -211 84 -17 206 56
249 149 48 104 20 213 -77 300 -86 77 -200 103 -514 116 -300 12 -422 11 -521
-6z"/>
</g>
</svg>
