<?xml version="1.0" standalone="no"?>
<!DOCTYPE svg PUBLIC "-//W3C//DTD SVG 20010904//EN"
 "http://www.w3.org/TR/2001/REC-SVG-20010904/DTD/svg10.dtd">
<svg version="1.0" xmlns="http://www.w3.org/2000/svg"
 width="110592.000000pt" height="110592.000000pt" viewBox="0 0 110592.000000 110592.000000"
 preserveAspectRatio="xMidYMid meet">
<metadata>
Created by potrace 1.11, written by Peter Selinger 2001-2013
</metadata>
<g transform="translate(0.000000,110592.000000) scale(36.864000,-32.431672)"
fill="#000000" stroke="none">
<path d="M469 3188 c-32 -76 -3 -323 72 -600 10 -39 71 -92 224 -195 33 -22
88 -69 123 -104 65 -66 152 -186 152 -211 0 -7 7 -23 15 -35 14 -20 13 -21
-11 -27 -15 -4 -76 -11 -136 -17 -131 -11 -192 -34 -244 -91 -45 -50 -62 -90
-70 -165 -5 -44 -13 -65 -35 -88 -45 -48 -119 -167 -119 -191 0 -23 33 -54 57
-54 7 0 15 11 19 25 3 14 12 25 18 25 7 0 45 25 85 55 39 30 88 59 109 65 54
15 177 12 257 -5 42 -10 150 -18 273 -22 l203 -6 24 -31 c37 -49 104 -179 170
-328 33 -76 83 -170 110 -210 64 -93 351 -382 475 -477 102 -79 251 -179 340
-228 64 -35 181 -83 204 -83 24 0 19 30 -14 80 l-30 45 27 5 c39 7 38 23 -3
64 -29 29 -33 37 -20 42 26 10 18 30 -29 72 -48 42 -54 52 -30 52 22 0 30 27
14 46 -7 8 -31 25 -53 37 -36 19 -38 22 -18 25 34 5 27 37 -13 62 -37 23 -45
40 -19 40 26 0 11 34 -23 51 -23 11 -29 19 -21 27 15 15 3 29 -43 53 -36 18
-40 23 -34 49 6 27 3 30 -44 51 -55 23 -59 30 -36 49 22 18 19 23 -30 49 -34
18 -45 30 -45 48 0 52 -60 199 -172 422 -86 172 -115 238 -107 247 12 15 124
54 153 54 12 0 59 -12 105 -25 117 -34 128 -33 140 13 20 70 14 167 -14 222
-43 85 -151 148 -296 172 l-69 11 -56 -47 c-62 -51 -79 -54 -228 -37 l-68 7
-144 147 c-183 187 -338 292 -528 357 -48 16 -51 18 -83 95 -18 43 -53 108
-77 144 -79 119 -234 250 -338 287 -54 19 -54 19 -69 -18z"/>
</g>
</svg>
