<?xml version="1.0" standalone="no"?>
<!DOCTYPE svg PUBLIC "-//W3C//DTD SVG 20010904//EN"
 "http://www.w3.org/TR/2001/REC-SVG-20010904/DTD/svg10.dtd">
<svg version="1.0" xmlns="http://www.w3.org/2000/svg"
 width="110592.000000pt" height="110592.000000pt" viewBox="0 0 110592.000000 110592.000000"
 preserveAspectRatio="xMidYMid meet">
<metadata>
Created by potrace 1.11, written by Peter Selinger 2001-2013
</metadata>
<g transform="translate(0.000000,110592.000000) scale(5.851429,-5.651099)"
fill="#000000" stroke="none">
<path d="M8510 13080 c-14 -4 -40 -8 -59 -9 -36 -1 -233 -92 -420 -195 -64
-35 -242 -128 -396 -206 -301 -153 -330 -169 -505 -268 -116 -67 -135 -81
-122 -94 4 -3 252 -9 552 -12 616 -7 1035 -19 1190 -35 58 -6 150 -13 205 -16
160 -8 316 -25 371 -41 28 -8 113 -17 190 -20 76 -3 146 -7 155 -10 9 -2 101
-11 205 -19 280 -22 619 -72 747 -111 57 -18 102 -24 166 -24 49 0 106 -6 127
-14 22 -7 63 -16 93 -20 30 -4 91 -16 135 -27 99 -23 136 -24 136 -4 0 17 -73
101 -100 115 -9 5 -81 14 -161 20 -246 19 -368 77 -449 215 -13 22 -29 43 -34
47 -6 4 -50 8 -99 8 -234 0 -437 62 -515 157 -18 21 -38 46 -47 56 -13 15 -34
17 -157 17 -150 0 -276 16 -393 50 -53 15 -80 30 -115 63 -25 24 -62 58 -83
75 l-38 32 -122 0 c-194 0 -344 31 -361 75 -10 28 -7 69 10 119 15 44 15 48
-1 66 -19 21 -60 25 -105 10z"/>
<path d="M6615 12010 c-16 -4 -62 -14 -102 -20 -42 -7 -81 -19 -94 -31 -17
-15 -37 -19 -89 -19 -70 0 -221 -20 -355 -46 -44 -9 -116 -22 -160 -29 -240
-38 -709 -159 -1025 -265 -146 -48 -305 -101 -355 -116 -49 -16 -164 -66 -255
-112 -91 -45 -212 -104 -270 -130 -58 -26 -151 -78 -206 -115 -56 -37 -128
-79 -160 -93 -121 -53 -201 -97 -279 -153 -75 -54 -162 -110 -212 -136 -20
-10 -99 -76 -154 -127 -10 -10 -63 -50 -117 -90 -55 -40 -139 -102 -187 -138
-49 -36 -107 -82 -128 -103 -22 -20 -69 -57 -106 -81 -90 -60 -170 -140 -209
-207 -21 -36 -69 -89 -139 -153 -113 -103 -183 -179 -221 -243 -13 -21 -41
-67 -63 -103 -22 -36 -54 -93 -71 -127 -21 -41 -38 -63 -50 -63 -27 0 -39 -34
-45 -129 -11 -169 12 -221 124 -274 58 -28 58 -29 55 -67 -8 -83 96 -209 209
-254 36 -14 69 -26 72 -26 15 0 226 -94 277 -123 53 -31 81 -43 165 -72 22 -7
112 -41 200 -75 88 -34 178 -68 200 -75 22 -7 75 -27 118 -44 43 -17 90 -31
105 -31 15 0 54 -6 87 -14 33 -7 94 -21 135 -30 97 -22 265 -39 301 -31 29 7
98 86 132 151 9 17 31 49 49 72 18 22 45 61 60 85 15 24 52 74 83 113 71 88
113 172 126 253 5 35 16 75 23 90 13 24 67 220 95 344 14 60 14 467 1 538 -6
30 -17 138 -25 241 -8 103 -20 202 -28 220 -7 18 -26 85 -42 148 -15 63 -36
131 -47 150 -10 19 -18 40 -18 46 0 13 -75 110 -118 154 -52 52 -54 102 -7
158 30 36 76 56 110 48 56 -14 214 -192 247 -278 10 -28 26 -65 35 -82 15 -29
77 -250 107 -381 8 -33 17 -118 21 -190 4 -71 13 -168 21 -215 8 -53 14 -166
14 -300 0 -249 1 -243 -104 -605 -13 -44 -29 -105 -36 -135 -26 -116 -105
-262 -191 -355 -15 -16 -45 -57 -66 -91 -21 -33 -51 -79 -68 -102 -60 -82 -85
-130 -85 -161 0 -39 6 -41 190 -86 131 -31 236 -47 539 -81 79 -8 161 -22 183
-30 22 -8 48 -14 57 -14 14 0 16 -16 18 -109 1 -61 9 -138 18 -173 19 -71 155
-350 214 -436 52 -76 224 -278 319 -375 68 -69 199 -177 215 -177 3 0 29 -23
57 -51 l52 -52 56 7 c78 9 102 27 102 74 0 37 -27 77 -138 208 -40 48 -114
210 -147 322 -36 120 -50 294 -35 404 l13 88 66 -37 c36 -20 98 -51 136 -70
39 -20 124 -72 190 -117 234 -161 320 -207 798 -425 205 -94 241 -109 380
-155 56 -19 134 -46 172 -61 61 -24 81 -26 155 -23 55 3 98 11 123 23 32 16
37 23 37 54 0 53 -32 99 -72 105 -18 3 -60 9 -93 15 -74 11 -379 144 -474 205
-36 24 -93 60 -126 81 -64 40 -206 181 -282 279 -43 54 -92 156 -107 218 -6
25 -4 26 47 34 28 4 414 7 857 6 455 -1 875 2 965 8 88 5 234 15 325 20 91 6
201 15 245 20 44 5 121 14 170 20 50 5 119 14 155 20 191 30 279 39 415 45 83
4 197 13 255 21 58 7 150 16 205 19 55 3 134 12 175 20 41 8 118 19 170 26 52
6 105 15 119 20 13 5 67 14 120 19 121 13 288 43 461 85 124 29 136 30 142 15
8 -21 77 -50 117 -50 25 0 63 -12 126 -40 11 -5 45 -14 75 -20 30 -7 114 -34
185 -60 142 -53 221 -75 305 -85 30 -4 109 -18 175 -32 96 -20 135 -24 194
-18 102 9 111 15 111 75 0 48 -2 51 -52 89 -29 21 -78 51 -108 66 -84 42 -209
135 -247 185 l-34 44 118 19 c238 37 575 128 788 212 183 72 394 147 570 200
131 40 194 43 395 16 150 -21 221 -38 301 -74 30 -14 77 -35 104 -47 151 -68
372 -179 384 -193 7 -10 18 -17 23 -17 5 0 32 -15 61 -33 29 -18 65 -39 81
-47 40 -21 100 -79 185 -180 40 -47 98 -107 129 -135 31 -27 122 -115 202
-196 344 -344 432 -420 579 -494 54 -27 185 -113 228 -149 24 -21 112 -83 213
-150 36 -24 105 -74 155 -111 114 -86 156 -108 219 -112 39 -3 59 1 84 17 38
23 37 2 13 210 -27 232 -62 510 -76 595 -34 210 -38 554 -9 800 20 170 133
481 281 775 52 102 105 214 119 250 59 147 198 387 248 429 46 38 56 98 30
168 l-17 43 -116 0 c-112 0 -189 -11 -441 -59 -137 -27 -293 -47 -460 -61 -74
-6 -160 -18 -190 -25 -30 -8 -106 -22 -168 -30 -62 -9 -138 -25 -168 -36 -59
-20 -269 -63 -367 -74 -33 -4 -76 -3 -100 3 -23 6 -76 16 -117 23 -105 16
-257 87 -300 140 -6 7 -179 126 -270 185 -36 24 -76 51 -90 61 -14 10 -41 25
-62 35 -20 9 -110 65 -200 126 -161 108 -325 212 -334 212 -3 0 -28 15 -57 33
-29 18 -59 36 -67 40 -8 3 -53 31 -100 61 -47 30 -130 81 -185 112 -55 31
-116 67 -135 80 -19 13 -78 38 -130 57 -52 19 -151 58 -220 86 -294 123 -341
141 -436 170 -121 37 -180 58 -404 150 -96 39 -242 92 -325 117 -82 25 -199
64 -260 86 -60 23 -130 49 -155 57 -25 9 -50 20 -56 23 -6 4 -37 11 -70 17
-65 10 -184 52 -285 100 -36 17 -77 31 -90 31 -13 0 -53 7 -89 16 -131 31
-288 57 -390 64 -59 4 -133 16 -170 28 -166 52 -530 98 -1080 135 -102 7 -191
17 -199 21 -19 12 -130 25 -316 36 -88 6 -205 15 -260 21 -55 6 -219 15 -365
20 -361 13 -1718 20 -1755 9z m-3290 -2134 c45 -35 92 -107 101 -154 6 -29 0
-48 -27 -101 -30 -59 -40 -69 -96 -99 -107 -57 -195 -60 -280 -9 -42 24 -84
100 -89 162 -4 45 -1 55 30 97 35 46 126 113 176 129 14 5 53 7 86 6 50 -2 69
-8 99 -31z"/>
</g>
</svg>
