<?xml version="1.0" standalone="no"?>
<!DOCTYPE svg PUBLIC "-//W3C//DTD SVG 20010904//EN"
 "http://www.w3.org/TR/2001/REC-SVG-20010904/DTD/svg10.dtd">
<svg version="1.0" xmlns="http://www.w3.org/2000/svg"
 width="110592.000000pt" height="110592.000000pt" viewBox="0 0 110592.000000 110592.000000"
 preserveAspectRatio="xMidYMid meet">
<metadata>
Created by potrace 1.11, written by Peter Selinger 2001-2013
</metadata>
<g transform="translate(0.000000,110592.000000) scale(34.997468,-40.069565)"
fill="#000000" stroke="none">
<path d="M1665 2395 c-145 -38 -201 -62 -234 -102 -26 -32 -35 -36 -88 -40
-97 -7 -170 -31 -271 -91 -179 -106 -254 -205 -274 -359 -9 -74 -18 -95 -72
-153 -63 -69 -124 -231 -133 -353 -8 -116 8 -182 66 -270 26 -39 55 -84 65
-99 9 -15 29 -31 44 -34 35 -9 42 -20 42 -69 0 -95 113 -293 199 -350 39 -26
183 -90 236 -105 140 -40 409 -53 515 -26 88 23 205 81 216 106 9 22 16 23 82
21 130 -4 208 57 290 229 46 95 46 95 53 235 6 127 5 144 -12 179 -20 38 -20
39 -1 60 11 11 25 31 31 43 17 34 13 156 -7 210 -17 44 -97 166 -144 219 -19
21 -19 23 29 120 47 96 48 102 51 203 3 66 0 107 -7 114 -6 6 -11 20 -11 32 0
63 -101 209 -178 257 -83 51 -333 63 -487 23z m302 -139 c96 -25 155 -52 190
-86 59 -55 87 -180 56 -247 -10 -21 -21 -39 -25 -41 -5 -2 -8 -9 -8 -17 0 -7
-7 -18 -15 -25 -8 -7 -15 -21 -15 -31 0 -31 -18 -31 -84 1 -59 29 -76 33 -212
41 -96 6 -151 14 -156 21 -4 7 -14 45 -23 85 -21 94 -68 187 -111 220 -31 23
-33 28 -20 41 8 8 50 25 93 38 106 31 214 31 330 0z m-554 -140 c34 -14 87
-69 87 -89 0 -7 16 -43 35 -81 19 -39 35 -78 35 -87 0 -12 -16 -23 -52 -35
-61 -19 -140 -57 -181 -86 -23 -16 -33 -18 -55 -10 -15 6 -63 13 -107 17 -147
11 -190 15 -223 21 -33 5 -34 6 -27 42 4 20 14 50 22 67 44 88 239 226 344
244 78 13 86 12 122 -3z m540 -387 c55 -15 117 -82 117 -125 0 -34 -51 -157
-70 -169 -5 -3 -21 7 -35 23 -23 27 -102 66 -150 74 -15 2 -23 18 -36 66 -10
38 -27 74 -43 91 -14 15 -26 30 -26 33 0 17 188 23 243 7z m-408 -79 c83 -29
103 -44 111 -87 11 -57 -11 -66 -164 -68 -70 -1 -137 -5 -149 -9 -21 -8 -21
-6 -11 33 16 61 96 145 144 150 6 1 37 -8 69 -19z m-407 -26 c51 -4 92 -10 92
-14 0 -4 -8 -25 -17 -46 -18 -41 -18 -42 -30 -146 -7 -62 -11 -69 -48 -98 -22
-18 -53 -39 -69 -47 -77 -40 -205 -164 -206 -199 0 -5 -9 -19 -18 -32 l-18
-24 -45 58 -44 57 -3 114 c-2 91 2 125 18 176 25 78 74 154 119 184 38 25 95
29 269 17z m1108 -165 c36 -51 65 -139 57 -172 -11 -46 -161 -167 -207 -167
-27 0 -37 37 -34 125 2 84 3 86 33 104 33 19 79 88 91 135 8 35 21 30 60 -25z
m-518 -8 c15 -9 34 -80 25 -94 -7 -12 -101 -3 -115 11 -15 15 6 64 35 79 28
14 39 15 55 4z m152 -16 c36 -18 51 -46 61 -105 7 -44 -5 -126 -22 -144 -4 -5
-19 -6 -34 -2 -23 6 -26 11 -24 39 2 18 0 37 -4 43 -3 6 -15 50 -26 97 -19 86
-19 87 1 87 10 0 32 -7 48 -15z m-337 -76 c7 -24 -3 -89 -13 -89 -14 0 -92
-74 -107 -104 -11 -19 -18 -54 -18 -91 0 -53 -2 -60 -19 -60 -27 0 -55 51 -72
132 -20 96 -19 102 30 163 47 59 64 67 142 69 44 1 52 -2 57 -20z m180 -75
c49 -7 67 -23 67 -62 0 -21 -33 -32 -100 -32 -45 0 -60 16 -67 71 -6 41 -6 41
23 35 16 -3 51 -8 77 -12z m-519 -181 c16 -43 42 -106 57 -141 l28 -64 -21
-28 c-17 -24 -20 -37 -14 -77 3 -26 10 -91 16 -143 5 -52 12 -110 16 -128 l7
-32 -38 16 c-80 33 -152 91 -227 184 -78 96 -88 119 -88 199 0 112 42 176 174
265 21 14 44 26 50 26 6 0 24 -35 40 -77z m422 40 c20 -13 25 -22 21 -43 -8
-38 7 -96 37 -139 38 -54 34 -61 -26 -60 -83 2 -98 9 -119 59 -32 79 -21 147
29 188 21 16 28 15 58 -5z m293 -49 c12 -11 -15 -81 -44 -112 -31 -34 -34 -36
-41 -17 -4 11 -20 38 -36 59 -15 21 -28 50 -28 63 0 24 1 24 73 17 39 -3 74
-8 76 -10z m356 -154 c-1 -102 -2 -107 -39 -180 -49 -96 -67 -117 -113 -141
-45 -23 -93 -24 -136 -3 -28 14 -176 160 -177 174 0 3 22 13 48 23 54 19 142
99 162 147 12 28 16 30 64 30 32 0 69 8 94 20 22 11 46 20 52 20 5 0 10 5 10
11 0 6 8 9 18 7 15 -3 17 -16 17 -108z m-838 -141 c15 -6 78 -14 138 -18 82
-4 109 -9 107 -19 -4 -20 25 -68 53 -86 14 -9 39 -36 55 -59 17 -23 44 -52 60
-63 36 -25 33 -28 -56 -67 -56 -25 -73 -27 -187 -27 l-125 0 -35 39 c-39 44
-43 56 -57 194 -13 123 -10 128 47 106z"/>
</g>
</svg>
