<?xml version="1.0" standalone="no"?>
<!DOCTYPE svg PUBLIC "-//W3C//DTD SVG 20010904//EN"
 "http://www.w3.org/TR/2001/REC-SVG-20010904/DTD/svg10.dtd">
<svg version="1.0" xmlns="http://www.w3.org/2000/svg"
 width="110592.000000pt" height="110592.000000pt" viewBox="0 0 110592.000000 110592.000000"
 preserveAspectRatio="xMidYMid meet">
<metadata>
Created by potrace 1.11, written by Peter Selinger 2001-2013
</metadata>
<g transform="translate(0.000000,110592.000000) scale(20.787970,-21.856126)"
fill="#000000" stroke="none">
<path d="M927 4597 c-12 -9 -17 -31 -19 -87 -3 -73 -4 -75 -28 -75 -24 0 -25
3 -28 70 -3 78 -14 97 -51 93 -24 -3 -26 -7 -26 -48 1 -25 4 -65 8 -90 7 -44
7 -46 -47 -104 -30 -32 -62 -73 -70 -90 l-15 -32 -69 3 c-73 5 -97 -7 -90 -44
3 -14 17 -19 72 -25 74 -7 92 -17 82 -44 -6 -15 -16 -16 -81 -10 -61 6 -75 4
-75 -7 0 -18 32 -47 53 -47 9 0 19 -4 22 -10 9 -14 42 -12 48 3 4 9 6 8 6 -2
1 -10 4 -11 15 -2 22 18 48 2 44 -28 -3 -25 -6 -26 -70 -29 -69 -3 -84 -13
-49 -32 27 -14 82 -13 122 3 19 7 45 12 59 11 14 -1 30 2 35 6 6 4 27 10 49
12 37 4 41 2 112 -76 40 -45 91 -106 113 -136 22 -30 51 -66 65 -80 14 -14 26
-30 26 -36 0 -18 211 -247 345 -375 72 -68 135 -131 140 -139 14 -22 214 -213
295 -280 36 -30 115 -102 175 -160 l110 -105 1 -80 c1 -115 20 -292 38 -350
28 -92 66 -136 162 -189 l87 -48 111 5 c127 6 166 16 227 57 l44 29 90 -87
c71 -69 193 -177 213 -188 2 -1 11 -42 21 -90 10 -49 33 -134 51 -189 18 -55
41 -139 50 -186 21 -103 65 -194 126 -266 93 -109 131 -110 296 -7 68 42 142
92 166 111 l43 35 72 -66 c125 -114 137 -127 145 -159 7 -25 4 -39 -15 -66
-31 -46 -43 -93 -43 -174 0 -75 12 -107 57 -150 24 -22 39 -28 79 -28 63 0 84
3 84 12 0 4 6 7 13 6 47 -1 78 6 105 26 95 69 165 134 182 168 36 70 22 186
-29 236 -34 34 -140 73 -198 73 -37 0 -45 5 -76 43 -19 23 -47 65 -63 92 -15
28 -38 64 -51 81 -13 17 -23 34 -23 38 0 3 -11 24 -25 46 l-25 39 53 50 c111
106 134 130 181 192 49 63 50 65 54 149 5 103 -6 122 -100 167 -70 35 -161 55
-318 74 -58 6 -141 18 -185 26 -44 8 -108 18 -143 23 -35 4 -64 9 -65 11 -2 2
-11 21 -22 41 -42 81 -291 368 -320 368 -6 0 -10 43 -11 113 0 113 -12 163
-60 260 -24 48 -152 165 -209 191 -59 27 -169 40 -306 37 l-97 -3 -205 196
c-113 108 -210 196 -215 196 -5 0 -15 7 -22 15 -7 9 -15 13 -18 10 -3 -3 -51
39 -107 92 -107 104 -178 163 -193 163 -5 0 -15 7 -22 16 -8 8 -27 22 -44 30
-54 25 -118 72 -210 154 -55 49 -129 100 -146 100 -5 0 -27 16 -49 35 -21 19
-43 35 -48 35 -5 0 -31 23 -58 50 -27 28 -54 50 -60 50 -6 0 -24 13 -40 30
-15 16 -32 27 -37 24 -4 -3 -8 4 -8 16 0 21 -15 52 -40 83 -9 12 -11 20 -4 25
6 4 14 21 17 37 28 127 28 128 11 146 -24 27 -32 16 -39 -59 -8 -73 -17 -92
-47 -92 -26 0 -31 20 -20 89 7 52 6 63 -8 76 -13 12 -20 12 -33 2z m1962
-1655 c72 -41 124 -102 166 -196 36 -81 40 -116 13 -116 -19 1 -41 21 -70 63
-30 45 -158 179 -205 215 -34 25 -43 57 -20 65 22 8 71 -5 116 -31z m-381
-589 c149 -136 183 -174 180 -203 -3 -23 -8 -25 -60 -28 -121 -6 -221 76 -268
221 -15 47 1 97 32 97 11 0 63 -39 116 -87z m1289 -423 l55 0 87 -87 c106
-107 138 -162 142 -240 5 -89 0 -143 -12 -143 -6 0 -54 44 -107 98 -71 71
-106 115 -132 167 -37 73 -105 181 -121 191 -14 9 1 26 18 20 8 -3 39 -6 70
-6z m-398 -336 c28 -25 51 -42 51 -38 0 5 20 -11 44 -35 24 -24 46 -42 48 -40
3 2 20 -9 39 -24 255 -210 284 -236 261 -244 -7 -3 -18 -11 -26 -18 -7 -8 -16
-12 -19 -9 -2 3 -13 -5 -23 -18 -11 -13 -43 -34 -72 -46 l-53 -23 -50 41 c-69
59 -155 155 -175 198 -9 21 -22 44 -29 52 -7 8 -19 35 -26 60 -7 25 -18 54
-25 65 -7 11 -16 44 -20 73 -9 67 6 68 75 6z"/>
</g>
</svg>
