<?xml version="1.0" standalone="no"?>
<!DOCTYPE svg PUBLIC "-//W3C//DTD SVG 20010904//EN"
 "http://www.w3.org/TR/2001/REC-SVG-20010904/DTD/svg10.dtd">
<svg version="1.0" xmlns="http://www.w3.org/2000/svg"
 width="110592.000000pt" height="110592.000000pt" viewBox="0 0 110592.000000 110592.000000"
 preserveAspectRatio="xMidYMid meet">
<metadata>
Created by potrace 1.11, written by Peter Selinger 2001-2013
</metadata>
<g transform="translate(0.000000,110592.000000) scale(3.590649,-3.627156)"
fill="#000000" stroke="none">
<path d="M19855 26163 c-112 -5 -219 -24 -460 -83 -132 -32 -262 -61 -290 -65
-27 -4 -95 -17 -150 -30 -55 -13 -136 -29 -180 -35 -103 -16 -183 -45 -441
-164 -207 -96 -213 -100 -330 -200 -65 -56 -148 -131 -184 -167 -62 -61 -67
-70 -107 -184 -42 -120 -75 -245 -88 -340 -4 -27 -20 -108 -36 -178 -57 -245
-102 -686 -116 -1127 -6 -168 17 -431 52 -610 15 -74 47 -236 71 -360 40 -199
91 -543 109 -730 28 -299 51 -380 104 -380 9 0 79 -20 156 -45 77 -24 196 -58
265 -76 207 -52 281 -78 365 -128 44 -27 122 -70 174 -96 87 -45 166 -108 317
-251 77 -73 173 -220 225 -344 13 -30 47 -99 76 -152 56 -100 95 -222 108
-333 4 -33 11 -76 16 -96 11 -43 43 -233 59 -349 6 -47 19 -125 27 -175 14
-79 15 -222 9 -1185 -6 -907 -10 -1112 -23 -1195 -17 -112 -19 -131 -34 -265
-5 -52 -16 -117 -24 -145 -51 -181 -109 -423 -120 -495 -46 -310 -203 -930
-306 -1208 -86 -230 -116 -327 -133 -424 -10 -51 -22 -115 -27 -143 -6 -27 -9
-88 -7 -135 l3 -85 44 60 c25 33 68 85 96 115 29 30 72 85 97 122 43 65 227
280 276 323 13 11 52 44 85 73 61 51 105 102 169 192 17 25 50 66 73 92 23 25
50 68 60 95 10 26 42 94 71 150 97 185 114 243 134 478 6 60 15 146 20 190 5
44 14 127 20 185 5 58 14 146 20 195 6 50 15 187 21 305 25 540 32 613 110
1002 21 109 39 215 39 235 0 21 8 61 17 88 16 45 18 141 25 970 7 923 14 1143
34 1180 22 40 54 360 54 545 0 169 65 636 106 758 8 24 24 108 35 185 11 78
26 174 34 212 7 39 19 104 25 145 6 41 17 100 25 130 25 99 54 263 64 370 6
58 17 130 26 160 8 30 29 109 45 175 17 66 39 147 50 180 11 33 26 89 35 124
9 35 22 73 30 85 11 17 51 141 103 316 15 53 107 255 130 287 11 16 24 42 28
57 13 54 324 401 406 453 7 4 24 20 37 35 50 56 78 302 47 413 -106 388 -139
480 -214 589 -31 45 -72 113 -92 151 -60 114 -164 198 -414 334 -112 62 -226
118 -253 126 -26 7 -75 23 -108 34 -168 55 -162 55 -400 60 -126 3 -257 5
-290 4z m223 -477 c85 -43 131 -122 116 -201 -8 -45 -55 -116 -106 -160 -46
-39 -189 -88 -303 -105 -91 -13 -495 -13 -610 0 -88 10 -91 11 -130 53 -38 40
-40 46 -40 105 0 62 1 63 48 107 26 25 52 45 58 45 6 0 23 8 37 18 15 10 39
24 55 32 15 7 27 17 27 21 0 4 16 10 35 13 20 4 51 16 69 27 93 55 264 79 513
74 170 -4 185 -6 231 -29z"/>
<path d="M13260 25530 c-52 -4 -107 -11 -123 -15 -16 -4 -33 -3 -40 3 -8 7
-28 7 -57 1 -98 -19 -192 -28 -316 -30 -189 -2 -303 -16 -454 -55 -238 -63
-274 -72 -320 -79 -163 -25 -405 -132 -516 -226 -57 -49 -102 -82 -168 -124
-88 -56 -206 -158 -346 -301 -169 -173 -391 -433 -436 -510 -15 -27 -36 -60
-46 -73 -10 -13 -18 -32 -18 -42 0 -11 -4 -19 -8 -19 -47 0 -179 -476 -211
-760 -6 -52 -16 -113 -22 -135 -15 -56 -23 -632 -11 -725 6 -41 18 -133 27
-205 10 -71 33 -188 52 -260 19 -71 42 -170 53 -220 10 -49 26 -108 35 -130
21 -48 49 -151 74 -265 10 -47 35 -155 56 -240 44 -185 91 -452 100 -570 11
-139 39 -220 75 -220 11 0 34 -9 52 -20 18 -11 68 -31 110 -45 90 -28 337
-150 420 -206 31 -22 85 -66 120 -98 35 -33 79 -75 100 -93 74 -68 191 -215
226 -283 74 -145 102 -206 102 -219 0 -7 14 -55 31 -106 24 -73 33 -128 44
-254 15 -163 11 -290 -15 -571 -5 -60 -17 -195 -26 -300 -9 -104 -20 -219 -24
-255 -8 -67 -51 -271 -69 -325 -5 -16 -12 -62 -15 -102 -3 -39 -10 -83 -16
-98 -14 -36 -27 -130 -40 -280 -7 -71 -21 -173 -31 -225 -11 -52 -24 -124 -30
-160 -5 -36 -11 -72 -14 -80 -12 -43 -33 -319 -44 -600 -7 -160 -16 -265 -26
-303 -8 -32 -15 -61 -15 -65 0 -4 120 -7 268 -7 194 0 282 -4 322 -14 58 -15
238 -85 306 -119 21 -10 57 -22 79 -26 129 -23 433 -157 535 -236 19 -15 51
-35 70 -45 53 -27 160 -117 229 -193 49 -53 77 -98 135 -217 41 -82 79 -168
86 -190 7 -22 18 -49 25 -61 23 -37 44 -122 60 -247 31 -249 38 -294 56 -377
14 -61 21 -143 25 -290 5 -178 3 -226 -15 -360 -13 -88 -25 -235 -28 -340 -8
-285 -45 -447 -176 -781 -47 -118 -90 -232 -97 -254 -7 -22 -29 -76 -50 -120
-21 -44 -41 -96 -45 -115 -4 -19 -15 -51 -25 -70 -9 -19 -23 -53 -30 -75 -7
-22 -37 -80 -67 -130 -50 -82 -252 -483 -303 -600 -29 -65 -80 -221 -80 -243
0 -25 -66 -215 -100 -288 -17 -35 -30 -69 -30 -76 -1 -7 -14 -38 -30 -68 -17
-30 -30 -60 -30 -66 0 -6 -25 -72 -56 -145 -31 -74 -64 -161 -74 -194 -10 -33
-38 -109 -62 -170 -25 -60 -64 -159 -88 -220 -23 -60 -48 -118 -56 -130 -7
-11 -17 -38 -22 -60 -6 -22 -28 -110 -50 -195 -21 -85 -49 -204 -61 -265 -12
-60 -29 -132 -36 -160 -61 -217 -87 -313 -105 -399 -11 -54 -25 -106 -30 -116
-5 -10 -23 -84 -39 -166 -17 -82 -45 -198 -62 -259 -17 -60 -38 -141 -45 -180
-18 -89 -33 -332 -34 -542 l0 -163 35 -46 c30 -39 35 -53 35 -98 0 -123 -120
-216 -227 -175 -56 21 -82 59 -115 164 l-31 100 6 340 c5 282 10 360 27 459
12 66 23 123 25 127 10 16 74 271 89 354 9 50 27 126 40 170 13 44 32 116 41
160 9 44 25 107 35 140 37 118 70 262 89 385 41 260 60 348 94 440 20 52 50
135 68 185 18 49 45 103 59 120 15 16 32 46 39 65 7 19 31 76 52 126 22 50 39
98 39 107 0 8 29 85 64 172 36 86 68 171 71 188 4 18 16 46 26 63 44 73 134
309 154 404 30 147 48 190 309 721 58 119 106 219 106 223 0 8 97 222 142 311
30 61 72 172 132 351 19 56 48 128 64 160 35 68 62 163 93 319 20 104 21 129
15 435 -22 1088 -27 1184 -73 1275 -11 22 -26 58 -33 80 -7 22 -18 51 -26 65
-7 14 -31 63 -52 110 -32 68 -55 100 -116 160 -41 41 -100 89 -130 106 -31 17
-63 37 -73 46 -18 16 -66 43 -200 112 -39 21 -123 52 -185 71 -62 18 -171 56
-241 83 l-128 51 -272 6 c-395 10 -571 -18 -788 -125 -144 -71 -207 -120 -260
-201 -87 -134 -144 -215 -185 -266 -70 -86 -105 -145 -164 -273 -86 -191 -217
-583 -230 -692 -9 -76 -39 -181 -83 -284 -41 -96 -65 -200 -74 -319 -5 -61 -7
-456 -3 -880 4 -638 8 -774 20 -795 7 -14 14 -56 15 -95 1 -38 7 -144 13 -235
14 -210 15 -544 2 -775 -6 -99 -15 -373 -20 -610 -10 -451 -15 -503 -64 -655
-32 -100 -41 -139 -76 -310 -16 -80 -41 -174 -55 -209 -15 -36 -36 -94 -46
-131 -10 -36 -38 -102 -63 -148 -25 -45 -46 -86 -46 -91 0 -13 -95 -194 -181
-346 -41 -71 -85 -152 -99 -178 -14 -26 -41 -68 -60 -92 -19 -24 -57 -71 -85
-106 -127 -158 -171 -208 -238 -266 -77 -67 -177 -142 -272 -203 -112 -73
-210 -142 -262 -186 -28 -24 -54 -44 -58 -44 -4 0 -24 -13 -44 -29 -20 -15
-56 -38 -81 -51 -43 -21 -239 -148 -250 -161 -3 -4 -25 -17 -50 -29 -67 -34
-217 -137 -284 -194 -121 -105 -327 -363 -404 -506 -43 -82 -58 -135 -67 -250
-4 -41 -11 -94 -16 -117 -5 -25 -5 -60 1 -90 6 -26 14 -73 20 -103 8 -47 17
-62 67 -112 31 -32 71 -62 88 -68 98 -31 707 -50 766 -23 15 6 86 19 160 28
111 15 152 16 249 6 90 -8 572 -13 1035 -9 55 0 284 -20 294 -26 4 -3 97 -14
207 -26 109 -11 226 -25 259 -31 33 -6 197 -14 365 -17 215 -5 311 -11 327
-19 15 -9 82 -13 235 -13 128 0 261 -6 333 -14 66 -8 179 -20 250 -26 72 -6
164 -18 205 -26 41 -8 93 -17 115 -20 22 -2 69 -13 105 -24 36 -10 85 -22 110
-25 25 -3 92 -14 150 -25 58 -10 182 -23 275 -29 94 -6 218 -17 277 -23 114
-13 296 -2 443 27 39 8 126 17 195 20 69 4 161 13 205 20 72 13 116 24 275 70
71 20 225 81 257 101 15 10 49 36 76 58 l47 39 0 111 c0 121 -8 154 -65 271
-40 83 -62 164 -71 260 -3 39 -12 106 -20 150 -18 98 -38 563 -29 663 5 54 16
91 41 142 40 78 81 113 215 181 45 22 94 49 108 60 14 10 48 23 75 29 26 6 96
26 155 44 58 19 149 42 201 51 52 9 124 25 160 35 36 10 102 21 148 24 46 3
108 13 138 23 50 15 74 16 297 4 133 -7 357 -17 497 -21 143 -5 270 -13 290
-20 25 -8 116 -9 320 -5 168 3 363 1 475 -5 336 -20 607 -23 927 -11 342 13
562 39 673 80 17 6 116 17 220 25 166 12 210 19 350 56 88 23 183 51 210 61
28 10 84 25 126 33 42 8 110 26 150 39 41 14 94 28 119 32 79 12 321 101 445
163 208 104 358 170 431 190 71 20 146 53 175 78 8 8 40 23 70 33 30 11 104
40 164 65 61 25 120 46 133 46 25 0 204 60 269 90 24 11 48 20 54 20 6 0 74
25 151 56 149 59 241 116 408 251 80 65 88 75 137 174 63 125 68 169 26 257
-48 104 -114 188 -179 233 -126 84 -176 119 -214 150 -50 40 -136 87 -220 120
-76 30 -173 66 -250 94 -186 67 -268 102 -419 180 -91 46 -193 96 -225 111
-63 29 -131 91 -175 159 -14 22 -42 60 -62 85 -20 25 -55 81 -77 125 -52 101
-55 144 -14 240 16 39 48 131 72 205 78 247 101 314 152 435 64 153 143 297
261 477 51 78 127 202 167 273 40 72 97 172 127 222 47 81 155 296 285 573 84
179 151 307 206 398 31 51 66 107 76 125 23 40 106 172 132 211 10 16 40 61
66 100 26 39 79 123 119 186 40 63 93 149 119 190 49 77 61 99 238 410 143
251 161 290 221 475 59 184 90 325 131 585 35 227 38 253 45 465 12 350 33
515 102 790 25 99 49 198 54 220 5 22 18 67 28 100 110 351 134 423 145 445 7
14 16 44 20 68 3 24 19 80 35 125 31 90 275 584 351 712 26 44 80 136 120 205
40 69 81 137 91 152 11 15 28 51 40 80 22 57 121 247 150 289 91 131 482 872
527 999 16 47 49 132 72 190 53 131 127 423 141 555 6 55 20 181 31 280 26
234 37 534 37 980 0 385 -6 492 -39 656 -22 105 -76 298 -112 399 -79 219
-275 670 -312 720 -6 8 -22 37 -36 64 -14 26 -41 67 -61 90 -19 22 -60 75 -91
116 -34 47 -84 97 -133 135 -43 33 -92 72 -109 86 -101 85 -305 216 -366 234
-13 4 -49 25 -80 45 -83 57 -211 118 -292 139 -68 19 -236 41 -424 57 -54 4
-115 1 -185 -9 -57 -9 -126 -19 -154 -22 -27 -3 -87 -15 -133 -26 -45 -11
-112 -24 -150 -29 -37 -5 -117 -16 -178 -24 -61 -8 -140 -18 -175 -22 -87 -9
-389 -96 -443 -128 -23 -14 -54 -40 -68 -58 -14 -18 -89 -97 -166 -175 -77
-78 -143 -151 -147 -163 -6 -20 -69 -125 -127 -215 -48 -73 -139 -302 -148
-373 -5 -37 -29 -126 -54 -198 -25 -73 -61 -196 -81 -275 -19 -79 -39 -151
-44 -159 -13 -24 -21 -69 -36 -207 -14 -129 -35 -248 -55 -313 -11 -39 -49
-255 -86 -495 -13 -88 -31 -180 -39 -205 -47 -146 -100 -559 -110 -866 -3 -93
-9 -206 -14 -250 -42 -362 -83 -1911 -57 -2141 6 -51 4 -97 -8 -165 -8 -51
-20 -174 -26 -273 -6 -99 -18 -211 -26 -250 -8 -38 -19 -117 -23 -175 -25
-305 -44 -480 -66 -617 -14 -84 -27 -176 -31 -205 -3 -29 -14 -100 -25 -158
-10 -58 -21 -125 -24 -150 -3 -25 -14 -108 -25 -185 -10 -77 -24 -187 -30
-245 -16 -154 -28 -211 -75 -350 -41 -120 -67 -177 -108 -230 -10 -13 -34 -58
-53 -99 -19 -41 -53 -97 -77 -125 -24 -28 -58 -71 -76 -96 -97 -136 -124 -168
-195 -231 -44 -38 -82 -69 -85 -69 -11 0 -213 -229 -245 -278 -56 -85 -106
-150 -120 -155 -16 -6 -176 -217 -198 -262 -8 -16 -23 -55 -33 -85 -14 -41
-20 -50 -25 -36 -5 16 -10 14 -38 -20 -18 -21 -38 -51 -45 -66 -6 -16 -15 -28
-19 -28 -20 0 5 -119 75 -365 25 -87 93 -240 179 -403 46 -86 98 -186 115
-222 141 -289 270 -549 307 -620 73 -138 246 -539 246 -570 0 -6 9 -38 21 -72
25 -76 45 -204 59 -380 5 -73 13 -158 16 -188 20 -205 24 -237 34 -295 44
-236 52 -434 20 -500 -54 -111 -216 -111 -270 0 -16 32 -20 62 -20 136 0 118
-22 276 -55 394 -13 50 -31 117 -39 150 -8 33 -24 101 -36 150 -13 50 -29 131
-36 180 -21 136 -70 291 -114 361 -22 34 -64 130 -94 213 -30 83 -70 172 -88
198 -18 27 -49 80 -69 118 -19 39 -63 122 -96 185 -34 63 -64 126 -68 140 -4
14 -15 36 -25 50 -10 14 -48 90 -84 170 -37 80 -78 165 -90 190 -69 133 -152
382 -180 540 -28 159 -28 169 -33 714 -4 510 -4 531 16 585 11 31 23 83 26
116 8 72 32 160 98 360 31 95 51 174 54 215 5 72 29 179 73 315 16 50 32 105
35 123 4 19 22 67 41 107 52 116 119 350 135 475 6 47 19 112 29 145 10 33 33
116 50 185 17 69 35 139 40 155 31 96 71 720 71 1095 0 157 2 528 5 825 5 463
3 562 -11 695 -21 190 -53 347 -105 505 -21 66 -46 149 -55 185 -9 36 -37 124
-62 195 -24 72 -49 144 -54 162 -44 146 -158 296 -367 479 -110 96 -174 130
-281 149 -47 8 -112 23 -145 34 -34 11 -108 27 -166 36 -108 17 -195 40 -217
58 -7 5 -13 7 -13 4 0 -3 -33 4 -72 15 -70 20 -96 21 -723 21 -725 1 -765 -2
-876 -58 -36 -19 -88 -39 -115 -46 -58 -14 -171 -69 -234 -113 -25 -18 -76
-48 -115 -67 -53 -26 -98 -61 -188 -149 -134 -129 -199 -210 -234 -290 -42
-94 -74 -152 -132 -238 -31 -46 -69 -104 -85 -130 -40 -64 -170 -328 -186
-377 -7 -22 -22 -53 -34 -70 -12 -16 -28 -57 -36 -90 -7 -33 -22 -85 -33 -115
-10 -30 -25 -80 -32 -110 -8 -30 -23 -82 -33 -115 -49 -150 -93 -311 -137
-505 -32 -141 -66 -271 -116 -450 -48 -174 -68 -341 -79 -650 -10 -285 -25
-492 -41 -590 -16 -97 -24 -717 -10 -826 26 -203 72 -476 92 -540 5 -17 9 -40
9 -51 0 -40 164 -550 202 -628 12 -25 26 -45 30 -45 4 0 8 -7 8 -16 0 -38 196
-423 254 -498 13 -17 26 -41 30 -53 4 -12 25 -55 48 -95 84 -150 119 -218 113
-218 -3 0 1 -12 9 -27 7 -16 36 -93 64 -173 28 -80 71 -194 96 -255 26 -60 49
-128 52 -150 8 -49 48 -190 67 -236 7 -19 17 -52 21 -74 4 -22 17 -74 30 -115
13 -41 37 -127 54 -190 90 -346 116 -462 132 -586 6 -45 16 -96 22 -115 9 -25
14 -356 19 -1209 5 -997 9 -1190 22 -1275 9 -55 21 -196 28 -312 13 -215 11
-268 -22 -683 -5 -58 -13 -208 -18 -335 -5 -126 -14 -248 -20 -269 -35 -138
-201 -171 -279 -56 -23 33 -24 39 -16 130 13 144 9 1116 -5 1330 -10 137 -10
196 -2 225 22 79 8 1433 -16 1493 -8 22 -11 20 -48 -34 -37 -54 -398 -425
-510 -524 -28 -25 -100 -99 -160 -166 -114 -125 -153 -188 -236 -384 -17 -41
-39 -93 -49 -115 -38 -87 -78 -203 -89 -255 -6 -30 -20 -104 -32 -165 -22
-116 -30 -137 -61 -171 -14 -15 -23 -52 -34 -140 -8 -65 -28 -180 -45 -254
-16 -74 -36 -164 -43 -200 -8 -36 -25 -112 -40 -170 -14 -58 -37 -150 -51
-205 -39 -160 -111 -392 -152 -493 -49 -122 -148 -250 -209 -271 -142 -49
-264 124 -168 238 28 33 63 114 89 206 10 33 25 76 35 95 34 67 98 277 149
485 28 116 58 235 66 265 22 78 65 306 65 344 0 18 11 88 24 157 14 68 28 162
32 209 3 47 15 119 26 160 40 161 68 412 68 628 0 137 4 191 14 217 37 87 45
197 65 845 7 241 18 428 36 620 3 30 16 111 30 180 13 69 36 193 50 275 25
149 49 264 100 485 15 63 29 129 31 145 7 46 53 214 76 275 11 30 24 73 28 95
11 50 44 152 76 230 26 65 68 202 85 275 6 24 15 47 20 51 20 12 13 94 -15
159 -53 127 -84 206 -99 250 -14 43 -82 213 -131 330 -71 167 -168 449 -208
605 -16 66 -34 127 -38 136 -5 8 -20 89 -35 180 -14 90 -32 198 -39 239 -15
91 -5 985 13 1090 16 95 30 308 41 615 8 243 24 478 35 495 2 4 16 76 30 161
27 163 71 362 87 391 5 10 19 71 33 135 50 246 86 382 135 513 28 74 55 153
60 175 5 22 40 99 78 170 141 268 179 341 192 375 16 39 85 152 173 283 31 47
70 116 85 154 109 269 454 613 758 759 55 26 110 55 124 64 14 9 48 25 76 34
60 20 74 44 99 181 9 50 39 178 65 285 66 269 74 338 100 840 5 102 15 233 21
291 16 154 7 758 -14 866 -38 198 -92 335 -274 698 -152 302 -176 333 -373
497 -159 132 -167 137 -339 235 -146 84 -215 114 -351 153 -175 50 -206 52
-770 60 -316 5 -553 12 -580 18 -50 12 -107 13 -250 2z m389 -361 c51 -5 105
-15 119 -20 14 -6 84 -14 155 -19 123 -9 205 -28 235 -55 18 -17 42 -111 42
-170 0 -31 -7 -60 -18 -76 -43 -63 -87 -108 -116 -120 -17 -7 -38 -18 -46 -25
-16 -14 -92 -42 -180 -68 -68 -19 -350 -37 -825 -52 -259 -8 -335 1 -430 51
-124 66 -264 164 -290 203 -52 79 -41 133 35 172 39 20 215 80 235 80 5 0 22
6 36 14 70 36 225 88 286 96 87 11 639 4 762 -11z m9737 -979 c162 -16 279
-47 319 -85 55 -52 72 -178 31 -224 -44 -49 -287 -129 -416 -138 -91 -6 -252
8 -359 32 -108 23 -337 63 -486 85 -172 25 -195 33 -195 70 0 34 43 117 77
149 61 58 226 86 550 96 122 4 246 11 275 15 77 11 84 11 204 0z m-5728 -3374
c60 -19 139 -85 148 -122 7 -28 -26 -78 -64 -98 -15 -7 -56 -18 -92 -24 -181
-30 -301 -36 -780 -36 -478 -1 -496 0 -529 19 -49 29 -73 67 -79 123 -4 47 -3
50 24 60 16 6 73 27 127 46 l98 36 197 1 c108 0 206 4 217 9 11 5 169 8 350 7
284 -3 337 -5 383 -21z m-5509 -5837 c74 -16 150 -29 169 -29 53 0 150 -41
192 -80 27 -25 40 -47 45 -77 9 -54 1 -77 -33 -94 -15 -7 -40 -22 -56 -33 -40
-27 -238 -38 -591 -34 -276 3 -281 4 -378 33 -54 16 -109 39 -122 51 -27 24
-41 80 -31 121 9 35 66 90 102 98 16 4 65 22 109 41 l80 33 190 0 c172 0 203
-3 324 -30z"/>
<path d="M8169 22016 c-2 -2 -71 -14 -154 -26 -176 -26 -435 -97 -640 -176
-77 -30 -153 -61 -168 -69 -16 -8 -35 -15 -43 -15 -17 0 -417 -203 -506 -256
-31 -19 -74 -56 -96 -82 -50 -59 -141 -216 -175 -302 -14 -36 -40 -94 -57
-129 -46 -95 -128 -306 -151 -391 -19 -67 -21 -112 -26 -440 -5 -388 6 -683
30 -765 22 -77 81 -307 112 -435 45 -186 99 -328 209 -548 143 -286 198 -379
318 -544 58 -79 116 -161 131 -183 14 -22 40 -56 57 -75 18 -19 57 -70 87
-112 53 -76 73 -97 73 -81 1 4 5 27 9 51 8 41 7 45 -28 79 l-36 36 34 -27 34
-28 25 64 c13 35 35 101 49 148 13 47 31 108 40 135 9 31 18 126 24 255 5 113
14 230 20 260 15 80 56 201 105 310 23 53 45 119 49 146 4 27 14 61 21 76 8
15 14 39 14 53 0 34 54 311 85 435 62 250 172 474 298 607 48 51 216 173 238
173 5 0 55 31 112 69 124 83 310 178 407 206 14 4 63 26 110 47 47 22 123 53
168 69 46 15 104 42 130 59 25 16 49 30 54 30 29 0 -20 245 -75 370 -81 187
-119 274 -148 336 -16 34 -29 68 -29 75 0 39 -69 152 -148 244 -48 55 -100
116 -114 135 -15 19 -45 46 -68 60 -23 14 -67 45 -97 68 -81 65 -146 92 -219
92 -33 0 -63 -2 -65 -4z m-296 -387 c32 -16 126 -109 143 -141 22 -41 18 -109
-8 -148 -13 -19 -48 -50 -79 -69 -73 -47 -147 -103 -217 -167 -32 -28 -75 -61
-97 -72 -22 -11 -65 -37 -95 -57 -107 -72 -188 -104 -450 -179 -115 -33 -131
-35 -185 -26 -89 15 -142 62 -152 136 -10 74 53 165 176 255 42 30 96 76 122
100 60 59 262 181 339 204 14 4 32 13 40 19 8 7 33 18 56 24 23 7 62 28 88 48
80 61 261 103 319 73z"/>
<path d="M9166 20165 c-9 -10 -49 -19 -108 -25 -51 -5 -131 -19 -178 -30 -47
-11 -114 -27 -149 -36 -78 -18 -135 -49 -266 -148 -55 -42 -105 -76 -111 -76
-6 0 -17 -7 -24 -15 -6 -7 -36 -28 -66 -45 -47 -26 -65 -46 -123 -134 -38 -57
-91 -151 -119 -207 -55 -116 -180 -476 -188 -548 -3 -25 -14 -73 -24 -106 -10
-33 -22 -78 -28 -100 -6 -22 -26 -87 -46 -145 -60 -179 -116 -459 -116 -584 0
-48 -8 -114 -19 -157 -29 -114 -57 -249 -87 -422 -22 -126 -31 -157 -43 -155
-12 2 -27 -40 -67 -197 -29 -110 -60 -222 -68 -249 -9 -27 -16 -69 -16 -93 0
-48 -11 -75 -43 -110 -19 -21 -20 -31 -14 -245 5 -211 21 -399 67 -813 25
-224 28 -256 35 -380 4 -55 15 -154 26 -220 11 -66 35 -243 54 -395 34 -279
49 -363 112 -595 102 -384 201 -669 316 -915 60 -129 299 -605 311 -620 7 -8
44 -68 82 -133 38 -64 104 -177 147 -250 43 -72 88 -152 100 -177 12 -25 34
-61 50 -81 41 -54 248 -467 327 -654 75 -176 191 -533 235 -725 48 -208 75
-324 101 -430 15 -58 30 -127 34 -155 5 -27 15 -66 23 -85 19 -44 51 -177 72
-301 9 -52 25 -130 35 -174 24 -99 56 -284 70 -401 18 -152 44 -304 51 -304 4
0 13 23 20 52 6 29 20 71 31 94 13 32 18 65 17 135 0 53 9 149 21 219 12 69
25 152 30 185 5 33 14 87 20 120 14 73 26 265 39 607 6 142 16 315 22 385 14
144 14 438 0 1920 -5 545 -12 996 -15 1001 -17 27 40 227 97 338 14 27 32 83
40 124 9 41 24 100 35 130 10 30 27 96 36 145 45 239 100 477 127 547 45 117
165 354 224 443 57 87 175 205 243 245 24 14 76 50 117 80 41 30 105 73 142
96 37 22 110 66 161 98 51 32 107 62 125 67 52 14 127 66 127 87 0 11 9 55 19
98 22 90 29 168 41 484 16 386 32 556 66 690 14 54 20 94 50 322 8 65 21 136
30 160 8 23 17 76 20 118 4 41 14 104 24 140 41 148 60 267 80 495 11 132 25
290 32 350 12 116 14 474 2 559 -3 28 -13 68 -20 90 -8 21 -14 48 -14 60 0 11
-30 81 -67 154 -73 146 -148 237 -231 280 -24 12 -106 64 -183 115 -181 120
-215 140 -272 161 -32 12 -51 26 -57 42 -6 14 -18 24 -28 24 -11 0 -40 11 -67
25 -29 16 -90 33 -164 46 -272 47 -331 58 -426 79 -137 29 -286 39 -577 40
-208 0 -249 -2 -262 -15z m599 -405 c55 -6 141 -15 192 -20 95 -10 238 -43
333 -78 271 -98 412 -163 451 -209 22 -25 79 -133 79 -149 0 -17 -75 -68 -148
-102 -45 -20 -81 -27 -167 -34 -153 -10 -627 8 -798 31 -78 11 -173 22 -212
26 -117 11 -271 53 -560 155 -135 48 -228 105 -280 174 l-26 35 23 31 c29 40
71 62 216 110 l117 39 340 1 c187 0 385 -4 440 -10z"/>
<path d="M14841 13683 c-11 -43 -31 -135 -45 -204 -14 -69 -34 -159 -46 -200
-11 -40 -20 -92 -20 -114 0 -22 -7 -64 -14 -93 -8 -29 -17 -83 -21 -120 -4
-37 -22 -146 -41 -242 -29 -149 -57 -337 -130 -845 -7 -49 -18 -148 -24 -220
-6 -71 -18 -157 -25 -190 -8 -33 -30 -146 -50 -252 -19 -105 -39 -203 -44
-216 -12 -31 -38 -211 -45 -309 -4 -55 -2 -78 6 -78 13 0 92 82 152 160 24 30
94 131 156 224 91 136 138 195 244 304 183 189 208 212 231 212 19 0 29 16 90
149 31 68 66 136 77 151 19 26 19 30 5 121 -9 52 -25 155 -37 229 -11 74 -36
185 -55 246 -19 61 -44 169 -55 240 -11 71 -24 156 -29 189 -6 33 -14 107 -19
165 -5 58 -17 128 -25 155 -36 111 -56 183 -66 233 -6 29 -33 101 -60 160 -27
59 -56 133 -65 165 -9 31 -18 57 -20 57 -2 0 -13 -35 -25 -77z"/>
<path d="M22984 8241 c-17 -5 -91 -55 -165 -113 -198 -154 -286 -211 -411
-263 -62 -26 -118 -52 -124 -56 -29 -23 -301 -112 -442 -145 -35 -8 -73 -21
-85 -28 -12 -8 -60 -30 -107 -49 -47 -20 -125 -54 -175 -77 -49 -23 -128 -53
-175 -67 -47 -13 -114 -39 -150 -58 -313 -159 -539 -252 -725 -296 -44 -11
-114 -30 -155 -44 -41 -13 -95 -27 -120 -30 -25 -4 -79 -17 -120 -30 -41 -13
-156 -45 -255 -71 -99 -26 -202 -55 -228 -66 -69 -26 -217 -55 -322 -63 -117
-8 -224 -20 -305 -34 -36 -6 -185 -27 -331 -46 -259 -34 -277 -35 -595 -35
-181 0 -466 7 -634 15 -168 8 -396 15 -506 15 -203 0 -328 13 -423 45 -25 8
-69 15 -99 15 -30 0 -82 7 -116 16 -52 13 -111 15 -386 11 l-325 -4 -120 -31
c-66 -18 -127 -32 -135 -32 -20 0 -270 -69 -295 -81 -127 -63 -181 -97 -193
-122 -11 -23 -12 -78 -3 -305 9 -259 12 -284 39 -382 16 -58 37 -134 46 -170
20 -78 50 -181 78 -270 18 -58 20 -84 16 -231 -5 -203 -15 -229 -127 -337 -76
-73 -147 -115 -408 -241 l-73 -35 0 -120 c0 -67 -4 -126 -8 -133 -4 -6 -6 47
-4 117 l4 129 -64 -19 c-44 -13 -144 -23 -333 -35 -183 -11 -293 -23 -340 -35
-140 -37 -217 -45 -425 -44 -162 0 -217 4 -265 17 -40 12 -129 21 -265 27
-113 6 -308 24 -435 41 -197 27 -278 32 -560 39 -344 9 -517 22 -574 46 -18 8
-66 14 -106 14 -40 0 -90 6 -111 14 -22 7 -74 16 -117 20 -43 4 -90 11 -105
17 -35 13 -432 65 -662 87 -152 14 -281 17 -723 15 -510 -2 -542 -3 -613 -23
-42 -11 -126 -25 -187 -31 -175 -17 -641 -22 -836 -10 -195 13 -218 21 -412
131 -77 45 -96 61 -149 132 -34 44 -73 103 -88 132 l-27 51 1 262 c1 218 3
269 17 300 9 21 23 74 32 119 9 45 27 112 41 150 14 38 30 85 36 104 6 19 40
91 76 160 36 69 77 148 92 176 14 28 32 59 40 69 14 17 13 18 -25 11 -51 -9
-129 -45 -230 -105 -44 -26 -102 -60 -130 -76 -27 -16 -99 -78 -159 -138 -125
-124 -176 -161 -331 -241 -60 -31 -150 -79 -200 -106 -83 -46 -339 -167 -445
-210 -25 -10 -76 -32 -115 -48 -38 -17 -97 -41 -130 -54 -247 -102 -252 -105
-635 -453 -37 -33 -99 -89 -139 -124 -40 -35 -134 -134 -209 -220 -74 -86
-197 -219 -272 -296 -147 -151 -200 -213 -273 -316 -79 -113 -229 -370 -263
-452 -32 -77 -62 -130 -109 -195 -13 -18 -25 -38 -27 -43 -2 -6 -22 -12 -45
-13 -53 -4 -61 -10 -80 -57 -8 -21 -18 -39 -22 -39 -8 0 -44 -59 -96 -158 -27
-51 -34 -58 -73 -66 -41 -10 -42 -11 -42 -48 0 -41 -18 -86 -44 -107 -13 -11
-16 -35 -16 -117 0 -57 -4 -104 -8 -104 -5 0 -18 -9 -30 -20 -17 -16 -22 -32
-22 -70 l0 -50 5993 0 c3295 0 8839 -1 12320 -3 4326 -1 6327 1 6327 8 0 19
-32 56 -56 65 -17 7 -24 17 -24 37 0 16 -12 40 -28 58 -15 16 -34 48 -41 70
-7 22 -24 54 -37 72 -13 17 -24 43 -24 57 0 15 -10 35 -25 48 -23 20 -25 29
-25 104 0 71 -3 85 -20 97 -22 15 -40 57 -40 92 0 38 -18 67 -61 100 -26 20
-50 52 -70 95 -36 78 -34 73 -85 147 -22 32 -43 65 -47 73 -4 8 -20 34 -35 56
-15 23 -47 75 -72 115 -24 41 -54 88 -66 104 -12 17 -51 84 -86 150 -63 116
-118 208 -230 383 -97 154 -378 426 -618 600 -58 42 -184 140 -280 217 -96 77
-211 167 -255 200 -123 92 -451 420 -604 605 -231 278 -310 399 -451 685 -60
121 -139 267 -175 324 -37 58 -109 177 -161 266 -51 88 -117 194 -146 234 -29
41 -59 85 -67 99 -42 78 -288 269 -549 426 -208 125 -186 116 -265 115 -40 -1
-86 -4 -103 -8z m-8657 -4008 c-3 -10 -5 -4 -5 12 0 17 2 24 5 18 2 -7 2 -21
0 -30z m106 -886 c31 -4 31 -4 -5 -5 l-38 -2 2 393 3 392 2 -387 3 -387 33 -4z
m67 -102 c13 -14 21 -25 18 -25 -2 0 -15 11 -28 25 -13 14 -21 25 -18 25 2 0
15 -11 28 -25z m27 -87 c-2 -13 -4 -5 -4 17 -1 22 1 32 4 23 2 -10 2 -28 0
-40z m89 -151 c5 -7 1 -4 -8 6 -10 11 -18 31 -17 46 1 24 2 23 9 -6 4 -18 11
-39 16 -46z m172 -134 c-10 -2 -28 -2 -40 0 -13 2 -5 4 17 4 22 1 32 -1 23 -4z
m113 -123 c16 0 29 -4 29 -8 0 -4 -16 -6 -35 -4 -33 4 -35 6 -33 41 l1 36 4
-32 c4 -29 8 -33 34 -33z"/>
</g>
</svg>
