<?xml version="1.0" encoding="UTF-8" standalone="no"?>
<svg
   xmlns:dc="http://purl.org/dc/elements/1.1/"
   xmlns:cc="http://creativecommons.org/ns#"
   xmlns:rdf="http://www.w3.org/1999/02/22-rdf-syntax-ns#"
   xmlns:svg="http://www.w3.org/2000/svg"
   xmlns="http://www.w3.org/2000/svg"
   xmlns:sodipodi="http://sodipodi.sourceforge.net/DTD/sodipodi-0.dtd"
   xmlns:inkscape="http://www.inkscape.org/namespaces/inkscape"
   version="1.0"
   width="3032.1365"
   height="3425.5254"
   viewBox="0 0 2425.7092 2740.4203"
   preserveAspectRatio="xMidYMid meet"
   id="svg3336"
   inkscape:version="0.48.4 r9939"
   sodipodi:docname="squid.svg">
  <defs
     id="defs3376" />
  <sodipodi:namedview
     pagecolor="#ffffff"
     bordercolor="#666666"
     borderopacity="1"
     objecttolerance="10"
     gridtolerance="10"
     guidetolerance="10"
     inkscape:pageopacity="0"
     inkscape:pageshadow="2"
     inkscape:window-width="1867"
     inkscape:window-height="1060"
     id="namedview3374"
     showgrid="false"
     inkscape:zoom="0.01"
     inkscape:cx="29500.746"
     inkscape:cy="-30180.11"
     inkscape:window-x="50"
     inkscape:window-y="-3"
     inkscape:window-maximized="1"
     inkscape:current-layer="g3340"
     fit-margin-top="0"
     fit-margin-left="0"
     fit-margin-right="0"
     fit-margin-bottom="0" />
  <metadata
     id="metadata3338">
Created by potrace 1.11, written by Peter Selinger 2001-2013
<rdf:RDF>
  <cc:Work
     rdf:about="">
    <dc:format>image/svg+xml</dc:format>
    <dc:type
       rdf:resource="http://purl.org/dc/dcmitype/StillImage" />
    <dc:title />
  </cc:Work>
</rdf:RDF>
</metadata>
  <g
     transform="matrix(0.1,0,0,-0.1,-197.58316,2896.4845)"
     id="g3340"
     style="fill:#000000;stroke:none">
    <path
       d="m 15820.934,23604.604 c 77.576,-1055.566 122.879,2265.562 245.965,3072.42 86.862,548.303 134.184,1122.754 412.058,1615.628 136.269,250.941 414.11,372.821 657.627,496.837 325.631,137.745 690.957,224.571 1042.812,145.007 579.559,-54.662 1079.693,-386.208 1639.09,-518.637 292.243,-84.014 2027.623,-104.076 2329.786,-138.726 9.518,-227.94 -1849.2,-1017.094 -1996.347,-1158.231 -211.301,-182.107 -593.675,-408.836 -952.73,-674.681 -244.311,-127.44 -362.521,-288.086 -574.225,-461.97 -384.937,-238.195 -949.246,-738.883 -1307.282,-1025.813 -347.202,-418.283 -485.921,-448.247 -885.597,-814.157 -227.437,-190.811 -395.603,-333.022 -611.157,-537.677 z"
       id="path3423"
       inkscape:connector-curvature="0"
       sodipodi:nodetypes="ccccccccccccc" />
    <path
       d="m 23850,28500 c -671.226,-90.72 -2455.483,-1069.594 -1860.375,-767 -1728.706,-1084.312 -3434.986,-2234.03 -4922.625,-3639 -352.043,-342.48 -336.298,-307.858 -1107,-1029 52.051,47.976 72.833,184.154 -706,-676 -535.625,-410.706 -1262.357,-1639.466 -1753,-2549 -581.107,-868.959 -1101.868,-1780.136 -1728.312,-2617.875 -601.686,-374.323 158.516,-775.914 122.095,-1492.79 -50.798,-319.947 805.565,-1521.937 983.421,-1676.997 888.88,-450.2 1136.997,-413.961 1583.627,-724.422 488.957,-497.623 1776.526,297.727 1543.169,164.084 651.177,493.656 1317.61,965.291 1913,1527.422 793.328,637.443 1514.938,1367.853 2138,2171.578 881.09,993.474 1535.113,2171.077 1994,3414 391.65,818.211 834.885,1611.919 1155,2463 495.633,1389.983 1223.823,2703.018 1544.422,4153.359 164.408,666.297 -22.487,1493.243 -899.422,1278.641 z"
       id="path3344"
       inkscape:connector-curvature="0"
       sodipodi:nodetypes="ccccccccccccccccc" />
    <path
       d="m 21240,27395 c -33,-19 -21,-19 21,0 19,8 27,14 19,14 -8,0 -26,-6 -40,-14 z"
       id="path3346"
       inkscape:connector-curvature="0" />
    <path
       d="m 21190,27370 c -9,-6 -10,-10 -3,-10 6,0 15,5 18,10 8,12 4,12 -15,0 z"
       id="path3348"
       inkscape:connector-curvature="0" />
    <path
       d="m 20954,27225 c -10,-8 -14,-14 -9,-14 6,0 19,6 29,14 11,8 15,15 10,15 -6,0 -19,-7 -30,-15 z"
       id="path3350"
       inkscape:connector-curvature="0" />
    <path
       d="m 20894,27185 c -10,-8 -14,-15 -8,-15 6,0 17,7 24,15 16,19 9,19 -16,0 z"
       id="path3352"
       inkscape:connector-curvature="0" />
    <path
       d="m 20790,27140 c -13,-8 -12,-10 3,-10 9,0 17,5 17,10 0,12 -1,12 -20,0 z"
       id="path3354"
       inkscape:connector-curvature="0" />
    <path
       d="m 20655,27042 c -28,-26 -46,-44 -41,-39 6,4 17,7 26,8 15,1 89,79 74,79 -5,0 -32,-22 -59,-48 z"
       id="path3356"
       inkscape:connector-curvature="0" />
    <path
       d="m 24523.025,25272.711 c -811.603,-2091.833 -97.667,-529.547 -228.355,-688.422 -169.331,-283.854 -312.472,-897.117 -504.461,-1168.342 -146.191,-593.842 -95.665,-427.938 -294.407,-924.526 -61.439,-197.193 -170.178,-64.504 -198.256,-269.999 -51.945,-210.868 -74.577,-199.614 -130.392,-411.093 -90.183,-165.677 -223.311,-537.052 -339.082,-688.104 -57.52,-110.644 -627.156,-1053.159 -350.179,-912.646 521.839,171.493 1778.125,366.713 2313.052,482.999 209.326,45.48 428.385,88.527 619.055,182.422 271.423,224.204 562.839,462.446 718.118,788.437 117.754,331.472 86.366,691.24 101.838,1037.322 27.831,372.45 -146.149,714.812 -271.139,1055.218 -110.273,288.829 -246.848,567.676 -437.755,812.286 -162.349,230.716 -500.986,1487.225 -652.839,1725.042 z"
       id="path3358"
       inkscape:connector-curvature="0"
       sodipodi:nodetypes="cccccccccccccccc" />
    <path
       d="m 7287.8679,24381.006 c -568.7575,-200.108 -1037.3671,-1604.461 -881.5463,-2708.313 108.2509,-766.861 29.2465,-985.724 -38.5512,-1286.801 -928.17,-1559.35 -1201.6479,-2436.491 -1683.6032,-3479.528 C 3450.9032,15143.968 2492.1572,13347.275 2009.8438,11243.469 1753.0748,9838.0132 2986.1512,8180.7911 4493,8365.875 5514.709,8498.0276 7901.9208,9168.7521 6850,8891 5798.5344,7283.6547 5452.2912,5129.5281 6191.875,3330 6678.7202,2514.4196 7476.4568,2074.7935 8423.4785,1713.2578 c 1035.1966,-428.3008 2729.6875,146.2371 4031.0525,481.9766 1197.845,339.4054 2760.197,1187.3862 3891.733,1698.319 189.736,208.9537 1082.118,801.4237 1938.786,1436.5521 848.1,628.7769 1145.758,1155.7966 1847.435,1327.4719 821.075,200.8877 409.445,-37.3912 821.075,200.8877 531.676,376.5187 1965.949,1151.7045 1478.92,2452.2191 C 21577.452,10164.95 19464.645,7588.3036 19981.098,8192.8344 19263.9,7675.9261 19578.332,7457.7215 19139.153,6952.9665 17916.803,5548.1045 15490.541,3902.1693 14755,3720 13350.315,3076.1736 11841.128,2528.3438 10321.734,2289.1099 9385.6961,1963.1028 8799.9821,2352.9513 7494.4121,2815.9648 6209.528,3540.3911 6390.2573,6407.5555 6463.1797,5462.3242 6473.8534,6523.9033 6721.6434,7415.4916 7241,8516 7891.0647,9322.1842 9134.0601,9490.204 8590,9772 8103.576,9191.7241 7035.343,7145.0727 7371.5,7835.125 c -175.1808,-393.1034 -88.9111,-2922.0582 267.3741,-2762.7674 90.7703,40.5823 271.3322,774.4596 159.7509,1265.8924 96.3436,1130.0973 410.1687,2293.75 1126.25,3195.5 C 9411.3702,9356.2674 9004.3559,9379.1951 8558.5,7790 8270.0296,6962.6499 9184.1945,4501.0402 10133.238,4278.5804 10049.516,5232.334 9096.2336,6550.67 9160,7746 c 32.9381,1118.4288 1002.55,1827.8935 1821.582,2434.086 523.861,347.368 1052.312,732.824 1692.543,802.164 600.806,337.392 1707.476,1739.785 1274.537,1837.412 -871.305,925.203 -1774.964,666.215 -1996.505,1899.161 -489.156,878.228 -602.924,403.502 -1559.361,-147.739 C 9323.7411,14568.286 8615.1896,11856.1 8921,12660 8591.634,11776.942 6103.2723,10777.801 6898,11109 c -722.0957,-147.406 -1617.9523,290.977 -1898.2969,817.906 -7.7375,722.15 -451.0088,1136.579 -508.5781,255.469 C 4346.2391,11302.599 5172.644,10515.291 6075,10503 c 1165.8923,26.465 1983.1797,-179.071 1728.7112,429.578 -928.3013,-891.905 -2856.2238,-1061.7043 -4080.5775,-732.169 -748.7149,-189.126 178.9136,-844.1676 1274.5714,-757.1934 C 6023.3081,9319.7163 6896.2825,9902.7738 7804,10261 8809.7274,10841.737 7861.3411,9892.7198 7276,9764 6217.4047,9106.7776 4924.9817,8778.0227 3688.7344,8995.9531 2718.3926,9347.5125 2305.2128,10544.05 2604.3301,11485.742 c 414.384,1529.172 1019.8665,3038.68 2022.1699,4284.758 650.0863,923.79 2002.4517,4372.289 2745.0281,5219.663 607.5799,577.219 630.5342,786.773 822.8675,1614.618 -59.4843,1628.302 -193.7439,1893.937 -906.5277,1776.225 z m 3272.9631,-10251.21 c 398.396,-809.371 -891.9881,-1224.182 -701.6267,-534.243 44.84,158.996 278.3137,494.349 701.6267,534.243 z m 2111.796,-2242.085 c 861.997,-296.568 -1326.048,-1192.475 -843.578,-287.169 142.748,225.326 549.976,367.778 843.578,287.169 z"
       id="path3360"
       inkscape:connector-curvature="0"
       sodipodi:nodetypes="cscccccccccsscccscccccccscccccccccccccccccccccccccccccccc" />
    <path
       d="m 21837,19693 c -4,-3 -7,-11 -7,-17 0,-6 5,-5 12,2 6,6 9,14 7,17 -3,3 -9,2 -12,-2 z"
       id="path3362"
       inkscape:connector-curvature="0" />
    <path
       d="m 12335,15070 c 3,-5 8,-10 11,-10 2,0 4,5 4,10 0,6 -5,10 -11,10 -5,0 -7,-4 -4,-10 z"
       id="path3364"
       inkscape:connector-curvature="0" />
    <path
       d="m 6072,12941 c -74.9374,-59.515 -81.4899,-163.759 -104.8197,-249.713 -29.6966,-136.597 -13.0841,-277.365 -7.2912,-415.603 7.1508,-126.3 32.793,-251.788 85.9082,-367.095 61.4716,-150.865 119.2341,-303.722 194.2027,-448.589 110.8031,-0.545 222.7592,-2.606 330.875,25.5 77.3,-0.592 149.7669,27.188 225.9141,34.184 68.9833,3.691 139.6442,17.645 202.2109,47.316 -26.3077,59.358 -78.451,105.745 -117.9038,157.662 -149.3314,190.723 -305.0915,377.327 -432.5599,583.936 -108.5921,164.092 -180.648,349.821 -222.1947,541.673 -6.5169,60.52 -58.4943,148.176 -129.0796,106.85 -8.7853,-4.776 -17.1256,-10.323 -25.262,-16.121 z"
       id="path3366"
       inkscape:connector-curvature="0" />
    <path
       d="m 10048,9223 c -84.2158,-63.2308 -116.6348,-166.9989 -182,-238 -79.5786,-51.7959 -111.2413,-156.103 -177,-231.375 -36.7348,-85.0721 -138.4545,-137.484 -137.4375,-248.4062 -68.6508,-141.8018 16.2256,-293.8849 80.9131,-420.3587 149.4608,-231.5083 358.6348,-420.1882 581.9604,-578.9571 194.635,-140.0167 445.145,-158.4486 676.752,-169.4714 243.103,5.5632 491.966,36.4561 716.038,135.3335 103.71,52.2397 108.146,180.0106 166.883,266.6099 9.278,129.1058 -154.929,105.9571 -235.17,79.0933 -229.975,-38.7398 -473.073,-19.6567 -686.216,79.6704 -216.791,92.4379 -462.267,186.0632 -577.318,408.2384 -72.332,139.3613 -152.566,286.2632 -139.522,448.8241 -1.902,151.2096 1.491,303.0792 34.448,451.2395 8.585,51.7968 27.439,191.7085 -46.526,91.7258 -25.612,-24.367 -50.797,-49.1803 -75.805,-74.1665 z"
       id="path3368"
       inkscape:connector-curvature="0" />
    <path
       d="m 7450,8589 c -7,-11 -10,-23 -7,-25 2,-2 9,7 15,21 14,30 7,33 -8,4 z"
       id="path3370"
       inkscape:connector-curvature="0" />
    <path
       d="m 7415,8529 c -4,-6 -5,-12 -2,-15 2,-3 7,2 10,11 7,17 1,20 -8,4 z"
       id="path3372"
       inkscape:connector-curvature="0" />
  </g>
</svg>
