<?xml version="1.0" standalone="no"?>
<!DOCTYPE svg PUBLIC "-//W3C//DTD SVG 20010904//EN"
 "http://www.w3.org/TR/2001/REC-SVG-20010904/DTD/svg10.dtd">
<svg version="1.0" xmlns="http://www.w3.org/2000/svg"
 width="110592.000000pt" height="110592.000000pt" viewBox="0 0 110592.000000 110592.000000"
 preserveAspectRatio="xMidYMid meet">
<metadata>
Created by potrace 1.11, written by Peter Selinger 2001-2013
</metadata>
<g transform="translate(0.000000,110592.000000) scale(21.600000,-21.600000)"
fill="#000000" stroke="none">
<path d="M4515 5063 c-147 -53 -265 -180 -290 -314 -4 -19 -10 -40 -13 -47 -7
-10 -1313 -342 -1348 -342 -9 0 -47 29 -84 64 -95 89 -151 110 -295 111 -103
0 -114 -2 -178 -32 -93 -44 -169 -119 -215 -212 -36 -72 -37 -79 -37 -181 0
-102 1 -109 37 -181 67 -136 197 -230 342 -247 37 -5 73 -15 80 -23 17 -18
678 -1586 684 -1621 3 -18 -4 -37 -24 -62 -16 -20 -33 -36 -39 -36 -30 -1
-1863 436 -1876 447 -9 8 -19 31 -23 51 -17 111 -122 238 -243 295 -120 56
-284 48 -398 -18 -49 -29 -120 -98 -151 -147 -84 -132 -84 -324 0 -456 27 -44
113 -132 127 -132 32 0 26 -50 -66 -549 -52 -282 -99 -518 -104 -525 -6 -7
-30 -18 -53 -25 -113 -34 -219 -124 -271 -230 -30 -63 -32 -72 -32 -182 0
-113 1 -117 37 -190 81 -164 246 -260 423 -246 217 16 384 182 402 398 11 130
-40 256 -143 355 -35 33 -64 69 -64 80 0 20 177 987 186 1016 3 10 26 23 57
32 29 8 72 28 97 44 45 29 130 110 130 124 0 5 10 8 22 8 28 0 1848 -429 1870
-441 9 -5 25 -37 34 -70 52 -186 226 -319 414 -319 266 1 474 242 430 500 -32
192 -176 332 -374 362 -59 9 -81 17 -91 32 -8 12 -167 381 -354 820 l-341 799
17 27 c10 15 32 48 49 74 18 26 40 77 50 114 9 37 20 70 24 75 6 7 1332 347
1354 347 6 0 36 -25 66 -56 37 -38 79 -69 130 -93 72 -35 79 -36 185 -36 103
0 114 2 178 32 88 42 163 117 208 208 33 67 34 74 34 185 0 111 -1 118 -34
185 -45 91 -120 166 -208 208 -60 28 -80 32 -168 34 -77 3 -112 -1 -150 -14z"/>
</g>
</svg>
