<?xml version="1.0" standalone="no"?>
<!DOCTYPE svg PUBLIC "-//W3C//DTD SVG 20010904//EN"
 "http://www.w3.org/TR/2001/REC-SVG-20010904/DTD/svg10.dtd">
<svg version="1.0" xmlns="http://www.w3.org/2000/svg"
 width="110592.000000pt" height="110592.000000pt" viewBox="0 0 110592.000000 110592.000000"
 preserveAspectRatio="xMidYMid meet">
<metadata>
Created by potrace 1.11, written by Peter Selinger 2001-2013
</metadata>
<g transform="translate(0.000000,110592.000000) scale(3.590649,-3.590649)"
fill="#000000" stroke="none">
<path d="M13320 25544 c-58 -19 -154 -59 -215 -89 -60 -29 -123 -57 -140 -61
-66 -15 -86 -34 -120 -107 -50 -112 -109 -329 -200 -742 -46 -209 -102 -437
-139 -570 -24 -82 -55 -197 -70 -255 -50 -188 -97 -323 -138 -400 -47 -86
-186 -302 -261 -405 -144 -198 -231 -313 -338 -445 -64 -80 -194 -255 -289
-390 -95 -135 -183 -256 -196 -270 -12 -14 -68 -88 -123 -165 -56 -77 -116
-160 -134 -185 -18 -25 -72 -112 -121 -195 -162 -274 -269 -449 -337 -550
-326 -491 -624 -1072 -785 -1533 -36 -103 -91 -248 -121 -322 -30 -74 -73
-182 -95 -240 -22 -58 -46 -118 -54 -135 -37 -79 -237 -751 -293 -985 -66
-276 -79 -340 -100 -470 -11 -69 -33 -213 -50 -320 -68 -428 -74 -489 -96
-945 -15 -318 -8 -558 31 -995 8 -96 19 -249 25 -340 11 -187 42 -485 64 -605
8 -44 21 -136 30 -205 19 -144 54 -313 125 -600 28 -113 70 -297 95 -409 28
-128 61 -248 89 -320 73 -192 114 -309 308 -881 44 -129 96 -273 115 -320 19
-47 80 -219 134 -382 55 -168 131 -370 173 -465 40 -92 91 -215 111 -273 21
-58 53 -139 71 -180 29 -66 32 -81 24 -115 -5 -22 -10 -67 -10 -100 0 -33 -4
-76 -9 -95 -45 -177 -51 -193 -95 -244 -63 -74 -139 -149 -245 -245 -51 -47
-107 -103 -122 -125 l-29 -39 57 -51 c73 -64 258 -236 345 -321 48 -47 94 -79
164 -115 54 -28 110 -61 124 -75 14 -14 54 -36 89 -50 85 -33 289 -75 365 -75
34 0 77 -5 96 -10 19 -6 87 -12 150 -14 63 -2 127 -9 142 -15 18 -7 174 -11
440 -11 241 -1 429 -5 451 -11 111 -29 315 -32 2337 -36 1569 -3 2075 -1 2105
8 22 6 87 13 145 15 58 2 121 8 140 14 19 5 69 10 111 10 42 0 107 6 145 14
138 28 191 36 242 36 58 0 190 42 287 90 43 22 75 31 115 31 98 2 244 45 405
120 75 35 183 79 193 79 6 0 66 18 134 41 162 53 359 157 463 243 27 23 28 26
13 43 -9 10 -26 38 -38 63 -12 25 -41 65 -65 90 -23 25 -50 68 -59 95 -27 75
-32 84 -91 160 -90 115 -107 221 -51 321 23 41 23 43 4 33 -18 -10 -19 -8 -13
13 11 37 32 65 62 83 38 23 83 83 83 111 0 13 13 65 29 116 16 51 44 145 61
208 18 63 63 215 101 338 41 132 69 241 69 267 0 24 7 72 16 106 10 37 14 82
11 109 -3 25 -2 63 3 85 41 206 59 285 63 292 3 5 13 51 22 103 8 52 26 147
40 210 15 72 26 167 30 255 5 116 11 156 34 230 40 124 62 230 66 317 2 40 8
108 14 150 6 43 8 92 4 109 -3 17 2 65 11 107 33 158 59 278 63 302 3 14 14
70 25 125 11 55 24 118 28 140 27 137 45 197 75 250 28 51 35 76 44 168 7 67
19 127 32 155 11 26 31 88 44 137 13 50 39 127 58 172 43 101 63 169 77 253
18 118 36 195 53 227 9 18 17 51 17 75 0 24 5 61 10 83 6 22 19 90 30 150 11
61 27 142 35 180 60 280 83 430 105 690 6 66 18 176 27 245 14 104 17 225 17
710 1 649 2 631 -69 1046 -8 50 -25 124 -36 165 -12 41 -40 151 -64 244 -61
242 -98 373 -143 510 -56 171 -123 383 -182 580 -93 309 -166 497 -281 727
-44 88 -105 266 -130 378 -13 58 -5 109 27 173 15 28 42 91 61 141 39 100 88
202 100 208 4 1 21 28 37 58 50 96 195 308 223 327 61 40 128 118 142 163 7
25 34 69 61 100 85 99 275 378 347 510 48 87 93 196 93 221 0 10 -18 51 -40
91 -22 40 -65 124 -96 186 -46 94 -71 129 -143 206 -47 51 -102 117 -122 147
-20 30 -75 113 -122 185 -87 133 -154 205 -216 231 -43 18 -179 34 -306 34
-55 1 -210 -13 -345 -29 -135 -17 -279 -33 -320 -37 -107 -9 -256 -40 -390
-82 -152 -48 -207 -72 -318 -145 -255 -165 -473 -226 -872 -243 -213 -9 -402
-29 -549 -60 -68 -14 -138 -25 -155 -25 -19 0 -57 16 -96 39 -36 22 -94 55
-130 74 -36 18 -74 39 -85 45 -44 24 -397 164 -548 217 -58 21 -252 146 -265
172 -27 50 -44 158 -52 338 -5 106 -12 213 -15 237 -11 76 -98 366 -129 427
-17 33 -106 291 -180 518 -31 95 -69 199 -84 230 -62 126 -115 215 -136 228
-32 21 -174 75 -197 75 -11 0 -42 18 -70 40 -28 22 -61 42 -72 44 -12 2 -53
12 -92 21 -67 15 -221 25 -645 39 l-165 5 -105 -35z m330 -244 c30 -6 82 -12
115 -15 107 -8 219 -23 245 -33 84 -33 156 -128 167 -219 17 -145 -103 -284
-245 -286 -62 -1 -304 24 -417 43 -112 19 -175 60 -220 142 -24 44 -29 65 -30
123 0 59 5 78 30 123 16 30 46 67 67 84 73 57 138 66 288 38z"/>
<path d="M21325 16440 c-33 -10 -114 -33 -180 -52 -66 -19 -142 -44 -168 -57
-48 -23 -131 -111 -162 -171 -8 -16 -24 -34 -35 -40 -11 -6 -20 -19 -20 -29 0
-10 -9 -38 -20 -62 -11 -26 -20 -66 -20 -97 0 -30 -11 -86 -24 -125 -35 -102
-37 -117 -45 -309 -7 -165 -9 -176 -39 -245 -22 -48 -42 -126 -62 -230 -17
-87 -35 -180 -42 -208 -7 -27 -11 -82 -10 -121 1 -39 -3 -86 -9 -105 -6 -19
-14 -68 -18 -109 -5 -50 -18 -96 -38 -140 -17 -36 -40 -94 -51 -130 -28 -89
-63 -181 -78 -205 -6 -11 -22 -60 -34 -108 -12 -49 -30 -107 -41 -130 -10 -23
-19 -62 -19 -85 0 -81 -39 -244 -70 -292 -28 -45 -54 -138 -85 -305 -9 -49
-21 -106 -25 -125 -5 -19 -16 -73 -25 -120 -9 -47 -21 -100 -26 -117 -6 -18
-12 -74 -13 -125 -4 -109 -23 -321 -36 -393 -23 -125 -45 -215 -66 -282 -19
-58 -24 -93 -24 -182 0 -61 -4 -130 -10 -153 -29 -127 -40 -181 -50 -253 -7
-44 -18 -100 -25 -125 -7 -25 -18 -72 -25 -105 -6 -33 -18 -88 -26 -122 -8
-34 -14 -98 -14 -142 0 -44 -5 -92 -11 -108 -6 -15 -12 -76 -13 -134 -2 -58
-6 -111 -10 -117 -4 -7 -11 -33 -16 -60 -24 -136 -33 -172 -60 -232 -16 -36
-39 -112 -50 -170 -14 -70 -38 -141 -70 -213 -44 -95 -49 -115 -49 -176 0 -71
-15 -123 -51 -168 -38 -49 -17 -175 41 -240 17 -20 36 -47 42 -62 7 -14 60
-73 118 -131 114 -114 137 -134 249 -224 41 -32 103 -86 136 -119 73 -70 159
-109 290 -132 46 -8 98 -22 115 -31 54 -27 125 -44 227 -54 53 -5 115 -14 137
-19 22 -6 106 -11 186 -11 81 0 170 -5 199 -10 30 -6 112 -11 184 -11 72 -1
158 -8 191 -15 33 -8 94 -14 135 -14 124 0 239 -18 290 -46 l46 -25 47 21 c26
12 71 24 100 27 118 14 351 188 632 474 226 230 293 310 403 481 42 66 112
173 156 239 96 148 244 436 252 493 3 22 15 76 25 119 28 110 74 365 100 542
20 137 21 174 15 425 -4 151 -11 358 -16 460 -29 587 -24 885 21 1130 50 273
106 363 500 812 79 90 125 169 177 298 40 102 75 246 68 279 -4 14 -10 67 -14
117 -8 85 -28 144 -80 234 -21 37 -52 106 -52 118 0 6 -4 12 -8 12 -8 0 -44
47 -115 153 -61 90 -301 297 -345 297 -7 0 -25 9 -39 20 -46 36 -99 27 -226
-36 -138 -70 -200 -111 -298 -201 -84 -75 -163 -122 -251 -148 -51 -14 -65
-15 -140 -1 -208 36 -452 184 -534 324 -69 117 -75 152 -154 808 -30 259 -76
418 -146 509 -34 45 -148 102 -229 115 -33 5 -139 11 -235 14 -152 5 -183 3
-235 -14z m2598 -1587 c53 -39 117 -102 117 -114 0 -11 95 -151 121 -178 29
-31 88 -160 102 -225 9 -42 8 -50 -6 -58 -10 -5 -17 -18 -17 -29 0 -47 -90
-43 -120 5 -10 18 -47 56 -82 85 -116 98 -188 195 -188 253 0 23 -13 62 -36
105 -31 60 -35 74 -31 120 7 67 11 73 54 73 25 0 50 -11 86 -37z"/>
<path d="M9153 8510 c-118 -37 -351 -145 -464 -215 -49 -30 -91 -55 -95 -55
-3 0 -24 -15 -47 -34 -23 -18 -95 -68 -159 -110 -218 -142 -335 -245 -486
-426 -84 -101 -186 -218 -261 -299 -13 -14 -37 -46 -54 -71 -17 -25 -47 -65
-67 -90 -21 -25 -84 -106 -140 -180 -210 -274 -525 -630 -725 -819 -267 -251
-317 -295 -514 -446 -150 -115 -159 -124 -226 -226 -38 -58 -107 -155 -151
-215 -99 -132 -155 -223 -204 -329 -35 -74 -108 -189 -188 -294 -82 -109 -165
-324 -147 -381 6 -17 2 -20 -29 -20 -33 0 -36 -2 -36 -30 0 -20 -5 -30 -15
-30 -9 0 -24 -13 -33 -30 -12 -21 -25 -30 -42 -30 -19 0 -28 -8 -37 -30 -7
-18 -21 -32 -37 -36 -21 -5 -26 -12 -26 -35 0 -26 -4 -29 -30 -29 -22 0 -30
-5 -30 -18 0 -28 -21 -42 -62 -42 -29 0 -45 -7 -62 -25 -13 -14 -29 -25 -35
-25 -29 0 -91 -41 -91 -60 0 -13 -7 -20 -20 -20 -11 0 -34 -13 -52 -30 -17
-17 -36 -30 -42 -30 -6 0 -19 -14 -28 -30 -13 -23 -24 -30 -46 -30 -22 0 -44
-14 -87 -54 -31 -30 -71 -60 -88 -66 -75 -27 -82 -33 -87 -80 -4 -40 -8 -45
-32 -48 -22 -3 -28 -8 -28 -29 0 -18 -8 -28 -30 -36 -27 -10 -30 -16 -30 -53
0 -34 -5 -47 -26 -63 -15 -12 -37 -21 -50 -21 -18 0 -24 -6 -24 -21 0 -14 -10
-24 -30 -32 -23 -9 -30 -17 -30 -39 0 -15 -5 -28 -10 -28 -6 0 -22 -11 -35
-25 -18 -18 -25 -35 -25 -65 0 -35 -3 -40 -24 -40 -22 0 -24 -5 -28 -61 -3
-37 -10 -66 -19 -73 -8 -6 -23 -29 -34 -51 -11 -22 -30 -53 -42 -68 -13 -16
-23 -35 -23 -42 0 -7 -6 -20 -13 -27 -13 -14 -89 -116 -101 -135 -6 -10 2462
-13 12323 -13 l12331 0 0 119 c0 112 -1 120 -22 134 -13 8 -44 36 -70 62 -26
25 -58 50 -72 53 -14 4 -48 40 -83 87 -46 62 -73 88 -120 115 -50 28 -65 44
-82 81 -22 47 -92 117 -231 227 -41 32 -125 109 -186 170 -77 78 -131 123
-179 149 -63 35 -71 44 -114 119 -34 60 -64 96 -117 141 -77 67 -124 118 -124
137 0 6 -22 48 -50 93 -35 57 -58 84 -81 93 -27 12 -30 17 -25 44 21 110 32
87 -119 244 -305 316 -440 415 -935 682 -222 120 -270 146 -440 233 -209 107
-274 144 -434 247 -234 151 -288 196 -368 304 -40 54 -101 136 -135 182 -164
222 -353 429 -609 666 -165 152 -182 165 -424 325 -80 53 -203 138 -275 188
-230 164 -477 307 -600 347 -73 24 -110 30 -196 32 -94 2 -111 6 -154 29 l-48
27 -46 -22 c-52 -25 -78 -26 -311 -12 -80 5 -150 13 -157 17 -7 4 -88 10 -180
13 -92 2 -184 9 -203 14 -19 6 -105 10 -190 10 -99 0 -180 5 -225 15 -39 8
-95 15 -125 15 -30 0 -73 5 -95 11 -22 7 -65 17 -95 24 -30 7 -86 25 -123 39
-37 14 -79 26 -92 26 -13 0 -72 16 -131 35 -120 39 -193 44 -297 21 -109 -25
-182 -36 -233 -36 -78 0 -172 -19 -223 -44 -25 -13 -66 -27 -91 -31 -25 -3
-81 -22 -125 -42 -44 -19 -105 -45 -135 -58 -30 -13 -83 -35 -116 -49 -46 -19
-79 -26 -128 -26 -48 0 -78 -6 -107 -21 -23 -11 -67 -25 -100 -31 -40 -7 -71
-20 -96 -40 -48 -38 -72 -48 -161 -64 -41 -7 -98 -25 -128 -38 -31 -14 -90
-30 -132 -36 -42 -5 -106 -19 -140 -30 -52 -16 -91 -20 -205 -20 -148 0 -240
-13 -352 -51 -33 -11 -78 -26 -100 -34 -84 -27 -183 -44 -255 -43 -41 0 -93
-4 -115 -11 -52 -14 -1574 -16 -1625 -1 -19 6 -102 12 -183 15 -82 3 -167 10
-190 15 -25 6 -358 10 -817 10 -470 0 -789 4 -810 10 -40 11 -199 28 -380 40
-69 5 -136 11 -150 14 -14 3 -542 7 -1175 9 l-1150 4 -97 26 c-163 44 -192 60
-243 136 -24 36 -49 88 -55 114 -6 27 -21 70 -35 97 -24 47 -24 49 -6 71 l18
23 -67 65 c-41 40 -88 100 -119 152 -68 114 -108 158 -191 214 -39 25 -83 64
-98 85 -24 35 -32 39 -67 39 -22 0 -81 -13 -132 -29z"/>
</g>
</svg>
