<?xml version="1.0" standalone="no"?>
<!DOCTYPE svg PUBLIC "-//W3C//DTD SVG 20010904//EN"
 "http://www.w3.org/TR/2001/REC-SVG-20010904/DTD/svg10.dtd">
<svg version="1.0" xmlns="http://www.w3.org/2000/svg"
 width="110592.000000pt" height="110592.000000pt" viewBox="0 0 110592.000000 110592.000000"
 preserveAspectRatio="xMidYMid meet">
<metadata>
Created by potrace 1.11, written by Peter Selinger 2001-2013
</metadata>
<g transform="translate(0.000000,110592.000000) scale(3.668060,-3.668060)"
fill="#000000" stroke="none">
<path d="M9864 28786 c-52 -16 -121 -64 -164 -113 -67 -76 -214 -322 -231
-386 -4 -18 -37 -108 -74 -201 -104 -266 -131 -375 -160 -649 -32 -303 -27
-793 10 -1153 35 -330 214 -1351 278 -1584 45 -163 139 -465 164 -530 14 -36
35 -99 48 -140 12 -41 43 -133 69 -205 64 -180 63 -215 -8 -496 -30 -118 -69
-252 -86 -299 -58 -157 -86 -234 -128 -350 -23 -63 -77 -212 -121 -330 -114
-310 -252 -749 -295 -940 -9 -41 -24 -102 -32 -135 -48 -198 -172 -776 -210
-980 -53 -283 -71 -425 -80 -640 l-7 -158 56 36 c112 72 230 127 295 136 69
11 153 46 205 85 35 27 77 38 200 56 126 18 236 62 360 144 37 24 82 48 100
52 43 9 110 44 203 104 67 44 126 70 160 70 6 0 29 13 50 28 21 16 100 61 174
101 137 75 205 114 273 159 l37 25 0 153 c0 181 -12 257 -107 654 -14 58 -40
146 -58 195 -18 50 -61 180 -96 290 -34 110 -88 256 -119 325 -73 159 -83 194
-115 370 -35 195 -49 256 -89 385 -31 103 -43 145 -83 300 -45 177 -86 318
-111 385 -31 81 -47 154 -31 145 5 -4 9 -14 9 -24 0 -9 13 -27 29 -39 16 -12
34 -37 41 -57 6 -19 16 -35 21 -35 5 0 16 -17 24 -37 9 -21 19 -40 23 -43 4
-3 14 -17 22 -31 37 -63 56 -89 65 -89 6 0 23 -55 39 -122 15 -68 46 -179 69
-247 44 -137 49 -138 62 -15 5 41 17 87 31 114 13 25 24 56 24 69 0 13 11 83
25 155 42 221 118 746 135 926 24 270 32 618 27 1160 -4 413 -9 584 -21 670
-8 63 -24 207 -36 320 -11 113 -27 264 -36 335 -8 72 -21 225 -29 340 -30 435
-44 570 -69 690 -8 39 -27 131 -41 205 -31 163 -62 262 -126 398 -76 164 -217
361 -290 407 -79 50 -191 67 -275 41z"/>
<path d="M17345 20990 c-244 -13 -642 -40 -750 -51 -229 -23 -422 -38 -625
-49 -379 -19 -671 -40 -835 -60 -88 -11 -241 -29 -340 -41 -99 -11 -236 -32
-304 -45 -69 -14 -170 -29 -225 -34 -56 -6 -150 -17 -211 -25 -60 -8 -193 -22
-295 -30 -246 -21 -374 -42 -1115 -188 -181 -36 -395 -75 -475 -87 -153 -23
-349 -63 -378 -79 -9 -5 -102 -39 -205 -76 -249 -88 -275 -99 -322 -144 -22
-21 -62 -51 -88 -67 -131 -78 -178 -106 -252 -144 -44 -23 -123 -70 -175 -105
-58 -39 -115 -68 -145 -76 -27 -6 -94 -39 -148 -71 -54 -33 -125 -69 -158 -80
-33 -11 -81 -34 -107 -52 -90 -60 -287 -148 -362 -162 -41 -7 -140 -42 -155
-54 -18 -14 -196 -115 -310 -175 -259 -137 -508 -305 -875 -591 -211 -164
-596 -490 -724 -612 -112 -108 -321 -339 -432 -478 -65 -82 -157 -194 -204
-249 -47 -55 -96 -115 -109 -132 -20 -29 -28 -33 -67 -33 l-45 0 -39 -82 c-21
-46 -45 -105 -54 -131 -23 -67 -42 -102 -80 -145 -18 -20 -36 -50 -40 -67 -4
-16 -14 -43 -21 -60 -7 -16 -26 -59 -40 -95 -15 -36 -41 -94 -57 -130 -17 -36
-48 -119 -70 -185 -22 -66 -61 -163 -88 -215 -36 -70 -50 -111 -55 -159 -5
-39 -18 -84 -36 -117 -26 -50 -61 -158 -94 -294 -30 -123 -37 -146 -53 -170
-10 -15 -19 -56 -23 -100 -3 -41 -24 -146 -47 -232 l-42 -157 0 -290 0 -290
48 -6 c26 -3 61 -10 77 -15 l30 -9 -30 4 c-16 2 -51 6 -76 10 l-46 6 -7 -108
c-9 -138 -30 -256 -54 -313 -16 -36 -21 -77 -25 -205 -5 -161 -2 -207 27 -480
9 -82 23 -244 31 -358 23 -297 61 -619 84 -708 11 -42 50 -161 87 -265 36
-104 94 -274 128 -379 35 -104 80 -229 100 -277 70 -168 152 -425 226 -707 55
-210 78 -268 139 -348 21 -29 47 -74 56 -100 41 -119 116 -254 183 -330 37
-43 75 -89 84 -103 9 -14 60 -72 113 -130 52 -57 98 -115 102 -128 6 -24 49
-69 123 -128 99 -79 263 -248 306 -316 25 -39 90 -116 144 -171 55 -55 115
-128 136 -162 20 -35 54 -84 75 -110 22 -26 39 -50 39 -54 0 -14 108 -151 201
-257 136 -154 266 -265 369 -315 79 -39 262 -157 275 -179 3 -5 47 -35 98 -66
51 -31 130 -89 176 -128 127 -108 224 -182 314 -238 45 -28 91 -58 102 -68 18
-16 135 -67 415 -181 52 -21 167 -64 255 -95 151 -54 172 -59 380 -85 121 -16
274 -31 340 -35 94 -5 139 -13 205 -36 200 -68 270 -84 425 -98 61 -6 182 -19
270 -30 88 -11 232 -24 320 -30 88 -5 201 -14 250 -19 50 -5 160 -15 246 -21
136 -10 167 -10 234 4 42 9 96 16 119 16 23 0 69 8 101 17 87 24 223 21 395
-10 80 -15 161 -31 180 -36 87 -24 238 -36 440 -35 177 0 235 4 330 22 63 12
165 29 227 37 61 9 160 29 220 46 59 17 142 37 183 45 85 16 555 166 612 195
20 11 49 19 64 19 15 0 53 7 83 15 31 8 112 28 181 44 69 16 206 57 305 91 99
34 233 79 297 100 131 43 438 188 514 243 27 19 81 54 119 77 39 23 102 70
140 104 95 84 154 130 260 206 50 35 114 84 144 108 29 24 64 47 76 52 12 5
46 24 76 43 88 56 318 173 404 207 94 35 147 63 195 100 39 30 128 66 325 130
227 74 505 219 780 406 93 64 626 600 733 739 46 60 86 91 171 134 69 35 176
104 186 122 12 19 108 76 155 92 25 8 79 35 120 59 41 25 183 97 314 161 219
107 356 181 570 306 149 87 259 222 312 386 15 44 35 96 46 115 23 42 121 104
268 171 111 51 386 203 416 230 11 11 25 19 32 19 6 0 16 9 22 20 6 11 15 20
21 20 6 0 27 13 47 30 64 52 203 153 335 244 360 247 602 488 712 708 55 110
58 148 15 204 -16 21 -43 57 -60 78 -19 24 -30 51 -30 70 0 59 76 191 164 284
45 48 54 120 55 423 1 200 -2 267 -14 305 -8 27 -15 58 -15 69 0 11 -15 52
-33 90 -31 64 -64 163 -81 240 -4 17 -20 55 -36 85 -36 72 -100 234 -100 257
0 10 -7 52 -16 93 -9 41 -17 107 -19 145 -1 39 -12 115 -23 169 -12 55 -22
120 -22 146 0 69 -32 147 -283 687 -36 78 -75 172 -85 210 -56 195 -74 269
-87 350 -8 49 -21 108 -29 131 -9 24 -22 91 -30 150 -8 59 -22 160 -31 224
-19 139 -27 171 -93 350 -78 213 -178 392 -295 524 -78 90 -90 112 -163 315
-104 290 -201 480 -403 793 -131 203 -184 265 -314 368 -124 97 -178 149 -247
238 -69 90 -100 120 -256 237 -137 104 -451 323 -462 323 -16 0 -222 111 -284
152 -287 192 -359 237 -490 303 -82 41 -155 75 -163 75 -32 0 -206 94 -345
185 -286 188 -476 261 -812 310 -188 27 -290 48 -583 121 -99 25 -216 50 -260
55 -44 5 -146 29 -225 54 -80 26 -179 50 -220 55 -121 13 -393 19 -555 10z"/>
<path d="M3545 17443 c-16 -2 -178 -22 -359 -44 -573 -70 -784 -126 -1151
-310 -313 -157 -369 -194 -521 -351 -131 -136 -274 -313 -299 -372 -13 -30
-84 -275 -148 -511 -38 -142 -43 -316 -11 -405 31 -87 143 -238 253 -342 54
-51 120 -124 147 -163 59 -85 183 -217 243 -258 48 -33 211 -116 288 -146 43
-17 170 -52 558 -152 228 -60 527 -113 805 -145 221 -25 917 -15 1052 15 26 6
134 18 240 26 216 17 291 24 329 31 21 4 41 -8 108 -66 90 -77 124 -101 233
-158 40 -22 102 -55 138 -75 109 -61 100 -93 100 341 l0 378 45 177 c35 136
45 196 45 256 0 72 3 86 36 147 24 45 50 125 80 241 25 96 56 197 69 224 18
34 25 65 25 103 0 41 7 66 30 107 60 107 118 236 140 309 13 41 46 129 75 195
96 220 103 240 114 297 13 72 31 108 84 165 23 25 53 74 68 111 24 60 25 68
10 74 -9 4 -88 19 -176 33 -88 14 -182 32 -210 39 -27 8 -75 17 -105 21 -64 8
-338 50 -425 66 -33 6 -65 15 -71 20 -7 5 -65 16 -130 24 -66 7 -157 18 -204
24 -47 6 -179 20 -295 31 -115 12 -235 25 -265 30 -54 9 -885 20 -945 13z
m-1352 -1329 c63 -32 96 -65 126 -125 27 -54 31 -73 31 -144 0 -119 -21 -179
-83 -240 -67 -65 -102 -75 -271 -75 -159 0 -198 13 -265 85 -96 105 -96 325 0
430 58 63 97 78 219 86 131 8 203 3 243 -17z"/>
<path d="M24575 14918 c2 -18 6 -64 9 -103 3 -38 15 -106 26 -150 13 -47 25
-131 29 -205 8 -133 21 -176 81 -270 28 -45 33 -59 66 -195 10 -38 33 -101 51
-138 19 -37 38 -87 42 -110 5 -23 21 -88 36 -145 l27 -103 -5 -357 c-5 -350
-16 -487 -46 -565 -6 -16 -11 -48 -11 -72 0 -41 3 -45 28 -51 15 -3 46 -12 69
-20 22 -8 144 -39 269 -67 l228 -53 79 13 c95 15 178 38 227 63 20 10 113 70
207 133 94 64 198 129 232 146 98 50 251 81 491 101 69 6 181 21 250 35 275
53 400 66 528 56 64 -6 173 -15 242 -20 69 -6 234 -15 368 -20 331 -14 467 3
619 75 107 51 168 127 239 296 42 99 40 132 -12 225 -49 89 -199 222 -319 285
-56 30 -234 95 -340 124 -49 14 -105 34 -123 45 -18 10 -39 19 -46 19 -8 0
-101 44 -207 98 -118 59 -243 114 -319 139 -209 69 -636 221 -769 273 -381
148 -574 216 -736 256 -81 20 -140 27 -315 34 -253 10 -437 31 -587 67 -22 5
-23 2 -23 -48 0 -37 6 -63 20 -84 11 -16 19 -43 19 -60 -1 -28 -2 -28 -8 7 -4
20 -14 45 -22 54 -8 9 -16 44 -19 77 l-5 61 -80 17 c-90 20 -152 41 -275 94
-82 36 -192 75 -210 75 -5 0 -7 -15 -5 -32z"/>
<path d="M5670 10879 c-52 -60 -123 -142 -158 -182 -87 -100 -374 -482 -403
-537 -13 -25 -27 -46 -31 -48 -4 -2 -26 -42 -48 -90 -22 -47 -51 -99 -63 -116
-38 -52 -302 -598 -387 -801 -155 -371 -287 -803 -490 -1600 -54 -214 -113
-442 -130 -505 -68 -253 -121 -546 -180 -990 -22 -168 -45 -320 -51 -339 -7
-19 -39 -84 -73 -145 -59 -106 -155 -291 -190 -366 -9 -19 -20 -42 -24 -50 -5
-8 -15 -26 -22 -40 -7 -14 -48 -86 -90 -160 -116 -206 -168 -300 -250 -456
-41 -78 -82 -151 -91 -161 -9 -10 -19 -30 -22 -44 -4 -14 -16 -38 -28 -53 -29
-37 -192 -372 -274 -563 -37 -87 -75 -169 -84 -183 -10 -14 -30 -56 -45 -95
-32 -81 -112 -245 -208 -425 -105 -197 -332 -754 -410 -1008 -44 -144 -51
-179 -51 -252 -1 -111 29 -210 82 -278 49 -62 174 -147 248 -168 113 -33 279
-15 443 46 41 16 102 37 135 46 138 41 373 178 537 313 26 22 89 63 140 92
141 79 218 142 332 269 56 63 167 185 247 270 143 155 261 314 344 465 21 39
76 134 122 211 86 146 200 387 259 552 70 193 126 461 179 847 14 105 35 244
47 310 39 230 35 625 -8 880 -2 17 -11 174 -20 350 -15 343 -12 433 25 590 26
106 35 194 24 224 -9 22 -13 19 -81 -58 -39 -44 -90 -105 -113 -136 -23 -30
-47 -55 -55 -55 -14 0 -64 -60 -64 -78 0 -17 -52 -113 -90 -167 -20 -27 -41
-62 -48 -77 -6 -16 -17 -28 -23 -28 -6 0 -20 -11 -31 -25 -11 -14 -52 -44 -91
-67 -40 -23 -76 -47 -82 -54 -5 -7 -26 -21 -45 -31 -19 -10 -48 -27 -63 -37
-68 -46 -37 13 81 152 43 52 130 175 193 274 210 331 528 737 865 1107 33 36
68 79 78 94 16 26 136 174 304 375 111 134 188 237 245 331 29 47 88 140 132
208 94 144 119 187 232 393 46 85 103 186 126 224 l41 69 -24 16 c-32 20 -85
75 -133 137 -42 53 -160 292 -178 358 -10 38 -77 174 -113 229 -20 30 -76 204
-76 237 -1 61 -63 273 -131 444 -34 84 -39 109 -39 176 0 43 -6 95 -14 116 -7
22 -17 67 -21 102 -4 34 -10 64 -14 66 -4 3 -49 -45 -101 -105z m-930 -4470
c-7 -11 -14 -18 -17 -15 -3 3 0 12 7 21 18 21 23 19 10 -6z"/>
<path d="M6530 10091 c0 -6 5 -13 10 -16 6 -3 10 1 10 9 0 9 -4 16 -10 16 -5
0 -10 -4 -10 -9z"/>
<path d="M22505 9699 c-16 -10 -53 -23 -82 -29 -29 -5 -77 -15 -107 -20 -30
-6 -71 -24 -94 -41 -23 -17 -82 -48 -131 -69 -49 -21 -131 -68 -183 -103 -111
-77 -140 -92 -193 -101 -22 -4 -59 -14 -83 -22 -23 -8 -55 -14 -71 -14 -16 0
-39 -9 -53 -20 -24 -19 -97 -60 -189 -106 -39 -20 -50 -32 -68 -77 -13 -32
-41 -72 -67 -98 -25 -24 -61 -66 -79 -94 -42 -64 -80 -100 -129 -120 -25 -11
-85 -65 -173 -155 -93 -96 -149 -146 -181 -161 -55 -26 -81 -54 -83 -89 -1
-17 -3 -19 -6 -8 -4 16 -8 15 -37 -7 -17 -13 -42 -28 -54 -32 -21 -8 -10 -19
115 -117 158 -124 180 -147 267 -271 83 -118 120 -187 141 -260 18 -65 91
-217 147 -305 19 -30 57 -97 84 -148 44 -86 185 -272 205 -272 18 0 82 -66
197 -203 204 -243 211 -255 417 -667 157 -316 208 -408 283 -515 247 -350 252
-359 348 -564 46 -99 191 -324 255 -396 25 -27 89 -105 143 -173 70 -88 146
-166 272 -280 353 -318 452 -390 619 -453 124 -46 197 -53 259 -24 38 18 173
155 193 196 37 76 84 192 98 244 45 161 168 525 191 565 61 107 68 145 68 390
l1 225 -58 281 c-41 200 -60 321 -67 420 -30 427 -48 554 -95 703 -13 42 -38
150 -55 241 -46 250 -59 305 -102 429 -81 236 -162 358 -443 666 -163 180
-243 292 -380 540 -101 180 -175 301 -284 465 -37 55 -50 62 -96 46 -11 -4 -7
0 9 9 l28 17 -58 60 c-97 99 -332 311 -439 396 -55 43 -113 93 -129 111 -34
36 -32 35 -71 10z m-1968 -1396 c-3 -10 -5 -2 -5 17 0 19 2 27 5 18 2 -10 2
-26 0 -35z"/>
</g>
</svg>
