<?xml version="1.0" standalone="no"?>
<!DOCTYPE svg PUBLIC "-//W3C//DTD SVG 20010904//EN"
 "http://www.w3.org/TR/2001/REC-SVG-20010904/DTD/svg10.dtd">
<svg version="1.0" xmlns="http://www.w3.org/2000/svg"
 width="110592.000000pt" height="110592.000000pt" viewBox="0 0 110592.000000 110592.000000"
 preserveAspectRatio="xMidYMid meet">
<metadata>
Created by potrace 1.11, written by Peter Selinger 2001-2013
</metadata>
<g transform="translate(0.000000,110592.000000) scale(61.440000,-61.440000)"
fill="#000000" stroke="none">
<path d="M768 1790 c-129 -21 -252 -69 -362 -141 -61 -40 -63 -43 -46 -58 10
-9 22 -30 28 -48 9 -27 7 -34 -14 -54 -13 -12 -26 -30 -29 -40 -3 -10 -14 -21
-25 -24 -11 -3 -22 -21 -27 -43 -12 -51 -47 -58 -57 -11 -3 17 -6 43 -6 58 0
58 -16 55 -63 -11 l-46 -64 25 -103 c13 -56 24 -104 24 -105 0 -2 -24 -19 -53
-39 -93 -64 -107 -85 -114 -164 -6 -71 11 -223 28 -255 5 -10 16 -18 25 -18
24 0 121 -102 139 -146 13 -34 26 -46 88 -79 40 -21 73 -39 75 -40 2 -2 -5
-32 -15 -69 -16 -61 -19 -66 -45 -66 -15 0 -28 -3 -28 -7 1 -5 26 -28 56 -53
208 -171 467 -240 729 -195 326 57 593 288 699 607 28 83 50 229 41 265 -6 24
-7 24 -45 -19 -23 -26 -39 -53 -40 -69 0 -14 -6 -34 -14 -45 -16 -22 -17 -21
-36 56 -14 54 -54 126 -78 139 -9 5 -43 14 -74 21 -32 7 -65 21 -74 32 -18 19
-44 25 -44 9 0 -5 7 -25 15 -45 13 -31 18 -35 35 -26 26 14 31 13 64 -14 l29
-24 -91 -61 c-50 -33 -95 -61 -99 -61 -4 1 -30 48 -57 105 -63 133 -90 142
-36 13 21 -51 45 -110 54 -131 l15 -38 52 27 c37 18 50 22 46 11 -3 -8 -11
-33 -18 -56 -8 -27 -30 -58 -66 -92 l-53 -50 0 -64 c0 -60 -2 -65 -32 -87 -18
-12 -42 -34 -52 -48 -11 -14 -41 -46 -67 -72 -41 -43 -51 -48 -91 -48 l-44 0
-41 73 c-39 70 -40 74 -30 123 9 46 7 59 -19 135 l-29 84 -107 -3 -107 -4 -61
58 c-37 35 -59 63 -56 73 2 9 7 51 11 94 7 81 14 94 115 210 9 11 220 48 231
41 5 -3 9 -14 9 -25 0 -18 71 -79 92 -79 6 0 18 10 27 21 17 21 18 21 73 5 88
-25 106 -21 122 30 6 19 2 22 -36 28 -31 5 -50 15 -69 38 -27 32 -49 31 -49
-3 0 -10 -4 -19 -9 -19 -13 0 -41 47 -41 69 0 18 -61 71 -82 71 -19 0 -5 -31
27 -57 32 -26 33 -29 19 -48 -14 -19 -15 -19 -38 10 -13 17 -32 41 -43 53
l-19 24 -45 -22 c-30 -15 -55 -37 -74 -67 -22 -36 -32 -43 -49 -39 -12 3 -31
6 -43 6 -21 0 -23 5 -23 56 l0 56 50 -4 c28 -1 50 0 50 4 0 4 -10 23 -22 43
-22 39 -16 54 24 55 10 0 32 13 50 28 18 16 41 31 51 35 9 4 17 13 17 21 0 22
20 30 33 13 7 -8 33 -18 59 -21 45 -7 48 -6 63 23 10 21 20 28 31 24 11 -4 15
-1 12 12 -2 13 5 21 22 25 16 4 21 8 13 13 -7 4 -23 5 -37 1 -18 -4 -27 -1
-35 15 -7 13 -8 22 -1 26 5 3 10 10 10 16 0 16 -18 10 -40 -13 -18 -19 -18
-24 -6 -37 13 -12 13 -18 1 -41 -21 -41 -52 -45 -70 -10 -14 27 -17 28 -46 18
-39 -14 -53 -1 -40 35 6 15 16 27 23 27 6 0 25 12 41 28 l28 27 202 -3 c111
-2 228 0 260 3 l59 7 -53 36 c-74 50 -187 100 -277 123 -89 23 -269 32 -354
19z m6 -268 c14 -21 26 -41 26 -46 0 -6 -61 -36 -75 -36 -3 0 -5 12 -5 28 -1
23 -2 24 -11 10 -11 -20 -49 -24 -49 -5 1 14 52 72 71 80 8 3 15 6 15 6 1 1
13 -16 28 -37z m606 -1063 c0 -12 -12 -43 -27 -70 -34 -61 -59 -62 -55 -4 2
31 10 46 35 67 39 33 47 34 47 7z"/>
</g>
</svg>
