<?xml version="1.0" standalone="no"?>
<!DOCTYPE svg PUBLIC "-//W3C//DTD SVG 20010904//EN"
 "http://www.w3.org/TR/2001/REC-SVG-20010904/DTD/svg10.dtd">
<svg version="1.0" xmlns="http://www.w3.org/2000/svg"
 width="1536.000000pt" height="1536.000000pt" viewBox="0 0 1536.000000 1536.000000"
 preserveAspectRatio="xMidYMid meet">
<metadata>
Created by potrace 1.11, written by Peter Selinger 2001-2013
</metadata>
<g transform="translate(0.000000,1536.000000) scale(0.100000,-0.100000)"
fill="#000000" stroke="none">
<path d="M3195 15340 c-115 -38 -214 -141 -265 -277 l-22 -58 2 -1277 1 -1278
-43 -2 c-24 -1 -536 -2 -1138 -2 -1263 -1 -1458 -8 -1545 -56 -27 -15 -69 -50
-91 -78 -162 -197 -101 -539 112 -633 88 -40 227 -52 544 -48 409 4 406 4
1333 1 l827 -2 0 -1045 0 -1045 -127 -1 c-71 -1 -524 -1 -1008 0 -792 2 -1040
-3 -1423 -25 -102 -6 -118 -10 -165 -38 -60 -36 -118 -109 -149 -186 -32 -80
-31 -241 1 -323 54 -138 146 -204 326 -233 79 -13 154 -16 360 -13 345 4 368
4 1343 1 l842 -2 0 -1045 0 -1045 -1037 0 c-941 -1 -1162 -4 -1521 -26 -102
-6 -117 -10 -164 -38 -61 -36 -119 -109 -150 -186 -32 -80 -31 -241 1 -323 54
-138 146 -204 326 -233 83 -13 165 -16 485 -13 212 2 762 3 1223 1 l837 -2 0
-1044 0 -1044 -1187 -5 c-1277 -5 -1453 -10 -1531 -50 -51 -25 -112 -88 -141
-146 -104 -204 -38 -471 140 -562 97 -49 159 -54 669 -54 261 0 829 -2 1263
-3 l787 -2 0 -1037 c1 -941 4 -1162 26 -1521 6 -102 10 -117 38 -164 121 -202
466 -238 636 -68 50 50 76 101 98 192 15 63 17 130 17 503 1 237 2 805 3 1263
l2 832 1047 0 1046 0 -6 -818 c-5 -799 3 -1454 22 -1720 8 -114 13 -139 35
-176 126 -215 478 -250 652 -64 52 56 69 92 92 197 14 64 17 144 17 521 0 245
1 808 3 1253 l2 807 1046 0 1046 0 -7 -917 c-9 -1152 8 -1701 54 -1791 86
-165 349 -241 536 -153 122 57 175 126 207 273 19 91 20 123 18 1341 l-2 1247
1046 0 1046 0 2 -62 c0 -35 2 -542 2 -1128 1 -1107 10 -1406 42 -1498 9 -23
37 -64 62 -90 143 -147 408 -161 571 -32 95 75 139 219 142 470 1 69 2 622 1
1230 -1 607 1 1107 4 1110 3 3 510 5 1127 5 1226 0 1504 8 1580 47 212 107
262 459 92 646 -92 102 -218 126 -645 121 -420 -4 -439 -4 -1342 -1 l-818 2 0
1045 0 1045 128 0 c70 1 584 2 1142 3 1102 3 1359 12 1433 49 203 102 260 434
108 626 -94 118 -284 157 -711 143 -107 -3 -624 -4 -1147 -3 l-953 4 0 1043 0
1044 1153 4 c1298 4 1477 10 1561 55 57 31 108 87 140 157 100 212 27 466
-158 551 -103 47 -215 56 -626 53 -206 -2 -756 -3 -1222 -1 l-848 2 0 1044 0
1045 1183 4 c1149 4 1431 11 1514 38 46 15 124 88 156 146 112 207 48 481
-134 574 -96 49 -160 54 -659 54 -256 0 -823 2 -1262 3 l-796 2 -6 1203 c-2
661 -9 1259 -14 1329 -11 147 -28 194 -97 256 -186 172 -512 142 -632 -57 -64
-107 -76 -223 -72 -691 2 -212 3 -757 2 -1212 l-3 -828 -1045 0 -1046 0 2
1053 c3 1185 -7 1555 -43 1640 -28 64 -120 148 -195 178 -48 19 -77 23 -173
24 -109 0 -119 -2 -182 -32 -118 -56 -173 -131 -206 -279 -15 -68 -17 -139
-17 -509 0 -236 -1 -800 -2 -1252 l-3 -823 -1045 0 -1045 0 3 1098 c2 1145 -7
1514 -39 1591 -55 133 -221 219 -399 209 -105 -7 -181 -36 -249 -99 -62 -57
-87 -108 -111 -229 -16 -78 -17 -193 -15 -1327 l2 -1243 -1046 0 -1046 0 -1
118 c0 64 -1 590 -3 1167 -3 1181 -9 1335 -53 1416 -36 67 -110 134 -189 171
-87 41 -200 48 -289 18z m2625 -4755 l0 -1045 -1045 0 -1045 0 0 1045 0 1045
1045 0 1045 0 0 -1045z m2900 0 l0 -1045 -1040 0 -1040 0 0 1045 0 1045 1040
0 1040 0 0 -1045z m2910 0 l0 -1045 -1045 0 -1045 0 0 1045 0 1045 1045 0
1045 0 0 -1045z m-5810 -2910 l0 -1045 -1045 0 -1045 0 0 1045 0 1045 1045 0
1045 0 0 -1045z m2900 0 l0 -1045 -1040 0 -1040 0 0 1045 0 1045 1040 0 1040
0 0 -1045z m2910 0 l0 -1045 -1045 0 -1045 0 0 1045 0 1045 1045 0 1045 0 0
-1045z m-5810 -2910 l0 -1045 -1045 0 -1045 0 0 1045 0 1045 1045 0 1045 0 0
-1045z m2900 0 l0 -1045 -1040 0 -1040 0 0 1045 0 1045 1040 0 1040 0 0 -1045z
m2910 0 l0 -1045 -1045 0 -1045 0 0 1045 0 1045 1045 0 1045 0 0 -1045z"/>
<path d="M4030 11422 c-21 -10 -44 -34 -59 -60 l-23 -44 1 -710 c2 -780 -1
-744 63 -790 l33 -23 715 0 c811 0 753 -6 792 82 20 45 20 64 19 747 -2 794 2
751 -81 794 l-44 22 -691 0 c-637 0 -693 -1 -725 -18z"/>
<path d="M6953 11415 c-17 -7 -44 -33 -60 -56 l-28 -43 0 -710 c0 -693 1 -712
20 -745 11 -19 33 -43 48 -55 28 -21 34 -21 735 -24 803 -3 756 -7 799 79 l24
45 -1 698 c0 748 0 735 -51 783 -13 12 -37 26 -52 32 -19 8 -252 11 -715 11
-563 -1 -693 -3 -719 -15z"/>
<path d="M9880 5557 c-21 -7 -46 -28 -65 -55 l-30 -44 -3 -594 c-1 -326 1
-654 6 -729 8 -123 10 -137 33 -161 54 -58 20 -55 776 -54 770 1 742 -2 784
66 l24 39 0 722 c0 713 0 722 -21 749 -11 15 -33 37 -48 48 -27 21 -38 21
-724 23 -523 2 -706 -1 -732 -10z"/>
</g>
</svg>
