<?xml version="1.0" standalone="no"?>
<!DOCTYPE svg PUBLIC "-//W3C//DTD SVG 20010904//EN"
 "http://www.w3.org/TR/2001/REC-SVG-20010904/DTD/svg10.dtd">
<svg version="1.0" xmlns="http://www.w3.org/2000/svg"
 width="3015.000000pt" height="3015.000000pt" viewBox="0 0 3015.000000 3015.000000"
 preserveAspectRatio="xMidYMid meet">
<metadata>
Created by potrace 1.11, written by Peter Selinger 2001-2013
</metadata>
<g transform="translate(0.000000,3015.000000) scale(0.100000,-0.100000)"
fill="#000000" stroke="none">
<path d="M12180 27861 c-67 -8 -191 -59 -370 -153 -161 -84 -252 -150 -375
-272 -98 -97 -221 -272 -331 -468 -187 -337 -270 -437 -441 -534 -106 -60
-175 -154 -210 -287 -13 -48 -16 -113 -17 -292 l-1 -230 34 -65 c22 -42 66
-98 126 -160 50 -52 118 -129 150 -170 143 -184 195 -237 386 -396 168 -140
215 -185 329 -321 74 -87 170 -198 215 -248 91 -101 269 -309 361 -421 34 -41
87 -123 120 -182 32 -59 84 -147 115 -197 82 -132 113 -198 170 -362 105 -308
142 -509 143 -773 0 -228 -5 -257 -125 -677 -50 -175 -103 -365 -119 -423 -42
-157 -121 -414 -190 -610 -197 -565 -222 -646 -314 -1010 -127 -505 -158 -683
-192 -1105 -22 -275 -30 -792 -15 -980 56 -714 188 -1921 231 -2108 33 -145
137 -538 235 -887 37 -129 124 -464 195 -745 88 -350 148 -568 193 -696 116
-332 152 -546 151 -894 0 -244 -4 -281 -59 -565 -19 -96 -51 -274 -71 -395
-48 -293 -72 -381 -143 -533 -97 -207 -111 -259 -111 -404 0 -137 4 -154 89
-398 69 -197 84 -300 78 -510 -9 -257 -46 -410 -178 -723 -69 -164 -197 -420
-246 -493 -22 -32 -54 -87 -72 -121 -17 -34 -60 -105 -95 -156 -35 -52 -73
-112 -84 -134 -56 -108 -162 -469 -162 -548 0 -43 -1 -44 -62 -81 -35 -20 -71
-44 -80 -51 -37 -32 -371 -203 -396 -203 -15 0 -265 -104 -425 -177 -53 -24
-121 -52 -150 -62 -28 -10 -101 -46 -162 -80 -60 -34 -153 -82 -205 -107 -344
-166 -464 -230 -544 -287 -49 -36 -114 -79 -145 -97 -31 -18 -90 -53 -131 -78
-41 -25 -106 -63 -145 -85 -88 -50 -410 -269 -491 -333 -33 -27 -112 -96 -176
-153 -151 -135 -248 -207 -344 -255 -115 -57 -118 -55 -172 119 -87 279 -152
562 -247 1079 -24 129 -27 166 -22 265 6 128 26 207 95 376 54 130 120 296
186 465 30 74 86 212 126 305 81 192 127 323 136 387 6 41 3 47 -40 98 -25 30
-46 58 -46 62 0 5 -18 38 -39 74 -28 47 -42 82 -46 122 -4 32 -18 84 -32 117
-41 99 -64 194 -72 300 -5 55 -16 117 -25 137 -11 25 -16 67 -16 130 0 51 -8
131 -17 178 -10 53 -18 170 -22 315 -4 141 -10 238 -17 250 -10 17 -24 71 -75
280 -19 79 -39 211 -39 260 0 45 -20 127 -63 265 -11 36 -14 134 -13 500 2
445 1 456 -20 520 -19 56 -22 85 -21 205 1 121 -2 145 -19 175 -17 32 -19 58
-21 275 -2 270 -7 345 -28 406 -13 36 -15 274 -15 1799 0 1716 0 1760 -20
1857 -11 54 -20 122 -20 151 0 29 -7 67 -16 85 -10 19 -20 70 -24 129 -6 93
-8 98 -47 150 -38 48 -62 101 -113 244 -10 27 -29 72 -43 100 -14 27 -32 73
-41 103 -9 30 -31 82 -50 117 -19 34 -40 82 -46 106 -7 24 -24 57 -39 73 -37
40 -108 173 -133 249 -11 33 -30 75 -42 91 -12 17 -55 89 -94 161 -62 114 -73
141 -81 205 -5 41 -28 127 -50 193 -23 65 -41 134 -41 153 0 19 -14 69 -30
110 -17 42 -35 106 -40 143 -11 76 -64 245 -105 335 -7 17 -30 80 -50 140 -21
61 -41 118 -47 128 -5 9 -10 113 -13 230 -3 171 -7 225 -23 282 -15 55 -19 95
-16 188 2 100 0 124 -18 163 -12 29 -21 72 -22 117 -2 44 -10 88 -21 112 -16
34 -19 70 -20 247 l-2 207 -43 73 c-24 40 -88 140 -143 223 -161 243 -173 276
-216 566 -64 432 -99 549 -333 1134 -158 393 -226 501 -401 634 -114 86 -174
117 -257 130 -151 25 -245 2 -307 -74 -34 -40 -77 -159 -87 -240 -4 -27 -27
-158 -52 -290 -24 -132 -57 -343 -73 -470 -17 -126 -41 -309 -55 -405 -82
-562 -141 -995 -160 -1180 -9 -85 -30 -238 -46 -340 -48 -304 -60 -500 -60
-988 0 -429 11 -705 45 -1122 8 -102 22 -300 30 -440 8 -140 22 -331 30 -425
8 -93 19 -226 25 -295 5 -69 19 -222 30 -340 11 -118 24 -296 29 -395 6 -99
17 -279 26 -400 25 -327 9 -1109 -36 -1805 -15 -233 -7 -592 21 -885 38 -413
66 -572 160 -890 118 -403 170 -627 185 -805 6 -76 -17 -672 -35 -925 -15
-193 -25 -276 -76 -610 -25 -159 -58 -393 -74 -520 -16 -126 -34 -268 -40
-315 -34 -256 -36 -647 -5 -885 61 -460 149 -749 278 -920 161 -212 881 -805
1199 -988 55 -32 389 -167 412 -167 27 0 260 -80 286 -98 14 -10 42 -26 63
-37 133 -70 348 -283 476 -473 60 -89 117 -214 141 -307 11 -44 48 -208 81
-365 74 -352 70 -335 136 -565 l54 -189 -37 -93 c-33 -85 -45 -103 -144 -210
-190 -208 -291 -291 -490 -401 -19 -11 -44 -29 -54 -41 -11 -12 -23 -21 -29
-21 -5 0 -39 -22 -76 -49 -36 -27 -90 -60 -118 -75 -29 -14 -83 -46 -120 -70
-83 -53 -335 -190 -423 -230 -36 -17 -146 -70 -244 -118 -99 -48 -187 -88
-196 -88 -8 0 -53 -16 -98 -35 -151 -63 -504 -184 -692 -235 -102 -28 -230
-65 -285 -81 -55 -16 -134 -36 -175 -44 -41 -8 -136 -31 -210 -51 -219 -58
-753 -174 -980 -214 -127 -22 -210 -38 -335 -64 -38 -8 -144 -24 -235 -36
-358 -45 -688 -112 -875 -177 -66 -24 -117 -35 -149 -34 -60 1 -84 -13 -125
-73 -27 -39 -31 -53 -31 -116 0 -80 18 -133 51 -150 15 -9 52 -11 113 -7 76 4
94 2 109 -11 11 -9 37 -24 59 -32 45 -17 54 -28 62 -80 4 -19 15 -50 26 -67
l20 -33 103 0 c56 0 154 7 217 15 63 8 201 22 305 30 105 8 224 22 265 30 41
8 125 23 187 34 132 23 172 34 278 71 101 35 326 92 475 120 63 12 131 29 150
36 46 18 230 60 300 69 54 6 212 53 278 82 17 8 55 17 82 20 28 3 53 10 56 14
3 5 18 9 34 9 36 0 316 84 389 117 31 14 110 45 176 69 66 25 194 74 285 109
158 61 394 147 565 205 44 15 88 30 98 35 12 5 -4 -26 -42 -84 -73 -111 -97
-174 -111 -288 -6 -48 -15 -106 -20 -128 -5 -22 -10 -57 -10 -77 0 -20 -4 -39
-9 -42 -4 -3 -11 -23 -15 -44 -3 -21 -15 -47 -26 -57 -11 -10 -20 -23 -20 -29
0 -6 -12 -27 -28 -46 -42 -53 -54 -83 -50 -126 3 -39 4 -39 47 -42 47 -3 91
13 91 33 0 8 15 11 50 7 33 -3 50 -1 50 7 0 6 9 11 19 11 21 0 62 44 87 93 9
16 26 78 39 136 l23 106 1 -141 1 -141 -31 -44 c-18 -24 -48 -62 -68 -84 -82
-90 -154 -264 -149 -358 l3 -52 55 1 c64 1 122 33 142 77 7 15 17 27 22 27 5
0 55 46 112 101 129 127 142 154 155 327 12 142 -3 651 -20 695 -7 17 -20 29
-38 32 -42 9 -93 33 -93 44 0 18 25 26 90 26 64 0 65 0 82 35 12 23 18 58 18
103 0 81 7 86 82 62 90 -30 130 -55 209 -131 41 -41 80 -74 85 -74 6 0 17 -15
26 -33 9 -17 42 -61 75 -97 32 -36 110 -129 171 -207 118 -149 184 -215 242
-242 19 -9 37 -19 40 -22 11 -14 364 -52 495 -53 50 -1 92 -3 95 -6 3 -4 25
-12 50 -19 61 -18 105 -64 114 -121 3 -25 18 -110 32 -190 29 -167 43 -190
115 -190 21 0 39 3 39 8 0 4 10 12 21 17 31 14 50 77 59 186 3 52 10 101 14
107 9 15 93 -43 171 -119 54 -53 65 -59 102 -59 48 0 53 8 53 86 0 35 -5 56
-12 59 -9 4 -12 21 -10 53 3 41 -1 54 -23 81 -46 54 -144 116 -300 189 -264
124 -364 157 -528 172 -279 25 -399 40 -426 54 -35 18 -97 86 -200 220 -43 56
-112 142 -154 191 -70 82 -75 90 -54 95 12 3 33 12 47 22 14 9 59 21 101 26
42 5 90 16 105 23 25 12 29 20 32 64 2 43 -1 55 -27 86 l-30 36 -143 7 c-79 4
-160 10 -181 14 l-39 7 69 33 c37 19 95 50 128 70 61 36 269 202 405 322 120
107 225 188 384 299 81 57 194 144 250 193 55 50 134 113 175 140 40 28 90 64
110 82 20 17 61 48 92 69 31 21 126 89 210 152 84 63 205 143 269 179 237 133
277 159 370 236 78 66 130 98 295 182 110 56 233 121 273 145 41 24 80 43 88
43 8 0 25 9 37 21 34 32 145 104 241 156 111 61 111 61 180 107 82 54 671 351
726 366 25 6 68 22 95 35 62 28 332 117 440 144 44 11 114 24 156 30 102 14
872 36 931 27 l47 -7 -15 -47 c-26 -87 -66 -256 -91 -387 -63 -337 -91 -469
-148 -680 -40 -150 -52 -185 -122 -365 -86 -217 -173 -390 -196 -390 -5 0 -27
-13 -50 -29 -23 -15 -85 -50 -137 -76 -52 -26 -113 -60 -135 -76 -63 -46 -115
-79 -125 -79 -6 0 -10 -4 -10 -10 0 -5 -17 -17 -37 -25 -20 -9 -56 -31 -79
-51 -24 -19 -60 -45 -81 -57 -50 -29 -63 -41 -231 -209 -217 -217 -242 -243
-242 -253 0 -6 -27 -23 -59 -39 -102 -50 -105 -54 -105 -131 0 -56 4 -71 20
-84 12 -9 24 -29 28 -44 6 -24 11 -27 47 -27 60 0 173 57 259 130 41 35 131
118 200 185 125 121 221 206 293 260 l39 29 -38 -70 c-20 -38 -56 -104 -80
-146 -24 -42 -44 -81 -44 -86 0 -5 -9 -20 -20 -33 -11 -13 -23 -28 -27 -34
-15 -18 -71 -149 -93 -215 -36 -105 -38 -260 -6 -446 14 -82 32 -168 39 -190
13 -36 18 -39 62 -47 72 -12 75 -9 75 77 0 74 0 75 28 78 26 3 27 5 30 75 2
40 -1 73 -6 73 -5 0 -12 37 -15 82 -5 80 -4 87 41 208 35 94 65 154 124 244
43 66 78 124 78 128 0 5 5 6 10 3 6 -3 10 -28 10 -56 0 -27 4 -49 9 -49 5 0
12 -24 16 -52 7 -50 23 -86 52 -116 7 -7 13 -28 13 -46 0 -18 9 -41 20 -54 11
-12 20 -28 20 -37 0 -8 7 -15 15 -15 11 0 15 -11 15 -40 0 -30 5 -43 24 -55
59 -39 81 -144 70 -336 -4 -79 -8 -186 -8 -238 l-1 -94 29 -10 c22 -7 31 -7
34 1 2 7 10 12 17 12 9 0 16 17 21 45 5 35 10 45 25 45 28 0 69 29 69 49 0 9
4 21 9 26 16 17 41 156 41 230 0 81 -17 196 -31 210 -5 5 -9 21 -9 36 0 14
-11 41 -24 60 -28 38 -106 173 -106 182 0 4 -16 40 -35 81 -67 140 -88 351
-61 591 9 77 19 148 22 157 3 9 30 29 60 44 35 17 78 52 123 100 59 63 77 92
131 211 75 166 148 355 183 478 49 168 135 558 172 778 l6 37 74 -60 c89 -73
142 -133 150 -170 3 -16 13 -31 21 -34 8 -3 14 -16 14 -30 0 -14 4 -27 9 -30
5 -3 12 -23 16 -43 4 -21 13 -46 22 -55 20 -22 35 -79 40 -155 5 -61 5 -62 36
-65 31 -3 32 -5 40 -63 9 -65 25 -85 68 -85 58 0 59 2 59 135 0 147 -31 288
-104 467 -65 161 -126 257 -228 358 -105 105 -112 126 -79 239 28 95 51 121
105 121 23 0 46 -4 51 -8 6 -4 25 -38 44 -77 18 -38 59 -108 90 -154 31 -47
59 -89 63 -95 4 -6 10 -24 13 -39 10 -48 47 -77 98 -77 64 0 71 13 75 144 4
121 5 118 -75 223 -21 27 -22 31 -6 28 10 -2 83 -16 163 -30 366 -66 684 -142
1070 -253 96 -28 270 -75 386 -105 116 -30 226 -62 245 -70 39 -19 73 -31 264
-96 165 -57 265 -94 320 -121 22 -11 54 -24 70 -30 36 -14 230 -97 265 -115
14 -7 39 -15 57 -18 17 -3 84 -29 150 -56 209 -88 466 -159 858 -236 315 -62
724 -173 1040 -281 402 -138 638 -221 888 -313 136 -50 271 -96 300 -102 70
-14 410 -100 419 -106 22 -13 -70 -120 -135 -159 -46 -27 -52 -35 -55 -67 -2
-20 1 -45 7 -55 8 -14 4 -25 -15 -47 -13 -15 -24 -31 -24 -35 0 -3 -16 -12
-35 -20 -19 -8 -35 -20 -35 -27 0 -7 -6 -13 -13 -13 -7 0 -17 -10 -22 -22 -13
-29 -71 -68 -100 -68 -27 0 -79 -55 -100 -108 -21 -49 -48 -76 -114 -113 -31
-18 -58 -35 -61 -39 -3 -4 -18 -10 -35 -12 -16 -3 -75 -20 -130 -37 -113 -36
-324 -81 -379 -81 -27 0 -42 -7 -59 -27 -12 -14 -30 -33 -39 -41 -24 -22 -35
-116 -17 -149 l14 -25 140 5 c123 4 159 10 298 46 87 23 185 52 217 66 33 14
61 25 63 25 5 0 -32 -221 -58 -340 -9 -43 -21 -181 -29 -325 -13 -275 -19
-299 -92 -402 -19 -27 -34 -52 -34 -56 0 -19 -83 -129 -135 -178 -81 -77 -122
-141 -216 -341 -10 -20 1 -258 11 -258 4 0 10 -9 13 -20 4 -17 14 -20 54 -20
l49 0 27 58 c108 238 125 266 209 358 45 50 98 112 116 138 l33 48 20 -20 c10
-12 19 -24 19 -28 0 -38 120 -214 146 -214 8 0 14 -7 14 -16 0 -23 52 -84 73
-84 9 0 17 -4 17 -10 0 -5 6 -10 13 -10 8 0 20 -12 28 -26 7 -15 34 -45 60
-68 25 -23 54 -56 63 -74 9 -17 20 -32 24 -32 5 0 38 -28 74 -62 85 -81 104
-124 112 -252 5 -91 4 -102 -19 -148 -14 -28 -25 -67 -25 -89 0 -21 -4 -39
-10 -39 -5 0 -10 -13 -10 -29 0 -16 -7 -34 -15 -41 -8 -7 -15 -21 -15 -31 0
-11 -5 -19 -10 -19 -7 0 -10 -25 -8 -67 l3 -68 40 -3 c57 -5 105 22 105 60 0
35 32 68 65 68 18 0 31 11 51 46 39 66 83 184 84 222 l0 32 101 0 100 0 74
-70 c41 -38 78 -70 83 -70 5 0 12 -9 15 -20 3 -12 14 -20 26 -20 15 0 21 -6
21 -20 0 -26 26 -77 41 -82 12 -4 13 -30 3 -96 -5 -38 -4 -44 15 -49 14 -4 23
-17 28 -47 8 -39 10 -41 50 -44 115 -9 138 26 130 203 -6 163 -39 222 -240
429 -120 123 -159 145 -260 146 -92 0 -123 16 -198 100 -128 144 -350 377
-420 440 -62 55 -213 242 -247 306 -31 59 -32 379 -2 495 18 68 40 295 40 419
0 156 12 260 45 398 l26 108 83 83 c82 81 101 96 162 125 17 8 49 39 72 70 38
49 229 206 253 206 18 0 189 161 189 179 0 10 10 23 23 29 12 7 34 21 49 33
20 17 45 23 102 27 70 4 76 3 76 -15 0 -49 145 -203 191 -203 9 0 19 -6 22
-14 3 -8 32 -28 65 -46 32 -17 92 -58 133 -92 41 -33 99 -78 131 -100 31 -22
61 -52 66 -66 6 -15 27 -79 47 -142 21 -63 43 -124 50 -136 7 -11 25 -67 38
-125 23 -95 42 -148 66 -189 8 -13 29 -81 83 -258 6 -18 17 -36 27 -38 36 -11
103 -49 108 -61 4 -9 26 -13 68 -13 74 0 75 1 75 104 0 65 -3 75 -30 106 -19
22 -41 71 -61 133 -17 54 -29 100 -27 101 3 4 177 -80 217 -104 13 -8 34 -25
47 -38 13 -12 34 -22 48 -22 35 0 56 -10 56 -26 0 -8 7 -14 15 -14 8 0 15 -7
15 -15 0 -10 10 -15 27 -15 32 0 151 -27 174 -40 9 -4 37 -11 62 -15 25 -4 54
-16 63 -26 9 -10 28 -19 41 -19 16 0 27 -7 30 -20 3 -12 14 -20 27 -20 29 0
64 -38 72 -78 6 -30 9 -32 50 -32 24 0 44 5 44 10 0 6 9 10 20 10 11 0 20 5
20 10 0 6 7 10 15 10 11 0 15 12 15 49 0 28 -4 53 -10 56 -5 3 -10 17 -10 31
0 37 -22 73 -77 125 -111 105 -186 148 -323 183 -128 32 -209 64 -237 92 -13
13 -29 24 -35 24 -15 0 -145 71 -228 125 -36 23 -91 57 -123 76 -33 19 -85 58
-118 87 -56 51 -60 58 -90 155 -17 56 -42 120 -56 142 -24 38 -136 128 -353
284 -58 42 -86 68 -78 72 26 16 120 21 441 23 429 4 662 24 831 72 66 19 165
39 220 45 56 6 162 17 236 25 74 8 203 18 285 24 83 5 224 16 315 25 91 8 338
19 550 25 235 6 420 15 475 24 50 8 196 19 325 25 129 7 276 18 325 26 132 22
130 22 145 -29 7 -25 21 -53 31 -62 23 -21 24 -52 4 -91 -38 -73 -97 -231
-102 -273 -4 -35 -1 -50 11 -62 9 -9 16 -26 16 -38 0 -19 5 -21 42 -18 32 2
45 9 57 29 29 48 84 123 128 176 57 68 81 124 95 223 10 66 15 80 30 80 10 0
18 -7 18 -17 0 -10 16 -29 35 -43 19 -14 35 -33 35 -42 0 -12 8 -18 25 -18 17
0 25 -6 25 -17 0 -9 12 -34 26 -55 25 -36 29 -38 81 -38 52 0 55 1 69 35 18
44 18 158 0 193 -8 15 -26 38 -40 51 -14 14 -26 30 -26 36 0 7 -10 24 -21 39
-25 32 -19 42 34 51 l37 7 0 -44 c0 -24 7 -53 15 -64 26 -38 87 -94 101 -94 8
0 14 -6 14 -12 1 -34 105 -118 146 -118 22 0 64 -42 64 -65 0 -25 22 -35 80
-35 48 0 60 15 60 71 0 51 -18 81 -178 302 -35 49 -61 91 -59 93 2 3 123 27
268 55 145 27 379 74 519 104 140 30 291 61 335 70 44 8 101 22 126 31 44 14
259 60 579 123 80 16 255 57 390 91 135 35 257 65 272 67 15 3 35 14 44 24 9
10 21 19 26 19 6 0 43 23 83 51 70 48 75 53 86 104 6 29 9 65 5 79 -7 28 -51
56 -89 56 -31 0 -37 27 -37 156 l0 93 40 46 c88 101 93 162 24 248 -18 23 -30
27 -70 27 -53 0 -93 -10 -254 -65 -58 -20 -193 -59 -300 -86 -107 -28 -242
-65 -300 -84 -58 -18 -134 -36 -170 -40 -36 -3 -96 -13 -135 -22 -39 -8 -167
-19 -289 -23 -172 -7 -243 -15 -330 -34 -61 -13 -181 -38 -266 -56 -85 -17
-222 -49 -305 -70 -234 -61 -410 -99 -531 -114 -61 -8 -137 -24 -170 -36 -32
-11 -129 -36 -214 -56 -85 -19 -200 -50 -255 -69 -150 -51 -412 -89 -733 -105
-106 -6 -200 -14 -210 -20 -18 -9 -97 -34 -143 -44 -15 -3 -89 -15 -165 -26
-77 -11 -166 -29 -199 -40 -92 -30 -173 -39 -390 -46 -188 -6 -210 -8 -364
-46 -90 -22 -202 -43 -250 -48 -143 -14 -405 -22 -428 -13 -21 8 -17 15 75
159 53 83 108 170 122 193 34 57 84 122 159 205 35 38 115 132 179 209 108
130 230 247 258 247 6 0 14 7 18 15 6 18 182 105 211 105 11 0 49 6 85 14 36
8 113 22 173 31 163 25 330 68 478 125 74 28 143 56 154 62 10 6 39 21 62 34
67 35 200 144 289 236 164 170 214 229 407 488 108 146 208 278 222 294 14 16
25 32 25 36 0 16 264 367 388 515 68 83 136 168 150 190 15 22 47 67 73 100
26 33 88 125 139 205 51 79 154 237 230 350 117 175 424 656 528 828 37 61
184 428 235 587 50 155 135 658 149 875 6 91 11 575 12 1075 l1 910 -27 180
c-36 232 -106 605 -118 627 -19 34 -59 308 -85 578 -38 402 -42 430 -110 750
-140 661 -202 916 -255 1049 -11 29 -43 130 -71 225 -86 292 -104 316 -237
316 -44 0 -84 -6 -101 -15 -32 -16 -162 -152 -198 -206 -13 -20 -30 -71 -39
-115 -19 -97 -79 -377 -99 -461 -22 -91 -73 -228 -101 -269 -14 -20 -31 -53
-38 -73 -7 -20 -59 -155 -115 -301 -111 -287 -171 -414 -306 -645 -128 -221
-126 -217 -209 -383 -72 -143 -170 -360 -202 -445 -8 -21 -49 -95 -92 -165
-115 -186 -120 -196 -240 -452 -312 -667 -447 -936 -583 -1170 -102 -174 -265
-498 -312 -620 -24 -63 -63 -167 -87 -230 -64 -170 -114 -294 -159 -396 -50
-114 -257 -726 -310 -916 -122 -438 -152 -588 -171 -853 -9 -132 -62 -505 -75
-525 -5 -8 -66 -595 -90 -875 -9 -99 -20 -218 -25 -265 -12 -105 -37 -498 -46
-722 -5 -120 -11 -177 -23 -202 -20 -46 -102 -143 -266 -319 -137 -147 -302
-345 -363 -437 -19 -30 -59 -84 -88 -120 -29 -36 -109 -159 -179 -275 -69
-115 -145 -229 -169 -253 l-42 -43 -125 -9 c-68 -6 -227 -23 -354 -38 -169
-20 -275 -27 -400 -27 -175 1 -539 28 -610 46 -22 5 -89 20 -150 33 -260 56
-547 142 -655 196 -104 52 -219 87 -388 116 -143 24 -312 75 -587 177 -146 54
-317 125 -328 136 -11 11 119 166 167 201 19 14 40 36 46 50 10 20 117 187
216 334 10 16 26 39 34 52 8 12 33 53 54 91 115 200 143 225 413 364 171 88
263 120 426 149 111 20 342 86 467 133 101 38 295 132 332 160 18 14 78 51
133 83 135 77 313 198 410 279 122 101 512 477 518 500 4 11 29 47 57 80 103
121 299 430 441 692 49 92 97 173 105 179 8 6 14 23 14 37 0 87 392 686 930
1422 84 116 173 240 198 278 25 37 49 67 53 67 5 0 9 4 9 9 0 5 21 45 47 88
62 105 263 502 295 583 293 741 452 1201 612 1775 40 143 124 493 141 585 14
74 167 676 209 823 25 84 72 223 105 308 32 85 118 311 191 503 72 193 165
433 207 535 41 102 88 222 103 266 72 203 122 323 158 379 14 22 34 64 44 93
55 159 223 487 308 601 20 26 80 126 134 222 54 96 128 227 164 290 66 115
227 371 386 615 286 439 521 1037 582 1485 8 58 17 206 20 330 6 201 4 239
-15 355 -34 207 -69 346 -128 519 -103 302 -173 420 -369 623 -88 91 -117 113
-258 199 -199 119 -270 155 -372 187 -113 36 -223 54 -399 68 -298 23 -400 1
-743 -157 -83 -38 -223 -127 -297 -188 -93 -77 -351 -341 -427 -436 -80 -101
-142 -193 -169 -250 -9 -19 -64 -110 -123 -202 -58 -92 -136 -222 -172 -290
-37 -68 -107 -196 -156 -285 -97 -177 -177 -342 -262 -541 -83 -193 -162 -357
-215 -447 -86 -144 -129 -229 -156 -310 -37 -108 -98 -250 -215 -495 -107
-224 -141 -311 -291 -749 -132 -387 -327 -829 -388 -885 -12 -11 -21 -24 -21
-30 0 -6 -6 -22 -13 -36 -36 -66 -177 -329 -240 -445 -39 -71 -132 -224 -207
-340 -190 -292 -388 -623 -519 -867 -120 -225 -217 -388 -288 -483 -24 -33
-83 -123 -131 -200 -49 -77 -120 -188 -159 -246 -123 -183 -201 -314 -330
-558 -151 -285 -306 -544 -420 -706 -89 -125 -254 -446 -343 -665 -72 -178
-166 -457 -214 -640 -43 -161 -96 -330 -211 -675 -24 -71 -82 -224 -130 -338
-89 -214 -337 -882 -395 -1062 -99 -312 -115 -480 -115 -1220 1 -575 9 -781
46 -1185 23 -248 21 -296 -17 -465 -29 -132 -48 -172 -259 -545 -47 -83 -232
-350 -271 -391 l-25 -26 -72 14 c-40 8 -144 27 -232 43 -88 16 -198 42 -245
59 -47 18 -123 43 -168 56 -129 39 -555 206 -735 289 -203 93 -230 104 -457
181 -102 35 -230 80 -285 100 -212 77 -300 105 -379 119 -107 20 -303 46 -343
46 -17 0 -34 4 -37 8 -3 5 -55 12 -117 16 -286 17 -699 69 -922 115 -51 11
-130 25 -177 31 -47 7 -132 27 -190 45 -58 18 -150 47 -205 64 -106 32 -169
69 -224 132 -30 35 -31 38 -17 65 8 16 45 94 81 174 37 80 73 152 80 160 7 8
15 28 19 44 4 15 52 122 106 237 55 116 100 213 100 217 0 11 71 124 106 168
38 47 69 108 79 151 3 18 10 33 14 33 3 0 12 28 18 62 7 34 21 74 32 89 16 21
21 43 21 88 0 32 13 131 29 218 24 130 38 179 76 264 26 57 66 130 91 162 24
31 44 64 44 72 0 8 64 81 143 163 79 82 165 182 194 225 69 106 200 355 264
502 28 66 56 125 61 132 5 7 16 42 24 79 9 44 27 88 53 128 67 103 142 307
202 550 34 139 92 536 109 741 16 210 46 411 102 700 27 143 54 283 60 310 5
28 47 221 93 430 46 209 111 522 144 695 34 173 77 374 96 445 19 72 51 193
70 271 69 286 231 819 281 929 7 17 34 96 58 176 25 81 78 229 117 330 39 101
113 310 165 464 51 154 116 345 144 424 27 78 68 209 91 290 22 80 106 349
186 596 181 559 209 650 228 750 9 44 22 103 30 130 71 266 108 543 132 995
27 510 18 913 -23 1115 -23 115 -62 255 -95 345 -36 99 -160 367 -260 559 -38
73 -69 138 -69 143 0 5 -9 18 -19 30 -20 21 -33 44 -253 458 -72 135 -139 254
-148 265 -10 11 -26 36 -37 56 -20 39 -33 61 -112 187 -29 48 -81 134 -114
192 -33 58 -99 164 -147 235 -143 214 -210 324 -261 426 -48 97 -183 413 -233
547 -34 89 -258 542 -536 1082 -114 223 -211 416 -215 430 -4 14 -14 32 -22
41 -7 9 -22 38 -32 65 -37 98 -297 720 -310 744 -5 8 -28 50 -51 93 -98 187
-183 307 -340 481 -92 103 -249 248 -325 299 -33 22 -90 65 -127 95 -38 30
-84 58 -105 63 -43 10 -160 9 -243 0z m1314 -4356 c7 -45 2 -38 -13 19 -6 22
-6 35 -1 30 4 -5 11 -27 14 -49z m10696 -4962 c-11 -17 -11 -17 -6 0 3 10 6
24 7 30 0 9 2 9 5 0 3 -7 0 -20 -6 -30z m-10789 -6674 c-9 -22 -10 -22 -10 -3
-1 11 2 24 6 27 12 12 14 0 4 -24z m11889 -76 c-11 -17 -11 -17 -6 0 3 10 6
24 7 30 0 9 2 9 5 0 3 -7 0 -20 -6 -30z m-128 -395 c-8 -8 -9 -4 -5 13 4 13 8
18 11 10 2 -7 -1 -18 -6 -23z m-205 -670 c-3 -8 -6 -5 -6 6 -1 11 2 17 5 13 3
-3 4 -12 1 -19z"/>
<path d="M7997 24461 c-81 -17 -157 -112 -202 -252 -13 -41 -40 -153 -60 -248
-27 -128 -50 -208 -89 -305 -29 -72 -70 -185 -91 -251 -20 -66 -59 -163 -86
-217 -27 -53 -74 -156 -105 -230 -59 -139 -109 -244 -127 -266 -10 -12 -98
-226 -157 -382 -15 -41 -58 -149 -95 -240 -74 -184 -124 -347 -156 -508 -11
-59 -25 -111 -30 -116 -5 -6 -9 -30 -9 -55 0 -26 -7 -91 -16 -146 -21 -138
-20 -335 2 -377 10 -19 20 -72 24 -128 4 -52 15 -112 24 -132 12 -29 16 -71
16 -186 0 -109 4 -161 15 -193 11 -31 18 -102 22 -244 5 -199 5 -201 44 -315
21 -63 55 -155 74 -204 37 -91 78 -236 89 -316 4 -25 17 -69 31 -97 13 -29 29
-85 34 -125 13 -90 21 -116 61 -201 22 -47 34 -89 38 -134 4 -48 13 -79 32
-112 82 -138 131 -224 165 -294 21 -43 57 -99 80 -125 42 -46 75 -103 90 -152
4 -14 28 -61 53 -105 137 -238 286 -623 328 -840 8 -44 21 -84 27 -90 8 -7 11
-39 7 -110 -3 -55 -2 -120 1 -145 4 -25 12 -85 19 -135 10 -68 13 -505 15
-1825 2 -1614 3 -1739 19 -1795 14 -49 18 -109 20 -315 3 -225 5 -262 23 -315
16 -47 21 -88 21 -183 1 -88 7 -143 21 -195 10 -39 22 -115 25 -167 8 -114 15
-171 55 -445 29 -197 52 -456 85 -935 12 -165 18 -214 35 -250 19 -41 21 -65
21 -270 1 -161 5 -242 15 -285 8 -33 18 -114 21 -180 4 -77 13 -141 25 -178
11 -34 19 -85 19 -127 l0 -70 29 0 c45 0 115 41 108 63 -1 5 28 41 65 80 59
62 81 98 165 267 54 107 115 233 134 280 20 47 62 141 94 210 62 133 207 560
249 732 14 56 30 141 36 188 13 106 13 331 1 397 -6 27 -19 132 -30 233 -25
220 -49 396 -102 740 -74 487 -110 802 -144 1288 -14 192 -14 250 -3 410 15
229 15 812 -1 982 -33 357 -51 792 -51 1263 l0 338 39 287 c105 763 143 1024
176 1222 19 118 49 318 66 445 29 221 31 231 57 252 24 19 24 21 6 17 -12 -3
-25 -1 -28 5 -12 19 24 441 59 686 18 132 39 292 45 355 6 63 18 158 27 210
21 120 23 404 5 510 -8 41 -24 116 -37 165 -50 186 -90 496 -120 919 -43 591
-116 920 -411 1851 -122 387 -151 465 -241 659 -90 195 -119 242 -192 307 -59
53 -185 119 -261 137 -66 16 -169 22 -213 13z"/>
<path d="M8182 11160 c0 -14 2 -19 5 -12 2 6 2 18 0 25 -3 6 -5 1 -5 -13z"/>
<path d="M8182 11025 c0 -16 2 -22 5 -12 2 9 2 23 0 30 -3 6 -5 -1 -5 -18z"/>
<path d="M8188 10940 c-3 -31 0 -71 7 -95 l13 -40 0 75 c1 97 -13 137 -20 60z"/>
</g>
</svg>
